<?xml version="1.0" encoding="UTF-8" standalone="no"?>
<svg xmlns:xlink="http://www.w3.org/1999/xlink" height="23.85px" width="79.35px" xmlns="http://www.w3.org/2000/svg">
  <g transform="matrix(1.0, 0.0, 0.0, 1.0, -0.65, 0.0)">
    <path d="M62.75 6.2 Q63.1 5.55 63.7 5.85 64.3 6.1 64.05 6.85 L62.7 9.7 Q62.15 10.8 61.15 11.15 L59.05 10.95 Q57.9 10.45 57.55 9.45 57.15 8.5 57.65 7.35 L59.0 4.5 Q59.35 3.8 60.0 4.1 60.6 4.35 60.3 5.1 L59.0 7.95 Q58.7 8.5 58.95 8.95 59.1 9.4 59.6 9.65 L60.65 9.75 61.4 9.05 62.75 6.2 M79.3 17.8 Q80.4 19.15 79.75 19.8 L78.8 19.7 78.5 19.25 78.2 18.65 Q77.8 18.15 77.4 18.45 77.15 18.6 77.25 18.95 L77.65 20.0 77.9 21.15 Q77.9 21.8 77.25 22.35 76.4 23.05 75.55 22.85 74.7 22.65 74.05 21.9 L73.35 20.65 Q73.05 19.9 73.45 19.5 73.65 19.35 74.0 19.3 74.25 19.3 74.5 19.55 L74.75 20.15 75.2 21.0 Q75.75 21.55 76.15 21.2 76.4 20.95 76.3 20.6 L75.95 19.6 Q75.65 19.05 75.65 18.5 75.6 17.9 76.25 17.35 77.05 16.7 77.85 16.9 78.7 17.1 79.3 17.8 M41.65 3.8 L41.65 0.8 Q41.7 -0.05 42.35 0.0 43.1 -0.05 43.15 0.8 L43.15 5.75 Q43.1 6.5 42.35 6.55 L41.9 6.35 41.4 5.75 38.95 2.7 38.95 5.75 Q38.9 6.5 38.2 6.55 37.5 6.5 37.45 5.75 L37.45 0.8 Q37.5 -0.05 38.2 0.0 38.45 -0.05 38.7 0.15 L39.2 0.8 41.6 3.8 41.65 3.8 M21.7 10.1 Q22.45 9.7 22.55 9.0 22.65 8.3 22.25 7.65 22.0 6.95 21.4 6.6 L20.0 6.55 Q19.3 6.9 19.2 7.6 19.1 8.3 19.4 9.0 19.75 9.7 20.35 10.05 L21.7 10.1 M23.75 6.95 Q24.35 8.35 23.95 9.55 23.55 10.7 22.25 11.35 L19.8 11.5 Q18.65 11.05 18.0 9.65 17.35 8.25 17.75 7.1 18.15 5.9 19.45 5.3 L21.9 5.15 Q23.05 5.6 23.75 6.95 M4.75 18.55 L4.75 19.25 Q5.25 18.85 5.8 18.85 6.35 18.8 6.85 19.2 7.4 19.7 7.5 20.5 7.55 21.25 6.85 22.2 L5.7 23.6 5.25 23.85 4.7 23.65 0.9 20.5 Q0.6 20.25 0.65 19.95 0.65 19.65 0.8 19.45 L1.9 18.15 Q2.45 17.5 3.1 17.45 3.75 17.35 4.35 17.85 L4.75 18.55 M3.6 20.0 Q4.0 19.5 3.6 19.1 3.1 18.75 2.7 19.25 L2.3 19.75 3.2 20.5 3.6 20.0 M4.2 21.3 L5.2 22.15 5.75 21.45 6.05 20.9 5.85 20.4 Q5.55 20.15 5.25 20.25 L4.75 20.65 4.2 21.3" fill="#000000" fill-rule="evenodd" stroke="none"/>
  </g>
</svg>
