<?xml version="1.0" encoding="UTF-8" standalone="no"?>
<svg xmlns:xlink="http://www.w3.org/1999/xlink" height="153.0px" width="153.5px" xmlns="http://www.w3.org/2000/svg">
  <g transform="matrix(1.0, 0.0, 0.0, 1.0, 7.5, 10.0)">
    <path d="M131.0 29.5 Q127.65 30.0 124.9 30.8 119.5 32.45 119.5 35.0 119.5 35.6 119.95 36.1 123.75 37.2 126.0 38.05 L127.75 38.4 Q136.0 41.1 136.0 52.0 L134.3 52.9 Q132.05 53.95 130.0 56.0 L125.8 50.4 Q122.0 45.05 122.0 44.5 122.0 43.3 123.25 41.95 125.05 40.0 128.5 40.0 L128.55 39.75 Q128.7 39.5 129.0 39.5 128.75 39.0 126.0 38.05 L122.1 37.15 Q120.55 36.75 119.95 36.1 L119.85 36.05 Q111.25 33.5 109.0 33.5 L108.3 38.15 Q108.0 41.25 108.0 43.5 101.55 40.6 95.25 34.5 89.0 28.45 89.0 25.25 L89.05 24.75 Q85.3 22.85 81.5 19.5 73.5 12.45 73.5 7.25 73.5 4.1 74.25 3.4 74.7 2.95 76.0 2.0 74.65 0.65 72.7 0.25 L67.25 0.0 Q61.85 0.0 57.0 1.0 51.5 2.1 51.5 3.75 51.5 7.75 57.25 9.55 60.3 10.5 61.2 11.1 63.0 12.2 63.0 14.25 63.0 15.6 60.0 17.0 56.65 18.5 52.25 18.5 41.5 15.65 41.5 11.0 41.5 9.8 43.4 7.7 L46.0 5.0 38.75 4.5 34.0 5.0 Q33.0 5.5 33.0 7.25 33.0 8.2 33.5 9.0 34.1 10.0 35.0 10.0 35.5 10.0 38.1 8.3 L38.5 7.5 38.5 8.0 38.1 8.3 Q34.05 15.8 29.5 22.8 28.0 25.05 28.0 28.5 28.0 32.0 29.35 33.55 30.6 34.95 33.95 35.65 L42.6 36.95 Q49.7 38.0 56.0 39.5 43.65 39.7 33.6 38.05 14.0 34.85 14.0 22.75 14.0 20.95 17.85 17.55 L25.0 11.5 24.25 10.3 Q23.25 9.5 20.75 9.5 15.75 9.5 13.5 14.5 12.0 17.85 12.0 22.5 12.0 33.4 18.5 41.5 21.75 45.6 25.25 47.5 L32.4 46.25 Q38.15 45.0 41.0 45.0 L41.0 48.0 Q40.2 61.35 31.95 69.0 27.85 72.85 23.75 74.0 21.95 74.0 16.4 71.25 11.5 68.8 5.6 68.55 L4.0 69.0 4.0 68.5 5.6 68.55 Q7.2 67.75 8.35 65.6 11.6 59.6 15.0 41.5 L15.0 38.5 14.65 38.05 13.75 38.0 Q12.3 38.0 6.05 49.0 0.0 59.6 0.0 60.5 0.0 68.5 10.0 82.0 19.6 95.0 24.0 95.0 L24.35 95.0 Q25.25 93.45 26.45 92.0 29.4 88.35 32.5 86.5 35.35 86.5 39.0 89.0 43.0 91.7 43.0 94.5 43.0 96.1 41.5 103.75 41.5 104.8 41.8 106.7 42.15 108.8 42.5 109.5 L40.55 110.4 Q38.45 111.45 38.0 112.0 38.9 113.55 41.85 115.5 43.8 116.8 45.65 117.4 L48.55 114.85 Q54.85 109.6 56.5 109.0 57.65 109.65 57.9 110.5 L58.0 112.0 Q58.0 113.9 56.5 115.5 54.15 118.0 49.0 118.0 47.35 118.0 45.65 117.4 42.0 120.75 42.0 121.75 42.0 125.1 48.0 130.2 L49.7 131.65 56.0 125.0 Q64.5 116.25 66.25 115.55 L66.0 115.5 66.5 115.5 66.25 115.55 Q71.25 116.75 73.5 118.9 73.95 111.9 74.5 109.0 77.9 110.35 81.2 112.95 L85.5 117.0 87.65 119.3 Q97.2 116.3 105.35 115.4 L103.05 113.05 96.0 114.0 M110.0 9.75 Q110.0 8.65 105.0 6.0 98.5 2.5 90.25 2.5 89.0 2.5 88.0 3.5 87.0 4.55 87.0 6.0 87.0 9.5 92.45 12.8 L98.25 16.25 99.5 15.55 106.7 11.95 Q110.0 10.3 110.0 9.75 M98.25 16.25 L99.5 17.0 Q100.15 17.7 100.25 20.95 100.3 24.4 101.5 26.0 L100.3 26.95 98.0 27.0 Q93.6 27.0 89.05 24.75 89.6 21.0 98.25 16.25 M103.05 113.05 L103.0 113.0 Q96.5 105.75 96.5 97.25 96.5 89.0 100.25 89.0 L107.1 89.95 115.35 91.5 117.25 90.25 120.9 87.75 Q122.0 86.65 122.0 85.0 122.0 83.35 120.5 82.75 L117.25 82.15 Q112.5 81.4 112.5 76.5 L112.55 74.95 Q109.5 73.5 109.5 73.25 109.5 71.9 112.55 70.5 L112.9 70.35 Q113.95 62.4 118.0 57.5 121.65 53.0 124.25 53.0 133.0 65.4 133.0 67.75 133.0 69.0 132.0 70.0 130.55 71.5 127.5 71.5 L124.4 70.25 Q121.15 69.0 119.5 69.0 116.0 69.0 112.9 70.35 112.6 72.5 112.55 74.95 L124.0 79.95 Q138.5 86.15 138.5 87.5 138.5 89.2 137.9 91.0 L137.5 92.0 136.5 94.0 Q122.6 104.0 121.0 103.5 122.6 104.85 124.0 111.65 122.4 115.7 120.85 115.5 117.05 119.5 113.75 119.5 109.8 119.5 105.35 115.4 L112.0 115.0 120.85 115.5 124.0 111.65 M136.5 94.0 L123.5 93.5 115.35 91.5 Q107.7 96.6 100.0 104.0 101.4 104.95 103.4 105.8 105.8 106.85 107.5 107.0 L106.7 109.9 Q106.35 111.25 105.65 111.9 104.95 112.55 103.05 113.05 M24.35 95.0 L27.25 94.5 30.5 94.0 Q32.6 94.0 33.5 95.3 34.0 96.05 34.0 96.75 L30.75 102.9 Q27.5 109.65 27.5 113.0 23.4 113.0 22.0 112.15 20.5 111.25 20.5 108.5 20.5 101.15 24.35 95.0 M73.3 122.1 L73.0 125.2 Q74.1 124.55 75.45 123.9 75.35 121.15 74.1 119.55 L73.5 118.9 73.3 122.1 M49.7 131.65 L54.0 134.75 Q54.0 135.85 53.0 136.5 52.25 137.0 51.25 137.0 L49.45 136.75 47.5 136.5 47.25 135.8 47.0 134.5 49.7 131.65 M75.95 128.7 Q77.0 130.5 81.25 130.5 86.3 130.5 92.0 126.0 92.0 125.3 91.25 123.95 90.1 122.0 87.65 119.3 L84.0 120.5 Q78.9 122.3 75.45 123.9 L75.45 124.5 Q75.45 127.9 75.95 128.7 M73.0 125.2 Q72.35 129.2 70.5 132.5 68.5 131.05 68.5 129.75 68.5 127.7 73.0 125.2" fill="none" stroke="#977865" stroke-linecap="round" stroke-linejoin="round" stroke-opacity="0.6" stroke-width="1.0"/>
    <path d="M139.5 73.0 Q140.5 68.5 140.5 65.75 140.5 62.2 139.3 59.35 137.75 55.65 135.0 56.0 134.0 55.75 134.0 54.5 L137.0 47.25 Q137.0 44.1 135.5 43.0 134.1 42.0 130.5 42.0 L127.0 42.5 123.5 43.0 Q122.65 43.0 117.5 41.0 112.0 38.9 112.0 38.0 112.0 35.0 113.8 32.45 111.3 32.2 109.3 30.0 L107.0 26.0 Q107.0 25.0 112.0 22.2 L112.85 21.75 112.3 20.25 112.5 20.0 Q112.5 17.45 115.0 14.65 L117.5 12.25 Q117.5 6.2 113.8 4.0 112.65 3.3 111.25 3.1 L110.0 3.0 106.15 3.3 102.5 4.0 Q101.6 1.55 99.85 0.45 97.85 -0.45 97.05 -1.15 L94.5 -1.5 Q87.75 -1.5 85.0 0.0 83.5 0.8 83.5 1.75 83.5 2.05 87.25 6.65 91.0 11.25 91.0 13.0 91.0 17.55 85.45 20.0 L79.75 21.5 Q77.45 21.5 75.0 17.55 L73.0 13.5 Q73.0 12.9 73.5 11.65 L74.0 9.75 Q73.65 6.85 71.5 4.05 67.25 -1.5 58.5 -1.5 55.9 -1.5 55.0 -0.5 54.0 0.6 54.0 3.75 L54.2 5.7 Q58.1 8.6 57.5 11.75 L57.5 12.5 57.45 12.5 59.5 15.0 Q64.1 20.0 65.25 20.0 66.55 20.0 68.0 18.0 69.5 20.2 69.5 22.25 69.5 25.9 66.0 28.5 62.7 31.0 58.75 31.0 L57.1 30.85 Q58.0 33.0 58.0 35.5 58.0 37.75 55.5 39.0 53.55 40.0 51.25 40.0 48.05 40.0 43.0 36.8 L37.0 32.5 Q38.9 29.0 45.0 24.65 L48.2 22.55 47.75 22.25 Q42.65 19.15 40.7 17.1 37.65 13.85 37.5 9.5 L36.75 10.15 34.4 11.5 Q32.75 12.6 31.5 14.5 L31.5 11.5 Q31.9 7.5 34.5 7.5 L37.5 8.3 Q37.6 5.05 38.5 3.05 33.1 3.3 24.75 9.2 15.5 15.75 15.5 21.0 15.5 22.05 16.75 23.5 19.8 26.95 23.0 31.5 L30.8 36.9 30.95 37.0 31.5 37.0 31.35 37.25 36.45 40.45 Q39.45 39.0 42.5 39.0 L44.85 39.25 47.0 39.5 47.0 41.0 Q46.4 41.3 46.15 41.95 L46.0 42.5 40.5 42.5 Q39.35 42.15 36.45 40.45 32.95 42.05 29.5 45.5 24.0 51.05 24.0 54.0 24.0 54.9 29.0 58.95 34.0 63.05 34.0 64.5 34.0 66.15 31.5 68.0 28.8 70.0 25.75 70.0 20.2 70.0 18.0 68.5 16.7 67.6 16.25 66.0 L16.0 74.0 Q16.75 74.0 22.55 77.15 L24.45 78.2 Q25.75 76.5 27.0 76.5 L27.85 76.45 Q28.9 76.5 29.9 77.25 33.15 79.55 35.5 87.5 L35.75 88.3 37.15 88.9 Q40.2 90.9 45.5 96.5 L50.2 101.7 63.0 106.5 57.9 110.65 61.0 114.5 60.5 116.0 Q59.5 117.5 57.0 117.5 L49.2 116.75 45.4 119.25 Q50.05 122.5 53.75 122.5 L57.5 121.75 61.25 121.0 64.5 121.5 Q64.8 123.45 66.25 125.4 68.15 128.0 70.75 128.0 74.05 124.4 78.0 120.75 81.5 117.6 84.2 115.8 83.15 114.9 82.5 113.5 L89.4 112.9 87.35 111.05 85.75 111.5 Q74.65 115.0 72.75 115.0 70.1 115.0 67.6 105.0 L66.9 101.5 53.5 100.5 63.5 92.5 64.95 94.6 65.25 95.0 Q65.5 95.0 66.9 101.5 L72.25 102.75 Q80.55 105.25 87.35 111.05 97.4 108.0 104.0 108.0 100.2 111.75 91.45 112.8 L89.4 112.9 90.0 113.5 Q87.75 113.5 84.2 115.8 L85.6 116.7 Q87.3 117.5 90.0 117.5 93.05 117.5 97.75 115.55 L106.5 111.5 Q111.55 109.15 113.95 105.9 115.5 103.85 115.5 102.5 115.5 101.45 114.5 100.5 112.9 99.0 109.5 99.0 L107.15 99.5 105.0 100.0 105.25 98.1 105.5 96.0 Q105.5 95.2 104.4 94.4 102.95 93.4 101.0 94.0 L101.0 92.75 Q101.0 90.4 105.0 86.5 108.6 83.0 109.5 83.0 110.25 83.0 112.8 86.9 115.7 91.25 116.0 94.5 L119.5 94.5 Q122.85 94.7 124.75 90.65 L126.0 86.5 Q126.0 84.4 120.2 81.4 112.5 77.4 101.0 78.0 L110.35 69.4 120.5 60.0 121.0 59.5 Q122.3 62.1 127.55 68.05 133.7 75.0 136.25 75.0 L137.65 74.75 Q138.3 74.1 138.5 74.0 M103.0 0.0 L98.35 -0.95 97.05 -1.15 M134.0 24.0 Q133.25 19.85 130.55 18.85 L126.0 18.5 Q118.95 18.5 112.85 21.75 L114.5 25.5 116.55 29.6 Q118.6 27.95 121.55 26.55 125.1 24.9 128.8 24.15 L133.5 24.0 134.0 24.0 M116.55 29.6 Q114.85 30.9 113.8 32.45 115.3 32.6 117.0 32.0 117.5 32.25 117.5 31.0 L116.9 30.15 116.55 29.6 M51.8 4.2 Q45.95 1.0 40.5 1.0 39.35 1.0 38.5 3.0 L38.5 3.05 39.0 3.0 Q39.0 6.6 38.1 8.55 41.1 9.6 46.3 11.8 L51.35 14.0 Q54.2 12.45 57.45 12.5 54.8 8.95 54.2 5.7 L51.8 4.2 M48.2 22.55 L48.25 22.5 47.55 20.75 47.0 18.75 Q47.0 16.75 50.2 14.65 L51.35 14.0 Q56.55 16.3 57.0 17.0 51.35 20.5 48.25 22.5 L48.3 22.6 Q53.0 25.45 54.8 27.4 56.3 29.0 57.1 30.85 52.55 30.1 49.5 24.95 L48.3 22.6 48.2 22.55 M37.5 9.0 L37.5 9.5 38.1 8.55 37.5 8.3 37.5 9.0 M23.8 40.15 Q17.3 41.25 17.0 42.5 16.55 44.35 16.35 57.25 L16.3 62.15 Q17.3 58.35 21.6 50.35 L27.85 39.25 23.8 40.15 M30.95 37.0 L31.35 37.25 Q30.55 38.4 27.85 39.25 L29.0 37.0 30.95 37.0 M16.25 66.0 Q16.0 65.1 16.0 64.0 16.0 63.25 16.3 62.15 L16.25 66.0 M24.45 78.2 Q29.1 80.6 31.0 81.0 31.0 85.15 29.5 87.55 27.7 90.5 24.0 90.5 22.25 90.5 21.5 89.0 21.0 88.05 21.0 86.75 21.0 84.25 23.0 80.5 23.75 79.1 24.45 78.2 M45.4 119.25 L43.5 120.5 Q39.1 120.5 37.35 117.55 36.4 115.95 35.9 112.4 L33.0 111.0 Q33.5 111.0 33.5 110.5 34.6 109.7 35.45 108.2 34.9 102.7 34.35 100.45 33.25 95.6 30.65 92.0 L25.5 97.0 25.0 97.3 24.55 97.8 Q24.9 96.55 26.75 93.8 28.7 91.0 29.5 90.5 L30.65 92.0 32.0 90.7 35.0 88.0 35.75 88.3 37.3 94.75 37.5 98.0 37.5 99.0 38.0 99.0 Q41.4 98.7 48.9 101.2 L50.2 101.7 55.55 107.9 57.9 110.65 49.2 116.75 Q44.45 115.8 39.3 113.8 L42.5 117.0 45.4 119.25 M35.5 99.0 L35.25 100.6 35.0 102.75 Q35.0 105.25 35.75 107.6 L36.25 106.4 Q37.35 103.35 37.5 99.0 L35.5 99.0 M35.65 110.2 L35.9 112.4 39.3 113.8 Q36.8 110.8 35.75 107.6 L35.45 108.2 35.65 110.2" fill="none" stroke="#977865" stroke-linecap="round" stroke-linejoin="round" stroke-opacity="0.6" stroke-width="1.0"/>
    <path d="M65.45 -3.3 Q57.25 -1.6 56.0 -1.0 61.75 5.2 68.3 10.8 L70.0 11.0 75.8 9.75 82.75 8.5 Q82.9 8.5 86.0 10.25 L89.25 12.0 93.5 10.5 Q95.0 13.5 103.55 19.75 L113.5 27.0 113.0 27.0 Q110.6 27.0 107.35 28.0 104.1 29.0 102.25 29.0 92.7 29.0 77.25 17.8 L68.3 10.8 Q65.6 10.05 62.25 7.15 58.35 3.8 57.5 1.5 52.95 2.4 49.4 3.8 42.5 6.55 42.5 11.75 42.5 13.25 45.05 14.0 L47.75 14.5 48.5 14.0 48.8 13.95 49.45 13.55 Q46.65 16.35 45.5 19.25 44.8 21.0 43.75 21.0 41.45 21.0 39.1 16.4 37.0 12.3 37.0 9.5 37.5 9.0 36.25 9.0 30.7 9.0 27.5 11.0 25.0 12.55 25.0 14.25 25.0 16.2 28.3 18.6 L29.2 19.2 Q32.85 21.4 37.5 21.5 L37.8 21.75 38.5 22.0 Q37.15 23.7 35.15 27.35 34.0 29.5 33.0 29.5 26.7 29.5 26.55 26.5 L26.3 23.85 Q25.9 22.7 24.45 21.95 L24.3 22.0 Q23.6 22.25 23.0 22.55 19.25 24.05 17.8 24.8 9.5 29.2 9.5 37.5 L15.0 43.0 Q12.25 45.45 5.25 47.9 1.0 49.4 1.0 54.0 L1.3 54.8 Q1.9 55.8 3.6 57.0 8.9 60.85 23.0 65.5 L19.9 68.3 21.8 69.55 Q24.3 71.0 26.0 71.0 L26.0 71.5 17.05 78.05 Q19.0 83.05 24.5 88.55 L30.35 94.3 Q33.0 97.25 33.0 99.25 33.0 100.05 30.25 101.75 28.55 102.75 27.25 103.2 L27.5 106.0 27.2 107.7 Q29.6 111.5 35.5 115.35 40.1 118.4 44.5 120.5 44.5 122.45 43.5 124.05 42.6 125.5 41.75 125.5 34.15 125.5 26.0 116.55 L26.0 117.0 Q26.0 120.7 32.45 124.25 39.85 128.35 40.5 129.5 L43.2 134.2 Q45.5 137.5 47.5 137.5 53.5 137.5 57.5 135.0 61.0 132.85 61.0 130.25 61.0 124.05 57.5 125.0 L61.4 121.25 Q62.3 120.5 62.75 120.5 66.95 120.5 71.05 128.6 75.1 136.55 74.05 142.3 82.4 138.95 84.95 134.8 85.55 133.85 85.8 132.6 L84.5 133.5 85.05 129.05 Q84.4 128.6 83.4 128.2 L77.65 126.15 Q69.35 123.2 69.5 119.5 69.7 112.5 63.95 107.7 58.9 103.45 50.0 101.5 51.15 99.0 53.25 99.0 54.5 99.0 64.45 105.6 75.5 113.0 83.0 119.5 85.2 121.45 85.1 127.4 L85.05 129.05 Q86.0 129.75 86.0 130.5 L85.8 132.6 Q93.55 127.35 98.0 126.45 L100.05 126.25 Q100.5 126.2 100.5 125.75 100.5 122.85 99.25 122.6 L94.0 122.0 Q94.0 121.55 95.0 120.4 L96.5 118.5 Q96.75 117.95 96.65 117.1 L96.5 115.5 Q96.5 114.9 97.0 113.9 L97.5 112.25 Q97.5 110.75 97.3 110.45 97.0 109.9 96.0 109.7 L94.5 110.0 94.5 109.5 96.0 109.7 99.6 108.0 103.5 106.0 Q104.5 106.0 106.45 109.75 108.4 113.5 110.25 113.5 112.55 113.5 114.0 109.3 L115.0 105.0 Q115.0 104.15 113.85 103.45 112.45 102.55 110.0 102.5 112.95 98.45 113.55 96.95 L121.0 97.5 Q123.65 97.5 125.0 95.5 126.0 94.05 126.0 92.0 126.0 89.7 121.5 88.5 117.75 87.5 112.0 87.5 110.65 87.5 110.25 88.5 109.8 89.5 108.5 89.5 106.0 89.5 100.0 82.95 94.5 76.9 94.5 76.25 94.5 73.55 101.45 72.0 L108.5 71.0 Q111.95 71.0 113.05 72.9 113.55 73.75 113.85 77.0 114.1 79.85 115.35 81.15 117.2 83.0 122.0 83.0 L129.1 81.75 134.25 80.5 137.4 81.5 Q140.45 82.5 142.0 82.5 142.65 82.5 145.5 78.75 145.5 76.3 136.5 72.5 128.2 69.0 125.25 69.0 123.55 69.0 121.8 70.2 119.8 71.55 118.25 74.15 L118.5 74.5 118.0 74.5 118.25 74.15 113.75 67.65 Q111.0 63.5 111.0 62.0 111.0 60.45 119.3 56.9 128.9 52.85 131.5 50.0 126.3 44.8 118.65 41.0 111.6 37.5 107.5 37.5 L107.0 37.5 Q115.35 35.2 118.35 32.15 L120.15 30.55 Q121.2 30.0 123.5 30.0 L126.6 30.2 Q126.9 30.45 128.0 33.5 L127.9 33.75 128.75 34.0 Q131.1 34.0 134.5 26.5 134.25 24.55 133.2 22.85 131.1 19.45 127.0 20.0 127.0 19.5 126.5 19.5 126.85 19.15 128.9 18.45 130.5 17.95 130.5 16.75 130.5 15.85 128.45 13.7 L122.0 7.0 Q120.7 4.3 118.85 1.45 115.3 -4.2 111.5 -6.5 104.5 -8.65 103.0 -9.5 L103.25 -8.0 103.5 -6.5 Q100.9 -7.2 98.6 -4.95 96.5 -2.8 96.5 -0.25 96.5 1.65 97.75 2.55 99.0 3.5 99.0 4.0 99.0 4.5 98.5 5.0 97.55 6.0 95.0 6.0 90.2 6.0 87.35 4.5 L84.5 3.0 85.8 1.3 Q87.1 -0.15 88.5 -1.0 87.25 -2.9 81.35 -4.1 L75.0 -5.0 65.45 -3.3 M29.2 19.2 Q27.95 20.55 24.45 21.95 L23.5 21.5 23.0 22.55 M17.05 78.05 L15.05 79.55 Q11.0 82.8 8.5 85.55 L8.95 85.5 13.0 83.0 Q13.0 83.5 13.5 83.5 11.9 85.05 8.95 85.5 L8.1 86.0 7.65 86.5 Q7.5 86.95 7.5 88.0 7.5 90.45 9.35 92.75 L13.35 94.35 Q18.9 96.45 21.5 99.0 L20.5 99.0 Q13.4 97.05 10.0 93.5 L9.35 92.75 Q6.3 91.4 5.0 90.5 5.8 88.65 7.65 86.5 L7.85 86.1 8.1 86.0 8.5 85.55 8.25 85.55 Q6.5 85.7 5.0 85.5 0.75 85.5 -3.0 82.5 -7.0 79.3 -7.0 75.0 -7.0 74.35 -6.35 73.3 -4.95 71.15 -1.0 68.0 4.7 63.1 6.65 61.65 L7.0 61.0 7.5 61.0 6.65 61.65 3.95 64.2 Q1.0 66.7 1.0 68.25 1.0 69.85 2.0 71.5 2.9 73.0 3.5 73.0 L6.5 72.5 9.5 72.0 11.4 72.5 13.25 73.0 16.5 70.8 Q17.2 69.2 19.0 67.5 L19.9 68.3 16.5 70.8 Q16.0 71.8 16.0 72.75 16.0 75.35 17.05 78.05 M74.05 142.3 L74.0 142.5 73.5 142.5 74.05 142.3 M26.0 116.55 Q23.05 113.25 20.9 109.8 19.0 106.65 19.0 105.5 19.0 103.0 21.0 101.5 22.35 100.5 23.25 100.5 26.05 100.5 27.0 102.5 L27.25 103.2 25.5 103.5 Q25.8 105.6 27.2 107.7 L26.75 109.8 26.0 115.0 26.0 116.55" fill="none" stroke="#977865" stroke-linecap="round" stroke-linejoin="round" stroke-opacity="0.6" stroke-width="1.0"/>
  </g>
</svg>
