<?xml version="1.0" encoding="UTF-8" standalone="no"?>
<svg xmlns:xlink="http://www.w3.org/1999/xlink" height="138.0px" width="139.5px" xmlns="http://www.w3.org/2000/svg">
  <g transform="matrix(1.0, 0.0, 0.0, 1.0, 0.5, 0.5)">
    <path d="M131.0 29.5 Q127.65 30.0 124.9 30.8 119.5 32.45 119.5 35.0 119.5 35.6 119.95 36.1 123.75 37.2 126.0 38.05 L127.75 38.4 Q136.0 41.1 136.0 52.0 L134.3 52.9 Q132.05 53.95 130.0 56.0 L125.8 50.4 Q122.0 45.05 122.0 44.5 122.0 43.3 123.25 41.95 125.05 40.0 128.5 40.0 L128.55 39.75 Q128.7 39.5 129.0 39.5 128.75 39.0 126.0 38.05 L122.1 37.15 Q120.55 36.75 119.95 36.1 L119.85 36.05 Q111.25 33.5 109.0 33.5 L108.3 38.15 Q108.0 41.25 108.0 43.5 101.55 40.6 95.25 34.5 89.0 28.45 89.0 25.25 L89.05 24.75 Q85.3 22.85 81.5 19.5 73.5 12.45 73.5 7.25 73.5 4.1 74.25 3.4 74.7 2.95 76.0 2.0 74.65 0.65 72.7 0.25 L67.25 0.0 Q61.85 0.0 57.0 1.0 51.5 2.1 51.5 3.75 51.5 7.75 57.25 9.55 60.3 10.5 61.2 11.1 63.0 12.2 63.0 14.25 63.0 15.6 60.0 17.0 56.65 18.5 52.25 18.5 41.5 15.65 41.5 11.0 41.5 9.8 43.4 7.7 L46.0 5.0 38.75 4.5 34.0 5.0 Q33.0 5.5 33.0 7.25 33.0 8.2 33.5 9.0 34.1 10.0 35.0 10.0 35.5 10.0 38.1 8.3 L38.5 7.5 38.5 8.0 38.1 8.3 Q34.05 15.8 29.5 22.8 28.0 25.05 28.0 28.5 28.0 32.0 29.35 33.55 30.6 34.95 33.95 35.65 L42.6 36.95 Q49.7 38.0 56.0 39.5 43.65 39.7 33.6 38.05 14.0 34.85 14.0 22.75 14.0 20.95 17.85 17.55 L25.0 11.5 24.25 10.3 Q23.25 9.5 20.75 9.5 15.75 9.5 13.5 14.5 12.0 17.85 12.0 22.5 12.0 33.4 18.5 41.5 21.75 45.6 25.25 47.5 L32.4 46.25 Q38.15 45.0 41.0 45.0 L41.0 48.0 Q40.2 61.35 31.95 69.0 27.85 72.85 23.75 74.0 21.95 74.0 16.4 71.25 11.5 68.8 5.6 68.55 L4.0 69.0 4.0 68.5 5.6 68.55 Q7.2 67.75 8.35 65.6 11.6 59.6 15.0 41.5 L15.0 38.5 14.65 38.05 13.75 38.0 Q12.3 38.0 6.05 49.0 0.0 59.6 0.0 60.5 0.0 68.5 10.0 82.0 19.6 95.0 24.0 95.0 L24.35 95.0 Q25.25 93.45 26.45 92.0 29.4 88.35 32.5 86.5 35.35 86.5 39.0 89.0 43.0 91.7 43.0 94.5 43.0 96.1 41.5 103.75 41.5 104.8 41.8 106.7 42.15 108.8 42.5 109.5 L40.55 110.4 Q38.45 111.45 38.0 112.0 38.9 113.55 41.85 115.5 43.8 116.8 45.65 117.4 L48.55 114.85 Q54.85 109.6 56.5 109.0 57.65 109.65 57.9 110.5 L58.0 112.0 Q58.0 113.9 56.5 115.5 54.15 118.0 49.0 118.0 47.35 118.0 45.65 117.4 42.0 120.75 42.0 121.75 42.0 125.1 48.0 130.2 L49.7 131.65 56.0 125.0 Q64.5 116.25 66.25 115.55 L66.0 115.5 66.5 115.5 66.25 115.55 Q71.25 116.75 73.5 118.9 73.95 111.9 74.5 109.0 77.9 110.35 81.2 112.95 L85.5 117.0 87.65 119.3 Q97.2 116.3 105.35 115.4 L103.05 113.05 96.0 114.0 M105.0 6.0 Q98.5 2.5 90.25 2.5 89.0 2.5 88.0 3.5 87.0 4.55 87.0 6.0 87.0 9.5 92.45 12.8 L98.25 16.25 99.5 15.55 106.7 11.95 Q110.0 10.3 110.0 9.75 110.0 8.65 105.0 6.0 M98.25 16.25 L99.5 17.0 Q100.15 17.7 100.25 20.95 100.3 24.4 101.5 26.0 L100.3 26.95 98.0 27.0 Q93.6 27.0 89.05 24.75 89.6 21.0 98.25 16.25 M103.05 113.05 L103.0 113.0 Q96.5 105.75 96.5 97.25 96.5 89.0 100.25 89.0 L107.1 89.95 115.35 91.5 117.25 90.25 120.9 87.75 Q122.0 86.65 122.0 85.0 122.0 83.35 120.5 82.75 L117.25 82.15 Q112.5 81.4 112.5 76.5 L112.55 74.95 Q109.5 73.5 109.5 73.25 109.5 71.9 112.55 70.5 L112.9 70.35 Q113.95 62.4 118.0 57.5 121.65 53.0 124.25 53.0 133.0 65.4 133.0 67.75 133.0 69.0 132.0 70.0 130.55 71.5 127.5 71.5 L124.4 70.25 Q121.15 69.0 119.5 69.0 116.0 69.0 112.9 70.35 112.6 72.5 112.55 74.95 L124.0 79.95 Q138.5 86.15 138.5 87.5 138.5 89.2 137.9 91.0 L137.5 92.0 136.5 94.0 Q122.6 104.0 121.0 103.5 122.6 104.85 124.0 111.65 122.4 115.7 120.85 115.5 117.05 119.5 113.75 119.5 109.8 119.5 105.35 115.4 L112.0 115.0 120.85 115.5 124.0 111.65 M136.5 94.0 L123.5 93.5 115.35 91.5 Q107.7 96.6 100.0 104.0 101.4 104.95 103.4 105.8 105.8 106.85 107.5 107.0 L106.7 109.9 Q106.35 111.25 105.65 111.9 104.95 112.55 103.05 113.05 M24.35 95.0 L27.25 94.5 30.5 94.0 Q32.6 94.0 33.5 95.3 34.0 96.05 34.0 96.75 L30.75 102.9 Q27.5 109.65 27.5 113.0 23.4 113.0 22.0 112.15 20.5 111.25 20.5 108.5 20.5 101.15 24.35 95.0 M73.5 118.9 L73.3 122.1 73.0 125.2 Q74.1 124.55 75.45 123.9 75.35 121.15 74.1 119.55 L73.5 118.9 M47.25 135.8 L47.5 136.5 49.45 136.75 51.25 137.0 Q52.25 137.0 53.0 136.5 54.0 135.85 54.0 134.75 L49.7 131.65 47.0 134.5 47.25 135.8 M87.65 119.3 Q90.1 122.0 91.25 123.95 92.0 125.3 92.0 126.0 86.3 130.5 81.25 130.5 77.0 130.5 75.95 128.7 75.45 127.9 75.45 124.5 L75.45 123.9 Q78.9 122.3 84.0 120.5 L87.65 119.3 M73.0 125.2 Q72.35 129.2 70.5 132.5 68.5 131.05 68.5 129.75 68.5 127.7 73.0 125.2" fill="none" stroke="#ffffff" stroke-linecap="round" stroke-linejoin="round" stroke-width="1.0"/>
  </g>
</svg>
