<?xml version="1.0" encoding="UTF-8" standalone="no"?>
<svg xmlns:xlink="http://www.w3.org/1999/xlink" height="130.5px" width="126.0px" xmlns="http://www.w3.org/2000/svg">
  <g transform="matrix(1.0, 0.0, 0.0, 1.0, 0.5, 0.5)">
    <path d="M110.5 20.0 Q103.45 20.0 97.35 23.25 L99.0 27.0 101.05 31.1 Q103.1 29.45 106.05 28.05 109.6 26.4 113.3 25.65 L118.0 25.5 118.5 25.5 Q117.75 21.35 115.05 20.35 L110.5 20.0 M124.0 74.5 Q125.0 70.0 125.0 67.25 125.0 63.7 123.8 60.85 122.25 57.15 119.5 57.5 118.5 57.25 118.5 56.0 L121.5 48.75 Q121.5 45.6 120.0 44.5 118.6 43.5 115.0 43.5 L111.5 44.0 108.0 44.5 Q107.15 44.5 102.0 42.5 96.5 40.4 96.5 39.5 96.5 36.5 98.3 33.95 95.8 33.7 93.8 31.5 L91.5 27.5 Q91.5 26.5 96.5 23.7 96.9 23.45 97.35 23.25 L96.8 21.75 97.0 21.5 Q97.0 18.95 99.5 16.15 L102.0 13.75 Q102.0 7.7 98.3 5.5 97.15 4.8 95.75 4.6 L94.5 4.5 90.65 4.8 87.0 5.5 Q86.1 3.05 84.35 1.95 L81.55 0.35 79.0 0.0 Q72.25 0.0 69.5 1.5 68.0 2.3 68.0 3.25 68.0 3.55 71.75 8.15 75.5 12.75 75.5 14.5 75.5 19.05 69.95 21.5 L64.25 23.0 Q61.95 23.0 59.5 19.05 L57.5 15.0 Q57.5 14.4 58.0 13.15 L58.5 11.25 Q58.15 8.35 56.0 5.55 51.75 0.0 43.0 0.0 40.4 0.0 39.5 1.0 38.5 2.1 38.5 5.25 L38.7 7.2 Q42.6 10.1 42.0 13.25 L42.0 14.0 41.95 14.0 44.0 16.5 Q48.6 21.5 49.75 21.5 51.05 21.5 52.5 19.5 54.0 21.7 54.0 23.75 54.0 27.4 50.5 30.0 47.2 32.5 43.25 32.5 L41.6 32.35 Q42.5 34.5 42.5 37.0 42.5 39.25 40.0 40.5 38.05 41.5 35.75 41.5 32.55 41.5 27.5 38.3 L21.5 34.0 Q23.4 30.5 29.5 26.15 L32.7 24.05 32.25 23.75 Q27.15 20.65 25.2 18.6 22.15 15.35 22.0 11.0 L21.25 11.65 Q19.75 12.4 18.9 13.0 17.25 14.1 16.0 16.0 L16.0 13.0 Q16.4 9.0 19.0 9.0 L22.0 9.8 Q22.1 6.55 23.0 4.55 17.6 4.8 9.25 10.7 0.0 17.25 0.0 22.5 0.0 23.55 1.25 25.0 4.3 28.45 7.5 33.0 8.0 33.65 15.3 38.4 L15.45 38.5 16.0 38.5 15.85 38.75 20.95 41.95 Q23.95 40.5 27.0 40.5 L29.35 40.75 31.5 41.0 31.5 42.5 Q30.9 42.8 30.65 43.45 30.5 43.75 30.5 44.0 L25.0 44.0 Q23.85 43.65 20.95 41.95 17.45 43.55 14.0 47.0 8.5 52.55 8.5 55.5 8.5 56.4 13.5 60.45 18.5 64.55 18.5 66.0 18.5 67.65 16.0 69.5 13.3 71.5 10.25 71.5 4.7 71.5 2.5 70.0 1.2 69.1 0.75 67.5 L0.5 75.5 Q1.25 75.5 7.05 78.65 L8.95 79.7 Q10.25 78.0 11.5 78.0 L12.35 77.95 Q13.4 78.0 14.4 78.75 17.65 81.05 20.0 89.0 L20.25 89.8 21.65 90.4 Q24.7 92.4 30.0 98.0 L34.7 103.2 47.5 108.0 42.4 112.15 45.5 116.0 45.0 117.5 Q44.0 119.0 41.5 119.0 L33.7 118.25 29.9 120.75 Q34.55 124.0 38.25 124.0 L42.0 123.25 45.75 122.5 49.0 123.0 Q49.3 124.95 50.75 126.9 52.65 129.5 55.25 129.5 58.55 125.9 62.5 122.25 66.0 119.1 68.7 117.3 67.65 116.4 67.0 115.0 L73.9 114.4 71.85 112.55 70.25 113.0 Q59.15 116.5 57.25 116.5 54.6 116.5 52.1 106.5 L51.4 103.0 38.0 102.0 48.0 94.0 49.45 96.1 49.75 96.5 Q50.0 96.5 51.4 103.0 54.25 103.5 56.75 104.25 65.05 106.75 71.85 112.55 81.9 109.5 88.5 109.5 84.7 113.25 75.95 114.3 L73.9 114.4 74.5 115.0 Q72.25 115.0 68.7 117.3 L70.1 118.2 Q71.8 119.0 74.5 119.0 77.55 119.0 82.25 117.05 85.0 115.9 91.0 113.0 96.05 110.65 98.45 107.4 100.0 105.35 100.0 104.0 100.0 102.95 99.0 102.0 97.4 100.5 94.0 100.5 L91.65 101.0 89.5 101.5 89.75 99.6 90.0 97.5 Q90.0 96.7 88.9 95.9 87.45 94.9 85.5 95.5 L85.5 94.25 Q85.5 91.9 89.5 88.0 93.1 84.5 94.0 84.5 94.75 84.5 97.3 88.4 100.2 92.75 100.5 96.0 L104.0 96.0 Q107.35 96.2 109.25 92.15 L110.5 88.0 Q110.5 85.9 104.7 82.9 97.0 78.9 85.5 79.5 L94.85 70.9 105.0 61.5 105.5 61.0 Q106.8 63.6 112.05 69.55 118.2 76.5 120.75 76.5 L122.15 76.25 123.0 75.5 M81.55 0.35 L82.85 0.55 87.5 1.5 M98.3 33.95 Q99.8 34.1 101.5 33.5 102.0 33.75 102.0 32.5 L101.4 31.65 101.05 31.1 Q99.35 32.4 98.3 33.95 M36.3 5.7 Q30.45 2.5 25.0 2.5 23.85 2.5 23.0 4.5 L23.0 4.55 23.5 4.5 Q23.5 8.1 22.6 10.05 25.6 11.1 30.8 13.3 L35.85 15.5 Q38.7 13.95 41.95 14.0 39.3 10.45 38.7 7.2 L36.3 5.7 M22.0 9.8 L22.6 10.05 22.0 11.0 22.0 10.5 22.0 9.8 M32.75 24.0 L32.7 24.05 32.8 24.1 32.75 24.0 32.05 22.25 Q31.5 20.55 31.5 20.25 31.5 18.25 34.7 16.15 L35.85 15.5 Q41.05 17.8 41.5 18.5 L32.75 24.0 M0.75 67.5 Q0.5 66.6 0.5 65.5 0.5 64.75 0.8 63.65 L0.85 58.75 Q1.05 45.85 1.5 44.0 1.8 42.75 8.3 41.65 L12.35 40.75 13.5 38.5 15.45 38.5 15.85 38.75 Q15.05 39.9 12.35 40.75 L6.1 51.85 Q1.8 59.85 0.8 63.65 L0.75 67.5 M32.8 24.1 Q37.5 26.95 39.3 28.9 40.8 30.5 41.6 32.35 37.05 31.6 34.0 26.45 L32.8 24.1 M7.5 82.0 Q5.5 85.75 5.5 88.25 5.5 89.55 6.0 90.5 6.75 92.0 8.5 92.0 12.2 92.0 14.0 89.05 15.5 86.65 15.5 82.5 13.6 82.1 8.95 79.7 8.25 80.6 7.5 82.0 M10.0 98.5 L15.15 93.5 14.0 92.0 Q13.2 92.5 11.25 95.3 9.4 98.05 9.05 99.3 L9.5 98.8 10.0 98.5 M15.15 93.5 Q17.75 97.1 18.85 101.95 19.4 104.2 19.95 109.7 L20.25 109.1 Q19.5 106.75 19.5 104.25 L19.75 102.1 20.0 100.5 22.0 100.5 22.0 99.5 21.8 96.25 20.25 89.8 19.5 89.5 Q19.35 89.5 16.5 92.2 L15.15 93.5 M33.4 102.7 Q25.9 100.2 22.5 100.5 L22.0 100.5 Q21.85 104.85 20.75 107.9 L20.25 109.1 Q21.3 112.3 23.8 115.3 28.95 117.3 33.7 118.25 L42.4 112.15 40.05 109.4 34.7 103.2 33.4 102.7 M29.9 120.75 L28.0 122.0 Q23.6 122.0 21.85 119.05 20.9 117.45 20.4 113.9 L17.5 112.5 Q18.0 112.5 18.0 112.0 19.1 111.2 19.95 109.7 L20.15 111.7 20.4 113.9 23.8 115.3 27.0 118.5 29.9 120.75" fill="none" stroke="#ffffff" stroke-linecap="round" stroke-linejoin="round" stroke-width="1.0"/>
  </g>
</svg>
