<?xml version="1.0" encoding="UTF-8" standalone="no"?>
<svg xmlns:xlink="http://www.w3.org/1999/xlink" height="153.0px" width="153.5px" xmlns="http://www.w3.org/2000/svg">
  <g transform="matrix(1.0, 0.0, 0.0, 1.0, 0.5, 0.5)">
    <path d="M125.85 10.95 Q122.3 5.3 118.5 3.0 111.5 0.85 110.0 0.0 L110.25 1.5 110.5 3.0 Q107.9 2.3 105.6 4.55 103.5 6.7 103.5 9.25 103.5 11.15 104.75 12.05 106.0 13.0 106.0 13.5 106.0 14.0 105.5 14.5 104.55 15.5 102.0 15.5 97.2 15.5 94.35 14.0 L91.5 12.5 92.8 10.8 Q94.1 9.35 95.5 8.5 94.25 6.6 88.35 5.4 84.1 4.5 82.0 4.5 80.5 4.5 72.45 6.2 64.25 7.9 63.0 8.5 68.75 14.7 75.3 20.3 L77.0 20.5 82.8 19.25 89.75 18.0 93.0 19.75 96.25 21.5 100.5 20.0 Q102.0 23.0 110.55 29.25 L120.5 36.5 120.0 36.5 Q117.6 36.5 114.35 37.5 111.1 38.5 109.25 38.5 99.7 38.5 84.25 27.3 79.6 23.9 75.3 20.3 72.6 19.55 69.25 16.65 65.35 13.3 64.5 11.0 59.95 11.9 56.4 13.3 49.5 16.05 49.5 21.25 49.5 22.75 52.05 23.5 L54.75 24.0 55.5 23.5 55.8 23.45 56.45 23.05 Q53.65 25.85 52.5 28.75 51.8 30.5 50.75 30.5 48.45 30.5 46.1 25.9 44.0 21.8 44.0 19.0 44.5 18.5 43.25 18.5 37.7 18.5 34.5 20.5 32.0 22.05 32.0 23.75 32.0 25.7 35.3 28.1 L36.2 28.7 Q39.85 30.9 44.5 31.0 L44.8 31.25 45.5 31.5 Q44.15 33.2 42.15 36.85 41.0 39.0 40.0 39.0 33.7 39.0 33.55 36.0 L33.3 33.35 Q32.9 32.2 31.45 31.45 L31.3 31.5 Q30.6 31.75 30.0 32.05 26.25 33.55 24.8 34.3 16.5 38.7 16.5 47.0 L22.0 52.5 Q19.25 54.95 12.25 57.4 8.0 58.9 8.0 63.5 L8.3 64.3 Q8.9 65.3 10.6 66.5 15.9 70.35 30.0 75.0 L26.9 77.8 28.8 79.05 Q31.3 80.5 33.0 80.5 L33.0 81.0 24.05 87.55 Q26.0 92.55 31.5 98.05 L37.35 103.8 Q40.0 106.75 40.0 108.75 40.0 109.55 37.25 111.25 35.55 112.25 34.25 112.7 L34.5 115.5 34.2 117.2 Q36.6 121.0 42.5 124.85 47.1 127.9 51.5 130.0 51.5 131.95 50.5 133.55 49.6 135.0 48.75 135.0 41.15 135.0 33.0 126.05 L33.0 126.5 Q33.0 130.2 39.45 133.75 46.85 137.85 47.5 139.0 L50.2 143.7 Q52.5 147.0 54.5 147.0 60.5 147.0 64.5 144.5 68.0 142.35 68.0 139.75 68.0 133.55 64.5 134.5 L68.4 130.75 Q69.3 130.0 69.75 130.0 73.95 130.0 78.05 138.1 82.1 146.05 81.05 151.8 89.4 148.45 91.95 144.3 92.55 143.35 92.8 142.1 L91.5 143.0 92.05 138.55 Q91.4 138.1 90.4 137.7 L84.65 135.65 Q76.35 132.7 76.5 129.0 76.7 122.0 70.95 117.2 65.9 112.95 57.0 111.0 58.15 108.5 60.25 108.5 61.5 108.5 71.45 115.1 82.5 122.5 90.0 129.0 92.2 130.95 92.1 136.9 L92.05 138.55 Q93.0 139.25 93.0 140.0 L92.8 142.1 Q100.55 136.85 105.0 135.95 L107.05 135.75 Q107.5 135.7 107.5 135.25 107.5 132.35 106.25 132.1 L101.0 131.5 Q101.0 131.05 102.0 129.9 L103.5 128.0 Q103.75 127.45 103.65 126.6 L103.5 125.0 Q103.5 124.4 104.0 123.4 L104.5 121.75 Q104.5 120.25 104.3 119.95 104.0 119.4 103.0 119.2 L101.5 119.5 101.5 119.0 103.0 119.2 106.6 117.5 110.5 115.5 Q111.5 115.5 113.45 119.25 115.4 123.0 117.25 123.0 119.55 123.0 121.0 118.8 L122.0 114.5 Q122.0 113.65 120.85 112.95 119.45 112.05 117.0 112.0 119.95 107.95 120.55 106.45 L128.0 107.0 Q130.65 107.0 132.0 105.0 133.0 103.55 133.0 101.5 133.0 99.2 128.5 98.0 124.75 97.0 119.0 97.0 117.65 97.0 117.25 98.0 116.8 99.0 115.5 99.0 113.0 99.0 107.0 92.45 101.5 86.4 101.5 85.75 101.5 83.05 108.45 81.5 111.9 80.75 115.5 80.5 118.95 80.5 120.05 82.4 120.55 83.25 120.85 86.5 121.1 89.35 122.35 90.65 124.2 92.5 129.0 92.5 L136.1 91.25 141.25 90.0 144.4 91.0 Q147.45 92.0 149.0 92.0 149.65 92.0 152.5 88.25 152.5 85.8 143.5 82.0 135.2 78.5 132.25 78.5 130.55 78.5 128.8 79.7 126.8 81.05 125.25 83.65 L125.5 84.0 125.0 84.0 125.25 83.65 120.75 77.15 Q118.0 73.0 118.0 71.5 118.0 69.95 126.3 66.4 135.9 62.35 138.5 59.5 133.3 54.3 125.65 50.5 118.6 47.0 114.5 47.0 L114.0 47.0 Q122.35 44.7 125.35 41.65 L127.15 40.05 Q128.2 39.5 130.5 39.5 L133.6 39.7 Q133.9 39.95 135.0 43.0 L134.9 43.25 Q134.95 43.5 135.75 43.5 138.1 43.5 141.5 36.0 141.25 34.05 140.2 32.35 138.1 28.95 134.0 29.5 134.0 29.0 133.5 29.0 133.85 28.65 135.9 27.95 137.5 27.45 137.5 26.25 137.5 25.35 135.45 23.2 L129.0 16.5 125.85 10.95 M36.2 28.7 Q34.95 30.05 31.45 31.45 L30.5 31.0 30.0 32.05 M13.65 71.15 L14.5 70.5 14.0 70.5 13.65 71.15 10.95 73.7 Q8.0 76.2 8.0 77.75 8.0 79.35 9.0 81.0 9.9 82.5 10.5 82.5 L13.5 82.0 16.5 81.5 18.4 82.0 20.25 82.5 23.5 80.3 Q24.2 78.7 26.0 77.0 L26.9 77.8 23.5 80.3 Q23.0 81.3 23.0 82.25 23.0 84.85 24.05 87.55 L22.05 89.05 Q18.0 92.3 15.5 95.05 L15.95 95.0 20.0 92.5 Q20.0 93.0 20.5 93.0 18.9 94.55 15.95 95.0 L15.1 95.5 14.65 96.0 Q14.5 96.45 14.5 97.5 14.5 99.95 16.35 102.25 L20.35 103.85 Q25.9 105.95 28.5 108.5 L27.5 108.5 Q20.4 106.55 17.0 103.0 L16.35 102.25 Q13.3 100.9 12.0 100.0 12.8 98.15 14.65 96.0 L14.85 95.6 15.1 95.5 15.5 95.05 15.25 95.05 Q13.5 95.2 12.0 95.0 7.75 95.0 4.0 92.0 0.0 88.8 0.0 84.5 0.0 83.85 0.65 82.8 2.05 80.65 6.0 77.5 L13.65 71.15 M28.0 111.0 Q26.0 112.5 26.0 115.0 26.0 116.15 27.9 119.3 30.05 122.75 33.0 126.05 L33.0 124.5 33.75 119.3 34.2 117.2 Q32.8 115.1 32.5 113.0 L34.25 112.7 34.0 112.0 Q33.05 110.0 30.25 110.0 29.35 110.0 28.0 111.0 M81.05 151.8 L81.0 152.0 80.5 152.0 81.05 151.8" fill="none" stroke="#ffffff" stroke-linecap="round" stroke-linejoin="round" stroke-width="1.0"/>
  </g>
</svg>
