<?xml version="1.0" encoding="UTF-8" standalone="no"?>
<svg xmlns:xlink="http://www.w3.org/1999/xlink" height="32.25px" width="291.5px" xmlns="http://www.w3.org/2000/svg">
  <g transform="matrix(1.0, 0.0, 0.0, 1.0, 146.45, 25.1)">
    <path d="M28.25 -15.75 L28.7 -15.75 Q30.65 -15.5 30.65 -13.8 30.65 -11.85 28.05 -11.85 L22.0 -11.85 22.0 -15.75 28.25 -15.75 M28.45 -14.3 L28.3 -14.3 23.6 -14.3 23.6 -13.4 28.1 -13.4 Q29.05 -13.4 29.2 -13.85 29.1 -14.2 28.6 -14.25 L28.45 -14.3 28.6 -14.25 Q29.1 -14.2 29.2 -13.85 29.05 -13.4 28.1 -13.4 L23.6 -13.4 23.6 -14.3 28.3 -14.3 28.45 -14.3 M50.3 -5.1 Q52.25 -3.4 52.3 -1.05 52.25 1.25 50.3 2.95 48.55 4.65 45.85 4.7 43.15 4.65 41.4 2.95 39.45 1.25 39.45 -1.05 39.45 -3.4 41.4 -5.1 43.15 -6.8 45.85 -6.8 48.55 -6.8 50.3 -5.1 M48.7 -3.65 Q47.5 -4.85 45.7 -4.85 43.9 -4.85 42.65 -3.65 41.35 -2.55 41.4 -0.95 41.35 0.6 42.65 1.8 43.9 2.9 45.7 2.9 47.5 2.9 48.7 1.8 50.0 0.6 50.0 -0.95 50.0 -2.55 48.7 -3.65 M98.45 -9.8 Q98.4 -10.9 97.45 -11.75 L97.45 -11.8 Q96.55 -12.65 95.25 -12.65 93.95 -12.65 93.0 -11.75 92.1 -10.95 92.1 -9.8 92.1 -8.65 93.0 -7.9 93.95 -7.05 95.25 -7.0 96.6 -7.05 97.55 -7.9 98.4 -8.65 98.45 -9.8 M97.9 -12.2 L98.0 -12.15 97.9 -12.2 M91.45 -13.25 Q93.0 -14.7 95.2 -14.65 97.4 -14.7 99.05 -13.25 100.65 -11.7 100.65 -9.75 100.65 -7.7 99.1 -6.2 97.45 -4.8 95.2 -4.8 93.0 -4.8 91.45 -6.2 89.85 -7.7 89.9 -9.75 89.85 -11.85 91.45 -13.25" fill="#ffffff" fill-rule="evenodd" stroke="none"/>
    <path d="M127.5 -13.8 L134.0 -22.4 142.65 -22.4 142.65 2.9 134.0 2.9 134.0 -5.6 127.5 2.9 121.15 -5.6 121.15 2.9 112.5 2.9 112.5 -22.4 121.1 -22.4 127.5 -13.8" fill="url(#gradient0)" fill-rule="evenodd" stroke="none"/>
    <path d="M-144.0 -22.4 L-132.35 -22.4 -125.9 -13.8 -119.4 -22.4 -110.85 -22.4 -110.85 2.9 -119.4 2.9 -119.4 -5.6 -125.9 2.9 -132.3 -5.6 -132.3 2.9 -140.9 2.9 -140.9 -14.65 -144.0 -14.65 -144.0 -22.4" fill="url(#gradient1)" fill-rule="evenodd" stroke="none"/>
    <path d="M-97.95 -22.4 L-97.95 2.9 -106.6 2.9 -106.6 -22.4 -97.95 -22.4" fill="url(#gradient2)" fill-rule="evenodd" stroke="none"/>
    <path d="M-19.0 -4.8 L-1.8 -4.8 -1.8 2.9 -27.65 2.9 -27.65 -22.35 -19.0 -22.4 -19.0 -4.8" fill="url(#gradient3)" fill-rule="evenodd" stroke="none"/>
    <path d="M-40.65 -4.8 L-30.95 -4.8 -30.95 2.9 -40.65 2.9 Q-46.55 2.9 -50.55 -0.8 -54.65 -4.5 -54.65 -9.75 -54.65 -14.95 -50.55 -18.65 -46.4 -22.4 -40.65 -22.4 L-30.95 -22.4 -30.95 -14.65 -40.65 -14.65 Q-42.85 -14.7 -44.45 -13.25 -46.1 -11.8 -46.05 -9.75 -46.1 -7.75 -44.45 -6.2 -42.85 -4.8 -40.65 -4.8" fill="url(#gradient4)" fill-rule="evenodd" stroke="none"/>
    <path d="M-56.75 -22.4 L-56.75 2.9 -65.35 2.9 -65.35 -22.4 -56.75 -22.4" fill="url(#gradient5)" fill-rule="evenodd" stroke="none"/>
    <path d="M-94.45 -22.4 Q-88.35 -22.4 -83.4 -20.25 -79.0 -18.35 -77.5 -15.75 L-77.5 -22.4 -68.8 -22.4 -68.8 2.9 -77.5 2.9 Q-77.5 -4.4 -80.95 -7.75 -83.35 -9.95 -86.05 -9.95 L-86.05 2.9 -94.65 2.9 -94.65 -22.4 -94.45 -22.4" fill="url(#gradient6)" fill-rule="evenodd" stroke="none"/>
    <path d="M29.8 -22.4 Q33.7 -22.4 36.5 -19.9 39.25 -17.35 39.3 -13.8 39.25 -10.25 36.5 -7.8 33.8 -5.25 29.8 -5.25 L22.05 -5.25 22.05 2.9 13.45 2.9 13.45 -22.35 29.8 -22.4 M28.25 -15.75 L22.0 -15.75 22.0 -11.85 28.05 -11.85 Q30.65 -11.85 30.65 -13.8 30.65 -15.5 28.7 -15.75 L28.25 -15.75" fill="url(#gradient7)" fill-rule="evenodd" stroke="none"/>
    <path d="M48.7 -3.65 Q50.0 -2.55 50.0 -0.95 50.0 0.6 48.7 1.8 47.5 2.9 45.7 2.9 43.9 2.9 42.65 1.8 41.35 0.6 41.4 -0.95 41.35 -2.55 42.65 -3.65 43.9 -4.85 45.7 -4.85 47.5 -4.85 48.7 -3.65" fill="url(#gradient8)" fill-rule="evenodd" stroke="none"/>
    <path d="M58.4 -18.65 Q62.55 -22.4 68.3 -22.4 L78.05 -22.4 78.05 -14.65 68.3 -14.65 Q66.1 -14.7 64.5 -13.25 62.95 -11.85 63.0 -9.75 62.95 -7.7 64.5 -6.2 66.1 -4.8 68.3 -4.8 L78.05 -4.8 78.05 2.9 68.3 2.9 Q62.4 2.9 58.4 -0.8 54.3 -4.5 54.3 -9.75 54.3 -14.9 58.4 -18.65" fill="url(#gradient9)" fill-rule="evenodd" stroke="none"/>
    <path d="M9.85 -22.4 L9.85 2.9 1.2 2.9 1.2 -22.4 9.85 -22.4" fill="url(#gradient10)" fill-rule="evenodd" stroke="none"/>
    <path d="M91.45 -13.25 Q89.85 -11.85 89.9 -9.75 89.85 -7.7 91.45 -6.2 93.0 -4.8 95.2 -4.8 97.45 -4.8 99.1 -6.2 100.65 -7.7 100.65 -9.75 100.65 -11.7 99.05 -13.25 97.4 -14.7 95.2 -14.65 93.0 -14.7 91.45 -13.25 M85.35 -18.65 Q89.45 -22.4 95.2 -22.4 101.0 -22.4 105.15 -18.65 109.25 -14.95 109.3 -9.75 109.25 -4.5 105.15 -0.8 101.1 2.9 95.2 2.9 89.3 2.9 85.3 -0.8 81.2 -4.55 81.25 -9.75 81.2 -14.95 85.35 -18.65" fill="url(#gradient11)" fill-rule="evenodd" stroke="none"/>
    <path d="M29.85 -24.95 Q34.65 -24.95 38.1 -21.9 L38.3 -21.75 Q41.85 -18.5 41.85 -13.85 41.85 -9.15 38.3 -5.9 L38.15 -5.8 Q34.8 -2.8 29.85 -2.8 L24.65 -2.8 24.65 5.35 -27.6 5.35 -27.65 5.35 -40.6 5.35 Q-47.5 5.35 -52.15 1.05 L-52.3 0.85 -54.15 -1.15 -54.15 5.35 -79.9 5.35 -79.9 2.8 Q-79.95 -3.1 -82.65 -5.9 L-83.45 -6.6 -83.45 5.35 -109.6 5.35 -109.6 -24.95 -94.4 -24.95 Q-87.8 -24.95 -82.4 -22.55 L-79.9 -21.35 -79.9 -22.45 -79.9 -22.5 -79.9 -24.95 -54.15 -24.95 -54.15 -18.35 -52.15 -20.6 Q-47.35 -24.95 -40.6 -24.95 L-16.45 -24.95 -16.45 -22.5 -16.45 -22.45 -16.45 -7.4 -1.75 -7.4 -1.2 -7.35 -1.2 -22.45 -1.2 -22.5 -1.2 -24.95 29.85 -24.95 M9.85 -22.4 L1.2 -22.4 1.2 2.9 9.85 2.9 9.85 -22.4 M29.8 -22.4 L13.45 -22.35 13.45 2.9 22.05 2.9 22.05 -5.25 29.8 -5.25 Q33.8 -5.25 36.5 -7.8 39.25 -10.25 39.3 -13.8 39.25 -17.35 36.5 -19.9 33.7 -22.4 29.8 -22.4 M-19.0 -4.8 L-19.0 -22.4 -27.65 -22.35 -27.65 2.9 -1.8 2.9 -1.8 -4.8 -19.0 -4.8 M-56.75 -22.4 L-65.35 -22.4 -65.35 2.9 -56.75 2.9 -56.75 -22.4 M-40.65 -4.8 Q-42.85 -4.8 -44.45 -6.2 -46.1 -7.75 -46.05 -9.75 -46.1 -11.8 -44.45 -13.25 -42.85 -14.7 -40.65 -14.65 L-30.95 -14.65 -30.95 -22.4 -40.65 -22.4 Q-46.4 -22.4 -50.55 -18.65 -54.65 -14.95 -54.65 -9.75 -54.65 -4.5 -50.55 -0.8 -46.55 2.9 -40.65 2.9 L-30.95 2.9 -30.95 -4.8 -40.65 -4.8 M-43.5 -9.8 Q-43.5 -8.85 -42.75 -8.15 -41.85 -7.4 -40.6 -7.4 L-30.15 -7.4 -30.15 -12.2 -30.95 -12.2 -40.6 -12.2 Q-41.85 -12.25 -42.75 -11.4 -43.5 -10.75 -43.5 -9.8 M-97.95 -22.4 L-106.6 -22.4 -106.6 2.9 -97.95 2.9 -97.95 -22.4 M-94.45 -22.4 L-94.65 -22.4 -94.65 2.9 -86.05 2.9 -86.05 -9.95 Q-83.35 -9.95 -80.95 -7.75 -77.5 -4.4 -77.5 2.9 L-68.8 2.9 -68.8 -1.2 -68.8 -1.45 -68.8 -8.05 -68.8 -15.95 -68.8 -18.8 -68.8 -22.05 -68.8 -22.4 -77.5 -22.4 -77.5 -15.75 Q-79.0 -18.35 -83.4 -20.25 -88.35 -22.4 -94.45 -22.4 M37.55 -5.6 L37.7 -5.65 37.6 -5.65 37.55 -5.6" fill="#ffffff" fill-rule="evenodd" stroke="none"/>
    <path d="M-146.45 -24.95 L-132.3 -24.95 -131.2 -24.7 -131.15 -24.65 -130.25 -23.85 -130.3 -23.9 -125.85 -18.05 -121.4 -23.9 -121.35 -23.95 -120.45 -24.65 -119.35 -24.95 -109.6 -24.95 -109.6 5.35 -121.9 5.35 -121.9 1.85 -122.9 3.15 -122.95 3.2 -125.85 7.15 -129.75 1.85 -129.75 2.85 -129.75 2.9 -129.75 3.2 -129.75 3.25 -129.75 5.35 -143.35 5.35 -143.35 2.9 -143.35 2.85 -143.35 -12.2 -144.0 -12.2 -146.45 -12.2 -146.45 -14.65 -146.45 -14.7 -146.45 -22.45 -146.45 -22.5 -146.45 -24.95 M-144.0 -14.65 L-140.9 -14.65 -140.9 2.9 -132.3 2.9 -132.3 -5.6 -125.9 2.9 -119.4 -5.6 -119.4 2.9 -110.85 2.9 -110.85 -22.4 -119.4 -22.4 -125.9 -13.8 -132.35 -22.4 -144.0 -22.4 -144.0 -14.65" fill="#ffffff" fill-rule="evenodd" stroke="none"/>
    <path d="M66.1 -8.15 Q67.05 -7.4 68.25 -7.4 L78.45 -7.4 Q78.25 -8.5 78.3 -9.75 78.25 -11.0 78.5 -12.2 L68.25 -12.2 Q67.15 -12.25 66.3 -11.55 L66.1 -11.35 Q65.4 -10.75 65.45 -9.8 65.4 -8.8 66.1 -8.15 M58.4 -18.65 Q54.3 -14.9 54.3 -9.75 54.3 -4.5 58.4 -0.8 62.4 2.9 68.3 2.9 L78.05 2.9 78.05 -4.8 68.3 -4.8 Q66.1 -4.8 64.5 -6.2 62.95 -7.7 63.0 -9.75 62.95 -11.85 64.5 -13.25 66.1 -14.7 68.3 -14.65 L78.05 -14.65 78.05 -22.4 68.3 -22.4 Q62.55 -22.4 58.4 -18.65 M51.75 -9.8 Q51.75 -16.0 56.7 -20.6 61.5 -24.95 68.25 -24.95 L80.55 -24.95 80.55 -22.4 80.55 -17.3 Q81.6 -19.05 83.35 -20.65 88.35 -25.15 95.3 -25.1 102.25 -25.15 107.35 -20.65 L109.95 -17.65 109.95 -24.95 121.1 -24.95 122.25 -24.7 122.3 -24.65 123.15 -23.85 123.1 -23.9 127.55 -18.1 131.95 -23.9 132.0 -23.95 132.85 -24.65 133.95 -24.95 134.05 -24.95 145.05 -24.95 145.05 -22.5 145.05 -22.45 145.05 2.85 145.05 2.9 145.05 5.35 131.45 5.35 131.45 5.3 131.45 4.85 131.45 4.4 131.45 4.35 131.45 3.9 131.45 3.85 131.45 1.9 127.6 7.15 123.65 1.95 123.65 2.85 123.65 2.9 123.65 3.2 123.65 3.25 123.65 5.35 109.95 5.35 109.95 -1.75 107.35 1.15 Q102.4 5.6 95.3 5.65 88.15 5.6 83.25 1.15 81.6 -0.35 80.55 -2.05 L80.55 2.9 80.55 5.35 68.25 5.35 Q61.35 5.35 56.7 1.05 L56.55 0.9 Q51.75 -3.5 51.75 -9.8 M81.25 -9.75 Q81.2 -4.55 85.3 -0.8 89.3 2.9 95.2 2.9 101.1 2.9 105.15 -0.8 109.25 -4.5 109.3 -9.75 109.25 -14.95 105.15 -18.65 101.0 -22.4 95.2 -22.4 89.45 -22.4 85.35 -18.65 81.2 -14.95 81.25 -9.75 M127.55 -13.8 L127.5 -13.8 121.05 -22.4 112.5 -22.4 112.5 2.9 121.1 2.9 121.1 -5.6 121.15 -5.6 127.55 2.85 134.0 -5.6 134.0 2.9 142.6 2.9 142.6 -22.4 134.0 -22.4 127.55 -13.8" fill="#ffffff" fill-rule="evenodd" stroke="none"/>
  </g>
  <defs>
    <linearGradient gradientTransform="matrix(0.0, 0.0155, -0.0154, 0.0, 127.5, -9.75)" gradientUnits="userSpaceOnUse" id="gradient0" spreadMethod="pad" x1="-819.2" x2="819.2">
      <stop offset="0.0" stop-color="#ff8a00"/>
      <stop offset="1.0" stop-color="#e60012"/>
    </linearGradient>
    <linearGradient gradientTransform="matrix(0.0, 0.0155, -0.0154, 0.0, -127.4, -9.75)" gradientUnits="userSpaceOnUse" id="gradient1" spreadMethod="pad" x1="-819.2" x2="819.2">
      <stop offset="0.0" stop-color="#ff8a00"/>
      <stop offset="1.0" stop-color="#e60012"/>
    </linearGradient>
    <linearGradient gradientTransform="matrix(0.0, 0.0155, -0.0154, 0.0, -102.35, -9.75)" gradientUnits="userSpaceOnUse" id="gradient2" spreadMethod="pad" x1="-819.2" x2="819.2">
      <stop offset="0.0" stop-color="#ff8a00"/>
      <stop offset="1.0" stop-color="#e60012"/>
    </linearGradient>
    <linearGradient gradientTransform="matrix(0.0, 0.0155, -0.0154, 0.0, -14.75, -9.75)" gradientUnits="userSpaceOnUse" id="gradient3" spreadMethod="pad" x1="-819.2" x2="819.2">
      <stop offset="0.0" stop-color="#ff8a00"/>
      <stop offset="1.0" stop-color="#e60012"/>
    </linearGradient>
    <linearGradient gradientTransform="matrix(0.0, 0.0154, -0.0154, 0.0, -42.85, -9.75)" gradientUnits="userSpaceOnUse" id="gradient4" spreadMethod="pad" x1="-819.2" x2="819.2">
      <stop offset="0.0" stop-color="#ff8a00"/>
      <stop offset="1.0" stop-color="#e60012"/>
    </linearGradient>
    <linearGradient gradientTransform="matrix(0.0, 0.0155, -0.0154, 0.0, -61.1, -9.75)" gradientUnits="userSpaceOnUse" id="gradient5" spreadMethod="pad" x1="-819.2" x2="819.2">
      <stop offset="0.0" stop-color="#ff8a00"/>
      <stop offset="1.0" stop-color="#e60012"/>
    </linearGradient>
    <linearGradient gradientTransform="matrix(0.0, 0.0155, -0.0154, 0.0, -81.8, -9.75)" gradientUnits="userSpaceOnUse" id="gradient6" spreadMethod="pad" x1="-819.2" x2="819.2">
      <stop offset="0.0" stop-color="#ff8a00"/>
      <stop offset="1.0" stop-color="#e60012"/>
    </linearGradient>
    <linearGradient gradientTransform="matrix(0.0, 0.0152, -0.0154, 0.0, 26.3, -9.75)" gradientUnits="userSpaceOnUse" id="gradient7" spreadMethod="pad" x1="-819.2" x2="819.2">
      <stop offset="0.0" stop-color="#ff8a00"/>
      <stop offset="1.0" stop-color="#e60012"/>
    </linearGradient>
    <linearGradient gradientTransform="matrix(0.0, 0.0151, -0.0047, 0.0, 44.9, -9.0)" gradientUnits="userSpaceOnUse" id="gradient8" spreadMethod="pad" x1="-819.2" x2="819.2">
      <stop offset="0.0" stop-color="#ff8a00"/>
      <stop offset="1.0" stop-color="#e60012"/>
    </linearGradient>
    <linearGradient gradientTransform="matrix(0.0, 0.0155, -0.0154, 0.0, 66.15, -9.75)" gradientUnits="userSpaceOnUse" id="gradient9" spreadMethod="pad" x1="-819.2" x2="819.2">
      <stop offset="0.0" stop-color="#ff8a00"/>
      <stop offset="1.0" stop-color="#e60012"/>
    </linearGradient>
    <linearGradient gradientTransform="matrix(0.0, 0.0155, -0.0154, 0.0, 5.55, -9.75)" gradientUnits="userSpaceOnUse" id="gradient10" spreadMethod="pad" x1="-819.2" x2="819.2">
      <stop offset="0.0" stop-color="#ff8a00"/>
      <stop offset="1.0" stop-color="#e60012"/>
    </linearGradient>
    <linearGradient gradientTransform="matrix(0.0, 0.0155, -0.0154, 0.0, 95.25, -9.75)" gradientUnits="userSpaceOnUse" id="gradient11" spreadMethod="pad" x1="-819.2" x2="819.2">
      <stop offset="0.0" stop-color="#ff8a00"/>
      <stop offset="1.0" stop-color="#e60012"/>
    </linearGradient>
  </defs>
</svg>
