<?xml version="1.0" encoding="UTF-8" standalone="no"?>
<svg xmlns:xlink="http://www.w3.org/1999/xlink" height="533.7px" width="632.4px" xmlns="http://www.w3.org/2000/svg">
  <g transform="matrix(1.0, 0.0, 0.0, 1.0, 15.5, 18.0)">
    <path d="M50.4 -6.25 L57.55 -7.25 113.75 -9.0 Q119.75 -9.0 122.75 -6.9 123.75 -7.5 124.25 -7.5 L126.5 -7.2 Q138.5 -11.0 154.25 -11.0 178.5 -11.0 218.55 -0.6 L233.55 3.3 280.6 1.5 Q325.85 1.5 348.0 -2.5 358.8 -4.45 362.35 -6.7 L380.25 -9.45 Q385.05 -10.2 389.8 -11.6 392.25 -12.35 394.0 -13.75 395.85 -15.25 397.55 -15.85 403.9 -18.0 430.75 -18.0 456.65 -18.0 463.25 -15.3 465.2 -14.5 467.6 -12.35 470.2 -10.15 473.05 -8.85 478.8 -6.25 481.75 -4.5 L484.45 -4.9 508.3 -6.65 547.0 -9.35 553.5 -9.5 Q567.45 -9.5 587.3 -9.9 600.75 -9.6 603.8 -5.6 605.75 -2.9 605.5 0.75 605.3 2.75 606.3 6.95 607.4 11.85 607.5 13.8 L607.8 26.75 Q608.15 34.25 610.0 39.75 613.05 48.65 615.05 64.75 616.9 79.45 616.9 91.25 L616.4 129.3 Q616.3 134.85 614.4 148.05 L614.9 151.95 Q615.4 155.45 615.2 157.8 L614.7 160.6 Q614.9 162.8 614.5 165.3 614.5 169.35 609.3 207.7 603.9 247.55 601.05 262.8 600.15 267.8 597.2 287.2 594.95 302.5 592.75 311.55 590.95 319.05 590.0 325.65 592.8 328.8 592.95 335.75 593.0 339.5 592.25 346.25 591.45 353.0 591.5 354.75 L591.15 362.65 Q591.05 367.65 592.25 370.8 593.85 375.1 594.5 387.0 596.15 396.95 598.95 423.65 601.5 448.4 601.5 451.6 601.5 456.85 599.5 481.8 599.25 483.3 599.4 489.05 599.6 495.25 599.25 498.6 598.05 510.5 589.5 510.5 584.6 510.5 582.85 506.6 L568.9 507.15 Q541.75 506.55 519.4 506.55 L487.05 507.05 484.55 507.55 478.75 508.5 Q476.4 508.5 474.75 507.65 L472.0 508.0 Q466.55 508.0 465.0 503.25 464.5 501.75 464.5 497.9 464.5 489.7 470.75 484.8 476.55 480.2 496.0 472.55 503.0 469.8 526.25 458.65 L542.4 451.0 542.8 449.35 540.15 443.05 Q537.5 437.0 537.5 432.35 537.5 429.1 539.25 423.75 541.0 418.45 541.0 410.75 L540.0 384.0 539.5 370.8 Q538.9 365.9 536.55 363.45 534.5 361.3 534.5 357.85 534.5 353.25 537.45 349.2 538.55 347.7 544.0 342.1 548.5 337.5 550.55 333.5 553.5 327.75 553.5 320.35 553.5 314.85 550.55 312.9 548.65 311.65 544.0 311.45 539.15 311.25 537.45 310.35 534.5 308.75 534.5 303.85 534.5 299.6 538.6 297.6 543.35 295.35 544.0 293.55 L546.25 288.3 Q547.6 284.95 547.5 282.75 L548.0 261.3 Q548.0 251.1 551.2 237.4 555.2 220.0 561.0 220.0 563.55 220.0 565.25 221.0 568.5 216.0 568.5 212.75 568.5 211.1 563.25 205.85 557.55 200.2 557.25 199.55 555.15 195.1 554.4 191.55 L553.9 188.0 Q553.65 187.15 552.1 187.15 L545.6 187.25 Q534.85 187.25 525.25 197.65 L518.75 204.75 Q515.35 208.0 512.5 208.0 506.7 208.0 498.3 194.55 495.6 190.2 493.05 185.2 L491.0 180.75 Q491.0 179.15 495.2 170.6 L504.5 151.6 Q517.6 123.45 518.0 107.8 517.15 106.6 516.85 104.85 516.55 103.1 516.8 100.55 L517.0 97.8 Q514.6 89.1 513.55 84.75 L512.0 71.55 Q511.75 69.5 509.7 65.2 507.3 60.25 506.8 58.5 L502.85 43.7 Q500.3 34.85 498.05 32.25 495.4 29.2 480.7 18.6 469.95 10.9 469.1 6.85 L464.2 3.6 Q454.75 -2.85 448.3 -2.85 406.25 -2.85 404.45 -2.65 403.2 -2.5 403.3 -1.8 403.45 -0.85 401.05 0.05 396.7 1.7 389.75 5.0 388.5 5.6 375.15 7.0 362.8 8.35 358.55 11.5 350.85 17.15 342.75 19.6 L338.2 20.85 Q336.55 17.0 333.0 17.0 L326.2 18.15 322.65 18.9 Q321.5 17.0 317.05 14.05 309.45 9.0 299.75 9.0 283.65 9.0 274.8 12.0 266.5 14.8 266.5 19.5 L266.85 20.75 261.25 21.55 Q257.65 22.25 256.65 23.2 L246.05 21.75 229.3 18.5 228.35 18.5 223.3 17.75 Q221.1 17.5 215.7 15.45 L204.65 11.1 Q188.6 5.0 179.0 5.0 L175.0 5.5 153.9 4.05 Q136.3 4.05 125.75 8.85 L122.55 11.9 101.75 30.4 Q71.5 58.0 71.5 74.6 L72.5 89.5 72.25 99.55 Q70.7 108.0 64.0 108.0 62.8 108.0 58.25 106.8 L52.8 105.55 Q36.8 105.55 33.35 111.55 L31.25 115.65 30.7 116.25 31.5 125.25 Q31.5 129.9 31.0 131.55 L30.8 132.15 31.0 133.3 Q31.65 137.8 31.0 143.1 31.0 153.6 29.5 186.25 29.5 206.1 29.65 207.7 30.5 217.6 35.75 232.0 48.5 267.75 48.5 277.5 48.5 282.25 47.0 289.1 47.0 289.65 48.75 292.65 50.5 295.65 50.5 298.1 50.5 299.8 42.75 313.55 35.0 327.35 35.0 331.65 35.0 333.4 38.35 336.25 L45.75 341.8 Q56.5 349.6 56.5 353.85 56.5 355.2 56.0 356.5 55.85 359.15 53.5 371.65 51.0 384.85 51.0 387.0 L51.0 417.1 Q51.0 430.55 52.0 458.6 L52.0 459.35 65.4 467.5 Q85.4 479.85 90.75 482.0 100.55 485.9 119.0 490.65 126.5 493.1 129.85 496.35 L131.15 497.25 131.5 508.0 131.5 508.05 Q129.7 510.1 127.1 510.45 L125.5 511.3 123.8 511.75 58.25 512.0 -8.1 511.55 -10.35 510.55 -12.5 508.3 Q-13.5 506.8 -13.5 504.35 -13.5 501.6 -11.85 499.75 L-11.65 499.55 -11.75 497.7 Q-10.45 485.35 -11.75 482.3 -13.8 477.2 -13.65 469.25 -13.0 460.2 -13.0 455.85 L-14.0 428.0 Q-14.0 410.15 -12.55 392.9 L-11.1 375.5 Q-11.1 369.55 -12.0 350.0 -12.75 333.85 -12.25 324.05 -11.7 312.95 -12.75 298.0 -14.0 280.3 -14.0 272.75 L-13.75 263.0 -14.5 261.85 -15.5 257.85 Q-15.5 252.95 -14.55 249.9 L-12.65 245.5 Q-10.3 240.25 -11.5 228.8 -11.95 224.1 -9.5 214.6 -6.9 204.55 -7.0 200.0 -7.5 181.8 -5.35 171.05 0.5 148.75 0.5 142.75 0.5 141.9 -1.0 139.7 -2.5 137.5 -2.5 135.5 1.55 110.55 2.3 104.0 L2.45 100.65 Q1.5 98.75 1.5 96.5 1.5 93.35 3.15 90.2 L3.5 89.5 3.95 87.0 Q4.4 84.65 5.0 82.75 L5.0 69.75 Q5.0 60.5 1.75 38.65 -1.4 17.55 -1.5 7.55 L-2.45 6.85 Q-4.6 4.95 -3.5 2.85 -3.5 0.8 -3.15 0.15 -2.25 -1.55 1.3 -2.65 10.95 -5.65 42.75 -5.35 L50.4 -6.25 M486.4 114.4 Q484.65 116.4 483.8 121.3 L483.75 126.65 Q483.0 131.25 479.1 131.3 L479.3 133.1 Q479.3 134.5 478.3 135.75 L477.75 136.35 476.8 138.25 Q475.6 139.8 473.5 139.8 L473.3 139.8 473.3 140.25 Q473.3 141.75 469.3 146.5 465.25 151.3 463.75 151.3 L462.1 151.1 Q460.25 153.8 457.5 153.8 454.1 153.8 453.25 150.8 L453.05 147.6 Q453.05 146.0 454.8 141.8 457.05 136.55 459.5 136.55 461.8 136.55 463.15 138.4 464.55 136.85 466.2 136.15 L467.75 136.5 Q469.75 136.5 473.0 133.0 L474.15 131.7 474.75 131.75 Q476.6 131.75 479.05 128.55 481.3 125.55 481.65 123.25 481.95 121.4 481.9 117.8 L481.75 114.1 481.4 107.1 Q481.0 102.9 481.0 99.25 481.0 96.2 480.2 91.85 479.35 87.25 479.25 84.0 L478.95 80.5 Q478.55 78.4 477.5 76.5 L474.8 72.65 Q472.9 70.1 472.65 68.85 472.35 67.3 469.7 64.95 467.25 62.8 464.5 61.35 459.4 58.65 455.85 59.6 451.55 60.75 447.0 59.25 L445.1 59.1 Q442.85 56.05 442.4 54.8 442.05 53.85 442.05 50.85 442.05 47.1 442.8 45.45 444.6 41.55 450.5 41.55 455.4 41.55 457.05 43.9 L458.0 46.8 Q459.2 50.2 463.45 50.85 468.2 51.6 468.55 52.0 469.1 52.6 471.45 56.75 473.6 60.5 476.0 62.8 477.0 63.8 481.55 72.9 486.3 82.45 486.3 84.35 L485.25 89.8 Q485.25 94.45 486.55 98.65 487.8 102.85 487.8 110.4 487.8 112.8 486.4 114.4 M421.85 96.2 L421.8 96.1 421.0 93.5 Q421.0 88.5 427.25 88.5 430.5 88.5 432.1 89.8 435.0 90.75 435.0 94.8 435.0 95.85 434.5 96.95 L434.5 97.3 Q434.5 98.75 433.5 100.3 432.35 102.1 430.4 102.45 429.25 103.0 427.75 103.0 L427.1 103.0 426.5 103.0 Q423.6 103.0 422.25 100.6 421.5 99.2 421.5 98.0 421.5 97.1 421.85 96.2 M341.75 76.05 Q349.55 63.05 353.0 63.05 358.1 63.05 357.8 75.6 356.3 103.3 350.5 103.3 347.1 103.3 344.8 100.15 L342.55 96.25 Q340.95 94.3 337.3 92.65 334.55 91.35 334.55 90.0 334.55 88.1 341.75 76.05 M391.95 98.75 Q393.9 99.9 394.0 102.9 394.0 104.6 393.0 106.0 391.6 108.0 388.75 108.0 L386.85 107.75 385.0 108.0 Q382.05 108.0 380.75 105.55 L380.0 103.0 Q380.0 101.85 380.6 100.75 380.75 99.6 381.5 98.5 L382.45 97.5 383.0 96.5 Q384.4 94.5 387.0 94.5 391.25 94.5 391.95 98.75 M334.6 123.65 L338.5 126.55 351.55 129.5 Q356.3 131.5 357.85 135.3 L358.95 138.45 Q359.6 140.3 360.55 141.5 362.8 144.3 373.3 154.9 L382.8 164.9 Q382.8 174.65 343.75 174.75 335.95 174.75 334.6 174.9 329.4 175.35 326.0 177.55 318.1 182.3 316.0 182.3 311.85 182.3 311.05 176.75 L311.05 170.85 Q311.05 169.9 312.9 162.25 315.05 153.4 317.55 145.2 324.85 121.05 329.25 121.05 331.1 121.05 334.6 123.65 M421.75 135.65 L421.65 136.65 Q422.15 137.65 422.25 139.15 422.25 140.85 421.25 142.25 420.3 143.6 418.7 144.05 L418.25 144.75 Q416.9 146.75 414.25 146.75 411.35 146.75 410.0 144.35 L409.3 142.4 Q408.5 141.75 408.0 140.8 L407.25 138.25 Q407.25 136.7 408.25 135.25 L408.95 134.5 Q409.15 133.6 409.75 132.75 411.15 130.75 413.75 130.75 L415.15 130.9 416.5 130.75 Q421.5 130.75 421.75 135.65 M411.25 259.5 Q413.45 259.5 421.4 253.05 429.35 246.55 431.5 246.55 435.8 246.55 435.8 251.5 L434.05 257.2 Q432.2 262.55 431.5 263.5 L428.65 267.8 Q427.4 269.6 425.95 270.4 422.85 272.0 409.75 272.0 406.65 272.0 404.0 272.9 L400.5 273.8 Q395.5 273.8 391.35 267.65 390.45 266.35 387.5 260.25 387.0 259.2 383.3 256.5 379.4 253.65 379.0 253.05 376.85 250.1 376.45 249.15 376.05 248.2 376.05 246.1 376.05 244.35 379.75 241.05 383.65 237.55 386.5 237.55 395.1 237.55 401.3 248.55 405.05 255.15 405.75 256.05 408.3 259.5 411.25 259.5 M343.25 336.3 Q343.25 338.8 337.85 342.9 L330.9 347.75 322.0 353.65 Q314.35 358.5 313.75 358.5 312.9 358.5 312.6 357.9 L312.5 357.2 Q312.5 355.6 314.65 355.0 318.15 353.95 320.75 351.75 L329.0 345.9 Q335.5 343.05 337.1 340.4 L342.0 334.75 Q343.5 334.75 343.25 336.3 M331.95 392.9 L332.1 392.7 Q335.1 395.55 338.05 396.25 338.45 398.8 339.95 401.7 341.85 405.3 346.05 412.25 346.75 413.8 352.4 422.1 356.85 428.7 357.8 433.5 339.75 426.9 335.05 420.35 333.05 417.55 332.55 413.65 332.3 411.85 332.3 405.85 L331.5 396.5 Q331.5 393.7 331.95 392.9 M514.25 381.1 L514.25 399.15 514.15 399.15 514.15 435.75 Q513.65 437.15 512.8 437.2 L512.8 437.45 Q512.8 438.35 511.05 439.0 L507.15 440.55 Q503.7 442.8 501.65 443.65 499.5 445.15 496.4 446.45 492.05 447.5 490.1 448.65 482.9 452.2 479.3 454.25 L472.65 457.05 Q470.4 457.4 469.65 457.85 L466.7 459.3 Q465.95 459.3 465.7 458.75 L465.6 458.2 Q465.6 456.7 470.5 455.05 L477.15 452.8 Q479.8 451.2 488.4 447.0 490.2 446.1 494.75 444.65 L500.35 441.75 Q503.2 440.15 505.55 438.9 510.3 436.45 511.6 436.35 L511.5 436.1 Q512.85 433.25 512.85 431.85 L512.85 427.65 513.25 419.2 513.0 413.1 Q513.0 411.95 513.25 411.35 L513.2 410.9 Q513.7 408.8 513.7 406.65 L513.45 404.1 513.6 401.55 513.35 397.75 513.85 387.8 513.6 384.25 513.6 382.55 Q513.7 381.4 514.25 381.1 M489.6 390.75 L489.6 391.55 Q489.65 393.45 490.4 397.95 491.0 402.0 490.9 403.5 490.35 411.05 489.6 413.9 488.05 419.85 483.9 423.3 481.75 425.1 476.25 427.5 470.55 429.85 469.15 430.55 464.8 432.75 460.2 434.05 L460.05 433.5 Q460.05 432.95 463.45 426.25 467.3 418.7 471.45 411.55 483.6 390.55 488.15 390.55 L489.6 390.75 M253.8 90.4 Q253.8 91.95 252.0 94.25 249.95 96.8 247.75 96.8 243.4 96.8 242.55 92.85 L242.55 88.75 Q242.55 85.25 242.75 84.5 243.55 81.05 247.0 81.05 249.4 81.05 253.8 90.4 M236.15 143.55 L239.9 138.0 244.65 132.7 Q248.5 128.45 248.5 126.95 248.5 125.3 248.05 124.6 252.1 122.55 256.75 122.55 260.25 122.55 263.1 126.8 266.9 128.65 267.6 133.1 267.85 134.85 267.65 137.6 L271.25 150.0 Q273.2 154.6 276.35 165.7 279.3 176.1 279.3 177.35 279.3 181.8 274.75 181.8 268.4 181.8 258.0 177.8 253.3 176.0 250.75 174.5 L250.0 174.5 Q230.3 174.5 222.05 172.5 219.75 173.3 217.25 173.3 L217.25 173.2 Q217.25 172.35 216.15 171.75 L213.0 169.85 Q215.3 168.7 216.95 167.0 L219.1 164.4 Q219.7 163.7 223.0 162.3 226.2 160.85 226.85 160.0 228.3 157.95 229.95 154.3 L232.5 148.9 236.15 143.55 M163.6 106.35 L163.5 106.5 Q162.15 108.5 159.5 108.5 157.35 108.5 156.1 107.2 154.6 106.6 153.75 105.1 153.0 103.7 153.0 102.5 L153.05 101.75 153.0 101.5 Q153.0 99.95 154.0 98.5 L154.5 97.95 155.0 97.0 Q156.4 95.0 159.0 95.0 162.25 95.0 163.4 97.45 165.8 98.45 166.0 101.9 166.0 103.55 165.0 105.0 L163.6 106.35 M160.65 245.45 L165.1 250.8 Q171.45 258.5 177.25 258.5 184.65 258.5 189.85 252.0 191.45 249.9 192.65 247.45 L193.55 245.25 Q192.55 242.35 192.55 241.1 192.55 235.55 198.25 235.55 204.15 235.55 206.8 240.25 208.3 242.95 208.3 245.5 208.3 251.15 200.8 263.5 196.2 271.15 193.15 274.05 191.85 272.9 189.6 271.85 184.6 269.5 177.75 268.7 170.6 267.85 165.9 269.25 161.75 270.5 160.8 273.2 154.85 269.65 153.75 265.25 151.55 256.45 151.55 253.6 151.55 250.25 152.1 248.0 153.25 243.05 156.5 243.05 158.3 243.05 160.65 245.45 M161.8 260.75 Q161.8 261.65 162.25 262.0 162.75 262.75 162.75 261.5 162.75 260.55 161.8 260.55 L161.8 260.75 M77.55 385.65 L77.05 401.65 77.05 407.8 Q77.1 412.5 77.7 413.85 L77.55 416.15 Q77.85 416.45 77.85 417.05 L76.95 424.3 Q76.95 430.15 77.15 431.7 77.4 434.0 78.55 435.1 80.15 436.6 89.95 441.35 91.75 442.4 97.85 444.7 L105.6 448.3 113.65 451.9 Q117.55 453.7 119.1 454.7 L121.25 455.4 123.35 456.4 Q125.6 458.0 125.6 458.7 L125.6 458.9 Q124.65 459.15 124.05 459.55 L120.55 457.7 118.65 456.8 Q116.65 456.7 114.85 454.7 114.65 454.45 112.25 453.95 L110.2 453.05 102.35 449.25 Q91.65 444.7 86.35 441.9 L78.55 437.8 Q75.25 436.15 75.15 433.4 L74.75 424.35 Q74.7 422.1 74.9 420.0 75.1 418.0 75.55 417.0 L75.4 415.9 75.5 413.7 Q74.75 412.5 74.9 407.65 L74.9 401.6 Q74.9 392.9 75.25 390.55 L75.2 384.1 Q75.25 379.75 76.45 379.75 77.9 379.75 77.55 385.65 M112.1 395.05 Q112.4 397.2 111.75 400.8 111.8 403.0 114.1 406.1 L118.0 411.0 Q119.05 412.55 120.25 416.45 121.1 419.3 123.25 420.75 125.6 422.3 128.45 425.6 131.3 428.95 131.3 430.1 131.3 434.8 126.5 434.8 123.65 434.8 117.45 430.45 L110.75 425.5 102.5 421.35 Q100.55 420.25 100.55 417.6 100.55 416.1 101.8 413.6 103.05 411.1 103.05 408.05 L102.05 400.0 Q102.05 391.05 107.0 391.05 111.6 391.05 112.1 395.05 M253.0 337.3 Q256.15 342.75 259.4 345.15 262.95 347.8 269.15 351.5 276.1 355.75 277.5 355.75 278.55 355.75 278.75 356.95 278.75 358.5 276.75 358.5 263.3 351.25 257.5 347.0 252.8 343.55 250.85 340.6 L247.5 334.3 Q247.5 333.0 248.75 333.0 250.5 333.0 253.0 337.3 M249.8 394.15 L250.55 395.05 Q252.3 397.15 254.3 398.55 254.55 399.3 255.15 400.05 256.3 401.5 256.3 403.25 256.3 407.0 255.4 409.6 254.35 412.65 251.3 416.55 250.65 417.35 249.3 420.1 248.2 422.3 247.0 423.3 L244.85 425.1 243.05 426.75 241.75 428.25 241.3 429.0 Q240.6 429.95 240.8 430.45 L227.75 429.85 Q228.75 428.0 231.5 423.65 236.35 415.8 240.05 410.55 243.1 404.55 245.8 399.95 247.95 396.3 249.8 394.15 M306.0 440.7 Q317.1 448.8 323.55 450.3 330.8 452.0 340.25 457.2 349.65 462.4 352.05 466.1 353.4 463.5 358.25 463.5 L361.6 463.7 Q361.0 464.55 361.0 465.65 361.0 466.05 361.55 467.05 358.85 465.7 357.65 465.35 354.0 464.3 354.0 467.65 354.0 469.35 362.55 473.6 358.75 473.1 358.75 475.5 358.75 476.8 360.1 477.85 361.15 478.65 362.65 479.05 L361.75 479.8 361.5 480.05 363.15 480.75 Q365.15 481.75 368.05 485.55 369.0 486.75 370.5 494.85 371.9 502.55 371.9 505.1 371.9 509.75 370.0 511.8 366.65 515.5 356.4 515.5 L346.05 514.75 343.15 514.3 Q342.5 515.1 333.75 515.5 316.25 516.25 274.0 514.0 269.4 513.75 251.05 514.45 238.95 514.9 227.75 512.3 223.7 511.35 222.0 508.75 221.1 507.35 220.5 504.3 216.75 490.5 216.55 487.65 217.0 486.6 217.0 485.4 L217.0 485.15 Q217.5 484.1 217.5 482.9 L217.45 482.35 217.8 481.55 217.35 481.75 Q216.95 479.95 215.85 479.05 220.0 476.35 220.0 475.7 220.0 473.05 217.3 473.3 L217.75 471.95 Q217.75 471.35 217.35 470.65 L216.9 470.05 Q218.1 469.0 220.0 469.0 L221.05 469.1 Q221.15 467.75 222.0 466.5 223.4 464.5 226.0 464.5 230.65 464.5 231.0 469.4 L230.75 471.05 232.95 469.75 Q236.0 467.55 236.0 464.75 236.0 461.7 236.9 460.25 238.5 457.65 243.5 456.5 L256.05 453.65 Q261.4 452.25 265.0 450.0 271.7 445.0 277.9 440.95 290.0 433.0 294.75 433.0 295.55 433.0 306.0 440.7 M244.8 419.75 Q246.85 418.05 247.0 416.55 L246.8 416.75 Q246.0 417.55 244.8 419.75 M373.0 472.25 L373.05 472.25 373.0 472.85 372.0 472.45 373.0 472.25" fill="#cc3300" fill-rule="evenodd" stroke="none"/>
  </g>
</svg>
