<?xml version="1.0" encoding="UTF-8" standalone="no"?>
<svg xmlns:xlink="http://www.w3.org/1999/xlink" height="47.0px" width="47.0px" xmlns="http://www.w3.org/2000/svg">
  <g transform="matrix(1.0, 0.0, 0.0, 1.0, 0.0, 0.0)">
    <path d="M30.35 0.9 L28.95 13.3 38.5 5.3 32.45 16.2 44.3 12.4 34.55 20.15 47.0 21.25 35.0 24.65 46.1 30.4 33.7 29.0 41.75 38.55 30.8 32.5 34.6 44.3 26.85 34.6 25.75 47.0 22.35 35.05 16.65 46.1 18.05 33.75 8.5 41.8 14.55 30.85 2.7 34.65 12.45 26.9 0.0 25.8 12.0 22.4 0.9 16.65 13.3 18.05 5.3 8.55 16.2 14.55 12.4 2.7 20.1 12.45 21.2 0.0 24.6 12.0 30.35 0.9" fill="#ffffff" fill-rule="evenodd" stroke="none"/>
  </g>
</svg>
