<?xml version="1.0" encoding="UTF-8" standalone="no"?>
<svg xmlns:xlink="http://www.w3.org/1999/xlink" height="10.0px" width="10.0px" xmlns="http://www.w3.org/2000/svg">
  <g transform="matrix(1.0, 0.0, 0.0, 1.0, -0.1, -0.1)">
    <path d="M7.1 0.5 L8.6 1.55 Q10.1 3.05 10.1 5.1 10.1 7.15 8.6 8.6 7.15 10.1 5.1 10.1 3.05 10.1 1.55 8.6 0.1 7.15 0.1 5.1 L0.2 4.1 0.25 4.1 Q0.25 5.9 1.5 7.15 2.8 8.45 4.6 8.45 6.4 8.45 7.7 7.15 9.0 5.9 9.0 4.1 9.0 2.3 7.7 1.0 L7.1 0.5" fill="#ffff33" fill-rule="evenodd" stroke="none"/>
    <path d="M9.0 4.1 Q9.0 5.9 7.7 7.15 6.4 8.45 4.6 8.45 2.8 8.45 1.5 7.15 0.25 5.9 0.25 4.1 L0.25 3.8 Q0.6 2.55 1.55 1.55 3.05 0.1 5.1 0.1 L7.1 0.5 7.7 1.0 Q9.0 2.3 9.0 4.1 M7.15 4.15 Q7.15 3.3 6.35 2.65 5.6 2.05 4.5 2.05 3.4 2.05 2.6 2.65 1.85 3.3 1.85 4.15 1.85 5.0 2.6 5.6 3.4 6.25 4.5 6.25 5.6 6.25 6.35 5.6 7.15 5.0 7.15 4.15" fill="#ffcc00" fill-rule="evenodd" stroke="none"/>
    <path d="M7.15 4.15 Q7.15 5.0 6.35 5.6 5.6 6.25 4.5 6.25 3.4 6.25 2.6 5.6 1.85 5.0 1.85 4.15 1.85 3.3 2.6 2.65 3.4 2.05 4.5 2.05 5.6 2.05 6.35 2.65 7.15 3.3 7.15 4.15 M6.55 3.45 Q6.2 3.1 5.7 3.1 5.2 3.1 4.85 3.45 4.5 3.8 4.5 4.3 4.5 4.8 4.85 5.15 5.2 5.5 5.7 5.5 L6.55 5.15 Q6.9 4.8 6.9 4.3 6.9 3.8 6.55 3.45" fill="#ffff33" fill-rule="evenodd" stroke="none"/>
    <path d="M4.5 4.3 Q4.5 3.8 4.85 3.45 5.2 3.1 5.7 3.1 6.2 3.1 6.55 3.45 6.9 3.8 6.9 4.3 6.9 4.8 6.55 5.15 L5.7 5.5 Q5.2 5.5 4.85 5.15 4.5 4.8 4.5 4.3" fill="#fdfefe" fill-rule="evenodd" stroke="none"/>
  </g>
</svg>
