<?xml version="1.0" encoding="UTF-8" standalone="no"?>
<svg xmlns:xlink="http://www.w3.org/1999/xlink" height="25.25px" width="286.05px" xmlns="http://www.w3.org/2000/svg">
  <g transform="matrix(1.0, 0.0, 0.0, 1.0, 144.05, 22.55)">
    <path d="M9.5 -22.55 L9.5 2.7 0.9 2.7 0.9 -22.55 9.5 -22.55 M36.1 -20.05 Q38.85 -17.5 38.85 -14.0 38.85 -10.4 36.1 -7.95 33.4 -5.45 29.4 -5.45 L21.7 -5.45 21.7 2.7 13.05 2.7 13.05 -22.5 29.4 -22.55 Q33.3 -22.55 36.1 -20.05 M27.85 -15.95 L27.65 -15.95 21.65 -15.95 21.65 -12.05 27.65 -12.05 Q30.25 -12.05 30.25 -14.0 30.25 -15.7 28.3 -15.9 L27.85 -15.95 M45.25 -5.05 Q47.1 -5.05 48.3 -3.9 49.6 -2.75 49.6 -1.15 49.6 0.4 48.3 1.55 47.1 2.7 45.25 2.7 43.45 2.7 42.25 1.55 40.95 0.4 40.95 -1.15 40.95 -2.75 42.25 -3.9 43.45 -5.05 45.25 -5.05 M57.95 -18.85 Q62.1 -22.55 67.85 -22.55 L77.55 -22.55 77.55 -14.85 67.85 -14.85 Q65.65 -14.85 64.05 -13.4 62.5 -12.0 62.5 -9.9 62.5 -7.85 64.05 -6.45 65.65 -5.0 67.85 -5.0 L77.55 -5.0 77.55 2.7 67.85 2.7 Q61.95 2.7 57.95 -1.0 53.85 -4.65 53.85 -9.9 53.85 -15.05 57.95 -18.85 M84.85 -18.85 Q89.0 -22.55 94.7 -22.55 100.45 -22.55 104.6 -18.85 108.7 -15.1 108.7 -9.9 108.7 -4.65 104.6 -1.0 100.55 2.7 94.7 2.7 88.85 2.7 84.8 -1.0 80.7 -4.7 80.7 -9.9 80.7 -15.1 84.85 -18.85 M98.5 -13.4 Q96.9 -14.85 94.7 -14.85 92.5 -14.85 90.9 -13.4 89.35 -12.0 89.35 -9.9 89.35 -7.85 90.9 -6.45 92.5 -5.0 94.7 -5.0 96.95 -5.0 98.55 -6.45 100.1 -7.85 100.1 -9.9 100.1 -11.85 98.5 -13.4 M120.5 -22.55 L126.95 -14.0 133.4 -22.55 142.0 -22.55 142.0 2.7 133.4 2.7 133.4 -5.85 126.95 2.7 120.55 -5.85 120.55 2.7 111.95 2.7 111.95 -22.55 120.5 -22.55 M-132.45 -22.55 L-126.0 -14.0 -119.55 -22.55 -110.95 -22.55 -110.95 2.7 -119.55 2.7 -119.55 -5.85 -126.0 2.7 -132.4 -5.85 -132.4 2.7 -141.0 2.7 -141.0 -14.85 -144.05 -14.85 -144.05 -22.55 -132.45 -22.55 M-98.1 -22.55 L-98.1 2.7 -106.75 2.7 -106.75 -22.55 -98.1 -22.55 M-86.2 -10.1 L-86.2 2.7 -94.8 2.7 -94.8 -22.55 -94.65 -22.55 Q-88.55 -22.55 -83.6 -20.4 -79.15 -18.5 -77.65 -15.95 L-77.65 -22.55 -69.0 -22.55 -69.0 2.7 -77.65 2.7 Q-77.65 -4.55 -81.15 -7.9 -83.5 -10.1 -86.2 -10.1 M-40.9 -22.55 L-31.25 -22.55 -31.25 -14.85 -40.9 -14.85 Q-43.1 -14.85 -44.7 -13.4 -46.3 -11.95 -46.3 -9.9 -46.3 -7.9 -44.7 -6.45 -43.1 -5.0 -40.9 -5.0 L-31.25 -5.0 -31.25 2.7 -40.9 2.7 Q-46.8 2.7 -50.8 -1.0 -54.9 -4.65 -54.9 -9.9 -54.9 -15.1 -50.8 -18.85 -46.65 -22.55 -40.9 -22.55 M-57.0 -22.55 L-57.0 2.7 -65.6 2.7 -65.6 -22.55 -57.0 -22.55 M-2.15 -5.0 L-2.15 2.7 -27.95 2.7 -27.95 -22.5 -19.3 -22.55 -19.3 -5.0 -2.15 -5.0" fill="#cc0000" fill-rule="evenodd" stroke="none"/>
    <path d="M27.65 -15.95 L27.85 -15.95" fill="none" stroke="#ffffff" stroke-linecap="round" stroke-linejoin="round" stroke-width="0.05"/>
  </g>
</svg>
