<?xml version="1.0" encoding="UTF-8" standalone="no"?>
<svg xmlns:xlink="http://www.w3.org/1999/xlink" height="36.75px" width="15.75px" xmlns="http://www.w3.org/2000/svg">
  <g transform="matrix(1.0, 0.0, 0.0, 1.0, 0.25, -0.25)">
    <path d="M6.25 2.9 L6.5 2.35 Q6.25 1.75 4.7 1.75 3.6 1.8 2.8 3.1 1.9 4.35 1.9 5.7 L1.9 5.75 2.15 8.15 2.15 8.2 1.65 10.55 Q1.25 11.6 1.25 12.5 L1.45 14.35 1.65 16.35 1.65 16.45 1.4 19.6 2.95 25.45 2.95 25.5 3.0 25.55 3.6 27.05 3.6 27.0 4.15 28.7 4.15 28.85 3.9 30.3 4.1 31.35 Q4.9 32.1 5.35 33.25 L5.35 33.3 6.1 34.25 6.95 34.75 Q7.45 34.7 8.05 34.0 L8.1 34.0 8.45 33.65 7.7 32.15 7.7 32.1 Q6.65 30.5 6.65 28.8 L6.7 28.6 7.4 26.2 6.35 24.65 Q4.8 22.75 4.9 22.2 4.85 21.0 6.1 19.7 6.85 18.85 6.9 18.3 6.85 17.6 6.05 16.55 L6.0 16.5 Q4.7 14.95 4.75 13.8 4.75 12.5 5.8 11.4 L6.4 10.3 6.0 9.55 6.05 9.55 Q5.25 8.55 5.25 7.45 5.15 6.9 6.15 6.1 6.3 5.9 6.4 6.0 L6.2 5.35 6.2 5.3 Q5.7 4.5 5.75 4.0 5.7 3.4 6.25 2.9 M11.75 5.95 Q11.75 4.1 11.35 3.4 10.85 2.65 9.45 2.65 L8.9 2.75 8.2 3.45 7.95 3.6 7.5 3.8 7.4 3.9 7.25 4.0 7.5 4.6 7.55 4.65 7.9 6.0 7.15 7.2 7.1 7.25 6.75 7.45 Q6.75 8.05 7.2 8.6 7.95 9.55 7.9 10.3 7.95 11.3 6.9 12.45 6.25 13.1 6.25 13.8 6.3 14.55 7.2 15.6 8.45 17.2 8.4 18.3 8.45 19.35 7.2 20.7 L7.2 20.75 Q6.45 21.5 6.4 22.2 L7.5 23.7 Q9.0 25.5 8.9 26.2 L8.15 28.9 Q8.2 30.15 8.95 31.3 L9.85 33.1 9.85 33.2 9.9 33.25 9.95 33.3 10.0 33.35 10.05 33.6 10.5 34.75 11.15 35.1 11.2 35.1 11.95 35.5 12.0 35.5 12.25 35.45 13.25 34.4 Q14.0 33.1 14.0 31.75 14.0 30.0 12.45 25.4 10.75 20.45 10.75 18.05 L10.75 18.0 11.75 5.95 M12.65 2.65 Q13.25 3.6 13.25 5.95 L12.25 18.15 Q12.3 20.35 13.85 24.9 L13.85 24.95 Q15.5 29.9 15.5 31.75 15.5 33.5 14.55 35.15 13.65 36.65 12.65 36.95 L12.45 36.95 12.15 37.0 11.95 37.0 Q11.55 37.05 10.45 36.4 L10.45 36.45 9.4 35.8 9.2 35.55 9.05 35.15 Q7.9 36.3 6.95 36.25 6.1 36.3 5.1 35.35 4.2 34.5 3.95 33.75 L3.95 33.8 3.05 32.4 Q2.4 31.85 2.4 30.3 L2.45 30.15 2.65 28.7 2.2 27.6 1.6 26.1 1.55 25.95 -0.05 19.85 -0.1 19.6 0.15 16.35 -0.05 14.55 -0.25 12.5 Q-0.25 11.3 0.25 10.0 L0.65 8.25 0.4 5.8 0.4 5.75 Q0.4 3.95 1.55 2.25 2.9 0.2 4.7 0.25 7.4 0.25 7.9 1.65 L8.05 1.5 8.15 1.45 Q8.6 1.15 9.45 1.15 11.85 1.15 12.65 2.65" fill="#000000" fill-rule="evenodd" stroke="none"/>
  </g>
</svg>
