<?xml version="1.0" encoding="UTF-8" standalone="no"?>
<svg xmlns:xlink="http://www.w3.org/1999/xlink" height="33.0px" width="7.2px" xmlns="http://www.w3.org/2000/svg">
  <g transform="matrix(1.0, 0.0, 0.0, 1.0, 0.0, 0.0)">
    <path d="M5.0 1.15 Q4.45 1.65 4.5 2.25 4.45 2.75 4.95 3.55 L4.95 3.6 5.15 4.25 Q5.05 4.15 4.9 4.35 3.9 5.15 4.0 5.7 4.0 6.8 4.8 7.8 L4.75 7.8 5.15 8.55 4.55 9.65 Q3.5 10.75 3.5 12.05 3.45 13.2 4.75 14.75 L4.8 14.8 Q5.6 15.85 5.65 16.55 L4.85 17.95 Q3.6 19.25 3.65 20.45 3.55 21.0 5.1 22.9 L6.15 24.45 5.45 26.85 5.4 27.05 Q5.4 28.75 6.45 30.35 L6.45 30.4 7.2 31.9 6.85 32.25 6.8 32.25 Q6.2 32.95 5.7 33.0 5.35 32.95 4.85 32.5 L4.1 31.55 4.1 31.5 Q3.65 30.35 2.85 29.6 L2.65 28.55 2.9 27.1 2.9 26.95 2.35 25.25 2.35 25.3 1.75 23.8 1.7 23.75 1.7 23.7 0.15 17.85 0.4 14.7 0.4 14.6 0.2 12.6 0.0 10.75 Q0.0 9.85 0.4 8.8 L0.9 6.45 0.9 6.4 0.65 4.0 0.65 3.95 Q0.65 2.6 1.55 1.35 2.35 0.05 3.45 0.0 5.0 0.0 5.25 0.6 L5.0 1.15" fill="#ffcc00" fill-rule="evenodd" stroke="none"/>
  </g>
</svg>
