<?xml version="1.0" encoding="UTF-8" standalone="no"?>
<svg xmlns:xlink="http://www.w3.org/1999/xlink" height="32.85px" width="7.75px" xmlns="http://www.w3.org/2000/svg">
  <g transform="matrix(1.0, 0.0, 0.0, 1.0, 0.0, 0.0)">
    <path d="M5.5 3.3 L4.5 15.35 4.5 15.4 Q4.5 17.8 6.2 22.75 7.75 27.35 7.75 29.1 7.75 30.45 7.0 31.75 L6.0 32.8 5.75 32.85 5.7 32.85 4.95 32.45 4.9 32.45 4.25 32.1 3.8 30.95 3.75 30.7 3.7 30.65 3.65 30.6 3.6 30.55 3.6 30.45 2.7 28.65 Q1.95 27.5 1.9 26.25 L2.65 23.55 Q2.75 22.85 1.25 21.05 L0.15 19.55 Q0.2 18.85 0.95 18.1 L0.95 18.05 Q2.2 16.7 2.15 15.65 2.2 14.55 0.95 12.95 0.05 11.9 0.0 11.15 0.0 10.45 0.65 9.8 1.7 8.65 1.65 7.65 1.7 6.9 0.95 5.95 0.5 5.4 0.5 4.8 L0.85 4.6 0.9 4.55 1.65 3.35 1.3 2.0 1.25 1.95 1.0 1.35 1.15 1.25 1.25 1.15 1.7 0.95 1.95 0.8 2.65 0.1 3.2 0.0 Q4.6 0.0 5.1 0.75 5.5 1.45 5.5 3.3" fill="#cc6600" fill-rule="evenodd" stroke="none"/>
  </g>
</svg>
