<?xml version="1.0" encoding="UTF-8" standalone="no"?>
<svg xmlns:xlink="http://www.w3.org/1999/xlink" height="41.5px" width="24.4px" xmlns="http://www.w3.org/2000/svg">
  <g transform="matrix(1.0, 0.0, 0.0, 1.0, -0.6, 0.1)">
    <path d="M14.75 22.4 L12.05 23.85 17.45 34.1 Q18.75 37.0 19.7 38.3 20.9 39.85 22.05 39.9 23.5 39.9 23.5 38.45 23.45 37.25 21.55 34.0 20.0 31.2 18.65 29.45 L18.65 29.5 Q17.45 27.95 16.2 25.35 L14.75 22.4 M13.05 10.95 Q12.75 11.05 12.7 11.3 L13.5 14.3 Q13.5 15.3 13.05 15.7 L13.0 15.75 Q12.55 16.15 11.5 16.15 9.95 16.2 8.9 14.25 L8.9 14.3 8.05 13.15 7.65 13.55 7.65 13.6 7.15 14.05 7.45 15.45 7.75 16.8 7.7 17.1 Q6.4 19.9 5.2 19.75 L4.8 19.7 5.55 21.75 6.8 24.85 10.65 22.85 10.7 22.8 14.6 20.75 14.7 20.7 19.9 17.8 17.75 13.75 17.4 13.1 Q16.4 13.15 15.25 11.9 L14.0 10.75 13.05 10.95 M10.25 0.65 L10.2 0.65 12.15 1.85 13.7 3.45 14.65 4.75 15.75 6.3 Q16.5 7.45 16.7 8.3 L18.4 11.75 18.45 11.85 19.05 13.05 21.4 17.8 Q21.6 18.55 16.05 21.65 L17.55 24.7 Q18.75 27.15 19.85 28.55 L22.85 33.25 Q25.05 37.05 25.0 38.45 25.0 41.4 22.05 41.4 20.25 41.45 18.5 39.2 17.45 37.8 16.1 34.7 L10.7 24.5 7.2 26.35 6.85 26.4 Q5.8 26.6 4.15 22.3 3.25 19.95 2.7 18.05 1.4 15.35 1.05 14.2 L1.05 14.15 Q0.65 12.9 0.6 10.45 0.55 7.95 0.9 6.65 1.15 5.25 2.15 3.85 3.55 1.75 4.35 1.1 L4.4 1.1 Q5.85 -0.1 7.8 -0.1 8.95 -0.1 10.25 0.65 M13.45 5.65 L12.5 4.35 11.25 3.05 9.5 1.95 Q8.55 1.4 7.8 1.4 6.35 1.4 5.35 2.25 4.65 2.85 3.4 4.7 2.55 5.85 2.35 6.95 L2.35 7.0 Q2.05 8.15 2.1 10.4 2.15 12.6 2.5 13.75 L4.0 17.2 4.95 17.95 5.2 18.25 6.25 16.75 6.0 15.85 6.0 15.9 Q5.65 14.75 5.65 14.05 5.55 13.35 6.65 12.45 L6.7 12.45 Q7.6 11.55 8.05 11.65 9.05 11.5 10.2 13.55 10.75 14.6 11.5 14.65 L12.0 14.6 12.0 14.3 11.2 11.6 11.15 11.35 Q11.1 10.1 12.5 9.55 L12.45 9.6 Q13.15 9.25 14.0 9.25 14.7 9.15 16.15 10.65 L15.25 8.65 15.25 8.6 14.5 7.15 13.45 5.65" fill="#000000" fill-rule="evenodd" stroke="none"/>
  </g>
</svg>
