<?xml version="1.0" encoding="UTF-8" standalone="no"?>
<svg xmlns:xlink="http://www.w3.org/1999/xlink" height="16.85px" width="14.05px" xmlns="http://www.w3.org/2000/svg">
  <g transform="matrix(1.0, 0.0, 0.0, 1.0, 0.0, 0.0)">
    <path d="M11.35 4.25 L12.4 5.75 13.15 7.2 13.15 7.25 14.05 9.25 Q12.6 7.75 11.9 7.85 11.05 7.85 10.35 8.2 L10.4 8.15 Q9.0 8.7 9.05 9.95 L9.1 10.2 9.9 12.9 9.9 13.2 9.4 13.25 Q8.65 13.2 8.1 12.15 6.95 10.1 5.95 10.25 5.5 10.15 4.6 11.05 L4.55 11.05 Q3.45 11.95 3.55 12.65 3.55 13.35 3.9 14.5 L3.9 14.45 4.15 15.35 3.1 16.85 2.85 16.55 1.9 15.8 0.4 12.35 Q0.05 11.2 0.0 9.0 -0.05 6.75 0.25 5.6 L0.25 5.55 Q0.45 4.45 1.3 3.3 2.55 1.45 3.25 0.85 4.25 0.0 5.7 0.0 6.45 0.0 7.4 0.55 L9.15 1.65 10.4 2.95 11.35 4.25" fill="#fd94b5" fill-rule="evenodd" stroke="none"/>
  </g>
</svg>
