<?xml version="1.0" encoding="UTF-8" standalone="no"?>
<svg xmlns:xlink="http://www.w3.org/1999/xlink" height="14.1px" width="15.1px" xmlns="http://www.w3.org/2000/svg">
  <g transform="matrix(1.0, 0.0, 0.0, 1.0, 0.0, 0.0)">
    <path d="M10.45 1.15 Q11.6 2.4 12.6 2.35 L12.95 3.0 15.1 7.05 9.9 9.95 9.8 10.0 5.9 12.05 5.85 12.1 2.0 14.1 0.75 11.0 0.0 8.95 0.4 9.0 Q1.6 9.15 2.9 6.35 L2.95 6.05 2.65 4.7 2.35 3.3 2.85 2.85 2.85 2.8 3.25 2.4 4.1 3.55 4.1 3.5 Q5.15 5.45 6.7 5.4 7.75 5.4 8.2 5.0 L8.25 4.95 Q8.7 4.55 8.7 3.55 L7.9 0.55 Q7.95 0.3 8.25 0.2 L9.2 0.0 10.45 1.15" fill="#996600" fill-rule="evenodd" stroke="none"/>
  </g>
</svg>
