<?xml version="1.0" encoding="UTF-8" standalone="no"?>
<svg xmlns:xlink="http://www.w3.org/1999/xlink" height="152.85px" width="27.1px" xmlns="http://www.w3.org/2000/svg">
  <g transform="matrix(1.0, 0.0, 0.0, 1.0, -280.9, -335.9)">
    <path d="M301.95 447.45 L301.95 480.5 Q301.95 483.95 299.55 486.35 297.15 488.75 293.7 488.75 290.25 488.75 287.85 486.35 285.45 483.95 285.45 480.5 L285.45 445.5 Q285.45 442.05 287.85 439.65 289.55 437.95 291.8 437.5 L291.85 437.5 293.2 437.3 293.7 437.25 Q297.15 437.25 299.55 439.65 L300.75 441.15 Q295.25 442.4 295.25 445.0 L295.65 446.3 Q296.6 447.5 299.6 447.5 L301.95 447.45" fill="#00ff00" fill-rule="evenodd" stroke="none"/>
    <path d="M284.65 344.1 Q285.05 344.1 286.1 344.8 287.1 345.45 290.4 345.45 296.95 345.45 296.75 340.75 296.6 337.95 296.75 337.5 297.15 336.15 299.1 336.05 L299.85 335.9 Q301.2 335.9 301.75 336.9 L303.5 338.55 Q306.95 339.85 306.9 340.8 306.9 342.05 308.0 346.05 308.0 347.75 307.0 348.0 L307.0 418.25 Q306.75 418.9 306.75 419.8 306.75 421.0 307.25 422.45 307.75 423.85 307.75 425.95 L307.5 429.75 307.5 429.85 307.0 429.45 307.0 432.2 306.35 432.2 Q305.85 430.55 303.55 427.7 L300.0 423.1 Q298.15 419.3 298.25 418.25 298.7 416.65 298.4 415.55 297.95 413.5 294.5 413.5 291.8 413.5 289.95 418.2 288.95 420.6 288.35 423.5 286.65 428.4 283.05 432.45 L283.05 432.2 281.4 432.2 281.4 345.85 Q280.9 344.9 280.9 344.25 280.9 342.4 282.55 342.4 283.45 342.4 284.55 344.1 L284.65 344.1 M298.85 343.1 L298.95 342.95 298.85 342.85 298.85 343.1 M301.95 447.45 L299.6 447.5 Q296.6 447.5 295.65 446.3 L295.25 445.0 Q295.25 442.4 300.75 441.15 L300.85 441.15 301.75 445.45 302.45 447.45 301.95 447.45" fill="#00ff00" fill-opacity="0.4" fill-rule="evenodd" stroke="none"/>
  </g>
</svg>
