<?xml version="1.0" encoding="UTF-8" standalone="no"?>
<svg xmlns:xlink="http://www.w3.org/1999/xlink" height="69.0px" width="33.4px" xmlns="http://www.w3.org/2000/svg">
  <g transform="matrix(1.0, 0.0, 0.0, 1.0, 0.0, 0.0)">
    <path d="M14.25 14.9 Q15.2 13.8 16.65 13.8 18.05 13.8 19.05 14.9 19.85 15.8 20.1 17.1 L20.1 28.85 20.1 28.95 20.25 45.45 Q20.05 46.75 20.15 48.05 L20.1 51.95 Q19.85 53.2 19.05 54.15 18.05 55.25 16.65 55.25 15.2 55.25 14.25 54.15 13.35 53.15 13.15 51.85 L13.15 48.15 13.15 46.75 13.2 44.65 13.2 44.6 13.2 44.45 13.2 44.4 13.2 37.55 13.2 35.85 13.2 35.2 13.15 28.65 13.15 17.2 Q13.35 15.85 14.25 14.9 M16.65 14.8 Q15.65 14.8 15.0 15.55 14.3 16.3 14.15 17.3 L14.15 28.65 14.2 35.2 14.2 35.85 14.2 37.55 14.2 44.4 14.2 44.45 14.2 44.65 14.2 44.7 14.15 46.75 14.15 48.15 14.15 51.75 Q14.3 52.7 15.0 53.5 15.65 54.25 16.65 54.25 17.6 54.25 18.3 53.5 18.9 52.75 19.1 51.8 L19.15 48.1 Q19.05 46.8 19.25 45.5 L19.1 29.0 19.1 28.95 19.1 28.85 19.1 17.2 Q18.9 16.25 18.3 15.55 17.6 14.8 16.65 14.8 M28.6 5.4 Q32.55 9.75 33.2 15.75 L33.25 16.55 33.25 28.8 33.4 45.45 33.4 46.7 33.4 48.35 33.4 51.3 33.4 51.4 33.35 52.1 33.35 52.2 33.35 52.25 33.35 52.65 33.35 52.7 33.0 54.6 Q32.1 59.7 28.6 63.6 L28.55 63.65 Q23.65 69.05 16.65 69.0 9.6 69.05 4.7 63.6 0.55 59.0 0.05 52.65 L0.05 52.85 0.0 52.25 0.0 52.05 0.0 48.15 0.0 46.75 0.05 44.45 0.05 37.55 0.05 35.85 0.05 35.3 0.0 28.65 0.0 17.0 0.0 16.8 0.05 16.2 0.05 16.35 Q0.55 10.0 4.7 5.4 9.6 -0.05 16.65 0.0 23.65 -0.05 28.55 5.4 L28.6 5.4 M27.85 6.1 L27.85 6.05 Q23.2 0.95 16.65 1.0 10.05 0.95 5.45 6.05 L5.45 6.1 Q1.55 10.4 1.05 16.45 L1.05 16.3 1.0 16.85 1.0 17.0 1.0 28.65 1.05 35.3 1.05 35.85 1.05 37.55 1.05 44.45 1.0 46.75 1.0 48.15 1.0 52.05 1.0 52.2 1.05 52.6 Q1.55 58.6 5.45 62.95 10.05 68.05 16.65 68.0 23.2 68.05 27.85 62.95 31.2 59.2 32.05 54.35 L32.35 52.6 32.35 52.5 32.35 52.2 32.35 52.1 32.35 52.05 32.4 51.35 32.4 51.3 32.4 48.35 32.4 46.6 32.4 45.55 32.25 28.8 32.25 16.55 32.2 15.85 Q31.55 10.2 27.85 6.1" fill="#ffffff" fill-opacity="0.24705882" fill-rule="evenodd" stroke="none"/>
    <path d="M14.25 14.9 Q13.35 15.85 13.15 17.2 L13.15 28.65 13.2 35.2 13.2 35.85 13.2 37.55 13.2 44.4 13.2 44.45 13.2 44.6 13.2 44.65 13.15 46.75 13.15 48.15 13.15 51.85 Q13.35 53.15 14.25 54.15 15.2 55.25 16.65 55.25 18.05 55.25 19.05 54.15 19.85 53.2 20.1 51.95 L20.15 48.05 Q20.05 46.75 20.25 45.45 L20.1 28.95 20.1 28.85 20.1 17.1 Q19.85 15.8 19.05 14.9 18.05 13.8 16.65 13.8 15.2 13.8 14.25 14.9 M16.65 12.8 Q18.45 12.8 19.8 14.25 20.85 15.4 21.1 16.95 L21.1 28.85 21.1 28.95 21.25 45.6 Q21.05 46.8 21.15 48.0 L21.1 52.15 Q20.85 53.65 19.8 54.8 18.45 56.25 16.65 56.25 14.8 56.25 13.5 54.8 12.35 53.5 12.15 51.75 L12.15 48.15 12.15 46.75 12.2 44.65 12.2 44.6 12.2 44.45 12.2 37.55 12.2 35.85 12.2 35.2 12.15 28.65 12.15 17.3 Q12.35 15.5 13.5 14.25 14.8 12.8 16.65 12.8 M16.65 2.0 Q10.5 2.0 6.2 6.75 2.5 10.85 2.05 16.55 L2.05 16.45 2.0 16.9 2.0 17.0 2.0 28.65 2.05 35.3 2.05 35.85 2.05 37.55 2.05 44.45 2.0 46.75 2.0 48.15 2.0 52.05 2.0 52.15 2.05 52.6 2.05 52.5 Q2.5 58.15 6.2 62.3 10.5 67.0 16.65 67.0 22.75 67.0 27.1 62.3 30.3 58.7 31.05 54.05 L31.35 52.55 31.35 52.5 31.35 52.15 31.35 52.0 31.4 51.35 31.4 51.3 31.4 48.35 31.4 46.5 31.4 45.65 31.25 28.8 31.25 16.55 31.2 15.95 31.2 16.0 Q30.6 10.65 27.1 6.75 22.75 2.0 16.65 2.0 M27.85 6.1 Q31.55 10.2 32.2 15.85 L32.25 16.55 32.25 28.8 32.4 45.55 32.4 46.6 32.4 48.35 32.4 51.3 32.4 51.35 32.35 52.05 32.35 52.1 32.35 52.2 32.35 52.5 32.35 52.6 32.05 54.35 Q31.2 59.2 27.85 62.95 23.2 68.05 16.65 68.0 10.05 68.05 5.45 62.95 1.55 58.6 1.05 52.6 L1.0 52.2 1.0 52.05 1.0 48.15 1.0 46.75 1.05 44.45 1.05 37.55 1.05 35.85 1.05 35.3 1.0 28.65 1.0 17.0 1.0 16.85 1.05 16.3 1.05 16.45 Q1.55 10.4 5.45 6.1 L5.45 6.05 Q10.05 0.95 16.65 1.0 23.2 0.95 27.85 6.05 L27.85 6.1" fill="#ffffff" fill-opacity="0.49803922" fill-rule="evenodd" stroke="none"/>
    <path d="M16.65 11.8 Q18.9 11.8 20.5 13.55 21.8 15.0 22.1 17.0 L22.1 28.85 22.1 28.9 22.1 28.95 22.25 45.6 Q22.05 46.7 22.15 47.9 L22.1 52.1 Q21.8 54.0 20.5 55.5 18.9 57.25 16.65 57.25 14.35 57.25 12.75 55.5 11.35 53.95 11.15 51.85 L11.15 48.15 11.15 46.75 11.2 44.6 11.2 44.45 11.2 37.55 11.2 35.85 11.2 35.25 11.15 28.65 11.15 17.2 Q11.35 15.05 12.75 13.55 14.35 11.8 16.65 11.8 M16.65 12.8 Q14.8 12.8 13.5 14.25 12.35 15.5 12.15 17.3 L12.15 28.65 12.2 35.2 12.2 35.85 12.2 37.55 12.2 44.45 12.2 44.6 12.2 44.65 12.15 46.75 12.15 48.15 12.15 51.75 Q12.35 53.5 13.5 54.8 14.8 56.25 16.65 56.25 18.45 56.25 19.8 54.8 20.85 53.65 21.1 52.15 L21.15 48.0 Q21.05 46.8 21.25 45.6 L21.1 28.95 21.1 28.85 21.1 16.95 Q20.85 15.4 19.8 14.25 18.45 12.8 16.65 12.8 M16.65 3.0 Q10.9 3.0 6.95 7.4 3.45 11.25 3.05 16.6 L3.0 16.95 3.0 28.65 3.05 35.3 3.05 35.85 3.05 37.55 3.05 44.4 3.05 44.45 3.0 46.75 3.0 48.15 3.0 52.1 3.05 52.45 Q3.45 57.75 6.95 61.6 10.9 66.0 16.65 66.0 22.35 66.0 26.35 61.6 29.45 58.15 30.15 53.6 L30.35 52.45 30.35 52.4 30.35 52.1 30.35 52.0 30.35 51.9 30.4 51.3 30.4 48.35 30.4 46.35 30.4 45.7 30.25 28.8 30.25 16.6 30.2 16.1 Q29.65 11.05 26.35 7.4 22.35 3.0 16.65 3.0 M16.65 2.0 Q22.75 2.0 27.1 6.75 30.6 10.65 31.2 16.0 L31.2 15.95 31.25 16.55 31.25 28.8 31.4 45.65 31.4 46.5 31.4 48.35 31.4 51.3 31.4 51.35 31.35 52.0 31.35 52.15 31.35 52.5 31.35 52.55 31.05 54.05 Q30.3 58.7 27.1 62.3 22.75 67.0 16.65 67.0 10.5 67.0 6.2 62.3 2.5 58.15 2.05 52.5 L2.05 52.6 2.0 52.15 2.0 52.05 2.0 48.15 2.0 46.75 2.05 44.45 2.05 37.55 2.05 35.85 2.05 35.3 2.0 28.65 2.0 17.0 2.0 16.9 2.05 16.45 2.05 16.55 Q2.5 10.85 6.2 6.75 10.5 2.0 16.65 2.0" fill="#ffffff" fill-opacity="0.7490196" fill-rule="evenodd" stroke="none"/>
    <path d="M16.65 11.8 Q14.35 11.8 12.75 13.55 11.35 15.05 11.15 17.2 L11.15 28.65 11.2 35.25 11.2 35.85 11.2 37.55 11.2 44.45 11.2 44.6 11.15 46.75 11.15 48.15 11.15 51.85 Q11.35 53.95 12.75 55.5 14.35 57.25 16.65 57.25 18.9 57.25 20.5 55.5 21.8 54.0 22.1 52.1 L22.15 47.9 Q22.05 46.7 22.25 45.6 L22.1 28.95 22.1 28.9 22.1 28.85 22.1 17.0 Q21.8 15.0 20.5 13.55 18.9 11.8 16.65 11.8 M16.65 3.0 Q22.35 3.0 26.35 7.4 29.65 11.05 30.2 16.1 L30.25 16.6 30.25 28.8 30.4 45.7 30.4 46.35 30.4 48.35 30.4 51.3 30.35 51.9 30.35 52.0 30.35 52.1 30.35 52.4 30.35 52.45 30.15 53.6 Q29.45 58.15 26.35 61.6 22.35 66.0 16.65 66.0 10.9 66.0 6.95 61.6 3.45 57.75 3.05 52.45 L3.0 52.1 3.0 48.15 3.0 46.75 3.05 44.45 3.05 44.4 3.05 37.55 3.05 35.85 3.05 35.3 3.0 28.65 3.0 16.95 3.05 16.6 Q3.45 11.25 6.95 7.4 10.9 3.0 16.65 3.0" fill="#ffffff" fill-rule="evenodd" stroke="none"/>
  </g>
</svg>
