<?xml version="1.0" encoding="UTF-8" standalone="no"?>
<svg xmlns:xlink="http://www.w3.org/1999/xlink" height="34.5px" width="28.8px" xmlns="http://www.w3.org/2000/svg">
  <g transform="matrix(1.0, 0.0, 0.0, 1.0, 0.75, 0.75)">
    <path d="M15.25 4.2 Q15.3 3.0 15.65 1.9 L16.15 0.55 Q20.9 -0.95 21.35 1.6 21.75 4.0 21.4 5.25 L21.4 5.35 21.15 7.35 21.4 5.35 21.4 5.25 22.75 1.4 Q27.1 0.45 27.3 4.7 27.45 8.6 24.9 10.5 L24.8 10.55 Q25.85 17.6 24.8 23.5 24.4 24.85 23.65 25.9 L22.25 27.25 Q21.25 28.3 18.75 28.8 L18.45 28.85 16.55 29.1 Q10.55 29.5 0.0 33.0 L0.0 18.9 11.65 19.2 Q10.95 17.9 10.65 16.5 6.5 12.45 7.65 9.65 L7.75 9.4 Q7.85 8.75 8.3 8.4 9.0 7.7 9.8 7.3 7.8 3.0 11.05 1.05 14.55 -0.25 14.85 1.65 L15.25 4.2 15.35 5.8 15.25 4.2 M15.8 7.6 L15.35 5.8 15.15 7.2 Q13.9 6.6 12.75 6.55 11.2 6.5 9.8 7.3 11.2 6.5 12.75 6.55 13.9 6.6 15.15 7.2 15.45 7.35 15.8 7.6 L16.7 8.2 Q17.75 9.5 17.35 10.45 17.8 10.9 18.55 10.95 19.55 10.55 20.1 9.85 20.85 8.7 21.15 7.35 20.85 8.7 20.1 9.85 19.55 10.55 18.55 10.95 17.8 10.9 17.35 10.45 17.75 9.5 16.7 8.2 L15.8 7.6 M24.8 10.55 L23.15 11.0 Q22.25 10.75 22.0 10.1 21.25 8.65 21.15 7.35 21.25 8.65 22.0 10.1 22.25 10.75 23.15 11.0 L24.8 10.55 M17.35 10.45 Q16.9 11.45 14.85 12.15 L10.65 12.35 14.85 12.15 Q16.9 11.45 17.35 10.45" fill="#d7172b" fill-rule="evenodd" stroke="none"/>
    <path d="M21.4 5.25 Q21.75 4.0 21.35 1.6 20.9 -0.95 16.15 0.55 L15.65 1.9 Q15.3 3.0 15.25 4.2 L15.35 5.8 15.8 7.6 M21.15 7.35 L21.4 5.35 21.4 5.25 22.75 1.4 Q27.1 0.45 27.3 4.7 27.45 8.6 24.9 10.5 L24.8 10.55 M9.8 7.3 Q7.8 3.0 11.05 1.05 14.55 -0.25 14.85 1.65 L15.25 4.2 M15.15 7.2 L15.35 5.8" fill="none" stroke="#000000" stroke-linecap="round" stroke-linejoin="round" stroke-width="1.5"/>
    <path d="M15.8 7.6 L16.7 8.2 Q17.75 9.5 17.35 10.45 17.8 10.9 18.55 10.95 19.55 10.55 20.1 9.85 20.85 8.7 21.15 7.35 21.25 8.65 22.0 10.1 22.25 10.75 23.15 11.0 L24.8 10.55 Q25.85 17.6 24.8 23.5 24.4 24.85 23.65 25.9 L22.25 27.25 Q21.25 28.3 18.75 28.8 L18.45 28.85 16.55 29.1 Q10.55 29.5 0.0 33.0 L0.0 18.9 11.65 19.2 Q10.95 17.9 10.65 16.5 6.5 12.45 7.65 9.65 L7.75 9.4 Q7.85 8.75 8.3 8.4 9.0 7.7 9.8 7.3 11.2 6.5 12.75 6.55 13.9 6.6 15.15 7.2 M10.65 12.35 L14.85 12.15 Q16.9 11.45 17.35 10.45 M15.8 7.6 Q15.45 7.35 15.15 7.2" fill="none" stroke="#000000" stroke-linecap="round" stroke-linejoin="round" stroke-width="1.5"/>
  </g>
</svg>
