<?xml version="1.0" encoding="UTF-8" standalone="no"?>
<svg xmlns:xlink="http://www.w3.org/1999/xlink" height="8.55px" width="288.3px" xmlns="http://www.w3.org/2000/svg">
  <g transform="matrix(1.0, 0.0, 0.0, 1.0, 148.15, 5.0)">
    <path d="M11.0 -5.0 L18.25 -5.0 21.1 3.55 18.2 3.55 17.85 2.55 15.15 2.55 14.8 3.55 11.9 3.55 13.85 -2.2 11.0 -2.2 11.0 -5.0 M33.1 -5.0 L35.9 -5.0 35.9 3.55 33.1 3.55 Q33.1 1.1 32.1 0.05 31.45 -0.65 30.8 -0.65 L30.8 3.55 28.0 3.55 28.0 -2.2 27.1 -2.2 27.1 -5.0 28.2 -5.0 Q30.0 -5.0 31.5 -4.25 32.9 -3.65 33.1 -2.8 L33.1 -5.0 M46.45 -2.2 L45.6 -2.2 45.6 0.75 46.45 0.75 Q47.05 0.75 47.5 0.3 47.9 -0.1 47.9 -0.7 47.9 -1.3 47.5 -1.75 47.05 -2.2 46.45 -2.2 M50.7 -0.7 Q50.7 1.05 49.45 2.3 48.2 3.55 46.45 3.55 L42.8 3.55 42.8 -2.2 41.9 -2.2 41.9 -5.0 46.45 -5.0 Q48.2 -5.0 49.45 -3.75 50.7 -2.45 50.7 -0.7 M73.6 -2.2 L73.6 -2.1 74.55 -1.6 Q76.2 -0.65 76.2 0.9 76.2 2.0 75.4 2.75 74.6 3.55 73.5 3.55 L68.25 3.55 68.25 0.75 72.65 0.75 72.65 0.7 71.65 0.15 Q70.05 -0.75 70.05 -2.3 70.05 -3.45 70.85 -4.2 71.6 -5.0 72.75 -5.0 L77.05 -5.0 77.05 -2.2 73.6 -2.2 M91.85 -5.0 L91.85 3.55 89.05 3.55 89.05 0.35 86.75 0.35 86.75 3.55 83.95 3.55 83.95 -5.0 86.75 -5.0 86.75 -1.8 89.05 -1.8 89.05 -5.0 91.85 -5.0 M100.0 -3.75 Q101.25 -5.0 103.05 -5.0 104.8 -5.0 106.05 -3.75 107.3 -2.45 107.3 -0.7 107.3 1.05 106.05 2.3 104.8 3.55 103.05 3.55 101.25 3.55 100.0 2.3 98.75 1.05 98.75 -0.7 98.75 -2.5 100.0 -3.75 M104.05 -1.75 Q103.6 -2.2 103.05 -2.2 102.4 -2.2 102.0 -1.75 101.55 -1.35 101.55 -0.7 101.55 -0.1 102.0 0.3 102.4 0.75 103.05 0.75 103.65 0.75 104.05 0.3 104.5 -0.1 104.5 -0.7 L104.05 -1.75 M117.45 -1.55 L118.6 -5.0 121.35 -5.0 122.45 -1.55 123.55 -5.0 126.45 -5.0 123.6 3.55 120.9 3.55 119.95 0.6 119.05 3.55 116.3 3.55 113.45 -5.0 116.35 -5.0 117.45 -1.55 M136.7 -2.1 L137.65 -1.6 Q139.3 -0.65 139.3 0.9 139.3 2.0 138.5 2.75 137.7 3.55 136.6 3.55 L131.35 3.55 131.35 0.75 135.75 0.75 135.75 0.7 134.75 0.15 Q133.15 -0.75 133.15 -2.3 133.15 -3.45 133.95 -4.2 134.7 -5.0 135.85 -5.0 L140.15 -5.0 140.15 -2.2 136.7 -2.2 136.7 -2.1 M17.2 0.5 L16.5 -1.7 15.8 0.5 17.2 0.5 M-148.15 -2.2 L-148.15 -5.0 -139.35 -5.0 -139.35 -2.2 -144.45 -2.2 -144.45 -1.8 -140.6 -1.8 -140.6 0.35 -144.45 0.35 -144.45 3.55 -147.25 3.55 -147.25 -2.2 -148.15 -2.2 M-125.0 -0.45 L-126.2 0.55 -125.7 0.75 -124.3 0.75 -124.3 3.55 -126.05 3.55 Q-127.15 3.55 -127.95 2.75 L-129.65 0.85 -129.65 3.55 -132.45 3.55 -132.45 -5.0 -127.45 -5.0 Q-126.25 -5.0 -125.4 -4.1 -124.55 -3.25 -124.55 -2.05 -124.55 -1.2 -125.0 -0.45 M-129.65 -2.55 L-129.65 -1.55 -128.0 -1.55 Q-127.35 -1.55 -127.35 -2.05 -127.35 -2.55 -128.0 -2.55 L-129.65 -2.55 M-110.75 -1.8 L-110.75 0.35 -114.6 0.35 -114.6 0.75 -109.5 0.75 -109.5 3.55 -117.4 3.55 -117.4 -5.0 -109.5 -5.0 -109.5 -2.2 -114.6 -2.2 -114.6 -1.8 -110.75 -1.8 M-94.7 -2.2 L-99.8 -2.2 -99.8 -1.8 -95.95 -1.8 -95.95 0.35 -99.8 0.35 -99.8 0.75 -94.7 0.75 -94.7 3.55 -102.6 3.55 -102.6 -5.0 -94.7 -5.0 -94.7 -2.2 M-71.95 -2.2 Q-72.55 -2.2 -73.0 -1.75 L-73.45 -0.7 Q-73.45 -0.1 -73.0 0.3 -72.6 0.75 -71.95 0.75 L-71.15 0.75 -71.15 -1.15 -68.35 -1.15 -68.35 3.55 -71.95 3.55 Q-73.75 3.55 -75.0 2.3 -76.25 1.05 -76.25 -0.7 -76.25 -2.5 -75.0 -3.75 -73.75 -5.0 -71.95 -5.0 L-68.35 -5.0 -68.35 -2.2 -71.95 -2.2 M-42.6 -5.0 L-40.75 -2.2 -38.9 -5.0 -36.15 -5.0 -36.15 3.55 -38.95 3.55 -38.95 0.75 -40.75 3.55 -42.55 0.75 -42.55 3.55 -45.35 3.55 -45.35 -5.0 -42.6 -5.0 M-55.1 -5.0 L-52.25 3.55 -55.15 3.55 -55.5 2.55 -58.2 2.55 -58.55 3.55 -61.45 3.55 -58.6 -5.0 -55.1 -5.0 M-22.6 -1.8 L-22.6 0.35 -26.45 0.35 -26.45 0.75 -21.35 0.75 -21.35 3.55 -29.25 3.55 -29.25 -5.0 -21.35 -5.0 -21.35 -2.2 -26.45 -2.2 -26.45 -1.8 -22.6 -1.8 M-12.75 -4.2 Q-12.0 -5.0 -10.9 -5.0 L-6.55 -5.0 -6.55 -2.2 -10.0 -2.2 -10.0 -2.1 -9.05 -1.6 Q-7.45 -0.65 -7.45 0.9 -7.45 2.0 -8.2 2.75 -9.0 3.55 -10.1 3.55 L-14.45 3.55 -14.45 0.75 -10.95 0.75 -10.95 0.7 -11.95 0.15 Q-13.55 -0.75 -13.55 -2.3 -13.55 -3.45 -12.75 -4.2 M-56.15 0.5 L-56.85 -1.75 -57.55 0.5 -56.15 0.5" fill="#ffffff" fill-rule="evenodd" stroke="none"/>
  </g>
</svg>
