<?xml version="1.0" encoding="UTF-8" standalone="no"?>
<svg xmlns:xlink="http://www.w3.org/1999/xlink" height="46.05px" width="20.2px" xmlns="http://www.w3.org/2000/svg">
  <g transform="matrix(1.0, 0.0, 0.0, 1.0, -4.3, -3.8)">
    <path d="M21.1 5.1 Q22.9 5.6 23.35 7.1 23.8 8.85 22.75 11.7 L22.75 11.65 7.8 46.95 6.25 48.75 5.85 48.85 Q5.1 48.1 5.3 46.3 L15.35 8.55 Q17.15 3.9 21.05 5.1 L21.1 5.1 M20.75 6.05 L20.75 6.1 Q17.75 5.2 16.35 8.8 L6.35 46.45 6.3 47.3 6.9 46.45 21.85 11.25 21.9 11.15 Q22.75 8.8 22.4 7.35 L22.45 7.4 Q22.1 6.4 20.85 6.05 L20.75 6.05" fill="#ffffff" fill-rule="evenodd" stroke="none"/>
    <path d="M20.75 6.05 L20.85 6.05 Q22.1 6.4 22.45 7.4 L22.4 7.35 Q22.75 8.8 21.9 11.15 L21.85 11.25 6.9 46.45 6.3 47.3 6.35 46.45 16.35 8.8 Q17.75 5.2 20.75 6.1 L20.75 6.05" fill="#0099cc" fill-rule="evenodd" stroke="none"/>
    <path d="M21.1 5.1 L21.05 5.1 Q17.15 3.9 15.35 8.55 L5.3 46.3 Q5.1 48.1 5.85 48.85 L6.25 48.75 7.8 46.95 22.75 11.65 22.75 11.7 Q23.8 8.85 23.35 7.1 22.9 5.6 21.1 5.1 M21.4 4.15 Q26.15 5.5 23.65 12.05 L8.65 47.45 Q6.65 50.55 5.3 49.65 4.0 48.75 4.35 46.15 L14.4 8.25 Q16.6 2.6 21.4 4.15" fill="#cc0000" fill-rule="evenodd" stroke="none"/>
  </g>
</svg>
