<?xml version="1.0" encoding="UTF-8" standalone="no"?>
<svg xmlns:xlink="http://www.w3.org/1999/xlink" height="32.25px" width="291.5px" xmlns="http://www.w3.org/2000/svg">
  <g transform="matrix(1.0, 0.0, 0.0, 1.0, 145.75, 16.15)">
    <path d="M29.15 -5.35 L29.0 -5.35 24.3 -5.35 24.3 -4.45 28.8 -4.45 Q29.75 -4.45 29.9 -4.9 29.8 -5.25 29.3 -5.3 L29.15 -5.35 29.3 -5.3 Q29.8 -5.25 29.9 -4.9 29.75 -4.45 28.8 -4.45 L24.3 -4.45 24.3 -5.35 29.0 -5.35 29.15 -5.35 M29.4 -6.8 Q31.35 -6.55 31.35 -4.85 31.35 -2.9 28.75 -2.9 L22.7 -2.9 22.7 -6.8 28.95 -6.8 29.4 -6.8 M46.55 2.15 Q49.25 2.15 51.0 3.85 52.95 5.55 53.0 7.9 52.95 10.2 51.0 11.9 49.25 13.6 46.55 13.65 43.85 13.6 42.1 11.9 40.15 10.2 40.15 7.9 40.15 5.55 42.1 3.85 43.85 2.15 46.55 2.15 M46.4 4.1 Q44.6 4.1 43.35 5.3 42.05 6.4 42.1 8.0 42.05 9.55 43.35 10.75 44.6 11.85 46.4 11.85 48.2 11.85 49.4 10.75 50.7 9.55 50.7 8.0 50.7 6.4 49.4 5.3 48.2 4.1 46.4 4.1 M98.6 -3.25 L98.7 -3.2 98.6 -3.25 M99.15 -0.85 Q99.1 -1.95 98.15 -2.8 L98.15 -2.85 Q97.25 -3.7 95.95 -3.7 94.65 -3.7 93.7 -2.8 92.8 -2.0 92.8 -0.85 92.8 0.3 93.7 1.05 94.65 1.9 95.95 1.95 97.3 1.9 98.25 1.05 99.1 0.3 99.15 -0.85 M92.15 -4.3 Q93.7 -5.75 95.9 -5.7 98.1 -5.75 99.75 -4.3 101.35 -2.75 101.35 -0.8 101.35 1.25 99.8 2.75 98.15 4.15 95.9 4.15 93.7 4.15 92.15 2.75 90.55 1.25 90.6 -0.8 90.55 -2.9 92.15 -4.3" fill="#ffffff" fill-rule="evenodd" stroke="none"/>
    <path d="M128.2 -4.85 L134.7 -13.45 143.35 -13.45 143.35 11.85 134.7 11.85 134.7 3.35 128.2 11.85 121.85 3.35 121.85 11.85 113.2 11.85 113.2 -13.45 121.8 -13.45 128.2 -4.85" fill="url(#gradient0)" fill-rule="evenodd" stroke="none"/>
    <path d="M-143.3 -13.45 L-131.65 -13.45 -125.2 -4.85 -118.7 -13.45 -110.15 -13.45 -110.15 11.85 -118.7 11.85 -118.7 3.35 -125.2 11.85 -131.6 3.35 -131.6 11.85 -140.2 11.85 -140.2 -5.7 -143.3 -5.7 -143.3 -13.45" fill="url(#gradient1)" fill-rule="evenodd" stroke="none"/>
    <path d="M-97.25 -13.45 L-97.25 11.85 -105.9 11.85 -105.9 -13.45 -97.25 -13.45" fill="url(#gradient2)" fill-rule="evenodd" stroke="none"/>
    <path d="M-18.3 4.15 L-1.1 4.15 -1.1 11.85 -26.95 11.85 -26.95 -13.4 -18.3 -13.45 -18.3 4.15" fill="url(#gradient3)" fill-rule="evenodd" stroke="none"/>
    <path d="M-49.85 -9.7 Q-45.7 -13.45 -39.95 -13.45 L-30.25 -13.45 -30.25 -5.7 -39.95 -5.7 Q-42.15 -5.75 -43.75 -4.3 -45.4 -2.85 -45.35 -0.8 -45.4 1.2 -43.75 2.75 -42.15 4.15 -39.95 4.15 L-30.25 4.15 -30.25 11.85 -39.95 11.85 Q-45.85 11.85 -49.85 8.15 -53.95 4.45 -53.95 -0.8 -53.95 -6.0 -49.85 -9.7" fill="url(#gradient4)" fill-rule="evenodd" stroke="none"/>
    <path d="M-56.05 -13.45 L-56.05 11.85 -64.65 11.85 -64.65 -13.45 -56.05 -13.45" fill="url(#gradient5)" fill-rule="evenodd" stroke="none"/>
    <path d="M-93.75 -13.45 Q-87.65 -13.45 -82.7 -11.3 -78.3 -9.4 -76.8 -6.8 L-76.8 -13.45 -68.1 -13.45 -68.1 11.85 -76.8 11.85 Q-76.8 4.55 -80.25 1.2 -82.65 -1.0 -85.35 -1.0 L-85.35 11.85 -93.95 11.85 -93.95 -13.45 -93.75 -13.45" fill="url(#gradient6)" fill-rule="evenodd" stroke="none"/>
    <path d="M30.5 -13.45 Q34.4 -13.45 37.2 -10.95 39.95 -8.4 40.0 -4.85 39.95 -1.3 37.2 1.15 34.5 3.7 30.5 3.7 L22.75 3.7 22.75 11.85 14.15 11.85 14.15 -13.4 30.5 -13.45 M29.4 -6.8 L28.95 -6.8 22.7 -6.8 22.7 -2.9 28.75 -2.9 Q31.35 -2.9 31.35 -4.85 31.35 -6.55 29.4 -6.8" fill="url(#gradient7)" fill-rule="evenodd" stroke="none"/>
    <path d="M46.4 4.1 Q48.2 4.1 49.4 5.3 50.7 6.4 50.7 8.0 50.7 9.55 49.4 10.75 48.2 11.85 46.4 11.85 44.6 11.85 43.35 10.75 42.05 9.55 42.1 8.0 42.05 6.4 43.35 5.3 44.6 4.1 46.4 4.1" fill="url(#gradient8)" fill-rule="evenodd" stroke="none"/>
    <path d="M59.1 -9.7 Q63.25 -13.45 69.0 -13.45 L78.75 -13.45 78.75 -5.7 69.0 -5.7 Q66.8 -5.75 65.2 -4.3 63.65 -2.9 63.7 -0.8 63.65 1.25 65.2 2.75 66.8 4.15 69.0 4.15 L78.75 4.15 78.75 11.85 69.0 11.85 Q63.1 11.85 59.1 8.15 55.0 4.45 55.0 -0.8 55.0 -5.95 59.1 -9.7" fill="url(#gradient9)" fill-rule="evenodd" stroke="none"/>
    <path d="M10.55 -13.45 L10.55 11.85 1.9 11.85 1.9 -13.45 10.55 -13.45" fill="url(#gradient10)" fill-rule="evenodd" stroke="none"/>
    <path d="M92.15 -4.3 Q90.55 -2.9 90.6 -0.8 90.55 1.25 92.15 2.75 93.7 4.15 95.9 4.15 98.15 4.15 99.8 2.75 101.35 1.25 101.35 -0.8 101.35 -2.75 99.75 -4.3 98.1 -5.75 95.9 -5.7 93.7 -5.75 92.15 -4.3 M86.05 -9.7 Q90.15 -13.45 95.9 -13.45 101.7 -13.45 105.85 -9.7 109.95 -6.0 110.0 -0.8 109.95 4.45 105.85 8.15 101.8 11.85 95.9 11.85 90.0 11.85 86.0 8.15 81.9 4.4 81.95 -0.8 81.9 -6.0 86.05 -9.7" fill="url(#gradient11)" fill-rule="evenodd" stroke="none"/>
    <path d="M30.55 -16.0 Q35.35 -16.0 38.8 -12.95 L39.0 -12.8 Q42.55 -9.55 42.55 -4.9 42.55 -0.2 39.0 3.05 L38.85 3.15 Q35.5 6.15 30.55 6.15 L25.35 6.15 25.35 14.3 -26.9 14.3 -26.95 14.3 -39.9 14.3 Q-46.8 14.3 -51.45 10.0 L-51.6 9.8 -53.45 7.8 -53.45 14.3 -79.2 14.3 -79.2 11.75 Q-79.25 5.85 -81.95 3.05 L-82.75 2.35 -82.75 14.3 -108.9 14.3 -108.9 -16.0 -93.7 -16.0 Q-87.1 -16.0 -81.7 -13.6 L-79.2 -12.4 -79.2 -13.5 -79.2 -13.55 -79.2 -16.0 -53.45 -16.0 -53.45 -9.4 -51.45 -11.65 Q-46.65 -16.0 -39.9 -16.0 L-15.75 -16.0 -15.75 -13.55 -15.75 -13.5 -15.75 1.55 -1.05 1.55 -0.5 1.6 -0.5 -13.5 -0.5 -13.55 -0.5 -16.0 30.55 -16.0 M10.55 -13.45 L1.9 -13.45 1.9 11.85 10.55 11.85 10.55 -13.45 M30.5 -13.45 L14.15 -13.4 14.15 11.85 22.75 11.85 22.75 3.7 30.5 3.7 Q34.5 3.7 37.2 1.15 39.95 -1.3 40.0 -4.85 39.95 -8.4 37.2 -10.95 34.4 -13.45 30.5 -13.45 M-18.3 4.15 L-18.3 -13.45 -26.95 -13.4 -26.95 11.85 -1.1 11.85 -1.1 4.15 -18.3 4.15 M-56.05 -13.45 L-64.65 -13.45 -64.65 11.85 -56.05 11.85 -56.05 -13.45 M-39.95 4.15 Q-42.15 4.15 -43.75 2.75 -45.4 1.2 -45.35 -0.8 -45.4 -2.85 -43.75 -4.3 -42.15 -5.75 -39.95 -5.7 L-30.25 -5.7 -30.25 -13.45 -39.95 -13.45 Q-45.7 -13.45 -49.85 -9.7 -53.95 -6.0 -53.95 -0.8 -53.95 4.45 -49.85 8.15 -45.85 11.85 -39.95 11.85 L-30.25 11.85 -30.25 4.15 -39.95 4.15 M-42.05 0.8 Q-41.15 1.55 -39.9 1.55 L-29.45 1.55 -29.45 -3.25 -30.25 -3.25 -39.9 -3.25 Q-41.15 -3.3 -42.05 -2.45 -42.8 -1.8 -42.8 -0.85 -42.8 0.1 -42.05 0.8 M-93.75 -13.45 L-93.95 -13.45 -93.95 11.85 -85.35 11.85 -85.35 -1.0 Q-82.65 -1.0 -80.25 1.2 -76.8 4.55 -76.8 11.85 L-68.1 11.85 -68.1 7.75 -68.1 7.5 -68.1 0.9 -68.1 -7.0 -68.1 -9.85 -68.1 -13.1 -68.1 -13.45 -76.8 -13.45 -76.8 -6.8 Q-78.3 -9.4 -82.7 -11.3 -87.65 -13.45 -93.75 -13.45 M-97.25 -13.45 L-105.9 -13.45 -105.9 11.85 -97.25 11.85 -97.25 -13.45 M38.25 3.35 L38.4 3.3 38.3 3.3 38.25 3.35" fill="#ffffff" fill-rule="evenodd" stroke="none"/>
    <path d="M-143.3 -5.7 L-140.2 -5.7 -140.2 11.85 -131.6 11.85 -131.6 3.35 -125.2 11.85 -118.7 3.35 -118.7 11.85 -110.15 11.85 -110.15 -13.45 -118.7 -13.45 -125.2 -4.85 -131.65 -13.45 -143.3 -13.45 -143.3 -5.7 M-145.75 -5.75 L-145.75 -13.5 -145.75 -13.55 -145.75 -16.0 -131.6 -16.0 -130.5 -15.75 -130.45 -15.7 -129.55 -14.9 -129.6 -14.95 -125.15 -9.1 -120.7 -14.95 -120.65 -15.0 -119.75 -15.7 -118.65 -16.0 -108.9 -16.0 -108.9 14.3 -121.2 14.3 -121.2 10.8 -122.2 12.1 -122.25 12.15 -125.15 16.1 -129.05 10.8 -129.05 11.8 -129.05 11.85 -129.05 12.15 -129.05 12.2 -129.05 14.3 -142.65 14.3 -142.65 11.85 -142.65 11.8 -142.65 -3.25 -143.3 -3.25 -145.75 -3.25 -145.75 -5.7 -145.75 -5.75" fill="#ffffff" fill-rule="evenodd" stroke="none"/>
    <path d="M66.15 -0.85 Q66.1 0.15 66.8 0.8 67.75 1.55 68.95 1.55 L79.15 1.55 Q78.95 0.45 79.0 -0.8 78.95 -2.05 79.2 -3.25 L68.95 -3.25 Q67.85 -3.3 67.0 -2.6 L66.8 -2.4 Q66.1 -1.8 66.15 -0.85 M57.4 -11.65 Q62.2 -16.0 68.95 -16.0 L81.25 -16.0 81.25 -13.45 81.25 -8.35 Q82.3 -10.1 84.05 -11.7 89.05 -16.2 96.0 -16.15 102.95 -16.2 108.05 -11.7 L110.65 -8.7 110.65 -16.0 121.8 -16.0 122.95 -15.75 123.0 -15.7 123.85 -14.9 123.8 -14.95 128.25 -9.15 132.65 -14.95 132.7 -15.0 133.55 -15.7 134.65 -16.0 134.75 -16.0 145.75 -16.0 145.75 -13.55 145.75 -13.5 145.75 11.8 145.75 11.85 145.75 14.3 132.15 14.3 132.15 14.25 132.15 13.8 132.15 13.35 132.15 13.3 132.15 12.85 132.15 12.8 132.15 10.85 128.3 16.1 124.35 10.9 124.35 11.8 124.35 11.85 124.35 12.15 124.35 12.2 124.35 14.3 110.65 14.3 110.65 7.2 108.05 10.1 Q103.1 14.55 96.0 14.6 88.85 14.55 83.95 10.1 82.3 8.6 81.25 6.9 L81.25 11.85 81.25 14.3 68.95 14.3 Q62.05 14.3 57.4 10.0 L57.25 9.85 Q52.45 5.45 52.45 -0.85 52.45 -7.05 57.4 -11.65 M59.1 -9.7 Q55.0 -5.95 55.0 -0.8 55.0 4.45 59.1 8.15 63.1 11.85 69.0 11.85 L78.75 11.85 78.75 4.15 69.0 4.15 Q66.8 4.15 65.2 2.75 63.65 1.25 63.7 -0.8 63.65 -2.9 65.2 -4.3 66.8 -5.75 69.0 -5.7 L78.75 -5.7 78.75 -13.45 69.0 -13.45 Q63.25 -13.45 59.1 -9.7 M81.95 -0.8 Q81.9 4.4 86.0 8.15 90.0 11.85 95.9 11.85 101.8 11.85 105.85 8.15 109.95 4.45 110.0 -0.8 109.95 -6.0 105.85 -9.7 101.7 -13.45 95.9 -13.45 90.15 -13.45 86.05 -9.7 81.9 -6.0 81.95 -0.8 M128.25 -4.85 L128.2 -4.85 121.75 -13.45 113.2 -13.45 113.2 11.85 121.8 11.85 121.8 3.35 121.85 3.35 128.25 11.8 134.7 3.35 134.7 11.85 143.3 11.85 143.3 -13.45 134.7 -13.45 128.25 -4.85" fill="#ffffff" fill-rule="evenodd" stroke="none"/>
  </g>
  <defs>
    <linearGradient gradientTransform="matrix(0.0, 0.0155, -0.0154, 0.0, 128.2, -0.8)" gradientUnits="userSpaceOnUse" id="gradient0" spreadMethod="pad" x1="-819.2" x2="819.2">
      <stop offset="0.0" stop-color="#ff8a00"/>
      <stop offset="1.0" stop-color="#e60012"/>
    </linearGradient>
    <linearGradient gradientTransform="matrix(0.0, 0.0155, -0.0154, 0.0, -126.7, -0.8)" gradientUnits="userSpaceOnUse" id="gradient1" spreadMethod="pad" x1="-819.2" x2="819.2">
      <stop offset="0.0" stop-color="#ff8a00"/>
      <stop offset="1.0" stop-color="#e60012"/>
    </linearGradient>
    <linearGradient gradientTransform="matrix(0.0, 0.0155, -0.0154, 0.0, -101.65, -0.8)" gradientUnits="userSpaceOnUse" id="gradient2" spreadMethod="pad" x1="-819.2" x2="819.2">
      <stop offset="0.0" stop-color="#ff8a00"/>
      <stop offset="1.0" stop-color="#e60012"/>
    </linearGradient>
    <linearGradient gradientTransform="matrix(0.0, 0.0155, -0.0154, 0.0, -14.05, -0.8)" gradientUnits="userSpaceOnUse" id="gradient3" spreadMethod="pad" x1="-819.2" x2="819.2">
      <stop offset="0.0" stop-color="#ff8a00"/>
      <stop offset="1.0" stop-color="#e60012"/>
    </linearGradient>
    <linearGradient gradientTransform="matrix(0.0, 0.0154, -0.0154, 0.0, -42.15, -0.8)" gradientUnits="userSpaceOnUse" id="gradient4" spreadMethod="pad" x1="-819.2" x2="819.2">
      <stop offset="0.0" stop-color="#ff8a00"/>
      <stop offset="1.0" stop-color="#e60012"/>
    </linearGradient>
    <linearGradient gradientTransform="matrix(0.0, 0.0155, -0.0154, 0.0, -60.4, -0.8)" gradientUnits="userSpaceOnUse" id="gradient5" spreadMethod="pad" x1="-819.2" x2="819.2">
      <stop offset="0.0" stop-color="#ff8a00"/>
      <stop offset="1.0" stop-color="#e60012"/>
    </linearGradient>
    <linearGradient gradientTransform="matrix(0.0, 0.0155, -0.0154, 0.0, -81.1, -0.8)" gradientUnits="userSpaceOnUse" id="gradient6" spreadMethod="pad" x1="-819.2" x2="819.2">
      <stop offset="0.0" stop-color="#ff8a00"/>
      <stop offset="1.0" stop-color="#e60012"/>
    </linearGradient>
    <linearGradient gradientTransform="matrix(0.0, 0.0152, -0.0154, 0.0, 27.0, -0.8)" gradientUnits="userSpaceOnUse" id="gradient7" spreadMethod="pad" x1="-819.2" x2="819.2">
      <stop offset="0.0" stop-color="#ff8a00"/>
      <stop offset="1.0" stop-color="#e60012"/>
    </linearGradient>
    <linearGradient gradientTransform="matrix(0.0, 0.0151, -0.0047, 0.0, 45.6, -0.05)" gradientUnits="userSpaceOnUse" id="gradient8" spreadMethod="pad" x1="-819.2" x2="819.2">
      <stop offset="0.0" stop-color="#ff8a00"/>
      <stop offset="1.0" stop-color="#e60012"/>
    </linearGradient>
    <linearGradient gradientTransform="matrix(0.0, 0.0155, -0.0154, 0.0, 66.85, -0.8)" gradientUnits="userSpaceOnUse" id="gradient9" spreadMethod="pad" x1="-819.2" x2="819.2">
      <stop offset="0.0" stop-color="#ff8a00"/>
      <stop offset="1.0" stop-color="#e60012"/>
    </linearGradient>
    <linearGradient gradientTransform="matrix(0.0, 0.0155, -0.0154, 0.0, 6.25, -0.8)" gradientUnits="userSpaceOnUse" id="gradient10" spreadMethod="pad" x1="-819.2" x2="819.2">
      <stop offset="0.0" stop-color="#ff8a00"/>
      <stop offset="1.0" stop-color="#e60012"/>
    </linearGradient>
    <linearGradient gradientTransform="matrix(0.0, 0.0155, -0.0154, 0.0, 95.95, -0.8)" gradientUnits="userSpaceOnUse" id="gradient11" spreadMethod="pad" x1="-819.2" x2="819.2">
      <stop offset="0.0" stop-color="#ff8a00"/>
      <stop offset="1.0" stop-color="#e60012"/>
    </linearGradient>
  </defs>
</svg>
