<?xml version="1.0" encoding="UTF-8" standalone="no"?>
<svg xmlns:xlink="http://www.w3.org/1999/xlink" height="24.85px" width="44.2px" xmlns="http://www.w3.org/2000/svg">
  <g transform="matrix(1.0, 0.0, 0.0, 1.0, -3.05, -1.75)">
    <path d="M45.15 22.2 Q48.0 24.6 46.95 25.8 45.9 27.0 43.4 26.35 L6.9 11.85 Q1.55 9.0 3.65 4.45 5.55 -0.15 11.8 3.1 L45.15 22.2 M46.15 24.75 Q45.75 24.0 44.55 23.05 L11.3 4.0 11.35 4.0 Q8.6 2.55 6.8 2.8 5.3 3.1 4.6 4.85 L4.55 4.9 Q2.9 8.6 7.3 10.95 L43.65 25.4 46.2 25.15 46.15 24.75" fill="#cc0000" fill-rule="evenodd" stroke="none"/>
    <path d="M46.15 24.75 L46.2 25.15 43.65 25.4 7.3 10.95 Q2.9 8.6 4.55 4.9 L4.6 4.85 Q5.3 3.1 6.8 2.8 8.6 2.55 11.35 4.0 L11.3 4.0 44.55 23.05 Q45.75 24.0 46.15 24.75 M43.9 24.4 L44.75 24.55 43.95 23.85 10.8 4.85 10.7 4.75 Q8.4 3.65 6.95 3.8 L7.0 3.8 Q6.0 4.0 5.5 5.2 L5.45 5.3 5.5 5.3 Q4.3 8.15 7.65 10.0 L43.9 24.4" fill="#ffffff" fill-rule="evenodd" stroke="none"/>
    <path d="M43.9 24.4 L7.65 10.0 Q4.3 8.15 5.5 5.3 L5.45 5.3 5.5 5.2 Q6.0 4.0 7.0 3.8 L6.95 3.8 Q8.4 3.65 10.7 4.75 L10.8 4.85 43.95 23.85 44.75 24.55 43.9 24.4" fill="#0099cc" fill-rule="evenodd" stroke="none"/>
  </g>
</svg>
