<?xml version="1.0" encoding="UTF-8" standalone="no"?>
<svg xmlns:xlink="http://www.w3.org/1999/xlink" height="140.0px" width="241.0px" xmlns="http://www.w3.org/2000/svg">
  <g transform="matrix(1.0, 0.0, 0.0, 1.0, 120.5, 70.0)">
    <path d="M118.25 -67.75 Q119.95 -66.0 120.0 -63.5 L120.0 63.5 119.7 65.45 Q119.25 66.75 118.25 67.75 116.5 69.5 114.0 69.5 L-114.0 69.5 Q-116.5 69.5 -118.25 67.75 -119.3 66.75 -119.7 65.45 L-120.0 63.5 -120.0 -63.5 Q-120.0 -66.0 -118.25 -67.75 -116.5 -69.5 -114.0 -69.5 L114.0 -69.5 Q116.5 -69.5 118.25 -67.75" fill="#ffffff" fill-opacity="0.2" fill-rule="evenodd" stroke="none"/>
    <path d="M114.0 -69.5 L-114.0 -69.5 Q-116.5 -69.5 -118.25 -67.75 -120.0 -66.0 -120.0 -63.5 L-120.0 63.5 -119.7 65.45 Q-119.3 66.75 -118.25 67.75 -116.5 69.5 -114.0 69.5 L114.0 69.5 Q116.5 69.5 118.25 67.75 119.25 66.75 119.7 65.45 L120.0 63.5 120.0 -63.5 Q119.95 -66.0 118.25 -67.75 116.5 -69.5 114.0 -69.5 Z" fill="none" stroke="#000000" stroke-linecap="round" stroke-linejoin="round" stroke-opacity="0.2" stroke-width="1.0"/>
    <path d="M-106.4 -62.75 L106.4 -62.75 106.4 63.75 -106.4 63.75 -106.4 -62.75 M101.4 -57.75 L-101.4 -57.75 -101.4 58.75 101.4 58.75 101.4 -57.75" fill="#333366" fill-rule="evenodd" stroke="none"/>
    <path d="M-106.4 -62.75 L-106.4 63.75 106.4 63.75 106.4 -62.75 -106.4 -62.75 M-108.4 -64.75 L108.4 -64.75 108.4 65.75 -108.4 65.75 -108.4 -64.75 M101.4 -57.75 L101.4 58.75 -101.4 58.75 -101.4 -57.75 101.4 -57.75" fill="#ffffff" fill-rule="evenodd" stroke="none"/>
    <path d="M3.8 -40.5 L3.55 -41.4 2.8 -41.6 2.1 -41.4 Q1.8 -41.15 1.8 -40.5 L1.8 -37.25 Q1.8 -36.6 2.1 -36.35 2.35 -36.1 2.8 -36.15 3.25 -36.1 3.55 -36.35 L3.8 -37.25 3.8 -40.5 M2.8 -42.95 L4.1 -42.7 Q4.7 -42.45 5.0 -41.85 L5.3 -40.3 5.3 -37.45 5.0 -35.9 Q4.7 -35.3 4.1 -35.05 L2.8 -34.8 1.5 -35.05 0.6 -35.9 Q0.3 -36.5 0.3 -37.45 L0.3 -40.3 Q0.3 -41.25 0.6 -41.85 L1.5 -42.7 2.8 -42.95 M18.8 -41.4 L18.05 -41.6 17.35 -41.4 Q17.05 -41.15 17.05 -40.5 L17.05 -37.25 Q17.05 -36.6 17.35 -36.35 17.6 -36.1 18.05 -36.15 18.5 -36.1 18.8 -36.35 L19.05 -37.25 19.05 -40.5 18.8 -41.4 M12.95 -40.5 L12.7 -41.4 11.95 -41.6 11.25 -41.4 Q10.95 -41.15 10.95 -40.5 L10.95 -37.25 Q10.95 -36.6 11.25 -36.35 11.5 -36.1 11.95 -36.15 12.4 -36.1 12.7 -36.35 L12.95 -37.25 12.95 -37.8 14.45 -37.8 14.45 -37.45 14.15 -35.9 Q13.85 -35.3 13.25 -35.05 L11.95 -34.8 10.65 -35.05 Q10.1 -35.3 9.75 -35.9 9.45 -36.5 9.45 -37.45 L9.45 -40.3 Q9.45 -41.25 9.75 -41.85 L10.65 -42.7 11.95 -42.95 13.25 -42.7 14.15 -41.85 14.45 -40.3 14.45 -40.25 12.95 -40.25 12.95 -40.5 M20.25 -41.85 L20.55 -40.3 20.55 -37.45 20.25 -35.9 Q19.95 -35.3 19.35 -35.05 L18.05 -34.8 16.75 -35.05 15.85 -35.9 Q15.55 -36.5 15.55 -37.45 L15.55 -40.3 Q15.55 -41.25 15.85 -41.85 L16.75 -42.7 18.05 -42.95 19.35 -42.7 Q19.95 -42.45 20.25 -41.85 M21.85 -42.85 L24.0 -42.85 25.35 -37.65 25.4 -37.65 26.75 -42.85 28.9 -42.85 28.9 -34.9 27.6 -34.9 27.6 -41.15 27.55 -41.15 25.95 -34.9 24.8 -34.9 23.2 -41.15 23.15 -41.15 23.15 -34.9 21.85 -34.9 21.85 -42.85 M39.8 -40.5 L39.55 -41.4 38.8 -41.6 38.1 -41.4 Q37.8 -41.15 37.8 -40.5 L37.8 -37.25 Q37.8 -36.6 38.1 -36.35 38.35 -36.1 38.8 -36.15 39.25 -36.1 39.55 -36.35 L39.8 -37.25 39.8 -40.5 M38.8 -42.95 L40.1 -42.7 41.0 -41.85 41.3 -40.3 41.3 -37.45 41.0 -35.9 Q40.7 -35.3 40.1 -35.05 L38.8 -34.8 37.5 -35.05 Q36.95 -35.3 36.6 -35.9 36.3 -36.5 36.3 -37.45 L36.3 -40.3 Q36.3 -41.25 36.6 -41.85 L37.5 -42.7 38.8 -42.95 M32.75 -41.6 L31.95 -41.6 31.95 -39.35 32.75 -39.35 Q33.85 -39.35 33.85 -40.45 33.85 -41.6 32.75 -41.6 M34.7 -42.2 Q35.4 -41.6 35.4 -40.45 35.4 -39.35 34.7 -38.7 34.0 -38.1 32.6 -38.1 L31.95 -38.1 31.95 -34.9 30.4 -34.9 30.4 -42.85 32.6 -42.85 Q34.0 -42.85 34.7 -42.2 M42.6 -42.85 L44.3 -42.85 46.4 -38.15 46.4 -42.85 47.8 -42.85 47.8 -34.9 46.35 -34.9 44.05 -40.05 44.0 -40.05 44.0 -34.9 42.6 -34.9 42.6 -42.85 M56.5 -42.85 L58.6 -38.15 58.6 -42.85 60.0 -42.85 60.0 -34.9 58.55 -34.9 56.25 -40.05 56.2 -40.05 56.2 -34.9 54.8 -34.9 54.8 -42.85 56.5 -42.85 M52.75 -38.35 L50.75 -38.35 50.75 -36.25 53.5 -36.25 53.5 -34.9 49.25 -34.9 49.25 -42.85 53.4 -42.85 53.4 -41.5 50.75 -41.5 50.75 -39.65 52.75 -39.65 52.75 -38.35 M60.95 -42.85 L66.05 -42.85 66.05 -41.5 64.25 -41.5 64.25 -34.9 62.75 -34.9 62.75 -41.5 60.95 -41.5 60.95 -42.85 M72.65 -40.9 L74.05 -40.9 72.45 -34.9 71.05 -34.9 69.45 -40.9 70.8 -40.9 71.75 -37.05 72.65 -40.9 M76.95 -42.5 L77.3 -42.95 78.15 -42.95 78.15 -34.9 76.8 -34.9 76.8 -40.95 75.55 -40.95 75.55 -41.85 76.45 -42.1 76.95 -42.5 M82.6 -34.9 L81.05 -34.9 81.05 -36.45 82.6 -36.45 82.6 -34.9 M87.15 -41.6 L83.7 -41.6 83.7 -42.85 88.7 -42.85 88.7 -42.1 86.55 -34.9 84.95 -34.9 87.15 -41.6 M-87.85 -41.15 L-87.9 -41.15 -87.9 -34.9 -89.2 -34.9 -89.2 -42.85 -87.05 -42.85 -85.7 -37.65 -85.65 -37.65 -84.3 -42.85 -82.15 -42.85 -82.15 -34.9 -83.45 -34.9 -83.45 -41.15 -83.5 -41.15 -85.1 -34.9 -86.25 -34.9 -87.85 -41.15 M-69.35 -42.85 L-69.35 -34.9 -70.9 -34.9 -70.9 -42.85 -69.35 -42.85 M-76.15 -40.05 L-76.2 -40.05 -76.2 -34.9 -77.6 -34.9 -77.6 -42.85 -75.9 -42.85 -73.8 -38.15 -73.8 -42.85 -72.4 -42.85 -72.4 -34.9 -73.85 -34.9 -76.15 -40.05 M-80.65 -42.85 L-79.1 -42.85 -79.1 -34.9 -80.65 -34.9 -80.65 -42.85 M-66.55 -40.5 L-66.55 -37.25 -66.25 -36.35 Q-66.0 -36.1 -65.55 -36.15 -65.1 -36.1 -64.8 -36.35 -64.55 -36.6 -64.55 -37.25 L-64.55 -37.8 -63.05 -37.8 -63.05 -37.45 Q-63.05 -36.5 -63.35 -35.9 -63.65 -35.3 -64.25 -35.05 L-65.55 -34.8 -66.85 -35.05 Q-67.4 -35.3 -67.75 -35.9 L-68.05 -37.45 -68.05 -40.3 -67.75 -41.85 -66.85 -42.7 -65.55 -42.95 -64.25 -42.7 Q-63.65 -42.45 -63.35 -41.85 -63.05 -41.25 -63.05 -40.3 L-63.05 -40.25 -64.55 -40.25 -64.55 -40.5 Q-64.55 -41.15 -64.8 -41.4 L-65.55 -41.6 -66.25 -41.4 -66.55 -40.5 M-47.7 -36.45 L-46.15 -36.45 -46.15 -34.9 -47.7 -34.9 -47.7 -36.45 M-57.85 -36.25 L-57.85 -34.9 -61.8 -34.9 -61.8 -42.85 -60.3 -42.85 -60.3 -36.25 -57.85 -36.25 M-51.45 -41.6 L-52.25 -41.6 -52.25 -39.35 -51.45 -39.35 Q-50.35 -39.35 -50.35 -40.45 -50.35 -41.6 -51.45 -41.6 M-56.85 -42.85 L-55.3 -42.85 -55.3 -34.9 -56.85 -34.9 -56.85 -42.85 M-41.6 -41.4 L-42.35 -41.6 -43.05 -41.4 Q-43.35 -41.15 -43.35 -40.5 L-43.35 -37.25 Q-43.35 -36.6 -43.05 -36.35 -42.8 -36.1 -42.35 -36.15 -41.9 -36.1 -41.6 -36.35 -41.35 -36.6 -41.35 -37.25 L-41.35 -37.8 -39.85 -37.8 -39.85 -37.45 Q-39.85 -36.5 -40.15 -35.9 -40.45 -35.3 -41.05 -35.05 L-42.35 -34.8 -43.65 -35.05 Q-44.2 -35.3 -44.55 -35.9 L-44.85 -37.45 -44.85 -40.3 -44.55 -41.85 -43.65 -42.7 -42.35 -42.95 -41.05 -42.7 Q-40.45 -42.45 -40.15 -41.85 -39.85 -41.25 -39.85 -40.3 L-39.85 -40.25 -41.35 -40.25 -41.35 -40.5 Q-41.35 -41.15 -41.6 -41.4 M-49.5 -42.2 Q-48.8 -41.6 -48.8 -40.45 -48.8 -39.35 -49.5 -38.7 -50.2 -38.1 -51.6 -38.1 L-52.25 -38.1 -52.25 -34.9 -53.8 -34.9 -53.8 -42.85 -51.6 -42.85 Q-50.2 -42.85 -49.5 -42.2 M-36.95 -41.4 L-37.25 -40.5 -37.25 -37.25 -36.95 -36.35 Q-36.7 -36.1 -36.25 -36.15 -35.8 -36.1 -35.5 -36.35 -35.25 -36.6 -35.25 -37.25 L-35.25 -40.5 Q-35.25 -41.15 -35.5 -41.4 L-36.25 -41.6 -36.95 -41.4 M-37.55 -42.7 L-36.25 -42.95 -34.95 -42.7 Q-34.35 -42.45 -34.05 -41.85 -33.75 -41.25 -33.75 -40.3 L-33.75 -37.45 Q-33.75 -36.5 -34.05 -35.9 -34.35 -35.3 -34.95 -35.05 L-36.25 -34.8 -37.55 -35.05 Q-38.1 -35.3 -38.45 -35.9 L-38.75 -37.45 -38.75 -40.3 -38.45 -41.85 -37.55 -42.7 M-26.7 -41.15 L-26.75 -41.15 -28.35 -34.9 -29.5 -34.9 -31.1 -41.15 -31.15 -41.15 -31.15 -34.9 -32.45 -34.9 -32.45 -42.85 -30.3 -42.85 -28.95 -37.65 -28.9 -37.65 -27.55 -42.85 -25.4 -42.85 -25.4 -34.9 -26.7 -34.9 -26.7 -41.15 M-19.3 -42.85 L-19.3 -34.9 -20.85 -34.9 -20.85 -42.85 -19.3 -42.85 M-16.35 -40.05 L-16.4 -40.05 -16.4 -34.9 -17.8 -34.9 -17.8 -42.85 -16.1 -42.85 -14.0 -38.15 -14.0 -42.85 -12.6 -42.85 -12.6 -34.9 -14.05 -34.9 -16.35 -40.05 M-3.35 -41.6 L-4.15 -41.6 -4.15 -39.4 -3.35 -39.4 Q-2.85 -39.4 -2.55 -39.65 -2.3 -39.9 -2.3 -40.5 L-2.55 -41.35 -3.35 -41.6 M-1.45 -42.2 Q-0.75 -41.6 -0.75 -40.45 -0.75 -39.7 -1.05 -39.2 -1.35 -38.7 -1.95 -38.45 L-0.45 -34.9 -2.1 -34.9 -3.4 -38.15 -4.15 -38.15 -4.15 -34.9 -5.65 -34.9 -5.65 -42.85 -3.45 -42.85 Q-2.1 -42.85 -1.45 -42.2 M-6.55 -42.85 L-6.55 -41.5 -8.35 -41.5 -8.35 -34.9 -9.85 -34.9 -9.85 -41.5 -11.65 -41.5 -11.65 -42.85 -6.55 -42.85" fill="#333366" fill-rule="evenodd" stroke="none"/>
    <path d="M39.1 -6.1 L39.1 -5.4 39.85 -5.95 40.65 -6.2 41.6 -5.85 Q41.95 -5.5 41.95 -4.65 L41.95 -0.1 40.55 -0.1 40.55 -4.5 40.45 -4.95 40.05 -5.15 39.6 -5.0 39.15 -4.6 39.15 -0.1 37.75 -0.1 37.75 -6.1 39.1 -6.1 M35.0 -1.6 L35.0 -3.05 34.2 -2.7 33.6 -2.25 33.35 -1.65 Q33.35 -1.35 33.5 -1.2 33.65 -1.05 33.95 -1.05 L34.5 -1.2 35.0 -1.6 M33.45 -3.35 L35.0 -3.9 35.0 -4.35 34.8 -4.9 34.3 -5.05 33.75 -4.85 33.5 -4.35 32.15 -4.35 Q32.2 -5.0 32.5 -5.4 L33.3 -6.0 34.35 -6.2 Q35.45 -6.15 35.9 -5.7 36.4 -5.2 36.4 -4.4 L36.4 -0.6 36.4 -0.35 36.45 -0.1 35.1 -0.1 35.05 -0.35 35.0 -0.7 34.25 -0.2 33.35 0.0 Q32.7 0.0 32.35 -0.35 31.95 -0.7 31.95 -1.45 31.95 -2.1 32.35 -2.55 L33.45 -3.35 M23.6 -4.05 Q23.6 -4.75 23.9 -5.2 L24.65 -5.95 25.8 -6.2 26.95 -5.95 27.7 -5.25 28.0 -4.15 28.0 -2.75 25.0 -2.75 25.0 -1.95 25.2 -1.3 25.8 -1.1 Q26.25 -1.15 26.45 -1.35 L26.6 -1.95 28.0 -1.95 Q27.95 -1.0 27.4 -0.5 26.85 0.0 25.8 0.0 L24.65 -0.25 Q24.15 -0.5 23.9 -1.0 23.6 -1.45 23.6 -2.1 L23.6 -4.05 M25.0 -4.2 L25.0 -3.9 26.6 -3.9 26.6 -4.2 26.4 -4.85 25.8 -5.05 25.2 -4.85 25.0 -4.2 M27.8 -19.9 L26.9 -19.9 26.9 -16.85 Q26.9 -16.6 27.1 -16.5 L27.55 -16.4 27.65 -16.4 27.8 -16.4 27.8 -15.25 27.4 -15.2 27.0 -15.2 Q26.35 -15.2 25.95 -15.45 25.55 -15.75 25.5 -16.4 L25.5 -19.9 24.95 -19.9 24.95 -21.0 25.5 -21.0 25.5 -22.65 26.9 -22.65 26.9 -21.0 27.8 -21.0 27.8 -19.9 M30.9 -20.35 L30.45 -20.2 30.0 -19.8 30.0 -15.3 28.6 -15.3 28.6 -23.25 30.0 -23.25 30.0 -20.6 30.7 -21.15 31.5 -21.4 Q32.15 -21.4 32.45 -21.05 32.8 -20.7 32.8 -19.85 L32.8 -15.3 31.4 -15.3 31.4 -19.7 31.3 -20.15 30.9 -20.35 M37.0 -19.4 L36.8 -20.05 36.2 -20.25 35.6 -20.05 35.4 -19.4 35.4 -19.1 37.0 -19.1 37.0 -19.4 M38.1 -20.45 L38.4 -19.35 38.4 -17.95 35.4 -17.95 35.4 -17.15 35.6 -16.5 36.2 -16.3 Q36.65 -16.35 36.85 -16.55 L37.0 -17.15 38.4 -17.15 Q38.35 -16.2 37.8 -15.7 37.25 -15.2 36.2 -15.2 L35.05 -15.45 Q34.55 -15.7 34.3 -16.2 34.0 -16.65 34.0 -17.3 L34.0 -19.25 Q34.0 -19.95 34.3 -20.4 L35.05 -21.15 36.2 -21.4 37.35 -21.15 38.1 -20.45 M18.25 -5.05 L18.0 -5.15 Q17.75 -5.15 17.55 -4.95 L17.15 -4.6 17.15 -0.1 15.75 -0.1 15.75 -6.1 17.1 -6.1 17.1 -5.4 17.8 -5.95 18.6 -6.2 19.25 -5.95 19.65 -5.3 20.3 -5.9 21.1 -6.2 Q21.75 -6.2 22.05 -5.8 22.4 -5.4 22.4 -4.6 L22.4 -0.1 21.0 -0.1 21.0 -4.65 20.9 -5.05 20.65 -5.15 20.15 -4.95 19.75 -4.6 19.75 -0.1 18.4 -0.1 18.4 -4.65 18.25 -5.05 M11.95 -1.05 L12.5 -1.2 13.0 -1.6 13.0 -3.05 12.2 -2.7 11.6 -2.25 11.35 -1.65 Q11.35 -1.35 11.5 -1.2 11.65 -1.05 11.95 -1.05 M13.9 -5.7 Q14.4 -5.2 14.4 -4.4 L14.4 -0.6 14.4 -0.35 14.45 -0.1 13.1 -0.1 13.05 -0.35 13.0 -0.7 12.25 -0.2 11.35 0.0 Q10.7 0.0 10.35 -0.35 9.95 -0.7 9.95 -1.45 9.95 -2.1 10.35 -2.55 L11.45 -3.35 13.0 -3.9 13.0 -4.35 12.8 -4.9 12.3 -5.05 11.75 -4.85 11.5 -4.35 10.15 -4.35 10.5 -5.4 11.3 -6.0 12.35 -6.2 Q13.45 -6.15 13.9 -5.7 M7.95 -5.3 L8.0 -5.3 8.55 -5.95 9.4 -6.2 9.4 -4.7 9.05 -4.8 8.7 -4.85 8.15 -4.65 8.0 -4.2 8.0 -0.1 6.6 -0.1 6.6 -6.1 7.95 -6.1 7.95 -5.3 M5.85 -8.1 L5.85 -6.95 5.45 -6.95 5.1 -6.8 5.0 -6.45 5.0 -5.8 5.85 -5.8 5.85 -4.7 5.0 -4.7 5.0 -0.1 3.6 -0.1 3.6 -4.7 3.0 -4.7 3.0 -5.8 3.6 -5.8 3.6 -6.4 3.8 -7.45 4.35 -8.0 5.2 -8.15 5.55 -8.15 5.85 -8.1 M2.2 -20.35 L1.75 -20.2 1.3 -19.8 1.3 -15.3 -0.1 -15.3 -0.1 -21.3 1.25 -21.3 1.25 -20.6 2.0 -21.15 2.8 -21.4 3.75 -21.05 Q4.1 -20.7 4.1 -19.85 L4.1 -15.3 2.7 -15.3 2.7 -19.7 2.6 -20.15 2.2 -20.35 M5.35 -21.0 L5.35 -22.65 6.75 -22.65 6.75 -21.0 7.65 -21.0 7.65 -19.9 6.75 -19.9 6.75 -16.85 6.95 -16.5 7.4 -16.4 7.5 -16.4 7.65 -16.4 7.65 -15.25 7.25 -15.2 6.85 -15.2 Q6.2 -15.2 5.8 -15.45 5.4 -15.75 5.35 -16.4 L5.35 -19.9 4.8 -19.9 4.8 -21.0 5.35 -21.0 M14.4 -19.5 L14.2 -20.0 13.6 -20.2 Q13.25 -20.2 13.0 -20.0 L12.8 -19.5 12.8 -17.1 13.0 -16.6 Q13.25 -16.4 13.6 -16.4 L14.2 -16.6 14.4 -17.1 14.4 -19.5 M19.3 -20.35 L18.85 -20.2 18.4 -19.8 18.4 -15.3 17.0 -15.3 17.0 -21.3 18.35 -21.3 18.35 -20.6 19.1 -21.15 19.9 -21.4 Q20.55 -21.4 20.85 -21.05 21.2 -20.7 21.2 -19.85 L21.2 -15.3 19.8 -15.3 19.8 -19.7 19.7 -20.15 19.3 -20.35 M15.2 -20.85 Q15.8 -20.3 15.8 -19.15 L15.8 -17.45 Q15.8 -16.3 15.2 -15.75 14.65 -15.2 13.6 -15.2 12.55 -15.2 12.0 -15.75 11.4 -16.3 11.4 -17.45 L11.4 -19.15 Q11.4 -20.3 12.0 -20.85 12.55 -21.4 13.6 -21.4 14.65 -21.4 15.2 -20.85 M73.8 -4.8 L73.45 -4.85 72.9 -4.65 72.75 -4.2 72.75 -0.1 71.35 -0.1 71.35 -6.1 72.7 -6.1 72.7 -5.3 72.75 -5.3 Q72.95 -5.75 73.3 -5.95 L74.15 -6.2 74.15 -4.7 73.8 -4.8 M68.75 -3.9 L68.75 -4.2 68.55 -4.85 67.95 -5.05 67.35 -4.85 67.15 -4.2 67.15 -3.9 68.75 -3.9 M65.75 -2.1 L65.75 -4.05 Q65.75 -4.75 66.05 -5.2 L66.8 -5.95 67.95 -6.2 69.1 -5.95 69.85 -5.25 70.15 -4.15 70.15 -2.75 67.15 -2.75 67.15 -1.95 Q67.15 -1.55 67.35 -1.3 L67.95 -1.1 68.6 -1.35 68.75 -1.95 70.15 -1.95 Q70.1 -1.0 69.55 -0.5 69.0 0.0 67.95 0.0 L66.8 -0.25 Q66.3 -0.5 66.05 -1.0 65.75 -1.45 65.75 -2.1 M65.55 -18.25 L64.75 -17.9 64.15 -17.45 63.9 -16.85 Q63.9 -16.55 64.05 -16.4 64.2 -16.25 64.5 -16.25 L65.05 -16.4 65.55 -16.8 65.55 -18.25 M66.45 -20.9 Q66.95 -20.4 66.95 -19.6 L66.95 -15.8 66.95 -15.55 67.0 -15.3 65.65 -15.3 65.6 -15.55 65.55 -15.9 64.8 -15.4 63.9 -15.2 Q63.25 -15.2 62.9 -15.55 62.5 -15.9 62.5 -16.65 62.5 -17.3 62.9 -17.75 63.3 -18.25 64.0 -18.55 L65.55 -19.1 65.55 -19.55 65.35 -20.1 64.85 -20.25 64.3 -20.05 64.05 -19.55 62.7 -19.55 Q62.75 -20.2 63.05 -20.6 L63.85 -21.2 64.9 -21.4 Q66.0 -21.35 66.45 -20.9 M71.0 -21.3 L72.4 -21.3 70.8 -15.3 70.3 -14.05 69.6 -13.4 68.45 -13.2 68.25 -13.2 68.0 -13.2 68.0 -14.4 68.2 -14.4 68.4 -14.4 68.95 -14.55 69.3 -14.85 69.4 -15.2 69.35 -15.75 69.15 -16.45 67.75 -21.3 69.2 -21.3 70.1 -17.3 70.15 -17.3 71.0 -21.3 M80.05 -21.3 L80.05 -20.5 80.1 -20.5 80.65 -21.15 81.5 -21.4 81.5 -19.9 81.15 -20.0 80.8 -20.05 Q80.45 -20.05 80.25 -19.85 L80.1 -19.4 80.1 -15.3 78.7 -15.3 78.7 -21.3 80.05 -21.3 M76.1 -19.1 L76.1 -19.4 75.9 -20.05 75.3 -20.25 74.7 -20.05 74.5 -19.4 74.5 -19.1 76.1 -19.1 M76.45 -21.15 L77.2 -20.45 77.5 -19.35 77.5 -17.95 74.5 -17.95 74.5 -17.15 Q74.5 -16.75 74.7 -16.5 L75.3 -16.3 Q75.75 -16.35 75.95 -16.55 L76.1 -17.15 77.5 -17.15 Q77.45 -16.2 76.9 -15.7 76.35 -15.2 75.3 -15.2 L74.15 -15.45 Q73.65 -15.7 73.4 -16.2 73.1 -16.65 73.1 -17.3 L73.1 -19.25 Q73.1 -19.95 73.4 -20.4 L74.15 -21.15 75.3 -21.4 76.45 -21.15 M60.35 -0.1 L60.35 -8.05 61.75 -8.05 61.75 -5.4 62.45 -5.95 63.25 -6.2 Q63.9 -6.2 64.2 -5.85 64.55 -5.5 64.55 -4.65 L64.55 -0.1 63.15 -0.1 63.15 -4.5 63.05 -4.95 62.65 -5.15 62.2 -5.0 61.75 -4.6 61.75 -0.1 60.35 -0.1 M51.7 -3.95 Q51.7 -5.1 52.3 -5.65 52.85 -6.2 53.9 -6.2 54.95 -6.2 55.5 -5.65 56.1 -5.1 56.1 -3.95 L56.1 -2.25 Q56.1 -1.1 55.5 -0.55 54.95 0.0 53.9 0.0 52.85 0.0 52.3 -0.55 51.7 -1.1 51.7 -2.25 L51.7 -3.95 M54.7 -4.3 L54.5 -4.8 53.9 -5.0 53.3 -4.8 53.1 -4.3 53.1 -1.9 53.3 -1.4 53.9 -1.2 54.5 -1.4 54.7 -1.9 54.7 -4.3 M57.25 -7.45 L58.65 -7.45 58.65 -5.8 59.55 -5.8 59.55 -4.7 58.65 -4.7 58.65 -1.65 Q58.65 -1.4 58.85 -1.3 L59.3 -1.2 59.4 -1.2 59.55 -1.2 59.55 -0.05 59.15 0.0 58.75 0.0 Q58.1 0.0 57.7 -0.25 57.3 -0.55 57.25 -1.2 L57.25 -4.7 56.7 -4.7 56.7 -5.8 57.25 -5.8 57.25 -7.45 M45.2 -5.15 L44.85 -5.05 44.6 -4.6 44.55 -3.75 44.55 -2.45 44.6 -1.55 44.85 -1.15 45.2 -1.05 45.65 -1.15 46.05 -1.45 46.05 -4.7 45.65 -5.05 45.2 -5.15 M46.05 -8.05 L47.45 -8.05 47.45 -0.1 46.15 -0.1 46.15 -0.85 45.8 -0.45 45.25 -0.15 44.65 0.0 Q43.85 0.0 43.5 -0.6 43.15 -1.2 43.15 -2.35 L43.15 -3.8 Q43.15 -4.95 43.5 -5.6 43.85 -6.2 44.65 -6.2 L45.25 -6.05 46.05 -5.55 46.05 -8.05 M42.05 -19.9 L42.05 -21.0 42.6 -21.0 42.6 -22.65 44.0 -22.65 44.0 -21.0 44.9 -21.0 44.9 -19.9 44.0 -19.9 44.0 -16.85 44.2 -16.5 44.65 -16.4 44.75 -16.4 44.9 -16.4 44.9 -15.25 44.5 -15.2 44.1 -15.2 43.05 -15.45 Q42.65 -15.75 42.6 -16.4 L42.6 -19.9 42.05 -19.9 M48.6 -19.5 L48.4 -20.0 47.8 -20.2 Q47.45 -20.2 47.2 -20.0 L47.0 -19.5 47.0 -17.1 47.2 -16.6 Q47.45 -16.4 47.8 -16.4 L48.4 -16.6 48.6 -17.1 48.6 -19.5 M49.4 -20.85 Q50.0 -20.3 50.0 -19.15 L50.0 -17.45 Q50.0 -16.3 49.4 -15.75 48.85 -15.2 47.8 -15.2 46.75 -15.2 46.2 -15.75 45.6 -16.3 45.6 -17.45 L45.6 -19.15 Q45.6 -20.3 46.2 -20.85 46.75 -21.4 47.8 -21.4 48.85 -21.4 49.4 -20.85 M59.95 -15.3 L59.95 -23.25 61.3 -23.25 61.3 -15.3 59.95 -15.3 M53.0 -20.25 L52.6 -19.9 52.6 -16.65 53.0 -16.35 53.45 -16.25 53.8 -16.35 54.05 -16.75 54.1 -17.65 54.1 -18.95 54.05 -19.8 53.8 -20.25 53.45 -20.35 53.0 -20.25 M51.2 -21.3 L52.5 -21.3 52.5 -20.55 52.85 -20.95 53.4 -21.25 54.0 -21.4 Q54.8 -21.4 55.15 -20.8 55.5 -20.15 55.5 -19.0 L55.5 -17.55 Q55.5 -16.4 55.15 -15.8 54.8 -15.2 54.0 -15.2 L53.4 -15.35 52.6 -15.85 52.6 -13.2 51.2 -13.2 51.2 -21.3 M30.4 39.5 L31.75 39.5 31.75 40.3 31.8 40.3 Q32.0 39.85 32.35 39.65 32.7 39.4 33.2 39.4 L33.2 40.9 32.85 40.8 32.5 40.75 31.95 40.95 Q31.8 41.15 31.8 41.4 L31.8 45.5 30.4 45.5 30.4 39.5 M40.0 43.15 L40.0 41.85 39.95 41.0 39.7 40.55 39.35 40.45 38.9 40.55 38.5 40.9 38.5 44.15 38.9 44.45 39.35 44.55 39.7 44.45 39.95 44.05 40.0 43.15 M20.9 40.8 L20.7 41.3 20.7 43.7 20.9 44.2 21.5 44.4 22.1 44.2 22.3 43.7 22.3 41.3 22.1 40.8 21.5 40.6 20.9 40.8 M27.7 39.5 L29.1 39.5 29.1 45.5 27.75 45.5 27.75 44.8 27.0 45.4 26.2 45.6 Q25.55 45.6 25.25 45.25 24.9 44.9 24.9 44.05 L24.9 39.5 26.3 39.5 26.3 43.9 26.4 44.4 26.8 44.55 27.25 44.4 27.7 44.05 27.7 39.5 M26.15 25.35 L25.75 25.7 25.75 28.95 26.15 29.25 26.6 29.35 26.95 29.25 27.2 28.85 27.25 27.95 27.25 26.65 27.2 25.8 26.95 25.35 26.6 25.25 26.15 25.35 M31.35 25.6 L31.15 26.1 31.15 28.5 Q31.15 28.85 31.35 29.0 L31.95 29.2 32.55 29.0 32.75 28.5 32.75 26.1 32.55 25.6 31.95 25.4 31.35 25.6 M33.55 24.75 Q34.15 25.3 34.15 26.45 L34.15 28.15 Q34.15 29.3 33.55 29.85 33.0 30.4 31.95 30.4 30.9 30.4 30.35 29.85 29.75 29.3 29.75 28.15 L29.75 26.45 Q29.75 25.3 30.35 24.75 30.9 24.2 31.95 24.2 33.0 24.2 33.55 24.75 M17.2 39.5 L18.6 39.5 17.0 45.5 16.5 46.75 15.8 47.4 14.65 47.6 14.45 47.6 14.2 47.6 14.2 46.4 14.4 46.4 14.6 46.4 15.15 46.25 15.5 45.95 15.6 45.6 15.55 45.05 15.35 44.35 13.95 39.5 15.4 39.5 16.3 43.5 16.35 43.5 17.2 39.5 M19.3 41.65 Q19.3 40.5 19.9 39.95 20.45 39.4 21.5 39.4 22.55 39.4 23.1 39.95 23.7 40.5 23.7 41.65 L23.7 43.35 Q23.7 44.5 23.1 45.05 22.55 45.6 21.5 45.6 20.45 45.6 19.9 45.05 19.3 44.5 19.3 43.35 L19.3 41.65 M3.35 41.3 L3.15 40.8 2.55 40.6 1.95 40.8 1.75 41.3 1.75 43.7 1.95 44.2 2.55 44.4 3.15 44.2 Q3.35 44.05 3.35 43.7 L3.35 41.3 M4.15 39.95 Q4.75 40.5 4.75 41.65 L4.75 43.35 Q4.75 44.5 4.15 45.05 3.6 45.6 2.55 45.6 1.5 45.6 0.95 45.05 0.35 44.5 0.35 43.35 L0.35 41.65 Q0.35 40.5 0.95 39.95 1.5 39.4 2.55 39.4 3.6 39.4 4.15 39.95 M8.85 39.4 Q9.5 39.4 9.8 39.75 10.15 40.1 10.15 40.95 L10.15 45.5 8.75 45.5 8.75 41.1 8.65 40.65 8.25 40.45 Q8.05 40.45 7.8 40.6 L7.35 41.0 7.35 45.5 5.95 45.5 5.95 39.5 7.3 39.5 7.3 40.2 8.05 39.65 8.85 39.4 M1.25 25.7 L0.1 26.15 -0.3 25.55 -0.85 25.35 Q-1.1 25.35 -1.25 25.5 L-1.4 25.85 -1.15 26.35 -0.45 26.7 0.35 27.15 Q0.75 27.35 1.0 27.7 L1.3 28.6 1.05 29.6 0.35 30.2 -0.7 30.4 -1.5 30.3 -2.25 29.8 -2.95 28.7 -1.7 28.35 -1.35 29.05 -0.7 29.3 -0.2 29.15 -0.05 28.75 Q-0.05 28.4 -0.3 28.2 L-1.0 27.85 -1.8 27.45 -2.45 26.85 -2.75 25.9 -2.45 24.95 Q-2.2 24.55 -1.75 24.4 L-0.85 24.2 Q-0.05 24.2 0.45 24.6 1.0 25.0 1.25 25.7 M14.0 24.75 Q14.6 25.3 14.6 26.45 L14.6 28.15 Q14.6 29.3 14.0 29.85 13.45 30.4 12.4 30.4 11.35 30.4 10.8 29.85 10.2 29.3 10.2 28.15 L10.2 26.45 Q10.2 25.3 10.8 24.75 11.35 24.2 12.4 24.2 13.45 24.2 14.0 24.75 M13.2 26.1 L13.0 25.6 12.4 25.4 Q12.05 25.4 11.8 25.6 L11.6 26.1 11.6 28.5 11.8 29.0 Q12.05 29.2 12.4 29.2 L13.0 29.0 13.2 28.5 13.2 26.1 M18.6 24.3 L20.0 24.3 20.0 30.3 18.65 30.3 18.65 29.6 17.9 30.2 17.1 30.4 Q16.45 30.4 16.15 30.05 15.8 29.7 15.8 28.85 L15.8 24.3 17.2 24.3 17.2 28.7 17.3 29.2 17.7 29.35 18.15 29.2 18.6 28.85 18.6 24.3 M8.1 24.3 L9.5 24.3 7.9 30.3 7.4 31.55 6.7 32.2 5.55 32.4 5.35 32.4 5.1 32.4 5.1 31.2 5.3 31.2 5.5 31.2 6.05 31.05 6.4 30.75 6.5 30.4 6.45 29.85 6.25 29.15 4.85 24.3 6.3 24.3 7.2 28.3 7.25 28.3 8.1 24.3 M2.6 10.2 L2.0 10.4 1.8 10.9 1.8 13.3 2.0 13.8 2.6 14.0 3.2 13.8 3.4 13.3 3.4 10.9 3.2 10.4 2.6 10.2 M2.6 9.0 Q3.65 9.0 4.2 9.55 4.8 10.1 4.8 11.25 L4.8 12.95 Q4.8 14.1 4.2 14.65 3.65 15.2 2.6 15.2 1.55 15.2 1.0 14.65 0.4 14.1 0.4 12.95 L0.4 11.25 Q0.4 10.1 1.0 9.55 1.55 9.0 2.6 9.0 M16.65 9.25 L17.45 9.0 Q18.1 9.0 18.4 9.35 18.75 9.7 18.75 10.55 L18.75 15.1 17.35 15.1 17.35 10.7 17.25 10.25 16.85 10.05 16.4 10.2 15.95 10.6 15.95 15.1 14.55 15.1 14.55 9.1 15.9 9.1 15.9 9.8 Q16.3 9.45 16.65 9.25 M11.15 10.2 L10.55 10.4 10.35 10.9 10.35 13.3 10.55 13.8 11.15 14.0 11.75 13.8 11.95 13.3 11.95 10.9 11.75 10.4 11.15 10.2 M12.75 9.55 Q13.35 10.1 13.35 11.25 L13.35 12.95 Q13.35 14.1 12.75 14.65 12.2 15.2 11.15 15.2 10.1 15.2 9.55 14.65 8.95 14.1 8.95 12.95 L8.95 11.25 Q8.95 10.1 9.55 9.55 10.1 9.0 11.15 9.0 12.2 9.0 12.75 9.55 M36.15 24.4 L37.05 24.2 Q37.85 24.2 38.35 24.6 38.9 25.0 39.15 25.7 L38.0 26.15 37.6 25.55 37.05 25.35 Q36.8 25.35 36.65 25.5 L36.5 25.85 36.75 26.35 37.45 26.7 38.25 27.15 38.9 27.7 39.2 28.6 38.95 29.6 38.25 30.2 37.2 30.4 36.4 30.3 35.65 29.8 34.95 28.7 36.2 28.35 Q36.3 28.8 36.55 29.05 L37.2 29.3 37.7 29.15 37.85 28.75 37.6 28.2 36.9 27.85 36.1 27.45 35.45 26.85 Q35.15 26.5 35.15 25.9 35.15 25.3 35.45 24.95 L36.15 24.4 M26.0 24.65 L26.55 24.35 27.15 24.2 Q27.95 24.2 28.3 24.8 28.65 25.45 28.65 26.6 L28.65 28.05 Q28.65 29.2 28.3 29.8 27.95 30.4 27.15 30.4 L26.55 30.25 25.75 29.75 25.75 32.4 24.35 32.4 24.35 24.3 25.65 24.3 25.65 25.05 26.0 24.65 M28.75 12.95 L28.5 13.55 Q28.5 13.85 28.65 14.0 L29.1 14.15 29.65 14.0 30.15 13.6 30.15 12.15 29.35 12.5 28.75 12.95 M22.45 9.1 L23.65 9.1 24.5 12.85 25.3 9.1 26.6 9.1 25.15 15.1 23.85 15.1 23.05 11.35 23.0 11.35 22.25 15.1 20.95 15.1 19.55 9.1 20.85 9.1 21.65 12.85 22.45 9.1 M37.9 10.6 L37.85 11.45 37.85 12.75 37.9 13.65 38.15 14.05 38.5 14.15 38.95 14.05 39.35 13.75 39.35 10.5 38.95 10.15 38.5 10.05 38.15 10.15 37.9 10.6 M34.25 9.1 L34.25 9.9 34.3 9.9 Q34.5 9.45 34.85 9.25 35.2 9.0 35.7 9.0 L35.7 10.5 35.35 10.4 35.0 10.35 Q34.65 10.35 34.45 10.55 34.3 10.75 34.3 11.0 L34.3 15.1 32.9 15.1 32.9 9.1 34.25 9.1 M31.05 9.5 Q31.55 10.0 31.55 10.8 L31.55 14.6 31.55 14.85 31.6 15.1 30.25 15.1 30.2 14.85 30.15 14.5 29.4 15.0 28.5 15.2 Q27.85 15.2 27.5 14.85 27.1 14.5 27.1 13.75 27.1 13.1 27.5 12.65 L28.6 11.85 30.15 11.3 30.15 10.85 29.95 10.3 29.45 10.15 28.9 10.35 Q28.65 10.55 28.65 10.85 L27.3 10.85 Q27.35 10.2 27.65 9.8 L28.45 9.2 29.5 9.0 Q30.6 9.05 31.05 9.5 M41.8 24.3 L41.8 30.3 40.45 30.3 40.45 24.3 41.8 24.3 M74.9 26.5 L74.9 26.2 74.7 25.55 74.1 25.35 73.5 25.55 73.3 26.2 73.3 26.5 74.9 26.5 M59.2 45.5 L59.2 43.95 60.75 43.95 60.75 45.5 59.2 45.5 M55.7 39.4 L56.85 39.65 57.6 40.35 57.9 41.45 57.9 42.85 54.9 42.85 54.9 43.65 55.1 44.3 55.7 44.5 56.35 44.25 56.5 43.65 57.9 43.65 Q57.85 44.6 57.3 45.1 56.75 45.6 55.7 45.6 L54.55 45.35 53.8 44.6 Q53.5 44.15 53.5 43.5 L53.5 41.55 Q53.5 40.85 53.8 40.4 54.05 39.9 54.55 39.65 L55.7 39.4 M56.5 41.7 L56.5 41.4 56.3 40.75 55.7 40.55 55.1 40.75 54.9 41.4 54.9 41.7 56.5 41.7 M49.3 45.75 L49.1 45.95 49.0 46.25 Q49.0 46.5 49.35 46.6 L50.3 46.7 51.05 46.55 51.3 46.2 51.25 46.0 50.8 45.9 49.3 45.75 M45.35 42.55 L44.55 42.9 43.95 43.35 Q43.7 43.65 43.7 43.95 L43.85 44.4 44.3 44.55 44.85 44.4 45.35 44.0 45.35 42.55 M41.4 41.8 L41.4 43.25 Q41.4 44.4 41.05 45.0 40.7 45.6 39.9 45.6 L39.3 45.45 38.5 44.95 38.5 47.6 37.1 47.6 37.1 39.5 38.4 39.5 38.4 40.25 38.75 39.85 Q39.0 39.65 39.3 39.55 L39.9 39.4 Q40.7 39.4 41.05 40.0 41.4 40.65 41.4 41.8 M46.25 39.9 Q46.75 40.4 46.75 41.2 L46.75 45.0 46.75 45.25 46.8 45.5 45.45 45.5 45.4 45.25 45.35 44.9 44.6 45.4 43.7 45.6 Q43.05 45.6 42.7 45.25 42.3 44.9 42.3 44.15 42.3 43.5 42.7 43.05 L43.8 42.25 45.35 41.7 45.35 41.25 Q45.35 40.85 45.15 40.7 L44.65 40.55 44.1 40.75 Q43.85 40.95 43.85 41.25 L42.5 41.25 Q42.55 40.6 42.85 40.2 L43.65 39.6 44.7 39.4 Q45.8 39.45 46.25 39.9 M49.95 40.55 L49.4 40.85 49.2 41.85 49.4 42.65 49.85 42.95 50.35 42.85 50.6 42.5 50.65 41.7 Q50.65 40.55 49.95 40.55 M48.7 39.7 Q49.15 39.4 49.95 39.4 L50.8 39.6 51.5 40.1 52.05 39.6 52.7 39.4 52.7 40.6 52.5 40.55 52.3 40.55 52.05 40.55 51.8 40.65 51.95 41.2 52.0 41.7 Q52.0 42.85 51.5 43.45 51.0 44.05 50.0 44.05 L49.7 44.05 49.4 44.0 49.25 44.15 49.15 44.35 49.4 44.6 50.05 44.65 50.9 44.7 51.75 44.85 52.4 45.25 52.65 46.1 52.3 46.95 51.4 47.45 50.0 47.6 48.3 47.3 Q47.7 47.05 47.7 46.5 47.7 46.3 47.85 46.15 L48.15 45.8 48.5 45.6 48.1 45.25 Q47.95 45.05 47.95 44.75 47.95 44.5 48.1 44.3 L48.4 44.0 48.8 43.75 48.1 42.9 47.9 41.65 48.1 40.5 Q48.25 40.0 48.7 39.7 M53.1 29.85 Q52.55 30.4 51.5 30.4 50.45 30.4 49.9 29.85 49.3 29.3 49.3 28.15 L49.3 26.45 Q49.3 25.3 49.9 24.75 50.45 24.2 51.5 24.2 52.55 24.2 53.1 24.75 53.7 25.3 53.7 26.45 L53.7 28.15 Q53.7 29.3 53.1 29.85 M50.9 25.6 L50.7 26.1 50.7 28.5 50.9 29.0 51.5 29.2 52.1 29.0 52.3 28.5 52.3 26.1 52.1 25.6 51.5 25.4 50.9 25.6 M40.75 7.15 L40.75 15.1 39.45 15.1 39.45 14.35 39.1 14.75 38.55 15.05 37.95 15.2 Q37.15 15.2 36.8 14.6 36.45 14.0 36.45 12.85 L36.45 11.4 Q36.45 10.25 36.8 9.6 37.15 9.0 37.95 9.0 L38.55 9.15 39.35 9.65 39.35 7.15 40.75 7.15 M57.8 24.2 Q58.45 24.2 58.75 24.55 59.1 24.9 59.1 25.75 L59.1 30.3 57.7 30.3 57.7 25.9 57.6 25.45 57.2 25.25 56.75 25.4 56.3 25.8 56.3 30.3 54.9 30.3 54.9 24.3 56.25 24.3 56.25 25.0 57.0 24.45 57.8 24.2 M47.9 23.3 L46.55 23.3 46.55 22.05 47.9 22.05 47.9 23.3 M46.55 24.3 L47.9 24.3 47.9 30.3 46.55 30.3 46.55 24.3 M42.7 24.6 L43.25 24.6 43.25 22.95 44.65 22.95 44.65 24.6 45.55 24.6 45.55 25.7 44.65 25.7 44.65 28.75 44.85 29.1 45.3 29.2 45.4 29.2 45.55 29.2 45.55 30.35 45.15 30.4 44.75 30.4 43.7 30.15 Q43.3 29.85 43.25 29.2 L43.25 25.7 42.7 25.7 42.7 24.6 M41.8 22.05 L41.8 23.3 40.45 23.3 40.45 22.05 41.8 22.05 M48.6 15.1 L47.05 15.1 47.05 13.55 48.6 13.55 48.6 15.1 M41.85 10.7 Q41.85 10.1 42.15 9.75 L42.85 9.2 43.75 9.0 Q44.55 9.0 45.05 9.4 L45.85 10.5 44.7 10.95 44.3 10.35 43.75 10.15 Q43.5 10.15 43.35 10.3 L43.2 10.65 43.45 11.15 44.15 11.5 44.95 11.95 45.6 12.5 45.9 13.4 45.65 14.4 44.95 15.0 43.9 15.2 43.1 15.1 42.35 14.6 41.65 13.5 42.9 13.15 Q43.0 13.6 43.25 13.85 L43.9 14.1 44.4 13.95 44.55 13.55 44.3 13.0 43.6 12.65 42.8 12.25 42.15 11.65 Q41.85 11.3 41.85 10.7 M74.1 24.2 L75.25 24.45 76.0 25.15 76.3 26.25 76.3 27.65 73.3 27.65 73.3 28.45 73.5 29.1 74.1 29.3 74.75 29.05 74.9 28.45 76.3 28.45 Q76.25 29.4 75.7 29.9 75.15 30.4 74.1 30.4 L72.95 30.15 72.2 29.4 Q71.9 28.95 71.9 28.3 L71.9 26.35 Q71.9 25.65 72.2 25.2 72.45 24.7 72.95 24.45 L74.1 24.2 M68.6 24.45 L69.4 24.2 Q70.05 24.2 70.35 24.55 70.7 24.9 70.7 25.75 L70.7 30.3 69.3 30.3 69.3 25.9 69.2 25.45 68.8 25.25 Q68.6 25.25 68.35 25.4 L67.9 25.8 67.9 30.3 66.5 30.3 66.5 22.35 67.9 22.35 67.9 25.0 Q68.25 24.65 68.6 24.45 M64.8 24.6 L65.7 24.6 65.7 25.7 64.8 25.7 64.8 28.75 65.0 29.1 65.45 29.2 65.55 29.2 65.7 29.2 65.7 30.35 65.3 30.4 64.9 30.4 63.85 30.15 Q63.45 29.85 63.4 29.2 L63.4 25.7 62.85 25.7 62.85 24.6 63.4 24.6 63.4 22.95 64.8 22.95 64.8 24.6 M89.1 -20.85 Q89.7 -20.3 89.7 -19.15 L89.7 -17.45 Q89.7 -16.3 89.1 -15.75 88.55 -15.2 87.5 -15.2 86.45 -15.2 85.9 -15.75 85.3 -16.3 85.3 -17.45 L85.3 -19.15 Q85.3 -20.3 85.9 -20.85 86.45 -21.4 87.5 -21.4 88.55 -21.4 89.1 -20.85 M88.1 -20.0 L87.5 -20.2 86.9 -20.0 86.7 -19.5 86.7 -17.1 86.9 -16.6 87.5 -16.4 88.1 -16.6 88.3 -17.1 88.3 -19.5 88.1 -20.0 M93.2 -23.3 L93.2 -22.15 92.8 -22.15 92.45 -22.0 92.35 -21.65 92.35 -21.0 93.2 -21.0 93.2 -19.9 92.35 -19.9 92.35 -15.3 90.95 -15.3 90.95 -19.9 90.35 -19.9 90.35 -21.0 90.95 -21.0 90.95 -21.6 91.15 -22.65 91.7 -23.2 92.55 -23.35 92.9 -23.35 93.2 -23.3 M-82.4 -5.85 Q-82.05 -5.5 -82.05 -4.65 L-82.05 -0.1 -83.45 -0.1 -83.45 -4.5 -83.55 -4.95 -83.95 -5.15 -84.4 -5.0 -84.85 -4.6 -84.85 -0.1 -86.25 -0.1 -86.25 -8.05 -84.85 -8.05 -84.85 -5.4 -84.15 -5.95 -83.35 -6.2 Q-82.7 -6.2 -82.4 -5.85 M-89.35 -7.45 L-87.95 -7.45 -87.95 -5.8 -87.05 -5.8 -87.05 -4.7 -87.95 -4.7 -87.95 -1.65 -87.75 -1.3 -87.3 -1.2 -87.2 -1.2 -87.05 -1.2 -87.05 -0.05 -87.45 0.0 -87.85 0.0 -88.9 -0.25 Q-89.3 -0.55 -89.35 -1.2 L-89.35 -4.7 -89.9 -4.7 -89.9 -5.8 -89.35 -5.8 -89.35 -7.45 M-87.65 -22.0 L-87.65 -19.75 -86.85 -19.75 Q-85.75 -19.75 -85.75 -20.85 -85.75 -22.0 -86.85 -22.0 L-87.65 -22.0 M-83.0 -23.25 L-81.65 -23.25 -81.65 -15.3 -83.0 -15.3 -83.0 -23.25 M-84.2 -20.85 Q-84.2 -19.75 -84.9 -19.1 -85.6 -18.5 -87.0 -18.5 L-87.65 -18.5 -87.65 -15.3 -89.2 -15.3 -89.2 -23.25 -87.0 -23.25 Q-85.6 -23.25 -84.9 -22.6 -84.2 -22.0 -84.2 -20.85 M-40.55 -2.35 L-40.55 -3.8 Q-40.55 -4.95 -40.2 -5.6 -39.85 -6.2 -39.05 -6.2 L-38.45 -6.05 -37.65 -5.55 -37.65 -8.05 -36.25 -8.05 -36.25 -0.1 -37.55 -0.1 -37.55 -0.85 -37.9 -0.45 -38.45 -0.15 -39.05 0.0 Q-39.85 0.0 -40.2 -0.6 -40.55 -1.2 -40.55 -2.35 M-45.95 -0.1 L-45.95 -6.1 -44.6 -6.1 -44.6 -5.4 -43.85 -5.95 -43.05 -6.2 Q-42.4 -6.2 -42.1 -5.85 -41.75 -5.5 -41.75 -4.65 L-41.75 -0.1 -43.15 -0.1 -43.15 -4.5 -43.25 -4.95 -43.65 -5.15 -44.1 -5.0 -44.55 -4.6 -44.55 -0.1 -45.95 -0.1 M-48.7 -1.6 L-48.7 -3.05 -49.5 -2.7 -50.1 -2.25 -50.35 -1.65 -50.2 -1.2 -49.75 -1.05 -49.2 -1.2 -48.7 -1.6 M-51.75 -1.45 Q-51.75 -2.1 -51.35 -2.55 L-50.25 -3.35 -48.7 -3.9 -48.7 -4.35 -48.9 -4.9 -49.4 -5.05 -49.95 -4.85 -50.2 -4.35 -51.55 -4.35 -51.2 -5.4 -50.4 -6.0 -49.35 -6.2 Q-48.25 -6.15 -47.8 -5.7 -47.3 -5.2 -47.3 -4.4 L-47.3 -0.6 -47.3 -0.35 -47.25 -0.1 -48.6 -0.1 -48.65 -0.35 -48.7 -0.7 -49.45 -0.2 -50.35 0.0 Q-51.0 0.0 -51.35 -0.35 -51.75 -0.7 -51.75 -1.45 M-57.6 -7.45 L-56.2 -7.45 -56.2 -5.8 -55.3 -5.8 -55.3 -4.7 -56.2 -4.7 -56.2 -1.65 -56.0 -1.3 -55.55 -1.2 -55.45 -1.2 -55.3 -1.2 -55.3 -0.05 -55.7 0.0 -56.1 0.0 -57.15 -0.25 Q-57.55 -0.55 -57.6 -1.2 L-57.6 -4.7 -58.15 -4.7 -58.15 -5.8 -57.6 -5.8 -57.6 -7.45 M-55.45 -21.15 L-54.65 -21.4 Q-54.0 -21.4 -53.7 -21.05 -53.35 -20.7 -53.35 -19.85 L-53.35 -15.3 -54.75 -15.3 -54.75 -19.7 -54.85 -20.15 -55.25 -20.35 -55.7 -20.2 -56.15 -19.8 -56.15 -15.3 -57.55 -15.3 -57.55 -23.25 -56.15 -23.25 -56.15 -20.6 -55.45 -21.15 M-50.5 -21.3 L-50.5 -15.3 -51.85 -15.3 -51.85 -21.3 -50.5 -21.3 M-48.9 -18.75 L-49.2 -19.7 -48.9 -20.65 -48.2 -21.2 -47.3 -21.4 Q-46.5 -21.4 -46.0 -21.0 -45.45 -20.6 -45.2 -19.9 L-46.35 -19.45 -46.75 -20.05 -47.3 -20.25 -47.7 -20.1 -47.85 -19.75 -47.6 -19.25 -46.9 -18.9 -46.1 -18.45 -45.45 -17.9 Q-45.15 -17.55 -45.15 -17.0 -45.15 -16.4 -45.4 -16.0 -45.7 -15.6 -46.1 -15.4 L-47.15 -15.2 -47.95 -15.3 -48.7 -15.8 -49.4 -16.9 -48.15 -17.25 -47.8 -16.55 -47.15 -16.3 -46.65 -16.45 Q-46.5 -16.6 -46.5 -16.85 L-46.75 -17.4 -47.45 -17.75 -48.25 -18.15 -48.9 -18.75 M-50.5 -23.55 L-50.5 -22.3 -51.85 -22.3 -51.85 -23.55 -50.5 -23.55 M-41.15 -19.15 Q-41.15 -20.3 -40.55 -20.85 -40.0 -21.4 -38.95 -21.4 -37.9 -21.4 -37.35 -20.85 -36.8 -20.35 -36.75 -19.2 L-38.15 -19.2 -38.15 -19.5 -38.35 -20.0 Q-38.6 -20.2 -38.95 -20.2 L-39.55 -20.0 -39.75 -19.5 -39.75 -17.1 -39.55 -16.6 -38.95 -16.4 Q-38.6 -16.4 -38.35 -16.6 -38.15 -16.75 -38.15 -17.1 L-38.15 -17.5 -36.75 -17.5 -36.75 -17.45 Q-36.75 -16.3 -37.35 -15.75 -37.9 -15.2 -38.95 -15.2 -40.0 -15.2 -40.55 -15.75 -41.15 -16.3 -41.15 -17.45 L-41.15 -19.15 M-62.35 -5.45 L-61.65 -6.0 -60.75 -6.2 Q-59.95 -6.2 -59.45 -5.8 -58.9 -5.4 -58.65 -4.7 L-59.8 -4.25 -60.2 -4.85 Q-60.45 -5.05 -60.75 -5.05 L-61.15 -4.9 -61.3 -4.55 -61.05 -4.05 -60.35 -3.7 -59.55 -3.25 -58.9 -2.7 Q-58.6 -2.35 -58.6 -1.8 -58.6 -1.2 -58.85 -0.8 L-59.55 -0.2 -60.6 0.0 -61.4 -0.1 -62.15 -0.6 -62.85 -1.7 -61.6 -2.05 -61.25 -1.35 Q-61.0 -1.1 -60.6 -1.1 -60.3 -1.1 -60.1 -1.25 -59.95 -1.4 -59.95 -1.65 L-60.2 -2.2 -60.9 -2.55 -61.7 -2.95 -62.35 -3.55 -62.65 -4.5 -62.35 -5.45 M-67.6 -0.1 L-68.95 -0.1 -68.95 -6.1 -67.6 -6.1 -67.6 -0.1 M-66.1 -0.1 L-66.1 -6.1 -64.75 -6.1 -64.75 -5.3 -64.7 -5.3 -64.15 -5.95 -63.3 -6.2 -63.3 -4.7 -63.65 -4.8 -64.0 -4.85 -64.55 -4.65 -64.7 -4.2 -64.7 -0.1 -66.1 -0.1 M-68.95 -7.1 L-68.95 -8.35 -67.6 -8.35 -67.6 -7.1 -68.95 -7.1 M-77.85 -4.2 L-78.05 -4.85 -78.65 -5.05 -79.25 -4.85 -79.45 -4.2 -79.45 -3.9 -77.85 -3.9 -77.85 -4.2 M-76.75 -5.25 Q-76.45 -4.75 -76.45 -4.15 L-76.45 -2.75 -79.45 -2.75 -79.45 -1.95 -79.25 -1.3 -78.65 -1.1 Q-78.2 -1.15 -78.0 -1.35 -77.85 -1.6 -77.85 -1.95 L-76.45 -1.95 Q-76.5 -1.0 -77.05 -0.5 -77.6 0.0 -78.65 0.0 L-79.8 -0.25 -80.55 -1.0 -80.85 -2.1 -80.85 -4.05 -80.55 -5.2 -79.8 -5.95 -78.65 -6.2 -77.5 -5.95 -76.75 -5.25 M-72.15 -6.4 L-71.95 -7.45 -71.4 -8.0 -70.55 -8.15 -70.2 -8.15 -69.9 -8.1 -69.9 -6.95 -70.3 -6.95 -70.65 -6.8 -70.75 -6.45 -70.75 -5.8 -69.9 -5.8 -69.9 -4.7 -70.75 -4.7 -70.75 -0.1 -72.15 -0.1 -72.15 -4.7 -72.75 -4.7 -72.75 -5.8 -72.15 -5.8 -72.15 -6.4 M-77.4 -16.8 L-77.4 -18.25 -78.2 -17.9 -78.8 -17.45 -79.05 -16.85 -78.9 -16.4 -78.45 -16.25 -77.9 -16.4 -77.4 -16.8 M-79.9 -20.6 L-79.1 -21.2 -78.05 -21.4 Q-76.95 -21.35 -76.5 -20.9 -76.0 -20.4 -76.0 -19.6 L-76.0 -15.8 -76.0 -15.55 -75.95 -15.3 -77.3 -15.3 -77.35 -15.55 -77.4 -15.9 -78.15 -15.4 -79.05 -15.2 Q-79.7 -15.2 -80.05 -15.55 -80.45 -15.9 -80.45 -16.65 -80.45 -17.3 -80.05 -17.75 -79.65 -18.25 -78.95 -18.55 L-77.4 -19.1 -77.4 -19.55 -77.6 -20.1 -78.1 -20.25 -78.65 -20.05 -78.9 -19.55 -80.25 -19.55 -79.9 -20.6 M-70.35 -17.5 L-70.35 -17.45 Q-70.35 -16.3 -70.95 -15.75 -71.5 -15.2 -72.55 -15.2 -73.6 -15.2 -74.15 -15.75 -74.75 -16.3 -74.75 -17.45 L-74.75 -19.15 Q-74.75 -20.3 -74.15 -20.85 -73.6 -21.4 -72.55 -21.4 -71.5 -21.4 -70.95 -20.85 -70.4 -20.35 -70.35 -19.2 L-71.75 -19.2 -71.75 -19.5 -71.95 -20.0 Q-72.2 -20.2 -72.55 -20.2 L-73.15 -20.0 -73.35 -19.5 -73.35 -17.1 Q-73.35 -16.75 -73.15 -16.6 L-72.55 -16.4 Q-72.2 -16.4 -71.95 -16.6 L-71.75 -17.1 -71.75 -17.5 -70.35 -17.5 M-67.65 -20.05 L-67.85 -19.4 -67.85 -19.1 -66.25 -19.1 -66.25 -19.4 -66.45 -20.05 -67.05 -20.25 -67.65 -20.05 M-65.15 -20.45 Q-64.85 -19.95 -64.85 -19.35 L-64.85 -17.95 -67.85 -17.95 -67.85 -17.15 -67.65 -16.5 -67.05 -16.3 Q-66.6 -16.35 -66.4 -16.55 -66.25 -16.8 -66.25 -17.15 L-64.85 -17.15 Q-64.9 -16.2 -65.45 -15.7 -66.0 -15.2 -67.05 -15.2 L-68.2 -15.45 -68.95 -16.2 -69.25 -17.3 -69.25 -19.25 -68.95 -20.4 -68.2 -21.15 -67.05 -21.4 -65.9 -21.15 Q-65.4 -20.9 -65.15 -20.45 M-61.2 -19.9 L-61.2 -21.0 -60.65 -21.0 -60.65 -22.65 -59.25 -22.65 -59.25 -21.0 -58.35 -21.0 -58.35 -19.9 -59.25 -19.9 -59.25 -16.85 -59.05 -16.5 -58.6 -16.4 -58.5 -16.4 -58.35 -16.4 -58.35 -15.25 -58.75 -15.2 -59.15 -15.2 -60.2 -15.45 Q-60.6 -15.75 -60.65 -16.4 L-60.65 -19.9 -61.2 -19.9 M-87.05 40.45 L-87.5 40.55 Q-87.7 40.65 -87.9 40.9 L-87.9 44.15 -87.5 44.45 -87.05 44.55 -86.7 44.45 -86.45 44.05 -86.4 43.15 -86.4 41.85 -86.45 41.0 -86.7 40.55 -87.05 40.45 M-85.0 41.8 L-85.0 43.25 Q-85.0 44.4 -85.35 45.0 -85.7 45.6 -86.5 45.6 L-87.1 45.45 -87.9 44.95 -87.9 47.6 -89.3 47.6 -89.3 39.5 -88.0 39.5 -88.0 40.25 -87.65 39.85 -87.1 39.55 -86.5 39.4 Q-85.7 39.4 -85.35 40.0 -85.0 40.65 -85.0 41.8 M-89.75 23.7 L-89.75 22.35 -84.65 22.35 -84.65 23.7 -86.45 23.7 -86.45 30.3 -87.95 30.3 -87.95 23.7 -89.75 23.7 M-86.6 10.4 L-87.2 10.2 -87.8 10.4 -88.0 10.9 -88.0 13.3 -87.8 13.8 -87.2 14.0 -86.6 13.8 -86.4 13.3 -86.4 12.9 -85.0 12.9 -85.0 12.95 Q-85.0 14.1 -85.6 14.65 -86.15 15.2 -87.2 15.2 -88.25 15.2 -88.8 14.65 -89.4 14.1 -89.4 12.95 L-89.4 11.25 Q-89.4 10.1 -88.8 9.55 -88.25 9.0 -87.2 9.0 -86.15 9.0 -85.6 9.55 -85.05 10.05 -85.0 11.2 L-86.4 11.2 -86.4 10.9 -86.6 10.4 M-60.25 30.3 L-61.6 30.3 -61.6 22.35 -60.25 22.35 -60.25 30.3 M-47.65 39.65 Q-47.3 39.4 -46.8 39.4 L-46.8 40.9 -47.15 40.8 -47.5 40.75 Q-47.85 40.75 -48.05 40.95 L-48.2 41.4 -48.2 45.5 -49.6 45.5 -49.6 39.5 -48.25 39.5 -48.25 40.3 -48.2 40.3 -47.65 39.65 M-59.3 41.85 L-59.3 43.15 -59.25 44.05 -59.0 44.45 -58.65 44.55 -58.2 44.45 -57.8 44.15 -57.8 40.9 -58.2 40.55 -58.65 40.45 -59.0 40.55 -59.25 41.0 -59.3 41.85 M-57.8 37.55 L-56.4 37.55 -56.4 45.5 -57.7 45.5 -57.7 44.75 -58.05 45.15 -58.6 45.45 -59.2 45.6 Q-60.0 45.6 -60.35 45.0 -60.7 44.4 -60.7 43.25 L-60.7 41.8 Q-60.7 40.65 -60.35 40.0 -60.0 39.4 -59.2 39.4 L-58.6 39.55 -57.8 40.05 -57.8 37.55 M-53.6 40.75 L-53.8 41.4 -53.8 41.7 -52.2 41.7 -52.2 41.4 -52.4 40.75 -53.0 40.55 -53.6 40.75 M-53.0 39.4 L-51.85 39.65 -51.1 40.35 Q-50.8 40.85 -50.8 41.45 L-50.8 42.85 -53.8 42.85 -53.8 43.65 -53.6 44.3 -53.0 44.5 -52.35 44.25 -52.2 43.65 -50.8 43.65 Q-50.85 44.6 -51.4 45.1 -51.95 45.6 -53.0 45.6 L-54.15 45.35 -54.9 44.6 -55.2 43.5 -55.2 41.55 -54.9 40.4 -54.15 39.65 -53.0 39.4 M-49.55 24.75 Q-48.95 25.3 -48.95 26.45 L-48.95 28.15 Q-48.95 29.3 -49.55 29.85 -50.1 30.4 -51.15 30.4 -52.2 30.4 -52.75 29.85 -53.35 29.3 -53.35 28.15 L-53.35 26.45 Q-53.35 25.3 -52.75 24.75 -52.2 24.2 -51.15 24.2 -50.1 24.2 -49.55 24.75 M-50.35 26.1 L-50.55 25.6 -51.15 25.4 -51.75 25.6 -51.95 26.1 -51.95 28.5 -51.75 29.0 -51.15 29.2 -50.55 29.0 -50.35 28.5 -50.35 26.1 M-68.7 41.3 L-68.9 40.8 -69.5 40.6 -70.1 40.8 -70.3 41.3 -70.3 43.7 -70.1 44.2 -69.5 44.4 -68.9 44.2 -68.7 43.7 -68.7 41.3 M-63.35 42.55 L-64.15 42.9 -64.75 43.35 -65.0 43.95 -64.85 44.4 -64.4 44.55 -63.85 44.4 -63.35 44.0 -63.35 42.55 M-65.05 39.6 L-64.0 39.4 Q-62.9 39.45 -62.45 39.9 -61.95 40.4 -61.95 41.2 L-61.95 45.0 -61.95 45.25 -61.9 45.5 -63.25 45.5 -63.3 45.25 -63.35 44.9 -64.1 45.4 -65.0 45.6 -66.0 45.25 Q-66.4 44.9 -66.4 44.15 -66.4 43.5 -66.0 43.05 L-64.9 42.25 -63.35 41.7 -63.35 41.25 -63.55 40.7 -64.05 40.55 -64.6 40.75 -64.85 41.25 -66.2 41.25 -65.85 40.2 Q-65.55 39.8 -65.05 39.6 M-81.0 39.4 L-81.0 40.9 -81.35 40.8 -81.7 40.75 -82.25 40.95 -82.4 41.4 -82.4 45.5 -83.8 45.5 -83.8 39.5 -82.45 39.5 -82.45 40.3 -82.4 40.3 -81.85 39.65 -81.0 39.4 M-78.65 40.75 L-78.85 41.4 -78.85 41.7 -77.25 41.7 -77.25 41.4 -77.45 40.75 -78.05 40.55 -78.65 40.75 M-74.45 37.55 L-73.1 37.55 -73.1 45.5 -74.45 45.5 -74.45 37.55 M-71.7 41.65 Q-71.7 40.5 -71.1 39.95 -70.55 39.4 -69.5 39.4 -68.45 39.4 -67.9 39.95 -67.3 40.5 -67.3 41.65 L-67.3 43.35 Q-67.3 44.5 -67.9 45.05 -68.45 45.6 -69.5 45.6 -70.55 45.6 -71.1 45.05 -71.7 44.5 -71.7 43.35 L-71.7 41.65 M-75.85 41.45 L-75.85 42.85 -78.85 42.85 -78.85 43.65 -78.65 44.3 -78.05 44.5 -77.4 44.25 -77.25 43.65 -75.85 43.65 Q-75.9 44.6 -76.45 45.1 -77.0 45.6 -78.05 45.6 L-79.2 45.35 -79.95 44.6 -80.25 43.5 -80.25 41.55 -79.95 40.4 -79.2 39.65 -78.05 39.4 -76.9 39.65 -76.15 40.35 Q-75.85 40.85 -75.85 41.45 M-75.4 26.5 L-75.4 26.2 -75.6 25.55 -76.2 25.35 -76.8 25.55 -77.0 26.2 -77.0 26.5 -75.4 26.5 M-80.9 13.3 L-80.9 10.9 -81.1 10.4 Q-81.35 10.2 -81.7 10.2 L-82.3 10.4 -82.5 10.9 -82.5 13.3 -82.3 13.8 -81.7 14.0 Q-81.35 14.0 -81.1 13.8 L-80.9 13.3 M-63.3 23.3 L-64.65 23.3 -64.65 22.05 -63.3 22.05 -63.3 23.3 M-64.65 24.3 L-63.3 24.3 -63.3 30.3 -64.65 30.3 -64.65 24.3 M-68.05 24.2 Q-67.25 24.2 -66.75 24.6 -66.2 25.0 -65.95 25.7 L-67.1 26.15 -67.5 25.55 -68.05 25.35 Q-68.3 25.35 -68.45 25.5 L-68.6 25.85 -68.35 26.35 -67.65 26.7 -66.85 27.15 -66.2 27.7 Q-65.9 28.05 -65.9 28.6 -65.9 29.2 -66.15 29.6 L-66.85 30.2 -67.9 30.4 -68.7 30.3 -69.45 29.8 -70.15 28.7 -68.9 28.35 -68.55 29.05 -67.9 29.3 -67.4 29.15 -67.25 28.75 Q-67.25 28.4 -67.5 28.2 L-68.2 27.85 -69.0 27.45 -69.65 26.85 -69.95 25.9 -69.65 24.95 -68.95 24.4 -68.05 24.2 M-77.35 24.45 L-76.2 24.2 -75.05 24.45 -74.3 25.15 Q-74.0 25.65 -74.0 26.25 L-74.0 27.65 -77.0 27.65 -77.0 28.45 -76.8 29.1 -76.2 29.3 -75.55 29.05 -75.4 28.45 -74.0 28.45 Q-74.05 29.4 -74.6 29.9 -75.15 30.4 -76.2 30.4 L-77.35 30.15 -78.1 29.4 -78.4 28.3 -78.4 26.35 -78.1 25.2 -77.35 24.45 M-80.9 24.2 Q-80.25 24.2 -79.95 24.55 -79.6 24.9 -79.6 25.75 L-79.6 30.3 -81.0 30.3 -81.0 25.9 -81.1 25.45 Q-81.25 25.25 -81.5 25.25 L-81.95 25.4 -82.4 25.8 -82.4 30.3 -83.8 30.3 -83.8 22.35 -82.4 22.35 -82.4 25.0 -81.7 24.45 -80.9 24.2 M-76.95 9.1 L-76.95 9.8 -76.2 9.25 Q-75.8 9.0 -75.4 9.0 -74.75 9.0 -74.45 9.35 -74.1 9.7 -74.1 10.55 L-74.1 15.1 -75.5 15.1 -75.5 10.7 -75.6 10.25 Q-75.75 10.05 -76.0 10.05 L-76.45 10.2 -76.9 10.6 -76.9 15.1 -78.3 15.1 -78.3 9.1 -76.95 9.1 M-80.1 9.55 Q-79.5 10.1 -79.5 11.25 L-79.5 12.95 Q-79.5 14.1 -80.1 14.65 -80.65 15.2 -81.7 15.2 -82.75 15.2 -83.3 14.65 -83.9 14.1 -83.9 12.95 L-83.9 11.25 Q-83.9 10.1 -83.3 9.55 -82.75 9.0 -81.7 9.0 -80.65 9.0 -80.1 9.55 M-68.45 11.0 L-68.45 11.3 -66.85 11.3 -66.85 11.0 -67.05 10.35 -67.65 10.15 -68.25 10.35 -68.45 11.0 M-70.55 9.4 L-70.55 10.5 -71.45 10.5 -71.45 13.55 -71.25 13.9 -70.8 14.0 -70.7 14.0 -70.55 14.0 -70.55 15.15 -70.95 15.2 -71.35 15.2 -72.4 14.95 Q-72.8 14.65 -72.85 14.0 L-72.85 10.5 -73.4 10.5 -73.4 9.4 -72.85 9.4 -72.85 7.75 -71.45 7.75 -71.45 9.4 -70.55 9.4 M-67.65 9.0 L-66.5 9.25 -65.75 9.95 Q-65.45 10.45 -65.45 11.05 L-65.45 12.45 -68.45 12.45 -68.45 13.25 -68.25 13.9 -67.65 14.1 -67.0 13.85 -66.85 13.25 -65.45 13.25 Q-65.5 14.2 -66.05 14.7 -66.6 15.2 -67.65 15.2 L-68.8 14.95 -69.55 14.2 -69.85 13.1 -69.85 11.15 -69.55 10.0 -68.8 9.25 -67.65 9.0 M-47.75 24.3 L-46.35 24.3 -46.35 28.7 -46.25 29.2 -45.85 29.35 -45.4 29.2 -44.95 28.85 -44.95 24.3 -43.55 24.3 -43.55 30.3 -44.9 30.3 -44.9 29.6 -45.65 30.2 -46.45 30.4 Q-47.1 30.4 -47.4 30.05 -47.75 29.7 -47.75 28.85 L-47.75 24.3 M-56.65 24.45 L-55.85 24.2 Q-55.2 24.2 -54.9 24.55 -54.55 24.9 -54.55 25.75 L-54.55 30.3 -55.95 30.3 -55.95 25.9 -56.05 25.45 -56.45 25.25 -56.9 25.4 -57.35 25.8 -57.35 30.3 -58.75 30.3 -58.75 22.35 -57.35 22.35 -57.35 25.0 -56.65 24.45 M-58.8 10.5 L-59.35 10.5 -59.35 9.4 -58.8 9.4 -58.8 7.75 -57.4 7.75 -57.4 9.4 -56.5 9.4 -56.5 10.5 -57.4 10.5 -57.4 13.55 -57.2 13.9 -56.75 14.0 -56.65 14.0 -56.5 14.0 -56.5 15.15 -56.9 15.2 -57.3 15.2 -58.35 14.95 Q-58.75 14.65 -58.8 14.0 L-58.8 10.5 M-60.4 9.35 Q-60.05 9.7 -60.05 10.55 L-60.05 15.1 -61.45 15.1 -61.45 10.7 -61.55 10.25 -61.95 10.05 -62.4 10.2 -62.85 10.6 -62.85 15.1 -64.25 15.1 -64.25 9.1 -62.9 9.1 -62.9 9.8 -62.15 9.25 Q-61.75 9.0 -61.35 9.0 -60.7 9.0 -60.4 9.35 M-49.75 10.9 L-49.95 10.4 -50.55 10.2 -51.15 10.4 -51.35 10.9 -51.35 13.3 Q-51.35 13.65 -51.15 13.8 L-50.55 14.0 -49.95 13.8 -49.75 13.3 -49.75 10.9 M-50.55 9.0 Q-49.5 9.0 -48.95 9.55 -48.35 10.1 -48.35 11.25 L-48.35 12.95 Q-48.35 14.1 -48.95 14.65 -49.5 15.2 -50.55 15.2 -51.6 15.2 -52.15 14.65 -52.75 14.1 -52.75 12.95 L-52.75 11.25 Q-52.75 10.1 -52.15 9.55 -51.6 9.0 -50.55 9.0 M-47.15 9.1 L-45.8 9.1 -45.8 9.8 -45.05 9.25 -44.25 9.0 Q-43.6 9.0 -43.3 9.35 -42.95 9.7 -42.95 10.55 L-42.95 15.1 -44.35 15.1 -44.35 10.7 -44.45 10.25 -44.85 10.05 -45.3 10.2 -45.75 10.6 -45.75 15.1 -47.15 15.1 -47.15 9.1 M-4.8 39.5 L-3.4 39.5 -5.0 45.5 Q-5.2 46.3 -5.5 46.75 L-6.2 47.4 -7.35 47.6 -7.55 47.6 -7.8 47.6 -7.8 46.4 -7.6 46.4 -7.4 46.4 -6.85 46.25 -6.5 45.95 -6.4 45.6 -6.45 45.05 -6.65 44.35 -8.05 39.5 -6.6 39.5 -5.7 43.5 -5.65 43.5 -4.8 39.5 M-10.35 45.5 L-10.35 37.55 -9.0 37.55 -9.0 45.5 -10.35 45.5 M-16.2 41.6 L-16.2 41.3 -16.4 40.8 -17.0 40.6 -17.6 40.8 -17.8 41.3 -17.8 43.7 -17.6 44.2 -17.0 44.4 -16.4 44.2 -16.2 43.7 -16.2 43.3 -14.8 43.3 -14.8 43.35 Q-14.8 44.5 -15.4 45.05 -15.95 45.6 -17.0 45.6 -18.05 45.6 -18.6 45.05 -19.2 44.5 -19.2 43.35 L-19.2 41.65 Q-19.2 40.5 -18.6 39.95 -18.05 39.4 -17.0 39.4 -15.95 39.4 -15.4 39.95 -14.85 40.45 -14.8 41.6 L-16.2 41.6 M-12.25 39.8 L-11.35 39.8 -11.35 40.9 -12.25 40.9 -12.25 43.95 -12.05 44.3 -11.6 44.4 -11.5 44.4 -11.35 44.4 -11.35 45.55 -11.75 45.6 -12.15 45.6 -13.2 45.35 Q-13.6 45.05 -13.65 44.4 L-13.65 40.9 -14.2 40.9 -14.2 39.8 -13.65 39.8 -13.65 38.15 -12.25 38.15 -12.25 39.8 M-13.7 26.5 L-13.7 26.2 -13.9 25.55 Q-14.1 25.35 -14.5 25.35 L-15.1 25.55 -15.3 26.2 -15.3 26.5 -13.7 26.5 M-5.45 25.35 L-5.8 25.25 -6.25 25.35 -6.65 25.7 -6.65 28.95 -6.25 29.25 -5.8 29.35 -5.45 29.25 -5.2 28.85 -5.15 27.95 -5.15 26.65 -5.2 25.8 -5.45 25.35 M-26.3 39.65 L-25.45 39.4 -25.45 40.9 -25.8 40.8 -26.15 40.75 -26.7 40.95 -26.85 41.4 -26.85 45.5 -28.25 45.5 -28.25 39.5 -26.9 39.5 -26.9 40.3 -26.85 40.3 -26.3 39.65 M-23.3 41.4 L-23.3 41.7 -21.7 41.7 -21.7 41.4 -21.9 40.75 -22.5 40.55 -23.1 40.75 -23.3 41.4 M-22.5 39.4 L-21.35 39.65 Q-20.85 39.9 -20.6 40.35 -20.3 40.85 -20.3 41.45 L-20.3 42.85 -23.3 42.85 -23.3 43.65 -23.1 44.3 -22.5 44.5 -21.85 44.25 Q-21.7 44.0 -21.7 43.65 L-20.3 43.65 Q-20.35 44.6 -20.9 45.1 -21.45 45.6 -22.5 45.6 L-23.65 45.35 -24.4 44.6 -24.7 43.5 -24.7 41.55 -24.4 40.4 -23.65 39.65 -22.5 39.4 M-39.2 39.95 Q-38.65 40.45 -38.6 41.6 L-40.0 41.6 -40.0 41.3 -40.2 40.8 -40.8 40.6 -41.4 40.8 -41.6 41.3 -41.6 43.7 -41.4 44.2 -40.8 44.4 -40.2 44.2 -40.0 43.7 -40.0 43.3 -38.6 43.3 -38.6 43.35 Q-38.6 44.5 -39.2 45.05 -39.75 45.6 -40.8 45.6 -41.85 45.6 -42.4 45.05 -43.0 44.5 -43.0 43.35 L-43.0 41.65 Q-43.0 40.5 -42.4 39.95 -41.85 39.4 -40.8 39.4 -39.75 39.4 -39.2 39.95 M-35.3 39.4 Q-34.25 39.4 -33.7 39.95 -33.1 40.5 -33.1 41.65 L-33.1 43.35 Q-33.1 44.5 -33.7 45.05 -34.25 45.6 -35.3 45.6 -36.35 45.6 -36.9 45.05 -37.5 44.5 -37.5 43.35 L-37.5 41.65 Q-37.5 40.5 -36.9 39.95 -36.35 39.4 -35.3 39.4 M-30.55 40.3 L-30.5 40.3 -29.95 39.65 Q-29.6 39.4 -29.1 39.4 L-29.1 40.9 -29.45 40.8 -29.8 40.75 -30.35 40.95 -30.5 41.4 -30.5 45.5 -31.9 45.5 -31.9 39.5 -30.55 39.5 -30.55 40.3 M-34.5 41.3 L-34.7 40.8 -35.3 40.6 -35.9 40.8 -36.1 41.3 -36.1 43.7 -35.9 44.2 -35.3 44.4 -34.7 44.2 -34.5 43.7 -34.5 41.3 M-39.35 26.2 L-39.55 25.55 Q-39.75 25.35 -40.15 25.35 L-40.75 25.55 -40.95 26.2 -40.95 26.5 -39.35 26.5 -39.35 26.2 M-27.75 26.5 L-27.75 26.2 -27.95 25.55 -28.55 25.35 -29.15 25.55 -29.35 26.2 -29.35 26.5 -27.75 26.5 M-28.55 24.2 L-27.4 24.45 Q-26.9 24.7 -26.65 25.15 -26.35 25.65 -26.35 26.25 L-26.35 27.65 -29.35 27.65 -29.35 28.45 -29.15 29.1 -28.55 29.3 Q-28.1 29.25 -27.9 29.05 L-27.75 28.45 -26.35 28.45 Q-26.4 29.4 -26.95 29.9 -27.5 30.4 -28.55 30.4 L-29.7 30.15 -30.45 29.4 -30.75 28.3 -30.75 26.35 -30.45 25.2 -29.7 24.45 -28.55 24.2 M-34.3 24.6 L-33.75 24.6 -33.75 22.95 -32.35 22.95 -32.35 24.6 -31.45 24.6 -31.45 25.7 -32.35 25.7 -32.35 28.75 -32.15 29.1 -31.7 29.2 -31.6 29.2 -31.45 29.2 -31.45 30.35 -31.85 30.4 -32.25 30.4 -33.3 30.15 Q-33.7 29.85 -33.75 29.2 L-33.75 25.7 -34.3 25.7 -34.3 24.6 M-36.8 24.6 L-36.8 22.95 -35.4 22.95 -35.4 24.6 -34.5 24.6 -34.5 25.7 -35.4 25.7 -35.4 28.75 -35.2 29.1 -34.75 29.2 -34.65 29.2 -34.5 29.2 -34.5 30.35 -34.9 30.4 -35.3 30.4 -36.35 30.15 Q-36.75 29.85 -36.8 29.2 L-36.8 25.7 -37.35 25.7 -37.35 24.6 -36.8 24.6 M-40.15 24.2 L-39.0 24.45 -38.25 25.15 Q-37.95 25.65 -37.95 26.25 L-37.95 27.65 -40.95 27.65 -40.95 28.45 -40.75 29.1 -40.15 29.3 -39.5 29.05 -39.35 28.45 -37.95 28.45 Q-38.0 29.4 -38.55 29.9 -39.1 30.4 -40.15 30.4 L-41.3 30.15 -42.05 29.4 -42.35 28.3 -42.35 26.35 -42.05 25.2 -41.3 24.45 -40.15 24.2 M-30.8 13.55 L-30.65 14.0 -30.2 14.15 -29.65 14.0 -29.15 13.6 -29.15 12.15 -29.95 12.5 -30.55 12.95 -30.8 13.55 M-34.2 9.9 L-34.15 9.9 -33.6 9.25 -32.75 9.0 -32.75 10.5 -33.1 10.4 -33.45 10.35 Q-33.8 10.35 -34.0 10.55 L-34.15 11.0 -34.15 15.1 -35.55 15.1 -35.55 9.1 -34.2 9.1 -34.2 9.9 M-36.7 8.25 L-37.05 8.4 -37.15 8.75 -37.15 9.4 -36.3 9.4 -36.3 10.5 -37.15 10.5 -37.15 15.1 -38.55 15.1 -38.55 10.5 -39.15 10.5 -39.15 9.4 -38.55 9.4 -38.55 8.8 -38.35 7.75 -37.8 7.2 -36.95 7.05 -36.6 7.05 -36.3 7.1 -36.3 8.25 -36.7 8.25 M-29.8 9.0 Q-28.7 9.05 -28.25 9.5 -27.75 10.0 -27.75 10.8 L-27.75 14.6 -27.75 14.85 -27.7 15.1 -29.05 15.1 -29.1 14.85 -29.15 14.5 -29.9 15.0 -30.8 15.2 Q-31.45 15.2 -31.8 14.85 -32.2 14.5 -32.2 13.75 -32.2 13.1 -31.8 12.65 L-30.7 11.85 -29.15 11.3 -29.15 10.85 -29.35 10.3 -29.85 10.15 -30.4 10.35 -30.65 10.85 -32.0 10.85 -31.65 9.8 Q-31.35 9.4 -30.85 9.2 L-29.8 9.0 M-10.9 22.35 L-9.55 22.35 -9.55 30.3 -10.9 30.3 -10.9 22.35 M-5.85 24.35 L-5.25 24.2 Q-4.45 24.2 -4.1 24.8 -3.75 25.45 -3.75 26.6 L-3.75 28.05 Q-3.75 29.2 -4.1 29.8 -4.45 30.4 -5.25 30.4 L-5.85 30.25 -6.65 29.75 -6.65 32.4 -8.05 32.4 -8.05 24.3 -6.75 24.3 -6.75 25.05 -6.4 24.65 -5.85 24.35 M-14.5 24.2 L-13.35 24.45 -12.6 25.15 Q-12.3 25.65 -12.3 26.25 L-12.3 27.65 -15.3 27.65 -15.3 28.45 -15.1 29.1 -14.5 29.3 -13.85 29.05 Q-13.7 28.8 -13.7 28.45 L-12.3 28.45 Q-12.35 29.4 -12.9 29.9 -13.45 30.4 -14.5 30.4 L-15.65 30.15 -16.4 29.4 -16.7 28.3 -16.7 26.35 -16.4 25.2 -15.65 24.45 -14.5 24.2 M-20.0 24.45 Q-19.6 24.2 -19.2 24.2 -18.55 24.2 -18.25 24.55 -17.9 24.9 -17.9 25.75 L-17.9 30.3 -19.3 30.3 -19.3 25.9 -19.4 25.45 Q-19.55 25.25 -19.8 25.25 L-20.25 25.4 -20.7 25.8 -20.7 30.3 -22.1 30.3 -22.1 22.35 -20.7 22.35 -20.7 25.0 -20.0 24.45 M-15.55 11.3 L-15.55 11.0 -15.75 10.35 -16.35 10.15 -16.95 10.35 -17.15 11.0 -17.15 11.3 -15.55 11.3 M-20.1 9.4 Q-19.75 9.8 -19.75 10.6 L-19.75 15.1 -21.15 15.1 -21.15 10.55 -21.25 10.15 -21.5 10.05 -22.0 10.25 -22.4 10.6 -22.4 15.1 -23.75 15.1 -23.75 10.55 Q-23.75 10.25 -23.9 10.15 L-24.15 10.05 -24.6 10.25 -25.0 10.6 -25.0 15.1 -26.4 15.1 -26.4 9.1 -25.05 9.1 -25.05 9.8 -24.35 9.25 -23.55 9.0 -22.9 9.25 -22.5 9.9 -21.85 9.3 Q-21.5 9.0 -21.05 9.0 -20.4 9.0 -20.1 9.4 M-16.35 9.0 L-15.2 9.25 -14.45 9.95 Q-14.15 10.45 -14.15 11.05 L-14.15 12.45 -17.15 12.45 -17.15 13.25 -16.95 13.9 -16.35 14.1 -15.7 13.85 -15.55 13.25 -14.15 13.25 Q-14.2 14.2 -14.75 14.7 -15.3 15.2 -16.35 15.2 L-17.5 14.95 -18.25 14.2 -18.55 13.1 -18.55 11.15 -18.25 10.0 -17.5 9.25 -16.35 9.0 M-7.65 10.5 L-8.55 10.5 -8.55 13.55 -8.35 13.9 -7.9 14.0 -7.8 14.0 -7.65 14.0 -7.65 15.15 -8.05 15.2 -8.45 15.2 -9.5 14.95 Q-9.9 14.65 -9.95 14.0 L-9.95 10.5 -10.5 10.5 -10.5 9.4 -9.95 9.4 -9.95 7.75 -8.55 7.75 -8.55 9.4 -7.65 9.4 -7.65 10.5 M-7.35 9.1 L-6.05 9.1 -5.25 12.85 -4.45 9.1 -3.25 9.1 -2.4 12.85 -1.6 9.1 -0.3 9.1 -1.75 15.1 -3.05 15.1 -3.85 11.35 -3.9 11.35 -4.65 15.1 -5.95 15.1 -7.35 9.1 M-3.65 -4.6 L-3.7 -3.75 -3.7 -2.45 -3.65 -1.55 -3.4 -1.15 -3.05 -1.05 -2.6 -1.15 -2.2 -1.45 -2.2 -4.7 -2.6 -5.05 -3.05 -5.15 -3.4 -5.05 -3.65 -4.6 M-2.2 -8.05 L-0.8 -8.05 -0.8 -0.1 -2.1 -0.1 -2.1 -0.85 -2.45 -0.45 Q-2.7 -0.25 -3.0 -0.15 L-3.6 0.0 Q-4.4 0.0 -4.75 -0.6 -5.1 -1.2 -5.1 -2.35 L-5.1 -3.8 Q-5.1 -4.95 -4.75 -5.6 -4.4 -6.2 -3.6 -6.2 L-3.0 -6.05 -2.2 -5.55 -2.2 -8.05 M-10.5 -0.1 L-10.5 -6.1 -9.15 -6.1 -9.15 -5.4 -8.4 -5.95 -7.6 -6.2 Q-6.95 -6.2 -6.65 -5.85 -6.3 -5.5 -6.3 -4.65 L-6.3 -0.1 -7.7 -0.1 -7.7 -4.5 -7.8 -4.95 Q-7.95 -5.15 -8.2 -5.15 L-8.65 -5.0 -9.1 -4.6 -9.1 -0.1 -10.5 -0.1 M-14.5 -4.8 L-14.7 -4.3 -14.7 -1.9 -14.5 -1.4 -13.9 -1.2 Q-13.55 -1.2 -13.3 -1.4 L-13.1 -1.9 -13.1 -4.3 -13.3 -4.8 Q-13.55 -5.0 -13.9 -5.0 L-14.5 -4.8 M-16.1 -3.95 Q-16.1 -5.1 -15.5 -5.65 -14.95 -6.2 -13.9 -6.2 -12.85 -6.2 -12.3 -5.65 -11.7 -5.1 -11.7 -3.95 L-11.7 -2.25 Q-11.7 -1.1 -12.3 -0.55 -12.85 0.0 -13.9 0.0 -14.95 0.0 -15.5 -0.55 -16.1 -1.1 -16.1 -2.25 L-16.1 -3.95 M-13.7 -19.5 L-13.9 -20.0 Q-14.15 -20.2 -14.5 -20.2 L-15.1 -20.0 -15.3 -19.5 -15.3 -17.1 -15.1 -16.6 -14.5 -16.4 Q-14.15 -16.4 -13.9 -16.6 L-13.7 -17.1 -13.7 -19.5 M-12.9 -20.85 Q-12.3 -20.3 -12.3 -19.15 L-12.3 -17.45 Q-12.3 -16.3 -12.9 -15.75 -13.45 -15.2 -14.5 -15.2 -15.55 -15.2 -16.1 -15.75 -16.7 -16.3 -16.7 -17.45 L-16.7 -19.15 Q-16.7 -20.3 -16.1 -20.85 -15.55 -21.4 -14.5 -21.4 -13.45 -21.4 -12.9 -20.85 M-9.75 -21.3 L-9.75 -20.6 -9.0 -21.15 -8.2 -21.4 Q-7.55 -21.4 -7.25 -21.05 -6.9 -20.7 -6.9 -19.85 L-6.9 -15.3 -8.3 -15.3 -8.3 -19.7 -8.4 -20.15 Q-8.55 -20.35 -8.8 -20.35 L-9.25 -20.2 -9.7 -19.8 -9.7 -15.3 -11.1 -15.3 -11.1 -21.3 -9.75 -21.3 M-2.7 -19.4 L-2.9 -20.05 -3.5 -20.25 -4.1 -20.05 -4.3 -19.4 -4.3 -19.1 -2.7 -19.1 -2.7 -19.4 M-4.65 -21.15 L-3.5 -21.4 -2.35 -21.15 -1.6 -20.45 Q-1.3 -19.95 -1.3 -19.35 L-1.3 -17.95 -4.3 -17.95 -4.3 -17.15 Q-4.3 -16.75 -4.1 -16.5 L-3.5 -16.3 Q-3.05 -16.35 -2.85 -16.55 -2.7 -16.8 -2.7 -17.15 L-1.3 -17.15 Q-1.35 -16.2 -1.9 -15.7 -2.45 -15.2 -3.5 -15.2 L-4.65 -15.45 -5.4 -16.2 -5.7 -17.3 -5.7 -19.25 -5.4 -20.4 -4.65 -21.15 M-21.6 -3.95 Q-21.6 -5.1 -21.0 -5.65 -20.45 -6.2 -19.4 -6.2 -18.35 -6.2 -17.8 -5.65 -17.25 -5.15 -17.2 -4.0 L-18.6 -4.0 -18.6 -4.3 -18.8 -4.8 -19.4 -5.0 -20.0 -4.8 -20.2 -4.3 -20.2 -1.9 -20.0 -1.4 -19.4 -1.2 -18.8 -1.4 -18.6 -1.9 -18.6 -2.3 -17.2 -2.3 -17.2 -2.25 Q-17.2 -1.1 -17.8 -0.55 -18.35 0.0 -19.4 0.0 -20.45 0.0 -21.0 -0.55 -21.6 -1.1 -21.6 -2.25 L-21.6 -3.95 M-27.1 -4.05 L-26.8 -5.2 -26.05 -5.95 -24.9 -6.2 -23.75 -5.95 -23.0 -5.25 Q-22.7 -4.75 -22.7 -4.15 L-22.7 -2.75 -25.7 -2.75 -25.7 -1.95 -25.5 -1.3 -24.9 -1.1 Q-24.45 -1.15 -24.25 -1.35 -24.1 -1.6 -24.1 -1.95 L-22.7 -1.95 Q-22.75 -1.0 -23.3 -0.5 -23.85 0.0 -24.9 0.0 L-26.05 -0.25 -26.8 -1.0 -27.1 -2.1 -27.1 -4.05 M-25.7 -4.2 L-25.7 -3.9 -24.1 -3.9 -24.1 -4.2 -24.3 -4.85 -24.9 -5.05 -25.5 -4.85 -25.7 -4.2 M-30.6 -4.9 L-30.75 -4.55 -30.5 -4.05 -29.8 -3.7 -29.0 -3.25 -28.35 -2.7 Q-28.05 -2.35 -28.05 -1.8 -28.05 -1.2 -28.3 -0.8 -28.6 -0.4 -29.0 -0.2 L-30.05 0.0 -30.85 -0.1 -31.6 -0.6 -32.3 -1.7 -31.05 -2.05 -30.7 -1.35 Q-30.45 -1.1 -30.05 -1.1 L-29.55 -1.25 Q-29.4 -1.4 -29.4 -1.65 -29.4 -2.0 -29.65 -2.2 L-30.35 -2.55 -31.15 -2.95 -31.8 -3.55 -32.1 -4.5 -31.8 -5.45 -31.1 -6.0 -30.2 -6.2 Q-29.4 -6.2 -28.9 -5.8 -28.35 -5.4 -28.1 -4.7 L-29.25 -4.25 -29.65 -4.85 -30.2 -5.05 -30.6 -4.9 M-39.1 -4.6 L-39.15 -3.75 -39.15 -2.45 -39.1 -1.55 -38.85 -1.15 -38.5 -1.05 -38.05 -1.15 -37.65 -1.45 -37.65 -4.7 -38.05 -5.05 -38.5 -5.15 -38.85 -5.05 -39.1 -4.6 M-32.65 -19.5 L-32.85 -20.0 -33.45 -20.2 -34.05 -20.0 -34.25 -19.5 -34.25 -17.1 -34.05 -16.6 -33.45 -16.4 -32.85 -16.6 Q-32.65 -16.75 -32.65 -17.1 L-32.65 -19.5 M-31.85 -20.85 Q-31.25 -20.3 -31.25 -19.15 L-31.25 -17.45 Q-31.25 -16.3 -31.85 -15.75 -32.4 -15.2 -33.45 -15.2 -34.5 -15.2 -35.05 -15.75 -35.65 -16.3 -35.65 -17.45 L-35.65 -19.15 Q-35.65 -20.3 -35.05 -20.85 -34.5 -21.4 -33.45 -21.4 -32.4 -21.4 -31.85 -20.85 M-24.9 -20.25 L-25.15 -20.35 -25.65 -20.15 -26.05 -19.8 -26.05 -15.3 -27.4 -15.3 -27.4 -19.85 -27.55 -20.25 -27.8 -20.35 -28.25 -20.15 -28.65 -19.8 -28.65 -15.3 -30.05 -15.3 -30.05 -21.3 -28.7 -21.3 -28.7 -20.6 -28.0 -21.15 -27.2 -21.4 -26.55 -21.15 -26.15 -20.5 -25.5 -21.1 -24.7 -21.4 Q-24.05 -21.4 -23.75 -21.0 -23.4 -20.6 -23.4 -19.8 L-23.4 -15.3 -24.8 -15.3 -24.8 -19.85 -24.9 -20.25 M-20.3 -20.25 L-20.7 -19.9 -20.7 -16.65 Q-20.5 -16.45 -20.3 -16.35 L-19.85 -16.25 -19.5 -16.35 -19.25 -16.75 -19.2 -17.65 -19.2 -18.95 -19.25 -19.8 -19.5 -20.25 -19.85 -20.35 -20.3 -20.25 M-22.1 -21.3 L-20.8 -21.3 -20.8 -20.55 -20.45 -20.95 -19.9 -21.25 -19.3 -21.4 Q-18.5 -21.4 -18.15 -20.8 -17.8 -20.15 -17.8 -19.0 L-17.8 -17.55 Q-17.8 -16.4 -18.15 -15.8 -18.5 -15.2 -19.3 -15.2 L-19.9 -15.35 -20.7 -15.85 -20.7 -13.2 -22.1 -13.2 -22.1 -21.3" fill="#000000" fill-rule="evenodd" stroke="none"/>
  </g>
</svg>
