<?xml version="1.0" encoding="UTF-8" standalone="no"?>
<svg xmlns:xlink="http://www.w3.org/1999/xlink" height="545.45px" width="627.85px" xmlns="http://www.w3.org/2000/svg">
  <g transform="matrix(1.0, 0.0, 0.0, 1.0, 12.0, 15.45)">
    <path d="M36.7 -11.1 Q55.75 -12.95 112.35 -10.75 117.35 -10.35 132.5 -10.2 145.3 -9.7 149.0 -7.7 L152.9 -10.2 Q167.95 -18.9 184.1 -13.25 L189.2 -11.5 Q193.15 -10.25 195.1 -10.25 212.4 -9.55 219.8 -7.4 L226.25 -5.25 Q230.7 -3.85 236.35 -2.75 247.7 -0.55 254.45 3.4 257.1 4.95 258.8 6.65 L270.35 6.0 Q294.45 6.0 302.85 9.5 304.95 10.4 307.35 11.9 309.35 13.0 312.25 13.0 327.25 13.0 330.6 10.2 L332.3 7.85 Q333.1 6.4 334.6 5.75 L338.5 5.15 Q341.45 5.05 351.35 5.25 353.5 5.65 355.3 7.3 356.95 8.75 357.85 8.75 L368.65 7.4 383.35 6.0 Q398.6 6.0 407.75 8.1 L407.9 8.0 Q411.0 6.2 420.55 5.25 L448.2 3.25 496.1 -0.5 Q504.9 -1.3 517.4 -3.55 L535.2 -6.35 Q553.95 -8.25 571.6 0.5 580.3 1.0 586.1 5.0 L593.75 10.25 Q597.9 13.3 599.85 16.25 608.35 29.0 612.0 38.9 615.85 49.45 615.85 61.25 L610.35 110.65 Q604.85 160.45 604.85 177.5 604.85 224.15 603.0 249.2 601.25 272.9 597.85 283.8 L597.85 299.75 Q597.85 319.4 595.85 330.0 593.85 340.6 593.85 349.25 593.85 356.5 595.85 420.5 595.9 422.35 599.9 454.05 603.85 485.3 603.85 491.0 L603.85 491.55 605.3 492.05 Q608.85 493.75 608.85 499.25 608.85 506.1 598.65 509.15 590.8 511.45 566.85 513.75 L529.8 517.9 Q500.35 521.0 487.35 521.0 473.7 521.0 466.5 519.55 464.45 521.0 461.35 521.0 454.0 521.0 452.15 511.35 440.95 511.85 425.35 511.85 400.2 511.85 384.5 509.45 L383.9 515.05 Q381.6 530.0 374.85 530.0 369.6 530.0 367.8 524.0 L366.85 524.0 Q358.55 524.0 334.55 521.25 307.95 518.2 282.9 514.0 239.6 506.75 223.45 500.0 220.45 503.0 218.85 503.0 216.0 503.0 214.05 500.65 L212.85 500.85 177.35 501.5 144.85 501.85 149.75 501.6 Q118.55 502.6 100.7 501.6 L97.75 504.7 Q97.25 505.8 95.6 506.55 L95.15 506.75 Q93.1 508.0 91.35 508.0 L89.95 507.95 67.85 509.0 Q5.85 509.0 -6.75 501.55 -11.15 498.95 -10.55 494.7 -9.0 490.05 -9.0 488.0 L-7.0 430.25 Q-7.0 406.95 -9.5 389.0 -12.0 371.05 -12.0 354.85 -12.0 350.35 -9.8 344.1 L-5.0 332.1 Q-1.1 322.45 0.65 313.95 -0.85 310.1 -1.2 303.75 -1.4 299.3 -1.05 290.75 -0.75 283.05 -1.0 280.85 -3.9 257.0 -6.75 241.25 -9.7 224.7 -10.1 202.0 L-10.0 162.5 Q-10.0 122.2 -6.5 100.5 -4.55 88.5 -4.1 83.65 -3.0 72.55 -3.0 55.25 L-4.0 38.4 -5.0 21.5 Q-5.4 14.55 -5.3 10.9 -5.1 4.45 -2.7 0.15 4.0 -11.75 31.85 -14.75 L36.7 -11.1 M327.55 150.55 Q324.9 153.0 319.85 153.0 L313.1 151.7 305.35 150.25 Q304.05 150.1 286.2 150.5 L275.25 150.6 274.85 151.4 Q273.95 152.8 271.65 153.0 L256.6 152.25 242.0 152.15 Q235.85 152.2 232.2 153.05 224.8 154.8 213.35 165.25 211.15 167.25 211.3 169.45 211.4 171.15 209.95 171.7 206.55 172.9 163.6 175.5 145.4 176.65 132.85 184.4 128.3 187.2 123.0 191.8 L118.45 195.9 Q120.9 198.5 122.7 202.9 125.85 210.7 125.85 219.75 125.85 225.95 122.1 231.0 116.15 239.0 102.85 239.0 L78.05 237.55 Q77.2 241.0 76.45 245.6 75.4 252.25 74.85 258.35 74.85 269.2 78.15 280.15 80.4 287.6 85.35 298.2 91.25 310.8 92.55 314.25 93.9 317.8 94.7 321.1 99.2 322.1 102.85 328.5 103.95 332.3 104.4 337.5 L104.85 346.5 Q105.45 356.45 108.9 365.65 112.8 376.25 119.35 382.5 122.05 385.1 135.9 414.6 L135.85 417.0 Q135.85 417.75 136.3 419.1 L137.35 419.5 Q144.45 425.55 162.6 427.15 L185.6 428.5 204.0 430.4 218.05 432.1 218.7 431.0 Q219.75 429.65 223.3 427.4 231.35 422.35 234.85 410.75 237.15 403.3 243.95 393.3 250.1 384.3 250.1 383.75 250.1 381.85 248.0 376.15 245.85 370.45 245.85 362.0 L245.35 349.9 244.85 341.0 Q244.85 338.25 247.55 332.85 L247.35 332.7 247.8 332.4 Q249.0 329.95 250.35 327.9 L251.0 325.15 Q251.4 322.95 251.5 318.0 L251.5 317.95 259.75 303.5 267.0 289.45 278.75 273.75 288.3 260.5 290.65 258.6 291.2 258.15 295.25 258.5 298.5 258.3 Q305.1 261.7 307.75 265.75 311.05 271.05 313.2 273.8 317.3 279.1 320.1 280.2 L320.55 281.35 Q324.2 291.0 325.5 293.4 328.2 298.45 331.7 306.1 334.95 313.2 337.0 316.95 L340.7 323.25 344.0 328.95 345.65 330.7 348.05 331.05 348.0 331.65 348.75 334.2 349.1 334.75 Q349.8 335.7 350.85 336.2 L350.3 337.3 350.85 339.0 Q352.1 343.5 351.85 348.35 351.85 352.2 345.75 364.25 L339.6 375.75 Q339.6 382.25 344.35 390.85 347.15 395.9 354.75 406.5 362.25 416.95 365.1 422.25 369.85 430.95 369.85 437.6 L369.15 440.5 378.25 441.1 389.1 441.6 405.2 442.65 420.35 444.1 Q424.3 444.5 429.9 445.8 L436.6 447.35 454.65 450.85 452.9 447.9 Q450.85 443.3 450.85 436.0 450.85 433.2 462.55 416.25 L475.1 398.5 Q482.4 385.9 490.4 377.4 L492.15 375.65 494.1 369.45 Q498.9 354.3 500.85 345.5 500.45 333.15 501.35 327.0 502.9 315.95 508.85 308.0 513.2 302.2 522.95 290.25 531.55 279.25 535.85 270.5 L537.35 267.15 Q533.25 265.55 529.1 261.15 523.45 253.95 522.1 253.25 518.3 251.2 507.8 247.2 505.55 246.35 504.75 245.4 503.85 244.3 503.85 242.0 503.85 239.05 504.75 237.15 506.35 233.7 510.85 232.25 501.45 226.35 477.6 201.7 454.85 178.15 454.85 176.1 454.85 173.05 456.25 171.2 458.05 168.8 462.85 167.0 L463.1 166.5 462.9 166.5 Q417.8 162.7 375.4 157.0 347.3 153.25 328.55 149.45 L327.55 150.55 M409.3 227.5 Q408.5 230.65 404.9 230.65 403.2 230.65 402.15 229.9 L393.3 230.2 Q374.8 230.2 370.8 235.7 L368.85 239.45 Q367.9 241.0 365.35 241.15 364.5 239.55 358.55 233.25 351.3 225.65 347.3 222.8 345.45 221.45 343.3 219.05 L348.2 216.5 Q355.55 212.6 362.55 208.5 L368.8 205.15 373.3 204.45 Q378.2 203.55 379.25 200.6 L379.45 200.6 Q380.5 200.15 382.0 200.05 386.85 199.65 393.15 202.4 399.95 205.4 404.3 210.45 409.4 216.35 409.4 223.4 L409.3 227.5 M328.9 361.1 L329.1 361.5 329.1 361.0 328.9 361.1 M246.1 135.75 L245.35 136.05 246.25 136.0 246.1 135.75 M245.0 219.0 L246.1 221.55 Q242.65 223.6 238.75 227.05 234.3 230.55 229.9 234.4 224.15 239.4 222.1 241.95 L220.9 240.6 Q220.05 238.4 219.8 238.15 219.0 237.4 214.4 236.25 L209.5 235.15 Q199.8 232.25 190.35 231.75 L188.25 232.15 Q185.2 232.15 184.3 229.9 L184.0 227.55 Q184.0 222.85 188.45 216.4 192.45 210.65 198.25 205.9 204.05 201.15 208.05 200.4 L208.65 200.3 209.05 200.3 Q209.25 202.25 210.55 203.3 211.85 204.4 215.1 205.1 L222.65 206.45 Q228.25 207.5 233.05 209.05 L238.3 211.0 238.5 211.3 Q241.9 215.3 244.35 217.2 L245.0 219.0 M289.6 368.25 L289.8 368.15 289.55 368.1 289.6 368.25 M308.25 355.65 L308.3 356.2 312.0 353.45 308.25 355.65" fill="#00ff00" fill-rule="evenodd" stroke="none"/>
  </g>
</svg>
