<?xml version="1.0" encoding="UTF-8" standalone="no"?>
<svg xmlns:xlink="http://www.w3.org/1999/xlink" height="185.75px" width="176.1px" xmlns="http://www.w3.org/2000/svg">
  <g transform="matrix(1.0, 0.0, 0.0, 1.0, 0.0, 0.0)">
    <path d="M149.6 2.6 L165.45 3.0 168.6 3.65 Q172.65 3.7 173.2 4.7 173.5 5.25 173.1 6.35 L174.1 12.5 175.3 18.6 Q176.1 22.6 176.1 24.9 176.1 31.3 172.35 46.7 169.25 59.35 166.55 62.75 L166.55 62.95 166.9 63.95 Q165.25 64.95 163.35 67.1 161.2 69.45 160.0 71.6 158.55 74.25 154.9 79.55 L149.5 87.9 Q146.9 92.45 143.05 106.2 139.6 118.5 139.6 120.25 139.6 121.15 140.35 127.8 140.35 129.7 139.2 130.15 L139.1 130.5 139.6 141.55 Q139.6 149.7 138.0 153.1 136.45 156.35 128.1 166.25 L125.0 169.65 121.6 172.4 Q120.2 173.45 116.75 174.6 112.25 176.1 110.45 176.9 107.25 179.35 102.9 181.5 94.3 185.75 84.95 185.75 79.95 185.75 73.2 183.3 L66.85 180.75 Q63.3 180.0 60.55 177.8 57.85 175.75 57.85 173.95 L54.75 171.55 Q50.7 168.25 46.95 164.65 44.6 162.4 42.1 158.65 L38.0 152.5 Q34.4 147.6 34.3 140.3 34.8 132.05 34.6 127.9 34.05 117.4 27.25 97.55 21.05 80.95 20.65 79.0 L18.65 76.15 12.5 67.15 Q11.75 66.1 11.4 63.85 11.0 61.45 10.45 60.4 L8.4 56.95 Q7.2 55.0 6.85 53.65 L2.65 40.6 Q0.1 32.05 0.1 26.95 L0.15 26.3 Q-0.05 25.15 0.05 23.75 0.7 19.45 0.6 17.65 L0.1 6.5 0.15 5.9 0.1 5.75 Q0.1 3.2 6.05 1.7 12.85 -0.05 26.35 0.0 33.6 0.45 40.4 1.75 L51.1 3.75 Q55.3 4.45 60.6 5.95 66.7 7.7 71.1 9.75 L79.5 14.7 86.85 19.0 90.3 16.4 Q94.8 13.3 100.2 10.75 117.55 2.5 137.7 2.5 L149.6 2.6" fill="#ff3300" fill-rule="evenodd" stroke="none"/>
  </g>
</svg>
