<?xml version="1.0" encoding="UTF-8" standalone="no"?>
<svg xmlns:xlink="http://www.w3.org/1999/xlink" height="127.8px" width="173.7px" xmlns="http://www.w3.org/2000/svg">
  <g transform="matrix(1.0, 0.0, 0.0, 1.0, 0.0, 0.0)">
    <path d="M146.45 96.05 L140.0 103.35 140.8 88.7 155.2 91.7 146.45 96.05 M162.0 118.05 L153.45 127.8 154.5 108.3 173.7 112.25 162.0 118.05 M148.0 7.35 L151.1 11.9 137.15 9.25 149.35 2.05 148.0 7.35 M155.55 6.15 L168.3 0.0 166.55 5.2 169.2 10.0 155.55 6.15 M36.15 9.25 L22.2 11.9 25.3 7.35 23.95 2.05 36.15 9.25 M6.75 5.2 L5.0 0.0 17.75 6.15 4.1 10.0 6.75 5.2 M27.25 96.05 L18.5 91.7 32.9 88.7 33.7 103.35 27.25 96.05 M20.25 127.8 L11.7 118.05 0.0 112.25 19.2 108.3 20.25 127.8" fill="#ffffff" fill-rule="evenodd" stroke="none"/>
  </g>
</svg>
