<?xml version="1.0" encoding="UTF-8" standalone="no"?>
<svg xmlns:xlink="http://www.w3.org/1999/xlink" height="159.75px" width="205.5px" xmlns="http://www.w3.org/2000/svg">
  <g transform="matrix(1.0, 0.0, 0.0, 1.0, -7.55, -3.75)">
    <path d="M148.15 44.85 Q144.1 40.75 147.85 38.0 171.05 25.25 194.3 23.5 173.8 26.45 152.85 37.65 148.05 39.75 149.4 42.5 183.2 70.9 213.05 107.5 182.9 73.95 148.15 44.85 M112.85 19.55 L113.7 19.2 Q148.55 3.9 194.45 3.75 148.55 6.1 114.3 21.5 110.05 22.95 105.8 21.5 72.3 6.1 27.4 3.75 72.85 3.9 107.3 19.25 109.2 20.3 112.85 19.55 M72.75 38.0 Q76.5 40.75 72.45 44.85 37.7 73.95 7.55 107.5 37.4 70.9 71.2 42.5 72.55 39.75 67.75 37.65 46.8 26.45 26.3 23.5 49.55 25.25 72.75 38.0 M114.25 69.15 L114.65 69.55 Q143.8 102.25 166.8 163.2 144.75 109.5 112.45 71.95 110.35 69.05 107.9 72.25 75.6 109.8 53.55 163.5 76.7 102.15 106.15 69.5 109.95 65.7 114.25 69.15" fill="#006699" fill-opacity="0.3019608" fill-rule="evenodd" stroke="none"/>
  </g>
</svg>
