<?xml version="1.0" encoding="UTF-8" standalone="no"?>
<svg xmlns:xlink="http://www.w3.org/1999/xlink" height="154.0px" width="252.0px" xmlns="http://www.w3.org/2000/svg">
  <g transform="matrix(1.0, 0.0, 0.0, 1.0, 126.0, 74.0)">
    <path d="M126.0 50.55 L126.0 70.0 125.7 71.95 Q125.25 73.25 124.25 74.25 122.5 76.0 120.0 76.0 L-120.0 76.0 Q-122.5 76.0 -124.25 74.25 -125.3 73.25 -125.7 71.95 L-126.0 70.0 -126.0 50.55 126.0 50.55 -126.0 50.55 -126.0 -68.0 Q-126.0 -70.5 -124.25 -72.25 -122.5 -74.0 -120.0 -74.0 L120.0 -74.0 Q122.5 -74.0 124.25 -72.25 125.95 -70.5 126.0 -68.0 L126.0 50.55" fill="#000000" fill-opacity="0.023529412" fill-rule="evenodd" stroke="none"/>
    <path d="M122.25 -70.25 Q123.95 -68.5 124.0 -66.0 L124.0 74.0 123.7 75.95 Q123.25 77.25 122.25 78.25 120.5 80.0 118.0 80.0 L-118.0 80.0 Q-120.5 80.0 -122.25 78.25 -123.3 77.25 -123.7 75.95 L-124.0 74.0 -124.0 -66.0 Q-124.0 -68.5 -122.25 -70.25 -120.5 -72.0 -118.0 -72.0 L118.0 -72.0 Q120.5 -72.0 122.25 -70.25" fill="#000000" fill-opacity="0.043137256" fill-rule="evenodd" stroke="none"/>
    <path d="M116.0 -70.0 Q118.5 -70.0 120.25 -68.25 121.95 -66.5 122.0 -64.0 L122.0 72.0 121.7 73.95 Q121.25 75.25 120.25 76.25 118.5 78.0 116.0 78.0 L-116.0 78.0 Q-118.5 78.0 -120.25 76.25 -121.3 75.25 -121.7 73.95 L-122.0 72.0 -122.0 -64.0 Q-122.0 -66.5 -120.25 -68.25 -118.5 -70.0 -116.0 -70.0 L116.0 -70.0" fill="#000000" fill-opacity="0.08235294" fill-rule="evenodd" stroke="none"/>
    <path d="M114.0 -67.0 Q116.5 -67.0 118.25 -65.25 119.95 -63.5 120.0 -61.0 L120.0 67.0 119.7 68.95 Q119.25 70.25 118.25 71.25 116.5 73.0 114.0 73.0 L-114.0 73.0 Q-116.5 73.0 -118.25 71.25 -119.3 70.25 -119.7 68.95 L-120.0 67.0 -120.0 -61.0 Q-120.0 -63.5 -118.25 -65.25 -116.5 -67.0 -114.0 -67.0 L114.0 -67.0" fill="#ffffff" fill-rule="evenodd" stroke="none"/>
    <path d="M105.0 -57.0 Q107.05 -57.0 108.5 -55.55 110.0 -54.1 110.0 -52.05 L110.0 -5.1 Q110.0 -3.05 108.5 -1.6 107.05 -0.1 105.0 -0.1 L-105.0 -0.1 Q-107.05 -0.1 -108.55 -1.6 -110.0 -3.05 -110.0 -5.1 L-110.0 -52.05 Q-110.0 -54.1 -108.55 -55.55 -107.05 -57.0 -105.0 -57.0 L105.0 -57.0" fill="#336699" fill-rule="evenodd" stroke="none"/>
  </g>
</svg>
