<?xml version="1.0" encoding="UTF-8" standalone="no"?>
<svg xmlns:xlink="http://www.w3.org/1999/xlink" height="18.6px" width="168.25px" xmlns="http://www.w3.org/2000/svg">
  <g transform="matrix(1.0, 0.0, 0.0, 1.0, 83.75, 8.65)">
    <path d="M17.1 -3.25 L17.35 -3.25 Q18.45 -3.1 18.45 -2.1 18.45 -1.0 16.95 -1.0 L13.5 -1.0 13.5 -3.25 17.1 -3.25 M17.2 -2.4 L17.1 -2.4 14.4 -2.4 14.4 -1.9 17.0 -1.9 Q17.55 -1.9 17.6 -2.15 L17.3 -2.4 17.2 -2.4 17.3 -2.4 17.6 -2.15 Q17.55 -1.9 17.0 -1.9 L14.4 -1.9 14.4 -2.4 17.1 -2.4 17.2 -2.4 M29.8 2.9 Q30.95 3.9 30.95 5.25 30.95 6.55 29.8 7.55 28.8 8.5 27.25 8.55 25.7 8.5 24.65 7.55 23.55 6.55 23.55 5.25 23.55 3.9 24.65 2.9 25.7 1.95 27.25 1.95 28.8 1.95 29.8 2.9 M28.9 3.75 Q28.2 3.05 27.15 3.05 26.1 3.05 25.4 3.75 24.65 4.4 24.65 5.3 24.65 6.2 25.4 6.9 26.1 7.55 27.15 7.55 28.2 7.55 28.9 6.9 29.65 6.2 29.65 5.3 29.65 4.4 28.9 3.75 M57.05 -0.95 Q56.5 -1.45 55.75 -1.45 55.0 -1.45 54.45 -0.95 53.95 -0.5 53.95 0.2 53.95 0.85 54.45 1.3 55.0 1.8 55.75 1.8 56.5 1.8 57.1 1.3 57.55 0.85 57.6 0.2 L57.05 -0.95 M57.35 -1.15 L57.3 -1.2 57.35 -1.15 M53.55 -1.8 Q54.45 -2.65 55.75 -2.6 57.0 -2.65 57.95 -1.8 58.85 -0.9 58.85 0.25 58.85 1.4 57.95 2.25 57.05 3.1 55.75 3.1 54.45 3.1 53.55 2.25 52.65 1.4 52.65 0.25 52.65 -1.0 53.55 -1.8" fill="#ffffff" fill-rule="evenodd" stroke="none"/>
    <path d="M74.35 -2.1 L78.15 -7.1 83.1 -7.1 83.1 7.55 78.15 7.55 78.15 2.6 74.35 7.55 70.7 2.6 70.7 7.55 65.75 7.55 65.75 -7.1 70.7 -7.1 74.35 -2.1" fill="url(#gradient0)" fill-rule="evenodd" stroke="none"/>
    <path d="M-82.35 -7.1 L-75.6 -7.1 -71.9 -2.1 -68.15 -7.1 -63.2 -7.1 -63.2 7.55 -68.15 7.55 -68.15 2.6 -71.9 7.55 -75.6 2.6 -75.6 7.55 -80.55 7.55 -80.55 -2.6 -82.35 -2.6 -82.35 -7.1" fill="url(#gradient1)" fill-rule="evenodd" stroke="none"/>
    <path d="M-55.75 -7.1 L-55.75 7.55 -60.75 7.55 -60.75 -7.1 -55.75 -7.1" fill="url(#gradient2)" fill-rule="evenodd" stroke="none"/>
    <path d="M-10.2 3.1 L-0.25 3.1 -0.25 7.55 -15.15 7.55 -15.15 -7.05 -10.2 -7.1 -10.2 3.1" fill="url(#gradient3)" fill-rule="evenodd" stroke="none"/>
    <path d="M-25.8 0.25 Q-25.8 1.4 -24.9 2.25 -23.95 3.1 -22.65 3.1 L-17.1 3.1 -17.1 7.55 -22.65 7.55 Q-26.1 7.55 -28.4 5.4 -30.75 3.25 -30.75 0.25 -30.75 -2.75 -28.4 -4.9 -26.0 -7.1 -22.65 -7.1 L-17.1 -7.1 -17.1 -2.6 -22.65 -2.6 Q-23.95 -2.65 -24.9 -1.8 -25.8 -0.95 -25.8 0.25" fill="url(#gradient4)" fill-rule="evenodd" stroke="none"/>
    <path d="M-32.0 -7.1 L-32.0 7.55 -36.95 7.55 -36.95 -7.1 -32.0 -7.1" fill="url(#gradient5)" fill-rule="evenodd" stroke="none"/>
    <path d="M-53.75 -7.1 Q-50.2 -7.1 -47.35 -5.85 -44.8 -4.75 -43.95 -3.25 L-43.95 -7.1 -38.9 -7.1 -38.9 7.55 -43.95 7.55 Q-43.95 3.3 -45.95 1.4 -47.35 0.1 -48.9 0.1 L-48.9 7.55 -53.85 7.55 -53.85 -7.1 -53.75 -7.1" fill="url(#gradient6)" fill-rule="evenodd" stroke="none"/>
    <path d="M18.0 -7.1 Q20.25 -7.1 21.85 -5.65 23.45 -4.15 23.45 -2.1 23.45 -0.05 21.85 1.35 20.3 2.85 18.0 2.85 L13.5 2.85 13.5 7.55 8.55 7.55 8.55 -7.05 18.0 -7.1 M17.1 -3.25 L13.5 -3.25 13.5 -1.0 16.95 -1.0 Q18.45 -1.0 18.45 -2.1 18.45 -3.1 17.35 -3.25 L17.1 -3.25" fill="url(#gradient7)" fill-rule="evenodd" stroke="none"/>
    <path d="M28.9 3.75 Q29.65 4.4 29.65 5.3 29.65 6.2 28.9 6.9 28.2 7.55 27.15 7.55 26.1 7.55 25.4 6.9 24.65 6.2 24.65 5.3 24.65 4.4 25.4 3.75 26.1 3.05 27.15 3.05 28.2 3.05 28.9 3.75" fill="url(#gradient8)" fill-rule="evenodd" stroke="none"/>
    <path d="M34.5 -4.9 Q36.85 -7.1 40.2 -7.1 L45.8 -7.1 45.8 -2.6 40.2 -2.6 Q38.95 -2.65 38.0 -1.8 37.1 -1.0 37.15 0.25 37.1 1.4 38.0 2.25 38.95 3.1 40.2 3.1 L45.8 3.1 45.8 7.55 40.2 7.55 Q36.8 7.55 34.5 5.4 32.1 3.25 32.1 0.25 32.1 -2.75 34.5 -4.9" fill="url(#gradient9)" fill-rule="evenodd" stroke="none"/>
    <path d="M6.45 -7.1 L6.45 7.55 1.5 7.55 1.5 -7.1 6.45 -7.1" fill="url(#gradient10)" fill-rule="evenodd" stroke="none"/>
    <path d="M53.55 -1.8 Q52.65 -1.0 52.65 0.25 52.65 1.4 53.55 2.25 54.45 3.1 55.75 3.1 57.05 3.1 57.95 2.25 58.85 1.4 58.85 0.25 58.85 -0.9 57.95 -1.8 57.0 -2.65 55.75 -2.6 54.45 -2.65 53.55 -1.8 M50.05 -4.9 Q52.4 -7.1 55.75 -7.1 59.05 -7.1 61.5 -4.9 63.85 -2.75 63.85 0.25 63.85 3.25 61.5 5.4 59.15 7.55 55.75 7.55 52.35 7.55 50.0 5.4 47.65 3.25 47.65 0.25 47.65 -2.75 50.05 -4.9" fill="url(#gradient11)" fill-rule="evenodd" stroke="none"/>
    <path d="M18.0 -8.55 Q20.8 -8.55 22.75 -6.8 L22.9 -6.7 Q24.95 -4.8 24.95 -2.15 24.95 0.55 22.9 2.45 L22.8 2.5 Q20.9 4.25 18.0 4.25 L15.0 4.25 15.0 8.95 -15.15 8.95 -22.65 8.95 Q-26.65 8.95 -29.3 6.45 L-29.4 6.35 -30.5 5.2 -30.5 8.95 -45.3 8.95 -45.3 7.5 Q-45.35 4.05 -46.9 2.45 L-47.4 2.05 -47.4 8.95 -62.5 8.95 -62.5 -8.55 -53.7 -8.55 Q-49.9 -8.55 -46.75 -7.15 L-45.3 -6.5 -45.3 -7.1 -45.3 -7.15 -45.3 -8.55 -30.5 -8.55 -30.5 -4.75 -29.3 -6.05 Q-26.55 -8.55 -22.65 -8.55 L-8.7 -8.55 -8.7 -7.15 -8.7 -7.1 -8.7 1.6 -0.2 1.6 0.1 1.6 0.1 -7.1 0.1 -7.15 0.1 -8.55 18.0 -8.55 M6.45 -7.1 L1.5 -7.1 1.5 7.55 6.45 7.55 6.45 -7.1 M18.0 -7.1 L8.55 -7.05 8.55 7.55 13.5 7.55 13.5 2.85 18.0 2.85 Q20.3 2.85 21.85 1.35 23.45 -0.05 23.45 -2.1 23.45 -4.15 21.85 -5.65 20.25 -7.1 18.0 -7.1 M-10.2 3.1 L-10.2 -7.1 -15.15 -7.05 -15.15 7.55 -0.25 7.55 -0.25 3.1 -10.2 3.1 M-32.0 -7.1 L-36.95 -7.1 -36.95 7.55 -32.0 7.55 -32.0 -7.1 M-22.65 3.1 Q-23.95 3.1 -24.9 2.25 -25.8 1.4 -25.8 0.25 -25.8 -0.95 -24.9 -1.8 -23.95 -2.65 -22.65 -2.6 L-17.1 -2.6 -17.1 -7.1 -22.65 -7.1 Q-26.0 -7.1 -28.4 -4.9 -30.75 -2.75 -30.75 0.25 -30.75 3.25 -28.4 5.4 -26.1 7.55 -22.65 7.55 L-17.1 7.55 -17.1 3.1 -22.65 3.1 M-23.9 -0.75 Q-24.3 -0.35 -24.3 0.2 -24.3 0.75 -23.9 1.15 -23.4 1.6 -22.65 1.6 L-16.6 1.6 -16.6 -1.2 -17.1 -1.2 -22.65 -1.2 Q-23.4 -1.2 -23.9 -0.75 M-55.75 -7.1 L-60.75 -7.1 -60.75 7.55 -55.75 7.55 -55.75 -7.1 M-53.75 -7.1 L-53.85 -7.1 -53.85 7.55 -48.9 7.55 -48.9 0.1 Q-47.35 0.1 -45.95 1.4 -43.95 3.3 -43.95 7.55 L-38.9 7.55 -38.9 5.15 -38.9 5.0 -38.9 1.2 -38.9 -3.35 -38.9 -5.0 -38.9 -6.9 -38.9 -7.1 -43.95 -7.1 -43.95 -3.25 Q-44.8 -4.75 -47.35 -5.85 -50.2 -7.1 -53.75 -7.1 M22.45 2.6 L22.55 2.6 22.5 2.6 22.45 2.6" fill="#ffffff" fill-rule="evenodd" stroke="none"/>
    <path d="M-83.75 -8.55 L-75.6 -8.55 -74.95 -8.4 -74.9 -8.4 -74.4 -7.95 -74.45 -7.95 -71.85 -4.55 -69.25 -7.95 -69.25 -8.0 -68.75 -8.4 -68.1 -8.55 -62.5 -8.55 -62.5 8.95 -69.6 8.95 -69.6 6.9 -70.15 7.65 -70.2 7.7 -71.85 9.95 -74.1 6.9 -74.1 7.5 -74.1 7.55 -74.1 7.7 -74.1 7.75 -74.1 8.95 -81.95 8.95 -81.95 7.55 -81.95 7.5 -81.95 -1.2 -82.35 -1.2 -83.75 -1.2 -83.75 -2.6 -83.75 -2.65 -83.75 -7.1 -83.75 -7.15 -83.75 -8.55 M-82.35 -2.6 L-80.55 -2.6 -80.55 7.55 -75.6 7.55 -75.6 2.6 -71.9 7.55 -68.15 2.6 -68.15 7.55 -63.2 7.55 -63.2 -7.1 -68.15 -7.1 -71.9 -2.1 -75.6 -7.1 -82.35 -7.1 -82.35 -2.6" fill="#ffffff" fill-rule="evenodd" stroke="none"/>
    <path d="M40.2 -1.2 Q39.55 -1.2 39.05 -0.8 L38.95 -0.7 Q38.5 -0.35 38.55 0.2 38.5 0.75 38.95 1.15 L40.2 1.6 46.05 1.6 45.95 0.25 46.1 -1.2 40.2 -1.2 M34.5 -4.9 Q32.1 -2.75 32.1 0.25 32.1 3.25 34.5 5.4 36.8 7.55 40.2 7.55 L45.8 7.55 45.8 3.1 40.2 3.1 Q38.95 3.1 38.0 2.25 37.1 1.4 37.15 0.25 37.1 -1.0 38.0 -1.8 38.95 -2.65 40.2 -2.6 L45.8 -2.6 45.8 -7.1 40.2 -7.1 Q36.85 -7.1 34.5 -4.9 M30.65 0.2 Q30.65 -3.4 33.5 -6.05 36.3 -8.55 40.2 -8.55 L47.25 -8.55 47.25 -7.1 47.25 -4.15 48.9 -6.05 Q51.75 -8.65 55.8 -8.65 59.8 -8.65 62.75 -6.05 L64.25 -4.35 64.25 -8.55 70.7 -8.55 71.35 -8.4 71.85 -7.95 74.4 -4.6 76.95 -7.95 76.95 -8.0 77.45 -8.4 78.1 -8.55 78.15 -8.55 84.5 -8.55 84.5 -7.15 84.5 -7.1 84.5 7.5 84.5 7.55 84.5 8.95 76.65 8.95 76.65 8.9 76.65 8.65 76.65 8.4 76.65 8.35 76.65 8.1 76.65 8.05 76.65 6.95 74.4 9.95 72.15 6.95 72.15 7.5 72.15 7.55 72.15 7.7 72.15 7.75 72.15 8.95 64.25 8.95 64.25 4.85 62.75 6.5 Q59.9 9.1 55.8 9.1 51.65 9.1 48.8 6.5 L47.25 4.65 47.25 7.55 47.25 8.95 40.2 8.95 Q36.2 8.95 33.5 6.45 L33.4 6.35 Q30.65 3.8 30.65 0.2 M47.65 0.25 Q47.65 3.25 50.0 5.4 52.35 7.55 55.75 7.55 59.15 7.55 61.5 5.4 63.85 3.25 63.85 0.25 63.85 -2.75 61.5 -4.9 59.05 -7.1 55.75 -7.1 52.4 -7.1 50.05 -4.9 47.65 -2.75 47.65 0.25 M74.4 -2.1 L74.35 -2.1 70.65 -7.1 65.75 -7.1 65.75 7.55 70.7 7.55 70.7 2.6 74.4 7.5 78.15 2.6 78.15 7.55 83.1 7.55 83.1 -7.1 78.15 -7.1 74.4 -2.1" fill="#ffffff" fill-rule="evenodd" stroke="none"/>
  </g>
  <defs>
    <linearGradient gradientTransform="matrix(0.0, 0.0089, -0.0089, 0.0, 74.35, 0.25)" gradientUnits="userSpaceOnUse" id="gradient0" spreadMethod="pad" x1="-819.2" x2="819.2">
      <stop offset="0.0" stop-color="#ff8a00"/>
      <stop offset="1.0" stop-color="#e60012"/>
    </linearGradient>
    <linearGradient gradientTransform="matrix(0.0, 0.0089, -0.0089, 0.0, -72.75, 0.25)" gradientUnits="userSpaceOnUse" id="gradient1" spreadMethod="pad" x1="-819.2" x2="819.2">
      <stop offset="0.0" stop-color="#ff8a00"/>
      <stop offset="1.0" stop-color="#e60012"/>
    </linearGradient>
    <linearGradient gradientTransform="matrix(0.0, 0.0089, -0.0089, 0.0, -58.3, 0.25)" gradientUnits="userSpaceOnUse" id="gradient2" spreadMethod="pad" x1="-819.2" x2="819.2">
      <stop offset="0.0" stop-color="#ff8a00"/>
      <stop offset="1.0" stop-color="#e60012"/>
    </linearGradient>
    <linearGradient gradientTransform="matrix(0.0, 0.0089, -0.0089, 0.0, -7.7, 0.25)" gradientUnits="userSpaceOnUse" id="gradient3" spreadMethod="pad" x1="-819.2" x2="819.2">
      <stop offset="0.0" stop-color="#ff8a00"/>
      <stop offset="1.0" stop-color="#e60012"/>
    </linearGradient>
    <linearGradient gradientTransform="matrix(0.0, 0.0089, -0.0089, 0.0, -23.95, 0.25)" gradientUnits="userSpaceOnUse" id="gradient4" spreadMethod="pad" x1="-819.2" x2="819.2">
      <stop offset="0.0" stop-color="#ff8a00"/>
      <stop offset="1.0" stop-color="#e60012"/>
    </linearGradient>
    <linearGradient gradientTransform="matrix(0.0, 0.0089, -0.0089, 0.0, -34.5, 0.25)" gradientUnits="userSpaceOnUse" id="gradient5" spreadMethod="pad" x1="-819.2" x2="819.2">
      <stop offset="0.0" stop-color="#ff8a00"/>
      <stop offset="1.0" stop-color="#e60012"/>
    </linearGradient>
    <linearGradient gradientTransform="matrix(0.0, 0.0089, -0.0089, 0.0, -46.4, 0.25)" gradientUnits="userSpaceOnUse" id="gradient6" spreadMethod="pad" x1="-819.2" x2="819.2">
      <stop offset="0.0" stop-color="#ff8a00"/>
      <stop offset="1.0" stop-color="#e60012"/>
    </linearGradient>
    <linearGradient gradientTransform="matrix(0.0, 0.0088, -0.0089, 0.0, 15.95, 0.25)" gradientUnits="userSpaceOnUse" id="gradient7" spreadMethod="pad" x1="-819.2" x2="819.2">
      <stop offset="0.0" stop-color="#ff8a00"/>
      <stop offset="1.0" stop-color="#e60012"/>
    </linearGradient>
    <linearGradient gradientTransform="matrix(0.0, 0.0087, -0.0027, 0.0, 26.7, 0.65)" gradientUnits="userSpaceOnUse" id="gradient8" spreadMethod="pad" x1="-819.2" x2="819.2">
      <stop offset="0.0" stop-color="#ff8a00"/>
      <stop offset="1.0" stop-color="#e60012"/>
    </linearGradient>
    <linearGradient gradientTransform="matrix(0.0, 0.0089, -0.0089, 0.0, 38.95, 0.25)" gradientUnits="userSpaceOnUse" id="gradient9" spreadMethod="pad" x1="-819.2" x2="819.2">
      <stop offset="0.0" stop-color="#ff8a00"/>
      <stop offset="1.0" stop-color="#e60012"/>
    </linearGradient>
    <linearGradient gradientTransform="matrix(0.0, 0.0089, -0.0089, 0.0, 3.95, 0.25)" gradientUnits="userSpaceOnUse" id="gradient10" spreadMethod="pad" x1="-819.2" x2="819.2">
      <stop offset="0.0" stop-color="#ff8a00"/>
      <stop offset="1.0" stop-color="#e60012"/>
    </linearGradient>
    <linearGradient gradientTransform="matrix(0.0, 0.0089, -0.0089, 0.0, 55.75, 0.25)" gradientUnits="userSpaceOnUse" id="gradient11" spreadMethod="pad" x1="-819.2" x2="819.2">
      <stop offset="0.0" stop-color="#ff8a00"/>
      <stop offset="1.0" stop-color="#e60012"/>
    </linearGradient>
  </defs>
</svg>
