<?xml version="1.0" encoding="UTF-8" standalone="no"?>
<svg xmlns:xlink="http://www.w3.org/1999/xlink" height="17.6px" width="166.8px" xmlns="http://www.w3.org/2000/svg">
  <g transform="matrix(1.0, 0.0, 0.0, 1.0, 83.4, 8.8)">
    <path d="M56.45 -1.4 L56.5 -1.35 56.45 -1.4 M53.6 -1.15 Q53.1 -0.7 53.15 -0.05 53.1 0.6 53.6 1.05 54.15 1.55 54.9 1.55 55.65 1.55 56.25 1.05 56.7 0.6 56.75 -0.05 L56.2 -1.15 Q55.65 -1.65 54.9 -1.65 54.15 -1.65 53.6 -1.15 M38.35 -1.05 L38.25 -0.9 Q37.8 -0.6 37.85 0.0 37.85 0.55 38.25 0.9 38.75 1.35 39.5 1.35 L45.05 1.35 45.3 1.4 45.2 0.0 Q45.2 -0.75 45.35 -1.45 L45.05 -1.4 39.5 -1.4 38.35 -1.05 M32.85 -6.2 Q35.6 -8.7 39.5 -8.7 L45.05 -8.7 Q45.6 -8.7 46.05 -8.25 46.5 -7.85 46.5 -7.25 L46.5 -4.3 Q47.1 -5.35 48.1 -6.2 50.95 -8.8 54.95 -8.8 58.95 -8.8 61.85 -6.2 L63.35 -4.5 63.35 -7.25 Q63.3 -7.85 63.75 -8.25 64.2 -8.7 64.75 -8.7 L69.7 -8.7 70.3 -8.55 70.35 -8.55 70.85 -8.1 73.35 -4.75 75.95 -8.1 75.95 -8.15 76.45 -8.55 77.05 -8.7 82.0 -8.7 83.0 -8.25 Q83.4 -7.85 83.4 -7.25 L83.4 7.2 Q83.4 7.8 83.0 8.25 82.55 8.65 82.0 8.65 L77.05 8.65 Q76.5 8.65 76.05 8.25 75.6 7.8 75.65 7.2 L75.65 6.65 74.55 8.1 73.8 8.6 73.75 8.6 72.95 8.6 72.9 8.6 72.2 8.1 71.15 6.65 71.15 7.2 70.7 8.25 Q70.25 8.65 69.7 8.65 L64.75 8.65 Q64.2 8.65 63.75 8.25 63.3 7.8 63.35 7.2 L63.35 4.6 61.85 6.25 Q59.0 8.8 54.95 8.8 50.85 8.8 48.05 6.25 L46.5 4.4 46.5 7.2 Q46.5 7.8 46.05 8.25 45.6 8.65 45.05 8.65 L39.5 8.65 Q35.5 8.65 32.85 6.2 L32.75 6.1 Q30.0 3.55 30.05 0.0 30.0 -3.6 32.85 -6.2 M13.9 -2.6 L13.9 -2.1 16.5 -2.1 Q17.0 -2.1 17.1 -2.35 17.05 -2.55 16.8 -2.55 L16.7 -2.6 16.6 -2.6 13.9 -2.6 M7.1 -8.25 Q7.5 -8.65 8.1 -8.65 L17.5 -8.7 Q20.25 -8.7 22.25 -6.95 L22.3 -6.9 Q24.35 -5.0 24.35 -2.35 24.35 0.35 22.3 2.2 L22.25 2.25 Q20.3 3.95 17.5 4.0 L14.55 4.0 14.55 7.2 Q14.5 7.8 14.1 8.25 13.65 8.65 13.05 8.65 L8.1 8.65 Q7.55 8.65 7.1 8.25 L7.1 8.2 7.1 8.25 Q6.65 8.65 6.05 8.65 L1.15 8.65 Q0.65 8.65 0.25 8.35 -0.1 8.65 -0.6 8.65 L-15.35 8.65 Q-15.95 8.65 -16.35 8.3 L-17.3 8.65 -22.8 8.65 Q-26.8 8.65 -29.45 6.2 L-29.5 6.1 -30.6 4.9 -30.6 7.2 Q-30.6 7.8 -31.0 8.25 -31.45 8.65 -32.05 8.65 L-36.95 8.65 Q-37.55 8.65 -37.95 8.25 -38.35 8.65 -38.9 8.65 L-43.9 8.65 Q-44.45 8.65 -44.9 8.25 -45.3 7.8 -45.3 7.2 -45.3 3.8 -46.85 2.2 L-47.35 1.8 -47.35 7.2 Q-47.35 7.8 -47.8 8.25 -48.25 8.65 -48.8 8.65 L-53.7 8.65 Q-54.25 8.65 -54.65 8.3 -55.1 8.65 -55.6 8.65 L-60.55 8.65 Q-61.15 8.65 -61.55 8.25 L-61.8 8.0 -61.95 8.25 Q-62.4 8.65 -62.95 8.65 L-67.9 8.65 Q-68.45 8.65 -68.9 8.25 -69.35 7.8 -69.35 7.2 L-69.35 6.65 -70.45 8.1 -71.15 8.6 -71.2 8.6 -72.0 8.6 -72.05 8.6 Q-72.5 8.45 -72.75 8.1 L-73.85 6.65 -73.85 7.2 Q-73.85 7.8 -74.25 8.25 -74.7 8.65 -75.25 8.65 L-80.2 8.65 Q-80.8 8.65 -81.2 8.25 -81.65 7.8 -81.6 7.2 L-81.6 -1.4 -81.95 -1.4 Q-82.55 -1.4 -82.95 -1.85 -83.4 -2.3 -83.4 -2.85 L-83.4 -7.25 Q-83.4 -7.85 -82.95 -8.25 L-81.95 -8.7 -75.3 -8.7 -74.65 -8.55 -74.6 -8.55 -74.15 -8.1 -71.6 -4.75 -69.05 -8.1 -69.0 -8.15 -68.5 -8.55 -67.9 -8.7 -62.95 -8.7 Q-62.4 -8.7 -61.95 -8.25 L-61.8 -8.0 -61.55 -8.25 Q-61.15 -8.7 -60.55 -8.7 L-55.6 -8.7 Q-55.1 -8.7 -54.65 -8.3 -54.25 -8.7 -53.7 -8.7 L-53.6 -8.7 Q-49.8 -8.7 -46.75 -7.3 L-45.3 -6.65 -45.3 -7.25 Q-45.3 -7.85 -44.9 -8.25 -44.45 -8.7 -43.9 -8.7 L-38.9 -8.7 Q-38.35 -8.7 -37.95 -8.3 -37.55 -8.7 -36.95 -8.7 L-32.05 -8.7 Q-31.45 -8.7 -31.0 -8.25 -30.6 -7.85 -30.6 -7.25 L-30.6 -4.9 -29.45 -6.2 Q-26.7 -8.7 -22.8 -8.7 L-17.3 -8.7 Q-16.75 -8.7 -16.3 -8.3 -15.9 -8.65 -15.35 -8.65 L-10.45 -8.7 Q-9.85 -8.7 -9.4 -8.25 -9.0 -7.85 -9.0 -7.25 L-9.0 1.35 -0.6 1.35 -0.25 1.4 -0.25 -7.25 Q-0.3 -7.85 0.15 -8.25 0.55 -8.7 1.15 -8.7 L6.05 -8.7 Q6.65 -8.7 7.1 -8.25 M30.3 5.0 Q30.3 6.3 29.2 7.25 28.2 8.25 26.65 8.25 25.1 8.25 24.1 7.25 22.95 6.3 23.0 5.0 22.95 3.65 24.1 2.7 25.1 1.7 26.65 1.7 28.2 1.7 29.2 2.7 30.3 3.65 30.3 5.0 M-22.8 -1.4 Q-23.55 -1.45 -24.05 -0.95 -24.5 -0.6 -24.45 0.0 -24.5 0.5 -24.05 0.9 -23.55 1.35 -22.8 1.35 L-17.3 1.35 -16.85 1.45 -16.85 -1.45 -17.3 -1.4 -22.8 -1.4 M22.0 2.35 L21.95 2.35 21.9 2.35 22.0 2.35" fill="#ffffff" fill-opacity="0.2509804" fill-rule="evenodd" stroke="none"/>
  </g>
</svg>
