<?xml version="1.0" encoding="UTF-8" standalone="no"?>
<svg xmlns:xlink="http://www.w3.org/1999/xlink" height="38.8px" width="36.0px" xmlns="http://www.w3.org/2000/svg">
  <g transform="matrix(1.0, 0.0, 0.0, 1.0, -45.0, -163.2)">
    <path d="M76.65 164.0 Q81.0 165.95 81.0 172.35 81.0 175.35 75.25 184.0 70.8 190.65 66.85 192.9 66.35 195.45 64.5 197.75 61.15 202.0 55.0 202.0 48.35 202.0 46.0 196.0 45.3 194.15 45.05 191.95 L45.0 190.35 Q45.0 182.65 48.45 179.0 50.5 176.8 53.3 176.5 54.1 173.35 57.4 170.15 61.5 166.15 67.0 164.3 72.8 162.3 76.65 164.0" fill="#000000" fill-rule="evenodd" stroke="none"/>
  </g>
</svg>
