<?xml version="1.0" encoding="UTF-8" standalone="no"?>
<svg xmlns:xlink="http://www.w3.org/1999/xlink" height="58.25px" width="42.0px" xmlns="http://www.w3.org/2000/svg">
  <g transform="matrix(1.0, 0.0, 0.0, 1.0, -45.0, -143.75)">
    <path d="M66.0 148.25 Q73.35 152.6 80.45 159.4 87.0 165.65 87.0 167.5 87.0 170.3 85.3 172.8 83.3 175.6 79.95 175.95 78.55 179.05 75.25 184.0 70.8 190.65 66.85 192.9 66.35 195.45 64.5 197.75 61.15 202.0 55.0 202.0 48.35 202.0 46.0 196.0 45.3 194.15 45.05 191.95 L45.0 190.35 Q45.0 182.65 48.45 179.0 50.5 176.8 53.3 176.5 53.75 174.75 54.9 173.05 49.35 171.05 46.75 165.0 45.55 162.2 45.15 158.9 L45.0 156.35 Q45.0 145.25 51.55 143.95 56.95 142.85 66.0 148.25" fill="#000000" fill-rule="evenodd" stroke="none"/>
  </g>
</svg>
