<?xml version="1.0" encoding="UTF-8" standalone="no"?>
<svg xmlns:xlink="http://www.w3.org/1999/xlink" height="62.1px" width="66.0px" xmlns="http://www.w3.org/2000/svg">
  <g transform="matrix(1.0, 0.0, 0.0, 1.0, -21.0, -139.9)">
    <path d="M50.25 144.35 L51.55 143.95 Q56.95 142.85 66.0 148.25 73.35 152.6 80.45 159.4 87.0 165.65 87.0 167.5 87.0 170.3 85.3 172.8 83.3 175.6 79.95 175.95 78.55 179.05 75.25 184.0 70.8 190.65 66.85 192.9 66.35 195.45 64.5 197.75 61.15 202.0 55.0 202.0 48.35 202.0 46.0 196.0 45.3 194.15 45.05 191.95 L45.0 190.35 Q45.0 182.65 48.45 179.0 50.5 176.8 53.3 176.5 53.75 174.75 54.9 173.05 50.15 171.35 47.6 166.7 L44.5 167.0 Q32.4 167.0 25.75 161.25 21.0 157.15 21.0 153.35 21.0 149.7 26.15 145.55 31.4 141.4 37.5 140.25 44.55 138.95 48.85 142.85 L50.25 144.35" fill="#000000" fill-rule="evenodd" stroke="none"/>
  </g>
</svg>
