<?xml version="1.0" encoding="UTF-8" standalone="no"?>
<svg xmlns:xlink="http://www.w3.org/1999/xlink" height="76.65px" width="79.0px" xmlns="http://www.w3.org/2000/svg">
  <g transform="matrix(1.0, 0.0, 0.0, 1.0, -8.0, -125.35)">
    <path d="M51.55 143.95 Q56.95 142.85 66.0 148.25 73.35 152.6 80.45 159.4 87.0 165.65 87.0 167.5 87.0 170.3 85.3 172.8 83.3 175.6 79.95 175.95 78.55 179.05 75.25 184.0 70.8 190.65 66.85 192.9 66.35 195.45 64.5 197.75 61.15 202.0 55.0 202.0 48.35 202.0 46.0 196.0 45.3 194.15 45.05 191.95 L45.0 190.35 Q45.0 182.65 48.45 179.0 50.5 176.8 53.3 176.5 53.75 174.75 54.9 173.05 50.15 171.35 47.6 166.7 L44.5 167.0 Q32.4 167.0 25.75 161.25 L25.4 160.95 21.5 161.0 Q14.05 161.0 10.3 150.55 9.1 147.25 8.45 143.3 L8.0 140.0 Q8.0 132.3 13.0 128.2 17.7 124.4 24.0 125.65 30.65 126.95 35.0 133.25 37.1 136.3 38.35 140.15 44.8 139.2 48.85 142.85 L50.25 144.35 51.55 143.95" fill="#000000" fill-rule="evenodd" stroke="none"/>
  </g>
</svg>
