<?xml version="1.0" encoding="UTF-8" standalone="no"?>
<svg xmlns:xlink="http://www.w3.org/1999/xlink" height="96.7px" width="79.0px" xmlns="http://www.w3.org/2000/svg">
  <g transform="matrix(1.0, 0.0, 0.0, 1.0, -8.0, -105.3)">
    <path d="M70.0 118.5 Q70.0 123.75 63.75 129.0 57.45 134.35 49.1 134.95 L48.5 135.75 Q46.35 138.65 43.6 140.2 46.6 140.8 48.85 142.85 L50.25 144.35 51.55 143.95 Q56.95 142.85 66.0 148.25 73.35 152.6 80.45 159.4 87.0 165.65 87.0 167.5 87.0 170.3 85.3 172.8 83.3 175.6 79.95 175.95 78.55 179.05 75.25 184.0 70.8 190.65 66.85 192.9 66.35 195.45 64.5 197.75 61.15 202.0 55.0 202.0 48.35 202.0 46.0 196.0 45.3 194.15 45.05 191.95 L45.0 190.35 Q45.0 182.65 48.45 179.0 50.5 176.8 53.3 176.5 53.75 174.75 54.9 173.05 50.15 171.35 47.6 166.7 L44.5 167.0 Q32.4 167.0 25.75 161.25 L25.4 160.95 21.5 161.0 Q14.05 161.0 10.3 150.55 9.1 147.25 8.45 143.3 L8.0 140.0 Q8.0 132.3 13.0 128.2 14.95 126.65 17.15 125.95 17.9 119.35 22.45 115.95 27.05 112.45 34.0 113.05 L37.1 110.65 Q42.95 106.85 50.5 105.7 58.7 104.45 63.9 107.2 70.0 110.5 70.0 118.5" fill="#000000" fill-rule="evenodd" stroke="none"/>
  </g>
</svg>
