<?xml version="1.0" encoding="UTF-8" standalone="no"?>
<svg xmlns:xlink="http://www.w3.org/1999/xlink" height="150.0px" width="82.0px" xmlns="http://www.w3.org/2000/svg">
  <g transform="matrix(1.0, 0.0, 0.0, 1.0, -8.0, -52.0)">
    <path d="M28.4 68.7 L27.0 64.0 Q27.0 57.7 31.4 54.55 35.15 51.9 41.2 52.0 46.65 52.05 51.35 54.15 56.1 56.3 56.75 59.0 58.35 65.45 67.1 73.25 L71.25 77.25 Q78.45 81.75 83.9 88.85 90.0 96.7 90.0 103.0 90.0 105.95 88.0 108.25 85.6 111.0 81.5 111.0 L80.95 111.0 78.55 114.75 Q70.55 127.0 66.5 127.0 L65.95 127.0 63.75 129.0 Q57.45 134.35 49.1 134.95 L48.5 135.75 Q46.35 138.65 43.6 140.2 46.6 140.8 48.85 142.85 L50.25 144.35 51.55 143.95 Q56.95 142.85 66.0 148.25 73.35 152.6 80.45 159.4 87.0 165.65 87.0 167.5 87.0 170.3 85.3 172.8 83.3 175.6 79.95 175.95 78.55 179.05 75.25 184.0 70.8 190.65 66.85 192.9 66.35 195.45 64.5 197.75 61.15 202.0 55.0 202.0 48.35 202.0 46.0 196.0 45.3 194.15 45.05 191.95 L45.0 190.35 Q45.0 182.65 48.45 179.0 50.5 176.8 53.3 176.5 53.75 174.75 54.9 173.05 50.15 171.35 47.6 166.7 L44.5 167.0 Q32.4 167.0 25.75 161.25 L25.4 160.95 21.5 161.0 Q14.05 161.0 10.3 150.55 9.1 147.25 8.45 143.3 L8.0 140.0 Q8.0 132.3 13.0 128.2 14.95 126.65 17.15 125.95 17.9 119.35 22.45 115.95 27.05 112.45 34.0 113.05 L37.1 110.65 Q42.2 107.35 48.55 106.05 50.05 102.8 53.1 99.4 L55.15 97.25 Q54.15 95.75 53.3 93.85 L52.0 94.0 Q40.8 94.0 32.8 79.0 30.3 74.3 28.4 68.7" fill="#000000" fill-rule="evenodd" stroke="none"/>
  </g>
</svg>
