<?xml version="1.0" encoding="UTF-8" standalone="no"?>
<svg xmlns:xlink="http://www.w3.org/1999/xlink" height="182.15px" width="133.0px" xmlns="http://www.w3.org/2000/svg">
  <g transform="matrix(1.0, 0.0, 0.0, 1.0, -8.0, -19.85)">
    <path d="M124.95 43.0 L125.0 45.25 Q125.0 51.25 121.75 55.0 L121.6 55.2 Q122.0 56.6 122.0 58.1 122.0 64.3 118.0 68.25 112.25 74.0 99.0 74.0 95.95 74.0 93.15 69.85 88.6 72.0 79.0 72.0 77.25 72.0 75.6 70.95 L75.25 71.25 Q72.65 73.75 69.15 75.15 L71.25 77.25 Q78.45 81.75 83.9 88.85 90.0 96.7 90.0 103.0 90.0 105.95 88.0 108.25 85.6 111.0 81.5 111.0 L80.95 111.0 78.55 114.75 Q70.55 127.0 66.5 127.0 L65.95 127.0 63.75 129.0 Q57.45 134.35 49.1 134.95 L48.5 135.75 Q46.35 138.65 43.6 140.2 46.6 140.8 48.85 142.85 L50.25 144.35 51.55 143.95 Q56.95 142.85 66.0 148.25 73.35 152.6 80.45 159.4 87.0 165.65 87.0 167.5 87.0 170.3 85.3 172.8 83.3 175.6 79.95 175.95 78.55 179.05 75.25 184.0 70.8 190.65 66.85 192.9 66.35 195.45 64.5 197.75 61.15 202.0 55.0 202.0 48.35 202.0 46.0 196.0 45.3 194.15 45.05 191.95 L45.0 190.35 Q45.0 182.65 48.45 179.0 50.5 176.8 53.3 176.5 53.75 174.75 54.9 173.05 50.15 171.35 47.6 166.7 L44.5 167.0 Q32.4 167.0 25.75 161.25 L25.4 160.95 21.5 161.0 Q14.05 161.0 10.3 150.55 9.1 147.25 8.45 143.3 L8.0 140.0 Q8.0 132.3 13.0 128.2 14.95 126.65 17.15 125.95 17.9 119.35 22.45 115.95 27.05 112.45 34.0 113.05 L37.1 110.65 Q42.2 107.35 48.55 106.05 50.05 102.8 53.1 99.4 L55.15 97.25 Q54.15 95.75 53.3 93.85 L52.0 94.0 Q40.8 94.0 32.8 79.0 30.3 74.3 28.4 68.7 L27.0 64.0 Q27.0 57.7 31.4 54.55 35.15 51.9 41.2 52.0 L45.05 52.3 Q46.4 49.55 49.65 47.75 54.75 44.9 62.0 45.6 66.45 46.05 70.05 47.7 70.85 46.95 71.85 46.4 76.15 44.0 82.5 45.5 86.1 46.35 89.1 48.2 90.35 46.6 92.45 45.55 95.45 44.0 99.35 43.8 100.15 39.05 103.05 35.1 105.4 31.95 108.35 30.35 109.35 27.85 113.15 25.25 118.1 21.9 124.5 20.5 131.4 19.0 135.85 20.9 141.0 23.05 141.0 29.35 141.0 33.4 136.3 38.0 131.2 43.0 125.5 43.0 L124.95 43.0" fill="#000000" fill-rule="evenodd" stroke="none"/>
  </g>
</svg>
