<?xml version="1.0" encoding="UTF-8" standalone="no"?>
<svg xmlns:xlink="http://www.w3.org/1999/xlink" height="185.0px" width="213.85px" xmlns="http://www.w3.org/2000/svg">
  <g transform="matrix(1.0, 0.0, 0.0, 1.0, -7.0, -14.0)">
    <path d="M32.1 115.15 L35.65 112.2 Q43.5 106.25 52.5 102.85 55.35 101.8 57.9 101.15 53.65 99.25 51.55 93.0 L51.15 91.75 Q43.8 90.2 38.45 80.8 36.5 77.25 35.05 73.05 L34.0 69.5 Q34.0 62.65 38.4 60.2 40.4 59.1 42.95 59.15 44.2 56.45 47.15 53.9 52.05 49.7 58.5 48.3 65.35 46.8 69.8 49.65 L81.0 49.2 Q85.65 49.7 89.45 51.0 L91.1 50.0 Q97.25 46.5 104.5 45.0 L105.5 44.8 Q104.0 39.55 104.0 32.0 104.0 29.65 106.15 25.4 108.55 20.8 111.55 18.2 115.2 15.05 118.25 16.1 L118.7 15.9 Q122.85 14.25 129.0 16.4 135.0 18.5 139.3 22.85 141.15 24.7 142.3 26.65 144.25 27.3 146.5 28.6 151.65 31.5 155.5 36.2 158.8 34.55 162.45 33.45 L165.1 32.75 Q165.65 27.8 170.45 23.2 175.45 18.4 182.45 16.15 185.9 15.05 188.8 14.95 L189.65 14.65 Q194.95 13.05 202.35 15.3 209.95 17.6 215.05 22.7 220.85 28.45 220.85 35.6 220.85 39.95 219.15 42.75 216.55 47.0 210.35 47.0 200.9 47.0 192.75 37.55 L190.6 40.5 Q180.4 54.0 174.0 54.0 L173.75 54.0 Q167.55 60.0 161.0 60.0 158.45 60.0 154.25 56.85 L152.0 57.0 Q144.95 57.0 137.8 45.75 L135.25 41.4 128.6 42.0 Q129.0 45.7 129.0 49.0 129.0 51.95 127.0 54.25 125.7 55.7 123.95 56.4 123.6 61.1 120.25 65.05 115.15 71.0 105.5 71.0 101.85 71.0 97.7 68.65 L96.2 70.0 Q91.9 73.0 81.0 73.0 74.7 73.0 70.5 71.35 67.1 73.35 61.05 73.85 L64.0 74.05 Q69.7 74.9 73.65 78.7 77.75 82.75 78.0 88.6 L79.1 89.7 Q83.0 94.15 83.0 101.75 83.0 105.25 80.3 112.3 77.8 118.7 74.55 120.9 72.0 124.5 66.8 128.55 56.8 136.25 46.55 136.95 L44.5 137.0 Q44.05 137.0 36.0 129.2 28.0 121.45 28.0 121.1 28.0 118.85 32.1 115.15" fill="#0066cc" fill-rule="evenodd" stroke="none"/>
    <path d="M46.55 136.95 L46.25 137.25 Q42.5 141.6 38.85 143.5 L38.5 143.7 Q37.2 140.85 34.85 139.25 30.35 136.15 23.5 138.1 20.65 138.9 18.1 140.35 15.0 137.1 15.0 131.85 15.0 129.8 15.95 127.8 17.3 124.7 20.8 121.6 25.75 117.2 32.1 115.15 28.0 118.85 28.0 121.1 28.0 121.45 36.0 129.2 44.05 137.0 44.5 137.0 L46.55 136.95" fill="url(#gradient0)" fill-rule="evenodd" stroke="none"/>
    <path d="M38.85 143.5 L43.0 143.4 Q52.3 143.6 59.5 146.7 61.7 147.65 63.25 148.7 67.0 151.2 67.0 154.25 67.0 158.55 60.25 163.25 57.05 165.5 53.25 166.9 47.3 169.0 40.0 169.0 29.8 169.0 24.65 167.3 27.95 165.7 33.0 160.75 40.0 153.9 40.0 152.0 40.0 147.0 38.5 143.7 L38.85 143.5" fill="url(#gradient1)" fill-rule="evenodd" stroke="none"/>
    <path d="M12.3 144.9 L10.0 137.85 Q10.0 131.25 13.75 128.75 14.75 128.05 15.95 127.8 15.0 129.8 15.0 131.85 15.0 137.1 18.1 140.35 14.95 142.1 12.3 144.9" fill="url(#gradient2)" fill-rule="evenodd" stroke="none"/>
    <path d="M24.65 167.3 Q23.15 168.0 22.0 168.0 13.9 168.0 9.75 163.0 7.0 159.7 7.0 156.6 7.0 150.5 12.15 145.0 L12.3 144.9 Q14.95 142.1 18.1 140.35 20.65 138.9 23.5 138.1 30.35 136.15 34.85 139.25 37.2 140.85 38.5 143.7 40.0 147.0 40.0 152.0 40.0 153.9 33.0 160.75 27.95 165.7 24.65 167.3" fill="url(#gradient3)" fill-rule="evenodd" stroke="none"/>
    <path d="M63.25 148.7 L63.5 148.75 Q68.65 150.0 72.1 154.5 76.0 159.6 76.0 167.1 76.0 174.95 75.0 178.0 72.5 185.75 64.0 185.75 63.5 185.75 62.95 187.85 62.5 189.5 62.0 192.4 61.35 194.45 60.35 195.85 58.1 199.0 54.0 199.0 48.55 199.0 46.7 194.5 46.15 193.1 46.0 191.4 L46.0 190.0 Q46.0 185.8 50.0 177.45 L54.0 169.0 53.25 166.9 Q57.05 165.5 60.25 163.25 67.0 158.55 67.0 154.25 67.0 151.2 63.25 148.7" fill="url(#gradient4)" fill-rule="evenodd" stroke="none"/>
    <path d="M62.95 187.85 Q63.5 189.25 63.5 190.9 63.5 194.2 62.5 195.05 61.9 195.6 60.35 195.85 61.35 194.45 62.0 192.4 62.5 189.5 62.95 187.85" fill="#66ffff" fill-rule="evenodd" stroke="none"/>
  </g>
  <defs>
    <radialGradient cx="0" cy="0" gradientTransform="matrix(0.0239, 0.0, 0.0, 0.0239, 33.5, 129.4)" gradientUnits="userSpaceOnUse" id="gradient0" r="819.2" spreadMethod="pad">
      <stop offset="0.0" stop-color="#ff66cc"/>
      <stop offset="0.7490196078431373" stop-color="#cc0066"/>
      <stop offset="1.0" stop-color="#993366"/>
    </radialGradient>
    <radialGradient cx="0" cy="0" gradientTransform="matrix(0.0297, 0.0, 0.0, 0.0297, 43.0, 156.2)" gradientUnits="userSpaceOnUse" id="gradient1" r="819.2" spreadMethod="pad">
      <stop offset="0.0" stop-color="#ff66cc"/>
      <stop offset="0.7490196078431373" stop-color="#cc0066"/>
      <stop offset="1.0" stop-color="#993366"/>
    </radialGradient>
    <radialGradient cx="0" cy="0" gradientTransform="matrix(0.0194, 0.0, 0.0, 0.0194, 22.0, 142.25)" gradientUnits="userSpaceOnUse" id="gradient2" r="819.2" spreadMethod="pad">
      <stop offset="0.0" stop-color="#ff66cc"/>
      <stop offset="0.7490196078431373" stop-color="#cc0066"/>
      <stop offset="1.0" stop-color="#993366"/>
    </radialGradient>
    <radialGradient cx="0" cy="0" gradientTransform="matrix(0.0225, 0.0, 0.0, 0.0225, 23.5, 152.65)" gradientUnits="userSpaceOnUse" id="gradient3" r="819.2" spreadMethod="pad">
      <stop offset="0.0" stop-color="#ff66cc"/>
      <stop offset="0.7490196078431373" stop-color="#cc0066"/>
      <stop offset="1.0" stop-color="#993366"/>
    </radialGradient>
    <radialGradient cx="0" cy="0" gradientTransform="matrix(0.0328, 0.0, 0.0, 0.0328, 61.0, 173.7)" gradientUnits="userSpaceOnUse" id="gradient4" r="819.2" spreadMethod="pad">
      <stop offset="0.0" stop-color="#ff66cc"/>
      <stop offset="0.7490196078431373" stop-color="#cc0066"/>
      <stop offset="1.0" stop-color="#993366"/>
    </radialGradient>
  </defs>
</svg>
