<?xml version="1.0" encoding="UTF-8" standalone="no"?>
<svg xmlns:xlink="http://www.w3.org/1999/xlink" height="153.3px" width="208.85px" xmlns="http://www.w3.org/2000/svg">
  <g transform="matrix(1.0, 0.0, 0.0, 1.0, -11.0, -18.7)">
    <path d="M219.85 41.0 Q219.85 51.0 207.35 51.0 198.7 51.0 197.15 45.45 196.85 44.3 196.85 42.95 193.85 42.6 191.5 40.0 L187.1 35.5 Q186.2 36.15 185.35 37.6 L183.95 40.1 Q182.7 41.85 180.35 42.55 178.65 45.95 176.6 49.0 168.35 61.0 157.85 61.0 152.35 61.0 150.55 56.85 L150.3 56.1 Q144.95 53.6 137.65 44.0 L133.3 37.5 128.25 37.5 Q126.1 37.5 124.3 39.05 128.0 45.6 128.0 51.75 128.0 54.75 126.3 57.0 125.25 58.4 123.7 59.15 121.25 62.45 114.25 66.25 103.7 72.0 96.0 72.0 L94.6 71.85 Q91.05 73.0 85.5 73.0 81.15 73.0 76.2 68.9 L75.25 70.75 Q73.4 74.05 70.65 75.85 73.6 77.6 76.0 80.15 80.35 84.85 80.95 90.55 84.0 93.0 84.0 99.1 84.0 106.15 81.75 113.0 78.15 124.0 70.5 124.0 L69.85 124.0 67.75 126.55 Q62.5 131.7 51.8 132.0 L48.25 136.0 Q44.0 140.4 39.65 142.4 L40.0 145.35 40.0 145.4 44.5 146.25 Q50.4 147.65 55.35 150.2 58.35 149.05 62.0 149.3 67.55 149.7 71.3 153.05 68.25 154.5 64.5 157.25 61.3 159.55 54.7 168.25 L51.95 172.0 Q34.95 171.8 27.8 166.0 26.05 164.6 24.95 162.85 17.0 161.6 13.3 150.25 11.95 146.25 11.35 141.5 L11.0 137.5 Q11.0 130.4 15.55 128.15 L16.05 127.95 Q16.3 123.8 22.1 120.1 27.8 116.5 35.5 115.2 L40.65 114.7 Q41.8 112.05 45.0 109.5 49.75 105.65 56.0 104.35 L57.25 104.15 57.35 103.8 Q55.15 100.9 53.05 96.0 L52.4 94.45 Q47.4 92.35 42.25 82.3 40.2 78.3 38.4 73.55 L37.0 69.5 Q37.0 63.85 40.9 61.05 41.9 60.35 43.0 59.9 44.4 56.6 47.65 53.95 52.7 49.8 60.0 48.85 L65.45 48.7 Q66.9 46.75 69.8 46.2 74.7 45.25 82.5 48.3 85.7 49.55 88.65 51.15 95.0 47.95 103.0 46.6 L108.7 45.95 108.55 45.75 100.0 31.85 Q100.0 24.85 104.4 23.95 106.85 23.4 109.95 24.85 L110.25 24.55 Q115.3 20.0 126.85 20.0 137.05 20.0 140.85 24.55 L141.5 25.45 145.45 28.95 Q151.45 34.7 157.45 42.55 162.0 37.45 166.35 33.7 L169.0 31.55 Q169.75 25.1 174.65 21.7 179.7 18.1 187.35 18.8 194.4 19.4 199.5 23.2 202.15 23.1 205.35 24.1 211.3 25.9 215.3 30.2 219.85 35.0 219.85 41.0" fill="#66ffff" fill-rule="evenodd" stroke="none"/>
  </g>
</svg>
