<?xml version="1.0" encoding="UTF-8" standalone="no"?>
<svg xmlns:xlink="http://www.w3.org/1999/xlink" height="52.95px" width="121.4px" xmlns="http://www.w3.org/2000/svg">
  <g transform="matrix(1.0, 0.0, 0.0, 1.0, -98.45, -18.7)">
    <path d="M219.85 41.0 Q219.85 51.0 207.35 51.0 198.7 51.0 197.15 45.45 196.85 44.3 196.85 42.95 193.85 42.6 191.5 40.0 L187.1 35.5 Q186.2 36.15 185.35 37.6 L183.95 40.1 Q182.7 41.85 180.35 42.55 178.65 45.95 176.6 49.0 168.35 61.0 157.85 61.0 152.35 61.0 150.55 56.85 L150.3 56.1 Q144.95 53.6 137.65 44.0 L133.3 37.5 128.25 37.5 Q126.1 37.5 124.3 39.05 128.0 45.6 128.0 51.75 128.0 54.75 126.3 57.0 125.25 58.4 123.7 59.15 121.25 62.45 114.25 66.25 106.35 70.55 100.0 71.65 L100.5 63.8 101.0 56.75 Q101.0 51.3 98.45 47.55 L103.0 46.6 108.7 45.95 108.55 45.75 100.0 31.85 Q100.0 24.85 104.4 23.95 106.85 23.4 109.95 24.85 L110.25 24.55 Q115.3 20.0 126.85 20.0 137.05 20.0 140.85 24.55 L141.5 25.45 145.45 28.95 Q151.45 34.7 157.45 42.55 162.0 37.45 166.35 33.7 L169.0 31.55 Q169.75 25.1 174.65 21.7 179.7 18.1 187.35 18.8 194.4 19.4 199.5 23.2 202.15 23.1 205.35 24.1 211.3 25.9 215.3 30.2 219.85 35.0 219.85 41.0" fill="#66ffff" fill-rule="evenodd" stroke="none"/>
  </g>
</svg>
