<?xml version="1.0" encoding="UTF-8" standalone="no"?>
<svg xmlns:xlink="http://www.w3.org/1999/xlink" height="42.3px" width="100.05px" xmlns="http://www.w3.org/2000/svg">
  <g transform="matrix(1.0, 0.0, 0.0, 1.0, -119.8, -18.7)">
    <path d="M219.85 41.0 Q219.85 51.0 207.35 51.0 198.7 51.0 197.15 45.45 196.85 44.3 196.85 42.95 193.85 42.6 191.5 40.0 L187.1 35.5 Q186.2 36.15 185.35 37.6 L183.95 40.1 Q182.7 41.85 180.35 42.55 178.65 45.95 176.6 49.0 168.35 61.0 157.85 61.0 152.35 61.0 150.55 56.85 L150.3 56.1 Q144.95 53.6 137.65 44.0 L133.3 37.5 128.7 37.5 122.75 23.75 Q121.55 21.95 119.8 20.55 L126.85 20.0 Q137.05 20.0 140.85 24.55 L141.5 25.45 145.45 28.95 Q151.45 34.7 157.45 42.55 162.0 37.45 166.35 33.7 L169.0 31.55 Q169.75 25.1 174.65 21.7 179.7 18.1 187.35 18.8 194.4 19.4 199.5 23.2 202.15 23.1 205.35 24.1 211.3 25.9 215.3 30.2 219.85 35.0 219.85 41.0" fill="#66ffff" fill-rule="evenodd" stroke="none"/>
  </g>
</svg>
