<?xml version="1.0" encoding="UTF-8" standalone="no"?>
<svg xmlns:xlink="http://www.w3.org/1999/xlink" height="42.3px" width="83.0px" xmlns="http://www.w3.org/2000/svg">
  <g transform="matrix(1.0, 0.0, 0.0, 1.0, -136.85, -18.7)">
    <path d="M215.3 30.2 Q219.85 35.0 219.85 41.0 219.85 51.0 207.35 51.0 198.7 51.0 197.15 45.45 196.85 44.3 196.85 42.95 193.85 42.6 191.5 40.0 L187.1 35.5 Q186.2 36.15 185.35 37.6 L183.95 40.1 Q182.7 41.85 180.35 42.55 178.65 45.95 176.6 49.0 168.35 61.0 157.85 61.0 152.35 61.0 150.55 56.85 L150.3 56.1 Q144.95 53.6 137.65 44.0 L136.85 42.8 Q139.7 40.85 143.15 37.75 L148.75 32.3 Q153.1 36.9 157.45 42.55 162.0 37.45 166.35 33.7 L169.0 31.55 Q169.75 25.1 174.65 21.7 179.7 18.1 187.35 18.8 194.4 19.4 199.5 23.2 202.15 23.1 205.35 24.1 211.3 25.9 215.3 30.2" fill="#66ffff" fill-rule="evenodd" stroke="none"/>
  </g>
</svg>
