<?xml version="1.0" encoding="UTF-8" standalone="no"?>
<svg xmlns:xlink="http://www.w3.org/1999/xlink" height="41.65px" width="58.1px" xmlns="http://www.w3.org/2000/svg">
  <g transform="matrix(1.0, 0.0, 0.0, 1.0, -161.75, -18.7)">
    <path d="M219.85 41.0 Q219.85 51.0 207.35 51.0 198.7 51.0 197.15 45.45 196.85 44.3 196.85 42.95 193.85 42.6 191.5 40.0 L187.1 35.5 Q186.2 36.15 185.35 37.6 L183.95 40.1 Q182.7 41.85 180.35 42.55 178.65 45.95 176.6 49.0 170.3 58.15 162.7 60.35 163.15 58.25 163.05 55.25 L162.85 51.1 Q162.85 43.45 161.75 38.0 L166.35 33.7 169.0 31.55 Q169.75 25.1 174.65 21.7 179.7 18.1 187.35 18.8 194.4 19.4 199.5 23.2 202.15 23.1 205.35 24.1 211.3 25.9 215.3 30.2 219.85 35.0 219.85 41.0" fill="#66ffff" fill-rule="evenodd" stroke="none"/>
  </g>
</svg>
