<?xml version="1.0" encoding="UTF-8" standalone="no"?>
<svg xmlns:xlink="http://www.w3.org/1999/xlink" height="32.3px" width="47.3px" xmlns="http://www.w3.org/2000/svg">
  <g transform="matrix(1.0, 0.0, 0.0, 1.0, -172.55, -18.7)">
    <path d="M215.3 30.2 Q219.85 35.0 219.85 41.0 219.85 51.0 207.35 51.0 198.7 51.0 197.15 45.45 196.85 44.3 196.85 42.95 193.85 42.6 191.5 40.0 L187.1 35.5 186.1 36.5 Q184.95 32.8 182.0 29.45 177.8 24.7 172.55 23.55 173.45 22.5 174.65 21.7 179.7 18.1 187.35 18.8 194.4 19.4 199.5 23.2 202.15 23.1 205.35 24.1 211.3 25.9 215.3 30.2" fill="#66ffff" fill-rule="evenodd" stroke="none"/>
  </g>
</svg>
