<?xml version="1.0" encoding="UTF-8" standalone="no"?>
<svg xmlns:xlink="http://www.w3.org/1999/xlink" height="16.15px" width="29.1px" xmlns="http://www.w3.org/2000/svg">
  <g transform="matrix(1.0, 0.0, 0.0, 1.0, 0.0, 0.0)">
    <path d="M27.8 1.7 L26.15 1.7 26.15 2.65 27.65 2.65 27.65 4.4 26.15 4.4 26.15 5.45 27.8 5.45 27.8 7.15 24.2 7.15 24.2 0.0 27.8 0.0 27.8 1.7 M17.1 1.8 Q16.95 1.55 16.6 1.55 L16.45 1.55 16.45 3.2 Q17.25 3.2 17.3 2.4 L17.1 1.8 M18.45 4.35 Q17.7 4.9 16.45 4.8 L16.45 7.15 14.45 7.15 14.45 0.0 16.25 0.0 Q17.55 0.0 18.4 0.5 19.2 1.05 19.25 2.45 19.25 3.8 18.45 4.35 M22.0 0.0 L22.0 5.45 23.45 5.45 23.45 7.15 20.0 7.15 20.0 0.0 22.0 0.0 M25.85 9.65 Q26.35 8.85 27.55 8.75 28.3 8.8 28.95 9.15 L28.95 11.3 28.45 10.8 27.8 10.55 27.45 10.65 Q27.3 10.75 27.3 11.0 L27.5 11.4 27.85 11.65 28.75 12.5 Q29.1 13.0 29.1 13.75 29.1 14.8 28.45 15.45 27.85 16.15 26.8 16.15 L25.35 15.85 25.35 13.6 25.85 14.15 26.55 14.4 26.95 14.3 27.15 13.95 27.0 13.55 26.65 13.25 25.75 12.4 Q25.4 11.9 25.35 11.15 25.35 10.45 25.85 9.65 M24.75 10.65 L23.65 10.65 23.65 16.05 21.7 16.05 21.7 10.65 20.65 10.65 20.65 8.9 24.75 8.9 24.75 10.65 M19.85 8.9 L19.85 16.05 18.0 16.05 16.55 11.9 16.55 11.95 16.7 13.95 16.7 16.05 14.8 16.05 14.8 8.9 16.65 8.9 18.2 13.2 18.0 10.7 18.0 8.9 19.85 8.9 M8.5 2.4 Q8.45 1.5 7.6 1.55 L7.6 3.3 7.75 3.35 8.3 3.05 8.5 2.4 M10.15 3.45 L9.3 4.2 10.75 7.15 8.65 7.15 7.6 4.2 7.6 5.25 7.6 7.15 5.65 7.15 5.65 0.0 7.55 0.0 Q8.8 -0.05 9.6 0.5 10.4 1.0 10.45 2.4 L10.15 3.45 M13.35 0.0 L13.35 7.15 11.4 7.15 11.4 0.0 13.35 0.0 M0.75 1.8 L0.75 0.0 4.85 0.0 4.85 1.8 3.75 1.8 3.75 7.15 1.8 7.15 1.8 1.8 0.75 1.8 M1.95 10.45 L1.95 12.05 Q2.8 12.1 2.8 11.3 L2.65 10.7 Q2.45 10.45 2.1 10.45 L1.95 10.45 M4.8 11.3 Q4.75 12.7 4.0 13.2 3.25 13.75 1.95 13.7 L1.95 16.05 0.0 16.05 0.0 8.9 1.8 8.9 Q3.1 8.85 3.9 9.4 4.75 9.95 4.8 11.3 M5.35 12.45 Q5.3 11.1 5.95 9.95 6.6 8.85 8.05 8.75 9.55 8.85 10.15 9.95 10.8 11.1 10.8 12.45 10.8 13.8 10.15 14.95 9.55 16.1 8.05 16.15 6.6 16.1 5.95 14.95 5.3 13.8 5.35 12.45 M8.05 10.6 Q7.7 10.6 7.55 10.95 L7.35 11.75 7.3 12.45 7.35 13.15 7.55 13.95 8.05 14.35 Q8.4 14.3 8.6 13.95 L8.8 13.15 8.8 12.45 8.8 11.75 8.6 10.95 Q8.4 10.6 8.05 10.6 M13.7 16.05 L11.7 16.05 11.7 8.9 13.7 8.9 13.7 16.05" fill="#ffffff" fill-rule="evenodd" stroke="none"/>
  </g>
</svg>
