<?xml version="1.0" encoding="UTF-8" standalone="no"?>
<svg xmlns:xlink="http://www.w3.org/1999/xlink" height="13.0px" width="13.0px" xmlns="http://www.w3.org/2000/svg">
  <g transform="matrix(1.0, 0.0, 0.0, 1.0, -4.1, -4.1)">
    <path d="M13.2 4.6 Q14.2 5.05 15.15 5.95 17.1 7.9 17.1 10.6 17.1 13.25 15.15 15.15 13.25 17.1 10.6 17.1 7.9 17.1 5.95 15.15 4.1 13.25 4.1 10.6 L4.2 9.3 4.3 9.3 Q4.3 11.6 5.9 13.25 7.6 14.95 9.95 14.95 12.25 14.95 13.95 13.25 15.65 11.6 15.65 9.3 15.65 6.95 13.95 5.25 L13.2 4.6" fill="#ffff33" fill-rule="evenodd" stroke="none"/>
    <path d="M12.2 11.25 Q13.25 10.45 13.25 9.35 13.25 8.25 12.2 7.4 11.25 6.6 9.8 6.6 8.35 6.6 7.35 7.4 6.35 8.25 6.35 9.35 6.35 10.45 7.35 11.25 8.35 12.1 9.8 12.1 11.25 12.1 12.2 11.25 M13.2 4.6 L13.95 5.25 Q15.65 6.95 15.65 9.3 15.65 11.6 13.95 13.25 12.25 14.95 9.95 14.95 7.6 14.95 5.9 13.25 4.3 11.6 4.3 9.3 L4.3 8.9 Q4.75 7.25 5.95 5.95 7.9 4.1 10.6 4.1 12.0 4.1 13.2 4.6" fill="#ffcc00" fill-rule="evenodd" stroke="none"/>
    <path d="M12.2 11.25 Q11.25 12.1 9.8 12.1 8.35 12.1 7.35 11.25 6.35 10.45 6.35 9.35 6.35 8.25 7.35 7.4 8.35 6.6 9.8 6.6 11.25 6.6 12.2 7.4 13.25 8.25 13.25 9.35 13.25 10.45 12.2 11.25 M12.45 8.45 Q12.0 8.0 11.35 8.0 10.7 8.0 10.25 8.45 9.8 8.9 9.8 9.55 9.8 10.2 10.25 10.65 10.7 11.1 11.35 11.1 12.0 11.1 12.45 10.65 12.9 10.2 12.9 9.55 12.9 8.9 12.45 8.45" fill="#ffff33" fill-rule="evenodd" stroke="none"/>
    <path d="M10.25 10.65 Q9.8 10.2 9.8 9.55 9.8 8.9 10.25 8.45 10.7 8.0 11.35 8.0 12.0 8.0 12.45 8.45 12.9 8.9 12.9 9.55 12.9 10.2 12.45 10.65 12.0 11.1 11.35 11.1 10.7 11.1 10.25 10.65" fill="#fdfefe" fill-rule="evenodd" stroke="none"/>
  </g>
</svg>
