<?xml version="1.0" encoding="UTF-8" standalone="no"?>
<svg xmlns:xlink="http://www.w3.org/1999/xlink" height="56.55px" width="38.0px" xmlns="http://www.w3.org/2000/svg">
  <g transform="matrix(1.0, 0.0, 0.0, 1.0, -37.0, -153.45)">
    <path d="M37.0 168.85 L37.0 167.35 Q37.0 159.4 41.4 155.9 45.1 152.85 51.0 153.6 56.4 154.3 60.65 157.55 L60.7 157.6 Q65.65 159.35 69.7 162.75 75.0 167.15 75.0 171.25 75.0 174.25 72.75 176.55 L71.75 177.4 72.0 180.6 Q72.0 182.5 70.7 186.85 69.05 192.2 66.55 196.75 63.6 202.1 60.1 205.3 55.9 210.0 51.0 210.0 L49.85 209.95 48.5 210.0 Q42.7 210.0 40.3 205.5 39.5 204.1 39.2 202.4 L39.0 201.0 Q39.0 191.35 44.15 183.1 L46.45 179.85 Q43.8 178.55 42.4 175.75 39.05 174.9 37.7 171.85 37.15 170.5 37.0 168.85" fill="#000000" fill-rule="evenodd" stroke="none"/>
  </g>
</svg>
