<?xml version="1.0" encoding="UTF-8" standalone="no"?>
<svg xmlns:xlink="http://www.w3.org/1999/xlink" height="108.55px" width="57.0px" xmlns="http://www.w3.org/2000/svg">
  <g transform="matrix(1.0, 0.0, 0.0, 1.0, -18.0, -101.45)">
    <path d="M71.0 115.5 Q71.0 121.05 69.05 125.25 65.85 131.95 58.4 132.85 L58.3 133.0 Q54.75 138.0 49.0 138.0 L47.6 137.95 Q46.55 141.2 42.75 144.0 L42.5 144.2 44.15 145.4 Q49.0 149.25 49.0 153.1 L49.0 153.45 51.0 153.6 Q56.4 154.3 60.65 157.55 L60.7 157.6 Q65.65 159.35 69.7 162.75 75.0 167.15 75.0 171.25 75.0 174.25 72.75 176.55 L71.75 177.4 72.0 180.6 Q72.0 182.5 70.7 186.85 69.05 192.2 66.55 196.75 63.6 202.1 60.1 205.3 55.9 210.0 51.0 210.0 L49.85 209.95 48.5 210.0 Q42.7 210.0 40.3 205.5 39.5 204.1 39.2 202.4 L39.0 201.0 Q39.0 191.35 44.15 183.1 L46.45 179.85 Q43.8 178.55 42.4 175.75 39.05 174.9 37.7 171.85 37.15 170.5 37.0 168.85 L37.0 167.35 37.05 166.1 Q34.7 167.0 32.5 167.0 24.25 167.0 20.5 161.05 18.0 157.05 18.0 152.0 18.0 144.9 22.25 141.95 21.5 140.0 21.2 137.75 L21.0 135.6 Q21.0 129.2 25.2 125.75 28.95 122.65 34.5 122.9 L34.55 122.9 Q35.5 120.55 38.2 118.6 40.9 116.7 44.2 115.85 44.95 110.9 48.2 107.1 52.05 102.65 57.5 101.7 63.05 100.7 66.8 104.0 71.0 107.7 71.0 115.5" fill="#000000" fill-rule="evenodd" stroke="none"/>
  </g>
</svg>
