<?xml version="1.0" encoding="UTF-8" standalone="no"?>
<svg xmlns:xlink="http://www.w3.org/1999/xlink" height="229.4px" width="159.0px" xmlns="http://www.w3.org/2000/svg">
  <g transform="matrix(1.0, 0.0, 0.0, 1.0, 84.0, 19.4)">
    <path d="M28.6 -3.7 L29.45 -2.9 Q32.95 -4.6 37.05 -4.75 42.85 -5.0 45.5 -1.9 52.45 -5.95 60.0 2.75 L67.05 13.1 Q72.0 20.3 72.0 23.35 72.0 26.05 70.75 28.3 70.0 29.65 68.95 30.5 L69.0 33.25 Q69.0 37.65 66.25 43.0 61.65 52.0 52.0 52.0 L51.25 51.95 49.0 54.25 Q45.4 57.75 41.95 59.85 L42.0 61.75 Q42.0 66.55 39.8 68.55 L39.0 69.15 39.3 69.45 41.4 71.85 Q47.6 71.0 52.0 73.0 55.0 74.4 56.25 76.75 L58.0 76.8 Q64.2 77.4 68.3 83.1 73.0 89.6 73.0 100.75 73.0 104.85 70.5 106.75 L69.4 107.45 Q71.0 110.7 71.0 115.5 71.0 121.05 69.05 125.25 65.85 131.95 58.4 132.85 L58.3 133.0 Q54.75 138.0 49.0 138.0 L47.6 137.95 Q46.55 141.2 42.75 144.0 L42.5 144.2 44.15 145.4 Q49.0 149.25 49.0 153.1 L49.0 153.45 51.0 153.6 Q56.4 154.3 60.65 157.55 L60.7 157.6 Q65.65 159.35 69.7 162.75 75.0 167.15 75.0 171.25 75.0 174.25 72.75 176.55 L71.75 177.4 72.0 180.6 Q72.0 182.5 70.7 186.85 69.05 192.2 66.55 196.75 63.6 202.1 60.1 205.3 55.9 210.0 51.0 210.0 L49.85 209.95 48.5 210.0 Q42.7 210.0 40.3 205.5 39.5 204.1 39.2 202.4 L39.0 201.0 Q39.0 191.35 44.15 183.1 L46.45 179.85 Q43.8 178.55 42.4 175.75 39.05 174.9 37.7 171.85 37.15 170.5 37.0 168.85 L37.0 167.35 37.05 166.1 Q34.7 167.0 32.5 167.0 24.25 167.0 20.5 161.05 18.0 157.05 18.0 152.0 18.0 144.9 22.25 141.95 21.5 140.0 21.2 137.75 L21.0 135.6 Q21.0 129.2 25.2 125.75 28.95 122.65 34.5 122.9 L34.55 122.9 Q35.5 120.55 38.2 118.6 40.9 116.7 44.2 115.85 44.95 110.9 48.2 107.1 L49.5 105.75 Q47.7 104.3 46.25 102.25 L46.1 102.0 45.5 102.0 Q34.25 102.0 28.5 93.75 27.25 91.95 26.35 89.95 18.95 89.15 15.8 81.0 14.7 78.15 14.25 74.7 L14.0 71.6 Q14.0 65.15 16.15 62.05 16.0 60.95 16.0 59.75 16.0 52.85 20.05 48.0 22.75 44.8 26.1 43.7 27.3 41.75 29.15 40.05 33.75 35.85 40.5 34.4 L42.0 34.15 Q42.05 30.2 43.1 26.7 L41.2 24.95 Q36.4 24.6 32.4 21.75 29.05 24.0 23.5 24.0 17.6 24.0 13.0 22.9 12.7 25.65 9.95 28.3 6.05 32.0 -0.5 32.0 -7.0 32.0 -11.35 30.6 -14.05 33.0 -19.5 33.0 -31.6 33.0 -36.5 24.75 L-37.55 22.75 Q-44.4 21.15 -48.25 11.0 -52.8 10.8 -56.65 9.75 L-57.05 11.75 Q-59.75 23.0 -68.5 23.0 -77.3 23.0 -81.55 14.05 -83.65 9.55 -84.0 5.0 -84.0 -4.3 -80.0 -10.95 -76.4 -16.85 -71.1 -18.7 -65.95 -20.55 -62.25 -17.6 L-61.6 -17.05 -55.5 -16.4 Q-49.75 -15.0 -45.4 -11.5 -41.8 -12.5 -36.5 -9.65 -30.85 -6.65 -26.55 -1.25 -23.15 2.95 -22.3 6.6 -18.6 7.65 -15.7 10.05 L-14.85 9.3 Q-9.95 5.25 -3.5 4.65 -1.3 4.45 0.65 4.7 2.1 3.25 4.4 1.75 10.45 -2.25 17.65 -4.05 25.35 -5.95 28.6 -3.7" fill="#000000" fill-rule="evenodd" stroke="none"/>
  </g>
</svg>
