<?xml version="1.0" encoding="UTF-8" standalone="no"?>
<svg xmlns:xlink="http://www.w3.org/1999/xlink" height="20.0px" width="204.0px" xmlns="http://www.w3.org/2000/svg">
  <g transform="matrix(1.0, 0.0, 0.0, 1.0, 102.5, 27.0)">
    <path d="M101.5 -12.55 Q101.35 -10.35 99.75 -8.75 98.0 -7.0 95.5 -7.0 L-96.5 -7.0 Q-99.0 -7.0 -100.75 -8.75 -102.35 -10.35 -102.45 -12.55 L-102.5 -12.55 -102.5 -21.0 Q-102.5 -23.5 -100.75 -25.25 -99.0 -27.0 -96.5 -27.0 L95.5 -27.0 Q98.0 -27.0 99.75 -25.25 101.5 -23.5 101.5 -21.0 L101.5 -12.55" fill="#c1d1e0" fill-rule="evenodd" stroke="none"/>
    <path d="M-16.0 -25.0 L-16.0 -9.0 -23.5 -9.0 -23.5 -25.0 -16.0 -25.0" fill="url(#gradient0)" fill-rule="evenodd" stroke="none"/>
    <path d="M11.95 -25.0 L11.95 -9.0 -16.0 -9.0 -16.0 -25.0 11.95 -25.0" fill="url(#gradient1)" fill-rule="evenodd" stroke="none"/>
    <path d="M-23.5 -9.0 L-96.0 -9.0 Q-97.65 -9.0 -98.85 -10.2 -100.0 -11.35 -100.0 -13.0 L-100.0 -21.0 Q-100.0 -22.65 -98.85 -23.85 -97.65 -25.0 -96.0 -25.0 L-23.5 -25.0 -23.5 -9.0" fill="url(#gradient2)" fill-rule="evenodd" stroke="none"/>
    <path d="M11.95 -9.0 L11.95 -25.0 95.5 -25.0 Q97.15 -25.0 98.3 -23.85 99.5 -22.65 99.5 -21.0 L99.5 -13.0 Q99.5 -11.35 98.3 -10.2 97.15 -9.0 95.5 -9.0 L11.95 -9.0" fill="url(#gradient3)" fill-rule="evenodd" stroke="none"/>
  </g>
  <defs>
    <linearGradient gradientTransform="matrix(0.0, 0.0099, -0.0098, 0.0, 49.75, -17.0)" gradientUnits="userSpaceOnUse" id="gradient0" spreadMethod="pad" x1="-819.2" x2="819.2">
      <stop offset="0.0" stop-color="#bbced5"/>
      <stop offset="1.0" stop-color="#eef4f7"/>
    </linearGradient>
    <linearGradient gradientTransform="matrix(0.0, 0.0099, -0.0098, 0.0, -50.25, -17.0)" gradientUnits="userSpaceOnUse" id="gradient1" spreadMethod="pad" x1="-819.2" x2="819.2">
      <stop offset="0.0" stop-color="#bbced5"/>
      <stop offset="1.0" stop-color="#eef4f7"/>
    </linearGradient>
    <linearGradient gradientTransform="matrix(0.0, 0.0099, -0.0098, 0.0, 79.75, -17.0)" gradientUnits="userSpaceOnUse" id="gradient2" spreadMethod="pad" x1="-819.2" x2="819.2">
      <stop offset="0.0" stop-color="#bbced5"/>
      <stop offset="1.0" stop-color="#eef4f7"/>
    </linearGradient>
    <linearGradient gradientTransform="matrix(0.0, 0.0099, -0.0098, 0.0, -80.25, -17.0)" gradientUnits="userSpaceOnUse" id="gradient3" spreadMethod="pad" x1="-819.2" x2="819.2">
      <stop offset="0.0" stop-color="#bbced5"/>
      <stop offset="1.0" stop-color="#eef4f7"/>
    </linearGradient>
  </defs>
</svg>
