<?xml version="1.0" encoding="UTF-8" standalone="no"?>
<svg xmlns:xlink="http://www.w3.org/1999/xlink" height="136.8px" width="225.0px" xmlns="http://www.w3.org/2000/svg">
  <g transform="matrix(1.0, 0.0, 0.0, 1.0, 154.0, 13.5)">
    <path d="M36.5 -2.1 Q42.95 -0.8 47.85 2.4 L50.85 4.85 Q52.55 5.4 54.5 6.65 59.15 9.55 63.1 14.3 L65.55 17.65 66.4 18.0 Q70.0 19.9 70.0 25.6 70.0 27.85 63.0 36.5 L56.95 43.55 Q56.55 47.05 52.25 51.75 46.5 58.0 39.0 58.0 L37.85 57.95 Q36.3 58.85 34.25 59.25 35.0 65.05 34.75 66.4 L34.35 67.9 36.1 70.1 Q38.2 73.0 39.15 76.0 L39.5 76.0 Q49.45 76.0 53.9 82.75 L57.5 82.6 Q63.0 83.15 66.8 87.5 71.0 92.35 71.0 100.0 71.0 101.9 70.45 104.0 71.0 106.2 71.0 109.5 71.0 112.65 66.3 119.25 L62.85 123.3 Q57.65 119.0 52.0 116.05 49.9 114.95 48.0 114.25 48.7 112.7 49.95 110.9 48.55 108.95 47.3 106.3 L45.5 101.9 Q37.9 101.1 32.05 94.3 29.9 91.75 28.35 88.8 22.65 87.75 18.55 80.8 15.0 74.8 15.0 71.75 15.0 65.2 18.0 62.75 L17.9 61.05 18.0 58.85 Q18.0 51.3 21.75 46.15 25.05 41.65 30.0 40.5 32.95 39.8 35.45 40.6 39.2 36.7 44.0 34.6 45.6 33.9 47.05 33.55 47.25 30.75 48.4 28.2 45.65 26.5 44.0 23.25 L43.85 22.95 42.5 23.0 Q31.95 23.0 25.25 15.5 15.35 21.0 7.5 21.0 L5.75 20.9 1.75 23.5 Q-8.4 30.0 -10.5 30.0 -13.25 30.0 -15.15 28.9 -17.2 30.0 -20.0 30.0 -29.4 30.0 -34.55 23.8 -37.05 20.75 -37.7 18.2 -42.4 14.65 -49.25 4.35 L-59.0 5.0 -62.1 4.95 -62.0 8.0 Q-62.0 14.95 -62.3 16.3 L-63.0 18.55 -63.0 18.6 Q-63.0 23.0 -68.0 27.25 -73.55 32.0 -81.0 32.0 L-84.1 31.9 Q-86.2 33.0 -89.0 33.0 -97.75 33.0 -104.25 24.75 -106.15 22.35 -107.45 19.95 L-108.5 20.0 Q-112.15 20.0 -115.65 19.0 L-118.3 22.75 -119.35 24.1 Q-119.0 25.6 -119.0 27.6 -119.0 28.75 -129.25 36.55 -140.4 45.0 -145.5 45.0 -150.55 45.0 -152.75 41.25 -154.0 39.1 -154.0 37.1 -154.0 35.65 -148.55 30.95 -142.65 25.9 -136.5 22.55 L-135.0 21.8 -135.0 21.35 Q-135.0 15.5 -131.55 10.8 L-130.35 9.35 -131.2 8.25 Q-133.0 5.9 -133.0 5.0 -133.0 -0.55 -127.85 -2.2 -123.3 -3.65 -116.5 -1.75 -109.9 0.05 -105.15 3.8 L-103.6 5.15 Q-100.15 5.1 -94.5 9.65 -91.25 12.25 -87.65 16.1 -83.6 13.35 -78.85 11.6 -79.15 9.05 -79.0 6.5 -79.0 0.7 -76.35 -3.35 L-74.85 -5.25 Q-74.1 -8.95 -70.0 -11.15 -65.5 -13.6 -59.0 -13.5 -52.5 -13.4 -48.0 -10.8 -45.6 -9.4 -44.35 -7.6 -41.75 -7.0 -38.5 -4.95 -33.25 -1.65 -29.2 3.35 -26.65 6.55 -25.65 9.15 -25.1 9.4 -24.5 9.75 -20.15 12.2 -15.95 16.1 L-14.15 14.35 Q-9.55 10.45 -3.5 8.35 0.1 7.1 3.05 7.05 3.85 6.35 4.8 5.65 10.35 1.6 17.5 -0.55 22.4 -2.0 26.15 -2.0 30.35 -3.3 36.5 -2.1" fill="#66ffff" fill-rule="evenodd" stroke="none"/>
  </g>
</svg>
