<?xml version="1.0" encoding="UTF-8" standalone="no"?>
<svg xmlns:xlink="http://www.w3.org/1999/xlink" height="58.5px" width="154.85px" xmlns="http://www.w3.org/2000/svg">
  <g transform="matrix(1.0, 0.0, 0.0, 1.0, 154.0, 13.5)">
    <path d="M-116.5 -1.75 Q-109.9 0.05 -105.15 3.8 L-103.6 5.15 Q-100.15 5.1 -94.5 9.65 -91.25 12.25 -87.65 16.1 -83.6 13.35 -78.85 11.6 -79.15 9.05 -79.0 6.5 -79.0 0.7 -76.35 -3.35 L-74.85 -5.25 Q-74.1 -8.95 -70.0 -11.15 -65.5 -13.6 -59.0 -13.5 -52.5 -13.4 -48.0 -10.8 -45.6 -9.4 -44.35 -7.6 -41.75 -7.0 -38.5 -4.95 -33.25 -1.65 -29.2 3.35 -26.65 6.55 -25.65 9.15 -25.1 9.4 -24.5 9.75 -20.15 12.2 -15.95 16.1 L-14.15 14.35 Q-9.75 10.6 -3.95 8.55 L-4.0 9.0 Q-3.2 14.25 -1.2 19.5 L0.85 24.1 Q-8.5 30.0 -10.5 30.0 -13.25 30.0 -15.15 28.9 -17.2 30.0 -20.0 30.0 -29.4 30.0 -34.55 23.8 -37.05 20.75 -37.7 18.2 -42.4 14.65 -49.25 4.35 L-59.0 5.0 -62.1 4.95 -62.0 8.0 Q-62.0 14.95 -62.3 16.3 L-63.0 18.55 -63.0 18.6 Q-63.0 23.0 -68.0 27.25 -73.55 32.0 -81.0 32.0 L-84.1 31.9 Q-86.2 33.0 -89.0 33.0 -97.75 33.0 -104.25 24.75 -106.15 22.35 -107.45 19.95 L-108.5 20.0 Q-112.15 20.0 -115.65 19.0 L-118.3 22.75 -119.35 24.1 Q-119.0 25.6 -119.0 27.6 -119.0 28.75 -129.25 36.55 -140.4 45.0 -145.5 45.0 -150.55 45.0 -152.75 41.25 -154.0 39.1 -154.0 37.1 -154.0 35.65 -148.55 30.95 -142.65 25.9 -136.5 22.55 L-135.0 21.8 -135.0 21.35 Q-135.0 15.5 -131.55 10.8 L-130.35 9.35 -131.2 8.25 Q-133.0 5.9 -133.0 5.0 -133.0 -0.55 -127.85 -2.2 -123.3 -3.65 -116.5 -1.75" fill="#66ffff" fill-rule="evenodd" stroke="none"/>
  </g>
</svg>
