<?xml version="1.0" encoding="UTF-8" standalone="no"?>
<svg xmlns:xlink="http://www.w3.org/1999/xlink" height="47.85px" width="65.15px" xmlns="http://www.w3.org/2000/svg">
  <g transform="matrix(1.0, 0.0, 0.0, 1.0, 154.0, 2.85)">
    <path d="M-116.5 -1.75 Q-109.9 0.05 -105.15 3.8 L-103.6 5.15 Q-100.15 5.1 -94.5 9.65 -91.8 11.8 -88.85 14.85 L-91.15 17.45 Q-96.0 23.65 -96.0 29.75 L-95.85 31.6 Q-100.45 29.6 -104.25 24.75 -106.15 22.35 -107.45 19.95 L-108.5 20.0 Q-112.15 20.0 -115.65 19.0 L-118.3 22.75 -119.35 24.1 Q-119.0 25.6 -119.0 27.6 -119.0 28.75 -129.25 36.55 -140.4 45.0 -145.5 45.0 -150.55 45.0 -152.75 41.25 -154.0 39.1 -154.0 37.1 -154.0 35.65 -148.55 30.95 -142.65 25.9 -136.5 22.55 L-135.0 21.8 -135.0 21.35 Q-135.0 15.5 -131.55 10.8 L-130.35 9.35 -131.2 8.25 Q-133.0 5.9 -133.0 5.0 -133.0 -0.55 -127.85 -2.2 -123.3 -3.65 -116.5 -1.75" fill="#66ffff" fill-rule="evenodd" stroke="none"/>
  </g>
</svg>
