<?xml version="1.0" encoding="UTF-8" standalone="no"?>
<svg xmlns:xlink="http://www.w3.org/1999/xlink" height="47.85px" width="49.65px" xmlns="http://www.w3.org/2000/svg">
  <g transform="matrix(1.0, 0.0, 0.0, 1.0, 154.0, 2.85)">
    <path d="M-116.5 -1.75 Q-109.9 0.05 -105.15 3.8 L-104.35 4.45 Q-106.05 5.65 -107.6 7.35 -112.0 12.25 -112.0 18.25 L-111.7 19.8 -115.65 19.0 -118.3 22.75 -119.35 24.1 Q-119.0 25.6 -119.0 27.6 -119.0 28.75 -129.25 36.55 -140.4 45.0 -145.5 45.0 -150.55 45.0 -152.75 41.25 -154.0 39.1 -154.0 37.1 -154.0 35.65 -148.55 30.95 -142.65 25.9 -136.5 22.55 L-135.0 21.8 -135.0 21.35 Q-135.0 15.5 -131.55 10.8 L-130.35 9.35 -131.2 8.25 Q-133.0 5.9 -133.0 5.0 -133.0 -0.55 -127.85 -2.2 -123.3 -3.65 -116.5 -1.75" fill="#66ffff" fill-rule="evenodd" stroke="none"/>
  </g>
</svg>
