<?xml version="1.0" encoding="UTF-8" standalone="no"?>
<svg xmlns:xlink="http://www.w3.org/1999/xlink" height="14.8px" width="14.8px" xmlns="http://www.w3.org/2000/svg">
  <g transform="matrix(1.0, 0.0, 0.0, 1.0, 7.4, 7.4)">
    <path d="M3.3 -6.65 L5.2 -5.3 Q7.4 -3.1 7.4 0.0 7.4 3.05 5.2 5.2 3.05 7.4 0.0 7.4 -1.8 7.4 -3.3 6.65 L-5.25 5.2 Q-7.4 3.05 -7.4 0.0 -7.4 -1.8 -6.65 -3.25 L-6.65 -3.3 -5.25 -5.3 -4.1 -6.2 Q-2.3 -7.4 0.0 -7.4 1.8 -7.4 3.3 -6.65" fill="url(#gradient0)" fill-rule="evenodd" stroke="none"/>
    <path d="M1.25 -2.55 L0.0 -2.8 -1.55 -2.35 -2.0 -2.0 -2.55 -1.25 -2.8 0.0 Q-2.8 1.15 -2.0 2.0 L-1.25 2.55 0.0 2.8 Q1.15 2.8 2.0 2.0 2.8 1.15 2.8 0.0 2.8 -1.15 2.0 -2.0 L1.25 -2.55 M2.1 -4.25 L3.3 -3.35 Q4.7 -1.95 4.7 0.0 4.7 1.95 3.3 3.3 1.95 4.7 0.0 4.7 L-2.1 4.25 -3.35 3.3 Q-4.7 1.95 -4.7 0.0 -4.7 -1.15 -4.25 -2.1 L-3.35 -3.35 -2.6 -3.95 Q-1.45 -4.7 0.0 -4.7 L2.1 -4.25" fill="#ff9900" fill-rule="evenodd" stroke="none"/>
    <path d="M0.65 -1.25 L0.0 -1.4 -0.75 -1.15 -1.0 -1.0 -1.25 -0.6 -1.4 0.0 Q-1.4 0.6 -1.0 1.0 L-0.6 1.3 0.0 1.4 Q0.6 1.4 1.0 1.0 1.4 0.6 1.4 0.0 1.4 -0.55 1.0 -1.0 L0.65 -1.25 M1.25 -2.55 L2.0 -2.0 Q2.8 -1.15 2.8 0.0 2.8 1.15 2.0 2.0 1.15 2.8 0.0 2.8 L-1.25 2.55 -2.0 2.0 Q-2.8 1.15 -2.8 0.0 L-2.55 -1.25 -2.0 -2.0 -1.55 -2.35 0.0 -2.8 1.25 -2.55" fill="#ffcc00" fill-rule="evenodd" stroke="none"/>
    <path d="M0.65 -1.25 L1.0 -1.0 Q1.4 -0.55 1.4 0.0 1.4 0.6 1.0 1.0 0.6 1.4 0.0 1.4 L-0.6 1.3 -1.0 1.0 Q-1.4 0.6 -1.4 0.0 L-1.25 -0.6 -1.0 -1.0 -0.75 -1.15 0.0 -1.4 0.65 -1.25" fill="#ffffcc" fill-rule="evenodd" stroke="none"/>
  </g>
  <defs>
    <radialGradient cx="0" cy="0" gradientTransform="matrix(0.0113, 0.0, 0.0, 0.0113, -1.0, -1.6)" gradientUnits="userSpaceOnUse" id="gradient0" r="819.2" spreadMethod="pad">
      <stop offset="0.023529411764705882" stop-color="#ffcccc"/>
      <stop offset="0.2980392156862745" stop-color="#ff6600"/>
      <stop offset="0.6823529411764706" stop-color="#ca0202"/>
      <stop offset="1.0" stop-color="#990000"/>
    </radialGradient>
  </defs>
</svg>
