<?xml version="1.0" encoding="UTF-8" standalone="no"?>
<svg xmlns:xlink="http://www.w3.org/1999/xlink" height="34.25px" width="80.5px" xmlns="http://www.w3.org/2000/svg">
  <g transform="matrix(1.0, 0.0, 0.0, 1.0, 0.0, 0.0)">
    <path d="M75.7 10.15 Q80.25 12.75 80.5 18.35 L80.5 27.75 Q80.5 34.25 74.0 34.25 L6.5 34.25 Q0.0 34.25 0.0 27.75 L0.0 6.5 Q0.0 0.0 6.5 0.0 L50.25 0.0 Q55.85 -0.2 61.6 2.65 L61.6 2.7 75.65 10.15 75.7 10.15 M77.5 18.5 Q77.35 14.6 74.25 12.8 L60.2 5.35 60.25 5.35 Q55.2 2.85 50.3 3.0 L6.5 3.0 Q3.0 3.0 3.0 6.5 L3.0 27.75 Q3.0 31.25 6.5 31.25 L74.0 31.25 Q77.5 31.25 77.5 27.75 L77.5 18.5" fill="#ffffff" fill-rule="evenodd" stroke="none"/>
    <path d="M77.5 18.5 L77.5 27.75 Q77.5 31.25 74.0 31.25 L6.5 31.25 Q3.0 31.25 3.0 27.75 L3.0 6.5 Q3.0 3.0 6.5 3.0 L50.3 3.0 Q55.2 2.85 60.25 5.35 L60.2 5.35 74.25 12.8 Q77.35 14.6 77.5 18.5" fill="#000000" fill-rule="evenodd" stroke="none"/>
  </g>
</svg>
