<?xml version="1.0" encoding="UTF-8" standalone="no"?>
<svg xmlns:xlink="http://www.w3.org/1999/xlink" height="51.5px" width="70.55px" xmlns="http://www.w3.org/2000/svg">
  <g transform="matrix(1.0, 0.0, 0.0, 1.0, 0.1, 1.0)">
    <path d="M56.5 24.7 Q56.35 24.25 56.65 23.95 57.05 23.6 57.55 23.7 58.25 23.55 58.6 24.0 L58.6 28.75 58.1 32.35 Q56.9 36.45 53.95 39.3 51.7 41.95 47.5 43.5 43.35 45.1 38.85 44.5 35.5 43.8 32.9 42.15 29.05 39.95 26.6 35.85 L25.7 33.85 Q25.1 32.8 25.75 32.1 L27.0 32.0 Q27.4 32.0 27.6 32.35 L28.65 34.9 Q32.45 41.15 39.65 42.8 45.4 43.1 49.35 40.6 53.35 38.1 55.1 34.4 56.85 30.3 56.5 24.7 M44.3 10.6 L44.7 10.7 Q46.15 11.25 46.85 12.75 47.5 14.55 47.45 16.9 L47.25 17.55 46.25 18.8 44.75 18.95 Q42.75 18.35 42.0 15.85 41.4 13.5 42.0 11.65 L42.7 10.85 44.3 10.6 M59.7 -0.75 L62.6 -0.95 Q63.7 -1.2 64.15 -0.55 L66.35 15.0 67.25 21.9 67.25 30.9 66.35 30.8 Q65.85 30.4 65.8 29.4 L62.6 4.8 61.9 1.0 57.15 1.6 43.75 3.15 39.85 3.6 45.8 0.9 59.7 -0.75 M69.7 43.45 L70.15 48.25 70.45 50.5 68.0 50.5 67.5 46.05 67.35 43.9 66.55 39.45 67.25 38.55 67.4 38.3 Q67.8 41.15 69.7 43.45 M31.1 11.8 L32.05 11.6 Q33.7 11.8 34.6 12.85 35.3 13.8 35.75 15.25 36.1 16.75 35.95 18.15 L35.8 19.0 Q34.8 20.45 32.55 20.35 31.95 20.25 31.45 19.8 30.05 18.45 29.7 15.65 L29.8 14.25 Q30.0 12.75 31.1 11.8 M15.9 32.15 L16.9 32.3 Q17.45 33.8 17.5 35.35 L17.25 38.25 16.85 41.15 Q16.85 41.4 17.2 41.45 L19.35 42.15 Q21.2 43.55 21.85 46.75 L21.65 47.7 Q21.35 48.5 20.4 48.9 L18.35 49.0 18.5 50.5 16.15 50.5 16.1 49.85 15.05 46.6 15.7 45.9 16.85 45.85 18.85 47.2 Q19.45 47.4 19.6 47.05 19.4 45.4 18.5 44.5 18.0 43.75 17.1 43.2 16.35 43.2 15.75 42.8 14.8 42.95 14.3 42.25 14.15 42.0 14.3 41.65 15.35 39.9 15.25 37.4 15.45 36.05 15.3 34.5 L14.95 32.8 15.55 32.3 15.9 32.15 M4.15 36.05 Q4.05 35.2 4.45 34.5 L3.8 30.8 6.05 29.85 6.35 31.25 7.75 30.85 Q8.25 30.75 8.55 31.1 L8.6 31.55 6.9 34.0 Q6.45 35.25 6.4 36.95 6.4 38.7 7.0 40.2 L7.2 41.2 6.55 41.9 Q6.2 42.05 5.95 42.15 L4.65 42.0 Q2.6 42.0 2.2 43.25 2.1 44.3 2.4 45.5 2.45 46.05 2.8 46.4 3.1 46.85 4.0 47.0 L5.6 46.9 Q6.4 46.5 6.65 45.8 7.05 45.35 7.6 45.65 8.35 45.65 8.55 46.1 L7.7 48.4 Q7.5 49.55 7.9 50.5 L5.5 50.5 5.2 49.1 3.85 49.1 Q0.95 49.1 0.2 46.15 -0.9 42.25 1.85 40.55 L4.15 40.15 4.45 39.95 4.0 37.8 Q4.0 36.9 4.15 36.05 M11.8 46.8 L12.7 47.15 Q13.2 47.75 12.85 48.25 12.7 49.4 12.85 50.45 L12.9 50.5 9.95 50.5 Q10.55 49.1 10.6 47.4 11.1 46.75 11.8 46.8" fill="#333333" fill-rule="evenodd" stroke="none"/>
  </g>
</svg>
