<?xml version="1.0" encoding="UTF-8" standalone="no"?>
<svg xmlns:xlink="http://www.w3.org/1999/xlink" height="49.5px" width="65.85px" xmlns="http://www.w3.org/2000/svg">
  <g transform="matrix(1.0, 0.0, 0.0, 1.0, 0.05, 0.0)">
    <path d="M59.7 0.0 L60.4 3.8 63.6 28.4 Q63.65 29.4 64.15 29.8 L65.05 29.9 65.1 34.9 65.05 35.5 65.2 37.3 65.05 37.55 64.35 38.45 65.15 42.9 65.3 45.05 65.8 49.5 16.3 49.5 16.15 48.0 18.2 47.9 Q19.15 47.5 19.45 46.7 L19.65 45.75 Q19.0 42.55 17.15 41.15 L15.0 40.45 14.65 40.15 15.05 37.25 15.3 34.35 Q15.25 32.8 14.7 31.3 L13.7 31.15 13.35 31.3 12.75 31.8 13.1 33.5 Q13.25 35.05 13.05 36.4 13.15 38.9 12.1 40.65 11.95 41.0 12.1 41.25 12.6 41.95 13.55 41.8 14.15 42.2 14.9 42.2 L16.3 43.5 Q17.2 44.4 17.4 46.05 L16.65 46.2 14.65 44.85 13.5 44.9 12.85 45.6 13.9 48.85 13.95 49.5 10.7 49.5 10.65 49.45 Q10.5 48.4 10.65 47.25 11.0 46.75 10.5 46.15 L9.6 45.8 Q8.9 45.75 8.4 46.4 8.35 48.1 7.75 49.5 L5.7 49.5 Q5.3 48.55 5.5 47.4 L6.35 45.1 Q6.15 44.65 5.4 44.65 4.85 44.35 4.45 44.8 4.2 45.5 3.4 45.9 L1.8 46.0 Q0.9 45.85 0.6 45.4 0.25 45.05 0.2 44.5 -0.1 43.3 0.0 42.25 0.4 41.0 2.45 41.0 L3.75 41.15 4.35 40.9 5.0 40.2 4.8 39.2 Q4.2 37.7 4.2 35.95 4.25 34.25 4.7 33.0 L6.4 30.55 6.35 30.1 Q6.05 29.75 5.55 29.85 4.7 29.9 4.15 30.25 L3.85 28.85 9.25 26.5 9.45 26.2 Q14.95 23.65 15.4 17.85 L15.45 17.6 Q15.4 13.55 16.6 12.3 L16.9 12.05 37.65 2.6 41.55 2.15 54.95 0.6 59.7 0.0 M42.1 9.6 L40.5 9.85 39.8 10.65 Q39.2 12.5 39.8 14.85 40.55 17.35 42.55 17.95 L44.05 17.8 45.05 16.55 45.25 15.9 Q45.3 13.55 44.65 11.75 43.95 10.25 42.5 9.7 L42.1 9.6 M54.3 23.7 Q54.65 29.3 52.9 33.4 51.15 37.1 47.15 39.6 43.2 42.1 37.45 41.8 30.25 40.15 26.45 33.9 L25.4 31.35 Q25.2 31.0 24.8 31.0 L23.55 31.1 Q22.9 31.8 23.5 32.85 L24.4 34.85 Q26.85 38.95 30.7 41.15 33.3 42.8 36.65 43.5 41.15 44.1 45.3 42.5 49.5 40.95 51.75 38.3 54.7 35.45 55.9 31.35 L56.4 27.75 56.4 23.0 Q56.05 22.55 55.35 22.7 54.85 22.6 54.45 22.95 54.15 23.25 54.3 23.7 M28.9 10.8 Q27.8 11.75 27.6 13.25 L27.5 14.65 Q27.85 17.45 29.25 18.8 29.75 19.25 30.35 19.35 32.6 19.45 33.6 18.0 L33.75 17.15 Q33.9 15.75 33.55 14.25 33.1 12.8 32.4 11.85 31.5 10.8 29.85 10.6 L28.9 10.8" fill="#e22b47" fill-rule="evenodd" stroke="none"/>
  </g>
</svg>
