<?xml version="1.0" encoding="UTF-8" standalone="no"?>
<svg xmlns:xlink="http://www.w3.org/1999/xlink" height="34.25px" width="41.0px" xmlns="http://www.w3.org/2000/svg">
  <g transform="matrix(1.0, 0.0, 0.0, 1.0, 0.0, 0.0)">
    <path d="M41.0 6.5 L41.0 27.75 Q41.0 34.25 34.5 34.25 L6.5 34.25 Q0.0 34.25 0.0 27.75 L0.0 6.5 Q0.0 0.0 6.5 0.0 L34.5 0.0 Q41.0 0.0 41.0 6.5 M34.5 3.0 L6.5 3.0 Q3.0 3.0 3.0 6.5 L3.0 27.75 Q3.0 31.25 6.5 31.25 L34.5 31.25 Q38.0 31.25 38.0 27.75 L38.0 6.5 Q38.0 3.0 34.5 3.0" fill="#ffffff" fill-rule="evenodd" stroke="none"/>
    <path d="M34.5 3.0 Q38.0 3.0 38.0 6.5 L38.0 27.75 Q38.0 31.25 34.5 31.25 L6.5 31.25 Q3.0 31.25 3.0 27.75 L3.0 6.5 Q3.0 3.0 6.5 3.0 L34.5 3.0" fill="#000000" fill-rule="evenodd" stroke="none"/>
    <path d="M19.5 5.0 L19.5 18.75 5.0 18.75 5.0 6.5 Q5.0 5.0 6.5 5.0 L19.5 5.0" fill="url(#gradient0)" fill-rule="evenodd" stroke="none"/>
    <path d="M19.5 5.0 L34.5 5.0 Q36.0 5.0 36.0 6.5 L36.0 18.75 19.5 18.75 19.5 5.0" fill="url(#gradient1)" fill-rule="evenodd" stroke="none"/>
  </g>
  <defs>
    <linearGradient gradientTransform="matrix(0.0, 0.0111, -0.043, 0.0, 40.25, 15.35)" gradientUnits="userSpaceOnUse" id="gradient0" spreadMethod="pad" x1="-819.2" x2="819.2">
      <stop offset="0.0" stop-color="#ffffff" stop-opacity="0.4"/>
      <stop offset="1.0" stop-color="#ffffff" stop-opacity="0.0"/>
    </linearGradient>
    <linearGradient gradientTransform="matrix(0.0, 0.0111, 0.043, 0.0, 0.75, 15.35)" gradientUnits="userSpaceOnUse" id="gradient1" spreadMethod="pad" x1="-819.2" x2="819.2">
      <stop offset="0.0" stop-color="#ffffff" stop-opacity="0.4"/>
      <stop offset="1.0" stop-color="#ffffff" stop-opacity="0.0"/>
    </linearGradient>
  </defs>
</svg>
