<?xml version="1.0" encoding="UTF-8" standalone="no"?>
<svg xmlns:xlink="http://www.w3.org/1999/xlink" height="22.0px" width="32.55px" xmlns="http://www.w3.org/2000/svg">
  <g transform="matrix(1.0, 0.0, 0.0, 1.0, -6.2, -94.25)">
    <path d="M11.2 94.25 L33.75 94.25 Q38.75 94.25 38.75 99.25 L38.75 111.25 Q38.75 116.25 33.75 116.25 L11.2 116.25 Q6.2 116.25 6.2 111.25 L6.2 99.25 Q6.2 94.25 11.2 94.25 M33.75 97.25 L11.2 97.25 Q9.2 97.25 9.2 99.25 L9.2 111.25 Q9.2 113.25 11.2 113.25 L33.75 113.25 Q35.75 113.25 35.75 111.25 L35.75 99.25 Q35.75 97.25 33.75 97.25" fill="#c4bda4" fill-rule="evenodd" stroke="none"/>
  </g>
</svg>
