<?xml version="1.0" encoding="UTF-8" standalone="no"?>
<svg xmlns:xlink="http://www.w3.org/1999/xlink" height="15.05px" width="18.3px" xmlns="http://www.w3.org/2000/svg">
  <g transform="matrix(1.0, 0.0, 0.0, 1.0, 5.75, -6.75)">
    <path d="M7.35 12.25 L6.1 12.5 5.95 12.45 4.95 11.7 4.9 11.6 Q4.6 11.1 4.85 10.35 5.0 9.7 5.6 9.35 L9.7 7.0 10.95 6.8 11.1 6.8 Q11.8 7.05 12.05 7.7 L12.1 7.75 Q12.35 8.25 12.25 8.8 L12.2 8.95 Q12.0 9.6 11.45 9.9 L11.4 9.95 7.3 12.3 7.35 12.25 M1.05 8.55 Q1.45 8.55 1.75 8.85 L2.0 9.55 2.0 19.45 1.75 20.15 1.05 20.45 0.35 20.2 -3.05 17.25 -4.75 17.25 -5.45 16.95 -5.75 16.25 -5.75 12.85 -5.45 12.15 Q-5.15 11.85 -4.75 11.85 L-3.1 11.85 0.35 8.8 Q0.6 8.55 1.05 8.55 M4.95 13.1 L5.05 13.0 Q5.5 12.65 6.1 12.65 L10.9 12.65 Q11.5 12.65 11.95 13.0 L12.15 13.2 Q12.55 13.75 12.55 14.3 L12.15 15.45 12.05 15.5 Q11.55 16.0 10.9 16.0 L6.1 16.0 Q5.45 16.0 4.95 15.5 4.35 14.9 4.4 14.3 4.35 13.7 4.95 13.1 M4.95 16.85 Q5.3 16.2 6.1 16.1 L7.2 16.2 7.25 16.25 11.4 18.65 11.5 18.7 12.1 19.4 12.25 19.75 Q12.35 20.4 12.05 20.85 11.75 21.55 11.1 21.7 L9.7 21.55 9.7 21.6 5.6 19.2 Q5.0 18.9 4.85 18.25 4.65 17.55 4.9 17.0 L4.95 16.85" fill="#000000" fill-rule="evenodd" stroke="none"/>
    <path d="M1.0 9.55 L1.0 19.45 -2.7 16.25 -4.75 16.25 -4.75 12.85 -2.7 12.85 1.0 9.55 M5.4 14.3 L5.65 13.8 Q5.85 13.65 6.1 13.65 L10.9 13.65 11.35 13.8 11.55 14.3 11.35 14.8 10.9 15.0 6.1 15.0 5.65 14.8 5.4 14.3 M5.8 17.35 Q5.95 17.1 6.25 17.05 L6.75 17.1 10.9 19.5 11.25 19.9 11.15 20.4 10.75 20.75 10.2 20.7 6.1 18.3 Q5.85 18.2 5.8 17.9 L5.8 17.35 M10.75 7.75 L11.15 8.1 11.25 8.6 10.9 9.05 6.8 11.4 6.25 11.5 5.8 11.15 5.8 10.65 Q5.85 10.35 6.1 10.2 L10.2 7.85 10.75 7.75" fill="#ffffff" fill-rule="evenodd" stroke="none"/>
  </g>
</svg>
