<?xml version="1.0" encoding="UTF-8" standalone="no"?>
<svg xmlns:xlink="http://www.w3.org/1999/xlink" height="11.9px" width="16.65px" xmlns="http://www.w3.org/2000/svg">
  <g transform="matrix(1.0, 0.0, 0.0, 1.0, 5.75, -8.55)">
    <path d="M7.0 11.85 L7.75 11.1 7.85 11.05 Q8.35 10.6 9.05 10.6 9.95 10.6 10.35 11.1 10.9 11.65 10.9 12.4 L10.9 12.55 Q10.8 13.25 10.35 13.65 L9.55 14.45 10.25 15.15 Q10.8 15.55 10.9 16.3 L10.9 16.6 10.4 17.65 10.35 17.7 10.3 17.75 10.25 17.8 9.2 18.3 9.05 18.3 Q8.3 18.3 7.75 17.75 L7.0 17.0 6.25 17.75 Q5.85 18.2 5.15 18.3 L4.85 18.3 Q4.15 18.2 3.75 17.7 3.2 17.2 3.2 16.45 3.2 15.75 3.65 15.25 L3.7 15.15 4.45 14.45 3.7 13.7 Q3.2 13.3 3.2 12.4 3.2 11.7 3.65 11.2 L3.8 11.05 Q4.3 10.6 5.0 10.6 5.8 10.6 6.25 11.15 L7.0 11.85 M1.05 8.55 Q1.45 8.55 1.75 8.85 L2.0 9.55 2.0 19.45 1.75 20.15 1.05 20.45 0.35 20.2 -3.05 17.25 -4.75 17.25 -5.45 16.95 -5.75 16.25 -5.75 12.85 -5.45 12.15 Q-5.15 11.85 -4.75 11.85 L-3.1 11.85 0.35 8.8 Q0.6 8.55 1.05 8.55" fill="#000000" fill-rule="evenodd" stroke="none"/>
    <path d="M1.0 9.55 L1.0 19.45 -2.7 16.25 -4.75 16.25 -4.75 12.85 -2.7 12.85 1.0 9.55 M4.4 11.8 L5.0 11.6 Q5.35 11.6 5.55 11.85 L7.0 13.25 8.45 11.8 9.05 11.6 9.65 11.8 9.9 12.4 9.6 12.95 8.15 14.45 9.6 15.9 9.9 16.45 9.6 17.0 9.05 17.3 8.45 17.05 7.0 15.6 5.55 17.0 5.0 17.3 Q4.65 17.25 4.45 17.0 4.2 16.8 4.2 16.45 L4.4 15.85 5.85 14.45 4.4 13.0 4.2 12.4 4.4 11.8" fill="#ffffff" fill-rule="evenodd" stroke="none"/>
  </g>
</svg>
