<?xml version="1.0" encoding="UTF-8" standalone="no"?>
<svg xmlns:xlink="http://www.w3.org/1999/xlink" height="11.0px" width="11.0px" xmlns="http://www.w3.org/2000/svg">
  <g transform="matrix(1.0, 0.0, 0.0, 1.0, -18.1, -99.95)">
    <path d="M29.1 103.45 Q29.15 104.3 28.45 105.1 L28.4 105.15 Q27.95 105.7 26.65 106.45 L26.6 106.5 25.95 106.95 25.9 107.15 25.9 107.35 26.0 107.8 26.0 109.95 25.7 110.65 25.0 110.95 21.7 110.95 Q21.3 110.95 21.0 110.65 20.7 110.35 20.7 109.95 L20.7 107.8 Q20.7 107.55 20.85 107.35 L20.8 107.15 20.8 106.9 Q20.8 106.1 21.05 105.6 L21.1 105.5 21.45 105.05 19.0 104.8 18.55 104.6 18.2 104.2 18.1 103.7 Q18.3 101.9 19.85 100.9 L19.8 100.95 Q21.1 99.95 23.7 99.95 25.75 99.95 27.0 100.6 L27.05 100.65 Q29.2 101.7 29.1 103.45" fill="#000000" fill-rule="evenodd" stroke="none"/>
    <path d="M28.1 103.45 L27.65 104.45 26.1 105.6 Q25.3 106.1 25.1 106.4 L24.9 107.15 21.8 107.15 21.8 106.9 Q21.8 106.35 21.95 106.0 L22.5 105.3 24.1 104.3 24.75 103.55 24.5 103.05 23.7 102.85 Q23.15 102.85 22.75 103.15 L22.25 104.1 19.1 103.8 Q19.25 102.5 20.4 101.75 21.5 100.95 23.7 100.95 25.5 100.95 26.55 101.5 28.1 102.25 28.1 103.45 M25.0 109.95 L21.7 109.95 21.7 107.8 25.0 107.8 25.0 109.95" fill="#ffffff" fill-rule="evenodd" stroke="none"/>
  </g>
</svg>
