<?xml version="1.0" encoding="UTF-8" standalone="no"?>
<svg xmlns:xlink="http://www.w3.org/1999/xlink" height="390.0px" width="390.0px" xmlns="http://www.w3.org/2000/svg">
  <g transform="matrix(1.0, 0.0, 0.0, 1.0, 0.0, 0.0)">
    <path d="M384.0 194.95 Q384.0 116.7 328.6 61.3 273.25 5.95 195.0 5.95 116.75 5.95 61.4 61.3 6.05 116.7 6.05 194.95 6.05 273.2 61.4 328.5 116.75 383.9 195.0 383.9 273.25 383.9 328.6 328.5 384.0 273.2 384.0 194.95 M390.0 195.0 Q390.0 275.75 332.85 332.85 275.75 390.0 195.0 390.0 114.25 390.0 57.1 332.85 0.0 275.75 0.0 195.0 0.0 114.25 57.1 57.1 114.25 0.0 195.0 0.0 275.75 0.0 332.85 57.1 390.0 114.25 390.0 195.0" fill="#aea482" fill-rule="evenodd" stroke="none"/>
  </g>
</svg>
