<?xml version="1.0" encoding="UTF-8" standalone="no"?>
<svg xmlns:xlink="http://www.w3.org/1999/xlink" height="247.45px" width="296.4px" xmlns="http://www.w3.org/2000/svg">
  <g transform="matrix(1.0, 0.0, 0.0, 1.0, 0.0, 0.0)">
    <path d="M210.1 13.8 Q211.35 14.0 211.5 14.85 209.95 20.4 211.4 26.6 211.1 32.15 212.5 36.55 221.3 67.45 236.85 91.6 251.4 113.3 271.1 129.9 276.4 135.45 282.85 139.9 282.35 142.75 281.5 145.15 281.05 146.3 279.8 145.85 261.95 138.85 248.45 127.55 L237.4 118.3 Q220.55 103.7 206.95 85.75 200.45 77.1 194.6 67.75 185.25 50.0 177.45 31.05 174.7 24.3 173.6 16.35 173.85 15.55 174.85 15.5 183.85 13.95 193.4 13.3 L210.1 13.8 M254.45 69.7 Q263.1 78.9 278.0 82.15 L286.9 85.55 Q287.95 86.25 288.0 87.55 289.5 98.5 288.6 110.15 287.75 121.75 285.3 131.05 284.9 131.6 284.5 131.25 260.05 112.75 242.85 87.2 235.05 73.8 228.6 59.15 223.5 47.55 220.25 34.55 219.0 28.75 219.1 22.55 219.1 19.05 220.1 16.5 220.4 15.8 220.85 15.7 226.7 16.6 232.15 19.0 234.85 19.3 237.15 20.65 L242.95 23.6 243.7 24.5 242.4 33.65 Q242.4 50.95 249.15 62.4 L254.45 69.7 M253.8 29.55 Q257.55 32.25 260.9 35.4 272.85 45.95 279.9 61.5 282.6 67.6 284.95 74.55 L284.95 75.7 Q269.9 73.85 260.9 65.8 L255.35 57.6 Q252.55 52.5 251.4 45.3 250.25 38.15 251.55 30.45 251.6 29.95 251.95 29.4 L253.8 29.55 M169.4 172.5 Q176.95 180.15 186.55 185.75 205.65 201.7 228.5 213.7 229.2 214.2 228.5 214.85 L227.2 215.95 Q221.35 222.0 214.4 226.8 213.4 227.3 213.4 227.5 205.65 223.45 200.65 218.1 L180.7 202.55 157.8 181.3 136.55 159.5 121.45 136.65 Q117.75 127.75 113.2 119.7 108.6 111.7 104.8 103.1 100.2 94.9 97.0 85.75 L94.55 76.1 Q94.3 72.9 94.95 69.8 93.1 66.45 96.65 64.35 L99.7 68.0 Q100.4 80.75 104.0 91.25 106.45 94.65 107.25 99.85 109.55 105.55 113.1 110.1 116.6 114.65 119.75 119.5 132.35 136.45 146.1 152.2 156.65 163.5 169.4 172.5 M83.9 81.8 Q84.9 79.85 86.5 78.3 87.3 78.05 87.5 79.35 88.8 86.4 91.5 92.15 L96.65 103.75 Q101.7 114.5 107.7 124.25 113.2 137.45 121.2 148.1 132.05 167.45 148.25 181.55 163.5 196.3 179.35 210.35 L185.85 215.7 Q190.5 219.9 195.85 223.35 200.05 227.9 204.65 231.4 205.25 232.3 204.25 232.9 198.55 236.25 190.6 238.4 183.15 235.9 177.5 230.75 166.65 222.95 156.65 214.2 133.45 194.9 117.1 168.9 107.4 153.95 100.4 136.6 96.5 128.4 93.3 119.45 91.8 114.85 89.7 110.7 87.6 106.55 86.6 101.2 84.6 92.3 83.9 81.8 M75.75 97.95 Q76.05 96.95 76.7 95.9 77.4 95.2 77.85 95.9 79.85 109.0 85.15 118.65 94.8 145.2 108.3 168.1 116.55 181.85 126.25 194.3 148.9 219.55 176.5 239.35 177.0 240.1 176.05 240.5 171.1 241.15 165.8 240.55 L155.25 239.6 Q148.05 233.0 140.4 227.0 126.2 211.1 113.65 193.7 L101.4 177.2 Q96.2 167.5 91.4 157.7 89.7 152.85 88.6 147.65 87.45 142.45 85.3 138.15 80.8 127.85 78.15 115.55 76.5 107.1 75.75 97.95" fill="#ffffff" fill-rule="evenodd" stroke="none"/>
    <path d="M280.75 49.0 Q291.55 66.05 295.95 89.3 297.85 115.15 292.15 136.1 286.1 161.15 273.0 179.4 267.7 188.35 260.85 196.0 260.25 196.9 260.85 197.75 L264.8 201.95 Q267.45 201.7 268.95 200.6 271.35 198.9 274.8 198.4 280.75 197.7 285.25 199.3 290.3 201.4 291.15 207.45 L291.1 212.5 Q289.5 217.6 284.15 219.15 283.0 219.85 283.8 221.3 285.8 223.6 287.1 227.1 288.25 231.3 286.5 234.5 284.9 236.7 281.55 237.6 L274.9 237.3 Q273.7 237.2 273.4 238.25 272.1 241.95 268.05 243.75 264.0 245.5 259.4 243.9 L255.5 241.35 Q254.5 241.0 253.8 241.95 251.4 246.25 244.9 245.8 239.3 244.75 237.3 239.6 236.35 236.6 236.8 233.0 237.85 227.25 240.25 222.8 L240.25 221.65 Q238.8 219.35 236.1 219.0 227.35 227.3 217.45 234.15 209.35 239.7 199.2 243.3 189.0 246.9 175.55 247.0 168.9 247.9 162.15 246.95 112.35 241.65 85.55 213.05 L81.7 209.25 Q79.4 209.3 78.15 210.7 69.7 216.4 61.4 222.35 L50.1 233.25 Q44.95 234.0 42.15 231.85 39.3 229.7 37.75 226.6 32.0 216.5 27.25 205.45 22.55 194.4 20.45 180.8 19.05 173.1 19.2 163.95 21.75 151.85 36.1 152.3 41.7 153.6 45.05 157.65 53.0 165.75 56.5 178.15 L59.5 187.3 Q60.25 188.3 61.15 187.75 63.5 185.5 66.15 183.7 66.95 183.0 66.7 181.95 61.45 167.35 59.65 149.4 59.55 148.5 58.55 148.05 54.9 146.75 50.3 146.55 L43.35 146.3 24.7 147.1 Q18.45 146.65 16.5 141.65 19.0 128.75 22.8 117.55 27.25 95.25 37.95 79.05 40.5 75.75 43.7 72.95 46.9 71.4 51.2 70.35 55.45 69.3 59.7 70.35 62.85 71.8 63.95 75.1 L65.75 78.85 Q61.1 99.15 53.4 117.0 53.0 118.0 53.35 118.95 53.9 120.2 55.45 120.3 L59.4 120.65 Q60.35 120.35 60.75 118.95 67.35 92.8 80.6 73.35 88.3 60.45 99.55 50.7 100.65 50.15 101.45 48.75 101.65 47.65 100.45 46.85 98.8 46.0 97.55 44.65 95.85 42.65 95.8 39.6 95.75 36.55 97.75 34.8 99.5 32.15 103.1 31.2 106.95 30.2 111.4 30.2 112.25 29.95 112.35 29.1 111.45 26.05 111.75 21.8 112.3 18.3 114.65 15.85 124.55 15.3 130.3 19.2 131.8 19.45 132.45 17.7 133.6 14.5 135.3 11.85 139.25 6.5 148.0 8.3 150.65 9.35 152.05 11.8 152.8 13.45 154.2 13.6 170.15 8.55 189.9 6.85 195.9 6.45 202.1 6.9 227.95 8.2 246.05 18.0 253.65 21.8 260.45 26.6 272.6 35.85 280.75 49.0 M253.8 29.55 L251.95 29.4 Q251.6 29.95 251.55 30.45 250.25 38.15 251.4 45.3 252.55 52.5 255.35 57.6 L260.9 65.8 Q269.9 73.85 284.95 75.7 L284.95 74.55 Q282.6 67.6 279.9 61.5 272.85 45.95 260.9 35.4 257.55 32.25 253.8 29.55 M254.45 69.7 L249.15 62.4 Q242.4 50.95 242.4 33.65 L243.7 24.5 242.95 23.6 237.15 20.65 Q234.85 19.3 232.15 19.0 226.7 16.6 220.85 15.7 220.4 15.8 220.1 16.5 219.1 19.05 219.1 22.55 219.0 28.75 220.25 34.55 223.5 47.55 228.6 59.15 235.05 73.8 242.85 87.2 260.05 112.75 284.5 131.25 284.9 131.6 285.3 131.05 287.75 121.75 288.6 110.15 289.5 98.5 288.0 87.55 287.95 86.25 286.9 85.55 L278.0 82.15 Q263.1 78.9 254.45 69.7 M210.1 13.8 L193.4 13.3 Q183.85 13.95 174.85 15.5 173.85 15.55 173.6 16.35 174.7 24.3 177.45 31.05 185.25 50.0 194.6 67.75 200.45 77.1 206.95 85.75 220.55 103.7 237.4 118.3 L248.45 127.55 Q261.95 138.85 279.8 145.85 281.05 146.3 281.5 145.15 282.35 142.75 282.85 139.9 276.4 135.45 271.1 129.9 251.4 113.3 236.85 91.6 221.3 67.45 212.5 36.55 211.1 32.15 211.4 26.6 209.95 20.4 211.5 14.85 211.35 14.0 210.1 13.8 M165.4 17.95 Q159.65 19.05 155.3 21.35 153.05 33.3 146.45 40.2 147.65 43.9 149.0 46.9 150.95 50.5 149.9 54.95 L149.05 55.8 Q145.45 56.8 144.05 54.15 140.55 47.65 138.25 40.15 137.55 38.25 138.6 36.8 145.65 30.55 147.35 18.7 146.95 16.25 145.85 14.0 145.1 13.25 144.0 13.75 142.25 14.5 141.3 16.1 L139.3 20.55 Q138.8 22.45 138.7 25.8 139.55 28.55 137.65 30.75 134.0 32.5 131.05 29.4 128.5 23.15 120.4 21.9 119.75 22.05 119.35 22.9 118.35 25.0 119.25 26.3 124.2 30.0 128.6 35.25 129.5 36.35 129.2 38.3 128.5 40.3 125.95 41.4 121.7 39.1 116.75 37.2 113.95 36.05 110.6 36.3 107.25 36.5 105.0 38.05 103.5 39.25 104.0 41.25 L104.4 41.65 Q109.05 43.55 114.8 43.9 118.4 43.95 121.0 45.4 123.35 47.55 121.7 50.55 120.6 51.75 119.3 51.8 114.0 51.95 110.85 54.45 107.7 56.95 105.7 60.4 104.95 61.7 105.85 62.65 109.85 65.4 114.75 63.55 117.5 61.95 119.65 59.15 120.8 56.15 125.05 56.25 128.4 56.55 129.3 59.55 L131.35 74.1 Q132.15 76.0 131.8 78.15 131.45 80.25 130.0 81.05 L125.3 80.95 Q123.3 79.75 122.5 77.85 122.6 74.1 121.7 70.5 121.35 69.4 120.25 69.7 117.7 71.3 113.6 71.4 L108.05 71.8 Q108.45 79.85 110.05 85.9 113.45 93.0 115.7 101.15 119.5 107.75 124.2 113.85 L136.9 131.0 Q148.2 145.85 162.1 158.15 167.7 162.8 173.65 167.05 174.55 167.8 175.1 167.5 178.4 163.85 184.25 163.8 190.1 163.8 193.4 167.3 195.3 169.8 195.3 174.0 195.35 178.2 193.25 180.55 192.5 181.4 193.2 182.15 209.2 195.45 228.8 205.0 231.85 206.95 235.3 207.95 L242.3 201.55 Q244.65 199.1 247.55 197.35 L252.2 198.05 Q251.45 195.6 252.3 193.8 267.45 176.75 277.4 154.55 277.5 153.45 276.55 153.1 257.05 144.55 242.0 131.65 221.65 115.3 204.7 95.55 189.35 76.55 178.9 52.75 169.95 37.75 165.4 17.95 M235.5 139.9 L236.25 139.85 Q242.25 138.45 245.35 142.1 246.8 144.35 245.95 146.65 245.05 149.0 243.5 150.4 241.75 151.75 240.2 153.4 L235.8 155.75 229.75 156.55 Q224.4 155.85 222.75 151.55 223.4 147.0 226.45 144.35 229.8 140.95 235.5 139.9 M224.25 119.95 Q226.45 120.85 227.25 122.95 227.7 128.75 223.55 130.65 218.6 134.45 211.3 135.35 206.7 135.35 204.65 132.15 L203.8 131.15 Q203.85 125.8 207.55 123.85 210.25 121.6 213.55 119.9 L214.4 119.6 Q219.6 118.4 224.25 119.95 M169.4 172.5 Q156.65 163.5 146.1 152.2 132.35 136.45 119.75 119.5 116.6 114.65 113.1 110.1 109.55 105.55 107.25 99.85 106.45 94.65 104.0 91.25 100.4 80.75 99.7 68.0 L96.65 64.35 Q93.1 66.45 94.95 69.8 94.3 72.9 94.55 76.1 L97.0 85.75 Q100.2 94.9 104.8 103.1 108.6 111.7 113.2 119.7 117.75 127.75 121.45 136.65 L136.55 159.5 157.8 181.3 180.7 202.55 200.65 218.1 Q205.65 223.45 213.4 227.5 213.4 227.3 214.4 226.8 221.35 222.0 227.2 215.95 L228.5 214.85 Q229.2 214.2 228.5 213.7 205.65 201.7 186.55 185.75 176.95 180.15 169.4 172.5 M104.6 0.4 Q105.7 1.6 104.7 2.75 99.75 4.1 95.7 6.85 92.9 9.3 91.85 13.45 91.3 14.5 90.1 13.85 88.3 11.95 89.55 8.8 91.05 5.2 94.1 3.05 96.5 1.3 99.65 0.45 102.1 -0.4 104.6 0.4 M114.0 7.75 L113.95 9.5 Q113.2 10.9 111.75 10.9 107.65 11.0 105.6 13.4 102.35 15.3 101.55 18.9 101.1 20.4 99.8 19.75 98.55 18.85 98.65 17.5 99.1 15.05 100.15 13.25 103.05 9.4 107.5 7.15 L107.9 7.0 113.1 6.85 Q113.8 7.1 114.0 7.75 M83.9 81.8 Q84.6 92.3 86.6 101.2 87.6 106.55 89.7 110.7 91.8 114.85 93.3 119.45 96.5 128.4 100.4 136.6 107.4 153.95 117.1 168.9 133.45 194.9 156.65 214.2 166.65 222.95 177.5 230.75 183.15 235.9 190.6 238.4 198.55 236.25 204.25 232.9 205.25 232.3 204.65 231.4 200.05 227.9 195.85 223.35 190.5 219.9 185.85 215.7 L179.35 210.35 Q163.5 196.3 148.25 181.55 132.05 167.45 121.2 148.1 113.2 137.45 107.7 124.25 101.7 114.5 96.65 103.75 L91.5 92.15 Q88.8 86.4 87.5 79.35 87.3 78.05 86.5 78.3 84.9 79.85 83.9 81.8 M34.8 61.0 L36.15 60.45 Q39.35 59.8 42.15 60.4 42.85 60.85 42.75 61.65 42.5 63.15 41.5 63.35 L36.75 64.1 Q35.1 64.6 33.6 65.65 30.85 67.75 30.2 70.8 29.55 72.35 28.45 71.85 26.95 70.7 27.7 69.15 28.65 61.9 34.8 61.0 M33.6 54.4 Q34.75 55.4 33.2 56.8 L26.25 58.95 Q21.8 61.4 20.25 66.55 18.3 66.95 17.85 66.05 17.75 60.2 21.75 57.8 L25.05 55.5 29.05 54.25 33.6 54.4 M48.2 79.5 Q46.05 81.3 44.3 83.5 38.5 92.35 34.4 103.15 L24.45 139.3 Q24.55 140.95 25.65 141.05 28.4 140.8 31.2 141.0 L48.7 140.45 Q57.5 140.8 64.65 142.9 66.6 143.65 67.7 147.05 68.9 166.15 74.75 181.95 75.75 183.85 75.05 186.45 73.3 188.05 70.7 189.2 65.55 192.85 61.5 198.85 60.55 202.15 55.45 201.2 53.2 200.3 53.05 197.7 51.7 173.9 39.3 161.15 37.75 158.75 33.95 158.6 30.0 160.0 27.4 163.05 26.55 164.65 26.45 166.85 27.5 184.65 32.5 198.7 37.5 212.75 44.9 224.45 46.05 226.25 47.45 225.65 51.65 220.95 56.65 216.8 67.4 209.35 77.7 201.55 79.05 200.45 81.2 200.2 83.35 199.95 84.75 201.2 L90.8 208.95 Q106.35 225.0 129.75 233.2 133.3 235.2 138.2 235.75 138.2 234.95 137.6 234.5 135.0 232.4 132.7 229.75 L123.95 218.8 Q111.05 203.45 99.45 186.75 91.4 174.25 84.5 160.6 82.2 153.85 80.4 146.7 78.6 139.55 75.3 133.85 72.6 125.6 70.5 116.7 69.95 116.05 69.3 116.9 L67.2 124.4 Q65.1 126.6 60.15 126.75 57.95 125.7 54.6 125.5 51.2 125.3 48.35 125.6 44.6 124.6 44.1 121.1 52.95 102.35 58.15 79.85 58.65 77.8 57.2 76.95 L53.5 77.15 Q50.45 77.9 48.2 79.5 M75.75 97.95 Q76.5 107.1 78.15 115.55 80.8 127.85 85.3 138.15 87.45 142.45 88.6 147.65 89.7 152.85 91.4 157.7 96.2 167.5 101.4 177.2 L113.65 193.7 Q126.2 211.1 140.4 227.0 148.05 233.0 155.25 239.6 L165.8 240.55 Q171.1 241.15 176.05 240.5 177.0 240.1 176.5 239.35 148.9 219.55 126.25 194.3 116.55 181.85 108.3 168.1 94.8 145.2 85.15 118.65 79.85 109.0 77.85 95.9 77.4 95.2 76.7 95.9 76.05 96.95 75.75 97.95 M8.1 160.55 Q8.9 162.0 8.0 163.4 5.6 166.25 4.15 169.7 3.0 175.85 6.35 179.1 5.55 180.85 4.65 180.45 0.45 178.8 0.0 173.0 0.1 164.55 5.1 160.95 L6.1 160.05 Q7.3 159.65 8.1 160.55 M283.7 206.3 Q283.5 205.55 282.45 205.1 280.05 204.25 276.15 204.45 273.15 205.65 270.25 207.95 268.55 210.65 264.45 210.6 263.05 210.4 262.2 209.6 L256.3 202.55 Q255.25 201.1 253.9 201.0 L253.5 201.5 Q253.55 202.8 252.75 203.8 249.8 207.35 246.35 210.35 244.25 212.1 243.15 214.5 243.55 215.8 245.55 217.0 248.9 218.3 248.9 223.55 246.7 225.85 244.9 229.5 243.1 233.2 243.8 237.9 244.4 239.6 245.9 239.35 248.6 238.05 249.4 234.95 250.15 230.1 251.5 226.2 254.4 225.4 257.0 226.15 257.65 226.4 257.9 227.05 258.6 229.9 258.95 233.1 259.5 236.85 262.6 238.7 263.8 238.9 265.0 237.6 266.5 236.05 265.95 233.9 265.4 231.75 264.5 230.2 262.05 227.5 262.75 223.15 264.2 222.0 266.45 222.05 268.7 222.15 269.7 223.15 271.8 227.35 273.9 230.55 276.25 232.85 279.75 231.15 280.75 229.55 279.8 227.4 278.4 225.1 275.9 223.75 L271.5 220.9 Q269.4 219.35 269.05 216.55 269.25 214.25 271.6 213.65 276.8 214.6 280.75 213.0 282.6 212.5 283.7 211.15 284.3 208.85 283.7 206.3" fill="#221f14" fill-rule="evenodd" stroke="none"/>
    <path d="M165.4 17.95 Q169.95 37.75 178.9 52.75 189.35 76.55 204.7 95.55 221.65 115.3 242.0 131.65 257.05 144.55 276.55 153.1 277.5 153.45 277.4 154.55 267.45 176.75 252.3 193.8 251.45 195.6 252.2 198.05 L247.55 197.35 Q244.65 199.1 242.3 201.55 L235.3 207.95 Q231.85 206.95 228.8 205.0 209.2 195.45 193.2 182.15 192.5 181.4 193.25 180.55 195.35 178.2 195.3 174.0 195.3 169.8 193.4 167.3 190.1 163.8 184.25 163.8 178.4 163.85 175.1 167.5 174.55 167.8 173.65 167.05 167.7 162.8 162.1 158.15 148.2 145.85 136.9 131.0 L124.2 113.85 Q119.5 107.75 115.7 101.15 113.45 93.0 110.05 85.9 108.45 79.85 108.05 71.8 L113.6 71.4 Q117.7 71.3 120.25 69.7 121.35 69.4 121.7 70.5 122.6 74.1 122.5 77.85 123.3 79.75 125.3 80.95 L130.0 81.05 Q131.45 80.25 131.8 78.15 132.15 76.0 131.35 74.1 L129.3 59.55 Q128.4 56.55 125.05 56.25 120.8 56.15 119.65 59.15 117.5 61.95 114.75 63.55 109.85 65.4 105.85 62.65 104.95 61.7 105.7 60.4 107.7 56.95 110.85 54.45 114.0 51.95 119.3 51.8 120.6 51.75 121.7 50.55 123.35 47.55 121.0 45.4 118.4 43.95 114.8 43.9 109.05 43.55 104.4 41.65 L104.0 41.25 Q103.5 39.25 105.0 38.05 107.25 36.5 110.6 36.3 113.95 36.05 116.75 37.2 121.7 39.1 125.95 41.4 128.5 40.3 129.2 38.3 129.5 36.35 128.6 35.25 124.2 30.0 119.25 26.3 118.35 25.0 119.35 22.9 119.75 22.05 120.4 21.9 128.5 23.15 131.05 29.4 134.0 32.5 137.65 30.75 139.55 28.55 138.7 25.8 138.8 22.45 139.3 20.55 L141.3 16.1 Q142.25 14.5 144.0 13.75 145.1 13.25 145.85 14.0 146.95 16.25 147.35 18.7 145.65 30.55 138.6 36.8 137.55 38.25 138.25 40.15 140.55 47.65 144.05 54.15 145.45 56.8 149.05 55.8 L149.9 54.95 Q150.95 50.5 149.0 46.9 147.65 43.9 146.45 40.2 153.05 33.3 155.3 21.35 159.65 19.05 165.4 17.95 M224.25 119.95 Q219.6 118.4 214.4 119.6 L213.55 119.9 Q210.25 121.6 207.55 123.85 203.85 125.8 203.8 131.15 L204.65 132.15 Q206.7 135.35 211.3 135.35 218.6 134.45 223.55 130.65 227.7 128.75 227.25 122.95 226.45 120.85 224.25 119.95 M235.5 139.9 Q229.8 140.95 226.45 144.35 223.4 147.0 222.75 151.55 224.4 155.85 229.75 156.55 L235.8 155.75 240.2 153.4 Q241.75 151.75 243.5 150.4 245.05 149.0 245.95 146.65 246.8 144.35 245.35 142.1 242.25 138.45 236.25 139.85 L235.5 139.9 M48.2 79.5 Q50.45 77.9 53.5 77.15 L57.2 76.95 Q58.65 77.8 58.15 79.85 52.95 102.35 44.1 121.1 44.6 124.6 48.35 125.6 51.2 125.3 54.6 125.5 57.95 125.7 60.15 126.75 65.1 126.6 67.2 124.4 L69.3 116.9 Q69.95 116.05 70.5 116.7 72.6 125.6 75.3 133.85 78.6 139.55 80.4 146.7 82.2 153.85 84.5 160.6 91.4 174.25 99.45 186.75 111.05 203.45 123.95 218.8 L132.7 229.75 Q135.0 232.4 137.6 234.5 138.2 234.95 138.2 235.75 133.3 235.2 129.75 233.2 106.35 225.0 90.8 208.95 L84.75 201.2 Q83.35 199.95 81.2 200.2 79.05 200.45 77.7 201.55 67.4 209.35 56.65 216.8 51.65 220.95 47.45 225.65 46.05 226.25 44.9 224.45 37.5 212.75 32.5 198.7 27.5 184.65 26.45 166.85 26.55 164.65 27.4 163.05 30.0 160.0 33.95 158.6 37.75 158.75 39.3 161.15 51.7 173.9 53.05 197.7 53.2 200.3 55.45 201.2 60.55 202.15 61.5 198.85 65.55 192.85 70.7 189.2 73.3 188.05 75.05 186.45 75.75 183.85 74.75 181.95 68.9 166.15 67.7 147.05 66.6 143.65 64.65 142.9 57.5 140.8 48.7 140.45 L31.2 141.0 Q28.4 140.8 25.65 141.05 24.55 140.95 24.45 139.3 L34.4 103.15 Q38.5 92.35 44.3 83.5 46.05 81.3 48.2 79.5 M283.7 206.3 Q284.3 208.85 283.7 211.15 282.6 212.5 280.75 213.0 276.8 214.6 271.6 213.65 269.25 214.25 269.05 216.55 269.4 219.35 271.5 220.9 L275.9 223.75 Q278.4 225.1 279.8 227.4 280.75 229.55 279.75 231.15 276.25 232.85 273.9 230.55 271.8 227.35 269.7 223.15 268.7 222.15 266.45 222.05 264.2 222.0 262.75 223.15 262.05 227.5 264.5 230.2 265.4 231.75 265.95 233.9 266.5 236.05 265.0 237.6 263.8 238.9 262.6 238.7 259.5 236.85 258.95 233.1 258.6 229.9 257.9 227.05 257.65 226.4 257.0 226.15 254.4 225.4 251.5 226.2 250.15 230.1 249.4 234.95 248.6 238.05 245.9 239.35 244.4 239.6 243.8 237.9 243.1 233.2 244.9 229.5 246.7 225.85 248.9 223.55 248.9 218.3 245.55 217.0 243.55 215.8 243.15 214.5 244.25 212.1 246.35 210.35 249.8 207.35 252.75 203.8 253.55 202.8 253.5 201.5 L253.9 201.0 Q255.25 201.1 256.3 202.55 L262.2 209.6 Q263.05 210.4 264.45 210.6 268.55 210.65 270.25 207.95 273.15 205.65 276.15 204.45 280.05 204.25 282.45 205.1 283.5 205.55 283.7 206.3" fill="#03abe5" fill-rule="evenodd" stroke="none"/>
  </g>
</svg>
