<?xml version="1.0" encoding="UTF-8" standalone="no"?>
<svg xmlns:xlink="http://www.w3.org/1999/xlink" height="68.5px" width="160.5px" xmlns="http://www.w3.org/2000/svg">
  <g transform="matrix(1.0, 0.0, 0.0, 1.0, 0.0, 0.0)">
    <path d="M136.35 9.55 Q160.8 19.7 160.5 34.25 160.8 48.8 136.3 58.85 L136.35 58.85 Q113.1 68.5 80.25 68.5 47.4 68.5 24.15 58.85 -0.3 48.8 0.0 34.25 -0.3 19.7 24.15 9.55 47.4 0.0 80.25 0.0 113.1 0.0 136.3 9.55 L136.35 9.55 M156.5 34.25 Q156.2 22.1 134.8 13.25 112.2 4.0 80.25 4.0 48.3 4.0 25.65 13.25 L25.7 13.25 Q4.3 22.1 4.0 34.25 4.3 46.4 25.65 55.15 L25.7 55.15 Q48.3 64.5 80.25 64.5 112.2 64.5 134.8 55.15 156.2 46.4 156.5 34.25" fill="#c4bda4" fill-rule="evenodd" stroke="none"/>
  </g>
</svg>
