<?xml version="1.0" encoding="UTF-8" standalone="no"?>
<svg xmlns:xlink="http://www.w3.org/1999/xlink" height="30.9px" width="120.75px" xmlns="http://www.w3.org/2000/svg">
  <g transform="matrix(1.0, 0.0, 0.0, 1.0, 3.5, 3.5)">
    <path d="M103.5 12.55 L103.7 11.55 103.8 10.95 103.7 10.5 103.15 10.0 105.0 8.9 106.6 8.6 Q107.15 8.6 107.5 8.85 108.0 9.25 108.0 9.8 L107.9 10.35 107.2 13.6 107.15 13.9 107.1 14.15 107.3 14.65 107.8 14.85 Q108.3 14.85 108.7 14.3 L108.9 13.9 109.05 13.35 109.45 11.55 109.55 10.9 Q109.55 10.35 109.1 10.0 110.8 8.6 112.3 8.6 L113.35 8.9 Q113.75 9.25 113.75 9.8 L113.7 10.35 112.25 17.15 Q111.7 19.8 110.05 21.4 107.95 23.45 105.2 23.45 103.5 23.45 102.55 22.6 101.75 21.9 101.75 20.8 101.75 19.95 102.1 19.45 L103.4 18.4 Q103.55 19.0 103.85 19.3 104.4 19.9 105.3 19.9 106.3 19.9 107.1 19.15 107.85 18.45 108.25 17.1 106.4 18.35 105.0 18.35 104.0 18.35 103.35 17.75 L102.8 16.8 102.4 17.15 Q100.8 18.55 98.95 18.55 98.1 18.55 97.5 17.95 96.95 17.4 96.95 16.5 L97.0 15.95 95.55 17.55 Q94.5 18.55 93.3 18.55 92.1 18.55 91.35 17.45 L91.1 16.95 90.35 17.55 Q89.0 18.55 87.4 18.55 86.35 18.55 85.7 17.95 85.05 17.35 85.05 16.45 L85.1 15.8 87.4 5.6 87.5 4.9 Q87.5 4.3 86.9 4.1 L88.5 3.0 90.15 2.65 Q90.85 2.65 91.25 3.0 91.65 3.3 91.65 3.9 L91.65 4.35 89.4 14.6 89.35 15.1 Q89.35 15.8 90.1 15.8 L90.55 15.7 90.8 15.6 90.8 15.25 Q90.8 14.6 90.95 13.9 L91.3 12.7 91.4 12.45 Q91.25 13.05 91.25 13.8 91.25 16.25 94.1 16.25 94.6 16.25 96.25 15.45 L98.0 14.65 101.0 14.7 100.95 15.15 101.15 15.6 101.7 15.8 102.2 15.7 102.8 15.5 102.85 15.2 103.0 14.7 Q103.75 14.4 103.75 13.05 L103.5 12.55 M92.45 10.75 L92.7 10.45 Q93.45 9.55 94.4 9.05 95.35 8.6 96.3 8.6 97.75 8.6 98.7 9.75 L100.05 8.9 101.0 8.7 101.6 8.8 Q102.1 9.05 102.1 9.6 L102.05 10.1 101.75 11.5 Q99.7 10.5 97.5 10.1 93.95 9.5 92.45 10.75 M84.7 9.8 Q85.3 10.7 85.3 11.95 L85.05 13.9 84.85 14.65 83.55 17.05 82.2 18.15 80.5 18.55 79.15 18.25 78.05 17.3 77.15 21.35 Q76.9 22.3 76.45 22.7 76.0 23.15 75.2 23.15 L74.15 23.15 73.35 23.3 72.5 23.9 75.75 9.9 75.85 9.15 Q75.85 8.7 75.3 8.3 77.15 6.9 78.7 6.9 79.4 6.9 79.75 7.2 80.15 7.5 80.15 8.05 L80.05 8.6 79.85 9.5 Q81.15 8.6 82.35 8.6 83.9 8.6 84.7 9.8 M83.5 15.95 Q84.25 14.75 84.25 13.75 84.25 11.0 80.4 10.1 76.5 9.2 76.5 12.6 L77.5 15.05 Q78.8 17.5 80.6 17.5 82.4 17.5 83.5 15.95 M69.05 16.45 L67.3 17.85 Q66.0 18.55 64.45 18.55 62.15 18.55 61.05 16.9 60.35 15.8 60.35 14.3 60.35 12.9 61.1 11.6 62.0 10.2 63.4 9.4 64.7 8.7 66.25 8.7 68.25 8.7 69.45 9.95 70.4 10.95 70.4 12.7 L70.25 14.05 Q70.1 8.05 65.9 9.75 64.4 10.35 62.85 11.7 61.5 12.9 61.5 13.2 61.5 14.35 62.7 15.5 64.25 17.0 67.0 17.0 L69.05 16.45 M59.2 6.1 L59.4 6.5 59.25 7.15 58.8 8.8 60.0 8.8 Q60.75 8.8 60.75 9.45 60.75 10.4 60.4 10.9 L59.5 11.2 58.2 11.2 57.85 12.6 57.55 13.8 57.45 14.8 Q57.45 15.8 58.55 15.8 L59.6 15.65 60.15 15.5 Q60.55 15.5 60.55 15.95 60.55 16.55 59.35 17.4 57.9 18.45 56.15 18.45 54.8 18.45 53.95 17.75 53.15 17.0 53.15 15.95 L53.25 15.0 53.9 12.95 54.4 11.2 Q53.5 11.1 53.5 10.4 L53.9 9.5 55.65 7.9 Q58.0 5.95 58.8 5.95 L59.2 6.1 M43.8 10.35 L43.0 14.15 42.95 14.6 Q42.95 15.5 43.8 15.5 44.65 15.5 45.3 14.6 45.95 13.65 46.25 12.05 L45.7 12.2 44.8 11.85 Q44.3 11.5 44.3 10.65 44.3 9.7 45.05 9.1 45.7 8.6 46.5 8.6 47.45 8.6 48.0 9.2 48.6 9.85 48.6 10.9 48.6 12.55 47.75 14.3 45.8 18.45 42.05 18.45 L40.55 18.15 39.45 17.1 Q37.8 18.35 35.95 18.35 34.0 18.35 33.05 16.8 L32.8 15.7 32.85 15.0 33.6 11.55 33.65 10.9 33.55 10.4 33.1 10.0 34.7 8.95 Q35.55 8.6 36.25 8.6 36.95 8.6 37.4 8.95 37.85 9.35 37.85 9.9 L37.8 10.2 37.05 14.35 37.0 14.85 37.2 15.3 Q37.4 15.5 37.7 15.5 38.6 15.5 38.9 14.15 L39.5 11.55 39.6 10.8 39.5 10.4 39.05 10.0 Q39.85 9.35 40.7 8.95 41.6 8.6 42.35 8.6 43.0 8.6 43.4 8.95 43.8 9.35 43.8 9.95 L43.8 10.35 M31.55 9.65 L28.4 9.8 Q24.0 11.2 24.0 12.95 24.0 13.4 25.15 15.0 26.5 17.0 27.75 17.0 29.65 17.0 29.75 14.75 31.8 14.95 32.45 13.85 32.75 13.35 32.75 12.3 L32.75 11.85 32.8 12.7 Q32.8 14.3 31.95 15.7 31.1 17.1 29.7 17.85 28.4 18.55 26.85 18.55 24.55 18.55 23.45 16.9 L23.05 16.0 22.65 16.65 21.3 18.05 Q20.45 18.65 19.5 18.65 L18.35 18.35 17.5 17.55 Q17.1 16.9 17.1 15.8 17.1 14.2 17.55 12.65 L17.75 11.65 17.5 11.05 16.75 10.85 Q16.0 10.85 15.5 11.4 15.0 12.0 14.6 13.3 L13.5 16.5 12.1 18.65 9.6 20.65 Q7.8 21.55 5.7 21.55 2.75 21.55 1.25 19.8 0.0 18.4 0.0 16.45 0.0 13.45 2.8 11.75 4.6 10.65 6.75 10.65 8.0 10.65 8.0 11.3 L7.5 12.4 7.3 13.0 Q7.3 13.55 7.75 13.9 8.2 14.25 8.8 14.25 L10.3 13.75 11.6 12.15 12.3 10.8 13.45 7.9 14.85 5.25 12.6 5.05 Q11.95 5.05 11.5 5.35 11.1 5.65 11.1 6.1 L11.25 6.45 11.55 6.65 12.0 6.65 Q12.5 6.65 12.5 7.15 12.5 7.85 11.35 8.65 9.7 9.85 7.95 9.85 6.25 9.85 5.3 8.55 4.5 7.45 4.5 6.15 4.5 5.0 5.25 3.85 6.75 1.45 9.9 1.45 L11.6 1.65 14.1 2.45 16.65 3.3 Q17.2 2.85 17.95 2.6 L19.4 2.35 20.45 2.65 20.9 3.5 Q20.9 4.0 20.5 4.4 20.1 4.8 19.35 5.0 L17.45 5.3 Q16.7 6.45 16.0 8.95 17.1 8.4 17.6 8.4 18.05 8.4 18.8 8.85 20.1 5.55 22.15 3.2 23.4 1.75 25.0 0.85 26.65 0.0 28.15 0.0 29.35 0.0 30.0 0.55 30.55 1.1 30.55 1.75 L30.1 2.85 Q29.6 3.3 28.9 3.3 L27.95 3.25 26.7 3.1 Q25.6 3.1 24.65 3.95 23.7 4.75 22.8 6.5 21.1 9.8 21.1 12.25 L21.3 13.3 Q21.5 13.65 21.9 13.65 L22.7 13.25 22.9 13.15 Q23.05 12.35 23.5 11.6 24.4 10.2 25.8 9.4 27.1 8.7 28.65 8.7 30.4 8.7 31.55 9.65" fill="#ff33cc" fill-rule="evenodd" stroke="none"/>
    <path d="M91.4 12.45 Q91.8 11.55 92.45 10.75 93.95 9.5 97.5 10.1 99.7 10.5 101.75 11.5 L101.8 11.5 103.5 12.55 103.75 13.05 Q103.75 14.4 103.0 14.7 L102.7 14.75 101.0 14.7 98.0 14.65 96.25 15.45 Q94.6 16.25 94.1 16.25 91.25 16.25 91.25 13.8 91.25 13.05 91.4 12.45 M83.5 15.95 Q82.4 17.5 80.6 17.5 78.8 17.5 77.5 15.05 L76.5 12.6 Q76.5 9.2 80.4 10.1 84.25 11.0 84.25 13.75 84.25 14.75 83.5 15.95 M69.05 16.45 L67.0 17.0 Q64.25 17.0 62.7 15.5 61.5 14.35 61.5 13.2 61.5 12.9 62.85 11.7 64.4 10.35 65.9 9.75 70.1 8.05 70.25 14.05 L70.25 14.4 Q70.25 15.2 69.55 16.0 L69.05 16.45 M31.55 9.65 Q32.6 10.15 32.75 11.85 L32.75 12.3 Q32.75 13.35 32.45 13.85 31.8 14.95 29.75 14.75 29.65 17.0 27.75 17.0 26.5 17.0 25.15 15.0 24.0 13.4 24.0 12.95 24.0 11.2 28.4 9.8 L31.55 9.65" fill="#ffffff" fill-rule="evenodd" stroke="none"/>
    <path d="M103.5 12.55 L103.7 11.55 103.8 10.95 103.7 10.5 103.15 10.0 105.0 8.9 106.6 8.6 Q107.15 8.6 107.5 8.85 108.0 9.25 108.0 9.8 L107.9 10.35 107.2 13.6 107.15 13.9 107.1 14.15 107.3 14.65 107.8 14.85 Q108.3 14.85 108.7 14.3 L108.9 13.9 109.05 13.35 109.45 11.55 109.55 10.9 Q109.55 10.35 109.1 10.0 110.8 8.6 112.3 8.6 L113.35 8.9 Q113.75 9.25 113.75 9.8 L113.7 10.35 112.25 17.15 Q111.7 19.8 110.05 21.4 107.95 23.45 105.2 23.45 103.5 23.45 102.55 22.6 101.75 21.9 101.75 20.8 101.75 19.95 102.1 19.45 L103.4 18.4 Q103.55 19.0 103.85 19.3 104.4 19.9 105.3 19.9 106.3 19.9 107.1 19.15 107.85 18.45 108.25 17.1 106.4 18.35 105.0 18.35 104.0 18.35 103.35 17.75 L102.8 16.8 102.4 17.15 Q100.8 18.55 98.95 18.55 98.1 18.55 97.5 17.95 96.95 17.4 96.95 16.5 L97.0 15.95 95.55 17.55 Q94.5 18.55 93.3 18.55 92.1 18.55 91.35 17.45 L91.1 16.95 90.35 17.55 Q89.0 18.55 87.4 18.55 86.35 18.55 85.7 17.95 85.05 17.35 85.05 16.45 L85.1 15.8 87.4 5.6 87.5 4.9 Q87.5 4.3 86.9 4.1 L88.5 3.0 90.15 2.65 Q90.85 2.65 91.25 3.0 91.65 3.3 91.65 3.9 L91.65 4.35 89.4 14.6 89.35 15.1 Q89.35 15.8 90.1 15.8 L90.55 15.7 90.8 15.6 90.8 15.25 Q90.8 14.6 90.95 13.9 L91.3 12.7 91.4 12.45 Q91.8 11.55 92.45 10.75 L92.7 10.45 Q93.45 9.55 94.4 9.05 95.35 8.6 96.3 8.6 97.75 8.6 98.7 9.75 L100.05 8.9 101.0 8.7 101.6 8.8 Q102.1 9.05 102.1 9.6 L102.05 10.1 101.75 11.5 M103.0 14.7 L102.85 15.2 102.8 15.5 102.2 15.7 101.7 15.8 101.15 15.6 100.95 15.15 101.0 14.7 M84.7 9.8 Q85.3 10.7 85.3 11.95 L85.05 13.9 84.85 14.65 83.55 17.05 82.2 18.15 80.5 18.55 79.15 18.25 78.05 17.3 77.15 21.35 Q76.9 22.3 76.45 22.7 76.0 23.15 75.2 23.15 L74.15 23.15 73.35 23.3 72.5 23.9 75.75 9.9 75.85 9.15 Q75.85 8.7 75.3 8.3 77.15 6.9 78.7 6.9 79.4 6.9 79.75 7.2 80.15 7.5 80.15 8.05 L80.05 8.6 79.85 9.5 Q81.15 8.6 82.35 8.6 83.9 8.6 84.7 9.8 M70.25 14.05 L70.4 12.7 Q70.4 10.95 69.45 9.95 68.25 8.7 66.25 8.7 64.7 8.7 63.4 9.4 62.0 10.2 61.1 11.6 60.35 12.9 60.35 14.3 60.35 15.8 61.05 16.9 62.15 18.55 64.45 18.55 66.0 18.55 67.3 17.85 L69.05 16.45 M59.2 6.1 L59.4 6.5 59.25 7.15 58.8 8.8 60.0 8.8 Q60.75 8.8 60.75 9.45 60.75 10.4 60.4 10.9 L59.5 11.2 58.2 11.2 57.85 12.6 57.55 13.8 57.45 14.8 Q57.45 15.8 58.55 15.8 L59.6 15.65 60.15 15.5 Q60.55 15.5 60.55 15.95 60.55 16.55 59.35 17.4 57.9 18.45 56.15 18.45 54.8 18.45 53.95 17.75 53.15 17.0 53.15 15.95 L53.25 15.0 53.9 12.95 54.4 11.2 Q53.5 11.1 53.5 10.4 L53.9 9.5 55.65 7.9 Q58.0 5.95 58.8 5.95 L59.2 6.1 M43.8 10.35 L43.0 14.15 42.95 14.6 Q42.95 15.5 43.8 15.5 44.65 15.5 45.3 14.6 45.95 13.65 46.25 12.05 L45.7 12.2 44.8 11.85 Q44.3 11.5 44.3 10.65 44.3 9.7 45.05 9.1 45.7 8.6 46.5 8.6 47.45 8.6 48.0 9.2 48.6 9.85 48.6 10.9 48.6 12.55 47.75 14.3 45.8 18.45 42.05 18.45 L40.55 18.15 39.45 17.1 Q37.8 18.35 35.95 18.35 34.0 18.35 33.05 16.8 L32.8 15.7 32.85 15.0 33.6 11.55 33.65 10.9 33.55 10.4 33.1 10.0 34.7 8.95 Q35.55 8.6 36.25 8.6 36.95 8.6 37.4 8.95 37.85 9.35 37.85 9.9 L37.8 10.2 37.05 14.35 37.0 14.85 37.2 15.3 Q37.4 15.5 37.7 15.5 38.6 15.5 38.9 14.15 L39.5 11.55 39.6 10.8 39.5 10.4 39.05 10.0 Q39.85 9.35 40.7 8.95 41.6 8.6 42.35 8.6 43.0 8.6 43.4 8.95 43.8 9.35 43.8 9.95 L43.8 10.35 M32.75 11.85 L32.8 12.7 Q32.8 14.3 31.95 15.7 31.1 17.1 29.7 17.85 28.4 18.55 26.85 18.55 24.55 18.55 23.45 16.9 L23.05 16.0 22.65 16.65 21.3 18.05 Q20.45 18.65 19.5 18.65 L18.35 18.35 17.5 17.55 Q17.1 16.9 17.1 15.8 17.1 14.2 17.55 12.65 L17.75 11.65 17.5 11.05 16.75 10.85 Q16.0 10.85 15.5 11.4 15.0 12.0 14.6 13.3 L13.5 16.5 12.1 18.65 9.6 20.65 Q7.8 21.55 5.7 21.55 2.75 21.55 1.25 19.8 0.0 18.4 0.0 16.45 0.0 13.45 2.8 11.75 4.6 10.65 6.75 10.65 8.0 10.65 8.0 11.3 L7.5 12.4 7.3 13.0 Q7.3 13.55 7.75 13.9 8.2 14.25 8.8 14.25 L10.3 13.75 11.6 12.15 12.3 10.8 13.45 7.9 14.85 5.25 12.6 5.05 Q11.95 5.05 11.5 5.35 11.1 5.65 11.1 6.1 L11.25 6.45 11.55 6.65 12.0 6.65 Q12.5 6.65 12.5 7.15 12.5 7.85 11.35 8.65 9.7 9.85 7.95 9.85 6.25 9.85 5.3 8.55 4.5 7.45 4.5 6.15 4.5 5.0 5.25 3.85 6.75 1.45 9.9 1.45 L11.6 1.65 14.1 2.45 16.65 3.3 Q17.2 2.85 17.95 2.6 L19.4 2.35 20.45 2.65 20.9 3.5 Q20.9 4.0 20.5 4.4 20.1 4.8 19.35 5.0 L17.45 5.3 Q16.7 6.45 16.0 8.95 17.1 8.4 17.6 8.4 18.05 8.4 18.8 8.85 20.1 5.55 22.15 3.2 23.4 1.75 25.0 0.85 26.65 0.0 28.15 0.0 29.35 0.0 30.0 0.55 30.55 1.1 30.55 1.75 L30.1 2.85 Q29.6 3.3 28.9 3.3 L27.95 3.25 26.7 3.1 Q25.6 3.1 24.65 3.95 23.7 4.75 22.8 6.5 21.1 9.8 21.1 12.25 L21.3 13.3 Q21.5 13.65 21.9 13.65 L22.7 13.25 22.9 13.15 Q23.05 12.35 23.5 11.6 24.4 10.2 25.8 9.4 27.1 8.7 28.65 8.7 30.4 8.7 31.55 9.65" fill="none" stroke="#000000" stroke-linecap="round" stroke-linejoin="round" stroke-width="7.0"/>
    <path d="M103.5 12.55 L103.7 11.55 103.8 10.95 103.7 10.5 103.15 10.0 105.0 8.9 106.6 8.6 Q107.15 8.6 107.5 8.85 108.0 9.25 108.0 9.8 L107.9 10.35 107.2 13.6 107.15 13.9 107.1 14.15 107.3 14.65 107.8 14.85 Q108.3 14.85 108.7 14.3 L108.9 13.9 109.05 13.35 109.45 11.55 109.55 10.9 Q109.55 10.35 109.1 10.0 110.8 8.6 112.3 8.6 L113.35 8.9 Q113.75 9.25 113.75 9.8 L113.7 10.35 112.25 17.15 Q111.7 19.8 110.05 21.4 107.95 23.45 105.2 23.45 103.5 23.45 102.55 22.6 101.75 21.9 101.75 20.8 101.75 19.95 102.1 19.45 L103.4 18.4 Q103.55 19.0 103.85 19.3 104.4 19.9 105.3 19.9 106.3 19.9 107.1 19.15 107.85 18.45 108.25 17.1 106.4 18.35 105.0 18.35 104.0 18.35 103.35 17.75 L102.8 16.8 102.4 17.15 Q100.8 18.55 98.95 18.55 98.1 18.55 97.5 17.95 96.95 17.4 96.95 16.5 L97.0 15.95 95.55 17.55 Q94.5 18.55 93.3 18.55 92.1 18.55 91.35 17.45 L91.1 16.95 90.35 17.55 Q89.0 18.55 87.4 18.55 86.35 18.55 85.7 17.95 85.05 17.35 85.05 16.45 L85.1 15.8 87.4 5.6 87.5 4.9 Q87.5 4.3 86.9 4.1 L88.5 3.0 90.15 2.65 Q90.85 2.65 91.25 3.0 91.65 3.3 91.65 3.9 L91.65 4.35 89.4 14.6 89.35 15.1 Q89.35 15.8 90.1 15.8 L90.55 15.7 90.8 15.6 90.8 15.25 Q90.8 14.6 90.95 13.9 L91.3 12.7 91.4 12.45 Q91.25 13.05 91.25 13.8 91.25 16.25 94.1 16.25 94.6 16.25 96.25 15.45 L98.0 14.65 101.0 14.7 100.95 15.15 101.15 15.6 101.7 15.8 102.2 15.7 102.8 15.5 102.85 15.2 103.0 14.7 Q103.75 14.4 103.75 13.05 L103.5 12.55 M92.45 10.75 L92.7 10.45 Q93.45 9.55 94.4 9.05 95.35 8.6 96.3 8.6 97.75 8.6 98.7 9.75 L100.05 8.9 101.0 8.7 101.6 8.8 Q102.1 9.05 102.1 9.6 L102.05 10.1 101.75 11.5 Q99.7 10.5 97.5 10.1 93.95 9.5 92.45 10.75 M85.3 11.95 L85.05 13.9 84.85 14.65 83.55 17.05 82.2 18.15 80.5 18.55 79.15 18.25 78.05 17.3 77.15 21.35 Q76.9 22.3 76.45 22.7 76.0 23.15 75.2 23.15 L74.15 23.15 73.35 23.3 72.5 23.9 75.75 9.9 75.85 9.15 Q75.85 8.7 75.3 8.3 77.15 6.9 78.7 6.9 79.4 6.9 79.75 7.2 80.15 7.5 80.15 8.05 L80.05 8.6 79.85 9.5 Q81.15 8.6 82.35 8.6 83.9 8.6 84.7 9.8 85.3 10.7 85.3 11.95 M83.5 15.95 Q84.25 14.75 84.25 13.75 84.25 11.0 80.4 10.1 76.5 9.2 76.5 12.6 L77.5 15.05 Q78.8 17.5 80.6 17.5 82.4 17.5 83.5 15.95 M69.05 16.45 L67.3 17.85 Q66.0 18.55 64.45 18.55 62.15 18.55 61.05 16.9 60.35 15.8 60.35 14.3 60.35 12.9 61.1 11.6 62.0 10.2 63.4 9.4 64.7 8.7 66.25 8.7 68.25 8.7 69.45 9.95 70.4 10.95 70.4 12.7 L70.25 14.05 Q70.1 8.05 65.9 9.75 64.4 10.35 62.85 11.7 61.5 12.9 61.5 13.2 61.5 14.35 62.7 15.5 64.25 17.0 67.0 17.0 L69.05 16.45 M59.2 6.1 L59.4 6.5 59.25 7.15 58.8 8.8 60.0 8.8 Q60.75 8.8 60.75 9.45 60.75 10.4 60.4 10.9 L59.5 11.2 58.2 11.2 57.85 12.6 57.55 13.8 57.45 14.8 Q57.45 15.8 58.55 15.8 L59.6 15.65 60.15 15.5 Q60.55 15.5 60.55 15.95 60.55 16.55 59.35 17.4 57.9 18.45 56.15 18.45 54.8 18.45 53.95 17.75 53.15 17.0 53.15 15.95 L53.25 15.0 53.9 12.95 54.4 11.2 Q53.5 11.1 53.5 10.4 L53.9 9.5 55.65 7.9 Q58.0 5.95 58.8 5.95 L59.2 6.1 M43.8 10.35 L43.0 14.15 42.95 14.6 Q42.95 15.5 43.8 15.5 44.65 15.5 45.3 14.6 45.95 13.65 46.25 12.05 L45.7 12.2 44.8 11.85 Q44.3 11.5 44.3 10.65 44.3 9.7 45.05 9.1 45.7 8.6 46.5 8.6 47.45 8.6 48.0 9.2 48.6 9.85 48.6 10.9 48.6 12.55 47.75 14.3 45.8 18.45 42.05 18.45 L40.55 18.15 39.45 17.1 Q37.8 18.35 35.95 18.35 34.0 18.35 33.05 16.8 L32.8 15.7 32.85 15.0 33.6 11.55 33.65 10.9 33.55 10.4 33.1 10.0 34.7 8.95 Q35.55 8.6 36.25 8.6 36.95 8.6 37.4 8.95 37.85 9.35 37.85 9.9 L37.8 10.2 37.05 14.35 37.0 14.85 37.2 15.3 Q37.4 15.5 37.7 15.5 38.6 15.5 38.9 14.15 L39.5 11.55 39.6 10.8 39.5 10.4 39.05 10.0 Q39.85 9.35 40.7 8.95 41.6 8.6 42.35 8.6 43.0 8.6 43.4 8.95 43.8 9.35 43.8 9.95 L43.8 10.35 M31.55 9.65 L28.4 9.8 Q24.0 11.2 24.0 12.95 24.0 13.4 25.15 15.0 26.5 17.0 27.75 17.0 29.65 17.0 29.75 14.75 31.8 14.95 32.45 13.85 32.75 13.35 32.75 12.3 L32.75 11.85 32.8 12.7 Q32.8 14.3 31.95 15.7 31.1 17.1 29.7 17.85 28.4 18.55 26.85 18.55 24.55 18.55 23.45 16.9 L23.05 16.0 22.65 16.65 21.3 18.05 Q20.45 18.65 19.5 18.65 L18.35 18.35 17.5 17.55 Q17.1 16.9 17.1 15.8 17.1 14.2 17.55 12.65 L17.75 11.65 17.5 11.05 16.75 10.85 Q16.0 10.85 15.5 11.4 15.0 12.0 14.6 13.3 L13.5 16.5 12.1 18.65 9.6 20.65 Q7.8 21.55 5.7 21.55 2.75 21.55 1.25 19.8 0.0 18.4 0.0 16.45 0.0 13.45 2.8 11.75 4.6 10.65 6.75 10.65 8.0 10.65 8.0 11.3 L7.5 12.4 7.3 13.0 Q7.3 13.55 7.75 13.9 8.2 14.25 8.8 14.25 L10.3 13.75 11.6 12.15 12.3 10.8 13.45 7.9 14.85 5.25 12.6 5.05 Q11.95 5.05 11.5 5.35 11.1 5.65 11.1 6.1 L11.25 6.45 11.55 6.65 12.0 6.65 Q12.5 6.65 12.5 7.15 12.5 7.85 11.35 8.65 9.7 9.85 7.95 9.85 6.25 9.85 5.3 8.55 4.5 7.45 4.5 6.15 4.5 5.0 5.25 3.85 6.75 1.45 9.9 1.45 L11.6 1.65 14.1 2.45 16.65 3.3 Q17.2 2.85 17.95 2.6 L19.4 2.35 20.45 2.65 20.9 3.5 Q20.9 4.0 20.5 4.4 20.1 4.8 19.35 5.0 L17.45 5.3 Q16.7 6.45 16.0 8.95 17.1 8.4 17.6 8.4 18.05 8.4 18.8 8.85 20.1 5.55 22.15 3.2 23.4 1.75 25.0 0.85 26.65 0.0 28.15 0.0 29.35 0.0 30.0 0.55 30.55 1.1 30.55 1.75 L30.1 2.85 Q29.6 3.3 28.9 3.3 L27.95 3.25 26.7 3.1 Q25.6 3.1 24.65 3.95 23.7 4.75 22.8 6.5 21.1 9.8 21.1 12.25 L21.3 13.3 Q21.5 13.65 21.9 13.65 L22.7 13.25 22.9 13.15 Q23.05 12.35 23.5 11.6 24.4 10.2 25.8 9.4 27.1 8.7 28.65 8.7 30.4 8.7 31.55 9.65" fill="#ff33cc" fill-rule="evenodd" stroke="none"/>
    <path d="M91.4 12.45 Q91.8 11.55 92.45 10.75 93.95 9.5 97.5 10.1 99.7 10.5 101.75 11.5 L101.8 11.5 103.5 12.55 103.75 13.05 Q103.75 14.4 103.0 14.7 L102.7 14.75 101.0 14.7 98.0 14.65 96.25 15.45 Q94.6 16.25 94.1 16.25 91.25 16.25 91.25 13.8 91.25 13.05 91.4 12.45 M83.5 15.95 Q82.4 17.5 80.6 17.5 78.8 17.5 77.5 15.05 L76.5 12.6 Q76.5 9.2 80.4 10.1 84.25 11.0 84.25 13.75 84.25 14.75 83.5 15.95 M69.05 16.45 L67.0 17.0 Q64.25 17.0 62.7 15.5 61.5 14.35 61.5 13.2 61.5 12.9 62.85 11.7 64.4 10.35 65.9 9.75 70.1 8.05 70.25 14.05 L70.25 14.4 Q70.25 15.2 69.55 16.0 L69.05 16.45 M32.75 11.85 L32.75 12.3 Q32.75 13.35 32.45 13.85 31.8 14.95 29.75 14.75 29.65 17.0 27.75 17.0 26.5 17.0 25.15 15.0 24.0 13.4 24.0 12.95 24.0 11.2 28.4 9.8 L31.55 9.65 Q32.6 10.15 32.75 11.85" fill="#ffffff" fill-rule="evenodd" stroke="none"/>
    <path d="M103.5 12.55 L103.7 11.55 103.8 10.95 103.7 10.5 103.15 10.0 105.0 8.9 106.6 8.6 Q107.15 8.6 107.5 8.85 108.0 9.25 108.0 9.8 L107.9 10.35 107.2 13.6 107.15 13.9 107.1 14.15 107.3 14.65 107.8 14.85 Q108.3 14.85 108.7 14.3 L108.9 13.9 109.05 13.35 109.45 11.55 109.55 10.9 Q109.55 10.35 109.1 10.0 110.8 8.6 112.3 8.6 L113.35 8.9 Q113.75 9.25 113.75 9.8 L113.7 10.35 112.25 17.15 Q111.7 19.8 110.05 21.4 107.95 23.45 105.2 23.45 103.5 23.45 102.55 22.6 101.75 21.9 101.75 20.8 101.75 19.95 102.1 19.45 L103.4 18.4 Q103.55 19.0 103.85 19.3 104.4 19.9 105.3 19.9 106.3 19.9 107.1 19.15 107.85 18.45 108.25 17.1 106.4 18.35 105.0 18.35 104.0 18.35 103.35 17.75 L102.8 16.8 102.4 17.15 Q100.8 18.55 98.95 18.55 98.1 18.55 97.5 17.95 96.95 17.4 96.95 16.5 L97.0 15.95 95.55 17.55 Q94.5 18.55 93.3 18.55 92.1 18.55 91.35 17.45 L91.1 16.95 90.35 17.55 Q89.0 18.55 87.4 18.55 86.35 18.55 85.7 17.95 85.05 17.35 85.05 16.45 L85.1 15.8 87.4 5.6 87.5 4.9 Q87.5 4.3 86.9 4.1 L88.5 3.0 90.15 2.65 Q90.85 2.65 91.25 3.0 91.65 3.3 91.65 3.9 L91.65 4.35 89.4 14.6 89.35 15.1 Q89.35 15.8 90.1 15.8 L90.55 15.7 90.8 15.6 90.8 15.25 Q90.8 14.6 90.95 13.9 L91.3 12.7 91.4 12.45 Q91.8 11.55 92.45 10.75 L92.7 10.45 Q93.45 9.55 94.4 9.05 95.35 8.6 96.3 8.6 97.75 8.6 98.7 9.75 L100.05 8.9 101.0 8.7 101.6 8.8 Q102.1 9.05 102.1 9.6 L102.05 10.1 101.75 11.5 M103.0 14.7 L102.85 15.2 102.8 15.5 102.2 15.7 101.7 15.8 101.15 15.6 100.95 15.15 101.0 14.7 M85.3 11.95 L85.05 13.9 84.85 14.65 83.55 17.05 82.2 18.15 80.5 18.55 79.15 18.25 78.05 17.3 77.15 21.35 Q76.9 22.3 76.45 22.7 76.0 23.15 75.2 23.15 L74.15 23.15 73.35 23.3 72.5 23.9 75.75 9.9 75.85 9.15 Q75.85 8.7 75.3 8.3 77.15 6.9 78.7 6.9 79.4 6.9 79.75 7.2 80.15 7.5 80.15 8.05 L80.05 8.6 79.85 9.5 Q81.15 8.6 82.35 8.6 83.9 8.6 84.7 9.8 85.3 10.7 85.3 11.95 M70.25 14.05 L70.4 12.7 Q70.4 10.95 69.45 9.95 68.25 8.7 66.25 8.7 64.7 8.7 63.4 9.4 62.0 10.2 61.1 11.6 60.35 12.9 60.35 14.3 60.35 15.8 61.05 16.9 62.15 18.55 64.45 18.55 66.0 18.55 67.3 17.85 L69.05 16.45 M59.2 6.1 L59.4 6.5 59.25 7.15 58.8 8.8 60.0 8.8 Q60.75 8.8 60.75 9.45 60.75 10.4 60.4 10.9 L59.5 11.2 58.2 11.2 57.85 12.6 57.55 13.8 57.45 14.8 Q57.45 15.8 58.55 15.8 L59.6 15.65 60.15 15.5 Q60.55 15.5 60.55 15.95 60.55 16.55 59.35 17.4 57.9 18.45 56.15 18.45 54.8 18.45 53.95 17.75 53.15 17.0 53.15 15.95 L53.25 15.0 53.9 12.95 54.4 11.2 Q53.5 11.1 53.5 10.4 L53.9 9.5 55.65 7.9 Q58.0 5.95 58.8 5.95 L59.2 6.1 M43.8 10.35 L43.0 14.15 42.95 14.6 Q42.95 15.5 43.8 15.5 44.65 15.5 45.3 14.6 45.95 13.65 46.25 12.05 L45.7 12.2 44.8 11.85 Q44.3 11.5 44.3 10.65 44.3 9.7 45.05 9.1 45.7 8.6 46.5 8.6 47.45 8.6 48.0 9.2 48.6 9.85 48.6 10.9 48.6 12.55 47.75 14.3 45.8 18.45 42.05 18.45 L40.55 18.15 39.45 17.1 Q37.8 18.35 35.95 18.35 34.0 18.35 33.05 16.8 L32.8 15.7 32.85 15.0 33.6 11.55 33.65 10.9 33.55 10.4 33.1 10.0 34.7 8.95 Q35.55 8.6 36.25 8.6 36.95 8.6 37.4 8.95 37.85 9.35 37.85 9.9 L37.8 10.2 37.05 14.35 37.0 14.85 37.2 15.3 Q37.4 15.5 37.7 15.5 38.6 15.5 38.9 14.15 L39.5 11.55 39.6 10.8 39.5 10.4 39.05 10.0 Q39.85 9.35 40.7 8.95 41.6 8.6 42.35 8.6 43.0 8.6 43.4 8.95 43.8 9.35 43.8 9.95 L43.8 10.35 M31.55 9.65 Q30.4 8.7 28.65 8.7 27.1 8.7 25.8 9.4 24.4 10.2 23.5 11.6 23.05 12.35 22.9 13.15 L22.7 13.25 21.9 13.65 Q21.5 13.65 21.3 13.3 L21.1 12.25 Q21.1 9.8 22.8 6.5 23.7 4.75 24.65 3.95 25.6 3.1 26.7 3.1 L27.95 3.25 28.9 3.3 Q29.6 3.3 30.1 2.85 L30.55 1.75 Q30.55 1.1 30.0 0.55 29.35 0.0 28.15 0.0 26.65 0.0 25.0 0.85 23.4 1.75 22.15 3.2 20.1 5.55 18.8 8.85 18.05 8.4 17.6 8.4 17.1 8.4 16.0 8.95 16.7 6.45 17.45 5.3 L19.35 5.0 Q20.1 4.8 20.5 4.4 20.9 4.0 20.9 3.5 L20.45 2.65 19.4 2.35 17.95 2.6 Q17.2 2.85 16.65 3.3 L14.1 2.45 11.6 1.65 9.9 1.45 Q6.75 1.45 5.25 3.85 4.5 5.0 4.5 6.15 4.5 7.45 5.3 8.55 6.25 9.85 7.95 9.85 9.7 9.85 11.35 8.65 12.5 7.85 12.5 7.15 12.5 6.65 12.0 6.65 L11.55 6.65 11.25 6.45 11.1 6.1 Q11.1 5.65 11.5 5.35 11.95 5.05 12.6 5.05 L14.85 5.25 13.45 7.9 12.3 10.8 11.6 12.15 10.3 13.75 8.8 14.25 Q8.2 14.25 7.75 13.9 7.3 13.55 7.3 13.0 L7.5 12.4 8.0 11.3 Q8.0 10.65 6.75 10.65 4.6 10.65 2.8 11.75 0.0 13.45 0.0 16.45 0.0 18.4 1.25 19.8 2.75 21.55 5.7 21.55 7.8 21.55 9.6 20.65 L12.1 18.65 13.5 16.5 14.6 13.3 Q15.0 12.0 15.5 11.4 16.0 10.85 16.75 10.85 L17.5 11.05 17.75 11.65 17.55 12.65 Q17.1 14.2 17.1 15.8 17.1 16.9 17.5 17.55 L18.35 18.35 19.5 18.65 Q20.45 18.65 21.3 18.05 L22.65 16.65 23.05 16.0 23.45 16.9 Q24.55 18.55 26.85 18.55 28.4 18.55 29.7 17.85 31.1 17.1 31.95 15.7 32.8 14.3 32.8 12.7 L32.75 11.85" fill="none" stroke="#ffffff" stroke-linecap="round" stroke-linejoin="round" stroke-width="5.0"/>
    <path d="M79.75 7.2 Q80.15 7.5 80.15 8.05 L80.05 8.6 79.85 9.5 Q81.15 8.6 82.35 8.6 83.9 8.6 84.7 9.8 85.3 10.7 85.3 11.95 L85.05 13.9 84.85 14.65 83.55 17.05 82.2 18.15 80.5 18.55 79.15 18.25 78.05 17.3 77.15 21.35 Q76.9 22.3 76.45 22.7 76.0 23.15 75.2 23.15 L74.15 23.15 73.35 23.3 72.5 23.9 75.75 9.9 75.85 9.15 Q75.85 8.7 75.3 8.3 77.15 6.9 78.7 6.9 79.4 6.9 79.75 7.2 M81.1 12.1 Q81.1 11.25 80.3 11.2 79.8 11.2 79.4 11.7 79.0 12.25 78.95 12.9 L79.15 13.6 79.8 13.85 80.7 13.3 Q81.1 12.8 81.1 12.1 M64.85 13.55 Q65.1 13.85 65.45 13.85 65.95 13.85 66.4 13.35 66.8 12.85 66.8 12.15 66.8 11.15 65.95 11.1 65.45 11.1 65.05 11.65 64.65 12.15 64.65 12.8 L64.85 13.55 M63.4 9.4 Q64.7 8.7 66.25 8.7 68.25 8.7 69.45 9.95 70.4 10.95 70.4 12.7 70.4 14.3 69.55 15.7 68.7 17.1 67.3 17.85 66.0 18.55 64.45 18.55 62.15 18.55 61.05 16.9 60.35 15.8 60.35 14.3 60.35 12.9 61.1 11.6 62.0 10.2 63.4 9.4 M91.65 4.35 L89.4 14.6 89.35 15.1 Q89.35 15.8 90.1 15.8 L90.55 15.7 90.8 15.6 90.8 15.25 Q90.8 14.6 90.95 13.9 L91.3 12.7 Q91.8 11.45 92.7 10.45 93.45 9.55 94.4 9.05 95.35 8.6 96.3 8.6 97.75 8.6 98.7 9.75 L100.05 8.9 101.0 8.7 101.6 8.8 Q102.1 9.05 102.1 9.6 L102.05 10.1 101.1 14.25 100.95 15.15 101.15 15.6 101.7 15.8 102.2 15.7 102.8 15.5 102.85 15.2 103.7 11.55 103.8 10.95 103.7 10.5 103.15 10.0 105.0 8.9 106.6 8.6 Q107.15 8.6 107.5 8.85 108.0 9.25 108.0 9.8 L107.9 10.35 107.2 13.6 107.15 13.9 107.1 14.15 107.3 14.65 107.8 14.85 Q108.3 14.85 108.7 14.3 L108.9 13.9 109.05 13.35 109.45 11.55 109.55 10.9 Q109.55 10.35 109.1 10.0 110.8 8.6 112.3 8.6 L113.35 8.9 Q113.75 9.25 113.75 9.8 L113.7 10.35 112.25 17.15 Q111.7 19.8 110.05 21.4 107.95 23.45 105.2 23.45 103.5 23.45 102.55 22.6 101.75 21.9 101.75 20.8 101.75 19.95 102.1 19.45 L103.4 18.4 Q103.55 19.0 103.85 19.3 104.4 19.9 105.3 19.9 106.3 19.9 107.1 19.15 107.85 18.45 108.25 17.1 106.4 18.35 105.0 18.35 104.0 18.35 103.35 17.75 L102.8 16.8 102.4 17.15 Q100.8 18.55 98.95 18.55 98.1 18.55 97.5 17.95 96.95 17.4 96.95 16.5 L97.0 15.95 95.55 17.55 Q94.5 18.55 93.3 18.55 92.1 18.55 91.35 17.45 L91.1 16.95 90.35 17.55 Q89.0 18.55 87.4 18.55 86.35 18.55 85.7 17.95 85.05 17.35 85.05 16.45 L85.1 15.8 87.4 5.6 87.5 4.9 Q87.5 4.3 86.9 4.1 L88.5 3.0 90.15 2.65 Q90.85 2.65 91.25 3.0 91.65 3.3 91.65 3.9 L91.65 4.35 M95.55 12.9 Q95.55 13.85 96.4 13.85 96.95 13.85 97.35 13.25 97.7 12.65 97.7 12.05 97.7 11.35 96.9 11.3 96.35 11.3 95.95 11.85 95.55 12.35 95.55 12.9 M11.6 1.65 L14.1 2.45 16.65 3.3 Q17.2 2.85 17.95 2.6 L19.4 2.35 20.45 2.65 20.9 3.5 Q20.9 4.0 20.5 4.4 20.1 4.8 19.35 5.0 L17.45 5.3 Q16.7 6.45 16.0 8.95 17.1 8.4 17.6 8.4 18.05 8.4 18.8 8.85 20.1 5.55 22.15 3.2 23.4 1.75 25.0 0.85 26.65 0.0 28.15 0.0 29.35 0.0 30.0 0.55 30.55 1.1 30.55 1.75 L30.1 2.85 Q29.6 3.3 28.9 3.3 L27.95 3.25 26.7 3.1 Q25.6 3.1 24.65 3.95 23.7 4.75 22.8 6.5 21.1 9.8 21.1 12.25 L21.3 13.3 Q21.5 13.65 21.9 13.65 L22.7 13.25 22.9 13.15 Q23.05 12.35 23.5 11.6 24.4 10.2 25.8 9.4 27.1 8.7 28.65 8.7 30.65 8.7 31.85 9.95 32.8 10.95 32.8 12.7 32.8 14.3 31.95 15.7 31.1 17.1 29.7 17.85 28.4 18.55 26.85 18.55 24.55 18.55 23.45 16.9 L23.05 16.0 22.65 16.65 21.3 18.05 Q20.45 18.65 19.5 18.65 L18.35 18.35 17.5 17.55 Q17.1 16.9 17.1 15.8 17.1 14.2 17.55 12.65 L17.75 11.65 17.5 11.05 16.75 10.85 Q16.0 10.85 15.5 11.4 15.0 12.0 14.6 13.3 L13.5 16.5 12.1 18.65 9.6 20.65 Q7.8 21.55 5.7 21.55 2.75 21.55 1.25 19.8 0.0 18.4 0.0 16.45 0.0 13.45 2.8 11.75 4.6 10.65 6.75 10.65 8.0 10.65 8.0 11.3 L7.5 12.4 7.3 13.0 Q7.3 13.55 7.75 13.9 8.2 14.25 8.8 14.25 L10.3 13.75 11.6 12.15 12.3 10.8 13.45 7.9 14.85 5.25 12.6 5.05 Q11.95 5.05 11.5 5.35 11.1 5.65 11.1 6.1 L11.25 6.45 11.55 6.65 12.0 6.65 Q12.5 6.65 12.5 7.15 12.5 7.85 11.35 8.65 9.7 9.85 7.95 9.85 6.25 9.85 5.3 8.55 4.5 7.45 4.5 6.15 4.5 5.0 5.25 3.85 6.75 1.45 9.9 1.45 L11.6 1.65 M34.7 8.95 Q35.55 8.6 36.25 8.6 36.95 8.6 37.4 8.95 37.85 9.35 37.85 9.9 L37.8 10.2 37.05 14.35 37.0 14.85 37.2 15.3 Q37.4 15.5 37.7 15.5 38.6 15.5 38.9 14.15 L39.5 11.55 39.6 10.8 39.5 10.4 39.05 10.0 Q39.85 9.35 40.7 8.95 41.6 8.6 42.35 8.6 43.0 8.6 43.4 8.95 43.8 9.35 43.8 9.95 L43.8 10.35 43.0 14.15 42.95 14.6 Q42.95 15.5 43.8 15.5 44.65 15.5 45.3 14.6 45.95 13.65 46.25 12.05 L45.7 12.2 44.8 11.85 Q44.3 11.5 44.3 10.65 44.3 9.7 45.05 9.1 45.7 8.6 46.5 8.6 47.45 8.6 48.0 9.2 48.6 9.85 48.6 10.9 48.6 12.55 47.75 14.3 45.8 18.45 42.05 18.45 L40.55 18.15 39.45 17.1 Q37.8 18.35 35.95 18.35 34.0 18.35 33.05 16.8 L32.8 15.7 32.85 15.0 33.6 11.55 33.65 10.9 33.55 10.4 33.1 10.0 34.7 8.95 M27.25 13.55 Q27.5 13.85 27.85 13.85 28.35 13.85 28.8 13.35 29.2 12.85 29.2 12.15 29.2 11.15 28.35 11.1 27.85 11.1 27.45 11.65 27.05 12.15 27.05 12.8 L27.25 13.55 M59.4 6.5 L59.25 7.15 58.8 8.8 60.0 8.8 Q60.75 8.8 60.75 9.45 60.75 10.4 60.4 10.9 L59.5 11.2 58.2 11.2 57.85 12.6 57.55 13.8 57.45 14.8 Q57.45 15.8 58.55 15.8 L59.6 15.65 60.15 15.5 Q60.55 15.5 60.55 15.95 60.55 16.55 59.35 17.4 57.9 18.45 56.15 18.45 54.8 18.45 53.95 17.75 53.15 17.0 53.15 15.95 L53.25 15.0 53.9 12.95 54.4 11.2 Q53.5 11.1 53.5 10.4 L53.9 9.5 55.65 7.9 Q58.0 5.95 58.8 5.95 L59.2 6.1 59.4 6.5" fill="#ff33cc" fill-rule="evenodd" stroke="none"/>
  </g>
</svg>
