<?xml version="1.0" encoding="UTF-8" standalone="no"?>
<svg xmlns:xlink="http://www.w3.org/1999/xlink" height="55.15px" width="107.75px" xmlns="http://www.w3.org/2000/svg">
  <g transform="matrix(1.0, 0.0, 0.0, 1.0, 5.0, 5.0)">
    <path d="M89.35 21.0 Q92.4 18.45 95.15 18.45 96.3 18.45 97.05 19.05 97.75 19.65 97.75 20.65 L97.65 21.65 95.05 33.85 Q94.05 38.7 91.05 41.55 87.35 45.15 82.3 45.15 79.35 45.15 77.6 43.7 76.15 42.45 76.15 40.4 76.15 38.95 76.8 38.0 77.5 37.0 79.15 36.1 79.4 37.15 79.95 37.75 80.95 38.85 82.55 38.85 84.35 38.85 85.75 37.5 87.15 36.2 87.8 33.8 84.5 36.05 82.05 36.05 80.2 36.05 79.05 34.95 77.9 33.95 77.9 32.2 L78.15 30.35 79.7 23.85 79.85 22.65 79.6 21.9 78.65 21.0 Q80.6 19.6 82.0 19.05 83.4 18.45 84.9 18.45 85.9 18.45 86.5 18.95 87.4 19.65 87.4 20.65 L87.25 21.65 85.95 27.45 85.8 28.45 Q85.8 28.95 86.15 29.35 L87.0 29.7 Q87.95 29.7 88.65 28.75 L89.3 27.05 90.05 23.8 90.2 22.6 Q90.2 21.6 89.35 21.0 M63.45 24.35 Q62.75 25.25 62.75 26.25 62.75 27.95 64.25 27.95 65.2 27.95 65.9 26.85 66.6 25.8 66.6 24.75 66.6 23.4 65.15 23.35 64.15 23.35 63.45 24.35 M68.4 20.55 L70.85 19.0 Q71.6 18.6 72.5 18.6 L73.6 18.85 Q74.5 19.3 74.5 20.3 L74.4 21.2 72.7 28.65 72.4 30.25 Q72.4 30.75 72.8 31.1 73.2 31.45 73.75 31.45 L74.65 31.25 75.75 30.95 76.25 31.15 76.45 31.75 Q76.45 32.7 75.05 33.9 72.15 36.4 68.85 36.4 67.3 36.4 66.25 35.3 65.2 34.3 65.2 32.75 L65.3 31.7 62.7 34.6 Q60.85 36.4 58.7 36.4 56.55 36.4 55.2 34.4 54.15 32.85 54.15 30.45 54.15 28.15 55.05 25.85 55.95 23.55 57.55 21.8 58.95 20.2 60.7 19.35 62.4 18.45 64.05 18.45 66.7 18.45 68.4 20.55 M53.5 10.05 L53.4 10.85 49.35 29.3 49.25 30.15 Q49.25 31.45 50.6 31.45 L51.5 31.3 Q52.3 30.95 52.6 30.95 52.85 30.95 53.05 31.2 L53.3 31.75 Q53.3 32.95 51.15 34.55 48.65 36.4 45.75 36.4 43.9 36.4 42.7 35.3 41.55 34.25 41.55 32.6 L41.65 31.45 45.8 13.1 45.95 11.8 Q45.95 10.8 44.9 10.35 46.2 9.15 47.8 8.45 49.35 7.75 50.8 7.75 52.0 7.75 52.75 8.35 53.5 9.0 53.5 10.05 M43.2 2.6 Q43.2 4.15 41.6 5.15 40.55 5.8 39.55 5.8 L38.95 5.65 38.6 4.7 38.25 4.35 37.6 4.2 Q36.45 4.2 35.2 5.0 34.45 5.45 33.6 6.65 36.05 7.0 37.9 8.1 39.75 9.15 40.9 10.75 42.85 13.35 42.85 16.65 42.85 19.6 41.45 22.3 40.15 24.85 38.0 26.35 36.2 27.6 33.9 27.6 31.35 27.6 29.75 26.0 28.45 24.7 28.45 22.85 28.45 21.2 29.2 19.85 29.9 18.45 30.75 18.45 L31.2 18.6 31.55 19.25 Q31.85 20.05 32.75 20.05 33.85 20.05 34.75 18.7 35.65 17.35 35.65 15.75 35.65 13.85 34.45 12.55 33.25 11.2 31.2 10.75 29.6 14.7 29.1 16.45 28.55 18.2 26.7 25.9 25.1 32.55 21.9 36.3 19.7 38.9 16.7 40.25 13.7 41.65 10.25 41.65 5.4 41.65 2.55 38.8 0.0 36.25 0.0 32.75 0.0 29.2 2.55 26.3 4.7 23.8 8.5 22.7 10.35 22.15 11.85 22.15 L13.7 22.55 Q14.4 22.9 14.4 23.5 L13.6 24.95 13.35 25.85 Q13.35 26.7 14.05 27.3 14.75 27.95 15.8 27.95 16.9 27.95 18.2 27.25 L20.35 25.4 Q21.6 23.8 23.05 19.85 L24.45 16.25 25.85 13.05 26.9 10.75 Q24.7 11.15 23.55 11.95 22.8 12.45 22.3 13.2 21.75 14.0 21.75 14.6 L22.0 15.35 23.05 15.9 Q23.35 16.05 23.35 16.55 23.35 17.5 22.15 18.9 19.65 21.95 16.35 21.95 14.0 21.95 12.3 20.45 10.9 19.15 10.9 17.05 10.9 13.85 13.8 11.15 16.6 8.55 21.7 7.25 L25.15 6.5 29.25 6.35 Q31.2 3.75 32.85 2.5 36.1 0.0 39.7 0.0 41.3 0.0 42.25 0.7 43.2 1.4 43.2 2.6" fill="#0099cc" fill-rule="evenodd" stroke="none"/>
    <path d="M89.35 21.0 Q92.4 18.45 95.15 18.45 96.3 18.45 97.05 19.05 97.75 19.65 97.75 20.65 L97.65 21.65 95.05 33.85 Q94.05 38.7 91.05 41.55 87.35 45.15 82.3 45.15 79.35 45.15 77.6 43.7 76.15 42.45 76.15 40.4 76.15 38.95 76.8 38.0 77.5 37.0 79.15 36.1 79.4 37.15 79.95 37.75 80.95 38.85 82.55 38.85 84.35 38.85 85.75 37.5 87.15 36.2 87.8 33.8 84.5 36.05 82.05 36.05 80.2 36.05 79.05 34.95 77.9 33.95 77.9 32.2 L78.15 30.35 79.7 23.85 79.85 22.65 79.6 21.9 78.65 21.0 Q80.6 19.6 82.0 19.05 83.4 18.45 84.9 18.45 85.9 18.45 86.5 18.95 87.4 19.65 87.4 20.65 L87.25 21.65 85.95 27.45 85.8 28.45 Q85.8 28.95 86.15 29.35 L87.0 29.7 Q87.95 29.7 88.65 28.75 L89.3 27.05 90.05 23.8 90.2 22.6 Q90.2 21.6 89.35 21.0 M63.45 24.35 Q62.75 25.25 62.75 26.25 62.75 27.95 64.25 27.95 65.2 27.95 65.9 26.85 66.6 25.8 66.6 24.75 66.6 23.4 65.15 23.35 64.15 23.35 63.45 24.35 M68.4 20.55 L70.85 19.0 Q71.6 18.6 72.5 18.6 L73.6 18.85 Q74.5 19.3 74.5 20.3 L74.4 21.2 72.7 28.65 72.4 30.25 Q72.4 30.75 72.8 31.1 73.2 31.45 73.75 31.45 L74.65 31.25 75.75 30.95 76.25 31.15 76.45 31.75 Q76.45 32.7 75.05 33.9 72.15 36.4 68.85 36.4 67.3 36.4 66.25 35.3 65.2 34.3 65.2 32.75 L65.3 31.7 62.7 34.6 Q60.85 36.4 58.7 36.4 56.55 36.4 55.2 34.4 54.15 32.85 54.15 30.45 54.15 28.15 55.05 25.85 55.95 23.55 57.55 21.8 58.95 20.2 60.7 19.35 62.4 18.45 64.05 18.45 66.7 18.45 68.4 20.55 M53.5 10.05 L53.4 10.85 49.35 29.3 49.25 30.15 Q49.25 31.45 50.6 31.45 L51.5 31.3 Q52.3 30.95 52.6 30.95 52.85 30.95 53.05 31.2 L53.3 31.75 Q53.3 32.95 51.15 34.55 48.65 36.4 45.75 36.4 43.9 36.4 42.7 35.3 41.55 34.25 41.55 32.6 L41.65 31.45 45.8 13.1 45.95 11.8 Q45.95 10.8 44.9 10.35 46.2 9.15 47.8 8.45 49.35 7.75 50.8 7.75 52.0 7.75 52.75 8.35 53.5 9.0 53.5 10.05 M43.2 2.6 Q43.2 4.15 41.6 5.15 40.55 5.8 39.55 5.8 L38.95 5.65 38.6 4.7 38.25 4.35 37.6 4.2 Q36.45 4.2 35.2 5.0 34.45 5.45 33.6 6.65 36.05 7.0 37.9 8.1 39.75 9.15 40.9 10.75 42.85 13.35 42.85 16.65 42.85 19.6 41.45 22.3 40.15 24.85 38.0 26.35 36.2 27.6 33.9 27.6 31.35 27.6 29.75 26.0 28.45 24.7 28.45 22.85 28.45 21.2 29.2 19.85 29.9 18.45 30.75 18.45 L31.2 18.6 31.55 19.25 Q31.85 20.05 32.75 20.05 33.85 20.05 34.75 18.7 35.65 17.35 35.65 15.75 35.65 13.85 34.45 12.55 33.25 11.2 31.2 10.75 29.6 14.7 29.1 16.45 28.55 18.2 26.7 25.9 25.1 32.55 21.9 36.3 19.7 38.9 16.7 40.25 13.7 41.65 10.25 41.65 5.4 41.65 2.55 38.8 0.0 36.25 0.0 32.75 0.0 29.2 2.55 26.3 4.7 23.8 8.5 22.7 10.35 22.15 11.85 22.15 L13.7 22.55 Q14.4 22.9 14.4 23.5 L13.6 24.95 13.35 25.85 Q13.35 26.7 14.05 27.3 14.75 27.95 15.8 27.95 16.9 27.95 18.2 27.25 L20.35 25.4 Q21.6 23.8 23.05 19.85 L24.45 16.25 25.85 13.05 26.9 10.75 Q24.7 11.15 23.55 11.95 22.8 12.45 22.3 13.2 21.75 14.0 21.75 14.6 L22.0 15.35 23.05 15.9 Q23.35 16.05 23.35 16.55 23.35 17.5 22.15 18.9 19.65 21.95 16.35 21.95 14.0 21.95 12.3 20.45 10.9 19.15 10.9 17.05 10.9 13.85 13.8 11.15 16.6 8.55 21.7 7.25 L25.15 6.5 29.25 6.35 Q31.2 3.75 32.85 2.5 36.1 0.0 39.7 0.0 41.3 0.0 42.25 0.7 43.2 1.4 43.2 2.6" fill="none" stroke="#000000" stroke-linecap="round" stroke-linejoin="round" stroke-width="10.0"/>
    <path d="M89.35 21.0 Q92.4 18.45 95.15 18.45 96.3 18.45 97.05 19.05 97.75 19.65 97.75 20.65 L97.65 21.65 95.05 33.85 Q94.05 38.7 91.05 41.55 87.35 45.15 82.3 45.15 79.35 45.15 77.6 43.7 76.15 42.45 76.15 40.4 76.15 38.95 76.8 38.0 77.5 37.0 79.15 36.1 79.4 37.15 79.95 37.75 80.95 38.85 82.55 38.85 84.35 38.85 85.75 37.5 87.15 36.2 87.8 33.8 84.5 36.05 82.05 36.05 80.2 36.05 79.05 34.95 77.9 33.95 77.9 32.2 L78.15 30.35 79.7 23.85 79.85 22.65 79.6 21.9 78.65 21.0 Q80.6 19.6 82.0 19.05 83.4 18.45 84.9 18.45 85.9 18.45 86.5 18.95 87.4 19.65 87.4 20.65 L87.25 21.65 85.95 27.45 85.8 28.45 Q85.8 28.95 86.15 29.35 L87.0 29.7 Q87.95 29.7 88.65 28.75 L89.3 27.05 90.05 23.8 90.2 22.6 Q90.2 21.6 89.35 21.0 M70.85 19.0 Q71.6 18.6 72.5 18.6 L73.6 18.85 Q74.5 19.3 74.5 20.3 L74.4 21.2 72.7 28.65 72.4 30.25 Q72.4 30.75 72.8 31.1 73.2 31.45 73.75 31.45 L74.65 31.25 75.75 30.95 76.25 31.15 76.45 31.75 Q76.45 32.7 75.05 33.9 72.15 36.4 68.85 36.4 67.3 36.4 66.25 35.3 65.2 34.3 65.2 32.75 L65.3 31.7 62.7 34.6 Q60.85 36.4 58.7 36.4 56.55 36.4 55.2 34.4 54.15 32.85 54.15 30.45 54.15 28.15 55.05 25.85 55.95 23.55 57.55 21.8 58.95 20.2 60.7 19.35 62.4 18.45 64.05 18.45 66.7 18.45 68.4 20.55 L70.85 19.0 M63.45 24.35 Q62.75 25.25 62.75 26.25 62.75 27.95 64.25 27.95 65.2 27.95 65.9 26.85 66.6 25.8 66.6 24.75 66.6 23.4 65.15 23.35 64.15 23.35 63.45 24.35 M52.75 8.35 Q53.5 9.0 53.5 10.05 L53.4 10.85 49.35 29.3 49.25 30.15 Q49.25 31.45 50.6 31.45 L51.5 31.3 Q52.3 30.95 52.6 30.95 52.85 30.95 53.05 31.2 L53.3 31.75 Q53.3 32.95 51.15 34.55 48.65 36.4 45.75 36.4 43.9 36.4 42.7 35.3 41.55 34.25 41.55 32.6 L41.65 31.45 45.8 13.1 45.95 11.8 Q45.95 10.8 44.9 10.35 46.2 9.15 47.8 8.45 49.35 7.75 50.8 7.75 52.0 7.75 52.75 8.35 M43.2 2.6 Q43.2 4.15 41.6 5.15 40.55 5.8 39.55 5.8 L38.95 5.65 38.6 4.7 38.25 4.35 37.6 4.2 Q36.45 4.2 35.2 5.0 34.45 5.45 33.6 6.65 36.05 7.0 37.9 8.1 39.75 9.15 40.9 10.75 42.85 13.35 42.85 16.65 42.85 19.6 41.45 22.3 40.15 24.85 38.0 26.35 36.2 27.6 33.9 27.6 31.35 27.6 29.75 26.0 28.45 24.7 28.45 22.85 28.45 21.2 29.2 19.85 29.9 18.45 30.75 18.45 L31.2 18.6 31.55 19.25 Q31.85 20.05 32.75 20.05 33.85 20.05 34.75 18.7 35.65 17.35 35.65 15.75 35.65 13.85 34.45 12.55 33.25 11.2 31.2 10.75 29.6 14.7 29.1 16.45 28.55 18.2 26.7 25.9 25.1 32.55 21.9 36.3 19.7 38.9 16.7 40.25 13.7 41.65 10.25 41.65 5.4 41.65 2.55 38.8 0.0 36.25 0.0 32.75 0.0 29.2 2.55 26.3 4.7 23.8 8.5 22.7 10.35 22.15 11.85 22.15 L13.7 22.55 Q14.4 22.9 14.4 23.5 L13.6 24.95 13.35 25.85 Q13.35 26.7 14.05 27.3 14.75 27.95 15.8 27.95 16.9 27.95 18.2 27.25 L20.35 25.4 Q21.6 23.8 23.05 19.85 L24.45 16.25 25.85 13.05 26.9 10.75 Q24.7 11.15 23.55 11.95 22.8 12.45 22.3 13.2 21.75 14.0 21.75 14.6 L22.0 15.35 23.05 15.9 Q23.35 16.05 23.35 16.55 23.35 17.5 22.15 18.9 19.65 21.95 16.35 21.95 14.0 21.95 12.3 20.45 10.9 19.15 10.9 17.05 10.9 13.85 13.8 11.15 16.6 8.55 21.7 7.25 L25.15 6.5 29.25 6.35 Q31.2 3.75 32.85 2.5 36.1 0.0 39.7 0.0 41.3 0.0 42.25 0.7 43.2 1.4 43.2 2.6" fill="#0099cc" fill-rule="evenodd" stroke="none"/>
    <path d="M89.35 21.0 Q92.4 18.45 95.15 18.45 96.3 18.45 97.05 19.05 97.75 19.65 97.75 20.65 L97.65 21.65 95.05 33.85 Q94.05 38.7 91.05 41.55 87.35 45.15 82.3 45.15 79.35 45.15 77.6 43.7 76.15 42.45 76.15 40.4 76.15 38.95 76.8 38.0 77.5 37.0 79.15 36.1 79.4 37.15 79.95 37.75 80.95 38.85 82.55 38.85 84.35 38.85 85.75 37.5 87.15 36.2 87.8 33.8 84.5 36.05 82.05 36.05 80.2 36.05 79.05 34.95 77.9 33.95 77.9 32.2 L78.15 30.35 79.7 23.85 79.85 22.65 79.6 21.9 78.65 21.0 Q80.6 19.6 82.0 19.05 83.4 18.45 84.9 18.45 85.9 18.45 86.5 18.95 87.4 19.65 87.4 20.65 L87.25 21.65 85.95 27.45 85.8 28.45 Q85.8 28.95 86.15 29.35 L87.0 29.7 Q87.95 29.7 88.65 28.75 L89.3 27.05 90.05 23.8 90.2 22.6 Q90.2 21.6 89.35 21.0 M70.85 19.0 Q71.6 18.6 72.5 18.6 L73.6 18.85 Q74.5 19.3 74.5 20.3 L74.4 21.2 72.7 28.65 72.4 30.25 Q72.4 30.75 72.8 31.1 73.2 31.45 73.75 31.45 L74.65 31.25 75.75 30.95 76.25 31.15 76.45 31.75 Q76.45 32.7 75.05 33.9 72.15 36.4 68.85 36.4 67.3 36.4 66.25 35.3 65.2 34.3 65.2 32.75 L65.3 31.7 62.7 34.6 Q60.85 36.4 58.7 36.4 56.55 36.4 55.2 34.4 54.15 32.85 54.15 30.45 54.15 28.15 55.05 25.85 55.95 23.55 57.55 21.8 58.95 20.2 60.7 19.35 62.4 18.45 64.05 18.45 66.7 18.45 68.4 20.55 L70.85 19.0 M63.45 24.35 Q62.75 25.25 62.75 26.25 62.75 27.95 64.25 27.95 65.2 27.95 65.9 26.85 66.6 25.8 66.6 24.75 66.6 23.4 65.15 23.35 64.15 23.35 63.45 24.35 M52.75 8.35 Q53.5 9.0 53.5 10.05 L53.4 10.85 49.35 29.3 49.25 30.15 Q49.25 31.45 50.6 31.45 L51.5 31.3 Q52.3 30.95 52.6 30.95 52.85 30.95 53.05 31.2 L53.3 31.75 Q53.3 32.95 51.15 34.55 48.65 36.4 45.75 36.4 43.9 36.4 42.7 35.3 41.55 34.25 41.55 32.6 L41.65 31.45 45.8 13.1 45.95 11.8 Q45.95 10.8 44.9 10.35 46.2 9.15 47.8 8.45 49.35 7.75 50.8 7.75 52.0 7.75 52.75 8.35 M43.2 2.6 Q43.2 4.15 41.6 5.15 40.55 5.8 39.55 5.8 L38.95 5.65 38.6 4.7 38.25 4.35 37.6 4.2 Q36.45 4.2 35.2 5.0 34.45 5.45 33.6 6.65 36.05 7.0 37.9 8.1 39.75 9.15 40.9 10.75 42.85 13.35 42.85 16.65 42.85 19.6 41.45 22.3 40.15 24.85 38.0 26.35 36.2 27.6 33.9 27.6 31.35 27.6 29.75 26.0 28.45 24.7 28.45 22.85 28.45 21.2 29.2 19.85 29.9 18.45 30.75 18.45 L31.2 18.6 31.55 19.25 Q31.85 20.05 32.75 20.05 33.85 20.05 34.75 18.7 35.65 17.35 35.65 15.75 35.65 13.85 34.45 12.55 33.25 11.2 31.2 10.75 29.6 14.7 29.1 16.45 28.55 18.2 26.7 25.9 25.1 32.55 21.9 36.3 19.7 38.9 16.7 40.25 13.7 41.65 10.25 41.65 5.4 41.65 2.55 38.8 0.0 36.25 0.0 32.75 0.0 29.2 2.55 26.3 4.7 23.8 8.5 22.7 10.35 22.15 11.85 22.15 L13.7 22.55 Q14.4 22.9 14.4 23.5 L13.6 24.95 13.35 25.85 Q13.35 26.7 14.05 27.3 14.75 27.95 15.8 27.95 16.9 27.95 18.2 27.25 L20.35 25.4 Q21.6 23.8 23.05 19.85 L24.45 16.25 25.85 13.05 26.9 10.75 Q24.7 11.15 23.55 11.95 22.8 12.45 22.3 13.2 21.75 14.0 21.75 14.6 L22.0 15.35 23.05 15.9 Q23.35 16.05 23.35 16.55 23.35 17.5 22.15 18.9 19.65 21.95 16.35 21.95 14.0 21.95 12.3 20.45 10.9 19.15 10.9 17.05 10.9 13.85 13.8 11.15 16.6 8.55 21.7 7.25 L25.15 6.5 29.25 6.35 Q31.2 3.75 32.85 2.5 36.1 0.0 39.7 0.0 41.3 0.0 42.25 0.7 43.2 1.4 43.2 2.6" fill="none" stroke="#ffffff" stroke-linecap="round" stroke-linejoin="round" stroke-width="6.0"/>
    <path d="M84.9 18.45 Q85.9 18.45 86.5 18.95 87.4 19.65 87.4 20.65 L87.25 21.65 85.95 27.45 85.8 28.45 Q85.8 28.95 86.15 29.35 L87.0 29.7 Q87.95 29.7 88.65 28.75 L89.3 27.05 90.05 23.8 90.2 22.6 Q90.2 21.6 89.35 21.0 92.4 18.45 95.15 18.45 96.3 18.45 97.05 19.05 97.75 19.65 97.75 20.65 L97.65 21.65 95.05 33.85 Q94.05 38.7 91.05 41.55 87.35 45.15 82.3 45.15 79.35 45.15 77.6 43.7 76.15 42.45 76.15 40.4 76.15 38.95 76.8 38.0 77.5 37.0 79.15 36.1 79.4 37.15 79.95 37.75 80.95 38.85 82.55 38.85 84.35 38.85 85.75 37.5 87.15 36.2 87.8 33.8 84.5 36.05 82.05 36.05 80.2 36.05 79.05 34.95 77.9 33.95 77.9 32.2 L78.15 30.35 79.7 23.85 79.85 22.65 79.6 21.9 78.65 21.0 Q80.6 19.6 82.0 19.05 83.4 18.45 84.9 18.45 M70.85 19.0 Q71.6 18.6 72.5 18.6 L73.6 18.85 Q74.5 19.3 74.5 20.3 L74.4 21.2 72.7 28.65 72.4 30.25 Q72.4 30.75 72.8 31.1 73.2 31.45 73.75 31.45 L74.65 31.25 75.75 30.95 76.25 31.15 76.45 31.75 Q76.45 32.7 75.05 33.9 72.15 36.4 68.85 36.4 67.3 36.4 66.25 35.3 65.2 34.3 65.2 32.75 L65.3 31.7 62.7 34.6 Q60.85 36.4 58.7 36.4 56.55 36.4 55.2 34.4 54.15 32.85 54.15 30.45 54.15 28.15 55.05 25.85 55.95 23.55 57.55 21.8 58.95 20.2 60.7 19.35 62.4 18.45 64.05 18.45 66.7 18.45 68.4 20.55 L70.85 19.0 M63.45 24.35 Q62.75 25.25 62.75 26.25 62.75 27.95 64.25 27.95 65.2 27.95 65.9 26.85 66.6 25.8 66.6 24.75 66.6 23.4 65.15 23.35 64.15 23.35 63.45 24.35 M53.4 10.85 L49.35 29.3 49.25 30.15 Q49.25 31.45 50.6 31.45 L51.5 31.3 Q52.3 30.95 52.6 30.95 52.85 30.95 53.05 31.2 L53.3 31.75 Q53.3 32.95 51.15 34.55 48.65 36.4 45.75 36.4 43.9 36.4 42.7 35.3 41.55 34.25 41.55 32.6 L41.65 31.45 45.8 13.1 45.95 11.8 Q45.95 10.8 44.9 10.35 46.2 9.15 47.8 8.45 49.35 7.75 50.8 7.75 52.0 7.75 52.75 8.35 53.5 9.0 53.5 10.05 L53.4 10.85 M43.2 2.6 Q43.2 4.15 41.6 5.15 40.55 5.8 39.55 5.8 L38.95 5.65 38.6 4.7 38.25 4.35 37.6 4.2 Q36.45 4.2 35.2 5.0 34.45 5.45 33.6 6.65 36.05 7.0 37.9 8.1 39.75 9.15 40.9 10.75 42.85 13.35 42.85 16.65 42.85 19.6 41.45 22.3 40.15 24.85 38.0 26.35 36.2 27.6 33.9 27.6 31.35 27.6 29.75 26.0 28.45 24.7 28.45 22.85 28.45 21.2 29.2 19.85 29.9 18.45 30.75 18.45 L31.2 18.6 31.55 19.25 Q31.85 20.05 32.75 20.05 33.85 20.05 34.75 18.7 35.65 17.35 35.65 15.75 35.65 13.85 34.45 12.55 33.25 11.2 31.2 10.75 29.6 14.7 29.1 16.45 28.55 18.2 26.7 25.9 25.1 32.55 21.9 36.3 19.7 38.9 16.7 40.25 13.7 41.65 10.25 41.65 5.4 41.65 2.55 38.8 0.0 36.25 0.0 32.75 0.0 29.2 2.55 26.3 4.7 23.8 8.5 22.7 10.35 22.15 11.85 22.15 L13.7 22.55 Q14.4 22.9 14.4 23.5 L13.6 24.95 13.35 25.85 Q13.35 26.7 14.05 27.3 14.75 27.95 15.8 27.95 16.9 27.95 18.2 27.25 L20.35 25.4 Q21.6 23.8 23.05 19.85 L24.45 16.25 25.85 13.05 26.9 10.75 Q24.7 11.15 23.55 11.95 22.8 12.45 22.3 13.2 21.75 14.0 21.75 14.6 L22.0 15.35 23.05 15.9 Q23.35 16.05 23.35 16.55 23.35 17.5 22.15 18.9 19.65 21.95 16.35 21.95 14.0 21.95 12.3 20.45 10.9 19.15 10.9 17.05 10.9 13.85 13.8 11.15 16.6 8.55 21.7 7.25 L25.15 6.5 29.25 6.35 Q31.2 3.75 32.85 2.5 36.1 0.0 39.7 0.0 41.3 0.0 42.25 0.7 43.2 1.4 43.2 2.6" fill="#0099cc" fill-rule="evenodd" stroke="none"/>
  </g>
</svg>
