<?xml version="1.0" encoding="UTF-8" standalone="no"?>
<svg xmlns:xlink="http://www.w3.org/1999/xlink" height="65.85px" width="120.85px" xmlns="http://www.w3.org/2000/svg">
  <g transform="matrix(1.0, 0.0, 0.0, 1.0, 0.0, -44.1)">
    <path d="M18.0 46.15 Q14.7 45.0 13.25 47.7 L6.75 60.55 Q5.1 64.05 8.55 65.75 L27.85 73.0 Q31.25 74.1 33.35 69.95 L39.2 57.6 Q40.45 54.6 37.2 53.35 L37.15 53.3 18.0 46.15 M17.35 44.35 L41.2 53.4 Q45.1 54.7 43.35 59.85 L34.9 77.85 Q32.7 82.15 28.65 80.85 L28.35 80.7 28.3 80.7 2.3 71.2 Q-1.9 69.05 1.5 63.1 L8.4 49.25 Q11.8 42.9 17.35 44.35 M39.35 77.65 L39.5 77.35 46.1 62.05 Q49.45 57.1 54.05 58.3 L79.0 67.8 Q83.0 70.0 80.5 76.9 L73.5 92.2 Q71.4 96.1 67.75 95.1 L41.6 85.55 Q37.1 83.55 38.85 78.85 L39.35 77.65 M76.85 72.65 Q77.75 69.5 74.45 67.25 L56.15 60.4 54.05 60.15 Q51.6 60.2 50.2 62.5 L44.75 75.55 44.7 75.65 Q43.75 78.0 46.9 80.1 L65.75 87.2 Q69.55 88.45 71.45 85.0 L76.85 72.65" fill="#993366" fill-rule="evenodd" stroke="none"/>
    <path d="M18.0 46.15 L37.15 53.3 37.2 53.35 Q40.45 54.6 39.2 57.6 L33.35 69.95 Q31.25 74.1 27.85 73.0 L8.55 65.75 Q5.1 64.05 6.75 60.55 L13.25 47.7 Q14.7 45.0 18.0 46.15 M16.65 65.65 L20.25 58.65 11.8 59.6 16.65 65.65 M76.85 72.65 L71.45 85.0 Q69.55 88.45 65.75 87.2 L46.9 80.1 Q43.75 78.0 44.7 75.65 L44.75 75.55 50.2 62.5 Q51.6 60.2 54.05 60.15 L56.15 60.4 74.45 67.25 Q77.75 69.5 76.85 72.65 M55.9 74.7 L57.05 82.2 63.3 77.45 55.9 74.7" fill="#ff6699" fill-rule="evenodd" stroke="none"/>
    <path d="M106.6 94.5 L98.95 95.75 101.55 88.9 106.6 94.5 M16.65 65.65 L11.8 59.6 20.25 58.65 16.65 65.65 M55.9 74.7 L63.3 77.45 57.05 82.2 55.9 74.7" fill="#ffffff" fill-rule="evenodd" stroke="none"/>
    <path d="M91.7 72.6 L91.8 72.65 118.65 82.9 Q121.9 84.8 120.4 90.05 L114.75 105.6 Q112.65 111.0 107.7 109.7 L81.35 100.1 81.35 100.05 Q76.05 97.5 78.2 91.85 L85.15 75.4 Q87.35 71.1 91.55 72.55 L91.7 72.6 M95.55 75.15 Q91.7 74.05 90.0 77.45 L85.7 88.7 85.65 88.9 Q84.15 93.05 87.7 95.45 L106.0 102.3 Q110.8 103.85 112.7 99.4 L116.75 88.2 Q117.95 83.75 113.8 82.0 L95.55 75.15" fill="#ffcc00" fill-rule="evenodd" stroke="none"/>
    <path d="M95.55 75.15 L113.8 82.0 Q117.95 83.75 116.75 88.2 L112.7 99.4 Q110.8 103.85 106.0 102.3 L87.7 95.45 Q84.15 93.05 85.65 88.9 L85.7 88.7 90.0 77.45 Q91.7 74.05 95.55 75.15 M106.6 94.5 L101.55 88.9 98.95 95.75 106.6 94.5" fill="#ffff99" fill-rule="evenodd" stroke="none"/>
  </g>
</svg>
