<?xml version="1.0" encoding="UTF-8" standalone="no"?>
<svg xmlns:xlink="http://www.w3.org/1999/xlink" height="61.7px" width="261.7px" xmlns="http://www.w3.org/2000/svg">
  <g transform="matrix(1.0, 0.0, 0.0, 1.0, 50.55, -3.4)">
    <path d="M211.15 34.25 Q211.1 36.3 210.0 38.25 208.25 41.5 203.7 44.5 194.45 50.55 173.9 55.55 135.1 65.1 80.25 65.1 25.4 65.1 -13.35 55.55 L-13.45 55.55 Q-50.05 46.65 -50.55 34.25 -50.05 21.85 -13.35 12.8 L-13.45 12.8 Q25.4 3.4 80.25 3.4 135.1 3.4 173.9 12.8 194.45 17.85 203.7 24.0 208.25 27.0 210.0 30.25 211.1 32.2 211.15 34.25" fill="url(#gradient0)" fill-rule="evenodd" stroke="none"/>
  </g>
  <defs>
    <radialGradient cx="0" cy="0" gradientTransform="matrix(0.0, 0.0647, -0.2126, 0.0, 81.55, 54.4)" gradientUnits="userSpaceOnUse" id="gradient0" r="819.2" spreadMethod="pad">
      <stop offset="0.0" stop-color="#ff66cc"/>
      <stop offset="0.7490196078431373" stop-color="#cc0066"/>
      <stop offset="1.0" stop-color="#993366"/>
    </radialGradient>
  </defs>
</svg>
