<?xml version="1.0" encoding="UTF-8" standalone="no"?>
<svg xmlns:xlink="http://www.w3.org/1999/xlink" height="47.15px" width="201.35px" xmlns="http://www.w3.org/2000/svg">
  <g transform="matrix(1.0, 0.0, 0.0, 1.0, 49.85, 2.25)">
    <path d="M146.75 22.0 Q146.75 25.5 141.95 27.7 139.7 28.7 136.3 28.9 L136.3 29.2 Q136.3 30.05 137.05 30.6 137.7 31.2 138.75 31.2 L141.4 30.7 Q142.75 30.15 145.2 28.7 145.8 28.35 146.4 28.35 146.9 28.35 147.2 28.65 L147.5 29.4 Q147.5 31.0 145.05 33.0 140.65 36.5 136.0 36.5 131.95 36.5 129.7 34.0 127.6 31.7 127.6 28.5 127.6 23.25 132.35 19.7 136.1 16.95 140.45 16.95 143.5 16.95 145.25 18.6 146.75 20.05 146.75 22.0 M124.45 20.45 L122.85 28.05 122.6 29.65 Q122.6 30.15 123.0 30.6 123.45 31.0 124.0 31.0 L125.05 30.75 126.15 30.45 126.75 30.65 127.0 31.2 Q127.0 32.65 124.7 34.25 121.65 36.3 118.5 36.3 116.8 36.3 115.75 35.4 114.65 34.5 114.55 32.95 112.85 34.55 110.9 35.4 108.95 36.3 107.35 36.3 105.05 36.3 103.7 34.75 102.85 33.75 102.85 32.5 L103.0 31.55 104.8 22.95 104.95 21.75 Q104.95 20.6 103.85 20.05 105.45 18.7 107.2 17.95 108.9 17.15 110.3 17.15 111.65 17.15 112.4 17.85 113.1 18.55 113.1 19.85 L113.05 20.45 111.55 27.25 111.4 28.25 Q111.4 29.5 112.7 29.5 113.7 29.5 114.35 28.75 114.95 28.05 115.35 26.45 L116.15 23.0 116.35 21.75 116.1 20.75 115.2 20.05 Q118.8 17.15 121.8 17.15 123.0 17.15 123.8 17.85 124.5 18.5 124.5 19.65 L124.45 20.45 M139.55 21.15 Q138.65 21.15 137.9 22.05 137.15 22.95 136.75 24.5 140.5 23.95 140.5 22.3 L140.2 21.45 Q139.95 21.15 139.55 21.15 M95.0 16.95 Q96.9 16.95 98.15 18.0 99.4 19.1 99.4 20.8 L99.2 22.2 97.75 28.2 97.5 29.5 Q97.5 30.8 99.0 30.8 L99.85 30.7 101.15 30.45 101.65 30.65 101.85 31.25 Q101.85 32.6 99.5 34.25 96.85 36.15 93.75 36.15 91.75 36.15 90.5 35.05 89.35 34.0 89.35 32.2 L89.45 31.15 90.55 26.1 90.65 25.05 Q90.65 24.5 90.3 24.15 89.9 23.8 89.35 23.8 87.35 23.8 86.65 26.75 L85.35 32.5 Q85.0 34.0 84.05 34.85 83.1 35.75 81.85 35.75 L79.8 35.75 Q77.9 35.75 76.65 36.9 L79.75 23.05 80.05 21.25 Q80.05 20.2 78.85 19.65 82.4 16.95 85.35 16.95 88.1 16.95 88.3 19.65 91.6 16.95 95.0 16.95 M74.8 8.85 Q75.7 9.75 75.7 11.1 75.7 12.8 74.15 14.05 72.35 15.45 70.25 15.45 68.65 15.45 67.7 14.55 66.8 13.7 66.8 12.15 66.8 10.5 68.35 9.15 69.9 7.85 71.95 7.85 73.75 7.85 74.8 8.85 M65.65 21.55 Q65.65 20.45 64.6 19.85 68.0 16.95 71.05 16.95 72.3 16.95 73.05 17.6 73.8 18.25 73.8 19.4 L73.75 20.35 71.9 28.05 71.75 29.4 Q71.75 31.0 73.25 31.0 L74.15 30.8 75.4 30.45 75.9 30.65 76.1 31.2 Q76.1 32.7 73.85 34.25 70.95 36.3 68.1 36.3 66.15 36.3 64.85 35.2 63.55 34.1 63.55 32.45 L63.7 31.0 65.4 23.1 65.65 21.55 M62.85 18.7 Q62.85 20.5 62.1 21.45 61.6 22.1 60.45 22.1 L57.9 22.1 57.25 24.8 56.65 27.1 Q56.35 28.2 56.35 29.05 56.35 31.0 58.6 31.0 L60.55 30.65 61.65 30.45 Q62.45 30.45 62.45 31.25 62.45 32.5 60.1 34.1 57.3 36.15 53.85 36.15 51.3 36.15 49.65 34.75 48.0 33.3 48.0 31.25 48.0 30.3 48.25 29.4 L49.5 25.45 50.45 22.1 Q48.8 21.85 48.8 20.45 48.8 19.6 49.5 18.75 L52.9 15.65 Q57.5 11.85 59.1 11.85 L59.85 12.15 60.15 12.85 59.9 14.15 59.0 17.35 61.4 17.35 Q62.85 17.35 62.85 18.7 M44.5 20.8 L44.3 22.2 42.85 28.2 42.6 29.5 Q42.6 30.8 44.1 30.8 L44.95 30.7 46.25 30.45 46.75 30.65 46.95 31.25 Q46.95 32.6 44.6 34.25 41.95 36.15 38.85 36.15 36.85 36.15 35.6 35.05 34.45 34.0 34.45 32.2 L34.55 31.15 35.65 26.1 35.75 25.05 Q35.75 24.5 35.4 24.15 35.0 23.8 34.45 23.8 32.45 23.8 31.75 26.75 L30.45 32.5 Q30.1 34.0 29.15 34.85 28.2 35.75 26.95 35.75 L24.9 35.75 Q23.0 35.75 21.75 36.9 L24.85 23.05 25.15 21.25 Q25.15 20.2 23.95 19.65 27.5 16.95 30.45 16.95 33.2 16.95 33.4 19.65 36.7 16.95 40.1 16.95 42.0 16.95 43.25 18.0 44.5 19.1 44.5 20.8 M11.7 21.9 Q10.75 21.85 10.0 22.9 9.2 23.9 9.2 25.15 9.2 26.05 9.65 26.65 10.1 27.2 10.8 27.2 11.8 27.2 12.6 26.2 13.35 25.2 13.35 23.9 13.35 21.95 11.7 21.9 M6.85 18.55 Q9.35 17.2 12.35 17.15 16.25 17.15 18.5 19.6 20.4 21.6 20.4 24.95 20.4 28.1 18.75 30.75 17.15 33.45 14.35 34.95 11.85 36.3 8.8 36.3 4.35 36.3 2.25 33.15 0.85 31.0 0.85 28.1 0.85 25.35 2.35 22.85 4.05 20.05 6.85 18.55 M-7.2 9.95 Q-9.05 9.95 -12.0 10.8 -8.35 12.0 -6.9 12.0 -5.05 12.0 -5.05 11.0 -5.05 10.5 -5.65 10.25 L-7.2 9.95 M-0.3 6.75 Q2.0 8.4 2.0 11.05 2.0 13.85 -0.65 15.65 -2.85 17.15 -5.55 17.15 -9.35 17.15 -16.3 13.9 -18.4 15.6 -19.65 17.55 -21.95 21.05 -21.95 24.6 -21.95 27.4 -20.4 28.85 -19.1 30.05 -17.2 30.05 -15.25 30.05 -14.0 28.9 -12.85 27.8 -12.85 26.4 -12.85 25.35 -13.55 24.65 -14.3 24.0 -15.5 24.0 L-16.45 24.05 -17.4 24.15 Q-17.85 24.15 -18.2 23.85 L-18.55 23.0 Q-18.55 21.6 -16.35 20.25 -13.2 18.3 -9.65 18.3 -5.95 18.3 -3.75 20.8 -2.0 22.85 -2.0 25.75 -2.0 29.8 -4.5 33.45 -6.85 36.85 -10.55 38.8 -14.45 40.9 -19.0 40.9 -26.45 40.9 -30.25 36.05 -33.35 32.05 -33.35 27.0 -33.35 22.8 -31.2 18.7 -29.05 14.55 -24.9 10.8 -27.55 10.1 -29.7 10.1 -31.75 10.1 -32.9 10.85 -34.1 11.7 -34.1 12.85 L-33.75 13.8 -33.1 14.3 -31.0 14.1 -30.55 14.45 -30.3 15.2 Q-30.3 16.55 -32.7 17.7 -35.1 18.85 -38.0 18.85 -41.95 18.85 -44.05 16.3 -45.85 14.2 -45.85 11.35 -45.85 7.2 -42.4 4.4 -39.15 1.75 -34.75 1.75 L-30.25 2.4 Q-28.05 3.05 -25.0 4.6 L-19.4 7.45 Q-15.75 5.95 -13.25 5.4 L-7.8 4.8 Q-2.9 4.8 -0.3 6.75" fill="none" stroke="#000000" stroke-linecap="round" stroke-linejoin="round" stroke-width="8.0"/>
    <path d="M146.75 22.0 Q146.75 25.5 141.95 27.7 139.7 28.7 136.3 28.9 L136.3 29.2 Q136.3 30.05 137.05 30.6 137.7 31.2 138.75 31.2 L141.4 30.7 Q142.75 30.15 145.2 28.7 145.8 28.35 146.4 28.35 146.9 28.35 147.2 28.65 L147.5 29.4 Q147.5 31.0 145.05 33.0 140.65 36.5 136.0 36.5 131.95 36.5 129.7 34.0 127.6 31.7 127.6 28.5 127.6 23.25 132.35 19.7 136.1 16.95 140.45 16.95 143.5 16.95 145.25 18.6 146.75 20.05 146.75 22.0 M123.8 17.85 Q124.5 18.5 124.5 19.65 L124.45 20.45 122.85 28.05 122.6 29.65 Q122.6 30.15 123.0 30.6 123.45 31.0 124.0 31.0 L125.05 30.75 126.15 30.45 126.75 30.65 127.0 31.2 Q127.0 32.65 124.7 34.25 121.65 36.3 118.5 36.3 116.8 36.3 115.75 35.4 114.65 34.5 114.55 32.95 112.85 34.55 110.9 35.4 108.95 36.3 107.35 36.3 105.05 36.3 103.7 34.75 102.85 33.75 102.85 32.5 L103.0 31.55 104.8 22.95 104.95 21.75 Q104.95 20.6 103.85 20.05 105.45 18.7 107.2 17.95 108.9 17.15 110.3 17.15 111.65 17.15 112.4 17.85 113.1 18.55 113.1 19.85 L113.05 20.45 111.55 27.25 111.4 28.25 Q111.4 29.5 112.7 29.5 113.7 29.5 114.35 28.75 114.95 28.05 115.35 26.45 L116.15 23.0 116.35 21.75 116.1 20.75 115.2 20.05 Q118.8 17.15 121.8 17.15 123.0 17.15 123.8 17.85 M140.5 22.3 L140.2 21.45 Q139.95 21.15 139.55 21.15 138.65 21.15 137.9 22.05 137.15 22.95 136.75 24.5 140.5 23.95 140.5 22.3 M99.4 20.8 L99.2 22.2 97.75 28.2 97.5 29.5 Q97.5 30.8 99.0 30.8 L99.85 30.7 101.15 30.45 101.65 30.65 101.85 31.25 Q101.85 32.6 99.5 34.25 96.85 36.15 93.75 36.15 91.75 36.15 90.5 35.05 89.35 34.0 89.35 32.2 L89.45 31.15 90.55 26.1 90.65 25.05 Q90.65 24.5 90.3 24.15 89.9 23.8 89.35 23.8 87.35 23.8 86.65 26.75 L85.35 32.5 Q85.0 34.0 84.05 34.85 83.1 35.75 81.85 35.75 L79.8 35.75 Q77.9 35.75 76.65 36.9 L79.75 23.05 80.05 21.25 Q80.05 20.2 78.85 19.65 82.4 16.95 85.35 16.95 88.1 16.95 88.3 19.65 91.6 16.95 95.0 16.95 96.9 16.95 98.15 18.0 99.4 19.1 99.4 20.8 M75.7 11.1 Q75.7 12.8 74.15 14.05 72.35 15.45 70.25 15.45 68.65 15.45 67.7 14.55 66.8 13.7 66.8 12.15 66.8 10.5 68.35 9.15 69.9 7.85 71.95 7.85 73.75 7.85 74.8 8.85 75.7 9.75 75.7 11.1 M64.6 19.85 Q68.0 16.95 71.05 16.95 72.3 16.95 73.05 17.6 73.8 18.25 73.8 19.4 L73.75 20.35 71.9 28.05 71.75 29.4 Q71.75 31.0 73.25 31.0 L74.15 30.8 75.4 30.45 75.9 30.65 76.1 31.2 Q76.1 32.7 73.85 34.25 70.95 36.3 68.1 36.3 66.15 36.3 64.85 35.2 63.55 34.1 63.55 32.45 L63.7 31.0 65.4 23.1 65.65 21.55 Q65.65 20.45 64.6 19.85 M62.85 18.7 Q62.85 20.5 62.1 21.45 61.6 22.1 60.45 22.1 L57.9 22.1 57.25 24.8 56.65 27.1 Q56.35 28.2 56.35 29.05 56.35 31.0 58.6 31.0 L60.55 30.65 61.65 30.45 Q62.45 30.45 62.45 31.25 62.45 32.5 60.1 34.1 57.3 36.15 53.85 36.15 51.3 36.15 49.65 34.75 48.0 33.3 48.0 31.25 48.0 30.3 48.25 29.4 L49.5 25.45 50.45 22.1 Q48.8 21.85 48.8 20.45 48.8 19.6 49.5 18.75 L52.9 15.65 Q57.5 11.85 59.1 11.85 L59.85 12.15 60.15 12.85 59.9 14.15 59.0 17.35 61.4 17.35 Q62.85 17.35 62.85 18.7 M44.3 22.2 L42.85 28.2 42.6 29.5 Q42.6 30.8 44.1 30.8 L44.95 30.7 46.25 30.45 46.75 30.65 46.95 31.25 Q46.95 32.6 44.6 34.25 41.95 36.15 38.85 36.15 36.85 36.15 35.6 35.05 34.45 34.0 34.45 32.2 L34.55 31.15 35.65 26.1 35.75 25.05 Q35.75 24.5 35.4 24.15 35.0 23.8 34.45 23.8 32.45 23.8 31.75 26.75 L30.45 32.5 Q30.1 34.0 29.15 34.85 28.2 35.75 26.95 35.75 L24.9 35.75 Q23.0 35.75 21.75 36.9 L24.85 23.05 25.15 21.25 Q25.15 20.2 23.95 19.65 27.5 16.95 30.45 16.95 33.2 16.95 33.4 19.65 36.7 16.95 40.1 16.95 42.0 16.95 43.25 18.0 44.5 19.1 44.5 20.8 L44.3 22.2 M11.7 21.9 Q10.75 21.85 10.0 22.9 9.2 23.9 9.2 25.15 9.2 26.05 9.65 26.65 10.1 27.2 10.8 27.2 11.8 27.2 12.6 26.2 13.35 25.2 13.35 23.9 13.35 21.95 11.7 21.9 M6.85 18.55 Q9.35 17.2 12.35 17.15 16.25 17.15 18.5 19.6 20.4 21.6 20.4 24.95 20.4 28.1 18.75 30.75 17.15 33.45 14.35 34.95 11.85 36.3 8.8 36.3 4.35 36.3 2.25 33.15 0.85 31.0 0.85 28.1 0.85 25.35 2.35 22.85 4.05 20.05 6.85 18.55 M-5.05 11.0 Q-5.05 10.5 -5.65 10.25 L-7.2 9.95 Q-9.05 9.95 -12.0 10.8 -8.35 12.0 -6.9 12.0 -5.05 12.0 -5.05 11.0 M-0.3 6.75 Q2.0 8.4 2.0 11.05 2.0 13.85 -0.65 15.65 -2.85 17.15 -5.55 17.15 -9.35 17.15 -16.3 13.9 -18.4 15.6 -19.65 17.55 -21.95 21.05 -21.95 24.6 -21.95 27.4 -20.4 28.85 -19.1 30.05 -17.2 30.05 -15.25 30.05 -14.0 28.9 -12.85 27.8 -12.85 26.4 -12.85 25.35 -13.55 24.65 -14.3 24.0 -15.5 24.0 L-16.45 24.05 -17.4 24.15 Q-17.85 24.15 -18.2 23.85 L-18.55 23.0 Q-18.55 21.6 -16.35 20.25 -13.2 18.3 -9.65 18.3 -5.95 18.3 -3.75 20.8 -2.0 22.85 -2.0 25.75 -2.0 29.8 -4.5 33.45 -6.85 36.85 -10.55 38.8 -14.45 40.9 -19.0 40.9 -26.45 40.9 -30.25 36.05 -33.35 32.05 -33.35 27.0 -33.35 22.8 -31.2 18.7 -29.05 14.55 -24.9 10.8 -27.55 10.1 -29.7 10.1 -31.75 10.1 -32.9 10.85 -34.1 11.7 -34.1 12.85 L-33.75 13.8 -33.1 14.3 -31.0 14.1 -30.55 14.45 -30.3 15.2 Q-30.3 16.55 -32.7 17.7 -35.1 18.85 -38.0 18.85 -41.95 18.85 -44.05 16.3 -45.85 14.2 -45.85 11.35 -45.85 7.2 -42.4 4.4 -39.15 1.75 -34.75 1.75 L-30.25 2.4 Q-28.05 3.05 -25.0 4.6 L-19.4 7.45 Q-15.75 5.95 -13.25 5.4 L-7.8 4.8 Q-2.9 4.8 -0.3 6.75" fill="none" stroke="#ffffff" stroke-linecap="round" stroke-linejoin="round" stroke-width="4.0"/>
    <path d="M146.75 22.0 Q146.75 25.5 141.95 27.7 139.7 28.7 136.3 28.9 L136.3 29.2 Q136.3 30.05 137.05 30.6 137.7 31.2 138.75 31.2 L141.4 30.7 Q142.75 30.15 145.2 28.7 145.8 28.35 146.4 28.35 146.9 28.35 147.2 28.65 L147.5 29.4 Q147.5 31.0 145.05 33.0 140.65 36.5 136.0 36.5 131.95 36.5 129.7 34.0 127.6 31.7 127.6 28.5 127.6 23.25 132.35 19.7 136.1 16.95 140.45 16.95 143.5 16.95 145.25 18.6 146.75 20.05 146.75 22.0 M124.45 20.45 L122.85 28.05 122.6 29.65 Q122.6 30.15 123.0 30.6 123.45 31.0 124.0 31.0 L125.05 30.75 126.15 30.45 126.75 30.65 127.0 31.2 Q127.0 32.65 124.7 34.25 121.65 36.3 118.5 36.3 116.8 36.3 115.75 35.4 114.65 34.5 114.55 32.95 112.85 34.55 110.9 35.4 108.95 36.3 107.35 36.3 105.05 36.3 103.7 34.75 102.85 33.75 102.85 32.5 L103.0 31.55 104.8 22.95 104.95 21.75 Q104.95 20.6 103.85 20.05 105.45 18.7 107.2 17.95 108.9 17.15 110.3 17.15 111.65 17.15 112.4 17.85 113.1 18.55 113.1 19.85 L113.05 20.45 111.55 27.25 111.4 28.25 Q111.4 29.5 112.7 29.5 113.7 29.5 114.35 28.75 114.95 28.05 115.35 26.45 L116.15 23.0 116.35 21.75 116.1 20.75 115.2 20.05 Q118.8 17.15 121.8 17.15 123.0 17.15 123.8 17.85 124.5 18.5 124.5 19.65 L124.45 20.45 M137.9 22.05 Q137.15 22.95 136.75 24.5 140.5 23.95 140.5 22.3 L140.2 21.45 Q139.95 21.15 139.55 21.15 138.65 21.15 137.9 22.05 M88.3 19.65 Q91.6 16.95 95.0 16.95 96.9 16.95 98.15 18.0 99.4 19.1 99.4 20.8 L99.2 22.2 97.75 28.2 97.5 29.5 Q97.5 30.8 99.0 30.8 L99.85 30.7 101.15 30.45 101.65 30.65 101.85 31.25 Q101.85 32.6 99.5 34.25 96.85 36.15 93.75 36.15 91.75 36.15 90.5 35.05 89.35 34.0 89.35 32.2 L89.45 31.15 90.55 26.1 90.65 25.05 Q90.65 24.5 90.3 24.15 89.9 23.8 89.35 23.8 87.35 23.8 86.65 26.75 L85.35 32.5 Q85.0 34.0 84.05 34.85 83.1 35.75 81.85 35.75 L79.8 35.75 Q77.9 35.75 76.65 36.9 L79.75 23.05 80.05 21.25 Q80.05 20.2 78.85 19.65 82.4 16.95 85.35 16.95 88.1 16.95 88.3 19.65 M74.8 8.85 Q75.7 9.75 75.7 11.1 75.7 12.8 74.15 14.05 72.35 15.45 70.25 15.45 68.65 15.45 67.7 14.55 66.8 13.7 66.8 12.15 66.8 10.5 68.35 9.15 69.9 7.85 71.95 7.85 73.75 7.85 74.8 8.85 M62.85 18.7 Q62.85 20.5 62.1 21.45 61.6 22.1 60.45 22.1 L57.9 22.1 57.25 24.8 56.65 27.1 Q56.35 28.2 56.35 29.05 56.35 31.0 58.6 31.0 L60.55 30.65 61.65 30.45 Q62.45 30.45 62.45 31.25 62.45 32.5 60.1 34.1 57.3 36.15 53.85 36.15 51.3 36.15 49.65 34.75 48.0 33.3 48.0 31.25 48.0 30.3 48.25 29.4 L49.5 25.45 50.45 22.1 Q48.8 21.85 48.8 20.45 48.8 19.6 49.5 18.75 L52.9 15.65 Q57.5 11.85 59.1 11.85 L59.85 12.15 60.15 12.85 59.9 14.15 59.0 17.35 61.4 17.35 Q62.85 17.35 62.85 18.7 M65.65 21.55 Q65.65 20.45 64.6 19.85 68.0 16.95 71.05 16.95 72.3 16.95 73.05 17.6 73.8 18.25 73.8 19.4 L73.75 20.35 71.9 28.05 71.75 29.4 Q71.75 31.0 73.25 31.0 L74.15 30.8 75.4 30.45 75.9 30.65 76.1 31.2 Q76.1 32.7 73.85 34.25 70.95 36.3 68.1 36.3 66.15 36.3 64.85 35.2 63.55 34.1 63.55 32.45 L63.7 31.0 65.4 23.1 65.65 21.55 M44.3 22.2 L42.85 28.2 42.6 29.5 Q42.6 30.8 44.1 30.8 L44.95 30.7 46.25 30.45 46.75 30.65 46.95 31.25 Q46.95 32.6 44.6 34.25 41.95 36.15 38.85 36.15 36.85 36.15 35.6 35.05 34.45 34.0 34.45 32.2 L34.55 31.15 35.65 26.1 35.75 25.05 Q35.75 24.5 35.4 24.15 35.0 23.8 34.45 23.8 32.45 23.8 31.75 26.75 L30.45 32.5 Q30.1 34.0 29.15 34.85 28.2 35.75 26.95 35.75 L24.9 35.75 Q23.0 35.75 21.75 36.9 L24.85 23.05 25.15 21.25 Q25.15 20.2 23.95 19.65 27.5 16.95 30.45 16.95 33.2 16.95 33.4 19.65 36.7 16.95 40.1 16.95 42.0 16.95 43.25 18.0 44.5 19.1 44.5 20.8 L44.3 22.2 M18.5 19.6 Q20.4 21.6 20.4 24.95 20.4 28.1 18.75 30.75 17.15 33.45 14.35 34.95 11.85 36.3 8.8 36.3 4.35 36.3 2.25 33.15 0.85 31.0 0.85 28.1 0.85 25.35 2.35 22.85 4.05 20.05 6.85 18.55 9.35 17.2 12.35 17.15 16.25 17.15 18.5 19.6 M11.7 21.9 Q10.75 21.85 10.0 22.9 9.2 23.9 9.2 25.15 9.2 26.05 9.65 26.65 10.1 27.2 10.8 27.2 11.8 27.2 12.6 26.2 13.35 25.2 13.35 23.9 13.35 21.95 11.7 21.9 M-7.2 9.95 Q-9.05 9.95 -12.0 10.8 -8.35 12.0 -6.9 12.0 -5.05 12.0 -5.05 11.0 -5.05 10.5 -5.65 10.25 L-7.2 9.95 M-0.3 6.75 Q2.0 8.4 2.0 11.05 2.0 13.85 -0.65 15.65 -2.85 17.15 -5.55 17.15 -9.35 17.15 -16.3 13.9 -18.4 15.6 -19.65 17.55 -21.95 21.05 -21.95 24.6 -21.95 27.4 -20.4 28.85 -19.1 30.05 -17.2 30.05 -15.25 30.05 -14.0 28.9 -12.85 27.8 -12.85 26.4 -12.85 25.35 -13.55 24.65 -14.3 24.0 -15.5 24.0 L-16.45 24.05 -17.4 24.15 Q-17.85 24.15 -18.2 23.85 L-18.55 23.0 Q-18.55 21.6 -16.35 20.25 -13.2 18.3 -9.65 18.3 -5.95 18.3 -3.75 20.8 -2.0 22.85 -2.0 25.75 -2.0 29.8 -4.5 33.45 -6.85 36.85 -10.55 38.8 -14.45 40.9 -19.0 40.9 -26.45 40.9 -30.25 36.05 -33.35 32.05 -33.35 27.0 -33.35 22.8 -31.2 18.7 -29.05 14.55 -24.9 10.8 -27.55 10.1 -29.7 10.1 -31.75 10.1 -32.9 10.85 -34.1 11.7 -34.1 12.85 L-33.75 13.8 -33.1 14.3 -31.0 14.1 -30.55 14.45 -30.3 15.2 Q-30.3 16.55 -32.7 17.7 -35.1 18.85 -38.0 18.85 -41.95 18.85 -44.05 16.3 -45.85 14.2 -45.85 11.35 -45.85 7.2 -42.4 4.4 -39.15 1.75 -34.75 1.75 L-30.25 2.4 Q-28.05 3.05 -25.0 4.6 L-19.4 7.45 Q-15.75 5.95 -13.25 5.4 L-7.8 4.8 Q-2.9 4.8 -0.3 6.75" fill="#0099cc" fill-rule="evenodd" stroke="none"/>
  </g>
</svg>
