<?xml version="1.0" encoding="UTF-8" standalone="no"?>
<svg xmlns:xlink="http://www.w3.org/1999/xlink" height="118.9px" width="260.75px" xmlns="http://www.w3.org/2000/svg">
  <g transform="matrix(1.0, 0.0, 0.0, 1.0, 6.0, 6.0)">
    <path d="M246.45 41.5 Q247.35 41.4 248.0 41.8 248.65 42.35 248.75 43.25 249.0 46.1 244.7 50.25 237.15 57.35 228.65 58.1 221.2 58.75 216.65 54.65 215.25 53.4 214.25 51.9 213.35 53.55 211.05 55.6 206.5 59.75 200.8 60.25 197.2 60.55 194.65 58.7 192.1 56.8 191.8 53.65 191.7 52.6 191.95 51.7 L193.45 42.1 193.45 40.4 Q193.2 37.55 190.85 37.8 188.9 37.95 188.0 39.4 187.05 40.85 186.6 44.2 L185.2 54.4 Q184.9 57.45 183.2 59.1 181.75 60.85 179.05 61.1 L175.3 61.4 Q173.5 61.55 172.35 62.1 171.2 62.7 169.65 64.3 L172.45 44.1 172.4 41.8 Q172.15 39.4 170.05 39.6 166.65 39.9 165.85 46.0 L164.45 56.2 Q163.85 59.75 162.5 61.2 160.95 62.65 157.65 62.95 L154.7 63.2 Q152.75 63.4 151.6 63.95 150.45 64.5 148.9 66.15 L149.8 59.9 Q144.4 65.15 137.8 65.75 134.8 66.0 132.5 64.15 130.25 62.25 129.95 59.1 L130.1 57.1 125.4 63.4 Q121.95 67.15 117.6 67.5 113.3 67.9 110.25 64.15 107.9 61.3 107.45 56.5 107.05 51.9 108.45 47.25 109.85 42.45 112.85 38.75 115.35 35.2 118.7 33.25 121.95 31.15 125.25 30.9 130.45 30.4 134.3 34.3 137.4 31.65 138.8 30.75 140.2 29.85 142.15 29.7 L144.3 29.95 Q146.15 30.7 146.35 32.8 L146.35 34.6 144.2 49.7 Q143.8 52.15 143.9 53.05 143.95 53.95 144.8 54.6 145.75 55.15 146.8 55.05 L148.55 54.6 Q150.0 53.7 150.6 53.65 L150.65 53.65 152.5 39.95 Q152.85 38.4 152.7 37.05 152.6 35.75 152.1 35.05 151.45 34.5 150.2 34.0 155.8 28.2 161.65 27.7 166.55 27.25 167.5 32.45 170.95 29.15 173.6 27.85 176.0 26.45 178.95 26.15 185.4 25.6 187.4 30.75 193.45 24.9 199.75 24.35 203.2 24.05 205.75 25.8 208.3 27.55 208.6 30.7 L208.5 33.2 206.95 44.85 Q206.65 46.2 206.75 47.25 206.85 48.3 207.6 48.95 208.45 49.65 209.65 49.55 L211.25 49.1 212.55 48.4 Q212.0 46.7 211.85 44.8 211.0 35.1 219.2 27.8 225.65 22.1 233.7 21.4 239.4 20.9 242.85 23.6 245.85 26.05 246.2 29.6 246.75 36.2 238.15 40.9 234.1 43.15 228.05 44.0 L228.1 44.6 Q228.25 46.1 229.65 47.05 230.95 48.15 232.9 47.95 235.25 47.75 237.75 46.65 240.05 45.35 244.3 42.3 245.45 41.55 246.45 41.5 M234.0 29.75 Q233.35 29.3 232.6 29.35 231.15 29.45 229.8 31.2 228.6 32.95 228.1 35.9 234.85 34.25 234.6 31.25 234.5 30.2 234.0 29.75 M123.95 46.65 Q124.25 50.1 127.25 49.85 129.15 49.7 130.3 47.3 131.6 45.1 131.4 43.0 131.2 40.3 128.2 40.55 126.3 40.7 125.1 42.65 123.75 44.55 123.95 46.65 M112.7 12.95 Q113.3 19.8 107.0 25.1 101.25 29.9 93.8 30.55 90.2 30.85 87.0 30.45 L75.15 28.1 67.8 26.4 Q60.15 36.05 60.9 44.7 61.25 48.85 64.1 51.6 67.0 54.3 70.95 53.95 81.45 53.05 87.65 33.9 L105.8 32.35 102.2 60.15 Q99.85 78.1 86.95 90.7 80.55 96.9 72.75 100.85 63.15 105.8 52.85 106.7 38.4 107.95 28.85 101.4 20.95 95.85 20.2 87.1 19.45 78.35 25.95 72.45 30.85 67.9 36.8 67.4 40.05 67.1 42.2 67.9 44.35 68.8 44.5 70.4 44.55 71.35 42.8 74.3 42.2 75.35 42.35 76.8 42.7 80.8 47.35 83.45 51.8 85.9 57.9 85.35 67.7 84.5 75.7 75.95 80.5 70.8 84.1 62.05 79.8 66.4 76.85 68.4 70.7 72.75 63.5 73.35 51.65 74.4 43.8 66.35 37.55 60.05 36.75 51.1 36.15 44.0 39.5 36.05 42.9 28.2 49.7 20.9 L39.0 20.15 Q33.55 20.6 31.15 22.5 28.8 24.25 29.0 26.6 29.15 28.0 30.35 28.9 31.5 29.8 33.1 29.65 L36.1 29.3 Q37.45 29.2 37.6 31.0 37.8 33.05 35.1 35.6 29.9 40.65 21.2 41.4 11.9 42.2 6.1 37.1 0.7 32.45 0.1 25.2 -0.45 19.45 2.35 13.95 5.4 8.2 10.85 4.95 16.85 1.4 24.15 0.8 31.85 0.1 38.85 1.85 45.8 3.65 60.8 10.05 65.4 6.8 70.1 4.8 79.35 0.95 87.7 0.2 97.9 -0.7 105.1 2.75 112.15 6.25 112.7 12.95 M88.25 12.9 Q83.65 13.3 77.55 16.95 L85.9 19.05 90.75 19.3 Q92.65 19.1 93.8 18.1 94.85 17.1 94.75 15.7 94.6 14.25 92.75 13.45 90.9 12.65 88.25 12.9" fill="#993366" fill-rule="evenodd" stroke="none"/>
    <path d="M246.45 41.5 Q247.35 41.4 248.0 41.8 248.65 42.35 248.75 43.25 249.0 46.1 244.7 50.25 237.15 57.35 228.65 58.1 221.2 58.75 216.65 54.65 215.25 53.4 214.25 51.9 213.35 53.55 211.05 55.6 206.5 59.75 200.8 60.25 197.2 60.55 194.65 58.7 192.1 56.8 191.8 53.65 191.7 52.6 191.95 51.7 L193.45 42.1 193.45 40.4 Q193.2 37.55 190.85 37.8 188.9 37.95 188.0 39.4 187.05 40.85 186.6 44.2 L185.2 54.4 Q184.9 57.45 183.2 59.1 181.75 60.85 179.05 61.1 L175.3 61.4 Q173.5 61.55 172.35 62.1 171.2 62.7 169.65 64.3 L172.45 44.1 172.4 41.8 Q172.15 39.4 170.05 39.6 166.65 39.9 165.85 46.0 L164.45 56.2 Q163.85 59.75 162.5 61.2 160.95 62.65 157.65 62.95 L154.7 63.2 Q152.75 63.4 151.6 63.95 150.45 64.5 148.9 66.15 L149.8 59.9 Q144.4 65.15 137.8 65.75 134.8 66.0 132.5 64.15 130.25 62.25 129.95 59.1 L130.1 57.1 125.4 63.4 Q121.95 67.15 117.6 67.5 113.3 67.9 110.25 64.15 107.9 61.3 107.45 56.5 107.05 51.9 108.45 47.25 109.85 42.45 112.85 38.75 115.35 35.2 118.7 33.25 121.95 31.15 125.25 30.9 130.45 30.4 134.3 34.3 137.4 31.65 138.8 30.75 140.2 29.85 142.15 29.7 L144.3 29.95 Q146.15 30.7 146.35 32.8 L146.35 34.6 144.2 49.7 Q143.8 52.15 143.9 53.05 143.95 53.95 144.8 54.6 145.75 55.15 146.8 55.05 L148.55 54.6 Q150.0 53.7 150.6 53.65 L150.65 53.65 152.5 39.95 Q152.85 38.4 152.7 37.05 152.6 35.75 152.1 35.05 151.45 34.5 150.2 34.0 155.8 28.2 161.65 27.7 166.55 27.25 167.5 32.45 170.95 29.15 173.6 27.85 176.0 26.45 178.95 26.15 185.4 25.6 187.4 30.75 193.45 24.9 199.75 24.35 203.2 24.05 205.75 25.8 208.3 27.55 208.6 30.7 L208.5 33.2 206.95 44.85 Q206.65 46.2 206.75 47.25 206.85 48.3 207.6 48.95 208.45 49.65 209.65 49.55 L211.25 49.1 212.55 48.4 Q212.0 46.7 211.85 44.8 211.0 35.1 219.2 27.8 225.65 22.1 233.7 21.4 239.4 20.9 242.85 23.6 245.85 26.05 246.2 29.6 246.75 36.2 238.15 40.9 234.1 43.15 228.05 44.0 L228.1 44.6 Q228.25 46.1 229.65 47.05 230.95 48.15 232.9 47.95 235.25 47.75 237.75 46.65 240.05 45.35 244.3 42.3 245.45 41.55 246.45 41.5 M234.0 29.75 Q233.35 29.3 232.6 29.35 231.15 29.45 229.8 31.2 228.6 32.95 228.1 35.9 234.85 34.25 234.6 31.25 234.5 30.2 234.0 29.75 M123.95 46.65 Q124.25 50.1 127.25 49.85 129.15 49.7 130.3 47.3 131.6 45.1 131.4 43.0 131.2 40.3 128.2 40.55 126.3 40.7 125.1 42.65 123.75 44.55 123.95 46.65 M112.7 12.95 Q113.3 19.8 107.0 25.1 101.25 29.9 93.8 30.55 90.2 30.85 87.0 30.45 L75.15 28.1 67.8 26.4 Q60.15 36.05 60.9 44.7 61.25 48.85 64.1 51.6 67.0 54.3 70.95 53.95 81.45 53.05 87.65 33.9 L105.8 32.35 102.2 60.15 Q99.85 78.1 86.95 90.7 80.55 96.9 72.75 100.85 63.15 105.8 52.85 106.7 38.4 107.95 28.85 101.4 20.95 95.85 20.2 87.1 19.45 78.35 25.95 72.45 30.85 67.9 36.8 67.4 40.05 67.1 42.2 67.9 44.35 68.8 44.5 70.4 44.55 71.35 42.8 74.3 42.2 75.35 42.35 76.8 42.7 80.8 47.35 83.45 51.8 85.9 57.9 85.35 67.7 84.5 75.7 75.95 80.5 70.8 84.1 62.05 79.8 66.4 76.85 68.4 70.7 72.75 63.5 73.35 51.65 74.4 43.8 66.35 37.55 60.05 36.75 51.1 36.15 44.0 39.5 36.05 42.9 28.2 49.7 20.9 L39.0 20.15 Q33.55 20.6 31.15 22.5 28.8 24.25 29.0 26.6 29.15 28.0 30.35 28.9 31.5 29.8 33.1 29.65 L36.1 29.3 Q37.45 29.2 37.6 31.0 37.8 33.05 35.1 35.6 29.9 40.65 21.2 41.4 11.9 42.2 6.1 37.1 0.7 32.45 0.1 25.2 -0.45 19.45 2.35 13.95 5.4 8.2 10.85 4.95 16.85 1.4 24.15 0.8 31.85 0.1 38.85 1.85 45.8 3.65 60.8 10.05 65.4 6.8 70.1 4.8 79.35 0.95 87.7 0.2 97.9 -0.7 105.1 2.75 112.15 6.25 112.7 12.95 M88.25 12.9 Q83.65 13.3 77.55 16.95 L85.9 19.05 90.75 19.3 Q92.65 19.1 93.8 18.1 94.85 17.1 94.75 15.7 94.6 14.25 92.75 13.45 90.9 12.65 88.25 12.9" fill="none" stroke="#000000" stroke-linecap="round" stroke-linejoin="round" stroke-width="12.0"/>
    <path d="M246.45 41.5 Q247.35 41.4 248.0 41.8 248.65 42.35 248.75 43.25 249.0 46.1 244.7 50.25 237.15 57.35 228.65 58.1 221.2 58.75 216.65 54.65 215.25 53.4 214.25 51.9 213.35 53.55 211.05 55.6 206.5 59.75 200.8 60.25 197.2 60.55 194.65 58.7 192.1 56.8 191.8 53.65 191.7 52.6 191.95 51.7 L193.45 42.1 193.45 40.4 Q193.2 37.55 190.85 37.8 188.9 37.95 188.0 39.4 187.05 40.85 186.6 44.2 L185.2 54.4 Q184.9 57.45 183.2 59.1 181.75 60.85 179.05 61.1 L175.3 61.4 Q173.5 61.55 172.35 62.1 171.2 62.7 169.65 64.3 L172.45 44.1 172.4 41.8 Q172.15 39.4 170.05 39.6 166.65 39.9 165.85 46.0 L164.45 56.2 Q163.85 59.75 162.5 61.2 160.95 62.65 157.65 62.95 L154.7 63.2 Q152.75 63.4 151.6 63.95 150.45 64.5 148.9 66.15 L149.8 59.9 Q144.4 65.15 137.8 65.75 134.8 66.0 132.5 64.15 130.25 62.25 129.95 59.1 L130.1 57.1 125.4 63.4 Q121.95 67.15 117.6 67.5 113.3 67.9 110.25 64.15 107.9 61.3 107.45 56.5 107.05 51.9 108.45 47.25 109.85 42.45 112.85 38.75 115.35 35.2 118.7 33.25 121.95 31.15 125.25 30.9 130.45 30.4 134.3 34.3 137.4 31.65 138.8 30.75 140.2 29.85 142.15 29.7 L144.3 29.95 Q146.15 30.7 146.35 32.8 L146.35 34.6 144.2 49.7 Q143.8 52.15 143.9 53.05 143.95 53.95 144.8 54.6 145.75 55.15 146.8 55.05 L148.55 54.6 Q150.0 53.7 150.6 53.65 L150.65 53.65 152.5 39.95 Q152.85 38.4 152.7 37.05 152.6 35.75 152.1 35.05 151.45 34.5 150.2 34.0 155.8 28.2 161.65 27.7 166.55 27.25 167.5 32.45 170.95 29.15 173.6 27.85 176.0 26.45 178.95 26.15 185.4 25.6 187.4 30.75 193.45 24.9 199.75 24.35 203.2 24.05 205.75 25.8 208.3 27.55 208.6 30.7 L208.5 33.2 206.95 44.85 Q206.65 46.2 206.75 47.25 206.85 48.3 207.6 48.95 208.45 49.65 209.65 49.55 L211.25 49.1 212.55 48.4 Q212.0 46.7 211.85 44.8 211.0 35.1 219.2 27.8 225.65 22.1 233.7 21.4 239.4 20.9 242.85 23.6 245.85 26.05 246.2 29.6 246.75 36.2 238.15 40.9 234.1 43.15 228.05 44.0 L228.1 44.6 Q228.25 46.1 229.65 47.05 230.95 48.15 232.9 47.95 235.25 47.75 237.75 46.65 240.05 45.35 244.3 42.3 245.45 41.55 246.45 41.5 M234.0 29.75 Q233.35 29.3 232.6 29.35 231.15 29.45 229.8 31.2 228.6 32.95 228.1 35.9 234.85 34.25 234.6 31.25 234.5 30.2 234.0 29.75 M123.95 46.65 Q124.25 50.1 127.25 49.85 129.15 49.7 130.3 47.3 131.6 45.1 131.4 43.0 131.2 40.3 128.2 40.55 126.3 40.7 125.1 42.65 123.75 44.55 123.95 46.65 M112.7 12.95 Q113.3 19.8 107.0 25.1 101.25 29.9 93.8 30.55 90.2 30.85 87.0 30.45 L75.15 28.1 67.8 26.4 Q60.15 36.05 60.9 44.7 61.25 48.85 64.1 51.6 67.0 54.3 70.95 53.95 81.45 53.05 87.65 33.9 L105.8 32.35 102.2 60.15 Q99.85 78.1 86.95 90.7 80.55 96.9 72.75 100.85 63.15 105.8 52.85 106.7 38.4 107.95 28.85 101.4 20.95 95.85 20.2 87.1 19.45 78.35 25.95 72.45 30.85 67.9 36.8 67.4 40.05 67.1 42.2 67.9 44.35 68.8 44.5 70.4 44.55 71.35 42.8 74.3 42.2 75.35 42.35 76.8 42.7 80.8 47.35 83.45 51.8 85.9 57.9 85.35 67.7 84.5 75.7 75.95 80.5 70.8 84.1 62.05 79.8 66.4 76.85 68.4 70.7 72.75 63.5 73.35 51.65 74.4 43.8 66.35 37.55 60.05 36.75 51.1 36.15 44.0 39.5 36.05 42.9 28.2 49.7 20.9 L39.0 20.15 Q33.55 20.6 31.15 22.5 28.8 24.25 29.0 26.6 29.15 28.0 30.35 28.9 31.5 29.8 33.1 29.65 L36.1 29.3 Q37.45 29.2 37.6 31.0 37.8 33.05 35.1 35.6 29.9 40.65 21.2 41.4 11.9 42.2 6.1 37.1 0.7 32.45 0.1 25.2 -0.45 19.45 2.35 13.95 5.4 8.2 10.85 4.95 16.85 1.4 24.15 0.8 31.85 0.1 38.85 1.85 45.8 3.65 60.8 10.05 65.4 6.8 70.1 4.8 79.35 0.95 87.7 0.2 97.9 -0.7 105.1 2.75 112.15 6.25 112.7 12.95 M88.25 12.9 Q83.65 13.3 77.55 16.95 L85.9 19.05 90.75 19.3 Q92.65 19.1 93.8 18.1 94.85 17.1 94.75 15.7 94.6 14.25 92.75 13.45 90.9 12.65 88.25 12.9" fill="#993366" fill-rule="evenodd" stroke="none"/>
    <path d="M246.45 41.5 Q247.35 41.4 248.0 41.8 248.65 42.35 248.75 43.25 249.0 46.1 244.7 50.25 237.15 57.35 228.65 58.1 221.2 58.75 216.65 54.65 215.25 53.4 214.25 51.9 213.35 53.55 211.05 55.6 206.5 59.75 200.8 60.25 197.2 60.55 194.65 58.7 192.1 56.8 191.8 53.65 191.7 52.6 191.95 51.7 L193.45 42.1 193.45 40.4 Q193.2 37.55 190.85 37.8 188.9 37.95 188.0 39.4 187.05 40.85 186.6 44.2 L185.2 54.4 Q184.9 57.45 183.2 59.1 181.75 60.85 179.05 61.1 L175.3 61.4 Q173.5 61.55 172.35 62.1 171.2 62.7 169.65 64.3 L172.45 44.1 172.4 41.8 Q172.15 39.4 170.05 39.6 166.65 39.9 165.85 46.0 L164.45 56.2 Q163.85 59.75 162.5 61.2 160.95 62.65 157.65 62.95 L154.7 63.2 Q152.75 63.4 151.6 63.95 150.45 64.5 148.9 66.15 L149.8 59.9 Q144.4 65.15 137.8 65.75 134.8 66.0 132.5 64.15 130.25 62.25 129.95 59.1 L130.1 57.1 125.4 63.4 Q121.95 67.15 117.6 67.5 113.3 67.9 110.25 64.15 107.9 61.3 107.45 56.5 107.05 51.9 108.45 47.25 109.85 42.45 112.85 38.75 115.35 35.2 118.7 33.25 121.95 31.15 125.25 30.9 130.45 30.4 134.3 34.3 137.4 31.65 138.8 30.75 140.2 29.85 142.15 29.7 L144.3 29.95 Q146.15 30.7 146.35 32.8 L146.35 34.6 144.2 49.7 Q143.8 52.15 143.9 53.05 143.95 53.95 144.8 54.6 145.75 55.15 146.8 55.05 L148.55 54.6 Q150.0 53.7 150.6 53.65 L150.65 53.65 152.5 39.95 Q152.85 38.4 152.7 37.05 152.6 35.75 152.1 35.05 151.45 34.5 150.2 34.0 155.8 28.2 161.65 27.7 166.55 27.25 167.5 32.45 170.95 29.15 173.6 27.85 176.0 26.45 178.95 26.15 185.4 25.6 187.4 30.75 193.45 24.9 199.75 24.35 203.2 24.05 205.75 25.8 208.3 27.55 208.6 30.7 L208.5 33.2 206.95 44.85 Q206.65 46.2 206.75 47.25 206.85 48.3 207.6 48.95 208.45 49.65 209.65 49.55 L211.25 49.1 212.55 48.4 Q212.0 46.7 211.85 44.8 211.0 35.1 219.2 27.8 225.65 22.1 233.7 21.4 239.4 20.9 242.85 23.6 245.85 26.05 246.2 29.6 246.75 36.2 238.15 40.9 234.1 43.15 228.05 44.0 L228.1 44.6 Q228.25 46.1 229.65 47.05 230.95 48.15 232.9 47.95 235.25 47.75 237.75 46.65 240.05 45.35 244.3 42.3 245.45 41.55 246.45 41.5 M234.0 29.75 Q233.35 29.3 232.6 29.35 231.15 29.45 229.8 31.2 228.6 32.95 228.1 35.9 234.85 34.25 234.6 31.25 234.5 30.2 234.0 29.75 M123.95 46.65 Q124.25 50.1 127.25 49.85 129.15 49.7 130.3 47.3 131.6 45.1 131.4 43.0 131.2 40.3 128.2 40.55 126.3 40.7 125.1 42.65 123.75 44.55 123.95 46.65 M112.7 12.95 Q113.3 19.8 107.0 25.1 101.25 29.9 93.8 30.55 90.2 30.85 87.0 30.45 L75.15 28.1 67.8 26.4 Q60.15 36.05 60.9 44.7 61.25 48.85 64.1 51.6 67.0 54.3 70.95 53.95 81.45 53.05 87.65 33.9 L105.8 32.35 102.2 60.15 Q99.85 78.1 86.95 90.7 80.55 96.9 72.75 100.85 63.15 105.8 52.85 106.7 38.4 107.95 28.85 101.4 20.95 95.85 20.2 87.1 19.45 78.35 25.95 72.45 30.85 67.9 36.8 67.4 40.05 67.1 42.2 67.9 44.35 68.8 44.5 70.4 44.55 71.35 42.8 74.3 42.2 75.35 42.35 76.8 42.7 80.8 47.35 83.45 51.8 85.9 57.9 85.35 67.7 84.5 75.7 75.95 80.5 70.8 84.1 62.05 79.8 66.4 76.85 68.4 70.7 72.75 63.5 73.35 51.65 74.4 43.8 66.35 37.55 60.05 36.75 51.1 36.15 44.0 39.5 36.05 42.9 28.2 49.7 20.9 L39.0 20.15 Q33.55 20.6 31.15 22.5 28.8 24.25 29.0 26.6 29.15 28.0 30.35 28.9 31.5 29.8 33.1 29.65 L36.1 29.3 Q37.45 29.2 37.6 31.0 37.8 33.05 35.1 35.6 29.9 40.65 21.2 41.4 11.9 42.2 6.1 37.1 0.7 32.45 0.1 25.2 -0.45 19.45 2.35 13.95 5.4 8.2 10.85 4.95 16.85 1.4 24.15 0.8 31.85 0.1 38.85 1.85 45.8 3.65 60.8 10.05 65.4 6.8 70.1 4.8 79.35 0.95 87.7 0.2 97.9 -0.7 105.1 2.75 112.15 6.25 112.7 12.95 M88.25 12.9 Q83.65 13.3 77.55 16.95 L85.9 19.05 90.75 19.3 Q92.65 19.1 93.8 18.1 94.85 17.1 94.75 15.7 94.6 14.25 92.75 13.45 90.9 12.65 88.25 12.9" fill="none" stroke="#ffffff" stroke-linecap="round" stroke-linejoin="round" stroke-width="8.0"/>
    <path d="M248.75 43.25 Q249.0 46.1 244.7 50.25 237.15 57.35 228.65 58.1 221.2 58.75 216.65 54.65 215.25 53.4 214.25 51.9 213.35 53.55 211.05 55.6 206.5 59.75 200.8 60.25 197.2 60.55 194.65 58.7 192.1 56.8 191.8 53.65 191.7 52.6 191.95 51.7 L193.45 42.1 193.45 40.4 Q193.2 37.55 190.85 37.8 188.9 37.95 188.0 39.4 187.05 40.85 186.6 44.2 L185.2 54.4 Q184.9 57.45 183.2 59.1 181.75 60.85 179.05 61.1 L175.3 61.4 Q173.5 61.55 172.35 62.1 171.2 62.7 169.65 64.3 L172.45 44.1 172.4 41.8 Q172.15 39.4 170.05 39.6 166.65 39.9 165.85 46.0 L164.45 56.2 Q163.85 59.75 162.5 61.2 160.95 62.65 157.65 62.95 L154.7 63.2 Q152.75 63.4 151.6 63.95 150.45 64.5 148.9 66.15 L149.8 59.9 Q144.4 65.15 137.8 65.75 134.8 66.0 132.5 64.15 130.25 62.25 129.95 59.1 L130.1 57.1 125.4 63.4 Q121.95 67.15 117.6 67.5 113.3 67.9 110.25 64.15 107.9 61.3 107.45 56.5 107.05 51.9 108.45 47.25 109.85 42.45 112.85 38.75 115.35 35.2 118.7 33.25 121.95 31.15 125.25 30.9 130.45 30.4 134.3 34.3 137.4 31.65 138.8 30.75 140.2 29.85 142.15 29.7 L144.3 29.95 Q146.15 30.7 146.35 32.8 L146.35 34.6 144.2 49.7 Q143.8 52.15 143.9 53.05 143.95 53.95 144.8 54.6 145.75 55.15 146.8 55.05 L148.55 54.6 Q150.0 53.7 150.6 53.65 L150.65 53.65 152.5 39.95 Q152.85 38.4 152.7 37.05 152.6 35.75 152.1 35.05 151.45 34.5 150.2 34.0 155.8 28.2 161.65 27.7 166.55 27.25 167.5 32.45 170.95 29.15 173.6 27.85 176.0 26.45 178.95 26.15 185.4 25.6 187.4 30.75 193.45 24.9 199.75 24.35 203.2 24.05 205.75 25.8 208.3 27.55 208.6 30.7 L208.5 33.2 206.95 44.85 Q206.65 46.2 206.75 47.25 206.85 48.3 207.6 48.95 208.45 49.65 209.65 49.55 L211.25 49.1 212.55 48.4 Q212.0 46.7 211.85 44.8 211.0 35.1 219.2 27.8 225.65 22.1 233.7 21.4 239.4 20.9 242.85 23.6 245.85 26.05 246.2 29.6 246.75 36.2 238.15 40.9 234.1 43.15 228.05 44.0 L228.1 44.6 Q228.25 46.1 229.65 47.05 230.95 48.15 232.9 47.95 235.25 47.75 237.75 46.65 240.05 45.35 244.3 42.3 245.45 41.55 246.45 41.5 247.35 41.4 248.0 41.8 248.65 42.35 248.75 43.25 M234.0 29.75 Q233.35 29.3 232.6 29.35 231.15 29.45 229.8 31.2 228.6 32.95 228.1 35.9 234.85 34.25 234.6 31.25 234.5 30.2 234.0 29.75 M123.95 46.65 Q124.25 50.1 127.25 49.85 129.15 49.7 130.3 47.3 131.6 45.1 131.4 43.0 131.2 40.3 128.2 40.55 126.3 40.7 125.1 42.65 123.75 44.55 123.95 46.65 M112.7 12.95 Q113.3 19.8 107.0 25.1 101.25 29.9 93.8 30.55 90.2 30.85 87.0 30.45 L75.15 28.1 67.8 26.4 Q60.15 36.05 60.9 44.7 61.25 48.85 64.1 51.6 67.0 54.3 70.95 53.95 81.45 53.05 87.65 33.9 L105.8 32.35 102.2 60.15 Q99.85 78.1 86.95 90.7 80.55 96.9 72.75 100.85 63.15 105.8 52.85 106.7 38.4 107.95 28.85 101.4 20.95 95.85 20.2 87.1 19.45 78.35 25.95 72.45 30.85 67.9 36.8 67.4 40.05 67.1 42.2 67.9 44.35 68.8 44.5 70.4 44.55 71.35 42.8 74.3 42.2 75.35 42.35 76.8 42.7 80.8 47.35 83.45 51.8 85.9 57.9 85.35 67.7 84.5 75.7 75.95 80.5 70.8 84.1 62.05 79.8 66.4 76.85 68.4 70.7 72.75 63.5 73.35 51.65 74.4 43.8 66.35 37.55 60.05 36.75 51.1 36.15 44.0 39.5 36.05 42.9 28.2 49.7 20.9 L39.0 20.15 Q33.55 20.6 31.15 22.5 28.8 24.25 29.0 26.6 29.15 28.0 30.35 28.9 31.5 29.8 33.1 29.65 L36.1 29.3 Q37.45 29.2 37.6 31.0 37.8 33.05 35.1 35.6 29.9 40.65 21.2 41.4 11.9 42.2 6.1 37.1 0.7 32.45 0.1 25.2 -0.45 19.45 2.35 13.95 5.4 8.2 10.85 4.95 16.85 1.4 24.15 0.8 31.85 0.1 38.85 1.85 45.8 3.65 60.8 10.05 65.4 6.8 70.1 4.8 79.35 0.95 87.7 0.2 97.9 -0.7 105.1 2.75 112.15 6.25 112.7 12.95 M88.25 12.9 Q83.65 13.3 77.55 16.95 L85.9 19.05 90.75 19.3 Q92.65 19.1 93.8 18.1 94.85 17.1 94.75 15.7 94.6 14.25 92.75 13.45 90.9 12.65 88.25 12.9" fill="#993366" fill-rule="evenodd" stroke="none"/>
  </g>
</svg>
