<?xml version="1.0" encoding="UTF-8" standalone="no"?>
<svg xmlns:xlink="http://www.w3.org/1999/xlink" height="98.85px" width="202.0px" xmlns="http://www.w3.org/2000/svg">
  <g transform="matrix(1.0, 0.0, 0.0, 1.0, 6.0, 6.0)">
    <path d="M170.8 32.75 L170.7 36.05 Q174.2 32.15 175.55 30.95 178.85 28.05 182.65 27.75 185.55 27.45 187.55 28.95 189.7 30.6 189.95 33.55 190.35 38.15 187.2 41.8 184.85 44.45 181.75 44.75 179.65 44.9 177.95 43.8 176.25 42.65 176.1 40.9 L175.95 39.55 Q172.65 41.9 171.0 45.0 169.35 48.1 168.65 53.45 L168.15 57.05 Q167.65 60.55 166.15 62.05 165.45 62.9 164.2 63.45 L161.85 64.1 158.25 64.4 Q155.45 64.55 152.7 67.2 L154.25 55.1 Q153.4 57.25 150.55 60.0 143.05 67.15 134.45 67.9 127.0 68.55 122.4 64.4 118.15 60.45 117.6 54.55 116.8 44.9 125.05 37.55 131.45 31.85 139.55 31.15 145.15 30.65 148.65 33.4 151.65 35.8 151.95 39.4 152.55 45.95 144.0 50.65 140.0 52.9 133.8 53.8 L133.9 54.35 Q134.0 55.9 135.4 56.85 136.75 57.85 138.65 57.7 141.15 57.45 143.45 56.35 L150.15 52.05 Q151.25 51.3 152.35 51.2 153.25 51.1 153.85 51.6 154.4 52.05 154.55 52.7 L155.95 40.85 156.1 38.0 Q155.9 36.15 153.85 35.2 156.0 32.8 159.35 31.0 162.65 29.1 165.3 28.9 167.7 28.7 169.15 29.7 170.6 30.75 170.8 32.75 M139.85 39.5 Q139.25 38.95 138.5 39.0 136.9 39.15 135.65 40.9 134.35 42.7 133.9 45.65 140.75 44.05 140.45 41.0 140.4 40.0 139.85 39.5 M83.25 44.75 Q83.05 42.6 80.65 41.35 86.5 35.8 92.5 35.25 94.8 35.05 96.35 36.35 97.8 37.6 98.0 40.0 L97.95 41.25 96.35 54.75 Q96.2 55.85 96.3 56.85 96.6 59.95 99.95 59.65 106.05 59.1 107.85 46.3 L105.85 46.8 Q103.45 47.0 101.85 45.6 100.15 44.2 99.95 41.8 99.65 38.8 101.7 36.35 103.85 33.9 107.25 33.6 110.75 33.3 113.1 35.5 115.45 37.7 115.8 41.6 116.2 46.45 114.45 52.3 112.65 58.2 109.55 62.1 106.6 65.85 102.7 68.05 98.7 70.35 94.4 70.7 89.0 71.2 85.2 68.4 81.9 66.05 81.5 61.35 81.4 60.05 81.55 58.95 L83.05 47.2 Q83.35 45.5 83.25 44.75 M41.7 16.8 Q37.6 17.15 35.65 20.15 34.05 22.55 34.2 24.8 34.4 26.95 36.05 28.35 37.7 29.75 39.75 29.6 L40.7 29.35 42.5 29.0 Q43.35 28.9 44.0 29.5 44.65 30.1 44.75 30.95 44.95 33.2 42.05 35.4 38.95 37.7 35.1 38.05 28.65 38.6 23.7 33.5 19.55 29.45 19.05 23.6 18.2 13.8 27.3 6.5 34.4 0.95 43.65 0.1 51.85 -0.6 59.05 2.85 67.35 6.85 71.6 14.7 75.7 22.35 76.55 31.85 77.75 45.35 72.55 57.5 67.5 69.75 57.2 77.6 46.7 85.55 33.65 86.7 24.15 87.5 15.9 83.6 7.95 79.85 3.8 72.2 0.8 66.55 0.15 59.1 -0.85 47.85 5.3 39.4 8.0 35.8 11.1 33.65 14.2 31.45 16.95 31.2 18.45 31.1 19.45 31.65 20.45 32.25 20.55 33.3 20.65 34.15 19.95 35.6 18.2 39.05 18.45 42.15 18.95 47.7 23.4 50.95 27.8 54.15 33.4 53.65 37.8 53.3 41.95 50.8 46.05 48.25 48.9 44.25 54.0 37.15 53.3 29.2 52.8 23.3 49.55 19.8 46.3 16.4 41.7 16.8" fill="#ff6699" fill-rule="evenodd" stroke="none"/>
    <path d="M170.8 32.75 L170.7 36.05 Q174.2 32.15 175.55 30.95 178.85 28.05 182.65 27.75 185.55 27.45 187.55 28.95 189.7 30.6 189.95 33.55 190.35 38.15 187.2 41.8 184.85 44.45 181.75 44.75 179.65 44.9 177.95 43.8 176.25 42.65 176.1 40.9 L175.95 39.55 Q172.65 41.9 171.0 45.0 169.35 48.1 168.65 53.45 L168.15 57.05 Q167.65 60.55 166.15 62.05 165.45 62.9 164.2 63.45 L161.85 64.1 158.25 64.4 Q155.45 64.55 152.7 67.2 L154.25 55.1 Q153.4 57.25 150.55 60.0 143.05 67.15 134.45 67.9 127.0 68.55 122.4 64.4 118.15 60.45 117.6 54.55 116.8 44.9 125.05 37.55 131.45 31.85 139.55 31.15 145.15 30.65 148.65 33.4 151.65 35.8 151.95 39.4 152.55 45.95 144.0 50.65 140.0 52.9 133.8 53.8 L133.9 54.35 Q134.0 55.9 135.4 56.85 136.75 57.85 138.65 57.7 141.15 57.45 143.45 56.35 L150.15 52.05 Q151.25 51.3 152.35 51.2 153.25 51.1 153.85 51.6 154.4 52.05 154.55 52.7 L155.95 40.85 156.1 38.0 Q155.9 36.15 153.85 35.2 156.0 32.8 159.35 31.0 162.65 29.1 165.3 28.9 167.7 28.7 169.15 29.7 170.6 30.75 170.8 32.75 M139.85 39.5 Q139.25 38.95 138.5 39.0 136.9 39.15 135.65 40.9 134.35 42.7 133.9 45.65 140.75 44.05 140.45 41.0 140.4 40.0 139.85 39.5 M83.25 44.75 Q83.05 42.6 80.65 41.35 86.5 35.8 92.5 35.25 94.8 35.05 96.35 36.35 97.8 37.6 98.0 40.0 L97.95 41.25 96.35 54.75 Q96.2 55.85 96.3 56.85 96.6 59.95 99.95 59.65 106.05 59.1 107.85 46.3 L105.85 46.8 Q103.45 47.0 101.85 45.6 100.15 44.2 99.95 41.8 99.65 38.8 101.7 36.35 103.85 33.9 107.25 33.6 110.75 33.3 113.1 35.5 115.45 37.7 115.8 41.6 116.2 46.45 114.45 52.3 112.65 58.2 109.55 62.1 106.6 65.85 102.7 68.05 98.7 70.35 94.4 70.7 89.0 71.2 85.2 68.4 81.9 66.05 81.5 61.35 81.4 60.05 81.55 58.95 L83.05 47.2 Q83.35 45.5 83.25 44.75 M41.7 16.8 Q37.6 17.15 35.65 20.15 34.05 22.55 34.2 24.8 34.4 26.95 36.05 28.35 37.7 29.75 39.75 29.6 L40.7 29.35 42.5 29.0 Q43.35 28.9 44.0 29.5 44.65 30.1 44.75 30.95 44.95 33.2 42.05 35.4 38.95 37.7 35.1 38.05 28.65 38.6 23.7 33.5 19.55 29.45 19.05 23.6 18.2 13.8 27.3 6.5 34.4 0.95 43.65 0.1 51.85 -0.6 59.05 2.85 67.35 6.85 71.6 14.7 75.7 22.35 76.55 31.85 77.75 45.35 72.55 57.5 67.5 69.75 57.2 77.6 46.7 85.55 33.65 86.7 24.15 87.5 15.9 83.6 7.95 79.85 3.8 72.2 0.8 66.55 0.15 59.1 -0.85 47.85 5.3 39.4 8.0 35.8 11.1 33.65 14.2 31.45 16.95 31.2 18.45 31.1 19.45 31.65 20.45 32.25 20.55 33.3 20.65 34.15 19.95 35.6 18.2 39.05 18.45 42.15 18.95 47.7 23.4 50.95 27.8 54.15 33.4 53.65 37.8 53.3 41.95 50.8 46.05 48.25 48.9 44.25 54.0 37.15 53.3 29.2 52.8 23.3 49.55 19.8 46.3 16.4 41.7 16.8" fill="none" stroke="#000000" stroke-linecap="round" stroke-linejoin="round" stroke-width="12.0"/>
    <path d="M170.8 32.75 L170.7 36.05 Q174.2 32.15 175.55 30.95 178.85 28.05 182.65 27.75 185.55 27.45 187.55 28.95 189.7 30.6 189.95 33.55 190.35 38.15 187.2 41.8 184.85 44.45 181.75 44.75 179.65 44.9 177.95 43.8 176.25 42.65 176.1 40.9 L175.95 39.55 Q172.65 41.9 171.0 45.0 169.35 48.1 168.65 53.45 L168.15 57.05 Q167.65 60.55 166.15 62.05 165.45 62.9 164.2 63.45 L161.85 64.1 158.25 64.4 Q155.45 64.55 152.7 67.2 L154.25 55.1 Q153.4 57.25 150.55 60.0 143.05 67.15 134.45 67.9 127.0 68.55 122.4 64.4 118.15 60.45 117.6 54.55 116.8 44.9 125.05 37.55 131.45 31.85 139.55 31.15 145.15 30.65 148.65 33.4 151.65 35.8 151.95 39.4 152.55 45.95 144.0 50.65 140.0 52.9 133.8 53.8 L133.9 54.35 Q134.0 55.9 135.4 56.85 136.75 57.85 138.65 57.7 141.15 57.45 143.45 56.35 L150.15 52.05 Q151.25 51.3 152.35 51.2 153.25 51.1 153.85 51.6 154.4 52.05 154.55 52.7 L155.95 40.85 156.1 38.0 Q155.9 36.15 153.85 35.2 156.0 32.8 159.35 31.0 162.65 29.1 165.3 28.9 167.7 28.7 169.15 29.7 170.6 30.75 170.8 32.75 M139.85 39.5 Q139.25 38.95 138.5 39.0 136.9 39.15 135.65 40.9 134.35 42.7 133.9 45.65 140.75 44.05 140.45 41.0 140.4 40.0 139.85 39.5 M83.25 44.75 Q83.05 42.6 80.65 41.35 86.5 35.8 92.5 35.25 94.8 35.05 96.35 36.35 97.8 37.6 98.0 40.0 L97.95 41.25 96.35 54.75 Q96.2 55.85 96.3 56.85 96.6 59.95 99.95 59.65 106.05 59.1 107.85 46.3 L105.85 46.8 Q103.45 47.0 101.85 45.6 100.15 44.2 99.95 41.8 99.65 38.8 101.7 36.35 103.85 33.9 107.25 33.6 110.75 33.3 113.1 35.5 115.45 37.7 115.8 41.6 116.2 46.45 114.45 52.3 112.65 58.2 109.55 62.1 106.6 65.85 102.7 68.05 98.7 70.35 94.4 70.7 89.0 71.2 85.2 68.4 81.9 66.05 81.5 61.35 81.4 60.05 81.55 58.95 L83.05 47.2 Q83.35 45.5 83.25 44.75 M41.7 16.8 Q37.6 17.15 35.65 20.15 34.05 22.55 34.2 24.8 34.4 26.95 36.05 28.35 37.7 29.75 39.75 29.6 L40.7 29.35 42.5 29.0 Q43.35 28.9 44.0 29.5 44.65 30.1 44.75 30.95 44.95 33.2 42.05 35.4 38.95 37.7 35.1 38.05 28.65 38.6 23.7 33.5 19.55 29.45 19.05 23.6 18.2 13.8 27.3 6.5 34.4 0.95 43.65 0.1 51.85 -0.6 59.05 2.85 67.35 6.85 71.6 14.7 75.7 22.35 76.55 31.85 77.75 45.35 72.55 57.5 67.5 69.75 57.2 77.6 46.7 85.55 33.65 86.7 24.15 87.5 15.9 83.6 7.95 79.85 3.8 72.2 0.8 66.55 0.15 59.1 -0.85 47.85 5.3 39.4 8.0 35.8 11.1 33.65 14.2 31.45 16.95 31.2 18.45 31.1 19.45 31.65 20.45 32.25 20.55 33.3 20.65 34.15 19.95 35.6 18.2 39.05 18.45 42.15 18.95 47.7 23.4 50.95 27.8 54.15 33.4 53.65 37.8 53.3 41.95 50.8 46.05 48.25 48.9 44.25 54.0 37.15 53.3 29.2 52.8 23.3 49.55 19.8 46.3 16.4 41.7 16.8" fill="#ff6699" fill-rule="evenodd" stroke="none"/>
    <path d="M170.8 32.75 L170.7 36.05 Q174.2 32.15 175.55 30.95 178.85 28.05 182.65 27.75 185.55 27.45 187.55 28.95 189.7 30.6 189.95 33.55 190.35 38.15 187.2 41.8 184.85 44.45 181.75 44.75 179.65 44.9 177.95 43.8 176.25 42.65 176.1 40.9 L175.95 39.55 Q172.65 41.9 171.0 45.0 169.35 48.1 168.65 53.45 L168.15 57.05 Q167.65 60.55 166.15 62.05 165.45 62.9 164.2 63.45 L161.85 64.1 158.25 64.4 Q155.45 64.55 152.7 67.2 L154.25 55.1 Q153.4 57.25 150.55 60.0 143.05 67.15 134.45 67.9 127.0 68.55 122.4 64.4 118.15 60.45 117.6 54.55 116.8 44.9 125.05 37.55 131.45 31.85 139.55 31.15 145.15 30.65 148.65 33.4 151.65 35.8 151.95 39.4 152.55 45.95 144.0 50.65 140.0 52.9 133.8 53.8 L133.9 54.35 Q134.0 55.9 135.4 56.85 136.75 57.85 138.65 57.7 141.15 57.45 143.45 56.35 L150.15 52.05 Q151.25 51.3 152.35 51.2 153.25 51.1 153.85 51.6 154.4 52.05 154.55 52.7 L155.95 40.85 156.1 38.0 Q155.9 36.15 153.85 35.2 156.0 32.8 159.35 31.0 162.65 29.1 165.3 28.9 167.7 28.7 169.15 29.7 170.6 30.75 170.8 32.75 M139.85 39.5 Q139.25 38.95 138.5 39.0 136.9 39.15 135.65 40.9 134.35 42.7 133.9 45.65 140.75 44.05 140.45 41.0 140.4 40.0 139.85 39.5 M83.25 44.75 Q83.05 42.6 80.65 41.35 86.5 35.8 92.5 35.25 94.8 35.05 96.35 36.35 97.8 37.6 98.0 40.0 L97.95 41.25 96.35 54.75 Q96.2 55.85 96.3 56.85 96.6 59.95 99.95 59.65 106.05 59.1 107.85 46.3 L105.85 46.8 Q103.45 47.0 101.85 45.6 100.15 44.2 99.95 41.8 99.65 38.8 101.7 36.35 103.85 33.9 107.25 33.6 110.75 33.3 113.1 35.5 115.45 37.7 115.8 41.6 116.2 46.45 114.45 52.3 112.65 58.2 109.55 62.1 106.6 65.85 102.7 68.05 98.7 70.35 94.4 70.7 89.0 71.2 85.2 68.4 81.9 66.05 81.5 61.35 81.4 60.05 81.55 58.95 L83.05 47.2 Q83.35 45.5 83.25 44.75 M41.7 16.8 Q37.6 17.15 35.65 20.15 34.05 22.55 34.2 24.8 34.4 26.95 36.05 28.35 37.7 29.75 39.75 29.6 L40.7 29.35 42.5 29.0 Q43.35 28.9 44.0 29.5 44.65 30.1 44.75 30.95 44.95 33.2 42.05 35.4 38.95 37.7 35.1 38.05 28.65 38.6 23.7 33.5 19.55 29.45 19.05 23.6 18.2 13.8 27.3 6.5 34.4 0.95 43.65 0.1 51.85 -0.6 59.05 2.85 67.35 6.85 71.6 14.7 75.7 22.35 76.55 31.85 77.75 45.35 72.55 57.5 67.5 69.75 57.2 77.6 46.7 85.55 33.65 86.7 24.15 87.5 15.9 83.6 7.95 79.85 3.8 72.2 0.8 66.55 0.15 59.1 -0.85 47.85 5.3 39.4 8.0 35.8 11.1 33.65 14.2 31.45 16.95 31.2 18.45 31.1 19.45 31.65 20.45 32.25 20.55 33.3 20.65 34.15 19.95 35.6 18.2 39.05 18.45 42.15 18.95 47.7 23.4 50.95 27.8 54.15 33.4 53.65 37.8 53.3 41.95 50.8 46.05 48.25 48.9 44.25 54.0 37.15 53.3 29.2 52.8 23.3 49.55 19.8 46.3 16.4 41.7 16.8" fill="none" stroke="#ffffff" stroke-linecap="round" stroke-linejoin="round" stroke-width="8.0"/>
    <path d="M170.8 32.75 L170.7 36.05 Q174.2 32.15 175.55 30.95 178.85 28.05 182.65 27.75 185.55 27.45 187.55 28.95 189.7 30.6 189.95 33.55 190.35 38.15 187.2 41.8 184.85 44.45 181.75 44.75 179.65 44.9 177.95 43.8 176.25 42.65 176.1 40.9 L175.95 39.55 Q172.65 41.9 171.0 45.0 169.35 48.1 168.65 53.45 L168.15 57.05 Q167.65 60.55 166.15 62.05 165.45 62.9 164.2 63.45 L161.85 64.1 158.25 64.4 Q155.45 64.55 152.7 67.2 L154.25 55.1 Q153.4 57.25 150.55 60.0 143.05 67.15 134.45 67.9 127.0 68.55 122.4 64.4 118.15 60.45 117.6 54.55 116.8 44.9 125.05 37.55 131.45 31.85 139.55 31.15 145.15 30.65 148.65 33.4 151.65 35.8 151.95 39.4 152.55 45.95 144.0 50.65 140.0 52.9 133.8 53.8 L133.9 54.35 Q134.0 55.9 135.4 56.85 136.75 57.85 138.65 57.7 141.15 57.45 143.45 56.35 L150.15 52.05 Q151.25 51.3 152.35 51.2 153.25 51.1 153.85 51.6 154.4 52.05 154.55 52.7 L155.95 40.85 156.1 38.0 Q155.9 36.15 153.85 35.2 156.0 32.8 159.35 31.0 162.65 29.1 165.3 28.9 167.7 28.7 169.15 29.7 170.6 30.75 170.8 32.75 M139.85 39.5 Q139.25 38.95 138.5 39.0 136.9 39.15 135.65 40.9 134.35 42.7 133.9 45.65 140.75 44.05 140.45 41.0 140.4 40.0 139.85 39.5 M83.25 44.75 Q83.05 42.6 80.65 41.35 86.5 35.8 92.5 35.25 94.8 35.05 96.35 36.35 97.8 37.6 98.0 40.0 L97.95 41.25 96.35 54.75 Q96.2 55.85 96.3 56.85 96.6 59.95 99.95 59.65 106.05 59.1 107.85 46.3 L105.85 46.8 Q103.45 47.0 101.85 45.6 100.15 44.2 99.95 41.8 99.65 38.8 101.7 36.35 103.85 33.9 107.25 33.6 110.75 33.3 113.1 35.5 115.45 37.7 115.8 41.6 116.2 46.45 114.45 52.3 112.65 58.2 109.55 62.1 106.6 65.85 102.7 68.05 98.7 70.35 94.4 70.7 89.0 71.2 85.2 68.4 81.9 66.05 81.5 61.35 81.4 60.05 81.55 58.95 L83.05 47.2 Q83.35 45.5 83.25 44.75 M41.7 16.8 Q37.6 17.15 35.65 20.15 34.05 22.55 34.2 24.8 34.4 26.95 36.05 28.35 37.7 29.75 39.75 29.6 L40.7 29.35 42.5 29.0 Q43.35 28.9 44.0 29.5 44.65 30.1 44.75 30.95 44.95 33.2 42.05 35.4 38.95 37.7 35.1 38.05 28.65 38.6 23.7 33.5 19.55 29.45 19.05 23.6 18.2 13.8 27.3 6.5 34.4 0.95 43.65 0.1 51.85 -0.6 59.05 2.85 67.35 6.85 71.6 14.7 75.7 22.35 76.55 31.85 77.75 45.35 72.55 57.5 67.5 69.75 57.2 77.6 46.7 85.55 33.65 86.7 24.15 87.5 15.9 83.6 7.95 79.85 3.8 72.2 0.8 66.55 0.15 59.1 -0.85 47.85 5.3 39.4 8.0 35.8 11.1 33.65 14.2 31.45 16.95 31.2 18.45 31.1 19.45 31.65 20.45 32.25 20.55 33.3 20.65 34.15 19.95 35.6 18.2 39.05 18.45 42.15 18.95 47.7 23.4 50.95 27.8 54.15 33.4 53.65 37.8 53.3 41.95 50.8 46.05 48.25 48.9 44.25 54.0 37.15 53.3 29.2 52.8 23.3 49.55 19.8 46.3 16.4 41.7 16.8" fill="#ff6699" fill-rule="evenodd" stroke="none"/>
  </g>
</svg>
