<?xml version="1.0" encoding="UTF-8" standalone="no"?>
<svg xmlns:xlink="http://www.w3.org/1999/xlink" height="52.45px" width="136.4px" xmlns="http://www.w3.org/2000/svg">
  <g transform="matrix(1.0, 0.0, 0.0, 1.0, 5.0, 5.0)">
    <path d="M124.0 17.35 L123.85 18.75 122.3 24.75 122.05 26.05 Q122.05 27.35 123.6 27.35 L124.4 27.25 125.7 26.95 126.15 27.15 126.4 27.8 Q126.4 29.1 124.1 30.7 121.45 32.65 118.4 32.65 116.35 32.65 115.15 31.6 113.95 30.45 113.95 28.7 113.95 28.2 114.1 27.65 L115.15 22.65 115.3 21.6 Q115.3 21.05 114.9 20.75 114.5 20.35 113.95 20.35 112.05 20.35 111.4 23.3 L110.0 29.0 Q109.7 30.45 108.75 31.35 107.85 32.25 106.55 32.25 L104.55 32.25 Q102.65 32.25 101.45 33.35 L104.5 19.6 104.8 17.85 Q104.8 16.8 103.6 16.25 107.15 13.6 110.0 13.6 112.75 13.6 113.0 16.25 116.2 13.6 119.6 13.6 121.5 13.6 122.7 14.65 124.0 15.75 124.0 17.35 M92.9 8.85 Q92.9 7.15 94.45 5.9 95.95 4.6 97.95 4.5 99.75 4.5 100.85 5.55 101.75 6.45 101.75 7.8 101.75 9.5 100.15 10.7 98.4 12.05 96.3 12.05 94.7 12.05 93.8 11.2 92.9 10.4 92.9 8.85 M87.7 15.6 L87.6 16.55 85.75 24.5 85.45 26.3 Q85.45 26.75 85.85 27.15 L86.9 27.5 87.85 27.35 89.0 26.95 89.55 27.25 89.8 27.8 89.85 27.5 91.55 19.7 91.8 18.15 Q91.8 17.05 90.65 16.5 94.1 13.6 97.1 13.6 98.4 13.6 99.1 14.25 99.8 14.9 99.8 16.0 L99.75 16.95 97.95 24.6 97.8 25.95 Q97.8 27.5 99.25 27.5 L100.15 27.35 101.45 26.95 101.9 27.15 102.05 27.75 Q102.05 29.15 99.9 30.8 97.0 32.8 94.1 32.8 92.25 32.8 91.0 31.65 89.7 30.55 89.7 28.95 L89.8 28.25 Q89.55 29.05 88.35 30.15 85.2 32.8 81.6 32.8 80.0 32.8 78.85 31.65 77.75 30.55 77.75 28.85 L77.9 27.8 75.1 30.95 Q73.05 32.8 70.75 32.8 68.4 32.8 66.95 30.6 65.85 29.0 65.85 26.45 65.85 23.95 66.8 21.55 67.75 19.05 69.55 17.2 71.05 15.45 72.9 14.55 74.75 13.6 76.55 13.6 79.35 13.6 81.2 15.85 82.95 14.55 83.75 14.15 L85.6 13.75 86.75 14.0 Q87.7 14.5 87.7 15.6 M65.6 16.8 L62.7 29.25 Q62.0 32.3 60.95 34.4 59.9 36.4 58.2 38.15 54.1 42.45 48.8 42.45 45.6 42.45 43.7 40.65 42.25 39.2 42.25 37.3 42.25 35.75 43.05 34.7 43.85 33.6 45.6 32.7 45.7 33.85 46.25 34.5 47.3 35.6 48.8 35.6 50.1 35.6 51.45 34.9 52.85 34.05 53.65 32.85 54.6 31.5 55.4 28.6 53.3 30.95 51.8 31.9 50.35 32.8 48.75 32.8 46.4 32.8 45.1 30.85 43.9 28.95 43.9 26.5 43.9 23.0 45.95 19.55 47.6 16.55 50.25 14.95 52.5 13.6 54.75 13.6 57.1 13.6 59.25 15.7 61.9 13.75 63.6 13.75 64.55 13.75 65.1 14.4 65.75 14.95 65.75 15.85 L65.6 16.8 M78.45 22.6 Q79.25 21.45 79.25 20.35 79.25 18.9 77.65 18.9 76.6 18.9 75.9 19.85 75.1 20.8 75.1 21.95 75.1 23.8 76.7 23.8 77.75 23.8 78.45 22.6 M42.25 8.7 Q41.05 10.8 40.15 14.5 39.2 18.1 39.2 20.4 39.2 22.2 39.75 23.3 40.4 24.5 41.35 24.5 L42.15 24.35 42.95 24.1 43.6 24.5 43.9 25.3 Q43.9 27.1 42.65 29.25 L40.6 31.6 Q38.85 32.8 36.75 32.8 L35.0 32.5 Q33.6 31.95 32.85 30.45 32.05 28.95 32.05 26.75 L32.35 23.25 32.45 22.5 Q32.45 22.05 31.95 21.7 31.55 21.3 31.0 21.3 30.0 21.3 29.4 22.05 28.75 22.75 28.0 24.7 L26.4 28.35 24.65 31.5 Q22.3 34.8 18.85 36.65 15.15 38.65 11.0 38.65 5.75 38.65 2.65 35.5 0.0 32.95 0.0 29.4 0.0 24.6 3.9 20.9 6.35 18.55 9.8 17.45 L13.4 16.8 14.85 17.15 Q15.5 17.55 15.5 18.1 L15.3 18.65 14.35 19.85 Q13.95 20.35 13.95 21.05 13.95 22.1 14.85 22.85 15.7 23.55 17.0 23.55 19.4 23.55 21.65 21.4 L24.15 18.4 27.55 13.35 30.0 9.65 32.25 7.0 29.45 6.85 Q27.05 6.85 26.0 7.65 25.05 8.3 25.05 9.1 25.05 10.05 26.55 10.2 27.55 10.3 27.55 11.1 27.55 11.8 26.55 12.7 25.05 14.15 23.1 15.05 21.2 15.85 19.25 15.85 16.15 15.85 14.05 13.9 12.05 12.05 12.05 9.25 12.05 5.4 15.3 2.65 18.45 0.0 22.45 0.0 25.95 0.0 31.55 2.05 L35.0 3.25 35.3 3.3 37.75 3.65 39.5 3.45 41.45 3.25 Q42.4 3.25 43.05 3.85 43.7 4.45 43.7 5.3 L43.5 6.3 42.25 8.7 M53.3 23.3 Q53.7 23.8 54.45 23.8 55.5 23.8 56.35 22.75 57.25 21.6 57.25 20.4 57.25 19.8 56.85 19.3 56.45 18.9 55.7 18.9 54.75 18.8 53.9 19.85 53.0 20.9 52.9 22.1 52.9 22.85 53.3 23.3 M35.0 10.3 L33.55 12.3 Q31.7 14.95 30.75 17.3 31.45 16.95 32.05 16.95 L33.5 17.35 35.0 13.05 35.25 12.45 Q36.3 9.75 37.35 7.8 36.1 8.9 35.0 10.3" fill="#000000" fill-rule="evenodd" stroke="none"/>
    <path d="M124.0 17.35 L123.85 18.75 122.3 24.75 122.05 26.05 Q122.05 27.35 123.6 27.35 L124.4 27.25 125.7 26.95 126.15 27.15 126.4 27.8 Q126.4 29.1 124.1 30.7 121.45 32.65 118.4 32.65 116.35 32.65 115.15 31.6 113.95 30.45 113.95 28.7 113.95 28.2 114.1 27.65 L115.15 22.65 115.3 21.6 Q115.3 21.05 114.9 20.75 114.5 20.35 113.95 20.35 112.05 20.35 111.4 23.3 L110.0 29.0 Q109.7 30.45 108.75 31.35 107.85 32.25 106.55 32.25 L104.55 32.25 Q102.65 32.25 101.45 33.35 L104.5 19.6 104.8 17.85 Q104.8 16.8 103.6 16.25 107.15 13.6 110.0 13.6 112.75 13.6 113.0 16.25 116.2 13.6 119.6 13.6 121.5 13.6 122.7 14.65 124.0 15.75 124.0 17.35 M92.9 8.85 Q92.9 7.15 94.45 5.9 95.95 4.6 97.95 4.5 99.75 4.5 100.85 5.55 101.75 6.45 101.75 7.8 101.75 9.5 100.15 10.7 98.4 12.05 96.3 12.05 94.7 12.05 93.8 11.2 92.9 10.4 92.9 8.85 M87.7 15.6 L87.6 16.55 85.75 24.5 85.45 26.3 Q85.45 26.75 85.85 27.15 L86.9 27.5 87.85 27.35 89.0 26.95 89.55 27.25 89.8 27.8 89.85 27.5 91.55 19.7 91.8 18.15 Q91.8 17.05 90.65 16.5 94.1 13.6 97.1 13.6 98.4 13.6 99.1 14.25 99.8 14.9 99.8 16.0 L99.75 16.95 97.95 24.6 97.8 25.95 Q97.8 27.5 99.25 27.5 L100.15 27.35 101.45 26.95 101.9 27.15 102.05 27.75 Q102.05 29.15 99.9 30.8 97.0 32.8 94.1 32.8 92.25 32.8 91.0 31.65 89.7 30.55 89.7 28.95 L89.8 28.25 Q89.55 29.05 88.35 30.15 85.2 32.8 81.6 32.8 80.0 32.8 78.85 31.65 77.75 30.55 77.75 28.85 L77.9 27.8 75.1 30.95 Q73.05 32.8 70.75 32.8 68.4 32.8 66.95 30.6 65.85 29.0 65.85 26.45 65.85 23.95 66.8 21.55 67.75 19.05 69.55 17.2 71.05 15.45 72.9 14.55 74.75 13.6 76.55 13.6 79.35 13.6 81.2 15.85 82.95 14.55 83.75 14.15 L85.6 13.75 86.75 14.0 Q87.7 14.5 87.7 15.6 M65.6 16.8 L62.7 29.25 Q62.0 32.3 60.95 34.4 59.9 36.4 58.2 38.15 54.1 42.45 48.8 42.45 45.6 42.45 43.7 40.65 42.25 39.2 42.25 37.3 42.25 35.75 43.05 34.7 43.85 33.6 45.6 32.7 45.7 33.85 46.25 34.5 47.3 35.6 48.8 35.6 50.1 35.6 51.45 34.9 52.85 34.05 53.65 32.85 54.6 31.5 55.4 28.6 53.3 30.95 51.8 31.9 50.35 32.8 48.75 32.8 46.4 32.8 45.1 30.85 43.9 28.95 43.9 26.5 43.9 23.0 45.95 19.55 47.6 16.55 50.25 14.95 52.5 13.6 54.75 13.6 57.1 13.6 59.25 15.7 61.9 13.75 63.6 13.75 64.55 13.75 65.1 14.4 65.75 14.95 65.75 15.85 L65.6 16.8 M78.45 22.6 Q79.25 21.45 79.25 20.35 79.25 18.9 77.65 18.9 76.6 18.9 75.9 19.85 75.1 20.8 75.1 21.95 75.1 23.8 76.7 23.8 77.75 23.8 78.45 22.6 M42.25 8.7 Q41.05 10.8 40.15 14.5 39.2 18.1 39.2 20.4 39.2 22.2 39.75 23.3 40.4 24.5 41.35 24.5 L42.15 24.35 42.95 24.1 43.6 24.5 43.9 25.3 Q43.9 27.1 42.65 29.25 L40.6 31.6 Q38.85 32.8 36.75 32.8 L35.0 32.5 Q33.6 31.95 32.85 30.45 32.05 28.95 32.05 26.75 L32.35 23.25 32.45 22.5 Q32.45 22.05 31.95 21.7 31.55 21.3 31.0 21.3 30.0 21.3 29.4 22.05 28.75 22.75 28.0 24.7 L26.4 28.35 24.65 31.5 Q22.3 34.8 18.85 36.65 15.15 38.65 11.0 38.65 5.75 38.65 2.65 35.5 0.0 32.95 0.0 29.4 0.0 24.6 3.9 20.9 6.35 18.55 9.8 17.45 L13.4 16.8 14.85 17.15 Q15.5 17.55 15.5 18.1 L15.3 18.65 14.35 19.85 Q13.95 20.35 13.95 21.05 13.95 22.1 14.85 22.85 15.7 23.55 17.0 23.55 19.4 23.55 21.65 21.4 L24.15 18.4 27.55 13.35 30.0 9.65 32.25 7.0 29.45 6.85 Q27.05 6.85 26.0 7.65 25.05 8.3 25.05 9.1 25.05 10.05 26.55 10.2 27.55 10.3 27.55 11.1 27.55 11.8 26.55 12.7 25.05 14.15 23.1 15.05 21.2 15.85 19.25 15.85 16.15 15.85 14.05 13.9 12.05 12.05 12.05 9.25 12.05 5.4 15.3 2.65 18.45 0.0 22.45 0.0 25.95 0.0 31.55 2.05 L35.0 3.25 35.3 3.3 37.75 3.65 39.5 3.45 41.45 3.25 Q42.4 3.25 43.05 3.85 43.7 4.45 43.7 5.3 L43.5 6.3 42.25 8.7 M53.3 23.3 Q53.7 23.8 54.45 23.8 55.5 23.8 56.35 22.75 57.25 21.6 57.25 20.4 57.25 19.8 56.85 19.3 56.45 18.9 55.7 18.9 54.75 18.8 53.9 19.85 53.0 20.9 52.9 22.1 52.9 22.85 53.3 23.3 M35.0 10.3 L33.55 12.3 Q31.7 14.95 30.75 17.3 31.45 16.95 32.05 16.95 L33.5 17.35 35.0 13.05 35.25 12.45 Q36.3 9.75 37.35 7.8 36.1 8.9 35.0 10.3" fill="none" stroke="#000000" stroke-linecap="round" stroke-linejoin="round" stroke-width="10.0"/>
    <path d="M124.0 17.35 L123.85 18.75 122.3 24.75 122.05 26.05 Q122.05 27.35 123.6 27.35 L124.4 27.25 125.7 26.95 126.15 27.15 126.4 27.8 Q126.4 29.1 124.1 30.7 121.45 32.65 118.4 32.65 116.35 32.65 115.15 31.6 113.95 30.45 113.95 28.7 113.95 28.2 114.1 27.65 L115.15 22.65 115.3 21.6 Q115.3 21.05 114.9 20.75 114.5 20.35 113.95 20.35 112.05 20.35 111.4 23.3 L110.0 29.0 Q109.7 30.45 108.75 31.35 107.85 32.25 106.55 32.25 L104.55 32.25 Q102.65 32.25 101.45 33.35 L104.5 19.6 104.8 17.85 Q104.8 16.8 103.6 16.25 107.15 13.6 110.0 13.6 112.75 13.6 113.0 16.25 116.2 13.6 119.6 13.6 121.5 13.6 122.7 14.65 124.0 15.75 124.0 17.35 M93.8 11.2 Q92.9 10.4 92.9 8.85 92.9 7.15 94.45 5.9 95.95 4.6 97.95 4.5 99.75 4.5 100.85 5.55 101.75 6.45 101.75 7.8 101.75 9.5 100.15 10.7 98.4 12.05 96.3 12.05 94.7 12.05 93.8 11.2 M87.7 15.6 L87.6 16.55 85.75 24.5 85.45 26.3 Q85.45 26.75 85.85 27.15 L86.9 27.5 87.85 27.35 89.0 26.95 89.55 27.25 89.8 27.8 89.85 27.5 91.55 19.7 91.8 18.15 Q91.8 17.05 90.65 16.5 94.1 13.6 97.1 13.6 98.4 13.6 99.1 14.25 99.8 14.9 99.8 16.0 L99.75 16.95 97.95 24.6 97.8 25.95 Q97.8 27.5 99.25 27.5 L100.15 27.35 101.45 26.95 101.9 27.15 102.05 27.75 Q102.05 29.15 99.9 30.8 97.0 32.8 94.1 32.8 92.25 32.8 91.0 31.65 89.7 30.55 89.7 28.95 L89.8 28.25 Q89.55 29.05 88.35 30.15 85.2 32.8 81.6 32.8 80.0 32.8 78.85 31.65 77.75 30.55 77.75 28.85 L77.9 27.8 75.1 30.95 Q73.05 32.8 70.75 32.8 68.4 32.8 66.95 30.6 65.85 29.0 65.85 26.45 65.85 23.95 66.8 21.55 67.75 19.05 69.55 17.2 71.05 15.45 72.9 14.55 74.75 13.6 76.55 13.6 79.35 13.6 81.2 15.85 82.95 14.55 83.75 14.15 L85.6 13.75 86.75 14.0 Q87.7 14.5 87.7 15.6 M65.75 15.85 L65.6 16.8 62.7 29.25 Q62.0 32.3 60.95 34.4 59.9 36.4 58.2 38.15 54.1 42.45 48.8 42.45 45.6 42.45 43.7 40.65 42.25 39.2 42.25 37.3 42.25 35.75 43.05 34.7 43.85 33.6 45.6 32.7 45.7 33.85 46.25 34.5 47.3 35.6 48.8 35.6 50.1 35.6 51.45 34.9 52.85 34.05 53.65 32.85 54.6 31.5 55.4 28.6 53.3 30.95 51.8 31.9 50.35 32.8 48.75 32.8 46.4 32.8 45.1 30.85 43.9 28.95 43.9 26.5 43.9 23.0 45.95 19.55 47.6 16.55 50.25 14.95 52.5 13.6 54.75 13.6 57.1 13.6 59.25 15.7 61.9 13.75 63.6 13.75 64.55 13.75 65.1 14.4 65.75 14.95 65.75 15.85 M78.45 22.6 Q79.25 21.45 79.25 20.35 79.25 18.9 77.65 18.9 76.6 18.9 75.9 19.85 75.1 20.8 75.1 21.95 75.1 23.8 76.7 23.8 77.75 23.8 78.45 22.6 M42.25 8.7 Q41.05 10.8 40.15 14.5 39.2 18.1 39.2 20.4 39.2 22.2 39.75 23.3 40.4 24.5 41.35 24.5 L42.15 24.35 42.95 24.1 43.6 24.5 43.9 25.3 Q43.9 27.1 42.65 29.25 L40.6 31.6 Q38.85 32.8 36.75 32.8 L35.0 32.5 Q33.6 31.95 32.85 30.45 32.05 28.95 32.05 26.75 L32.35 23.25 32.45 22.5 Q32.45 22.05 31.95 21.7 31.55 21.3 31.0 21.3 30.0 21.3 29.4 22.05 28.75 22.75 28.0 24.7 L26.4 28.35 24.65 31.5 Q22.3 34.8 18.85 36.65 15.15 38.65 11.0 38.65 5.75 38.65 2.65 35.5 0.0 32.95 0.0 29.4 0.0 24.6 3.9 20.9 6.35 18.55 9.8 17.45 L13.4 16.8 14.85 17.15 Q15.5 17.55 15.5 18.1 L15.3 18.65 14.35 19.85 Q13.95 20.35 13.95 21.05 13.95 22.1 14.85 22.85 15.7 23.55 17.0 23.55 19.4 23.55 21.65 21.4 L24.15 18.4 27.55 13.35 30.0 9.65 32.25 7.0 29.45 6.85 Q27.05 6.85 26.0 7.65 25.05 8.3 25.05 9.1 25.05 10.05 26.55 10.2 27.55 10.3 27.55 11.1 27.55 11.8 26.55 12.7 25.05 14.15 23.1 15.05 21.2 15.85 19.25 15.85 16.15 15.85 14.05 13.9 12.05 12.05 12.05 9.25 12.05 5.4 15.3 2.65 18.45 0.0 22.45 0.0 25.95 0.0 31.55 2.05 L35.0 3.25 35.3 3.3 37.75 3.65 39.5 3.45 41.45 3.25 Q42.4 3.25 43.05 3.85 43.7 4.45 43.7 5.3 L43.5 6.3 42.25 8.7 M52.9 22.1 Q52.9 22.85 53.3 23.3 53.7 23.8 54.45 23.8 55.5 23.8 56.35 22.75 57.25 21.6 57.25 20.4 57.25 19.8 56.85 19.3 56.45 18.9 55.7 18.9 54.75 18.8 53.9 19.85 53.0 20.9 52.9 22.1 M35.0 10.3 L33.55 12.3 Q31.7 14.95 30.75 17.3 31.45 16.95 32.05 16.95 L33.5 17.35 35.0 13.05 35.25 12.45 Q36.3 9.75 37.35 7.8 36.1 8.9 35.0 10.3" fill="#0099cc" fill-rule="evenodd" stroke="none"/>
    <path d="M124.0 17.35 L123.85 18.75 122.3 24.75 122.05 26.05 Q122.05 27.35 123.6 27.35 L124.4 27.25 125.7 26.95 126.15 27.15 126.4 27.8 Q126.4 29.1 124.1 30.7 121.45 32.65 118.4 32.65 116.35 32.65 115.15 31.6 113.95 30.45 113.95 28.7 113.95 28.2 114.1 27.65 L115.15 22.65 115.3 21.6 Q115.3 21.05 114.9 20.75 114.5 20.35 113.95 20.35 112.05 20.35 111.4 23.3 L110.0 29.0 Q109.7 30.45 108.75 31.35 107.85 32.25 106.55 32.25 L104.55 32.25 Q102.65 32.25 101.45 33.35 L104.5 19.6 104.8 17.85 Q104.8 16.8 103.6 16.25 107.15 13.6 110.0 13.6 112.75 13.6 113.0 16.25 116.2 13.6 119.6 13.6 121.5 13.6 122.7 14.65 124.0 15.75 124.0 17.35 M93.8 11.2 Q92.9 10.4 92.9 8.85 92.9 7.15 94.45 5.9 95.95 4.6 97.95 4.5 99.75 4.5 100.85 5.55 101.75 6.45 101.75 7.8 101.75 9.5 100.15 10.7 98.4 12.05 96.3 12.05 94.7 12.05 93.8 11.2 M87.7 15.6 L87.6 16.55 85.75 24.5 85.45 26.3 Q85.45 26.75 85.85 27.15 L86.9 27.5 87.85 27.35 89.0 26.95 89.55 27.25 89.8 27.8 89.85 27.5 91.55 19.7 91.8 18.15 Q91.8 17.05 90.65 16.5 94.1 13.6 97.1 13.6 98.4 13.6 99.1 14.25 99.8 14.9 99.8 16.0 L99.75 16.95 97.95 24.6 97.8 25.95 Q97.8 27.5 99.25 27.5 L100.15 27.35 101.45 26.95 101.9 27.15 102.05 27.75 Q102.05 29.15 99.9 30.8 97.0 32.8 94.1 32.8 92.25 32.8 91.0 31.65 89.7 30.55 89.7 28.95 L89.8 28.25 Q89.55 29.05 88.35 30.15 85.2 32.8 81.6 32.8 80.0 32.8 78.85 31.65 77.75 30.55 77.75 28.85 L77.9 27.8 75.1 30.95 Q73.05 32.8 70.75 32.8 68.4 32.8 66.95 30.6 65.85 29.0 65.85 26.45 65.85 23.95 66.8 21.55 67.75 19.05 69.55 17.2 71.05 15.45 72.9 14.55 74.75 13.6 76.55 13.6 79.35 13.6 81.2 15.85 82.95 14.55 83.75 14.15 L85.6 13.75 86.75 14.0 Q87.7 14.5 87.7 15.6 M65.75 15.85 L65.6 16.8 62.7 29.25 Q62.0 32.3 60.95 34.4 59.9 36.4 58.2 38.15 54.1 42.45 48.8 42.45 45.6 42.45 43.7 40.65 42.25 39.2 42.25 37.3 42.25 35.75 43.05 34.7 43.85 33.6 45.6 32.7 45.7 33.85 46.25 34.5 47.3 35.6 48.8 35.6 50.1 35.6 51.45 34.9 52.85 34.05 53.65 32.85 54.6 31.5 55.4 28.6 53.3 30.95 51.8 31.9 50.35 32.8 48.75 32.8 46.4 32.8 45.1 30.85 43.9 28.95 43.9 26.5 43.9 23.0 45.95 19.55 47.6 16.55 50.25 14.95 52.5 13.6 54.75 13.6 57.1 13.6 59.25 15.7 61.9 13.75 63.6 13.75 64.55 13.75 65.1 14.4 65.75 14.95 65.75 15.85 M78.45 22.6 Q79.25 21.45 79.25 20.35 79.25 18.9 77.65 18.9 76.6 18.9 75.9 19.85 75.1 20.8 75.1 21.95 75.1 23.8 76.7 23.8 77.75 23.8 78.45 22.6 M42.25 8.7 Q41.05 10.8 40.15 14.5 39.2 18.1 39.2 20.4 39.2 22.2 39.75 23.3 40.4 24.5 41.35 24.5 L42.15 24.35 42.95 24.1 43.6 24.5 43.9 25.3 Q43.9 27.1 42.65 29.25 L40.6 31.6 Q38.85 32.8 36.75 32.8 L35.0 32.5 Q33.6 31.95 32.85 30.45 32.05 28.95 32.05 26.75 L32.35 23.25 32.45 22.5 Q32.45 22.05 31.95 21.7 31.55 21.3 31.0 21.3 30.0 21.3 29.4 22.05 28.75 22.75 28.0 24.7 L26.4 28.35 24.65 31.5 Q22.3 34.8 18.85 36.65 15.15 38.65 11.0 38.65 5.75 38.65 2.65 35.5 0.0 32.95 0.0 29.4 0.0 24.6 3.9 20.9 6.35 18.55 9.8 17.45 L13.4 16.8 14.85 17.15 Q15.5 17.55 15.5 18.1 L15.3 18.65 14.35 19.85 Q13.95 20.35 13.95 21.05 13.95 22.1 14.85 22.85 15.7 23.55 17.0 23.55 19.4 23.55 21.65 21.4 L24.15 18.4 27.55 13.35 30.0 9.65 32.25 7.0 29.45 6.85 Q27.05 6.85 26.0 7.65 25.05 8.3 25.05 9.1 25.05 10.05 26.55 10.2 27.55 10.3 27.55 11.1 27.55 11.8 26.55 12.7 25.05 14.15 23.1 15.05 21.2 15.85 19.25 15.85 16.15 15.85 14.05 13.9 12.05 12.05 12.05 9.25 12.05 5.4 15.3 2.65 18.45 0.0 22.45 0.0 25.95 0.0 31.55 2.05 L35.0 3.25 35.3 3.3 37.75 3.65 39.5 3.45 41.45 3.25 Q42.4 3.25 43.05 3.85 43.7 4.45 43.7 5.3 L43.5 6.3 42.25 8.7 M52.9 22.1 Q52.9 22.85 53.3 23.3 53.7 23.8 54.45 23.8 55.5 23.8 56.35 22.75 57.25 21.6 57.25 20.4 57.25 19.8 56.85 19.3 56.45 18.9 55.7 18.9 54.75 18.8 53.9 19.85 53.0 20.9 52.9 22.1 M35.0 10.3 L33.55 12.3 Q31.7 14.95 30.75 17.3 31.45 16.95 32.05 16.95 L33.5 17.35 35.0 13.05 35.25 12.45 Q36.3 9.75 37.35 7.8 36.1 8.9 35.0 10.3" fill="none" stroke="#ffffff" stroke-linecap="round" stroke-linejoin="round" stroke-width="6.0"/>
    <path d="M126.4 27.8 Q126.4 29.1 124.1 30.7 121.45 32.65 118.4 32.65 116.35 32.65 115.15 31.6 113.95 30.45 113.95 28.7 113.95 28.2 114.1 27.65 L115.15 22.65 115.3 21.6 Q115.3 21.05 114.9 20.75 114.5 20.35 113.95 20.35 112.05 20.35 111.4 23.3 L110.0 29.0 Q109.7 30.45 108.75 31.35 107.85 32.25 106.55 32.25 L104.55 32.25 Q102.65 32.25 101.45 33.35 L104.5 19.6 104.8 17.85 Q104.8 16.8 103.6 16.25 107.15 13.6 110.0 13.6 112.75 13.6 113.0 16.25 116.2 13.6 119.6 13.6 121.5 13.6 122.7 14.65 124.0 15.75 124.0 17.35 L123.85 18.75 122.3 24.75 122.05 26.05 Q122.05 27.35 123.6 27.35 L124.4 27.25 125.7 26.95 126.15 27.15 126.4 27.8 M101.75 7.8 Q101.75 9.5 100.15 10.7 98.4 12.05 96.3 12.05 94.7 12.05 93.8 11.2 92.9 10.4 92.9 8.85 92.9 7.15 94.45 5.9 95.95 4.6 97.95 4.5 99.75 4.5 100.85 5.55 101.75 6.45 101.75 7.8 M99.75 16.95 L97.95 24.6 97.8 25.95 Q97.8 27.5 99.25 27.5 L100.15 27.35 101.45 26.95 101.9 27.15 102.05 27.75 Q102.05 29.15 99.9 30.8 97.0 32.8 94.1 32.8 92.25 32.8 91.0 31.65 89.7 30.55 89.7 28.95 L89.8 28.25 Q89.55 29.05 88.35 30.15 85.2 32.8 81.6 32.8 80.0 32.8 78.85 31.65 77.75 30.55 77.75 28.85 L77.9 27.8 75.1 30.95 Q73.05 32.8 70.75 32.8 68.4 32.8 66.95 30.6 65.85 29.0 65.85 26.45 65.85 23.95 66.8 21.55 67.75 19.05 69.55 17.2 71.05 15.45 72.9 14.55 74.75 13.6 76.55 13.6 79.35 13.6 81.2 15.85 82.95 14.55 83.75 14.15 L85.6 13.75 86.75 14.0 Q87.7 14.5 87.7 15.6 L87.6 16.55 85.75 24.5 85.45 26.3 Q85.45 26.75 85.85 27.15 L86.9 27.5 87.85 27.35 89.0 26.95 89.55 27.25 89.8 27.8 89.85 27.5 91.55 19.7 91.8 18.15 Q91.8 17.05 90.65 16.5 94.1 13.6 97.1 13.6 98.4 13.6 99.1 14.25 99.8 14.9 99.8 16.0 L99.75 16.95 M56.85 19.3 Q56.45 18.9 55.7 18.9 54.75 18.8 53.9 19.85 53.0 20.9 52.9 22.1 52.9 22.85 53.3 23.3 53.7 23.8 54.45 23.8 55.5 23.8 56.35 22.75 57.25 21.6 57.25 20.4 57.25 19.8 56.85 19.3 M63.6 13.75 Q64.55 13.75 65.1 14.4 65.75 14.95 65.75 15.85 L65.6 16.8 62.7 29.25 Q62.0 32.3 60.95 34.4 59.9 36.4 58.2 38.15 54.1 42.45 48.8 42.45 45.6 42.45 43.7 40.65 42.25 39.2 42.25 37.3 42.25 35.75 43.05 34.7 43.85 33.6 45.6 32.7 45.7 33.85 46.25 34.5 47.3 35.6 48.8 35.6 50.1 35.6 51.45 34.9 52.85 34.05 53.65 32.85 54.6 31.5 55.4 28.6 53.3 30.95 51.8 31.9 50.35 32.8 48.75 32.8 46.4 32.8 45.1 30.85 43.9 28.95 43.9 26.5 43.9 23.0 45.95 19.55 47.6 16.55 50.25 14.95 52.5 13.6 54.75 13.6 57.1 13.6 59.25 15.7 61.9 13.75 63.6 13.75 M75.1 21.95 Q75.1 23.8 76.7 23.8 77.75 23.8 78.45 22.6 79.25 21.45 79.25 20.35 79.25 18.9 77.65 18.9 76.6 18.9 75.9 19.85 75.1 20.8 75.1 21.95 M25.05 9.1 Q25.05 10.05 26.55 10.2 27.55 10.3 27.55 11.1 27.55 11.8 26.55 12.7 25.05 14.15 23.1 15.05 21.2 15.85 19.25 15.85 16.15 15.85 14.05 13.9 12.05 12.05 12.05 9.25 12.05 5.4 15.3 2.65 18.45 0.0 22.45 0.0 25.95 0.0 31.55 2.05 L35.0 3.25 35.3 3.3 37.75 3.65 39.5 3.45 41.45 3.25 Q42.4 3.25 43.05 3.85 43.7 4.45 43.7 5.3 L43.5 6.3 42.25 8.7 Q41.05 10.8 40.15 14.5 39.2 18.1 39.2 20.4 39.2 22.2 39.75 23.3 40.4 24.5 41.35 24.5 L42.15 24.35 42.95 24.1 43.6 24.5 43.9 25.3 Q43.9 27.1 42.65 29.25 L40.6 31.6 Q38.85 32.8 36.75 32.8 L35.0 32.5 Q33.6 31.95 32.85 30.45 32.05 28.95 32.05 26.75 L32.35 23.25 32.45 22.5 Q32.45 22.05 31.95 21.7 31.55 21.3 31.0 21.3 30.0 21.3 29.4 22.05 28.75 22.75 28.0 24.7 L26.4 28.35 24.65 31.5 Q22.3 34.8 18.85 36.65 15.15 38.65 11.0 38.65 5.75 38.65 2.65 35.5 0.0 32.95 0.0 29.4 0.0 24.6 3.9 20.9 6.35 18.55 9.8 17.45 L13.4 16.8 14.85 17.15 Q15.5 17.55 15.5 18.1 L15.3 18.65 14.35 19.85 Q13.95 20.35 13.95 21.05 13.95 22.1 14.85 22.85 15.7 23.55 17.0 23.55 19.4 23.55 21.65 21.4 L24.15 18.4 27.55 13.35 30.0 9.65 32.25 7.0 29.45 6.85 Q27.05 6.85 26.0 7.65 25.05 8.3 25.05 9.1 M35.25 12.45 Q36.3 9.75 37.35 7.8 36.1 8.9 35.0 10.3 L33.55 12.3 Q31.7 14.95 30.75 17.3 31.45 16.95 32.05 16.95 L33.5 17.35 35.0 13.05 35.25 12.45" fill="#0099cc" fill-rule="evenodd" stroke="none"/>
  </g>
</svg>
