<?xml version="1.0" encoding="UTF-8" standalone="no"?>
<svg xmlns:xlink="http://www.w3.org/1999/xlink" height="50.0px" width="248.1px" xmlns="http://www.w3.org/2000/svg">
  <g transform="matrix(1.0, 0.0, 0.0, 1.0, 43.8, -4.95)">
    <path d="M33.7 10.5 Q30.8 10.45 27.65 12.3 L26.3 13.05 Q24.75 14.0 23.45 15.25 L22.7 16.0 22.15 15.5 22.1 15.45 21.85 15.25 Q20.65 14.5 19.1 14.5 17.8 14.5 16.15 15.0 L16.1 15.0 15.45 15.25 14.25 15.9 12.45 15.25 11.2 14.8 11.15 14.8 Q8.2 13.7 6.85 13.35 L6.75 13.3 5.3 13.05 3.45 12.95 1.65 13.05 Q-1.6 13.45 -3.8 15.25 -5.1 16.3 -6.0 17.8 L-5.95 17.75 Q-7.65 20.25 -7.6 22.75 -7.6 25.65 -5.75 28.0 L-5.3 28.55 Q-7.35 29.05 -9.2 30.2 L-9.25 30.2 Q-14.9 33.65 -14.85 39.65 -14.85 43.65 -12.3 46.65 -9.4 50.2 -3.55 50.2 0.45 50.2 3.9 48.45 L3.8 48.45 Q6.65 47.1 8.55 44.75 10.2 42.85 11.25 40.65 12.2 38.6 13.15 35.2 L13.15 35.25 Q13.6 33.6 14.25 32.75 L14.2 32.95 Q13.35 35.95 13.35 38.75 13.35 41.4 14.5 42.8 15.25 44.0 16.5 44.75 L16.85 44.95 19.35 45.4 Q21.45 45.4 23.4 44.2 L23.55 44.15 Q25.05 43.0 26.2 41.3 L26.6 40.65 Q26.8 42.3 28.35 43.75 L28.5 43.85 Q30.15 45.15 32.4 45.15 35.1 45.2 37.9 43.55 L37.8 43.7 Q36.75 45.05 36.75 47.05 36.75 49.6 38.7 51.45 40.7 53.45 44.3 53.45 49.8 53.45 53.9 49.2 L53.85 49.25 Q55.55 47.6 56.6 45.5 L57.5 43.4 Q57.35 44.0 57.65 44.6 57.85 45.15 58.4 45.5 58.95 45.85 59.6 45.8 60.25 45.75 60.75 45.35 61.35 44.8 61.95 44.8 L62.15 44.8 63.6 44.8 Q67.15 44.95 68.4 41.65 68.8 42.8 69.85 43.75 L70.0 43.85 Q71.7 45.15 74.05 45.15 77.25 45.15 80.1 43.15 L80.15 43.15 80.5 43.15 80.65 43.3 Q82.85 45.3 87.25 45.3 91.5 45.3 93.95 43.5 95.8 42.2 96.65 40.55 L97.9 42.3 97.9 42.25 Q100.5 45.35 104.85 45.4 109.4 45.45 113.55 41.8 L114.25 41.2 114.5 41.65 114.6 41.8 Q116.95 45.15 121.9 45.15 125.0 45.15 127.45 43.95 L127.5 43.95 Q129.95 42.65 131.45 40.5 L130.8 43.4 Q130.65 44.0 130.9 44.55 131.1 45.1 131.65 45.45 132.15 45.8 132.75 45.8 L133.9 45.45 Q134.75 44.85 135.5 44.8 L137.15 44.8 138.95 44.4 Q140.1 44.1 140.65 43.35 141.7 42.35 142.2 40.25 L142.6 38.55 Q143.05 36.55 143.75 35.5 L143.8 35.55 144.05 35.75 Q145.25 36.65 147.0 36.65 L148.6 36.45 148.6 36.55 Q148.6 40.1 150.8 42.55 L150.85 42.55 Q153.3 45.3 157.75 45.3 161.85 45.35 165.8 42.5 165.9 43.55 168.35 44.3 170.95 45.15 174.7 45.15 179.25 45.15 182.15 42.25 184.35 40.1 184.35 38.4 184.3 34.75 183.7 33.95 184.75 33.5 185.35 31.85 185.8 30.6 185.8 29.35 185.8 27.5 182.55 25.8 178.65 23.75 174.0 25.15 169.7 26.45 168.75 29.7 168.4 28.0 166.95 26.7 L167.05 26.75 Q165.15 24.75 161.5 24.75 157.1 24.75 153.45 27.45 L152.9 27.9 151.8 26.25 151.7 26.15 Q150.25 24.85 148.15 24.85 145.85 24.85 143.9 26.35 L143.9 26.4 143.85 26.4 143.7 26.5 143.15 25.95 Q142.05 24.85 140.15 24.85 138.5 24.85 136.55 25.65 134.65 26.45 133.25 27.75 132.8 28.15 132.65 28.8 L132.65 28.95 131.55 27.6 131.45 27.55 Q128.95 24.85 124.9 24.85 121.8 24.85 119.15 26.3 116.95 27.5 115.5 29.5 115.1 27.8 113.7 26.55 L113.65 26.55 Q111.45 24.6 107.95 24.6 105.15 24.6 102.55 25.85 L102.5 25.9 Q100.1 27.1 98.4 29.15 97.95 27.35 95.45 26.0 L95.4 25.95 Q93.25 24.85 89.95 24.85 86.2 24.85 84.05 26.75 81.3 28.95 81.35 31.9 81.35 33.3 82.0 34.6 80.75 34.9 79.9 35.95 L80.05 35.8 79.7 36.15 79.45 36.3 80.4 31.8 80.45 31.8 80.6 29.95 Q80.55 27.4 78.65 26.1 77.15 24.75 74.85 24.75 L72.1 25.15 73.1 20.4 73.35 19.1 Q73.35 17.1 72.05 16.0 L72.0 15.95 Q70.85 14.9 69.0 14.9 67.2 14.9 65.4 15.7 L65.35 15.75 Q63.45 16.5 62.1 17.8 61.65 18.2 61.5 18.85 61.35 19.5 61.65 20.1 61.85 20.6 62.3 20.9 L62.2 21.25 62.15 21.45 60.8 27.75 Q60.6 26.7 59.85 26.0 L59.9 26.05 Q58.8 24.85 57.1 24.85 55.65 24.75 53.45 26.1 51.45 24.7 49.5 24.75 47.0 24.75 44.7 26.25 L44.7 26.2 Q41.95 27.9 40.3 30.85 38.6 33.55 38.25 36.25 L37.8 36.35 39.15 30.2 39.35 28.8 Q39.3 27.2 38.3 26.2 L38.65 25.95 38.75 25.85 Q41.0 24.15 40.9 21.85 40.9 19.5 39.35 18.35 L39.55 18.5 39.0 18.0 Q39.7 17.0 39.7 15.5 L39.7 15.25 Q39.65 14.0 39.0 13.05 L38.25 12.2 Q36.8 10.5 33.7 10.5 Z" fill="none" stroke="#000000" stroke-linecap="round" stroke-linejoin="round" stroke-width="3.0"/>
    <path d="M33.7 10.5 Q36.8 10.5 38.25 12.2 L39.0 13.05 Q39.65 14.0 39.7 15.25 L39.7 15.5 Q39.7 17.0 39.0 18.0 L39.55 18.5 39.35 18.35 Q40.9 19.5 40.9 21.85 41.0 24.15 38.75 25.85 L38.65 25.95 38.3 26.2 Q39.3 27.2 39.35 28.8 L39.15 30.2 37.8 36.35 38.25 36.25 Q38.6 33.55 40.3 30.85 41.95 27.9 44.7 26.2 L44.7 26.25 Q47.0 24.75 49.5 24.75 51.45 24.7 53.45 26.1 55.65 24.75 57.1 24.85 58.8 24.85 59.9 26.05 L59.85 26.0 Q60.6 26.7 60.8 27.75 L62.15 21.45 62.2 21.25 62.3 20.9 Q61.85 20.6 61.65 20.1 61.35 19.5 61.5 18.85 61.65 18.2 62.1 17.8 63.45 16.5 65.35 15.75 L65.4 15.7 Q67.2 14.9 69.0 14.9 70.85 14.9 72.0 15.95 L72.05 16.0 Q73.35 17.1 73.35 19.1 L73.1 20.4 72.1 25.15 74.85 24.75 Q77.15 24.75 78.65 26.1 80.55 27.4 80.6 29.95 L80.45 31.8 80.4 31.8 79.45 36.3 79.7 36.15 80.05 35.8 79.9 35.95 Q80.75 34.9 82.0 34.6 81.35 33.3 81.35 31.9 81.3 28.95 84.05 26.75 86.2 24.85 89.95 24.85 93.25 24.85 95.4 25.95 L95.45 26.0 Q97.95 27.35 98.4 29.15 100.1 27.1 102.5 25.9 L102.55 25.85 Q105.15 24.6 107.95 24.6 111.45 24.6 113.65 26.55 L113.7 26.55 Q115.1 27.8 115.5 29.5 116.95 27.5 119.15 26.3 121.8 24.85 124.9 24.85 128.95 24.85 131.45 27.55 L131.55 27.6 132.65 28.95 132.65 28.8 Q132.8 28.15 133.25 27.75 134.65 26.45 136.55 25.65 138.5 24.85 140.15 24.85 142.05 24.85 143.15 25.95 L143.7 26.5 143.85 26.4 143.9 26.4 143.9 26.35 Q145.85 24.85 148.15 24.85 150.25 24.85 151.7 26.15 L151.8 26.25 152.9 27.9 153.45 27.45 Q157.1 24.75 161.5 24.75 165.15 24.75 167.05 26.75 L166.95 26.7 Q168.4 28.0 168.75 29.7 169.7 26.45 174.0 25.15 178.65 23.75 182.55 25.8 185.8 27.5 185.8 29.35 185.8 30.6 185.35 31.85 184.75 33.5 183.7 33.95 184.3 34.75 184.35 38.4 184.35 40.1 182.15 42.25 179.25 45.15 174.7 45.15 170.95 45.15 168.35 44.3 165.9 43.55 165.8 42.5 161.85 45.35 157.75 45.3 153.3 45.3 150.85 42.55 L150.8 42.55 Q148.6 40.1 148.6 36.55 L148.6 36.45 147.0 36.65 Q145.25 36.65 144.05 35.75 L143.8 35.55 143.75 35.5 Q143.05 36.55 142.6 38.55 L142.2 40.25 Q141.7 42.35 140.65 43.35 140.1 44.1 138.95 44.4 L137.15 44.8 135.5 44.8 Q134.75 44.85 133.9 45.45 L132.75 45.8 Q132.15 45.8 131.65 45.45 131.1 45.1 130.9 44.55 130.65 44.0 130.8 43.4 L131.45 40.5 Q129.95 42.65 127.5 43.95 L127.45 43.95 Q125.0 45.15 121.9 45.15 116.95 45.15 114.6 41.8 L114.5 41.65 114.25 41.2 113.55 41.8 Q109.4 45.45 104.85 45.4 100.5 45.35 97.9 42.25 L97.9 42.3 96.65 40.55 Q95.8 42.2 93.95 43.5 91.5 45.3 87.25 45.3 82.85 45.3 80.65 43.3 L80.5 43.15 80.15 43.15 80.1 43.15 Q77.25 45.15 74.05 45.15 71.7 45.15 70.0 43.85 L69.85 43.75 Q68.8 42.8 68.4 41.65 67.15 44.95 63.6 44.8 L62.15 44.8 61.95 44.8 Q61.35 44.8 60.75 45.35 60.25 45.75 59.6 45.8 58.95 45.85 58.4 45.5 57.85 45.15 57.65 44.6 57.35 44.0 57.5 43.4 L56.6 45.5 Q55.55 47.6 53.85 49.25 L53.9 49.2 Q49.8 53.45 44.3 53.45 40.7 53.45 38.7 51.45 36.75 49.6 36.75 47.05 36.75 45.05 37.8 43.7 L37.9 43.55 Q35.1 45.2 32.4 45.15 30.15 45.15 28.5 43.85 L28.35 43.75 Q26.8 42.3 26.6 40.65 L26.2 41.3 Q25.05 43.0 23.55 44.15 L23.4 44.2 Q21.45 45.4 19.35 45.4 L16.85 44.95 16.5 44.75 Q15.25 44.0 14.5 42.8 13.35 41.4 13.35 38.75 13.35 35.95 14.2 32.95 L14.25 32.75 Q13.6 33.6 13.15 35.25 L13.15 35.2 Q12.2 38.6 11.25 40.65 10.2 42.85 8.55 44.75 6.65 47.1 3.8 48.45 L3.9 48.45 Q0.45 50.2 -3.55 50.2 -9.4 50.2 -12.3 46.65 -14.85 43.65 -14.85 39.65 -14.9 33.65 -9.25 30.2 L-9.2 30.2 Q-7.35 29.05 -5.3 28.55 L-5.75 28.0 Q-7.6 25.65 -7.6 22.75 -7.65 20.25 -5.95 17.75 L-6.0 17.8 Q-5.1 16.3 -3.8 15.25 -1.6 13.45 1.65 13.05 L3.45 12.95 5.3 13.05 6.75 13.3 6.85 13.35 Q8.2 13.7 11.15 14.8 L11.2 14.8 12.45 15.25 14.25 15.9 15.45 15.25 16.1 15.0 16.15 15.0 Q17.8 14.5 19.1 14.5 20.65 14.5 21.85 15.25 L22.1 15.45 22.15 15.5 22.7 16.0 23.45 15.25 Q24.75 14.0 26.3 13.05 L27.65 12.3 Q30.8 10.45 33.7 10.5 M50.4 31.15 Q50.9 31.15 51.3 31.5 51.7 31.9 51.7 32.45 51.7 33.6 50.9 34.5 50.15 35.55 49.25 35.55 48.6 35.55 48.2 35.0 47.8 34.65 47.95 34.0 47.95 32.95 48.7 31.9 49.5 31.0 50.4 31.15 M50.0 33.0 L49.95 32.95 49.95 33.0 50.0 33.0 M50.1 33.15 L50.2 33.25 50.3 33.15 50.1 33.15 M38.9 21.85 Q38.9 20.55 38.1 19.9 37.2 19.0 35.65 19.0 33.85 19.0 32.55 20.15 31.25 21.2 31.25 22.6 31.25 23.9 32.0 24.65 32.8 25.45 34.2 25.45 36.05 25.45 37.45 24.3 38.9 23.25 38.9 21.85 M35.0 18.05 Q36.15 18.05 36.95 17.3 37.7 16.65 37.7 15.5 37.7 14.3 36.8 13.55 35.8 12.5 33.7 12.5 31.25 12.5 28.55 14.05 25.8 15.5 23.75 17.8 20.4 21.7 18.2 27.15 16.9 26.5 16.25 26.5 15.35 26.5 13.55 27.4 14.7 23.4 16.0 21.45 L19.1 20.9 Q20.25 20.65 20.9 19.9 21.55 19.25 21.55 18.35 21.55 17.55 20.9 17.05 20.15 16.5 19.1 16.5 L16.75 16.9 Q15.6 17.3 14.55 18.05 L10.45 16.65 6.3 15.25 3.45 14.95 Q-1.85 14.95 -4.3 18.85 -5.6 20.8 -5.6 22.75 -5.6 24.95 -4.2 26.75 -2.65 28.95 0.2 28.95 3.05 28.95 5.9 27.0 7.85 25.6 7.85 24.4 7.85 23.65 6.95 23.65 L6.15 23.65 5.65 23.4 5.4 22.75 Q5.4 21.95 6.15 21.45 6.8 20.9 7.95 20.9 L11.7 21.45 Q10.3 23.25 9.4 25.7 L7.45 30.5 6.3 32.7 4.1 35.3 Q3.05 36.05 1.65 36.05 0.6 36.05 -0.05 35.4 -0.8 34.9 -0.8 34.0 L-0.55 32.95 0.35 31.25 Q0.35 30.1 -1.75 30.1 -5.2 30.1 -8.2 31.9 -12.85 34.75 -12.85 39.65 -12.85 42.9 -10.8 45.35 -8.35 48.2 -3.55 48.2 -0.05 48.2 2.95 46.65 5.4 45.5 7.05 43.4 8.5 41.75 9.4 39.8 10.3 37.85 11.2 34.65 11.85 32.45 12.75 31.4 13.55 30.5 14.8 30.5 15.6 30.5 16.0 30.9 16.5 31.25 16.5 31.9 L16.1 33.45 Q15.35 36.2 15.35 38.75 15.35 40.6 16.1 41.6 16.65 42.5 17.55 43.05 L19.35 43.4 Q20.9 43.4 22.35 42.5 23.6 41.6 24.5 40.2 25.95 38.0 25.95 35.65 25.95 34.35 25.05 34.35 24.8 34.35 24.65 34.5 L23.25 35.3 Q22.7 35.3 22.35 34.75 22.05 34.1 22.05 32.95 22.05 28.8 24.8 23.4 26.35 20.55 27.9 19.1 29.55 17.7 31.4 17.7 L33.3 17.95 35.0 18.05 M49.5 26.75 Q47.55 26.75 45.75 27.9 43.4 29.35 42.0 31.9 40.15 34.9 40.15 37.85 40.15 39.95 41.2 41.6 42.35 43.3 44.45 43.3 45.75 43.3 47.05 42.5 48.2 41.75 50.0 39.65 49.35 42.15 48.6 43.4 47.8 44.45 46.65 45.1 45.45 45.75 44.45 45.75 43.15 45.75 42.25 44.7 41.7 44.2 41.6 43.15 40.05 43.95 39.4 44.85 38.75 45.75 38.75 47.05 38.75 48.75 40.05 50.0 41.6 51.45 44.3 51.45 48.95 51.45 52.45 47.8 53.9 46.4 54.8 44.6 55.7 42.8 56.35 40.2 L58.8 29.45 58.9 28.7 Q58.9 27.9 58.4 27.4 57.9 26.85 57.1 26.85 55.7 26.85 53.35 28.55 51.4 26.75 49.5 26.75 M26.6 24.3 L26.55 24.35 Q24.25 28.95 24.05 32.5 L25.05 32.35 Q27.1 32.15 27.7 33.85 L28.25 31.45 28.35 30.85 Q27.85 30.55 27.65 30.05 27.35 29.4 27.5 28.8 27.65 28.1 28.15 27.7 L30.5 26.0 Q29.25 24.75 29.25 22.6 29.2 21.25 29.95 20.15 L29.2 20.65 Q27.9 21.9 26.6 24.3 M141.8 27.4 Q141.2 26.85 140.15 26.85 138.85 26.85 137.3 27.5 L137.15 27.6 Q135.7 28.2 134.6 29.2 135.5 29.7 135.5 30.5 L135.35 31.9 132.75 43.8 Q134.2 42.8 135.5 42.8 L137.15 42.8 138.2 42.5 Q138.85 42.4 139.1 42.0 139.9 41.35 140.25 39.8 L140.65 38.1 Q141.2 35.65 142.1 34.35 143.0 33.1 144.55 32.05 L144.55 32.7 Q144.55 33.45 145.2 34.1 145.95 34.65 147.0 34.65 148.4 34.65 149.6 33.6 151.25 32.05 151.25 29.85 151.25 28.55 150.35 27.65 149.45 26.85 148.15 26.85 146.35 26.85 144.8 28.15 144.0 28.55 142.35 30.25 L142.45 28.8 Q142.45 27.9 141.8 27.4 M130.05 28.95 Q128.1 26.85 124.9 26.85 122.3 26.85 120.1 28.05 117.75 29.35 116.35 31.8 115.05 33.85 115.05 36.2 115.05 38.65 116.2 40.6 118.05 43.15 121.9 43.15 124.5 43.15 126.55 42.15 129.0 40.85 130.3 38.5 131.75 36.2 131.75 33.45 131.75 30.6 130.05 28.95 M125.15 34.65 Q124.35 35.4 123.6 35.4 122.95 35.4 122.55 35.0 122.15 34.5 122.15 33.7 122.15 32.7 122.8 31.8 123.45 30.9 124.35 31.0 125.8 31.0 125.8 32.7 125.8 33.7 125.15 34.65 M99.65 30.75 Q97.6 33.45 97.6 36.45 97.6 38.9 99.4 40.95 101.45 43.4 104.85 43.4 108.7 43.4 112.2 40.3 114.3 38.65 114.3 37.45 114.3 36.45 113.25 36.45 L112.1 36.7 109.9 37.6 108.6 37.75 Q106.9 37.75 106.0 36.7 104.95 35.65 104.95 34.0 104.95 30.9 108.05 29.7 107.4 30.9 107.4 31.5 107.4 32.7 108.2 33.45 108.95 34.25 110.15 34.25 111.7 34.25 112.6 33.35 113.65 32.45 113.65 30.9 113.65 29.2 112.35 28.05 110.65 26.6 107.95 26.6 105.6 26.6 103.4 27.65 101.2 28.8 99.65 30.75 M59.45 43.8 Q60.85 42.65 62.15 42.8 L63.6 42.8 Q66.05 42.9 66.7 40.3 L67.7 35.65 Q68.1 34.0 68.6 33.35 69.25 32.55 70.2 32.55 70.7 32.55 70.95 32.95 71.35 33.2 71.35 33.7 L71.2 34.65 70.2 38.9 Q70.05 39.3 70.05 39.8 70.05 41.2 71.2 42.25 72.4 43.15 74.05 43.15 76.65 43.15 78.95 41.5 L80.8 39.8 Q80.9 40.85 81.95 41.75 83.75 43.3 87.25 43.3 90.75 43.3 92.8 41.85 95.4 40.05 95.4 37.2 95.4 34.75 92.15 32.95 L90.2 31.8 Q89.45 31.25 89.45 30.75 89.45 30.35 89.7 30.25 89.95 29.95 90.2 29.95 90.85 29.95 91.9 31.0 93.35 32.3 94.35 32.3 95.15 32.3 95.8 31.65 96.45 31.15 96.45 30.25 96.45 28.8 94.5 27.75 92.7 26.85 89.95 26.85 87.0 26.85 85.3 28.3 83.35 29.85 83.35 31.9 83.35 33.45 84.55 34.75 L87.0 36.7 89.2 38.1 89.45 38.9 89.2 39.55 88.55 39.8 Q87.65 39.8 86.6 38.65 L85.3 37.35 Q84.25 36.45 83.1 36.45 82.05 36.45 81.45 37.2 80.9 37.75 80.8 38.65 L80.65 38.5 80.25 38.25 79.25 38.65 78.45 38.75 Q77.95 38.75 77.55 38.4 77.15 38.0 77.15 37.45 L77.4 36.2 78.45 31.4 78.6 29.95 Q78.6 28.4 77.4 27.65 76.4 26.75 74.85 26.75 L72.5 27.15 Q71.45 27.65 69.25 29.05 L71.2 19.75 71.35 19.1 Q71.35 18.05 70.7 17.45 70.05 16.9 69.0 16.9 67.6 16.9 66.15 17.55 64.6 18.2 63.45 19.25 64.35 19.75 64.35 20.65 L64.1 21.85 59.45 43.8 M29.45 29.2 Q30.35 29.7 30.35 30.6 L30.2 31.9 28.65 38.65 28.55 39.95 Q28.55 41.2 29.7 42.25 30.85 43.15 32.4 43.15 34.85 43.15 37.35 41.5 39.25 40.05 39.25 38.9 L39.15 38.4 38.6 38.25 37.6 38.5 36.95 38.65 Q35.65 38.65 35.65 37.35 L35.8 36.2 37.2 29.6 37.35 28.8 Q37.35 27.9 36.7 27.4 36.05 26.75 34.85 26.75 32.3 26.75 29.45 29.2 M133.5 31.0 L133.5 30.9 133.45 30.85 133.5 31.0 M166.9 31.0 Q166.9 29.35 165.6 28.15 164.2 26.75 161.5 26.75 157.75 26.75 154.65 29.05 150.6 32.15 150.6 36.55 150.6 39.3 152.3 41.2 154.25 43.3 157.75 43.3 161.6 43.3 165.35 40.3 167.45 38.65 167.45 37.35 L167.15 36.7 166.55 36.45 165.5 36.7 Q163.4 38.0 162.25 38.4 L160.05 38.9 Q159.15 38.9 158.65 38.4 158.0 37.85 158.0 37.2 L158.0 36.95 Q160.85 36.7 162.8 35.9 166.9 34.1 166.9 31.0 M167.8 34.7 L168.05 34.85 168.8 34.25 168.7 32.9 167.8 34.7 M159.4 31.15 Q160.05 30.35 160.85 30.35 L161.5 30.6 161.75 31.25 Q161.75 32.7 158.4 33.2 158.75 31.9 159.4 31.15 M172.5 37.35 Q171.45 36.45 170.3 36.45 169.25 36.45 168.6 37.2 167.8 38.0 167.8 39.15 167.8 40.6 169.1 41.75 170.9 43.3 174.4 43.3 177.9 43.3 180.0 41.85 182.55 40.05 182.55 37.2 182.55 34.75 179.35 32.95 L177.4 31.8 Q176.6 31.25 176.6 30.75 176.6 30.35 176.85 30.25 L177.4 29.95 Q178.05 29.95 179.05 31.0 180.5 32.3 181.55 32.3 182.3 32.3 182.95 31.65 183.6 31.15 183.6 30.25 183.6 28.8 181.65 27.75 179.85 26.85 177.15 26.85 174.15 26.85 172.5 28.3 170.55 29.85 170.55 31.9 170.55 33.45 171.7 34.75 L174.15 36.7 176.35 38.1 176.6 38.9 176.35 39.55 175.7 39.8 Q174.8 39.8 173.75 38.65 L172.5 37.35 M2.4 30.75 L2.35 31.25 Q2.55 31.95 1.25 33.9 L1.4 34.0 1.65 34.05 2.85 33.75 4.55 31.8 5.7 29.55 5.65 29.7 5.75 29.45 2.4 30.75 M17.15 24.6 L17.75 23.3 17.25 23.35 16.7 24.5 17.15 24.6" fill="#ffffff" fill-rule="evenodd" stroke="none"/>
    <path d="M50.4 31.15 Q49.5 31.0 48.7 31.9 47.95 32.95 47.95 34.0 47.8 34.65 48.2 35.0 48.6 35.55 49.25 35.55 50.15 35.55 50.9 34.5 51.7 33.6 51.7 32.45 51.7 31.9 51.3 31.5 50.9 31.15 50.4 31.15 M49.5 26.75 Q51.4 26.75 53.35 28.55 55.7 26.85 57.1 26.85 57.9 26.85 58.4 27.4 58.9 27.9 58.9 28.7 L58.8 29.45 56.35 40.2 Q55.7 42.8 54.8 44.6 53.9 46.4 52.45 47.8 48.95 51.45 44.3 51.45 41.6 51.45 40.05 50.0 38.75 48.75 38.75 47.05 38.75 45.75 39.4 44.85 40.05 43.95 41.6 43.15 41.7 44.2 42.25 44.7 43.15 45.75 44.45 45.75 45.45 45.75 46.65 45.1 47.8 44.45 48.6 43.4 49.35 42.15 50.0 39.65 48.2 41.75 47.05 42.5 45.75 43.3 44.45 43.3 42.35 43.3 41.2 41.6 40.15 39.95 40.15 37.85 40.15 34.9 42.0 31.9 43.4 29.35 45.75 27.9 47.55 26.75 49.5 26.75 M35.0 18.05 L33.3 17.95 31.4 17.7 Q29.55 17.7 27.9 19.1 26.35 20.55 24.8 23.4 22.05 28.8 22.05 32.95 22.05 34.1 22.35 34.75 22.7 35.3 23.25 35.3 L24.65 34.5 Q24.8 34.35 25.05 34.35 25.95 34.35 25.95 35.65 25.95 38.0 24.5 40.2 23.6 41.6 22.35 42.5 20.9 43.4 19.35 43.4 L17.55 43.05 Q16.65 42.5 16.1 41.6 15.35 40.6 15.35 38.75 15.35 36.2 16.1 33.45 L16.5 31.9 Q16.5 31.25 16.0 30.9 15.6 30.5 14.8 30.5 13.55 30.5 12.75 31.4 11.85 32.45 11.2 34.65 10.3 37.85 9.4 39.8 8.5 41.75 7.05 43.4 5.4 45.5 2.95 46.65 -0.05 48.2 -3.55 48.2 -8.35 48.2 -10.8 45.35 -12.85 42.9 -12.85 39.65 -12.85 34.75 -8.2 31.9 -5.2 30.1 -1.75 30.1 0.35 30.1 0.35 31.25 L-0.55 32.95 -0.8 34.0 Q-0.8 34.9 -0.05 35.4 0.6 36.05 1.65 36.05 3.05 36.05 4.1 35.3 L6.3 32.7 7.45 30.5 9.4 25.7 Q10.3 23.25 11.7 21.45 L7.95 20.9 Q6.8 20.9 6.15 21.45 5.4 21.95 5.4 22.75 L5.65 23.4 6.15 23.65 6.95 23.65 Q7.85 23.65 7.85 24.4 7.85 25.6 5.9 27.0 3.05 28.95 0.2 28.95 -2.65 28.95 -4.2 26.75 -5.6 24.95 -5.6 22.75 -5.6 20.8 -4.3 18.85 -1.85 14.95 3.45 14.95 L6.3 15.25 10.45 16.65 14.55 18.05 Q15.6 17.3 16.75 16.9 L19.1 16.5 Q20.15 16.5 20.9 17.05 21.55 17.55 21.55 18.35 21.55 19.25 20.9 19.9 20.25 20.65 19.1 20.9 L16.0 21.45 Q14.7 23.4 13.55 27.4 15.35 26.5 16.25 26.5 16.9 26.5 18.2 27.15 20.4 21.7 23.75 17.8 25.8 15.5 28.55 14.05 31.25 12.5 33.7 12.5 35.8 12.5 36.8 13.55 37.7 14.3 37.7 15.5 37.7 16.65 36.95 17.3 36.15 18.05 35.0 18.05 M38.9 21.85 Q38.9 23.25 37.45 24.3 36.05 25.45 34.2 25.45 32.8 25.45 32.0 24.65 31.25 23.9 31.25 22.6 31.25 21.2 32.55 20.15 33.85 19.0 35.65 19.0 37.2 19.0 38.1 19.9 38.9 20.55 38.9 21.85 M29.45 29.2 Q32.3 26.75 34.85 26.75 36.05 26.75 36.7 27.4 37.35 27.9 37.35 28.8 L37.2 29.6 35.8 36.2 35.65 37.35 Q35.65 38.65 36.95 38.65 L37.6 38.5 38.6 38.25 39.15 38.4 39.25 38.9 Q39.25 40.05 37.35 41.5 34.85 43.15 32.4 43.15 30.85 43.15 29.7 42.25 28.55 41.2 28.55 39.95 L28.65 38.65 30.2 31.9 30.35 30.6 Q30.35 29.7 29.45 29.2 M59.45 43.8 L64.1 21.85 64.35 20.65 Q64.35 19.75 63.45 19.25 64.6 18.2 66.15 17.55 67.6 16.9 69.0 16.9 70.05 16.9 70.7 17.45 71.35 18.05 71.35 19.1 L71.2 19.75 69.25 29.05 Q71.45 27.65 72.5 27.15 L74.85 26.75 Q76.4 26.75 77.4 27.65 78.6 28.4 78.6 29.95 L78.45 31.4 77.4 36.2 77.15 37.45 Q77.15 38.0 77.55 38.4 77.95 38.75 78.45 38.75 L79.25 38.65 80.25 38.25 80.65 38.5 80.8 38.65 Q80.9 37.75 81.45 37.2 82.05 36.45 83.1 36.45 84.25 36.45 85.3 37.35 L86.6 38.65 Q87.65 39.8 88.55 39.8 L89.2 39.55 89.45 38.9 89.2 38.1 87.0 36.7 84.55 34.75 Q83.35 33.45 83.35 31.9 83.35 29.85 85.3 28.3 87.0 26.85 89.95 26.85 92.7 26.85 94.5 27.75 96.45 28.8 96.45 30.25 96.45 31.15 95.8 31.65 95.15 32.3 94.35 32.3 93.35 32.3 91.9 31.0 90.85 29.95 90.2 29.95 89.95 29.95 89.7 30.25 89.45 30.35 89.45 30.75 89.45 31.25 90.2 31.8 L92.15 32.95 Q95.4 34.75 95.4 37.2 95.4 40.05 92.8 41.85 90.75 43.3 87.25 43.3 83.75 43.3 81.95 41.75 80.9 40.85 80.8 39.8 L78.95 41.5 Q76.65 43.15 74.05 43.15 72.4 43.15 71.2 42.25 70.05 41.2 70.05 39.8 70.05 39.3 70.2 38.9 L71.2 34.65 71.35 33.7 Q71.35 33.2 70.95 32.95 70.7 32.55 70.2 32.55 69.25 32.55 68.6 33.35 68.1 34.0 67.7 35.65 L66.7 40.3 Q66.05 42.9 63.6 42.8 L62.15 42.8 Q60.85 42.65 59.45 43.8 M99.65 30.75 Q101.2 28.8 103.4 27.65 105.6 26.6 107.95 26.6 110.65 26.6 112.35 28.05 113.65 29.2 113.65 30.9 113.65 32.45 112.6 33.35 111.7 34.25 110.15 34.25 108.95 34.25 108.2 33.45 107.4 32.7 107.4 31.5 107.4 30.9 108.05 29.7 104.95 30.9 104.95 34.0 104.95 35.65 106.0 36.7 106.9 37.75 108.6 37.75 L109.9 37.6 112.1 36.7 113.25 36.45 Q114.3 36.45 114.3 37.45 114.3 38.65 112.2 40.3 108.7 43.4 104.85 43.4 101.45 43.4 99.4 40.95 97.6 38.9 97.6 36.45 97.6 33.45 99.65 30.75 M125.15 34.65 Q125.8 33.7 125.8 32.7 125.8 31.0 124.35 31.0 123.45 30.9 122.8 31.8 122.15 32.7 122.15 33.7 122.15 34.5 122.55 35.0 122.95 35.4 123.6 35.4 124.35 35.4 125.15 34.65 M130.05 28.95 Q131.75 30.6 131.75 33.45 131.75 36.2 130.3 38.5 129.0 40.85 126.55 42.15 124.5 43.15 121.9 43.15 118.05 43.15 116.2 40.6 115.05 38.65 115.05 36.2 115.05 33.85 116.35 31.8 117.75 29.35 120.1 28.05 122.3 26.85 124.9 26.85 128.1 26.85 130.05 28.95 M141.8 27.4 Q142.45 27.9 142.45 28.8 L142.35 30.25 Q144.0 28.55 144.8 28.15 146.35 26.85 148.15 26.85 149.45 26.85 150.35 27.65 151.25 28.55 151.25 29.85 151.25 32.05 149.6 33.6 148.4 34.65 147.0 34.65 145.95 34.65 145.2 34.1 144.55 33.45 144.55 32.7 L144.55 32.05 Q143.0 33.1 142.1 34.35 141.2 35.65 140.65 38.1 L140.25 39.8 Q139.9 41.35 139.1 42.0 138.85 42.4 138.2 42.5 L137.15 42.8 135.5 42.8 Q134.2 42.8 132.75 43.8 L135.35 31.9 135.5 30.5 Q135.5 29.7 134.6 29.2 135.7 28.2 137.15 27.6 L137.3 27.5 Q138.85 26.85 140.15 26.85 141.2 26.85 141.8 27.4 M166.9 31.0 Q166.9 34.1 162.8 35.9 160.85 36.7 158.0 36.95 L158.0 37.2 Q158.0 37.85 158.65 38.4 159.15 38.9 160.05 38.9 L162.25 38.4 Q163.4 38.0 165.5 36.7 L166.55 36.45 167.15 36.7 167.45 37.35 Q167.45 38.65 165.35 40.3 161.6 43.3 157.75 43.3 154.25 43.3 152.3 41.2 150.6 39.3 150.6 36.55 150.6 32.15 154.65 29.05 157.75 26.75 161.5 26.75 164.2 26.75 165.6 28.15 166.9 29.35 166.9 31.0 M172.5 37.35 L173.75 38.65 Q174.8 39.8 175.7 39.8 L176.35 39.55 176.6 38.9 176.35 38.1 174.15 36.7 171.7 34.75 Q170.55 33.45 170.55 31.9 170.55 29.85 172.5 28.3 174.15 26.85 177.15 26.85 179.85 26.85 181.65 27.75 183.6 28.8 183.6 30.25 183.6 31.15 182.95 31.65 182.3 32.3 181.55 32.3 180.5 32.3 179.05 31.0 178.05 29.95 177.4 29.95 L176.85 30.25 Q176.6 30.35 176.6 30.75 176.6 31.25 177.4 31.8 L179.35 32.95 Q182.55 34.75 182.55 37.2 182.55 40.05 180.0 41.85 177.9 43.3 174.4 43.3 170.9 43.3 169.1 41.75 167.8 40.6 167.8 39.15 167.8 38.0 168.6 37.2 169.25 36.45 170.3 36.45 171.45 36.45 172.5 37.35 M159.4 31.15 Q158.75 31.9 158.4 33.2 161.75 32.7 161.75 31.25 L161.5 30.6 160.85 30.35 Q160.05 30.35 159.4 31.15" fill="#0099cc" fill-rule="evenodd" stroke="none"/>
    <path d="M204.25 35.4 Q75.4 54.9 -43.6 35.4 L-43.8 34.25 Q-43.3 22.45 -8.55 13.85 28.3 4.95 80.25 4.95 132.2 4.95 168.95 13.85 203.7 22.45 204.3 34.25 L204.25 35.4" fill="url(#gradient0)" fill-rule="evenodd" stroke="none"/>
  </g>
  <defs>
    <linearGradient gradientTransform="matrix(0.0, 0.0198, -0.1514, 0.0, 80.25, 25.25)" gradientUnits="userSpaceOnUse" id="gradient0" spreadMethod="pad" x1="-819.2" x2="819.2">
      <stop offset="0.0" stop-color="#ffffff" stop-opacity="0.7019608"/>
      <stop offset="1.0" stop-color="#ffffff" stop-opacity="0.101960786"/>
    </linearGradient>
  </defs>
</svg>
