<?xml version="1.0" encoding="UTF-8" standalone="no"?>
<svg xmlns:xlink="http://www.w3.org/1999/xlink" height="33.1px" width="54.8px" xmlns="http://www.w3.org/2000/svg">
  <g transform="matrix(1.0, 0.0, 0.0, 1.0, 0.0, 0.0)">
    <path d="M0.0 1.6 L0.0 0.0 1.4 0.0 24.75 13.15 21.0 13.15 0.0 1.6 M25.4 0.05 L29.35 0.05 29.35 14.7 54.75 14.7 54.75 18.4 29.4 18.4 29.4 33.1 25.45 33.1 25.45 18.4 0.15 18.4 0.15 14.7 25.45 14.7 25.4 0.05 M53.35 0.0 L54.75 0.0 54.75 1.6 33.6 13.15 30.0 13.15 49.95 2.1 50.0 2.1 51.65 1.15 51.7 1.15 53.35 0.0 M54.8 31.55 L54.8 33.1 53.4 33.1 51.75 32.0 51.7 32.0 50.05 31.05 50.0 31.05 30.05 20.0 33.8 20.0 54.8 31.55 M1.45 33.1 L0.05 33.1 0.05 31.55 Q10.55 25.8 21.0 20.0 L24.8 20.0 1.45 33.1" fill="#cc0000" fill-rule="evenodd" stroke="none"/>
    <path d="M0.1 3.45 L0.0 3.4 0.0 1.6 21.0 13.15 24.75 13.15 1.4 0.0 5.9 0.05 23.75 10.0 23.75 0.05 25.4 0.05 25.45 14.7 0.15 14.7 0.1 14.7 0.1 13.3 17.8 13.3 0.1 3.45 M29.35 0.05 L31.0 0.05 31.0 10.0 48.85 0.05 53.35 0.0 51.7 1.15 51.65 1.15 50.0 2.1 49.95 2.1 30.0 13.15 33.6 13.15 54.75 1.6 54.75 3.4 54.7 3.45 37.0 13.3 54.7 13.3 54.7 13.6 54.75 13.6 54.75 14.7 29.35 14.7 29.35 0.05 M54.75 18.4 L54.75 19.85 37.05 19.85 54.75 29.7 54.8 29.7 54.8 31.55 33.8 20.0 30.05 20.0 50.0 31.05 50.05 31.05 51.7 32.0 51.75 32.0 53.4 33.1 48.9 33.1 31.05 23.15 31.05 33.1 29.4 33.1 29.4 18.4 54.75 18.4 M25.45 33.1 L23.8 33.1 23.8 23.15 5.95 33.1 1.45 33.1 24.8 20.0 21.0 20.0 Q10.55 25.8 0.05 31.55 L0.05 29.7 0.15 29.7 17.85 19.85 0.15 19.85 0.15 18.4 25.45 18.4 25.45 33.1" fill="#ffffff" fill-rule="evenodd" stroke="none"/>
    <path d="M5.9 0.05 L23.75 0.05 23.75 10.0 5.9 0.05 M31.0 0.05 L48.85 0.05 31.0 10.0 31.0 0.05 M54.7 3.45 L54.7 13.3 37.0 13.3 54.7 3.45 M54.75 19.85 L54.75 29.7 37.05 19.85 54.75 19.85 M48.9 33.1 L31.05 33.1 31.05 23.15 48.9 33.1 M23.8 33.1 L5.95 33.1 23.8 23.15 23.8 33.1 M0.15 29.7 L0.15 19.85 17.85 19.85 0.15 29.7 M0.1 13.3 L0.1 3.45 17.8 13.3 0.1 13.3" fill="#003399" fill-rule="evenodd" stroke="none"/>
  </g>
</svg>
