<?xml version="1.0" encoding="UTF-8" standalone="no"?>
<svg xmlns:xlink="http://www.w3.org/1999/xlink" height="36.65px" width="36.65px" xmlns="http://www.w3.org/2000/svg">
  <g transform="matrix(1.0, 0.0, 0.0, 1.0, -3.4, 1.9)">
    <path d="M22.75 -1.85 Q27.6 -1.6 31.45 0.8 L31.5 0.85 Q33.2 1.95 34.75 3.45 L34.95 3.65 34.95 3.7 Q36.25 5.0 37.2 6.45 L37.2 6.5 38.65 9.3 39.6 12.1 39.6 12.2 40.0 14.95 40.05 16.45 40.05 17.65 40.05 17.8 39.65 20.55 39.65 20.6 38.75 23.45 38.75 23.4 37.3 26.25 37.3 26.3 35.05 29.1 35.05 29.15 34.75 29.45 Q33.35 30.8 31.8 31.85 L31.75 31.9 Q27.65 34.55 22.5 34.75 L22.4 34.75 21.15 34.75 21.1 34.75 Q15.9 34.55 11.8 31.9 L11.8 31.85 8.85 29.45 8.8 29.45 8.5 29.15 8.45 29.1 6.25 26.3 Q5.3 24.95 4.75 23.45 L4.75 23.35 3.85 20.6 3.85 20.55 3.45 17.85 3.4 16.45 Q3.4 8.9 8.8 3.45 14.2 -1.9 21.75 -1.9 L22.9 -1.85 22.75 -1.85" fill="#ffffff" fill-rule="evenodd" stroke="none"/>
  </g>
</svg>
