<?xml version="1.0" encoding="UTF-8" standalone="no"?>
<svg xmlns:xlink="http://www.w3.org/1999/xlink" height="32.65px" width="32.65px" xmlns="http://www.w3.org/2000/svg">
  <g transform="matrix(1.0, 0.0, 0.0, 1.0, -5.4, -0.1)">
    <path d="M36.8 10.05 L37.65 12.6 38.0 15.1 38.05 16.45 38.05 17.65 37.7 20.15 36.9 22.65 35.6 25.2 33.6 27.7 33.3 28.0 30.65 30.2 Q27.0 32.6 22.4 32.75 L21.15 32.75 Q16.55 32.6 12.9 30.2 11.5 29.25 10.2 28.0 L9.9 27.7 Q8.75 26.5 7.9 25.2 7.1 24.0 6.6 22.65 L5.8 20.15 Q5.55 18.95 5.45 17.65 L5.4 16.45 Q5.4 9.7 10.2 4.85 15.0 0.1 21.75 0.1 L22.65 0.15 Q26.95 0.35 30.4 2.5 31.95 3.5 33.3 4.85 L33.5 5.05 35.5 7.55 Q36.25 8.75 36.8 10.05" fill="#ff3399" fill-rule="evenodd" stroke="none"/>
  </g>
</svg>
