<?xml version="1.0" encoding="UTF-8" standalone="no"?>
<svg xmlns:xlink="http://www.w3.org/1999/xlink" height="32.75px" width="50.35px" xmlns="http://www.w3.org/2000/svg">
  <g transform="matrix(1.0, 0.0, 0.0, 1.0, 0.0, 0.0)">
    <path d="M50.35 2.5 L50.35 5.05 22.65 5.05 22.65 2.5 50.35 2.5 M50.35 7.55 L50.35 10.05 22.65 10.05 22.65 7.55 50.35 7.55 M50.35 12.6 L50.35 15.1 22.65 15.1 22.65 12.6 50.35 12.6 M50.35 17.65 L50.35 20.15 0.0 20.15 0.0 17.65 22.65 17.65 50.35 17.65 M50.35 22.65 L50.35 25.2 0.0 25.2 0.0 22.65 50.35 22.65 M50.35 27.7 L50.35 30.2 0.0 30.2 0.0 27.7 50.35 27.7 M1.85 1.3 L2.0 1.8 2.55 1.8 2.1 2.1 2.25 2.6 1.85 2.3 1.4 2.6 1.55 2.1 1.1 1.8 1.65 1.8 1.8 1.3 1.85 1.3 M1.55 5.4 L1.1 5.1 1.65 5.1 1.8 4.65 1.85 4.65 2.0 5.1 2.55 5.1 2.1 5.4 2.25 5.95 1.85 5.6 1.4 5.95 1.55 5.4 M1.4 9.25 L1.55 8.75 1.1 8.4 1.65 8.4 1.8 7.95 1.85 7.95 2.0 8.4 2.55 8.4 2.1 8.75 2.25 9.25 1.85 8.95 1.4 9.25 M1.55 12.05 L1.1 11.7 1.65 11.7 1.8 11.25 1.85 11.25 2.0 11.7 2.55 11.7 2.1 12.05 2.25 12.55 1.85 12.25 1.4 12.55 1.55 12.05 M1.55 15.35 L1.1 15.05 1.65 15.0 1.8 14.55 1.85 14.55 2.0 15.0 2.55 15.0 2.1 15.35 2.25 15.85 1.85 15.55 1.4 15.85 1.55 15.35 M18.9 3.7 L19.05 4.2 18.6 3.9 18.2 4.2 18.35 3.7 17.9 3.35 18.45 3.35 18.6 2.9 18.65 2.9 18.8 3.35 19.35 3.35 18.9 3.7 M20.45 1.3 L20.6 1.8 21.15 1.8 20.7 2.1 20.9 2.6 20.45 2.3 20.0 2.6 20.15 2.1 19.75 1.8 20.3 1.8 20.45 1.3 M12.85 1.8 L13.0 1.3 13.15 1.8 13.7 1.8 13.25 2.1 13.45 2.6 13.0 2.3 12.55 2.6 12.7 2.1 12.3 1.8 12.85 1.8 M14.75 3.35 L14.9 2.9 15.05 3.35 15.6 3.35 15.15 3.7 15.35 4.2 14.9 3.9 14.45 4.2 14.65 3.7 14.2 3.35 14.75 3.35 M16.7 1.3 L16.75 1.3 16.9 1.8 17.45 1.8 17.0 2.1 17.15 2.6 16.7 2.3 16.3 2.6 16.45 2.1 16.0 1.8 16.55 1.8 16.7 1.3 M16.7 4.65 L16.75 4.65 16.9 5.1 17.45 5.1 17.0 5.4 17.15 5.95 16.7 5.6 16.3 5.95 16.45 5.4 16.0 5.1 16.55 5.1 16.7 4.65 M15.05 6.65 L15.6 6.65 15.15 7.0 15.35 7.5 14.9 7.2 14.45 7.5 14.65 7.0 14.2 6.7 14.75 6.65 14.9 6.2 15.05 6.65 M13.0 4.65 L13.15 5.1 13.7 5.1 13.25 5.4 13.45 5.95 13.0 5.6 12.55 5.95 12.7 5.4 12.3 5.1 12.85 5.1 13.0 4.65 M12.85 8.4 L13.0 7.95 13.15 8.4 13.7 8.4 13.25 8.75 13.45 9.25 13.0 8.95 12.55 9.25 12.7 8.75 12.3 8.4 12.85 8.4 M14.75 10.0 L14.9 9.5 15.05 10.0 15.6 10.0 15.15 10.3 15.35 10.8 14.9 10.5 14.45 10.8 14.65 10.3 14.2 10.0 14.75 10.0 M16.9 8.4 L17.45 8.4 17.0 8.75 17.15 9.25 16.7 8.95 16.3 9.25 16.45 8.75 16.0 8.4 16.55 8.4 16.7 7.95 16.75 7.95 16.9 8.4 M20.6 5.1 L21.15 5.1 20.7 5.4 20.9 5.95 20.45 5.6 20.0 5.95 20.15 5.4 19.75 5.1 20.3 5.1 20.45 4.65 20.6 5.1 M18.9 7.0 L19.05 7.5 18.6 7.2 18.2 7.5 18.35 7.0 17.9 6.7 18.45 6.65 18.6 6.2 18.65 6.2 18.8 6.65 19.35 6.65 18.9 7.0 M18.65 9.5 L18.8 10.0 19.35 10.0 18.9 10.3 19.05 10.8 18.6 10.5 18.2 10.8 18.35 10.3 17.9 10.0 18.45 10.0 18.6 9.5 18.65 9.5 M21.15 8.4 L20.7 8.75 20.9 9.25 20.45 8.95 20.0 9.25 20.15 8.75 19.75 8.4 20.3 8.4 20.45 7.95 20.6 8.4 21.15 8.4 M8.55 1.8 L9.1 1.8 9.25 1.3 9.3 1.3 9.45 1.8 10.0 1.8 9.55 2.1 9.7 2.6 9.25 2.3 8.85 2.6 9.0 2.1 8.55 1.8 M7.75 3.7 L7.9 4.2 7.45 3.9 7.0 4.2 7.2 3.7 6.75 3.35 7.3 3.35 7.45 2.9 7.65 3.35 8.15 3.35 7.75 3.7 M11.35 3.35 L11.9 3.35 11.45 3.7 11.6 4.2 11.2 3.9 10.75 4.2 10.9 3.7 10.45 3.35 11.0 3.35 11.15 2.9 11.2 2.9 11.35 3.35 M3.75 2.9 L3.9 3.35 4.45 3.35 4.0 3.7 4.15 4.2 3.75 3.9 3.3 4.2 3.45 3.7 3.05 3.35 3.55 3.35 3.7 2.9 3.75 2.9 M5.7 1.8 L6.25 1.8 5.8 2.1 6.0 2.6 5.55 2.3 5.1 2.6 5.3 2.1 4.85 1.8 5.4 1.8 5.55 1.3 5.7 1.8 M5.7 5.1 L6.25 5.1 5.8 5.4 6.0 5.95 5.55 5.6 5.1 5.95 5.3 5.4 4.85 5.1 5.4 5.1 5.55 4.65 5.7 5.1 M4.0 7.0 L4.15 7.5 3.75 7.2 3.3 7.5 3.45 7.0 3.05 6.7 3.55 6.65 3.7 6.2 3.75 6.2 3.9 6.65 4.45 6.65 4.0 7.0 M3.7 9.5 L3.75 9.5 3.9 10.0 4.45 10.0 4.0 10.3 4.15 10.8 3.75 10.5 3.3 10.8 3.45 10.3 3.05 10.0 3.55 10.0 3.7 9.5 M5.7 8.4 L6.25 8.4 5.8 8.75 6.0 9.25 5.55 8.95 5.1 9.25 5.3 8.75 4.85 8.4 5.4 8.4 5.55 7.95 5.7 8.4 M11.2 6.2 L11.35 6.65 11.9 6.65 11.45 7.0 11.6 7.5 11.2 7.2 10.75 7.5 10.9 7.0 10.45 6.7 11.0 6.65 11.15 6.2 11.2 6.2 M9.25 4.65 L9.3 4.65 9.45 5.1 10.0 5.1 9.55 5.4 9.7 5.95 9.25 5.6 8.85 5.95 9.0 5.4 8.55 5.1 9.1 5.1 9.25 4.65 M8.15 6.65 L7.75 7.0 7.9 7.5 7.45 7.2 7.0 7.5 7.2 7.0 6.75 6.7 7.3 6.65 7.45 6.2 7.65 6.65 8.15 6.65 M9.45 8.4 L10.0 8.4 9.55 8.75 9.7 9.25 9.25 8.95 8.85 9.25 9.0 8.75 8.55 8.4 9.1 8.4 9.25 7.95 9.3 7.95 9.45 8.4 M8.15 10.0 L7.75 10.3 7.9 10.8 7.45 10.5 7.0 10.8 7.2 10.3 6.75 10.0 7.3 10.0 7.45 9.5 7.65 10.0 8.15 10.0 M11.9 10.0 L11.45 10.3 11.6 10.8 11.2 10.5 10.75 10.8 10.9 10.3 10.45 10.0 11.0 10.0 11.15 9.5 11.2 9.5 11.35 10.0 11.9 10.0 M11.2 12.8 L11.35 13.3 11.9 13.3 11.45 13.6 11.6 14.1 11.2 13.8 10.75 14.1 10.9 13.6 10.45 13.3 11.0 13.3 11.15 12.8 11.2 12.8 M9.3 11.25 L9.45 11.7 10.0 11.7 9.55 12.05 9.7 12.55 9.25 12.25 8.85 12.55 9.0 12.05 8.55 11.7 9.1 11.7 9.25 11.25 9.3 11.25 M9.3 14.55 L9.45 15.0 10.0 15.0 9.55 15.35 9.7 15.85 9.25 15.55 8.85 15.85 9.0 15.35 8.55 15.05 9.1 15.0 9.25 14.55 9.3 14.55 M8.15 13.3 L7.75 13.6 7.9 14.1 7.45 13.8 7.0 14.1 7.2 13.6 6.75 13.3 7.3 13.3 7.45 12.8 7.65 13.3 8.15 13.3 M4.85 11.7 L5.4 11.7 5.55 11.25 5.7 11.7 6.25 11.7 5.8 12.05 6.0 12.55 5.55 12.25 5.1 12.55 5.3 12.05 4.85 11.7 M3.75 12.8 L3.9 13.3 4.45 13.3 4.0 13.6 4.15 14.1 3.75 13.8 3.3 14.1 3.45 13.6 3.05 13.3 3.55 13.3 3.7 12.8 3.75 12.8 M5.3 15.35 L4.85 15.05 5.4 15.0 5.55 14.55 5.7 15.0 6.25 15.0 5.8 15.35 6.0 15.85 5.55 15.55 5.1 15.85 5.3 15.35 M20.6 11.7 L21.15 11.7 20.7 12.05 20.9 12.55 20.45 12.25 20.0 12.55 20.15 12.05 19.75 11.7 20.3 11.7 20.45 11.25 20.6 11.7 M18.65 12.8 L18.8 13.3 19.35 13.3 18.9 13.6 19.05 14.1 18.6 13.8 18.2 14.1 18.35 13.6 17.9 13.3 18.45 13.3 18.6 12.8 18.65 12.8 M20.15 15.35 L19.75 15.05 20.3 15.0 20.45 14.55 20.6 15.0 21.15 15.0 20.7 15.35 20.9 15.85 20.45 15.55 20.0 15.85 20.15 15.35 M16.75 11.25 L16.9 11.7 17.45 11.7 17.0 12.05 17.15 12.55 16.7 12.25 16.3 12.55 16.45 12.05 16.0 11.7 16.55 11.7 16.7 11.25 16.75 11.25 M13.0 12.25 L12.55 12.55 12.7 12.05 12.3 11.7 12.85 11.7 13.0 11.25 13.15 11.7 13.7 11.7 13.25 12.05 13.45 12.55 13.0 12.25 M14.2 13.3 L14.75 13.3 14.9 12.8 15.05 13.3 15.6 13.3 15.15 13.6 15.35 14.1 14.9 13.8 14.45 14.1 14.65 13.6 14.2 13.3 M12.55 15.85 L12.7 15.35 12.3 15.05 12.85 15.0 13.0 14.55 13.15 15.0 13.7 15.0 13.25 15.35 13.45 15.85 13.0 15.55 12.55 15.85 M16.75 14.55 L16.9 15.0 17.45 15.0 17.0 15.35 17.15 15.85 16.7 15.55 16.3 15.85 16.45 15.35 16.0 15.05 16.55 15.0 16.7 14.55 16.75 14.55" fill="#ffffff" fill-rule="evenodd" stroke="none"/>
    <path d="M50.35 5.05 L50.35 7.55 22.65 7.55 22.65 5.05 50.35 5.05 M50.35 10.05 L50.35 12.6 22.65 12.6 22.65 10.05 50.35 10.05 M50.35 15.1 L50.35 17.65 22.65 17.65 22.65 15.1 50.35 15.1 M50.35 20.15 L50.35 22.65 0.0 22.65 0.0 20.15 50.35 20.15 M50.35 25.2 L50.35 27.7 0.0 27.7 0.0 25.2 50.35 25.2 M50.35 30.2 L50.35 32.75 0.0 32.75 0.0 30.2 50.35 30.2 M22.65 0.0 L50.35 0.0 50.35 2.5 22.65 2.5 22.65 0.0" fill="#cc0000" fill-rule="evenodd" stroke="none"/>
    <path d="M0.0 17.65 L0.0 0.0 22.65 0.0 22.65 2.5 22.65 5.05 22.65 7.55 22.65 10.05 22.65 12.6 22.65 15.1 22.65 17.65 0.0 17.65 M16.75 14.55 L16.7 14.55 16.55 15.0 16.0 15.05 16.45 15.35 16.3 15.85 16.7 15.55 17.15 15.85 17.0 15.35 17.45 15.0 16.9 15.0 16.75 14.55 M12.55 15.85 L13.0 15.55 13.45 15.85 13.25 15.35 13.7 15.0 13.15 15.0 13.0 14.55 12.85 15.0 12.3 15.05 12.7 15.35 12.55 15.85 M14.2 13.3 L14.65 13.6 14.45 14.1 14.9 13.8 15.35 14.1 15.15 13.6 15.6 13.3 15.05 13.3 14.9 12.8 14.75 13.3 14.2 13.3 M13.0 12.25 L13.45 12.55 13.25 12.05 13.7 11.7 13.15 11.7 13.0 11.25 12.85 11.7 12.3 11.7 12.7 12.05 12.55 12.55 13.0 12.25 M16.75 11.25 L16.7 11.25 16.55 11.7 16.0 11.7 16.45 12.05 16.3 12.55 16.7 12.25 17.15 12.55 17.0 12.05 17.45 11.7 16.9 11.7 16.75 11.25 M20.15 15.35 L20.0 15.85 20.45 15.55 20.9 15.85 20.7 15.35 21.15 15.0 20.6 15.0 20.45 14.55 20.3 15.0 19.75 15.05 20.15 15.35 M18.65 12.8 L18.6 12.8 18.45 13.3 17.9 13.3 18.35 13.6 18.2 14.1 18.6 13.8 19.05 14.1 18.9 13.6 19.35 13.3 18.8 13.3 18.65 12.8 M20.6 11.7 L20.45 11.25 20.3 11.7 19.75 11.7 20.15 12.05 20.0 12.55 20.45 12.25 20.9 12.55 20.7 12.05 21.15 11.7 20.6 11.7 M5.3 15.35 L5.1 15.85 5.55 15.55 6.0 15.85 5.8 15.35 6.25 15.0 5.7 15.0 5.55 14.55 5.4 15.0 4.85 15.05 5.3 15.35 M3.75 12.8 L3.7 12.8 3.55 13.3 3.05 13.3 3.45 13.6 3.3 14.1 3.75 13.8 4.15 14.1 4.0 13.6 4.45 13.3 3.9 13.3 3.75 12.8 M4.85 11.7 L5.3 12.05 5.1 12.55 5.55 12.25 6.0 12.55 5.8 12.05 6.25 11.7 5.7 11.7 5.55 11.25 5.4 11.7 4.85 11.7 M8.15 13.3 L7.65 13.3 7.45 12.8 7.3 13.3 6.75 13.3 7.2 13.6 7.0 14.1 7.45 13.8 7.9 14.1 7.75 13.6 8.15 13.3 M9.3 14.55 L9.25 14.55 9.1 15.0 8.55 15.05 9.0 15.35 8.85 15.85 9.25 15.55 9.7 15.85 9.55 15.35 10.0 15.0 9.45 15.0 9.3 14.55 M9.3 11.25 L9.25 11.25 9.1 11.7 8.55 11.7 9.0 12.05 8.85 12.55 9.25 12.25 9.7 12.55 9.55 12.05 10.0 11.7 9.45 11.7 9.3 11.25 M11.2 12.8 L11.15 12.8 11.0 13.3 10.45 13.3 10.9 13.6 10.75 14.1 11.2 13.8 11.6 14.1 11.45 13.6 11.9 13.3 11.35 13.3 11.2 12.8 M11.9 10.0 L11.35 10.0 11.2 9.5 11.15 9.5 11.0 10.0 10.45 10.0 10.9 10.3 10.75 10.8 11.2 10.5 11.6 10.8 11.45 10.3 11.9 10.0 M8.15 10.0 L7.65 10.0 7.45 9.5 7.3 10.0 6.75 10.0 7.2 10.3 7.0 10.8 7.45 10.5 7.9 10.8 7.75 10.3 8.15 10.0 M9.45 8.4 L9.3 7.95 9.25 7.95 9.1 8.4 8.55 8.4 9.0 8.75 8.85 9.25 9.25 8.95 9.7 9.25 9.55 8.75 10.0 8.4 9.45 8.4 M8.15 6.65 L7.65 6.65 7.45 6.2 7.3 6.65 6.75 6.7 7.2 7.0 7.0 7.5 7.45 7.2 7.9 7.5 7.75 7.0 8.15 6.65 M9.25 4.65 L9.1 5.1 8.55 5.1 9.0 5.4 8.85 5.95 9.25 5.6 9.7 5.95 9.55 5.4 10.0 5.1 9.45 5.1 9.3 4.65 9.25 4.65 M11.2 6.2 L11.15 6.2 11.0 6.65 10.45 6.7 10.9 7.0 10.75 7.5 11.2 7.2 11.6 7.5 11.45 7.0 11.9 6.65 11.35 6.65 11.2 6.2 M5.7 8.4 L5.55 7.95 5.4 8.4 4.85 8.4 5.3 8.75 5.1 9.25 5.55 8.95 6.0 9.25 5.8 8.75 6.25 8.4 5.7 8.4 M3.7 9.5 L3.55 10.0 3.05 10.0 3.45 10.3 3.3 10.8 3.75 10.5 4.15 10.8 4.0 10.3 4.45 10.0 3.9 10.0 3.75 9.5 3.7 9.5 M4.0 7.0 L4.45 6.65 3.9 6.65 3.75 6.2 3.7 6.2 3.55 6.65 3.05 6.7 3.45 7.0 3.3 7.5 3.75 7.2 4.15 7.5 4.0 7.0 M5.7 5.1 L5.55 4.65 5.4 5.1 4.85 5.1 5.3 5.4 5.1 5.95 5.55 5.6 6.0 5.95 5.8 5.4 6.25 5.1 5.7 5.1 M5.7 1.8 L5.55 1.3 5.4 1.8 4.85 1.8 5.3 2.1 5.1 2.6 5.55 2.3 6.0 2.6 5.8 2.1 6.25 1.8 5.7 1.8 M3.75 2.9 L3.7 2.9 3.55 3.35 3.05 3.35 3.45 3.7 3.3 4.2 3.75 3.9 4.15 4.2 4.0 3.7 4.45 3.35 3.9 3.35 3.75 2.9 M11.35 3.35 L11.2 2.9 11.15 2.9 11.0 3.35 10.45 3.35 10.9 3.7 10.75 4.2 11.2 3.9 11.6 4.2 11.45 3.7 11.9 3.35 11.35 3.35 M7.75 3.7 L8.15 3.35 7.65 3.35 7.45 2.9 7.3 3.35 6.75 3.35 7.2 3.7 7.0 4.2 7.45 3.9 7.9 4.2 7.75 3.7 M8.55 1.8 L9.0 2.1 8.85 2.6 9.25 2.3 9.7 2.6 9.55 2.1 10.0 1.8 9.45 1.8 9.3 1.3 9.25 1.3 9.1 1.8 8.55 1.8 M21.15 8.4 L20.6 8.4 20.45 7.95 20.3 8.4 19.75 8.4 20.15 8.75 20.0 9.25 20.45 8.95 20.9 9.25 20.7 8.75 21.15 8.4 M18.65 9.5 L18.6 9.5 18.45 10.0 17.9 10.0 18.35 10.3 18.2 10.8 18.6 10.5 19.05 10.8 18.9 10.3 19.35 10.0 18.8 10.0 18.65 9.5 M18.9 7.0 L19.35 6.65 18.8 6.65 18.65 6.2 18.6 6.2 18.45 6.65 17.9 6.7 18.35 7.0 18.2 7.5 18.6 7.2 19.05 7.5 18.9 7.0 M20.6 5.1 L20.45 4.65 20.3 5.1 19.75 5.1 20.15 5.4 20.0 5.95 20.45 5.6 20.9 5.95 20.7 5.4 21.15 5.1 20.6 5.1 M16.9 8.4 L16.75 7.95 16.7 7.95 16.55 8.4 16.0 8.4 16.45 8.75 16.3 9.25 16.7 8.95 17.15 9.25 17.0 8.75 17.45 8.4 16.9 8.4 M14.75 10.0 L14.2 10.0 14.65 10.3 14.45 10.8 14.9 10.5 15.35 10.8 15.15 10.3 15.6 10.0 15.05 10.0 14.9 9.5 14.75 10.0 M12.85 8.4 L12.3 8.4 12.7 8.75 12.55 9.25 13.0 8.95 13.45 9.25 13.25 8.75 13.7 8.4 13.15 8.4 13.0 7.95 12.85 8.4 M13.0 4.65 L12.85 5.1 12.3 5.1 12.7 5.4 12.55 5.95 13.0 5.6 13.45 5.95 13.25 5.4 13.7 5.1 13.15 5.1 13.0 4.65 M15.05 6.65 L14.9 6.2 14.75 6.65 14.2 6.7 14.65 7.0 14.45 7.5 14.9 7.2 15.35 7.5 15.15 7.0 15.6 6.65 15.05 6.65 M16.7 4.65 L16.55 5.1 16.0 5.1 16.45 5.4 16.3 5.95 16.7 5.6 17.15 5.95 17.0 5.4 17.45 5.1 16.9 5.1 16.75 4.65 16.7 4.65 M16.7 1.3 L16.55 1.8 16.0 1.8 16.45 2.1 16.3 2.6 16.7 2.3 17.15 2.6 17.0 2.1 17.45 1.8 16.9 1.8 16.75 1.3 16.7 1.3 M14.75 3.35 L14.2 3.35 14.65 3.7 14.45 4.2 14.9 3.9 15.35 4.2 15.15 3.7 15.6 3.35 15.05 3.35 14.9 2.9 14.75 3.35 M12.85 1.8 L12.3 1.8 12.7 2.1 12.55 2.6 13.0 2.3 13.45 2.6 13.25 2.1 13.7 1.8 13.15 1.8 13.0 1.3 12.85 1.8 M20.45 1.3 L20.3 1.8 19.75 1.8 20.15 2.1 20.0 2.6 20.45 2.3 20.9 2.6 20.7 2.1 21.15 1.8 20.6 1.8 20.45 1.3 M18.9 3.7 L19.35 3.35 18.8 3.35 18.65 2.9 18.6 2.9 18.45 3.35 17.9 3.35 18.35 3.7 18.2 4.2 18.6 3.9 19.05 4.2 18.9 3.7 M1.55 15.35 L1.4 15.85 1.85 15.55 2.25 15.85 2.1 15.35 2.55 15.0 2.0 15.0 1.85 14.55 1.8 14.55 1.65 15.0 1.1 15.05 1.55 15.35 M1.55 12.05 L1.4 12.55 1.85 12.25 2.25 12.55 2.1 12.05 2.55 11.7 2.0 11.7 1.85 11.25 1.8 11.25 1.65 11.7 1.1 11.7 1.55 12.05 M1.4 9.25 L1.85 8.95 2.25 9.25 2.1 8.75 2.55 8.4 2.0 8.4 1.85 7.95 1.8 7.95 1.65 8.4 1.1 8.4 1.55 8.75 1.4 9.25 M1.55 5.4 L1.4 5.95 1.85 5.6 2.25 5.95 2.1 5.4 2.55 5.1 2.0 5.1 1.85 4.65 1.8 4.65 1.65 5.1 1.1 5.1 1.55 5.4 M1.85 1.3 L1.8 1.3 1.65 1.8 1.1 1.8 1.55 2.1 1.4 2.6 1.85 2.3 2.25 2.6 2.1 2.1 2.55 1.8 2.0 1.8 1.85 1.3" fill="#003399" fill-rule="evenodd" stroke="none"/>
  </g>
</svg>
