<?xml version="1.0" encoding="UTF-8" standalone="no"?>
<svg xmlns:xlink="http://www.w3.org/1999/xlink" height="179.7px" width="328.65px" xmlns="http://www.w3.org/2000/svg">
  <g transform="matrix(1.0, 0.0, 0.0, 1.0, 9.5, 9.5)">
    <path d="M274.6 55.45 L277.15 54.95 279.5 54.8 Q283.8 54.8 286.55 57.0 288.95 58.9 289.6 61.8 L291.1 61.45 293.55 61.4 Q300.65 61.4 305.3 66.5 309.65 71.4 309.65 78.95 309.6 90.6 303.3 99.3 296.45 108.65 286.7 108.7 283.15 108.7 280.25 107.55 L280.2 107.45 278.3 115.7 Q277.2 120.7 274.35 123.25 271.25 126.0 266.4 126.0 L262.35 126.0 261.8 126.0 261.65 126.0 261.35 126.1 261.0 126.3 259.55 127.6 Q256.95 129.75 253.9 128.2 251.55 126.85 251.45 124.15 L251.6 123.15 255.25 107.35 252.65 107.95 252.35 107.95 250.85 108.15 248.75 108.3 Q243.0 108.3 239.2 105.05 237.2 103.3 236.1 101.1 235.15 103.1 233.6 104.55 230.45 107.4 225.85 107.45 L221.85 107.45 220.75 107.45 220.45 107.55 220.1 107.75 218.65 108.85 Q215.95 110.7 213.2 109.15 211.05 107.65 211.0 105.2 208.0 107.4 203.3 107.45 L200.1 107.45 198.45 107.45 Q198.1 107.65 197.9 107.8 L196.8 108.7 Q194.15 110.7 191.25 109.2 189.8 108.25 189.35 106.9 188.55 107.2 188.45 107.25 L186.65 107.75 184.75 108.15 181.25 108.45 Q176.2 108.45 172.7 105.65 L171.6 104.5 169.5 105.8 169.65 105.7 169.4 105.8 169.45 105.8 Q166.95 107.1 164.5 107.8 L159.5 108.45 Q156.3 108.45 153.6 107.25 151.45 119.7 142.5 130.0 130.5 143.65 114.85 143.7 104.7 143.7 98.25 138.0 93.7 133.75 92.25 127.8 84.15 142.0 71.9 150.5 57.1 160.7 39.3 160.7 22.7 160.7 11.4 150.3 0.0 139.8 0.0 124.35 0.0 107.35 14.0 95.3 26.8 84.3 44.15 83.6 39.95 78.1 39.95 70.95 39.95 58.45 49.75 48.5 59.15 39.1 74.85 34.55 82.0 32.4 90.25 31.4 L106.5 30.6 Q114.3 20.55 123.45 15.15 133.75 9.2 145.4 9.2 152.35 9.2 157.2 12.65 162.75 16.7 162.8 23.2 L162.8 23.65 162.8 24.1 Q162.4 28.15 159.65 31.7 163.1 29.0 167.45 27.9 164.5 23.85 164.5 18.8 164.5 11.05 170.85 5.45 176.95 0.0 185.1 0.0 L186.35 0.0 186.65 0.0 Q189.65 0.2 192.9 1.1 196.05 2.0 199.9 3.75 L201.5 4.35 203.1 5.0 204.6 5.4 205.8 5.45 206.6 5.45 207.1 5.35 208.3 5.2 209.4 5.2 Q212.5 5.2 214.5 7.4 215.95 8.65 216.25 12.2 L216.25 12.75 216.1 13.75 217.5 12.3 217.7 12.05 219.3 10.65 Q219.75 10.15 220.55 9.55 223.85 6.85 227.05 5.2 230.85 3.3 233.8 3.3 236.5 3.3 238.5 4.9 240.95 6.85 241.0 10.15 L241.0 10.65 240.95 11.5 240.2 13.75 238.95 16.0 238.2 17.45 237.3 19.3 236.3 21.65 235.85 22.9 235.2 24.45 234.95 25.25 236.15 24.35 237.9 23.45 239.75 22.55 241.2 22.15 242.7 21.65 245.8 21.3 Q249.3 21.3 251.75 23.25 L252.3 23.8 253.4 23.1 256.05 22.15 255.9 22.15 256.1 22.05 256.1 22.15 257.85 21.75 259.85 21.5 Q264.2 21.5 267.1 24.35 270.0 27.2 270.0 31.5 270.0 36.6 266.5 40.55 262.8 44.5 257.75 44.55 255.0 44.5 252.7 42.95 251.9 44.55 251.35 46.9 L250.65 49.9 Q249.75 53.9 247.25 56.2 244.4 58.8 240.45 58.8 L237.65 58.8 237.05 58.8 237.0 58.9 236.45 59.1 235.85 59.6 Q233.15 61.25 230.45 59.7 L229.05 58.35 Q226.7 59.5 224.2 59.95 L223.45 60.0 222.35 60.05 Q216.8 60.0 213.6 55.5 212.1 53.35 211.45 50.4 L210.8 51.35 208.65 53.2 206.3 54.3 204.55 54.55 Q201.35 54.45 199.5 52.3 L198.85 51.5 Q195.85 57.5 190.9 61.5 190.55 61.8 190.3 62.05 193.35 62.7 194.65 64.2 195.9 65.3 196.65 66.8 L196.85 66.55 198.6 65.2 Q200.45 63.95 202.55 63.2 L202.45 63.2 202.7 63.1 202.6 63.1 Q204.7 62.15 206.75 61.7 L210.85 61.3 Q216.25 61.7 218.1 64.1 L218.25 64.3 218.65 64.0 Q221.3 62.5 223.7 61.8 L225.15 61.5 226.55 61.25 229.05 61.1 Q233.8 61.1 237.2 63.4 238.1 64.0 238.8 64.75 L239.1 64.55 Q241.45 63.25 243.7 62.4 L245.45 61.95 247.15 61.5 250.75 61.15 Q256.3 61.15 260.05 64.4 262.8 66.85 263.7 70.25 L263.7 70.15 264.0 68.7 Q262.2 67.25 262.1 65.0 L262.1 64.9 Q262.2 62.6 264.0 61.15 266.85 59.05 269.25 57.65 271.9 56.1 274.6 55.45 L274.5 55.5 274.8 55.45 274.6 55.45 M257.75 117.45 L256.15 124.2 256.25 124.2 258.05 122.6 259.55 121.7 260.8 121.3 Q261.5 121.15 262.35 121.3 L266.4 121.3 Q269.45 121.3 271.2 119.7 273.0 118.2 273.7 114.65 L277.15 99.45 277.6 100.0 278.2 100.5 Q279.95 102.35 282.0 103.15 284.05 104.0 286.7 103.95 294.0 104.0 299.5 96.45 304.95 89.0 304.9 78.9 304.9 73.2 301.75 69.6 298.6 66.0 293.55 66.1 L291.6 66.15 289.75 66.5 Q288.4 66.9 287.05 67.6 L284.05 69.45 284.7 66.1 284.95 64.85 285.05 63.85 Q285.15 61.85 283.65 60.7 282.1 59.5 279.5 59.5 L277.6 59.6 275.8 60.0 Q273.7 60.5 271.6 61.7 269.45 62.9 266.75 64.9 L267.45 65.45 268.0 65.95 268.55 66.9 268.75 68.0 268.65 69.25 268.3 71.05 263.45 92.45 262.95 92.4 262.0 92.5 260.65 93.0 260.25 93.2 259.85 93.3 259.3 93.4 258.85 93.4 Q257.75 93.4 256.95 92.5 256.1 91.7 256.1 90.45 L256.25 89.6 256.45 88.45 256.45 88.3 256.5 88.1 259.15 76.0 259.2 75.5 259.3 75.1 259.35 74.3 259.4 73.4 Q259.4 70.1 257.0 68.0 254.6 65.9 250.75 65.9 L247.95 66.15 245.25 66.85 Q243.35 67.55 241.45 68.65 239.5 69.8 237.4 71.5 236.65 68.8 234.5 67.25 232.35 65.8 229.05 65.8 L227.05 65.9 225.1 66.3 Q223.15 66.85 221.1 68.1 219.0 69.35 216.25 71.5 216.15 68.85 214.7 67.4 213.35 66.0 210.85 66.0 L207.75 66.35 Q206.15 66.65 204.5 67.4 L201.25 69.15 Q199.65 70.15 198.05 71.5 199.3 72.05 199.7 72.8 200.1 73.5 200.1 74.95 L200.05 75.85 199.9 77.0 199.85 77.5 199.75 78.05 196.5 92.6 195.9 92.45 195.0 92.6 193.75 93.0 192.7 93.35 191.75 93.5 Q190.55 93.5 189.9 92.65 189.05 91.9 189.1 90.65 L189.25 89.45 189.6 87.65 192.8 72.8 192.85 72.45 192.85 72.05 193.0 71.7 193.0 71.25 Q193.0 69.0 191.55 67.7 190.0 66.35 187.6 66.35 L186.65 66.45 185.65 66.45 Q183.1 66.85 180.45 68.15 L178.95 69.05 178.9 69.05 Q176.85 70.25 174.65 71.95 L175.3 72.15 175.7 72.5 176.95 73.65 177.2 75.15 177.2 76.1 176.95 77.3 176.95 77.5 176.85 77.7 175.3 84.55 Q174.45 87.6 173.25 89.0 172.05 90.35 170.0 90.35 168.9 90.35 168.15 89.7 167.45 89.0 167.45 87.9 L167.55 87.05 167.75 86.0 170.5 72.8 170.55 72.65 170.65 72.5 170.65 72.15 170.65 71.55 Q170.65 69.15 169.1 67.75 167.65 66.35 165.1 66.35 163.25 66.35 160.95 67.1 158.65 67.9 156.4 69.2 L154.4 70.5 152.5 71.95 152.8 72.1 153.05 72.25 Q154.05 72.85 154.4 73.65 154.8 74.3 154.8 75.35 L154.75 76.45 154.5 77.7 151.0 94.6 150.85 95.5 150.8 96.4 Q150.8 99.45 153.35 101.6 155.9 103.75 159.5 103.75 L163.3 103.15 Q165.3 102.7 167.4 101.5 L170.5 99.7 173.4 97.35 Q173.6 100.35 175.7 102.0 177.75 103.75 181.25 103.75 L184.0 103.45 186.95 102.75 190.0 101.6 192.8 99.9 194.4 98.7 195.4 97.8 193.75 105.2 Q194.5 104.4 195.2 103.95 L196.45 103.15 198.05 102.75 200.1 102.7 203.25 102.7 Q206.7 102.7 208.35 101.25 210.1 99.8 210.85 96.2 L213.2 85.45 Q213.95 82.15 215.2 80.6 216.45 79.1 218.25 79.15 219.3 79.15 220.0 79.8 220.6 80.5 220.6 81.5 L220.6 82.3 220.55 82.9 220.45 83.5 220.35 84.1 217.15 98.7 216.95 98.75 217.05 98.75 217.15 98.75 215.7 105.2 217.35 103.85 218.8 103.1 220.2 102.75 221.85 102.7 225.85 102.7 Q228.55 102.7 230.35 101.05 232.15 99.35 232.85 96.2 L235.15 85.45 Q235.9 82.15 237.0 80.7 238.2 79.3 240.0 79.3 241.3 79.3 242.0 80.0 242.6 80.7 242.6 82.2 L242.55 83.1 242.35 84.0 240.0 93.9 240.0 94.25 239.85 94.5 239.75 95.3 239.7 95.9 Q239.7 99.3 242.25 101.45 244.75 103.5 248.7 103.6 L250.2 103.45 251.75 103.25 Q253.9 102.9 255.8 102.05 257.85 101.3 259.65 100.0 L260.3 99.45 260.95 98.9 262.2 97.8 257.75 117.35 257.35 117.55 257.55 117.5 257.7 117.45 257.75 117.45 M259.85 26.25 L258.6 26.35 257.2 26.65 255.5 27.35 253.9 28.3 253.55 28.5 253.25 28.8 253.15 28.85 251.9 29.9 249.6 32.05 249.8 30.5 249.85 29.7 249.85 29.55 249.85 29.4 Q249.85 27.8 248.75 26.9 247.65 26.0 245.8 26.0 L243.7 26.3 241.45 27.0 238.6 28.35 Q237.2 29.2 236.1 30.15 L236.45 30.45 236.8 30.65 237.5 31.5 237.65 32.65 237.65 33.2 237.55 33.7 237.55 34.3 237.4 34.9 233.0 55.85 234.15 55.0 235.35 54.45 236.4 54.2 237.65 54.1 240.45 54.1 Q242.6 54.1 244.0 52.75 245.45 51.4 246.05 48.85 L246.7 45.9 Q247.65 41.8 249.25 39.3 250.85 36.9 253.6 35.2 L253.45 35.85 253.45 36.35 Q253.45 37.7 254.8 38.75 256.1 39.85 257.75 39.85 260.75 39.85 263.0 37.3 265.3 34.8 265.3 31.5 265.3 29.15 263.8 27.7 262.35 26.25 259.85 26.25 M264.6 69.2 L264.45 69.05 264.4 69.05 264.45 69.15 264.6 69.2 M235.6 8.6 Q234.95 8.05 233.8 8.05 231.95 8.05 229.2 9.4 226.4 10.8 223.5 13.2 L222.25 14.25 221.0 15.35 220.9 15.5 220.75 15.65 217.35 19.25 Q215.75 21.1 214.35 23.45 L212.35 26.7 210.3 30.5 210.3 29.2 210.2 28.05 210.15 26.8 210.1 25.25 209.9 22.75 209.8 20.9 209.9 19.85 210.0 18.8 210.2 17.0 210.65 15.5 211.25 13.5 211.45 12.65 211.45 12.45 211.45 12.2 Q211.45 11.05 211.0 10.45 210.45 9.85 209.4 9.9 L208.7 9.9 207.65 10.05 207.25 10.1 206.9 10.15 206.4 10.15 205.8 10.15 204.95 10.1 204.15 10.1 201.55 9.5 198.0 8.05 Q194.4 6.45 191.6 5.65 188.85 4.85 186.35 4.7 L185.75 4.7 185.1 4.7 Q178.65 4.7 173.95 8.95 169.2 13.2 169.2 18.8 169.2 23.2 172.15 26.3 175.15 29.5 179.3 29.5 L181.5 29.25 183.95 28.6 Q185.3 28.1 186.65 27.4 L189.1 25.9 190.15 25.1 191.0 24.2 192.0 22.75 192.45 21.45 192.45 21.3 192.15 20.7 Q191.9 20.4 191.55 20.4 L191.45 20.4 189.95 20.55 189.9 20.55 Q189.4 20.55 189.0 20.0 188.55 19.45 188.55 18.8 188.55 17.5 189.75 16.6 191.0 15.7 192.7 15.65 L195.55 16.0 199.55 16.95 198.4 18.5 197.55 19.65 197.3 20.15 197.0 20.7 195.55 23.6 193.2 28.7 189.8 35.55 Q188.35 38.25 186.9 39.8 185.75 40.9 184.55 41.45 L181.9 41.95 Q180.05 41.95 178.75 40.9 177.35 39.85 177.4 38.4 L177.4 37.9 177.55 37.55 178.1 36.45 178.95 35.65 179.55 35.15 179.85 34.65 180.0 34.4 180.0 34.1 Q180.0 32.85 178.55 32.25 177.0 31.55 174.5 31.55 166.55 31.55 161.15 36.4 155.75 41.3 155.75 48.5 155.75 54.85 160.45 59.05 165.1 63.2 172.35 63.1 181.35 63.1 187.95 57.85 194.5 52.5 197.3 42.95 L198.2 39.6 198.6 37.85 199.2 35.7 200.6 30.5 201.35 28.05 201.9 26.25 202.2 25.6 202.4 25.05 202.75 24.3 203.1 23.6 202.95 25.1 202.8 26.35 202.8 27.05 202.8 27.9 202.9 29.75 203.05 32.6 203.15 35.0 203.25 36.95 203.15 38.45 203.1 41.3 202.95 43.2 202.8 44.35 202.6 46.15 202.45 47.1 202.45 47.25 202.45 47.45 Q202.45 48.65 203.05 49.2 203.5 49.8 204.55 49.75 L205.25 49.7 205.85 49.4 207.2 48.25 208.7 46.15 209.95 44.1 211.0 42.3 211.35 41.8 211.6 41.3 212.65 39.15 213.95 36.65 215.35 33.7 216.65 31.3 217.0 30.7 217.35 30.15 217.9 29.15 218.6 28.1 219.5 26.7 220.25 25.6 220.75 25.05 221.25 24.5 221.9 23.8 222.8 23.1 Q219.2 29.4 217.5 34.6 215.85 39.8 215.7 44.9 L215.7 45.3 215.7 45.75 Q215.7 50.25 217.4 52.8 219.2 55.35 222.35 55.35 L222.95 55.3 223.5 55.3 Q227.4 54.65 230.65 51.2 233.95 47.7 234.5 43.55 L234.65 42.75 234.7 42.05 Q234.7 41.25 234.3 40.75 233.95 40.25 233.4 40.2 L232.85 40.35 232.1 40.6 231.55 40.85 231.05 40.9 Q229.75 40.85 229.0 39.25 228.2 37.7 228.2 35.1 L228.3 33.9 228.3 32.8 Q228.5 30.45 229.1 28.1 229.65 25.65 230.75 22.75 L231.35 21.25 Q231.6 20.5 232.0 19.65 L232.5 18.55 232.9 17.5 233.95 15.3 234.95 13.55 235.9 11.7 236.3 10.65 236.3 10.4 236.3 10.15 Q236.3 9.15 235.6 8.6 M280.75 82.6 L280.75 82.5 280.75 82.35 Q280.8 80.05 282.35 78.2 283.8 76.25 285.5 75.9 L285.8 75.9 286.15 75.9 Q287.6 76.0 288.35 76.9 289.2 77.8 289.2 79.3 289.2 81.95 287.6 84.0 286.05 86.0 284.0 86.0 282.55 86.0 281.65 85.1 280.75 84.15 280.75 82.6 M208.15 53.55 L208.65 53.2 208.7 53.2 208.15 53.55 M184.2 36.65 L184.35 36.2 184.25 36.25 184.2 36.65 M186.0 32.85 Q185.6 33.0 185.5 33.1 L184.6 33.3 184.75 34.1 184.6 35.1 185.75 33.3 186.0 32.85 M206.85 5.45 L206.95 5.45 207.25 5.4 206.85 5.45 M158.05 23.2 Q158.05 19.1 154.45 16.55 150.85 13.9 145.4 13.9 135.0 13.9 125.8 19.25 116.6 24.55 108.7 35.3 L90.7 36.1 Q82.95 37.0 76.2 39.05 61.6 43.25 53.05 51.85 44.65 60.35 44.65 70.95 44.65 78.1 49.9 82.95 55.15 87.9 62.85 87.9 L64.35 87.8 65.65 87.75 Q69.9 87.05 74.1 84.95 78.25 82.85 82.0 79.35 84.7 76.75 86.15 74.45 87.65 72.15 87.65 70.25 L87.55 69.0 86.7 68.1 85.85 67.7 84.55 67.1 Q83.1 66.65 82.4 65.8 81.7 64.9 81.7 63.65 81.7 59.95 86.55 56.45 91.4 53.0 100.05 50.65 L95.9 59.45 93.15 65.25 93.05 65.55 93.0 65.9 92.4 67.2 91.75 68.7 85.2 84.4 81.15 92.85 Q79.0 96.9 76.55 100.15 74.3 103.15 71.25 105.25 68.15 107.4 65.05 108.15 L63.2 108.65 61.25 108.8 Q57.65 108.8 54.85 106.75 52.2 104.7 52.2 102.2 L52.4 100.35 Q52.65 99.5 53.05 98.9 L55.3 95.7 56.1 94.2 56.1 93.55 56.1 92.95 Q56.05 90.35 53.85 89.35 51.55 88.15 46.5 88.25 35.85 88.25 27.0 92.4 27.4 96.75 29.0 101.65 30.8 107.1 35.5 115.5 46.35 132.1 55.2 138.9 L63.95 146.55 66.3 148.5 69.2 146.65 Q82.75 137.2 91.0 120.45 L91.85 118.75 96.4 108.5 101.3 95.75 102.9 90.85 104.5 86.0 107.0 86.0 Q114.4 86.0 118.0 88.65 121.6 91.35 121.6 96.65 L121.6 96.95 121.6 97.15 Q121.45 100.5 119.45 103.4 117.5 106.3 115.15 106.75 L114.75 106.9 114.4 106.9 Q113.3 106.9 112.25 106.0 111.2 105.05 110.9 103.95 L110.6 102.55 110.45 101.45 Q110.1 100.2 109.6 100.0 L108.1 99.85 107.1 99.9 Q106.65 100.0 106.2 100.35 102.9 101.7 100.0 107.4 97.1 113.05 96.45 119.5 L96.25 120.95 96.25 122.35 Q96.3 129.9 101.35 134.45 106.5 139.0 114.8 138.95 128.35 138.95 138.95 126.9 149.55 114.8 149.55 99.35 149.55 90.35 145.45 85.25 141.35 80.2 132.85 78.45 142.15 75.75 146.65 70.95 151.15 66.0 151.2 58.7 151.15 50.15 144.35 44.45 137.5 38.75 124.65 36.65 126.75 34.05 129.2 32.1 131.55 30.25 134.05 29.35 135.15 28.85 136.4 28.6 L138.75 28.35 Q140.35 28.35 141.1 28.9 141.9 29.5 142.2 30.7 L142.5 31.6 142.7 32.3 Q143.15 33.4 143.65 33.7 144.05 34.05 145.4 34.05 L145.6 34.05 145.8 34.05 Q150.25 33.85 153.95 30.65 157.75 27.4 158.05 23.65 L158.05 23.4 158.05 23.2 M146.0 38.75 L145.85 38.75 145.4 38.75 144.2 38.7 147.4 40.85 Q149.65 42.75 151.35 44.9 152.15 39.5 155.75 35.35 151.25 38.55 146.0 38.75 M135.7 33.75 L134.6 34.25 Q137.2 35.1 139.5 36.1 L138.55 34.55 138.45 34.4 138.05 33.15 137.3 33.3 135.9 33.65 135.7 33.75 M112.45 58.2 Q114.25 53.75 116.45 50.15 120.55 50.95 122.7 53.15 124.75 55.35 124.75 58.8 124.75 64.65 120.15 68.7 115.5 72.8 108.55 72.8 L107.8 72.8 108.35 70.65 108.9 68.6 Q110.65 62.55 112.45 58.2 M149.05 75.2 Q147.2 76.9 144.75 78.4 147.05 80.0 148.85 81.95 L149.9 76.8 149.95 76.4 150.0 76.1 150.0 75.9 149.05 75.2 M158.05 63.2 L157.35 62.55 155.85 61.05 155.3 64.5 Q156.65 63.75 158.05 63.2 M107.9 90.8 L106.45 95.3 108.1 95.15 109.6 95.35 111.2 95.55 Q114.1 96.55 115.0 100.25 L115.15 101.3 115.55 100.75 Q116.8 98.95 116.9 96.95 L116.9 96.75 Q116.6 93.05 115.15 92.45 113.9 91.15 107.9 90.8 M90.7 59.45 L89.35 60.25 Q87.2 61.95 86.7 62.9 L87.75 63.4 88.7 63.8 88.8 63.65 88.8 63.85 88.85 63.55 88.9 63.25 90.7 59.45 M120.05 58.8 Q119.9 56.9 119.25 56.45 L118.6 56.05 116.8 60.0 Q115.55 63.05 114.4 66.85 115.85 66.2 117.0 65.2 120.05 62.5 120.05 58.8 M23.05 97.35 Q23.75 100.8 24.9 103.95 L29.15 116.8 33.35 125.8 39.8 134.65 46.9 143.5 53.2 150.1 Q54.4 151.75 56.2 153.25 L57.3 154.1 57.7 153.9 Q60.4 152.6 62.85 150.7 63.45 150.5 63.45 150.15 L63.4 149.95 Q55.85 144.5 49.9 137.75 46.7 135.3 44.45 132.15 40.35 128.2 37.15 123.65 33.1 117.35 29.4 110.6 27.4 107.05 26.0 102.9 25.95 101.05 25.25 99.7 24.7 96.75 24.85 93.4 L25.0 91.2 Q23.95 91.0 23.1 91.95 22.75 92.85 22.7 93.75 L23.05 97.35 M20.0 94.6 Q20.0 94.1 19.65 94.2 19.05 94.6 18.55 95.3 L18.5 97.7 Q18.35 100.15 18.55 102.35 19.05 106.0 20.0 109.2 20.6 112.6 21.6 115.7 23.25 122.25 25.9 128.15 30.4 138.25 37.7 146.35 L44.3 153.4 46.5 155.55 Q47.4 156.25 48.6 156.8 51.55 156.45 53.7 155.55 54.1 155.4 53.95 155.05 L53.15 154.15 51.2 151.7 48.0 148.45 46.0 146.2 36.4 134.25 Q31.35 128.45 28.45 120.9 26.15 116.65 24.85 111.7 23.25 107.9 22.0 103.8 20.75 100.35 20.2 96.4 L20.0 94.6 M60.7 95.35 Q60.25 96.9 59.1 98.45 L58.05 100.0 57.0 101.5 56.95 101.7 56.9 102.15 57.7 102.95 Q59.25 104.15 61.3 104.05 L62.4 104.0 63.5 103.75 63.95 103.6 Q66.2 103.05 68.6 101.35 71.0 99.8 72.8 97.3 75.1 94.3 77.0 90.65 L78.25 87.95 76.25 89.2 Q71.4 91.7 66.35 92.4 L65.65 92.45 64.9 92.5 62.85 92.6 60.75 92.45 60.8 92.95 60.8 94.2 60.7 95.35 M11.95 107.95 Q11.75 105.8 11.9 104.05 4.7 113.0 4.7 124.35 4.7 137.7 14.6 146.85 22.2 153.85 32.65 155.5 30.8 153.6 27.45 149.05 24.1 144.4 21.85 140.55 19.85 136.8 17.7 131.9 15.65 127.0 14.6 123.05 12.75 114.75 11.95 107.95 M15.7 100.0 L15.7 99.9 15.3 99.85 14.8 100.55 14.8 100.9 Q14.65 104.0 14.75 107.0 15.1 111.5 16.1 115.4 16.95 118.9 17.3 122.75 L19.85 130.25 23.4 136.75 Q27.0 143.65 31.2 150.1 L35.85 155.35 38.15 155.95 39.6 156.25 43.25 156.75 Q43.65 156.65 43.45 156.4 L42.9 155.9 Q34.45 147.45 27.9 137.65 25.05 132.65 22.85 127.3 19.15 118.45 17.1 108.45 15.7 104.7 15.7 100.0 M115.4 102.55 L115.5 102.85 115.5 102.75 115.4 102.55" fill="#000000" fill-rule="evenodd" stroke="none"/>
    <path d="M259.85 26.25 Q262.35 26.25 263.8 27.7 265.3 29.15 265.3 31.5 265.3 34.8 263.0 37.3 260.75 39.85 257.75 39.85 256.1 39.85 254.8 38.75 253.45 37.7 253.45 36.35 L253.45 35.85 253.6 35.2 Q250.85 36.9 249.25 39.3 247.65 41.8 246.7 45.9 L246.05 48.85 Q245.45 51.4 244.0 52.75 242.6 54.1 240.45 54.1 L237.65 54.1 236.4 54.2 235.35 54.45 234.15 55.0 233.0 55.85 237.4 34.9 237.55 34.3 237.55 33.7 237.65 33.2 237.65 32.65 237.5 31.5 236.8 30.65 236.45 30.45 236.1 30.15 Q237.2 29.2 238.6 28.35 L241.45 27.0 243.7 26.3 245.8 26.0 Q247.65 26.0 248.75 26.9 249.85 27.8 249.85 29.4 L249.85 29.55 249.85 29.7 249.8 30.5 249.6 32.05 251.9 29.9 253.15 28.85 253.25 28.8 253.55 28.5 253.9 28.3 255.5 27.35 257.2 26.65 258.6 26.35 259.85 26.25 M217.15 98.7 L220.35 84.1 220.45 83.5 220.55 82.9 220.6 82.3 220.6 81.5 Q220.6 80.5 220.0 79.8 219.3 79.15 218.25 79.15 216.45 79.1 215.2 80.6 213.95 82.15 213.2 85.45 L210.85 96.2 Q210.1 99.8 208.35 101.25 206.7 102.7 203.25 102.7 L200.1 102.7 198.05 102.75 196.45 103.15 195.2 103.95 Q194.5 104.4 193.75 105.2 L195.4 97.8 194.4 98.7 192.8 99.9 190.0 101.6 186.95 102.75 184.0 103.45 181.25 103.75 Q177.75 103.75 175.7 102.0 173.6 100.35 173.4 97.35 L170.5 99.7 167.4 101.5 Q165.3 102.7 163.3 103.15 L159.5 103.75 Q155.9 103.75 153.35 101.6 150.8 99.45 150.8 96.4 L150.85 95.5 151.0 94.6 154.5 77.7 154.75 76.45 154.8 75.35 Q154.8 74.3 154.4 73.65 154.05 72.85 153.05 72.25 L152.8 72.1 152.5 71.95 154.4 70.5 156.4 69.2 Q158.65 67.9 160.95 67.1 163.25 66.35 165.1 66.35 167.65 66.35 169.1 67.75 170.65 69.15 170.65 71.55 L170.65 72.15 170.65 72.5 170.55 72.65 170.5 72.8 167.75 86.0 167.55 87.05 167.45 87.9 Q167.45 89.0 168.15 89.7 168.9 90.35 170.0 90.35 172.05 90.35 173.25 89.0 174.45 87.6 175.3 84.55 L176.85 77.7 176.95 77.5 176.95 77.3 177.2 76.1 177.2 75.15 176.95 73.65 175.7 72.5 175.3 72.15 174.65 71.95 Q176.85 70.25 178.9 69.05 L178.95 69.05 180.45 68.15 Q183.1 66.85 185.65 66.45 L186.65 66.45 187.6 66.35 Q190.0 66.35 191.55 67.7 193.0 69.0 193.0 71.25 L193.0 71.7 192.85 72.05 192.85 72.45 192.8 72.8 189.6 87.65 189.25 89.45 189.1 90.65 Q189.05 91.9 189.9 92.65 190.55 93.5 191.75 93.5 L192.7 93.35 193.75 93.0 195.0 92.6 195.9 92.45 196.5 92.6 199.75 78.05 199.85 77.5 199.9 77.0 200.05 75.85 200.1 74.95 Q200.1 73.5 199.7 72.8 199.3 72.05 198.05 71.5 199.65 70.15 201.25 69.15 L204.5 67.4 Q206.15 66.65 207.75 66.35 L210.85 66.0 Q213.35 66.0 214.7 67.4 216.15 68.85 216.25 71.5 219.0 69.35 221.1 68.1 223.15 66.85 225.1 66.3 L227.05 65.9 229.05 65.8 Q232.35 65.8 234.5 67.25 236.65 68.8 237.4 71.5 239.5 69.8 241.45 68.65 243.35 67.55 245.25 66.85 L247.95 66.15 250.75 65.9 Q254.6 65.9 257.0 68.0 259.4 70.1 259.4 73.4 L259.35 74.3 259.3 75.1 259.2 75.5 259.15 76.0 256.5 88.1 256.45 88.3 256.45 88.45 256.25 89.6 256.1 90.45 Q256.1 91.7 256.95 92.5 257.75 93.4 258.85 93.4 L259.3 93.4 259.85 93.3 260.25 93.2 260.65 93.0 262.0 92.5 262.95 92.4 263.45 92.45 268.3 71.05 268.65 69.25 268.75 68.0 268.55 66.9 268.0 65.95 267.45 65.45 266.75 64.9 Q269.45 62.9 271.6 61.7 273.7 60.5 275.8 60.0 L277.6 59.6 279.5 59.5 Q282.1 59.5 283.65 60.7 285.15 61.85 285.05 63.85 L284.95 64.85 284.7 66.1 284.05 69.45 287.05 67.6 Q288.4 66.9 289.75 66.5 L291.6 66.15 293.55 66.1 Q298.6 66.0 301.75 69.6 304.9 73.2 304.9 78.9 304.95 89.0 299.5 96.45 294.0 104.0 286.7 103.95 284.05 104.0 282.0 103.15 279.95 102.35 278.2 100.5 L277.6 100.0 277.15 99.45 273.7 114.65 Q273.0 118.2 271.2 119.7 269.45 121.3 266.4 121.3 L262.35 121.3 Q261.5 121.15 260.8 121.3 L259.55 121.7 258.05 122.6 256.25 124.2 256.15 124.2 257.75 117.45 257.75 117.35 262.2 97.8 260.95 98.9 260.3 99.45 259.65 100.0 Q257.85 101.3 255.8 102.05 253.9 102.9 251.75 103.25 L250.2 103.45 248.7 103.6 Q244.75 103.5 242.25 101.45 239.7 99.3 239.7 95.9 L239.75 95.3 239.85 94.5 240.0 94.25 240.0 93.9 242.35 84.0 242.55 83.1 242.6 82.2 Q242.6 80.7 242.0 80.0 241.3 79.3 240.0 79.3 238.2 79.3 237.0 80.7 235.9 82.15 235.15 85.45 L232.85 96.2 Q232.15 99.35 230.35 101.05 228.55 102.7 225.85 102.7 L221.85 102.7 220.2 102.75 218.8 103.1 217.35 103.85 215.7 105.2 217.15 98.75 217.15 98.7 M280.75 82.6 Q280.75 84.15 281.65 85.1 282.55 86.0 284.0 86.0 286.05 86.0 287.6 84.0 289.2 81.95 289.2 79.3 289.2 77.8 288.35 76.9 287.6 76.0 286.15 75.9 L285.8 75.9 285.5 75.9 Q283.8 76.25 282.35 78.2 280.8 80.05 280.75 82.35 L280.75 82.5 280.75 82.6 M235.6 8.6 Q236.3 9.15 236.3 10.15 L236.3 10.4 236.3 10.65 235.9 11.7 234.95 13.55 233.95 15.3 232.9 17.5 232.5 18.55 232.0 19.65 Q231.6 20.5 231.35 21.25 L230.75 22.75 Q229.65 25.65 229.1 28.1 228.5 30.45 228.3 32.8 L228.3 33.9 228.2 35.1 Q228.2 37.7 229.0 39.25 229.75 40.85 231.05 40.9 L231.55 40.85 232.1 40.6 232.85 40.35 233.4 40.2 Q233.95 40.25 234.3 40.75 234.7 41.25 234.7 42.05 L234.65 42.75 234.5 43.55 Q233.95 47.7 230.65 51.2 227.4 54.65 223.5 55.3 L222.95 55.3 222.35 55.35 Q219.2 55.35 217.4 52.8 215.7 50.25 215.7 45.75 L215.7 45.3 215.7 44.9 Q215.85 39.8 217.5 34.6 219.2 29.4 222.8 23.1 L221.9 23.8 221.25 24.5 220.75 25.05 220.25 25.6 219.5 26.7 218.6 28.1 217.9 29.15 217.35 30.15 217.0 30.7 216.65 31.3 215.35 33.7 213.95 36.65 212.65 39.15 211.6 41.3 211.35 41.8 211.0 42.3 209.95 44.1 208.7 46.15 207.2 48.25 205.85 49.4 205.25 49.7 204.55 49.75 Q203.5 49.8 203.05 49.2 202.45 48.65 202.45 47.45 L202.45 47.25 202.45 47.1 202.6 46.15 202.8 44.35 202.95 43.2 203.1 41.3 203.15 38.45 203.25 36.95 203.15 35.0 203.05 32.6 202.9 29.75 202.8 27.9 202.8 27.05 202.8 26.35 202.95 25.1 203.1 23.6 202.75 24.3 202.4 25.05 202.2 25.6 201.9 26.25 201.35 28.05 200.6 30.5 199.2 35.7 198.6 37.85 198.2 39.6 197.3 42.95 Q194.5 52.5 187.95 57.85 181.35 63.1 172.35 63.1 165.1 63.2 160.45 59.05 155.75 54.85 155.75 48.5 155.75 41.3 161.15 36.4 166.55 31.55 174.5 31.55 177.0 31.55 178.55 32.25 180.0 32.85 180.0 34.1 L180.0 34.4 179.85 34.65 179.55 35.15 178.95 35.65 178.1 36.45 177.55 37.55 177.4 37.9 177.4 38.4 Q177.35 39.85 178.75 40.9 180.05 41.95 181.9 41.95 L184.55 41.45 Q185.75 40.9 186.9 39.8 188.35 38.25 189.8 35.55 L193.2 28.7 195.55 23.6 197.0 20.7 197.3 20.15 197.55 19.65 198.4 18.5 199.55 16.95 195.55 16.0 192.7 15.65 Q191.0 15.7 189.75 16.6 188.55 17.5 188.55 18.8 188.55 19.45 189.0 20.0 189.4 20.55 189.9 20.55 L189.95 20.55 191.45 20.4 191.55 20.4 Q191.9 20.4 192.15 20.7 L192.45 21.3 192.45 21.45 192.0 22.75 191.0 24.2 190.15 25.1 189.1 25.9 186.65 27.4 Q185.3 28.1 183.95 28.6 L181.5 29.25 179.3 29.5 Q175.15 29.5 172.15 26.3 169.2 23.2 169.2 18.8 169.2 13.2 173.95 8.95 178.65 4.7 185.1 4.7 L185.75 4.7 186.35 4.7 Q188.85 4.85 191.6 5.65 194.4 6.45 198.0 8.05 L201.55 9.5 204.15 10.1 204.95 10.1 205.8 10.15 206.4 10.15 206.9 10.15 207.25 10.1 207.65 10.05 208.7 9.9 209.4 9.9 Q210.45 9.85 211.0 10.45 211.45 11.05 211.45 12.2 L211.45 12.45 211.45 12.65 211.25 13.5 210.65 15.5 210.2 17.0 210.0 18.8 209.9 19.85 209.8 20.9 209.9 22.75 210.1 25.25 210.15 26.8 210.2 28.05 210.3 29.2 210.3 30.5 212.35 26.7 214.35 23.45 Q215.75 21.1 217.35 19.25 L220.75 15.65 220.9 15.5 221.0 15.35 222.25 14.25 223.5 13.2 Q226.4 10.8 229.2 9.4 231.95 8.05 233.8 8.05 234.95 8.05 235.6 8.6 M158.05 23.2 L158.05 23.4 158.05 23.65 Q157.75 27.4 153.95 30.65 150.25 33.85 145.8 34.05 L145.6 34.05 145.4 34.05 Q144.05 34.05 143.65 33.7 143.15 33.4 142.7 32.3 L142.5 31.6 142.2 30.7 Q141.9 29.5 141.1 28.9 140.35 28.35 138.75 28.35 L136.4 28.6 Q135.15 28.85 134.05 29.35 131.55 30.25 129.2 32.1 126.75 34.05 124.65 36.65 137.5 38.75 144.35 44.45 151.15 50.15 151.2 58.7 151.15 66.0 146.65 70.95 142.15 75.75 132.85 78.45 141.35 80.2 145.45 85.25 149.55 90.35 149.55 99.35 149.55 114.8 138.95 126.9 128.35 138.95 114.8 138.95 106.5 139.0 101.35 134.45 96.3 129.9 96.25 122.35 L96.25 120.95 96.45 119.5 Q97.1 113.05 100.0 107.4 102.9 101.7 106.2 100.35 106.65 100.0 107.1 99.9 L108.1 99.85 109.6 100.0 Q110.1 100.2 110.45 101.45 L110.6 102.55 110.9 103.95 Q111.2 105.05 112.25 106.0 113.3 106.9 114.4 106.9 L114.75 106.9 115.15 106.75 Q117.5 106.3 119.45 103.4 121.45 100.5 121.6 97.15 L121.6 96.95 121.6 96.65 Q121.6 91.35 118.0 88.65 114.4 86.0 107.0 86.0 L104.5 86.0 102.9 90.85 101.3 95.75 96.4 108.5 91.85 118.75 91.0 120.45 Q82.75 137.2 69.2 146.65 L66.3 148.5 63.95 146.55 55.2 138.9 Q46.35 132.1 35.5 115.5 30.8 107.1 29.0 101.65 27.4 96.75 27.0 92.4 35.85 88.25 46.5 88.25 51.55 88.15 53.85 89.35 56.05 90.35 56.1 92.95 L56.1 93.55 56.1 94.2 55.3 95.7 53.05 98.9 Q52.65 99.5 52.4 100.35 L52.2 102.2 Q52.2 104.7 54.85 106.75 57.65 108.8 61.25 108.8 L63.2 108.65 65.05 108.15 Q68.15 107.4 71.25 105.25 74.3 103.15 76.55 100.15 79.0 96.9 81.15 92.85 L85.2 84.4 91.75 68.7 92.4 67.2 93.0 65.9 93.05 65.55 93.15 65.25 95.9 59.45 100.05 50.65 Q91.4 53.0 86.55 56.45 81.7 59.95 81.7 63.65 81.7 64.9 82.4 65.8 83.1 66.65 84.55 67.1 L85.85 67.7 86.7 68.1 87.55 69.0 87.65 70.25 Q87.65 72.15 86.15 74.45 84.7 76.75 82.0 79.35 78.25 82.85 74.1 84.95 69.9 87.05 65.65 87.75 L64.35 87.8 62.85 87.9 Q55.15 87.9 49.9 82.95 44.65 78.1 44.65 70.95 44.65 60.35 53.05 51.85 61.6 43.25 76.2 39.05 82.95 37.0 90.7 36.1 L108.7 35.3 Q116.6 24.55 125.8 19.25 135.0 13.9 145.4 13.9 150.85 13.9 154.45 16.55 158.05 19.1 158.05 23.2 M112.45 58.2 Q110.65 62.55 108.9 68.6 L108.35 70.65 107.8 72.8 108.55 72.8 Q115.5 72.8 120.15 68.7 124.75 64.65 124.75 58.8 124.75 55.35 122.7 53.15 120.55 50.95 116.45 50.15 114.25 53.75 112.45 58.2 M11.95 107.95 Q12.75 114.75 14.6 123.05 15.65 127.0 17.7 131.9 19.85 136.8 21.85 140.55 24.1 144.4 27.45 149.05 30.8 153.6 32.65 155.5 22.2 153.85 14.6 146.85 4.7 137.7 4.7 124.35 4.7 113.0 11.9 104.05 11.75 105.8 11.95 107.95" fill="#00a4e3" fill-rule="evenodd" stroke="none"/>
    <path d="M257.75 117.45 L257.7 117.45 257.75 117.35 257.75 117.45 M20.0 94.6 L20.2 96.4 Q20.75 100.35 22.0 103.8 23.25 107.9 24.85 111.7 26.15 116.65 28.45 120.9 31.35 128.45 36.4 134.25 L46.0 146.2 48.0 148.45 51.2 151.7 53.15 154.15 53.95 155.05 Q54.1 155.4 53.7 155.55 51.55 156.45 48.6 156.8 47.4 156.25 46.5 155.55 L44.3 153.4 37.7 146.35 Q30.4 138.25 25.9 128.15 23.25 122.25 21.6 115.7 20.6 112.6 20.0 109.2 19.05 106.0 18.55 102.35 18.35 100.15 18.5 97.7 L18.55 95.3 Q19.05 94.6 19.65 94.2 20.0 94.1 20.0 94.6 M23.05 97.35 L22.7 93.75 Q22.75 92.85 23.1 91.95 23.95 91.0 25.0 91.2 L24.85 93.4 Q24.7 96.75 25.25 99.7 25.95 101.05 26.0 102.9 27.4 107.05 29.4 110.6 33.1 117.35 37.15 123.65 40.35 128.2 44.45 132.15 46.7 135.3 49.9 137.75 55.85 144.5 63.4 149.95 L63.45 150.15 Q63.45 150.5 62.85 150.7 60.4 152.6 57.7 153.9 L57.3 154.1 56.2 153.25 Q54.4 151.75 53.2 150.1 L46.9 143.5 39.8 134.65 33.35 125.8 29.15 116.8 24.9 103.95 Q23.75 100.8 23.05 97.35 M15.7 100.0 Q15.7 104.7 17.1 108.45 19.15 118.45 22.85 127.3 25.05 132.65 27.9 137.65 34.45 147.45 42.9 155.9 L43.45 156.4 Q43.65 156.65 43.25 156.75 L39.6 156.25 38.15 155.95 35.85 155.35 31.2 150.1 Q27.0 143.65 23.4 136.75 L19.85 130.25 17.3 122.75 Q16.95 118.9 16.1 115.4 15.1 111.5 14.75 107.0 14.65 104.0 14.8 100.9 L14.8 100.55 15.3 99.85 15.7 99.9 15.7 100.0" fill="#ffffff" fill-rule="evenodd" stroke="none"/>
    <path d="M274.6 55.45 Q271.9 56.1 269.25 57.65 266.85 59.05 264.0 61.15 262.2 62.6 262.1 64.9 L262.1 65.0 Q262.2 67.25 264.0 68.7 L263.7 70.15 263.7 70.25 Q262.8 66.85 260.05 64.4 256.3 61.15 250.75 61.15 L247.15 61.5 245.45 61.95 243.7 62.4 Q241.45 63.25 239.1 64.55 L238.8 64.75 Q238.1 64.0 237.2 63.4 233.8 61.1 229.05 61.1 L226.55 61.25 225.15 61.5 223.7 61.8 Q221.3 62.5 218.65 64.0 L218.25 64.3 218.1 64.1 Q216.25 61.7 210.85 61.3 L206.75 61.7 Q204.7 62.15 202.6 63.1 L202.7 63.1 202.45 63.2 202.55 63.2 Q200.45 63.95 198.6 65.2 L196.85 66.55 196.65 66.8 Q195.9 65.3 194.65 64.2 193.35 62.7 190.3 62.05 190.55 61.8 190.9 61.5 195.85 57.5 198.85 51.5 L199.5 52.3 Q201.35 54.45 204.55 54.55 L206.3 54.3 208.65 53.2 210.8 51.35 211.45 50.4 Q212.1 53.35 213.6 55.5 216.8 60.0 222.35 60.05 L223.45 60.0 224.2 59.95 Q226.7 59.5 229.05 58.35 L230.45 59.7 Q233.15 61.25 235.85 59.6 L236.45 59.1 237.0 58.9 237.05 58.8 237.65 58.8 240.45 58.8 Q244.4 58.8 247.25 56.2 249.75 53.9 250.65 49.9 L251.35 46.9 Q251.9 44.55 252.7 42.95 255.0 44.5 257.75 44.55 262.8 44.5 266.5 40.55 270.0 36.6 270.0 31.5 270.0 27.2 267.1 24.35 264.2 21.5 259.85 21.5 L257.85 21.75 256.1 22.15 256.1 22.05 255.9 22.15 256.05 22.15 253.4 23.1 252.3 23.8 251.75 23.25 Q249.3 21.3 245.8 21.3 L242.7 21.65 241.2 22.15 239.75 22.55 237.9 23.45 236.15 24.35 234.95 25.25 235.2 24.45 235.85 22.9 236.3 21.65 237.3 19.3 238.2 17.45 238.95 16.0 240.2 13.75 240.95 11.5 241.0 10.65 241.0 10.15 Q240.95 6.85 238.5 4.9 236.5 3.3 233.8 3.3 230.85 3.3 227.05 5.2 223.85 6.85 220.55 9.55 219.75 10.15 219.3 10.65 L217.7 12.05 217.5 12.3 216.1 13.75 216.25 12.75 216.25 12.2 Q215.95 8.65 214.5 7.4 212.5 5.2 209.4 5.2 L208.3 5.2 207.1 5.35 206.6 5.45 205.8 5.45 204.6 5.4 203.1 5.0 201.5 4.35 199.9 3.75 Q196.05 2.0 192.9 1.1 189.65 0.2 186.65 0.0 L186.35 0.0 185.1 0.0 Q176.95 0.0 170.85 5.45 164.5 11.05 164.5 18.8 164.5 23.85 167.45 27.9 163.1 29.0 159.65 31.7 162.4 28.15 162.8 24.1 L162.8 23.65 162.8 23.2 Q162.75 16.7 157.2 12.65 152.35 9.2 145.4 9.2 133.75 9.2 123.45 15.15 114.3 20.55 106.5 30.6 L90.25 31.4 Q82.0 32.4 74.85 34.55 59.15 39.1 49.75 48.5 39.95 58.45 39.95 70.95 39.95 78.1 44.15 83.6 26.8 84.3 14.0 95.3 0.0 107.35 0.0 124.35 0.0 139.8 11.4 150.3 22.7 160.7 39.3 160.7 57.1 160.7 71.9 150.5 84.15 142.0 92.25 127.8 93.7 133.75 98.25 138.0 104.7 143.7 114.85 143.7 130.5 143.65 142.5 130.0 151.45 119.7 153.6 107.25 156.3 108.45 159.5 108.45 L164.5 107.8 Q166.95 107.1 169.45 105.8 L169.4 105.8 169.65 105.7 169.5 105.8 171.6 104.5 172.7 105.65 Q176.2 108.45 181.25 108.45 L184.75 108.15 186.65 107.75 188.45 107.25 Q188.55 107.2 189.35 106.9 189.8 108.25 191.25 109.2 194.15 110.7 196.8 108.7 L197.9 107.8 Q198.1 107.65 198.45 107.45 L200.1 107.45 203.3 107.45 Q208.0 107.4 211.0 105.2 211.05 107.65 213.2 109.15 215.95 110.7 218.65 108.85 L220.1 107.75 220.45 107.55 220.75 107.45 221.85 107.45 225.85 107.45 Q230.45 107.4 233.6 104.55 235.15 103.1 236.1 101.1 237.2 103.3 239.2 105.05 243.0 108.3 248.75 108.3 L250.85 108.15 252.35 107.95 252.65 107.95 255.25 107.35 251.6 123.15 251.45 124.15 Q251.55 126.85 253.9 128.2 256.95 129.75 259.55 127.6 L261.0 126.3 261.35 126.1 261.65 126.0 261.8 126.0 262.35 126.0 266.4 126.0 Q271.25 126.0 274.35 123.25 277.2 120.7 278.3 115.7 L280.2 107.45 280.25 107.55 Q283.15 108.7 286.7 108.7 296.45 108.65 303.3 99.3 309.6 90.6 309.65 78.95 309.65 71.4 305.3 66.5 300.65 61.4 293.55 61.4 L291.1 61.45 289.6 61.8 Q288.95 58.9 286.55 57.0 283.8 54.8 279.5 54.8 L277.15 54.95 274.6 55.45 M135.7 33.75 L135.9 33.65 137.3 33.3 138.05 33.15 138.45 34.4 138.55 34.55 139.5 36.1 Q137.2 35.1 134.6 34.25 L135.7 33.75 M146.0 38.75 Q151.25 38.55 155.75 35.35 152.15 39.5 151.35 44.9 149.65 42.75 147.4 40.85 L144.2 38.7 145.4 38.75 145.85 38.75 146.0 38.75 M120.05 58.8 Q120.05 62.5 117.0 65.2 115.85 66.2 114.4 66.85 115.55 63.05 116.8 60.0 L118.6 56.05 119.25 56.45 Q119.9 56.9 120.05 58.8 M90.7 59.45 L88.9 63.25 88.85 63.55 88.8 63.85 88.8 63.65 88.7 63.8 87.75 63.4 86.7 62.9 Q87.2 61.95 89.35 60.25 L90.7 59.45 M107.9 90.8 Q113.9 91.15 115.15 92.45 116.6 93.05 116.9 96.75 L116.9 96.95 Q116.8 98.95 115.55 100.75 L115.15 101.3 115.0 100.25 Q114.1 96.55 111.2 95.55 L109.6 95.35 108.1 95.15 106.45 95.3 107.9 90.8 M158.05 63.2 Q156.65 63.75 155.3 64.5 L155.85 61.05 157.35 62.55 158.05 63.2 M149.05 75.2 L150.0 75.9 150.0 76.1 149.95 76.4 149.9 76.8 148.85 81.95 Q147.05 80.0 144.75 78.4 147.2 76.9 149.05 75.2 M60.7 95.35 L60.8 94.2 60.8 92.95 60.75 92.45 62.85 92.6 64.9 92.5 65.65 92.45 66.35 92.4 Q71.4 91.7 76.25 89.2 L78.25 87.95 77.0 90.65 Q75.1 94.3 72.8 97.3 71.0 99.8 68.6 101.35 66.2 103.05 63.95 103.6 L63.5 103.75 62.4 104.0 61.3 104.05 Q59.25 104.15 57.7 102.95 L56.9 102.15 56.95 101.7 57.0 101.5 58.05 100.0 59.1 98.45 Q60.25 96.9 60.7 95.35" fill="none" stroke="#000000" stroke-linecap="round" stroke-linejoin="round" stroke-width="19.0"/>
    <path d="M274.6 55.45 L277.15 54.95 279.5 54.8 Q283.8 54.8 286.55 57.0 288.95 58.9 289.6 61.8 L291.1 61.45 293.55 61.4 Q300.65 61.4 305.3 66.5 309.65 71.4 309.65 78.95 309.6 90.6 303.3 99.3 296.45 108.65 286.7 108.7 283.15 108.7 280.25 107.55 L280.2 107.45 278.3 115.7 Q277.2 120.7 274.35 123.25 271.25 126.0 266.4 126.0 L262.35 126.0 261.8 126.0 261.65 126.0 261.35 126.1 261.0 126.3 259.55 127.6 Q256.95 129.75 253.9 128.2 251.55 126.85 251.45 124.15 L251.6 123.15 255.25 107.35 252.65 107.95 252.35 107.95 250.85 108.15 248.75 108.3 Q243.0 108.3 239.2 105.05 237.2 103.3 236.1 101.1 235.15 103.1 233.6 104.55 230.45 107.4 225.85 107.45 L221.85 107.45 220.75 107.45 220.45 107.55 220.1 107.75 218.65 108.85 Q215.95 110.7 213.2 109.15 211.05 107.65 211.0 105.2 208.0 107.4 203.3 107.45 L200.1 107.45 198.45 107.45 Q198.1 107.65 197.9 107.8 L196.8 108.7 Q194.15 110.7 191.25 109.2 189.8 108.25 189.35 106.9 188.55 107.2 188.45 107.25 L186.65 107.75 184.75 108.15 181.25 108.45 Q176.2 108.45 172.7 105.65 L171.6 104.5 169.5 105.8 169.65 105.7 169.4 105.8 169.45 105.8 Q166.95 107.1 164.5 107.8 L159.5 108.45 Q156.3 108.45 153.6 107.25 151.45 119.7 142.5 130.0 130.5 143.65 114.85 143.7 104.7 143.7 98.25 138.0 93.7 133.75 92.25 127.8 84.15 142.0 71.9 150.5 57.1 160.7 39.3 160.7 22.7 160.7 11.4 150.3 0.0 139.8 0.0 124.35 0.0 107.35 14.0 95.3 26.8 84.3 44.15 83.6 39.95 78.1 39.95 70.95 39.95 58.45 49.75 48.5 59.15 39.1 74.85 34.55 82.0 32.4 90.25 31.4 L106.5 30.6 Q114.3 20.55 123.45 15.15 133.75 9.2 145.4 9.2 152.35 9.2 157.2 12.65 162.75 16.7 162.8 23.2 L162.8 23.65 162.8 24.1 Q162.4 28.15 159.65 31.7 163.1 29.0 167.45 27.9 164.5 23.85 164.5 18.8 164.5 11.05 170.85 5.45 176.95 0.0 185.1 0.0 L186.35 0.0 186.65 0.0 Q189.65 0.2 192.9 1.1 196.05 2.0 199.9 3.75 L201.5 4.35 203.1 5.0 204.6 5.4 205.8 5.45 206.6 5.45 207.1 5.35 208.3 5.2 209.4 5.2 Q212.5 5.2 214.5 7.4 215.95 8.65 216.25 12.2 L216.25 12.75 216.1 13.75 217.5 12.3 217.7 12.05 219.3 10.65 Q219.75 10.15 220.55 9.55 223.85 6.85 227.05 5.2 230.85 3.3 233.8 3.3 236.5 3.3 238.5 4.9 240.95 6.85 241.0 10.15 L241.0 10.65 240.95 11.5 240.2 13.75 238.95 16.0 238.2 17.45 237.3 19.3 236.3 21.65 235.85 22.9 235.2 24.45 234.95 25.25 236.15 24.35 237.9 23.45 239.75 22.55 241.2 22.15 242.7 21.65 245.8 21.3 Q249.3 21.3 251.75 23.25 L252.3 23.8 253.4 23.1 256.05 22.15 255.9 22.15 256.1 22.05 256.1 22.15 257.85 21.75 259.85 21.5 Q264.2 21.5 267.1 24.35 270.0 27.2 270.0 31.5 270.0 36.6 266.5 40.55 262.8 44.5 257.75 44.55 255.0 44.5 252.7 42.95 251.9 44.55 251.35 46.9 L250.65 49.9 Q249.75 53.9 247.25 56.2 244.4 58.8 240.45 58.8 L237.65 58.8 237.05 58.8 237.0 58.9 236.45 59.1 235.85 59.6 Q233.15 61.25 230.45 59.7 L229.05 58.35 Q226.7 59.5 224.2 59.95 L223.45 60.0 222.35 60.05 Q216.8 60.0 213.6 55.5 212.1 53.35 211.45 50.4 L210.8 51.35 208.65 53.2 206.3 54.3 204.55 54.55 Q201.35 54.45 199.5 52.3 L198.85 51.5 Q195.85 57.5 190.9 61.5 190.55 61.8 190.3 62.05 193.35 62.7 194.65 64.2 195.9 65.3 196.65 66.8 L196.85 66.55 198.6 65.2 Q200.45 63.95 202.55 63.2 L202.45 63.2 202.7 63.1 202.6 63.1 Q204.7 62.15 206.75 61.7 L210.85 61.3 Q216.25 61.7 218.1 64.1 L218.25 64.3 218.65 64.0 Q221.3 62.5 223.7 61.8 L225.15 61.5 226.55 61.25 229.05 61.1 Q233.8 61.1 237.2 63.4 238.1 64.0 238.8 64.75 L239.1 64.55 Q241.45 63.25 243.7 62.4 L245.45 61.95 247.15 61.5 250.75 61.15 Q256.3 61.15 260.05 64.4 262.8 66.85 263.7 70.25 L263.7 70.15 264.0 68.7 Q262.2 67.25 262.1 65.0 L262.1 64.9 Q262.2 62.6 264.0 61.15 266.85 59.05 269.25 57.65 271.9 56.1 274.6 55.45 L274.5 55.5 274.8 55.45 274.6 55.45 M257.75 117.45 L256.15 124.2 256.25 124.2 258.05 122.6 259.55 121.7 260.8 121.3 Q261.5 121.15 262.35 121.3 L266.4 121.3 Q269.45 121.3 271.2 119.7 273.0 118.2 273.7 114.65 L277.15 99.45 277.6 100.0 278.2 100.5 Q279.95 102.35 282.0 103.15 284.05 104.0 286.7 103.95 294.0 104.0 299.5 96.45 304.95 89.0 304.9 78.9 304.9 73.2 301.75 69.6 298.6 66.0 293.55 66.1 L291.6 66.15 289.75 66.5 Q288.4 66.9 287.05 67.6 L284.05 69.45 284.7 66.1 284.95 64.85 285.05 63.85 Q285.15 61.85 283.65 60.7 282.1 59.5 279.5 59.5 L277.6 59.6 275.8 60.0 Q273.7 60.5 271.6 61.7 269.45 62.9 266.75 64.9 L267.45 65.45 268.0 65.95 268.55 66.9 268.75 68.0 268.65 69.25 268.3 71.05 263.45 92.45 262.95 92.4 262.0 92.5 260.65 93.0 260.25 93.2 259.85 93.3 259.3 93.4 258.85 93.4 Q257.75 93.4 256.95 92.5 256.1 91.7 256.1 90.45 L256.25 89.6 256.45 88.45 256.45 88.3 256.5 88.1 259.15 76.0 259.2 75.5 259.3 75.1 259.35 74.3 259.4 73.4 Q259.4 70.1 257.0 68.0 254.6 65.9 250.75 65.9 L247.95 66.15 245.25 66.85 Q243.35 67.55 241.45 68.65 239.5 69.8 237.4 71.5 236.65 68.8 234.5 67.25 232.35 65.8 229.05 65.8 L227.05 65.9 225.1 66.3 Q223.15 66.85 221.1 68.1 219.0 69.35 216.25 71.5 216.15 68.85 214.7 67.4 213.35 66.0 210.85 66.0 L207.75 66.35 Q206.15 66.65 204.5 67.4 L201.25 69.15 Q199.65 70.15 198.05 71.5 199.3 72.05 199.7 72.8 200.1 73.5 200.1 74.95 L200.05 75.85 199.9 77.0 199.85 77.5 199.75 78.05 196.5 92.6 195.9 92.45 195.0 92.6 193.75 93.0 192.7 93.35 191.75 93.5 Q190.55 93.5 189.9 92.65 189.05 91.9 189.1 90.65 L189.25 89.45 189.6 87.65 192.8 72.8 192.85 72.45 192.85 72.05 193.0 71.7 193.0 71.25 Q193.0 69.0 191.55 67.7 190.0 66.35 187.6 66.35 L186.65 66.45 185.65 66.45 Q183.1 66.85 180.45 68.15 L178.95 69.05 178.9 69.05 Q176.85 70.25 174.65 71.95 L175.3 72.15 175.7 72.5 176.95 73.65 177.2 75.15 177.2 76.1 176.95 77.3 176.95 77.5 176.85 77.7 175.3 84.55 Q174.45 87.6 173.25 89.0 172.05 90.35 170.0 90.35 168.9 90.35 168.15 89.7 167.45 89.0 167.45 87.9 L167.55 87.05 167.75 86.0 170.5 72.8 170.55 72.65 170.65 72.5 170.65 72.15 170.65 71.55 Q170.65 69.15 169.1 67.75 167.65 66.35 165.1 66.35 163.25 66.35 160.95 67.1 158.65 67.9 156.4 69.2 L154.4 70.5 152.5 71.95 152.8 72.1 153.05 72.25 Q154.05 72.85 154.4 73.65 154.8 74.3 154.8 75.35 L154.75 76.45 154.5 77.7 151.0 94.6 150.85 95.5 150.8 96.4 Q150.8 99.45 153.35 101.6 155.9 103.75 159.5 103.75 L163.3 103.15 Q165.3 102.7 167.4 101.5 L170.5 99.7 173.4 97.35 Q173.6 100.35 175.7 102.0 177.75 103.75 181.25 103.75 L184.0 103.45 186.95 102.75 190.0 101.6 192.8 99.9 194.4 98.7 195.4 97.8 193.75 105.2 Q194.5 104.4 195.2 103.95 L196.45 103.15 198.05 102.75 200.1 102.7 203.25 102.7 Q206.7 102.7 208.35 101.25 210.1 99.8 210.85 96.2 L213.2 85.45 Q213.95 82.15 215.2 80.6 216.45 79.1 218.25 79.15 219.3 79.15 220.0 79.8 220.6 80.5 220.6 81.5 L220.6 82.3 220.55 82.9 220.45 83.5 220.35 84.1 217.15 98.7 216.95 98.75 217.05 98.75 217.15 98.75 215.7 105.2 217.35 103.85 218.8 103.1 220.2 102.75 221.85 102.7 225.85 102.7 Q228.55 102.7 230.35 101.05 232.15 99.35 232.85 96.2 L235.15 85.45 Q235.9 82.15 237.0 80.7 238.2 79.3 240.0 79.3 241.3 79.3 242.0 80.0 242.6 80.7 242.6 82.2 L242.55 83.1 242.35 84.0 240.0 93.9 240.0 94.25 239.85 94.5 239.75 95.3 239.7 95.9 Q239.7 99.3 242.25 101.45 244.75 103.5 248.7 103.6 L250.2 103.45 251.75 103.25 Q253.9 102.9 255.8 102.05 257.85 101.3 259.65 100.0 L260.3 99.45 260.95 98.9 262.2 97.8 257.75 117.35 257.35 117.55 257.55 117.5 257.7 117.45 257.75 117.45 M259.85 26.25 L258.6 26.35 257.2 26.65 255.5 27.35 253.9 28.3 253.55 28.5 253.25 28.8 253.15 28.85 251.9 29.9 249.6 32.05 249.8 30.5 249.85 29.7 249.85 29.55 249.85 29.4 Q249.85 27.8 248.75 26.9 247.65 26.0 245.8 26.0 L243.7 26.3 241.45 27.0 238.6 28.35 Q237.2 29.2 236.1 30.15 L236.45 30.45 236.8 30.65 237.5 31.5 237.65 32.65 237.65 33.2 237.55 33.7 237.55 34.3 237.4 34.9 233.0 55.85 234.15 55.0 235.35 54.45 236.4 54.2 237.65 54.1 240.45 54.1 Q242.6 54.1 244.0 52.75 245.45 51.4 246.05 48.85 L246.7 45.9 Q247.65 41.8 249.25 39.3 250.85 36.9 253.6 35.2 L253.45 35.85 253.45 36.35 Q253.45 37.7 254.8 38.75 256.1 39.85 257.75 39.85 260.75 39.85 263.0 37.3 265.3 34.8 265.3 31.5 265.3 29.15 263.8 27.7 262.35 26.25 259.85 26.25 M264.6 69.2 L264.45 69.05 264.4 69.05 264.45 69.15 264.6 69.2 M235.9 11.7 L236.3 10.65 236.3 10.4 236.3 10.15 Q236.3 9.15 235.6 8.6 234.95 8.05 233.8 8.05 231.95 8.05 229.2 9.4 226.4 10.8 223.5 13.2 L222.25 14.25 221.0 15.35 220.9 15.5 220.75 15.65 217.35 19.25 Q215.75 21.1 214.35 23.45 L212.35 26.7 210.3 30.5 210.3 29.2 210.2 28.05 210.15 26.8 210.1 25.25 209.9 22.75 209.8 20.9 209.9 19.85 210.0 18.8 210.2 17.0 210.65 15.5 211.25 13.5 211.45 12.65 211.45 12.45 211.45 12.2 Q211.45 11.05 211.0 10.45 210.45 9.85 209.4 9.9 L208.7 9.9 207.65 10.05 207.25 10.1 206.9 10.15 206.4 10.15 205.8 10.15 204.95 10.1 204.15 10.1 201.55 9.5 198.0 8.05 Q194.4 6.45 191.6 5.65 188.85 4.85 186.35 4.7 L185.75 4.7 185.1 4.7 Q178.65 4.7 173.95 8.95 169.2 13.2 169.2 18.8 169.2 23.2 172.15 26.3 175.15 29.5 179.3 29.5 L181.5 29.25 183.95 28.6 Q185.3 28.1 186.65 27.4 L189.1 25.9 190.15 25.1 191.0 24.2 192.0 22.75 192.45 21.45 192.45 21.3 192.15 20.7 Q191.9 20.4 191.55 20.4 L191.45 20.4 189.95 20.55 189.9 20.55 Q189.4 20.55 189.0 20.0 188.55 19.45 188.55 18.8 188.55 17.5 189.75 16.6 191.0 15.7 192.7 15.65 L195.55 16.0 199.55 16.95 198.4 18.5 197.55 19.65 197.3 20.15 197.0 20.7 195.55 23.6 193.2 28.7 189.8 35.55 Q188.35 38.25 186.9 39.8 185.75 40.9 184.55 41.45 L181.9 41.95 Q180.05 41.95 178.75 40.9 177.35 39.85 177.4 38.4 L177.4 37.9 177.55 37.55 178.1 36.45 178.95 35.65 179.55 35.15 179.85 34.65 180.0 34.4 180.0 34.1 Q180.0 32.85 178.55 32.25 177.0 31.55 174.5 31.55 166.55 31.55 161.15 36.4 155.75 41.3 155.75 48.5 155.75 54.85 160.45 59.05 165.1 63.2 172.35 63.1 181.35 63.1 187.95 57.85 194.5 52.5 197.3 42.95 L198.2 39.6 198.6 37.85 199.2 35.7 200.6 30.5 201.35 28.05 201.9 26.25 202.2 25.6 202.4 25.05 202.75 24.3 203.1 23.6 202.95 25.1 202.8 26.35 202.8 27.05 202.8 27.9 202.9 29.75 203.05 32.6 203.15 35.0 203.25 36.95 203.15 38.45 203.1 41.3 202.95 43.2 202.8 44.35 202.6 46.15 202.45 47.1 202.45 47.25 202.45 47.45 Q202.45 48.65 203.05 49.2 203.5 49.8 204.55 49.75 L205.25 49.7 205.85 49.4 207.2 48.25 208.7 46.15 209.95 44.1 211.0 42.3 211.35 41.8 211.6 41.3 212.65 39.15 213.95 36.65 215.35 33.7 216.65 31.3 217.0 30.7 217.35 30.15 217.9 29.15 218.6 28.1 219.5 26.7 220.25 25.6 220.75 25.05 221.25 24.5 221.9 23.8 222.8 23.1 Q219.2 29.4 217.5 34.6 215.85 39.8 215.7 44.9 L215.7 45.3 215.7 45.75 Q215.7 50.25 217.4 52.8 219.2 55.35 222.35 55.35 L222.95 55.3 223.5 55.3 Q227.4 54.65 230.65 51.2 233.95 47.7 234.5 43.55 L234.65 42.75 234.7 42.05 Q234.7 41.25 234.3 40.75 233.95 40.25 233.4 40.2 L232.85 40.35 232.1 40.6 231.55 40.85 231.05 40.9 Q229.75 40.85 229.0 39.25 228.2 37.7 228.2 35.1 L228.3 33.9 228.3 32.8 Q228.5 30.45 229.1 28.1 229.65 25.65 230.75 22.75 L231.35 21.25 Q231.6 20.5 232.0 19.65 L232.5 18.55 232.9 17.5 233.95 15.3 234.95 13.55 235.9 11.7 M280.75 82.5 L280.75 82.35 Q280.8 80.05 282.35 78.2 283.8 76.25 285.5 75.9 L285.8 75.9 286.15 75.9 Q287.6 76.0 288.35 76.9 289.2 77.8 289.2 79.3 289.2 81.95 287.6 84.0 286.05 86.0 284.0 86.0 282.55 86.0 281.65 85.1 280.75 84.15 280.75 82.6 L280.75 82.5 M208.15 53.55 L208.65 53.2 208.7 53.2 208.15 53.55 M184.2 36.65 L184.35 36.2 184.25 36.25 184.2 36.65 M186.0 32.85 Q185.6 33.0 185.5 33.1 L184.6 33.3 184.75 34.1 184.6 35.1 185.75 33.3 186.0 32.85 M206.95 5.45 L207.25 5.4 206.85 5.45 206.95 5.45 M158.05 23.2 Q158.05 19.1 154.45 16.55 150.85 13.9 145.4 13.9 135.0 13.9 125.8 19.25 116.6 24.55 108.7 35.3 L90.7 36.1 Q82.95 37.0 76.2 39.05 61.6 43.25 53.05 51.85 44.65 60.35 44.65 70.95 44.65 78.1 49.9 82.95 55.15 87.9 62.85 87.9 L64.35 87.8 65.65 87.75 Q69.9 87.05 74.1 84.95 78.25 82.85 82.0 79.35 84.7 76.75 86.15 74.45 87.65 72.15 87.65 70.25 L87.55 69.0 86.7 68.1 85.85 67.7 84.55 67.1 Q83.1 66.65 82.4 65.8 81.7 64.9 81.7 63.65 81.7 59.95 86.55 56.45 91.4 53.0 100.05 50.65 L95.9 59.45 93.15 65.25 93.05 65.55 93.0 65.9 92.4 67.2 91.75 68.7 85.2 84.4 81.15 92.85 Q79.0 96.9 76.55 100.15 74.3 103.15 71.25 105.25 68.15 107.4 65.05 108.15 L63.2 108.65 61.25 108.8 Q57.65 108.8 54.85 106.75 52.2 104.7 52.2 102.2 L52.4 100.35 Q52.65 99.5 53.05 98.9 L55.3 95.7 56.1 94.2 56.1 93.55 56.1 92.95 Q56.05 90.35 53.85 89.35 51.55 88.15 46.5 88.25 35.85 88.25 27.0 92.4 27.4 96.75 29.0 101.65 30.8 107.1 35.5 115.5 46.35 132.1 55.2 138.9 L63.95 146.55 66.3 148.5 69.2 146.65 Q82.75 137.2 91.0 120.45 L91.85 118.75 96.4 108.5 101.3 95.75 102.9 90.85 104.5 86.0 107.0 86.0 Q114.4 86.0 118.0 88.65 121.6 91.35 121.6 96.65 L121.6 96.95 121.6 97.15 Q121.45 100.5 119.45 103.4 117.5 106.3 115.15 106.75 L114.75 106.9 114.4 106.9 Q113.3 106.9 112.25 106.0 111.2 105.05 110.9 103.95 L110.6 102.55 110.45 101.45 Q110.1 100.2 109.6 100.0 L108.1 99.85 107.1 99.9 Q106.65 100.0 106.2 100.35 102.9 101.7 100.0 107.4 97.1 113.05 96.45 119.5 L96.25 120.95 96.25 122.35 Q96.3 129.9 101.35 134.45 106.5 139.0 114.8 138.95 128.35 138.95 138.95 126.9 149.55 114.8 149.55 99.35 149.55 90.35 145.45 85.25 141.35 80.2 132.85 78.45 142.15 75.75 146.65 70.95 151.15 66.0 151.2 58.7 151.15 50.15 144.35 44.45 137.5 38.75 124.65 36.65 126.75 34.05 129.2 32.1 131.55 30.25 134.05 29.35 135.15 28.85 136.4 28.6 L138.75 28.35 Q140.35 28.35 141.1 28.9 141.9 29.5 142.2 30.7 L142.5 31.6 142.7 32.3 Q143.15 33.4 143.65 33.7 144.05 34.05 145.4 34.05 L145.6 34.05 145.8 34.05 Q150.25 33.85 153.95 30.65 157.75 27.4 158.05 23.65 L158.05 23.4 158.05 23.2 M145.85 38.75 L145.4 38.75 144.2 38.7 147.4 40.85 Q149.65 42.75 151.35 44.9 152.15 39.5 155.75 35.35 151.25 38.55 146.0 38.75 L145.85 38.75 M135.7 33.75 L134.6 34.25 Q137.2 35.1 139.5 36.1 L138.55 34.55 138.45 34.4 138.05 33.15 137.3 33.3 135.9 33.65 135.7 33.75 M112.45 58.2 Q114.25 53.75 116.45 50.15 120.55 50.95 122.7 53.15 124.75 55.35 124.75 58.8 124.75 64.65 120.15 68.7 115.5 72.8 108.55 72.8 L107.8 72.8 108.35 70.65 108.9 68.6 Q110.65 62.55 112.45 58.2 M149.05 75.2 Q147.2 76.9 144.75 78.4 147.05 80.0 148.85 81.95 L149.9 76.8 149.95 76.4 150.0 76.1 150.0 75.9 149.05 75.2 M155.3 64.5 Q156.65 63.75 158.05 63.2 L157.35 62.55 155.85 61.05 155.3 64.5 M107.9 90.8 L106.45 95.3 108.1 95.15 109.6 95.35 111.2 95.55 Q114.1 96.55 115.0 100.25 L115.15 101.3 115.55 100.75 Q116.8 98.95 116.9 96.95 L116.9 96.75 Q116.6 93.05 115.15 92.45 113.9 91.15 107.9 90.8 M90.7 59.45 L89.35 60.25 Q87.2 61.95 86.7 62.9 L87.75 63.4 88.7 63.8 88.8 63.65 88.8 63.85 88.85 63.55 88.9 63.25 90.7 59.45 M120.05 58.8 Q119.9 56.9 119.25 56.45 L118.6 56.05 116.8 60.0 Q115.55 63.05 114.4 66.85 115.85 66.2 117.0 65.2 120.05 62.5 120.05 58.8 M22.7 93.75 L23.05 97.35 Q23.75 100.8 24.9 103.95 L29.15 116.8 33.35 125.8 39.8 134.65 46.9 143.5 53.2 150.1 Q54.4 151.75 56.2 153.25 L57.3 154.1 57.7 153.9 Q60.4 152.6 62.85 150.7 63.45 150.5 63.45 150.15 L63.4 149.95 Q55.85 144.5 49.9 137.75 46.7 135.3 44.45 132.15 40.35 128.2 37.15 123.65 33.1 117.35 29.4 110.6 27.4 107.05 26.0 102.9 25.95 101.05 25.25 99.7 24.7 96.75 24.85 93.4 L25.0 91.2 Q23.95 91.0 23.1 91.95 22.75 92.85 22.7 93.75 M18.5 97.7 Q18.35 100.15 18.55 102.35 19.05 106.0 20.0 109.2 20.6 112.6 21.6 115.7 23.25 122.25 25.9 128.15 30.4 138.25 37.7 146.35 L44.3 153.4 46.5 155.55 Q47.4 156.25 48.6 156.8 51.55 156.45 53.7 155.55 54.1 155.4 53.95 155.05 L53.15 154.15 51.2 151.7 48.0 148.45 46.0 146.2 36.4 134.25 Q31.35 128.45 28.45 120.9 26.15 116.65 24.85 111.7 23.25 107.9 22.0 103.8 20.75 100.35 20.2 96.4 L20.0 94.6 Q20.0 94.1 19.65 94.2 19.05 94.6 18.55 95.3 L18.5 97.7 M60.7 95.35 Q60.25 96.9 59.1 98.45 L58.05 100.0 57.0 101.5 56.95 101.7 56.9 102.15 57.7 102.95 Q59.25 104.15 61.3 104.05 L62.4 104.0 63.5 103.75 63.95 103.6 Q66.2 103.05 68.6 101.35 71.0 99.8 72.8 97.3 75.1 94.3 77.0 90.65 L78.25 87.95 76.25 89.2 Q71.4 91.7 66.35 92.4 L65.65 92.45 64.9 92.5 62.85 92.6 60.75 92.45 60.8 92.95 60.8 94.2 60.7 95.35 M15.7 100.0 L15.7 99.9 15.3 99.85 14.8 100.55 14.8 100.9 Q14.65 104.0 14.75 107.0 15.1 111.5 16.1 115.4 16.95 118.9 17.3 122.75 L19.85 130.25 23.4 136.75 Q27.0 143.65 31.2 150.1 L35.85 155.35 38.15 155.95 39.6 156.25 43.25 156.75 Q43.65 156.65 43.45 156.4 L42.9 155.9 Q34.45 147.45 27.9 137.65 25.05 132.65 22.85 127.3 19.15 118.45 17.1 108.45 15.7 104.7 15.7 100.0 M11.95 107.95 Q11.75 105.8 11.9 104.05 4.7 113.0 4.7 124.35 4.7 137.7 14.6 146.85 22.2 153.85 32.65 155.5 30.8 153.6 27.45 149.05 24.1 144.4 21.85 140.55 19.85 136.8 17.7 131.9 15.65 127.0 14.6 123.05 12.75 114.75 11.95 107.95 M115.5 102.85 L115.5 102.75 115.4 102.55 115.5 102.85" fill="#000000" fill-rule="evenodd" stroke="none"/>
    <path d="M259.85 26.25 Q262.35 26.25 263.8 27.7 265.3 29.15 265.3 31.5 265.3 34.8 263.0 37.3 260.75 39.85 257.75 39.85 256.1 39.85 254.8 38.75 253.45 37.7 253.45 36.35 L253.45 35.85 253.6 35.2 Q250.85 36.9 249.25 39.3 247.65 41.8 246.7 45.9 L246.05 48.85 Q245.45 51.4 244.0 52.75 242.6 54.1 240.45 54.1 L237.65 54.1 236.4 54.2 235.35 54.45 234.15 55.0 233.0 55.85 237.4 34.9 237.55 34.3 237.55 33.7 237.65 33.2 237.65 32.65 237.5 31.5 236.8 30.65 236.45 30.45 236.1 30.15 Q237.2 29.2 238.6 28.35 L241.45 27.0 243.7 26.3 245.8 26.0 Q247.65 26.0 248.75 26.9 249.85 27.8 249.85 29.4 L249.85 29.55 249.85 29.7 249.8 30.5 249.6 32.05 251.9 29.9 253.15 28.85 253.25 28.8 253.55 28.5 253.9 28.3 255.5 27.35 257.2 26.65 258.6 26.35 259.85 26.25 M217.15 98.7 L220.35 84.1 220.45 83.5 220.55 82.9 220.6 82.3 220.6 81.5 Q220.6 80.5 220.0 79.8 219.3 79.15 218.25 79.15 216.45 79.1 215.2 80.6 213.95 82.15 213.2 85.45 L210.85 96.2 Q210.1 99.8 208.35 101.25 206.7 102.7 203.25 102.7 L200.1 102.7 198.05 102.75 196.45 103.15 195.2 103.95 Q194.5 104.4 193.75 105.2 L195.4 97.8 194.4 98.7 192.8 99.9 190.0 101.6 186.95 102.75 184.0 103.45 181.25 103.75 Q177.75 103.75 175.7 102.0 173.6 100.35 173.4 97.35 L170.5 99.7 167.4 101.5 Q165.3 102.7 163.3 103.15 L159.5 103.75 Q155.9 103.75 153.35 101.6 150.8 99.45 150.8 96.4 L150.85 95.5 151.0 94.6 154.5 77.7 154.75 76.45 154.8 75.35 Q154.8 74.3 154.4 73.65 154.05 72.85 153.05 72.25 L152.8 72.1 152.5 71.95 154.4 70.5 156.4 69.2 Q158.65 67.9 160.95 67.1 163.25 66.35 165.1 66.35 167.65 66.35 169.1 67.75 170.65 69.15 170.65 71.55 L170.65 72.15 170.65 72.5 170.55 72.65 170.5 72.8 167.75 86.0 167.55 87.05 167.45 87.9 Q167.45 89.0 168.15 89.7 168.9 90.35 170.0 90.35 172.05 90.35 173.25 89.0 174.45 87.6 175.3 84.55 L176.85 77.7 176.95 77.5 176.95 77.3 177.2 76.1 177.2 75.15 176.95 73.65 175.7 72.5 175.3 72.15 174.65 71.95 Q176.85 70.25 178.9 69.05 L178.95 69.05 180.45 68.15 Q183.1 66.85 185.65 66.45 L186.65 66.45 187.6 66.35 Q190.0 66.35 191.55 67.7 193.0 69.0 193.0 71.25 L193.0 71.7 192.85 72.05 192.85 72.45 192.8 72.8 189.6 87.65 189.25 89.45 189.1 90.65 Q189.05 91.9 189.9 92.65 190.55 93.5 191.75 93.5 L192.7 93.35 193.75 93.0 195.0 92.6 195.9 92.45 196.5 92.6 199.75 78.05 199.85 77.5 199.9 77.0 200.05 75.85 200.1 74.95 Q200.1 73.5 199.7 72.8 199.3 72.05 198.05 71.5 199.65 70.15 201.25 69.15 L204.5 67.4 Q206.15 66.65 207.75 66.35 L210.85 66.0 Q213.35 66.0 214.7 67.4 216.15 68.85 216.25 71.5 219.0 69.35 221.1 68.1 223.15 66.85 225.1 66.3 L227.05 65.9 229.05 65.8 Q232.35 65.8 234.5 67.25 236.65 68.8 237.4 71.5 239.5 69.8 241.45 68.65 243.35 67.55 245.25 66.85 L247.95 66.15 250.75 65.9 Q254.6 65.9 257.0 68.0 259.4 70.1 259.4 73.4 L259.35 74.3 259.3 75.1 259.2 75.5 259.15 76.0 256.5 88.1 256.45 88.3 256.45 88.45 256.25 89.6 256.1 90.45 Q256.1 91.7 256.95 92.5 257.75 93.4 258.85 93.4 L259.3 93.4 259.85 93.3 260.25 93.2 260.65 93.0 262.0 92.5 262.95 92.4 263.45 92.45 268.3 71.05 268.65 69.25 268.75 68.0 268.55 66.9 268.0 65.95 267.45 65.45 266.75 64.9 Q269.45 62.9 271.6 61.7 273.7 60.5 275.8 60.0 L277.6 59.6 279.5 59.5 Q282.1 59.5 283.65 60.7 285.15 61.85 285.05 63.85 L284.95 64.85 284.7 66.1 284.05 69.45 287.05 67.6 Q288.4 66.9 289.75 66.5 L291.6 66.15 293.55 66.1 Q298.6 66.0 301.75 69.6 304.9 73.2 304.9 78.9 304.95 89.0 299.5 96.45 294.0 104.0 286.7 103.95 284.05 104.0 282.0 103.15 279.95 102.35 278.2 100.5 L277.6 100.0 277.15 99.45 273.7 114.65 Q273.0 118.2 271.2 119.7 269.45 121.3 266.4 121.3 L262.35 121.3 Q261.5 121.15 260.8 121.3 L259.55 121.7 258.05 122.6 256.25 124.2 256.15 124.2 257.75 117.45 257.75 117.35 262.2 97.8 260.95 98.9 260.3 99.45 259.65 100.0 Q257.85 101.3 255.8 102.05 253.9 102.9 251.75 103.25 L250.2 103.45 248.7 103.6 Q244.75 103.5 242.25 101.45 239.7 99.3 239.7 95.9 L239.75 95.3 239.85 94.5 240.0 94.25 240.0 93.9 242.35 84.0 242.55 83.1 242.6 82.2 Q242.6 80.7 242.0 80.0 241.3 79.3 240.0 79.3 238.2 79.3 237.0 80.7 235.9 82.15 235.15 85.45 L232.85 96.2 Q232.15 99.35 230.35 101.05 228.55 102.7 225.85 102.7 L221.85 102.7 220.2 102.75 218.8 103.1 217.35 103.85 215.7 105.2 217.15 98.75 217.15 98.7 M280.75 82.5 L280.75 82.6 Q280.75 84.15 281.65 85.1 282.55 86.0 284.0 86.0 286.05 86.0 287.6 84.0 289.2 81.95 289.2 79.3 289.2 77.8 288.35 76.9 287.6 76.0 286.15 75.9 L285.8 75.9 285.5 75.9 Q283.8 76.25 282.35 78.2 280.8 80.05 280.75 82.35 L280.75 82.5 M235.9 11.7 L234.95 13.55 233.95 15.3 232.9 17.5 232.5 18.55 232.0 19.65 Q231.6 20.5 231.35 21.25 L230.75 22.75 Q229.65 25.65 229.1 28.1 228.5 30.45 228.3 32.8 L228.3 33.9 228.2 35.1 Q228.2 37.7 229.0 39.25 229.75 40.85 231.05 40.9 L231.55 40.85 232.1 40.6 232.85 40.35 233.4 40.2 Q233.95 40.25 234.3 40.75 234.7 41.25 234.7 42.05 L234.65 42.75 234.5 43.55 Q233.95 47.7 230.65 51.2 227.4 54.65 223.5 55.3 L222.95 55.3 222.35 55.35 Q219.2 55.35 217.4 52.8 215.7 50.25 215.7 45.75 L215.7 45.3 215.7 44.9 Q215.85 39.8 217.5 34.6 219.2 29.4 222.8 23.1 L221.9 23.8 221.25 24.5 220.75 25.05 220.25 25.6 219.5 26.7 218.6 28.1 217.9 29.15 217.35 30.15 217.0 30.7 216.65 31.3 215.35 33.7 213.95 36.65 212.65 39.15 211.6 41.3 211.35 41.8 211.0 42.3 209.95 44.1 208.7 46.15 207.2 48.25 205.85 49.4 205.25 49.7 204.55 49.75 Q203.5 49.8 203.05 49.2 202.45 48.65 202.45 47.45 L202.45 47.25 202.45 47.1 202.6 46.15 202.8 44.35 202.95 43.2 203.1 41.3 203.15 38.45 203.25 36.95 203.15 35.0 203.05 32.6 202.9 29.75 202.8 27.9 202.8 27.05 202.8 26.35 202.95 25.1 203.1 23.6 202.75 24.3 202.4 25.05 202.2 25.6 201.9 26.25 201.35 28.05 200.6 30.5 199.2 35.7 198.6 37.85 198.2 39.6 197.3 42.95 Q194.5 52.5 187.95 57.85 181.35 63.1 172.35 63.1 165.1 63.2 160.45 59.05 155.75 54.85 155.75 48.5 155.75 41.3 161.15 36.4 166.55 31.55 174.5 31.55 177.0 31.55 178.55 32.25 180.0 32.85 180.0 34.1 L180.0 34.4 179.85 34.65 179.55 35.15 178.95 35.65 178.1 36.45 177.55 37.55 177.4 37.9 177.4 38.4 Q177.35 39.85 178.75 40.9 180.05 41.95 181.9 41.95 L184.55 41.45 Q185.75 40.9 186.9 39.8 188.35 38.25 189.8 35.55 L193.2 28.7 195.55 23.6 197.0 20.7 197.3 20.15 197.55 19.65 198.4 18.5 199.55 16.95 195.55 16.0 192.7 15.65 Q191.0 15.7 189.75 16.6 188.55 17.5 188.55 18.8 188.55 19.45 189.0 20.0 189.4 20.55 189.9 20.55 L189.95 20.55 191.45 20.4 191.55 20.4 Q191.9 20.4 192.15 20.7 L192.45 21.3 192.45 21.45 192.0 22.75 191.0 24.2 190.15 25.1 189.1 25.9 186.65 27.4 Q185.3 28.1 183.95 28.6 L181.5 29.25 179.3 29.5 Q175.15 29.5 172.15 26.3 169.2 23.2 169.2 18.8 169.2 13.2 173.95 8.95 178.65 4.7 185.1 4.7 L185.75 4.7 186.35 4.7 Q188.85 4.85 191.6 5.65 194.4 6.45 198.0 8.05 L201.55 9.5 204.15 10.1 204.95 10.1 205.8 10.15 206.4 10.15 206.9 10.15 207.25 10.1 207.65 10.05 208.7 9.9 209.4 9.9 Q210.45 9.85 211.0 10.45 211.45 11.05 211.45 12.2 L211.45 12.45 211.45 12.65 211.25 13.5 210.65 15.5 210.2 17.0 210.0 18.8 209.9 19.85 209.8 20.9 209.9 22.75 210.1 25.25 210.15 26.8 210.2 28.05 210.3 29.2 210.3 30.5 212.35 26.7 214.35 23.45 Q215.75 21.1 217.35 19.25 L220.75 15.65 220.9 15.5 221.0 15.35 222.25 14.25 223.5 13.2 Q226.4 10.8 229.2 9.4 231.95 8.05 233.8 8.05 234.95 8.05 235.6 8.6 236.3 9.15 236.3 10.15 L236.3 10.4 236.3 10.65 235.9 11.7 M158.05 23.2 L158.05 23.4 158.05 23.65 Q157.75 27.4 153.95 30.65 150.25 33.85 145.8 34.05 L145.6 34.05 145.4 34.05 Q144.05 34.05 143.65 33.7 143.15 33.4 142.7 32.3 L142.5 31.6 142.2 30.7 Q141.9 29.5 141.1 28.9 140.35 28.35 138.75 28.35 L136.4 28.6 Q135.15 28.85 134.05 29.35 131.55 30.25 129.2 32.1 126.75 34.05 124.65 36.65 137.5 38.75 144.35 44.45 151.15 50.15 151.2 58.7 151.15 66.0 146.65 70.95 142.15 75.75 132.85 78.45 141.35 80.2 145.45 85.25 149.55 90.35 149.55 99.35 149.55 114.8 138.95 126.9 128.35 138.95 114.8 138.95 106.5 139.0 101.35 134.45 96.3 129.9 96.25 122.35 L96.25 120.95 96.45 119.5 Q97.1 113.05 100.0 107.4 102.9 101.7 106.2 100.35 106.65 100.0 107.1 99.9 L108.1 99.85 109.6 100.0 Q110.1 100.2 110.45 101.45 L110.6 102.55 110.9 103.95 Q111.2 105.05 112.25 106.0 113.3 106.9 114.4 106.9 L114.75 106.9 115.15 106.75 Q117.5 106.3 119.45 103.4 121.45 100.5 121.6 97.15 L121.6 96.95 121.6 96.65 Q121.6 91.35 118.0 88.65 114.4 86.0 107.0 86.0 L104.5 86.0 102.9 90.85 101.3 95.75 96.4 108.5 91.85 118.75 91.0 120.45 Q82.75 137.2 69.2 146.65 L66.3 148.5 63.95 146.55 55.2 138.9 Q46.35 132.1 35.5 115.5 30.8 107.1 29.0 101.65 27.4 96.75 27.0 92.4 35.85 88.25 46.5 88.25 51.55 88.15 53.85 89.35 56.05 90.35 56.1 92.95 L56.1 93.55 56.1 94.2 55.3 95.7 53.05 98.9 Q52.65 99.5 52.4 100.35 L52.2 102.2 Q52.2 104.7 54.85 106.75 57.65 108.8 61.25 108.8 L63.2 108.65 65.05 108.15 Q68.15 107.4 71.25 105.25 74.3 103.15 76.55 100.15 79.0 96.9 81.15 92.85 L85.2 84.4 91.75 68.7 92.4 67.2 93.0 65.9 93.05 65.55 93.15 65.25 95.9 59.45 100.05 50.65 Q91.4 53.0 86.55 56.45 81.7 59.95 81.7 63.65 81.7 64.9 82.4 65.8 83.1 66.65 84.55 67.1 L85.85 67.7 86.7 68.1 87.55 69.0 87.65 70.25 Q87.65 72.15 86.15 74.45 84.7 76.75 82.0 79.35 78.25 82.85 74.1 84.95 69.9 87.05 65.65 87.75 L64.35 87.8 62.85 87.9 Q55.15 87.9 49.9 82.95 44.65 78.1 44.65 70.95 44.65 60.35 53.05 51.85 61.6 43.25 76.2 39.05 82.95 37.0 90.7 36.1 L108.7 35.3 Q116.6 24.55 125.8 19.25 135.0 13.9 145.4 13.9 150.85 13.9 154.45 16.55 158.05 19.1 158.05 23.2 M112.45 58.2 Q110.65 62.55 108.9 68.6 L108.35 70.65 107.8 72.8 108.55 72.8 Q115.5 72.8 120.15 68.7 124.75 64.65 124.75 58.8 124.75 55.35 122.7 53.15 120.55 50.95 116.45 50.15 114.25 53.75 112.45 58.2 M11.95 107.95 Q12.75 114.75 14.6 123.05 15.65 127.0 17.7 131.9 19.85 136.8 21.85 140.55 24.1 144.4 27.45 149.05 30.8 153.6 32.65 155.5 22.2 153.85 14.6 146.85 4.7 137.7 4.7 124.35 4.7 113.0 11.9 104.05 11.75 105.8 11.95 107.95" fill="#00a4e3" fill-rule="evenodd" stroke="none"/>
    <path d="M257.75 117.45 L257.7 117.45 257.75 117.35 257.75 117.45 M18.5 97.7 L18.55 95.3 Q19.05 94.6 19.65 94.2 20.0 94.1 20.0 94.6 L20.2 96.4 Q20.75 100.35 22.0 103.8 23.25 107.9 24.85 111.7 26.15 116.65 28.45 120.9 31.35 128.45 36.4 134.25 L46.0 146.2 48.0 148.45 51.2 151.7 53.15 154.15 53.95 155.05 Q54.1 155.4 53.7 155.55 51.55 156.45 48.6 156.8 47.4 156.25 46.5 155.55 L44.3 153.4 37.7 146.35 Q30.4 138.25 25.9 128.15 23.25 122.25 21.6 115.7 20.6 112.6 20.0 109.2 19.05 106.0 18.55 102.35 18.35 100.15 18.5 97.7 M22.7 93.75 Q22.75 92.85 23.1 91.95 23.95 91.0 25.0 91.2 L24.85 93.4 Q24.7 96.75 25.25 99.7 25.95 101.05 26.0 102.9 27.4 107.05 29.4 110.6 33.1 117.35 37.15 123.65 40.35 128.2 44.45 132.15 46.7 135.3 49.9 137.75 55.85 144.5 63.4 149.95 L63.45 150.15 Q63.45 150.5 62.85 150.7 60.4 152.6 57.7 153.9 L57.3 154.1 56.2 153.25 Q54.4 151.75 53.2 150.1 L46.9 143.5 39.8 134.65 33.35 125.8 29.15 116.8 24.9 103.95 Q23.75 100.8 23.05 97.35 L22.7 93.75 M15.7 100.0 Q15.7 104.7 17.1 108.45 19.15 118.45 22.85 127.3 25.05 132.65 27.9 137.65 34.45 147.45 42.9 155.9 L43.45 156.4 Q43.65 156.65 43.25 156.75 L39.6 156.25 38.15 155.95 35.85 155.35 31.2 150.1 Q27.0 143.65 23.4 136.75 L19.85 130.25 17.3 122.75 Q16.95 118.9 16.1 115.4 15.1 111.5 14.75 107.0 14.65 104.0 14.8 100.9 L14.8 100.55 15.3 99.85 15.7 99.9 15.7 100.0" fill="#ffffff" fill-rule="evenodd" stroke="none"/>
    <path d="M274.6 55.45 Q271.9 56.1 269.25 57.65 266.85 59.05 264.0 61.15 262.2 62.6 262.1 64.9 L262.1 65.0 Q262.2 67.25 264.0 68.7 L263.7 70.15 263.7 70.25 Q262.8 66.85 260.05 64.4 256.3 61.15 250.75 61.15 L247.15 61.5 245.45 61.95 243.7 62.4 Q241.45 63.25 239.1 64.55 L238.8 64.75 Q238.1 64.0 237.2 63.4 233.8 61.1 229.05 61.1 L226.55 61.25 225.15 61.5 223.7 61.8 Q221.3 62.5 218.65 64.0 L218.25 64.3 218.1 64.1 Q216.25 61.7 210.85 61.3 L206.75 61.7 Q204.7 62.15 202.6 63.1 L202.7 63.1 202.45 63.2 202.55 63.2 Q200.45 63.95 198.6 65.2 L196.85 66.55 196.65 66.8 Q195.9 65.3 194.65 64.2 193.35 62.7 190.3 62.05 190.55 61.8 190.9 61.5 195.85 57.5 198.85 51.5 L199.5 52.3 Q201.35 54.45 204.55 54.55 L206.3 54.3 208.65 53.2 210.8 51.35 211.45 50.4 Q212.1 53.35 213.6 55.5 216.8 60.0 222.35 60.05 L223.45 60.0 224.2 59.95 Q226.7 59.5 229.05 58.35 L230.45 59.7 Q233.15 61.25 235.85 59.6 L236.45 59.1 237.0 58.9 237.05 58.8 237.65 58.8 240.45 58.8 Q244.4 58.8 247.25 56.2 249.75 53.9 250.65 49.9 L251.35 46.9 Q251.9 44.55 252.7 42.95 255.0 44.5 257.75 44.55 262.8 44.5 266.5 40.55 270.0 36.6 270.0 31.5 270.0 27.2 267.1 24.35 264.2 21.5 259.85 21.5 L257.85 21.75 256.1 22.15 256.1 22.05 255.9 22.15 256.05 22.15 253.4 23.1 252.3 23.8 251.75 23.25 Q249.3 21.3 245.8 21.3 L242.7 21.65 241.2 22.15 239.75 22.55 237.9 23.45 236.15 24.35 234.95 25.25 235.2 24.45 235.85 22.9 236.3 21.65 237.3 19.3 238.2 17.45 238.95 16.0 240.2 13.75 240.95 11.5 241.0 10.65 241.0 10.15 Q240.95 6.85 238.5 4.9 236.5 3.3 233.8 3.3 230.85 3.3 227.05 5.2 223.85 6.85 220.55 9.55 219.75 10.15 219.3 10.65 L217.7 12.05 217.5 12.3 216.1 13.75 216.25 12.75 216.25 12.2 Q215.95 8.65 214.5 7.4 212.5 5.2 209.4 5.2 L208.3 5.2 207.1 5.35 206.6 5.45 205.8 5.45 204.6 5.4 203.1 5.0 201.5 4.35 199.9 3.75 Q196.05 2.0 192.9 1.1 189.65 0.2 186.65 0.0 L186.35 0.0 185.1 0.0 Q176.95 0.0 170.85 5.45 164.5 11.05 164.5 18.8 164.5 23.85 167.45 27.9 163.1 29.0 159.65 31.7 162.4 28.15 162.8 24.1 L162.8 23.65 162.8 23.2 Q162.75 16.7 157.2 12.65 152.35 9.2 145.4 9.2 133.75 9.2 123.45 15.15 114.3 20.55 106.5 30.6 L90.25 31.4 Q82.0 32.4 74.85 34.55 59.15 39.1 49.75 48.5 39.95 58.45 39.95 70.95 39.95 78.1 44.15 83.6 26.8 84.3 14.0 95.3 0.0 107.35 0.0 124.35 0.0 139.8 11.4 150.3 22.7 160.7 39.3 160.7 57.1 160.7 71.9 150.5 84.15 142.0 92.25 127.8 93.7 133.75 98.25 138.0 104.7 143.7 114.85 143.7 130.5 143.65 142.5 130.0 151.45 119.7 153.6 107.25 156.3 108.45 159.5 108.45 L164.5 107.8 Q166.95 107.1 169.45 105.8 L169.4 105.8 169.65 105.7 169.5 105.8 171.6 104.5 172.7 105.65 Q176.2 108.45 181.25 108.45 L184.75 108.15 186.65 107.75 188.45 107.25 Q188.55 107.2 189.35 106.9 189.8 108.25 191.25 109.2 194.15 110.7 196.8 108.7 L197.9 107.8 Q198.1 107.65 198.45 107.45 L200.1 107.45 203.3 107.45 Q208.0 107.4 211.0 105.2 211.05 107.65 213.2 109.15 215.95 110.7 218.65 108.85 L220.1 107.75 220.45 107.55 220.75 107.45 221.85 107.45 225.85 107.45 Q230.45 107.4 233.6 104.55 235.15 103.1 236.1 101.1 237.2 103.3 239.2 105.05 243.0 108.3 248.75 108.3 L250.85 108.15 252.35 107.95 252.65 107.95 255.25 107.35 251.6 123.15 251.45 124.15 Q251.55 126.85 253.9 128.2 256.95 129.75 259.55 127.6 L261.0 126.3 261.35 126.1 261.65 126.0 261.8 126.0 262.35 126.0 266.4 126.0 Q271.25 126.0 274.35 123.25 277.2 120.7 278.3 115.7 L280.2 107.45 280.25 107.55 Q283.15 108.7 286.7 108.7 296.45 108.65 303.3 99.3 309.6 90.6 309.65 78.95 309.65 71.4 305.3 66.5 300.65 61.4 293.55 61.4 L291.1 61.45 289.6 61.8 Q288.95 58.9 286.55 57.0 283.8 54.8 279.5 54.8 L277.15 54.95 274.6 55.45 M135.7 33.75 L135.9 33.65 137.3 33.3 138.05 33.15 138.45 34.4 138.55 34.55 139.5 36.1 Q137.2 35.1 134.6 34.25 L135.7 33.75 M145.85 38.75 L146.0 38.75 Q151.25 38.55 155.75 35.35 152.15 39.5 151.35 44.9 149.65 42.75 147.4 40.85 L144.2 38.7 145.4 38.75 145.85 38.75 M120.05 58.8 Q120.05 62.5 117.0 65.2 115.85 66.2 114.4 66.85 115.55 63.05 116.8 60.0 L118.6 56.05 119.25 56.45 Q119.9 56.9 120.05 58.8 M90.7 59.45 L88.9 63.25 88.85 63.55 88.8 63.85 88.8 63.65 88.7 63.8 87.75 63.4 86.7 62.9 Q87.2 61.95 89.35 60.25 L90.7 59.45 M107.9 90.8 Q113.9 91.15 115.15 92.45 116.6 93.05 116.9 96.75 L116.9 96.95 Q116.8 98.95 115.55 100.75 L115.15 101.3 115.0 100.25 Q114.1 96.55 111.2 95.55 L109.6 95.35 108.1 95.15 106.45 95.3 107.9 90.8 M155.3 64.5 L155.85 61.05 157.35 62.55 158.05 63.2 Q156.65 63.75 155.3 64.5 M149.05 75.2 L150.0 75.9 150.0 76.1 149.95 76.4 149.9 76.8 148.85 81.95 Q147.05 80.0 144.75 78.4 147.2 76.9 149.05 75.2 M60.7 95.35 L60.8 94.2 60.8 92.95 60.75 92.45 62.85 92.6 64.9 92.5 65.65 92.45 66.35 92.4 Q71.4 91.7 76.25 89.2 L78.25 87.95 77.0 90.65 Q75.1 94.3 72.8 97.3 71.0 99.8 68.6 101.35 66.2 103.05 63.95 103.6 L63.5 103.75 62.4 104.0 61.3 104.05 Q59.25 104.15 57.7 102.95 L56.9 102.15 56.95 101.7 57.0 101.5 58.05 100.0 59.1 98.45 Q60.25 96.9 60.7 95.35" fill="none" stroke="#ffffff" stroke-linecap="round" stroke-linejoin="round" stroke-width="15.0"/>
    <path d="M245.8 21.3 Q249.3 21.3 251.75 23.25 L252.3 23.8 253.4 23.1 256.05 22.15 255.9 22.15 256.1 22.05 256.1 22.15 257.85 21.75 259.85 21.5 Q264.2 21.5 267.1 24.35 270.0 27.2 270.0 31.5 270.0 36.6 266.5 40.55 262.8 44.5 257.75 44.55 255.0 44.5 252.7 42.95 251.9 44.55 251.35 46.9 L250.65 49.9 Q249.75 53.9 247.25 56.2 244.4 58.8 240.45 58.8 L237.65 58.8 237.05 58.8 237.0 58.9 236.45 59.1 235.85 59.6 Q233.15 61.25 230.45 59.7 L229.05 58.35 Q226.7 59.5 224.2 59.95 L223.45 60.0 222.35 60.05 Q216.8 60.0 213.6 55.5 212.1 53.35 211.45 50.4 L210.8 51.35 208.65 53.2 206.3 54.3 204.55 54.55 Q201.35 54.45 199.5 52.3 L198.85 51.5 Q195.85 57.5 190.9 61.5 190.55 61.8 190.3 62.05 193.35 62.7 194.65 64.2 195.9 65.3 196.65 66.8 L196.85 66.55 198.6 65.2 Q200.45 63.95 202.55 63.2 L202.45 63.2 202.7 63.1 202.6 63.1 Q204.7 62.15 206.75 61.7 L210.85 61.3 Q216.25 61.7 218.1 64.1 L218.25 64.3 218.65 64.0 Q221.3 62.5 223.7 61.8 L225.15 61.5 226.55 61.25 229.05 61.1 Q233.8 61.1 237.2 63.4 238.1 64.0 238.8 64.75 L239.1 64.55 Q241.45 63.25 243.7 62.4 L245.45 61.95 247.15 61.5 250.75 61.15 Q256.3 61.15 260.05 64.4 262.8 66.85 263.7 70.25 L263.7 70.15 264.0 68.7 Q262.2 67.25 262.1 65.0 L262.1 64.9 Q262.2 62.6 264.0 61.15 266.85 59.05 269.25 57.65 271.9 56.1 274.6 55.45 L274.5 55.5 274.8 55.45 274.6 55.45 277.15 54.95 279.5 54.8 Q283.8 54.8 286.55 57.0 288.95 58.9 289.6 61.8 L291.1 61.45 293.55 61.4 Q300.65 61.4 305.3 66.5 309.65 71.4 309.65 78.95 309.6 90.6 303.3 99.3 296.45 108.65 286.7 108.7 283.15 108.7 280.25 107.55 L280.2 107.45 278.3 115.7 Q277.2 120.7 274.35 123.25 271.25 126.0 266.4 126.0 L262.35 126.0 261.8 126.0 261.65 126.0 261.35 126.1 261.0 126.3 259.55 127.6 Q256.95 129.75 253.9 128.2 251.55 126.85 251.45 124.15 L251.6 123.15 255.25 107.35 252.65 107.95 252.35 107.95 250.85 108.15 248.75 108.3 Q243.0 108.3 239.2 105.05 237.2 103.3 236.1 101.1 235.15 103.1 233.6 104.55 230.45 107.4 225.85 107.45 L221.85 107.45 220.75 107.45 220.45 107.55 220.1 107.75 218.65 108.85 Q215.95 110.7 213.2 109.15 211.05 107.65 211.0 105.2 208.0 107.4 203.3 107.45 L200.1 107.45 198.45 107.45 Q198.1 107.65 197.9 107.8 L196.8 108.7 Q194.15 110.7 191.25 109.2 189.8 108.25 189.35 106.9 188.55 107.2 188.45 107.25 L186.65 107.75 184.75 108.15 181.25 108.45 Q176.2 108.45 172.7 105.65 L171.6 104.5 169.5 105.8 169.65 105.7 169.4 105.8 169.45 105.8 Q166.95 107.1 164.5 107.8 L159.5 108.45 Q156.3 108.45 153.6 107.25 151.45 119.7 142.5 130.0 130.5 143.65 114.85 143.7 104.7 143.7 98.25 138.0 93.7 133.75 92.25 127.8 84.15 142.0 71.9 150.5 57.1 160.7 39.3 160.7 22.7 160.7 11.4 150.3 0.0 139.8 0.0 124.35 0.0 107.35 14.0 95.3 26.8 84.3 44.15 83.6 39.95 78.1 39.95 70.95 39.95 58.45 49.75 48.5 59.15 39.1 74.85 34.55 82.0 32.4 90.25 31.4 L106.5 30.6 Q114.3 20.55 123.45 15.15 133.75 9.2 145.4 9.2 152.35 9.2 157.2 12.65 162.75 16.7 162.8 23.2 L162.8 23.65 162.8 24.1 Q162.4 28.15 159.65 31.7 163.1 29.0 167.45 27.9 164.5 23.85 164.5 18.8 164.5 11.05 170.85 5.45 176.95 0.0 185.1 0.0 L186.35 0.0 186.65 0.0 Q189.65 0.2 192.9 1.1 196.05 2.0 199.9 3.75 L201.5 4.35 203.1 5.0 204.6 5.4 205.8 5.45 206.6 5.45 207.1 5.35 208.3 5.2 209.4 5.2 Q212.5 5.2 214.5 7.4 215.95 8.65 216.25 12.2 L216.25 12.75 216.1 13.75 217.5 12.3 217.7 12.05 219.3 10.65 Q219.75 10.15 220.55 9.55 223.85 6.85 227.05 5.2 230.85 3.3 233.8 3.3 236.5 3.3 238.5 4.9 240.95 6.85 241.0 10.15 L241.0 10.65 240.95 11.5 240.2 13.75 238.95 16.0 238.2 17.45 237.3 19.3 236.3 21.65 235.85 22.9 235.2 24.45 234.95 25.25 236.15 24.35 237.9 23.45 239.75 22.55 241.2 22.15 242.7 21.65 245.8 21.3 M257.75 117.45 L256.15 124.2 256.25 124.2 258.05 122.6 259.55 121.7 260.8 121.3 Q261.5 121.15 262.35 121.3 L266.4 121.3 Q269.45 121.3 271.2 119.7 273.0 118.2 273.7 114.65 L277.15 99.45 277.6 100.0 278.2 100.5 Q279.95 102.35 282.0 103.15 284.05 104.0 286.7 103.95 294.0 104.0 299.5 96.45 304.95 89.0 304.9 78.9 304.9 73.2 301.75 69.6 298.6 66.0 293.55 66.1 L291.6 66.15 289.75 66.5 Q288.4 66.9 287.05 67.6 L284.05 69.45 284.7 66.1 284.95 64.85 285.05 63.85 Q285.15 61.85 283.65 60.7 282.1 59.5 279.5 59.5 L277.6 59.6 275.8 60.0 Q273.7 60.5 271.6 61.7 269.45 62.9 266.75 64.9 L267.45 65.45 268.0 65.95 268.55 66.9 268.75 68.0 268.65 69.25 268.3 71.05 263.45 92.45 262.95 92.4 262.0 92.5 260.65 93.0 260.25 93.2 259.85 93.3 259.3 93.4 258.85 93.4 Q257.75 93.4 256.95 92.5 256.1 91.7 256.1 90.45 L256.25 89.6 256.45 88.45 256.45 88.3 256.5 88.1 259.15 76.0 259.2 75.5 259.3 75.1 259.35 74.3 259.4 73.4 Q259.4 70.1 257.0 68.0 254.6 65.9 250.75 65.9 L247.95 66.15 245.25 66.85 Q243.35 67.55 241.45 68.65 239.5 69.8 237.4 71.5 236.65 68.8 234.5 67.25 232.35 65.8 229.05 65.8 L227.05 65.9 225.1 66.3 Q223.15 66.85 221.1 68.1 219.0 69.35 216.25 71.5 216.15 68.85 214.7 67.4 213.35 66.0 210.85 66.0 L207.75 66.35 Q206.15 66.65 204.5 67.4 L201.25 69.15 Q199.65 70.15 198.05 71.5 199.3 72.05 199.7 72.8 200.1 73.5 200.1 74.95 L200.05 75.85 199.9 77.0 199.85 77.5 199.75 78.05 196.5 92.6 195.9 92.45 195.0 92.6 193.75 93.0 192.7 93.35 191.75 93.5 Q190.55 93.5 189.9 92.65 189.05 91.9 189.1 90.65 L189.25 89.45 189.6 87.65 192.8 72.8 192.85 72.45 192.85 72.05 193.0 71.7 193.0 71.25 Q193.0 69.0 191.55 67.7 190.0 66.35 187.6 66.35 L186.65 66.45 185.65 66.45 Q183.1 66.85 180.45 68.15 L178.95 69.05 178.9 69.05 Q176.85 70.25 174.65 71.95 L175.3 72.15 175.7 72.5 176.95 73.65 177.2 75.15 177.2 76.1 176.95 77.3 176.95 77.5 176.85 77.7 175.3 84.55 Q174.45 87.6 173.25 89.0 172.05 90.35 170.0 90.35 168.9 90.35 168.15 89.7 167.45 89.0 167.45 87.9 L167.55 87.05 167.75 86.0 170.5 72.8 170.55 72.65 170.65 72.5 170.65 72.15 170.65 71.55 Q170.65 69.15 169.1 67.75 167.65 66.35 165.1 66.35 163.25 66.35 160.95 67.1 158.65 67.9 156.4 69.2 L154.4 70.5 152.5 71.95 152.8 72.1 153.05 72.25 Q154.05 72.85 154.4 73.65 154.8 74.3 154.8 75.35 L154.75 76.45 154.5 77.7 151.0 94.6 150.85 95.5 150.8 96.4 Q150.8 99.45 153.35 101.6 155.9 103.75 159.5 103.75 L163.3 103.15 Q165.3 102.7 167.4 101.5 L170.5 99.7 173.4 97.35 Q173.6 100.35 175.7 102.0 177.75 103.75 181.25 103.75 L184.0 103.45 186.95 102.75 190.0 101.6 192.8 99.9 194.4 98.7 195.4 97.8 193.75 105.2 Q194.5 104.4 195.2 103.95 L196.45 103.15 198.05 102.75 200.1 102.7 203.25 102.7 Q206.7 102.7 208.35 101.25 210.1 99.8 210.85 96.2 L213.2 85.45 Q213.95 82.15 215.2 80.6 216.45 79.1 218.25 79.15 219.3 79.15 220.0 79.8 220.6 80.5 220.6 81.5 L220.6 82.3 220.55 82.9 220.45 83.5 220.35 84.1 217.15 98.7 216.95 98.75 217.05 98.75 217.15 98.75 215.7 105.2 217.35 103.85 218.8 103.1 220.2 102.75 221.85 102.7 225.85 102.7 Q228.55 102.7 230.35 101.05 232.15 99.35 232.85 96.2 L235.15 85.45 Q235.9 82.15 237.0 80.7 238.2 79.3 240.0 79.3 241.3 79.3 242.0 80.0 242.6 80.7 242.6 82.2 L242.55 83.1 242.35 84.0 240.0 93.9 240.0 94.25 239.85 94.5 239.75 95.3 239.7 95.9 Q239.7 99.3 242.25 101.45 244.75 103.5 248.7 103.6 L250.2 103.45 251.75 103.25 Q253.9 102.9 255.8 102.05 257.85 101.3 259.65 100.0 L260.3 99.45 260.95 98.9 262.2 97.8 257.75 117.35 257.35 117.55 257.55 117.5 257.7 117.45 257.75 117.45 M259.85 26.25 L258.6 26.35 257.2 26.65 255.5 27.35 253.9 28.3 253.55 28.5 253.25 28.8 253.15 28.85 251.9 29.9 249.6 32.05 249.8 30.5 249.85 29.7 249.85 29.55 249.85 29.4 Q249.85 27.8 248.75 26.9 247.65 26.0 245.8 26.0 L243.7 26.3 241.45 27.0 238.6 28.35 Q237.2 29.2 236.1 30.15 L236.45 30.45 236.8 30.65 237.5 31.5 237.65 32.65 237.65 33.2 237.55 33.7 237.55 34.3 237.4 34.9 233.0 55.85 234.15 55.0 235.35 54.45 236.4 54.2 237.65 54.1 240.45 54.1 Q242.6 54.1 244.0 52.75 245.45 51.4 246.05 48.85 L246.7 45.9 Q247.65 41.8 249.25 39.3 250.85 36.9 253.6 35.2 L253.45 35.85 253.45 36.35 Q253.45 37.7 254.8 38.75 256.1 39.85 257.75 39.85 260.75 39.85 263.0 37.3 265.3 34.8 265.3 31.5 265.3 29.15 263.8 27.7 262.35 26.25 259.85 26.25 M264.6 69.2 L264.45 69.05 264.4 69.05 264.45 69.15 264.6 69.2 M236.3 10.4 L236.3 10.15 Q236.3 9.15 235.6 8.6 234.95 8.05 233.8 8.05 231.95 8.05 229.2 9.4 226.4 10.8 223.5 13.2 L222.25 14.25 221.0 15.35 220.9 15.5 220.75 15.65 217.35 19.25 Q215.75 21.1 214.35 23.45 L212.35 26.7 210.3 30.5 210.3 29.2 210.2 28.05 210.15 26.8 210.1 25.25 209.9 22.75 209.8 20.9 209.9 19.85 210.0 18.8 210.2 17.0 210.65 15.5 211.25 13.5 211.45 12.65 211.45 12.45 211.45 12.2 Q211.45 11.05 211.0 10.45 210.45 9.85 209.4 9.9 L208.7 9.9 207.65 10.05 207.25 10.1 206.9 10.15 206.4 10.15 205.8 10.15 204.95 10.1 204.15 10.1 201.55 9.5 198.0 8.05 Q194.4 6.45 191.6 5.65 188.85 4.85 186.35 4.7 L185.75 4.7 185.1 4.7 Q178.65 4.7 173.95 8.95 169.2 13.2 169.2 18.8 169.2 23.2 172.15 26.3 175.15 29.5 179.3 29.5 L181.5 29.25 183.95 28.6 Q185.3 28.1 186.65 27.4 L189.1 25.9 190.15 25.1 191.0 24.2 192.0 22.75 192.45 21.45 192.45 21.3 192.15 20.7 Q191.9 20.4 191.55 20.4 L191.45 20.4 189.95 20.55 189.9 20.55 Q189.4 20.55 189.0 20.0 188.55 19.45 188.55 18.8 188.55 17.5 189.75 16.6 191.0 15.7 192.7 15.65 L195.55 16.0 199.55 16.95 198.4 18.5 197.55 19.65 197.3 20.15 197.0 20.7 195.55 23.6 193.2 28.7 189.8 35.55 Q188.35 38.25 186.9 39.8 185.75 40.9 184.55 41.45 L181.9 41.95 Q180.05 41.95 178.75 40.9 177.35 39.85 177.4 38.4 L177.4 37.9 177.55 37.55 178.1 36.45 178.95 35.65 179.55 35.15 179.85 34.65 180.0 34.4 180.0 34.1 Q180.0 32.85 178.55 32.25 177.0 31.55 174.5 31.55 166.55 31.55 161.15 36.4 155.75 41.3 155.75 48.5 155.75 54.85 160.45 59.05 165.1 63.2 172.35 63.1 181.35 63.1 187.95 57.85 194.5 52.5 197.3 42.95 L198.2 39.6 198.6 37.85 199.2 35.7 200.6 30.5 201.35 28.05 201.9 26.25 202.2 25.6 202.4 25.05 202.75 24.3 203.1 23.6 202.95 25.1 202.8 26.35 202.8 27.05 202.8 27.9 202.9 29.75 203.05 32.6 203.15 35.0 203.25 36.95 203.15 38.45 203.1 41.3 202.95 43.2 202.8 44.35 202.6 46.15 202.45 47.1 202.45 47.25 202.45 47.45 Q202.45 48.65 203.05 49.2 203.5 49.8 204.55 49.75 L205.25 49.7 205.85 49.4 207.2 48.25 208.7 46.15 209.95 44.1 211.0 42.3 211.35 41.8 211.6 41.3 212.65 39.15 213.95 36.65 215.35 33.7 216.65 31.3 217.0 30.7 217.35 30.15 217.9 29.15 218.6 28.1 219.5 26.7 220.25 25.6 220.75 25.05 221.25 24.5 221.9 23.8 222.8 23.1 Q219.2 29.4 217.5 34.6 215.85 39.8 215.7 44.9 L215.7 45.3 215.7 45.75 Q215.7 50.25 217.4 52.8 219.2 55.35 222.35 55.35 L222.95 55.3 223.5 55.3 Q227.4 54.65 230.65 51.2 233.95 47.7 234.5 43.55 L234.65 42.75 234.7 42.05 Q234.7 41.25 234.3 40.75 233.95 40.25 233.4 40.2 L232.85 40.35 232.1 40.6 231.55 40.85 231.05 40.9 Q229.75 40.85 229.0 39.25 228.2 37.7 228.2 35.1 L228.3 33.9 228.3 32.8 Q228.5 30.45 229.1 28.1 229.65 25.65 230.75 22.75 L231.35 21.25 Q231.6 20.5 232.0 19.65 L232.5 18.55 232.9 17.5 233.95 15.3 234.95 13.55 235.9 11.7 236.3 10.65 236.3 10.4 M281.65 85.1 Q280.75 84.15 280.75 82.6 L280.75 82.5 280.75 82.35 Q280.8 80.05 282.35 78.2 283.8 76.25 285.5 75.9 L285.8 75.9 286.15 75.9 Q287.6 76.0 288.35 76.9 289.2 77.8 289.2 79.3 289.2 81.95 287.6 84.0 286.05 86.0 284.0 86.0 282.55 86.0 281.65 85.1 M208.15 53.55 L208.65 53.2 208.7 53.2 208.15 53.55 M184.25 36.25 L184.2 36.65 184.35 36.2 184.25 36.25 M186.0 32.85 Q185.6 33.0 185.5 33.1 L184.6 33.3 184.75 34.1 184.6 35.1 185.75 33.3 186.0 32.85 M207.25 5.4 L206.85 5.45 206.95 5.45 207.25 5.4 M158.05 23.2 Q158.05 19.1 154.45 16.55 150.85 13.9 145.4 13.9 135.0 13.9 125.8 19.25 116.6 24.55 108.7 35.3 L90.7 36.1 Q82.95 37.0 76.2 39.05 61.6 43.25 53.05 51.85 44.65 60.35 44.65 70.95 44.65 78.1 49.9 82.95 55.15 87.9 62.85 87.9 L64.35 87.8 65.65 87.75 Q69.9 87.05 74.1 84.95 78.25 82.85 82.0 79.35 84.7 76.75 86.15 74.45 87.65 72.15 87.65 70.25 L87.55 69.0 86.7 68.1 85.85 67.7 84.55 67.1 Q83.1 66.65 82.4 65.8 81.7 64.9 81.7 63.65 81.7 59.95 86.55 56.45 91.4 53.0 100.05 50.65 L95.9 59.45 93.15 65.25 93.05 65.55 93.0 65.9 92.4 67.2 91.75 68.7 85.2 84.4 81.15 92.85 Q79.0 96.9 76.55 100.15 74.3 103.15 71.25 105.25 68.15 107.4 65.05 108.15 L63.2 108.65 61.25 108.8 Q57.65 108.8 54.85 106.75 52.2 104.7 52.2 102.2 L52.4 100.35 Q52.65 99.5 53.05 98.9 L55.3 95.7 56.1 94.2 56.1 93.55 56.1 92.95 Q56.05 90.35 53.85 89.35 51.55 88.15 46.5 88.25 35.85 88.25 27.0 92.4 27.4 96.75 29.0 101.65 30.8 107.1 35.5 115.5 46.35 132.1 55.2 138.9 L63.95 146.55 66.3 148.5 69.2 146.65 Q82.75 137.2 91.0 120.45 L91.85 118.75 96.4 108.5 101.3 95.75 102.9 90.85 104.5 86.0 107.0 86.0 Q114.4 86.0 118.0 88.65 121.6 91.35 121.6 96.65 L121.6 96.95 121.6 97.15 Q121.45 100.5 119.45 103.4 117.5 106.3 115.15 106.75 L114.75 106.9 114.4 106.9 Q113.3 106.9 112.25 106.0 111.2 105.05 110.9 103.95 L110.6 102.55 110.45 101.45 Q110.1 100.2 109.6 100.0 L108.1 99.85 107.1 99.9 Q106.65 100.0 106.2 100.35 102.9 101.7 100.0 107.4 97.1 113.05 96.45 119.5 L96.25 120.95 96.25 122.35 Q96.3 129.9 101.35 134.45 106.5 139.0 114.8 138.95 128.35 138.95 138.95 126.9 149.55 114.8 149.55 99.35 149.55 90.35 145.45 85.25 141.35 80.2 132.85 78.45 142.15 75.75 146.65 70.95 151.15 66.0 151.2 58.7 151.15 50.15 144.35 44.45 137.5 38.75 124.65 36.65 126.75 34.05 129.2 32.1 131.55 30.25 134.05 29.35 135.15 28.85 136.4 28.6 L138.75 28.35 Q140.35 28.35 141.1 28.9 141.9 29.5 142.2 30.7 L142.5 31.6 142.7 32.3 Q143.15 33.4 143.65 33.7 144.05 34.05 145.4 34.05 L145.6 34.05 145.8 34.05 Q150.25 33.85 153.95 30.65 157.75 27.4 158.05 23.65 L158.05 23.4 158.05 23.2 M120.05 58.8 Q119.9 56.9 119.25 56.45 L118.6 56.05 116.8 60.0 Q115.55 63.05 114.4 66.85 115.85 66.2 117.0 65.2 120.05 62.5 120.05 58.8 M144.2 38.7 L147.4 40.85 Q149.65 42.75 151.35 44.9 152.15 39.5 155.75 35.35 151.25 38.55 146.0 38.75 L145.85 38.75 145.4 38.75 144.2 38.7 M135.7 33.75 L134.6 34.25 Q137.2 35.1 139.5 36.1 L138.55 34.55 138.45 34.4 138.05 33.15 137.3 33.3 135.9 33.65 135.7 33.75 M112.45 58.2 Q114.25 53.75 116.45 50.15 120.55 50.95 122.7 53.15 124.75 55.35 124.75 58.8 124.75 64.65 120.15 68.7 115.5 72.8 108.55 72.8 L107.8 72.8 108.35 70.65 108.9 68.6 Q110.65 62.55 112.45 58.2 M149.05 75.2 Q147.2 76.9 144.75 78.4 147.05 80.0 148.85 81.95 L149.9 76.8 149.95 76.4 150.0 76.1 150.0 75.9 149.05 75.2 M155.3 64.5 Q156.65 63.75 158.05 63.2 L157.35 62.55 155.85 61.05 155.3 64.5 M107.9 90.8 L106.45 95.3 108.1 95.15 109.6 95.35 111.2 95.55 Q114.1 96.55 115.0 100.25 L115.15 101.3 115.55 100.75 Q116.8 98.95 116.9 96.95 L116.9 96.75 Q116.6 93.05 115.15 92.45 113.9 91.15 107.9 90.8 M90.7 59.45 L89.35 60.25 Q87.2 61.95 86.7 62.9 L87.75 63.4 88.7 63.8 88.8 63.65 88.8 63.85 88.85 63.55 88.9 63.25 90.7 59.45 M19.65 94.2 Q19.05 94.6 18.55 95.3 L18.5 97.7 Q18.35 100.15 18.55 102.35 19.05 106.0 20.0 109.2 20.6 112.6 21.6 115.7 23.25 122.25 25.9 128.15 30.4 138.25 37.7 146.35 L44.3 153.4 46.5 155.55 Q47.4 156.25 48.6 156.8 51.55 156.45 53.7 155.55 54.1 155.4 53.95 155.05 L53.15 154.15 51.2 151.7 48.0 148.45 46.0 146.2 36.4 134.25 Q31.35 128.45 28.45 120.9 26.15 116.65 24.85 111.7 23.25 107.9 22.0 103.8 20.75 100.35 20.2 96.4 L20.0 94.6 Q20.0 94.1 19.65 94.2 M23.1 91.95 Q22.75 92.85 22.7 93.75 L23.05 97.35 Q23.75 100.8 24.9 103.95 L29.15 116.8 33.35 125.8 39.8 134.65 46.9 143.5 53.2 150.1 Q54.4 151.75 56.2 153.25 L57.3 154.1 57.7 153.9 Q60.4 152.6 62.85 150.7 63.45 150.5 63.45 150.15 L63.4 149.95 Q55.85 144.5 49.9 137.75 46.7 135.3 44.45 132.15 40.35 128.2 37.15 123.65 33.1 117.35 29.4 110.6 27.4 107.05 26.0 102.9 25.95 101.05 25.25 99.7 24.7 96.75 24.85 93.4 L25.0 91.2 Q23.95 91.0 23.1 91.95 M60.7 95.35 Q60.25 96.9 59.1 98.45 L58.05 100.0 57.0 101.5 56.95 101.7 56.9 102.15 57.7 102.95 Q59.25 104.15 61.3 104.05 L62.4 104.0 63.5 103.75 63.95 103.6 Q66.2 103.05 68.6 101.35 71.0 99.8 72.8 97.3 75.1 94.3 77.0 90.65 L78.25 87.95 76.25 89.2 Q71.4 91.7 66.35 92.4 L65.65 92.45 64.9 92.5 62.85 92.6 60.75 92.45 60.8 92.95 60.8 94.2 60.7 95.35 M14.8 100.55 L14.8 100.9 Q14.65 104.0 14.75 107.0 15.1 111.5 16.1 115.4 16.95 118.9 17.3 122.75 L19.85 130.25 23.4 136.75 Q27.0 143.65 31.2 150.1 L35.85 155.35 38.15 155.95 39.6 156.25 43.25 156.75 Q43.65 156.65 43.45 156.4 L42.9 155.9 Q34.45 147.45 27.9 137.65 25.05 132.65 22.85 127.3 19.15 118.45 17.1 108.45 15.7 104.7 15.7 100.0 L15.7 99.9 15.3 99.85 14.8 100.55 M11.95 107.95 Q11.75 105.8 11.9 104.05 4.7 113.0 4.7 124.35 4.7 137.7 14.6 146.85 22.2 153.85 32.65 155.5 30.8 153.6 27.45 149.05 24.1 144.4 21.85 140.55 19.85 136.8 17.7 131.9 15.65 127.0 14.6 123.05 12.75 114.75 11.95 107.95 M115.5 102.75 L115.4 102.55 115.5 102.85 115.5 102.75" fill="#000000" fill-rule="evenodd" stroke="none"/>
    <path d="M259.85 26.25 Q262.35 26.25 263.8 27.7 265.3 29.15 265.3 31.5 265.3 34.8 263.0 37.3 260.75 39.85 257.75 39.85 256.1 39.85 254.8 38.75 253.45 37.7 253.45 36.35 L253.45 35.85 253.6 35.2 Q250.85 36.9 249.25 39.3 247.65 41.8 246.7 45.9 L246.05 48.85 Q245.45 51.4 244.0 52.75 242.6 54.1 240.45 54.1 L237.65 54.1 236.4 54.2 235.35 54.45 234.15 55.0 233.0 55.85 237.4 34.9 237.55 34.3 237.55 33.7 237.65 33.2 237.65 32.65 237.5 31.5 236.8 30.65 236.45 30.45 236.1 30.15 Q237.2 29.2 238.6 28.35 L241.45 27.0 243.7 26.3 245.8 26.0 Q247.65 26.0 248.75 26.9 249.85 27.8 249.85 29.4 L249.85 29.55 249.85 29.7 249.8 30.5 249.6 32.05 251.9 29.9 253.15 28.85 253.25 28.8 253.55 28.5 253.9 28.3 255.5 27.35 257.2 26.65 258.6 26.35 259.85 26.25 M217.15 98.7 L220.35 84.1 220.45 83.5 220.55 82.9 220.6 82.3 220.6 81.5 Q220.6 80.5 220.0 79.8 219.3 79.15 218.25 79.15 216.45 79.1 215.2 80.6 213.95 82.15 213.2 85.45 L210.85 96.2 Q210.1 99.8 208.35 101.25 206.7 102.7 203.25 102.7 L200.1 102.7 198.05 102.75 196.45 103.15 195.2 103.95 Q194.5 104.4 193.75 105.2 L195.4 97.8 194.4 98.7 192.8 99.9 190.0 101.6 186.95 102.75 184.0 103.45 181.25 103.75 Q177.75 103.75 175.7 102.0 173.6 100.35 173.4 97.35 L170.5 99.7 167.4 101.5 Q165.3 102.7 163.3 103.15 L159.5 103.75 Q155.9 103.75 153.35 101.6 150.8 99.45 150.8 96.4 L150.85 95.5 151.0 94.6 154.5 77.7 154.75 76.45 154.8 75.35 Q154.8 74.3 154.4 73.65 154.05 72.85 153.05 72.25 L152.8 72.1 152.5 71.95 154.4 70.5 156.4 69.2 Q158.65 67.9 160.95 67.1 163.25 66.35 165.1 66.35 167.65 66.35 169.1 67.75 170.65 69.15 170.65 71.55 L170.65 72.15 170.65 72.5 170.55 72.65 170.5 72.8 167.75 86.0 167.55 87.05 167.45 87.9 Q167.45 89.0 168.15 89.7 168.9 90.35 170.0 90.35 172.05 90.35 173.25 89.0 174.45 87.6 175.3 84.55 L176.85 77.7 176.95 77.5 176.95 77.3 177.2 76.1 177.2 75.15 176.95 73.65 175.7 72.5 175.3 72.15 174.65 71.95 Q176.85 70.25 178.9 69.05 L178.95 69.05 180.45 68.15 Q183.1 66.85 185.65 66.45 L186.65 66.45 187.6 66.35 Q190.0 66.35 191.55 67.7 193.0 69.0 193.0 71.25 L193.0 71.7 192.85 72.05 192.85 72.45 192.8 72.8 189.6 87.65 189.25 89.45 189.1 90.65 Q189.05 91.9 189.9 92.65 190.55 93.5 191.75 93.5 L192.7 93.35 193.75 93.0 195.0 92.6 195.9 92.45 196.5 92.6 199.75 78.05 199.85 77.5 199.9 77.0 200.05 75.85 200.1 74.95 Q200.1 73.5 199.7 72.8 199.3 72.05 198.05 71.5 199.65 70.15 201.25 69.15 L204.5 67.4 Q206.15 66.65 207.75 66.35 L210.85 66.0 Q213.35 66.0 214.7 67.4 216.15 68.85 216.25 71.5 219.0 69.35 221.1 68.1 223.15 66.85 225.1 66.3 L227.05 65.9 229.05 65.8 Q232.35 65.8 234.5 67.25 236.65 68.8 237.4 71.5 239.5 69.8 241.45 68.65 243.35 67.55 245.25 66.85 L247.95 66.15 250.75 65.9 Q254.6 65.9 257.0 68.0 259.4 70.1 259.4 73.4 L259.35 74.3 259.3 75.1 259.2 75.5 259.15 76.0 256.5 88.1 256.45 88.3 256.45 88.45 256.25 89.6 256.1 90.45 Q256.1 91.7 256.95 92.5 257.75 93.4 258.85 93.4 L259.3 93.4 259.85 93.3 260.25 93.2 260.65 93.0 262.0 92.5 262.95 92.4 263.45 92.45 268.3 71.05 268.65 69.25 268.75 68.0 268.55 66.9 268.0 65.95 267.45 65.45 266.75 64.9 Q269.45 62.9 271.6 61.7 273.7 60.5 275.8 60.0 L277.6 59.6 279.5 59.5 Q282.1 59.5 283.65 60.7 285.15 61.85 285.05 63.85 L284.95 64.85 284.7 66.1 284.05 69.45 287.05 67.6 Q288.4 66.9 289.75 66.5 L291.6 66.15 293.55 66.1 Q298.6 66.0 301.75 69.6 304.9 73.2 304.9 78.9 304.95 89.0 299.5 96.45 294.0 104.0 286.7 103.95 284.05 104.0 282.0 103.15 279.95 102.35 278.2 100.5 L277.6 100.0 277.15 99.45 273.7 114.65 Q273.0 118.2 271.2 119.7 269.45 121.3 266.4 121.3 L262.35 121.3 Q261.5 121.15 260.8 121.3 L259.55 121.7 258.05 122.6 256.25 124.2 256.15 124.2 257.75 117.45 257.75 117.35 262.2 97.8 260.95 98.9 260.3 99.45 259.65 100.0 Q257.85 101.3 255.8 102.05 253.9 102.9 251.75 103.25 L250.2 103.45 248.7 103.6 Q244.75 103.5 242.25 101.45 239.7 99.3 239.7 95.9 L239.75 95.3 239.85 94.5 240.0 94.25 240.0 93.9 242.35 84.0 242.55 83.1 242.6 82.2 Q242.6 80.7 242.0 80.0 241.3 79.3 240.0 79.3 238.2 79.3 237.0 80.7 235.9 82.15 235.15 85.45 L232.85 96.2 Q232.15 99.35 230.35 101.05 228.55 102.7 225.85 102.7 L221.85 102.7 220.2 102.75 218.8 103.1 217.35 103.85 215.7 105.2 217.15 98.75 217.15 98.7 M281.65 85.1 Q282.55 86.0 284.0 86.0 286.05 86.0 287.6 84.0 289.2 81.95 289.2 79.3 289.2 77.8 288.35 76.9 287.6 76.0 286.15 75.9 L285.8 75.9 285.5 75.9 Q283.8 76.25 282.35 78.2 280.8 80.05 280.75 82.35 L280.75 82.5 280.75 82.6 Q280.75 84.15 281.65 85.1 M236.3 10.4 L236.3 10.65 235.9 11.7 234.95 13.55 233.95 15.3 232.9 17.5 232.5 18.55 232.0 19.65 Q231.6 20.5 231.35 21.25 L230.75 22.75 Q229.65 25.65 229.1 28.1 228.5 30.45 228.3 32.8 L228.3 33.9 228.2 35.1 Q228.2 37.7 229.0 39.25 229.75 40.85 231.05 40.9 L231.55 40.85 232.1 40.6 232.85 40.35 233.4 40.2 Q233.95 40.25 234.3 40.75 234.7 41.25 234.7 42.05 L234.65 42.75 234.5 43.55 Q233.95 47.7 230.65 51.2 227.4 54.65 223.5 55.3 L222.95 55.3 222.35 55.35 Q219.2 55.35 217.4 52.8 215.7 50.25 215.7 45.75 L215.7 45.3 215.7 44.9 Q215.85 39.8 217.5 34.6 219.2 29.4 222.8 23.1 L221.9 23.8 221.25 24.5 220.75 25.05 220.25 25.6 219.5 26.7 218.6 28.1 217.9 29.15 217.35 30.15 217.0 30.7 216.65 31.3 215.35 33.7 213.95 36.65 212.65 39.15 211.6 41.3 211.35 41.8 211.0 42.3 209.95 44.1 208.7 46.15 207.2 48.25 205.85 49.4 205.25 49.7 204.55 49.75 Q203.5 49.8 203.05 49.2 202.45 48.65 202.45 47.45 L202.45 47.25 202.45 47.1 202.6 46.15 202.8 44.35 202.95 43.2 203.1 41.3 203.15 38.45 203.25 36.95 203.15 35.0 203.05 32.6 202.9 29.75 202.8 27.9 202.8 27.05 202.8 26.35 202.95 25.1 203.1 23.6 202.75 24.3 202.4 25.05 202.2 25.6 201.9 26.25 201.35 28.05 200.6 30.5 199.2 35.7 198.6 37.85 198.2 39.6 197.3 42.95 Q194.5 52.5 187.95 57.85 181.35 63.1 172.35 63.1 165.1 63.2 160.45 59.05 155.75 54.85 155.75 48.5 155.75 41.3 161.15 36.4 166.55 31.55 174.5 31.55 177.0 31.55 178.55 32.25 180.0 32.85 180.0 34.1 L180.0 34.4 179.85 34.65 179.55 35.15 178.95 35.65 178.1 36.45 177.55 37.55 177.4 37.9 177.4 38.4 Q177.35 39.85 178.75 40.9 180.05 41.95 181.9 41.95 L184.55 41.45 Q185.75 40.9 186.9 39.8 188.35 38.25 189.8 35.55 L193.2 28.7 195.55 23.6 197.0 20.7 197.3 20.15 197.55 19.65 198.4 18.5 199.55 16.95 195.55 16.0 192.7 15.65 Q191.0 15.7 189.75 16.6 188.55 17.5 188.55 18.8 188.55 19.45 189.0 20.0 189.4 20.55 189.9 20.55 L189.95 20.55 191.45 20.4 191.55 20.4 Q191.9 20.4 192.15 20.7 L192.45 21.3 192.45 21.45 192.0 22.75 191.0 24.2 190.15 25.1 189.1 25.9 186.65 27.4 Q185.3 28.1 183.95 28.6 L181.5 29.25 179.3 29.5 Q175.15 29.5 172.15 26.3 169.2 23.2 169.2 18.8 169.2 13.2 173.95 8.95 178.65 4.7 185.1 4.7 L185.75 4.7 186.35 4.7 Q188.85 4.85 191.6 5.65 194.4 6.45 198.0 8.05 L201.55 9.5 204.15 10.1 204.95 10.1 205.8 10.15 206.4 10.15 206.9 10.15 207.25 10.1 207.65 10.05 208.7 9.9 209.4 9.9 Q210.45 9.85 211.0 10.45 211.45 11.05 211.45 12.2 L211.45 12.45 211.45 12.65 211.25 13.5 210.65 15.5 210.2 17.0 210.0 18.8 209.9 19.85 209.8 20.9 209.9 22.75 210.1 25.25 210.15 26.8 210.2 28.05 210.3 29.2 210.3 30.5 212.35 26.7 214.35 23.45 Q215.75 21.1 217.35 19.25 L220.75 15.65 220.9 15.5 221.0 15.35 222.25 14.25 223.5 13.2 Q226.4 10.8 229.2 9.4 231.95 8.05 233.8 8.05 234.95 8.05 235.6 8.6 236.3 9.15 236.3 10.15 L236.3 10.4 M158.05 23.2 L158.05 23.4 158.05 23.65 Q157.75 27.4 153.95 30.65 150.25 33.85 145.8 34.05 L145.6 34.05 145.4 34.05 Q144.05 34.05 143.65 33.7 143.15 33.4 142.7 32.3 L142.5 31.6 142.2 30.7 Q141.9 29.5 141.1 28.9 140.35 28.35 138.75 28.35 L136.4 28.6 Q135.15 28.85 134.05 29.35 131.55 30.25 129.2 32.1 126.75 34.05 124.65 36.65 137.5 38.75 144.35 44.45 151.15 50.15 151.2 58.7 151.15 66.0 146.65 70.95 142.15 75.75 132.85 78.45 141.35 80.2 145.45 85.25 149.55 90.35 149.55 99.35 149.55 114.8 138.95 126.9 128.35 138.95 114.8 138.95 106.5 139.0 101.35 134.45 96.3 129.9 96.25 122.35 L96.25 120.95 96.45 119.5 Q97.1 113.05 100.0 107.4 102.9 101.7 106.2 100.35 106.65 100.0 107.1 99.9 L108.1 99.85 109.6 100.0 Q110.1 100.2 110.45 101.45 L110.6 102.55 110.9 103.95 Q111.2 105.05 112.25 106.0 113.3 106.9 114.4 106.9 L114.75 106.9 115.15 106.75 Q117.5 106.3 119.45 103.4 121.45 100.5 121.6 97.15 L121.6 96.95 121.6 96.65 Q121.6 91.35 118.0 88.65 114.4 86.0 107.0 86.0 L104.5 86.0 102.9 90.85 101.3 95.75 96.4 108.5 91.85 118.75 91.0 120.45 Q82.75 137.2 69.2 146.65 L66.3 148.5 63.95 146.55 55.2 138.9 Q46.35 132.1 35.5 115.5 30.8 107.1 29.0 101.65 27.4 96.75 27.0 92.4 35.85 88.25 46.5 88.25 51.55 88.15 53.85 89.35 56.05 90.35 56.1 92.95 L56.1 93.55 56.1 94.2 55.3 95.7 53.05 98.9 Q52.65 99.5 52.4 100.35 L52.2 102.2 Q52.2 104.7 54.85 106.75 57.65 108.8 61.25 108.8 L63.2 108.65 65.05 108.15 Q68.15 107.4 71.25 105.25 74.3 103.15 76.55 100.15 79.0 96.9 81.15 92.85 L85.2 84.4 91.75 68.7 92.4 67.2 93.0 65.9 93.05 65.55 93.15 65.25 95.9 59.45 100.05 50.65 Q91.4 53.0 86.55 56.45 81.7 59.95 81.7 63.65 81.7 64.9 82.4 65.8 83.1 66.65 84.55 67.1 L85.85 67.7 86.7 68.1 87.55 69.0 87.65 70.25 Q87.65 72.15 86.15 74.45 84.7 76.75 82.0 79.35 78.25 82.85 74.1 84.95 69.9 87.05 65.65 87.75 L64.35 87.8 62.85 87.9 Q55.15 87.9 49.9 82.95 44.65 78.1 44.65 70.95 44.65 60.35 53.05 51.85 61.6 43.25 76.2 39.05 82.95 37.0 90.7 36.1 L108.7 35.3 Q116.6 24.55 125.8 19.25 135.0 13.9 145.4 13.9 150.85 13.9 154.45 16.55 158.05 19.1 158.05 23.2 M112.45 58.2 Q110.65 62.55 108.9 68.6 L108.35 70.65 107.8 72.8 108.55 72.8 Q115.5 72.8 120.15 68.7 124.75 64.65 124.75 58.8 124.75 55.35 122.7 53.15 120.55 50.95 116.45 50.15 114.25 53.75 112.45 58.2 M11.95 107.95 Q12.75 114.75 14.6 123.05 15.65 127.0 17.7 131.9 19.85 136.8 21.85 140.55 24.1 144.4 27.45 149.05 30.8 153.6 32.65 155.5 22.2 153.85 14.6 146.85 4.7 137.7 4.7 124.35 4.7 113.0 11.9 104.05 11.75 105.8 11.95 107.95" fill="#00a4e3" fill-rule="evenodd" stroke="none"/>
    <path d="M257.75 117.45 L257.7 117.45 257.75 117.35 257.75 117.45 M23.1 91.95 Q23.95 91.0 25.0 91.2 L24.85 93.4 Q24.7 96.75 25.25 99.7 25.95 101.05 26.0 102.9 27.4 107.05 29.4 110.6 33.1 117.35 37.15 123.65 40.35 128.2 44.45 132.15 46.7 135.3 49.9 137.75 55.85 144.5 63.4 149.95 L63.45 150.15 Q63.45 150.5 62.85 150.7 60.4 152.6 57.7 153.9 L57.3 154.1 56.2 153.25 Q54.4 151.75 53.2 150.1 L46.9 143.5 39.8 134.65 33.35 125.8 29.15 116.8 24.9 103.95 Q23.75 100.8 23.05 97.35 L22.7 93.75 Q22.75 92.85 23.1 91.95 M19.65 94.2 Q20.0 94.1 20.0 94.6 L20.2 96.4 Q20.75 100.35 22.0 103.8 23.25 107.9 24.85 111.7 26.15 116.65 28.45 120.9 31.35 128.45 36.4 134.25 L46.0 146.2 48.0 148.45 51.2 151.7 53.15 154.15 53.95 155.05 Q54.1 155.4 53.7 155.55 51.55 156.45 48.6 156.8 47.4 156.25 46.5 155.55 L44.3 153.4 37.7 146.35 Q30.4 138.25 25.9 128.15 23.25 122.25 21.6 115.7 20.6 112.6 20.0 109.2 19.05 106.0 18.55 102.35 18.35 100.15 18.5 97.7 L18.55 95.3 Q19.05 94.6 19.65 94.2 M14.8 100.55 L15.3 99.85 15.7 99.9 15.7 100.0 Q15.7 104.7 17.1 108.45 19.15 118.45 22.85 127.3 25.05 132.65 27.9 137.65 34.45 147.45 42.9 155.9 L43.45 156.4 Q43.65 156.65 43.25 156.75 L39.6 156.25 38.15 155.95 35.85 155.35 31.2 150.1 Q27.0 143.65 23.4 136.75 L19.85 130.25 17.3 122.75 Q16.95 118.9 16.1 115.4 15.1 111.5 14.75 107.0 14.65 104.0 14.8 100.9 L14.8 100.55" fill="#ffffff" fill-rule="evenodd" stroke="none"/>
  </g>
</svg>
