<?xml version="1.0" encoding="UTF-8" standalone="no"?>
<svg xmlns:xlink="http://www.w3.org/1999/xlink" height="239.0px" width="374.0px" xmlns="http://www.w3.org/2000/svg">
  <g transform="matrix(1.0, 0.0, 0.0, 1.0, 183.95, 126.0)">
    <path d="M-173.0 -126.0 L-46.9 -126.0 -46.9 -125.95 -39.9 -125.95 Q-38.3 -126.0 -37.1 -124.85 -35.95 -123.65 -35.95 -122.0 L-35.95 -106.0 Q-35.95 -104.4 -37.1 -103.2 -38.3 -102.05 -39.9 -102.0 L-46.9 -102.0 -173.0 -102.0 -180.0 -102.0 Q-181.65 -102.05 -182.8 -103.2 -183.95 -104.4 -183.95 -106.0 L-183.95 -122.0 Q-183.95 -123.65 -182.8 -124.85 -181.65 -126.0 -180.0 -125.95 L-173.0 -125.95 -173.0 -126.0" fill="#000000" fill-opacity="0.4" fill-rule="evenodd" stroke="none"/>
    <path d="M185.05 -98.0 L185.05 -97.95 -181.95 -97.95 -181.95 111.0 188.05 111.0 188.05 -98.0 185.05 -98.0 M190.05 113.0 L-183.95 113.0 -183.95 -100.0 190.05 -100.0 190.05 113.0" fill="#ffffff" fill-rule="evenodd" stroke="none"/>
    <path d="M185.05 -94.95 L185.05 108.0 -178.95 108.0 -178.95 -94.95 185.05 -94.95" fill="#ffffff" fill-rule="evenodd" stroke="none"/>
    <path d="M-32.0 -125.0 L-32.0 -126.0 30.05 -126.0 30.05 -125.0 31.05 -125.0 31.05 -97.95 -32.95 -97.95 -32.95 -125.0 -32.0 -125.0" fill="#ffffff" fill-rule="evenodd" stroke="none"/>
    <path d="M0.4 -96.0 L-30.95 -96.0 -30.95 -123.0 -30.0 -123.0 -30.0 -124.0 0.4 -124.0 0.4 -96.0" fill="url(#gradient0)" fill-rule="evenodd" stroke="none"/>
    <path d="M0.4 -96.0 L0.4 -124.0 28.05 -124.0 28.05 -123.0 29.05 -123.0 29.05 -96.0 0.4 -96.0" fill="url(#gradient1)" fill-rule="evenodd" stroke="none"/>
    <path d="M-31.9 -100.0 L31.05 -100.0 31.05 -98.0 -31.9 -98.0 -31.9 -100.0" fill="#ffffff" fill-rule="evenodd" stroke="none"/>
    <path d="M-14.45 -112.25 Q-14.45 -113.4 -14.85 -113.9 -15.25 -114.4 -16.25 -114.4 L-16.95 -114.4 -16.95 -107.25 -16.25 -107.25 Q-15.35 -107.2 -14.9 -107.7 -14.45 -108.2 -14.45 -109.4 L-14.45 -112.25 M-19.0 -116.25 L-16.15 -116.25 Q-14.95 -116.25 -14.15 -115.85 -13.3 -115.5 -12.85 -114.65 -12.4 -113.85 -12.35 -112.5 L-12.35 -109.15 Q-12.4 -107.8 -12.85 -106.95 -13.3 -106.15 -14.15 -105.75 -14.95 -105.4 -16.15 -105.4 L-19.0 -105.4 -19.0 -116.25 M-8.3 -116.25 L-5.65 -116.25 -3.05 -105.4 -5.05 -105.4 -5.55 -107.7 -8.4 -107.7 -9.0 -105.4 -11.0 -105.4 -8.3 -116.25 M-7.0 -113.9 L-7.05 -113.9 -8.05 -109.5 -6.0 -109.5 -7.0 -113.9 M0.65 -116.25 L0.65 -105.4 -1.4 -105.4 -1.4 -116.25 0.65 -116.25 M3.1 -116.25 L5.15 -116.25 5.15 -107.25 8.5 -107.25 8.5 -105.4 3.1 -105.4 3.1 -116.25 M11.6 -116.25 L13.4 -111.85 15.15 -116.25 17.35 -116.25 14.4 -109.8 14.4 -105.4 12.35 -105.4 12.35 -109.8 9.4 -116.25 11.6 -116.25" fill="#ffffff" fill-rule="evenodd" stroke="none"/>
    <path d="M105.05 -126.0 L105.05 -125.0 106.05 -125.0 106.05 -97.95 29.05 -97.95 29.05 -125.0 30.0 -125.0 30.0 -126.0 105.05 -126.0" fill="#ffffff" fill-rule="evenodd" stroke="none"/>
    <path d="M103.05 -123.0 L104.05 -123.0 104.05 -96.0 31.05 -96.0 31.05 -123.0 32.0 -123.0 32.0 -124.0 103.05 -124.0 103.05 -123.0" fill="url(#gradient2)" fill-rule="evenodd" stroke="none"/>
    <path d="M30.05 -100.0 L105.05 -100.0 105.05 -98.0 30.05 -98.0 30.05 -100.0" fill="#ffffff" fill-rule="evenodd" stroke="none"/>
    <path d="M69.35 -116.85 L69.35 -115.0 65.75 -115.0 65.75 -112.5 68.5 -112.5 68.5 -110.7 65.75 -110.7 65.75 -107.85 69.5 -107.85 69.5 -106.0 63.7 -106.0 63.7 -116.85 69.35 -116.85 M71.6 -116.85 L73.65 -116.85 73.65 -112.35 73.7 -112.35 76.35 -116.85 78.65 -116.85 75.85 -112.45 78.95 -106.0 76.6 -106.0 74.45 -110.55 73.65 -109.3 73.65 -106.0 71.6 -106.0 71.6 -116.85 M57.85 -112.5 L60.6 -112.5 60.6 -110.7 57.85 -110.7 57.85 -107.85 61.6 -107.85 61.6 -106.0 55.8 -106.0 55.8 -116.85 61.45 -116.85 61.45 -115.0 57.85 -115.0 57.85 -112.5 M52.15 -116.85 L54.1 -116.85 51.7 -106.0 49.7 -106.0 48.2 -113.4 46.55 -106.0 44.55 -106.0 42.3 -116.85 44.2 -116.85 45.65 -109.75 45.7 -109.75 47.2 -116.85 49.2 -116.85 50.7 -109.75 52.15 -116.85 M82.4 -107.85 L85.75 -107.85 85.75 -106.0 80.35 -106.0 80.35 -116.85 82.4 -116.85 82.4 -107.85 M92.4 -116.85 L94.6 -116.85 91.65 -110.4 91.65 -106.0 89.6 -106.0 89.6 -110.4 86.65 -116.85 88.85 -116.85 90.65 -112.45 92.4 -116.85" fill="#ffffff" fill-rule="evenodd" stroke="none"/>
    <path d="M189.05 -126.0 L189.05 -125.0 190.05 -125.0 190.05 -97.95 104.05 -97.95 104.05 -125.0 105.0 -125.0 105.0 -126.0 189.05 -126.0" fill="#ffffff" fill-rule="evenodd" stroke="none"/>
    <path d="M187.05 -124.0 L187.05 -123.0 188.05 -123.0 188.05 -96.0 106.05 -96.0 106.05 -123.0 107.0 -123.0 107.0 -124.0 187.05 -124.0" fill="url(#gradient3)" fill-rule="evenodd" stroke="none"/>
    <path d="M105.05 -100.0 L189.15 -100.0 189.15 -98.0 105.05 -98.0 105.05 -100.0" fill="#ffffff" fill-rule="evenodd" stroke="none"/>
    <path d="M165.75 -116.85 L167.8 -116.85 167.8 -107.85 171.15 -107.85 171.15 -106.0 165.75 -106.0 165.75 -116.85 M174.25 -116.85 L176.05 -112.45 177.8 -116.85 180.0 -116.85 177.05 -110.4 177.05 -106.0 175.0 -106.0 175.0 -110.4 172.05 -116.85 174.25 -116.85 M154.55 -116.85 L154.55 -115.0 152.15 -115.0 152.15 -106.0 150.05 -106.0 150.05 -115.0 147.65 -115.0 147.65 -116.85 154.55 -116.85 M156.3 -116.85 L158.35 -116.85 158.35 -112.5 161.3 -112.5 161.3 -116.85 163.35 -116.85 163.35 -106.0 161.3 -106.0 161.3 -110.7 158.35 -110.7 158.35 -106.0 156.3 -106.0 156.3 -116.85 M134.55 -113.6 Q134.55 -114.5 134.2 -114.85 L133.2 -115.15 132.25 -114.85 Q131.9 -114.5 131.85 -113.6 L131.85 -109.2 Q131.9 -108.35 132.25 -108.0 132.6 -107.65 133.2 -107.7 133.85 -107.65 134.2 -108.0 134.55 -108.35 134.55 -109.2 L134.55 -113.6 M138.85 -116.85 L141.1 -116.85 144.0 -110.4 144.05 -110.4 144.05 -116.85 145.9 -116.85 145.9 -106.0 143.95 -106.0 140.75 -113.0 140.75 -106.0 138.85 -106.0 138.85 -116.85 M136.2 -115.5 Q136.65 -114.7 136.65 -113.35 L136.65 -109.5 Q136.65 -108.15 136.2 -107.35 135.75 -106.55 135.0 -106.2 134.25 -105.85 133.2 -105.85 132.2 -105.85 131.45 -106.2 130.65 -106.55 130.25 -107.35 129.8 -108.15 129.8 -109.5 L129.8 -113.35 Q129.8 -114.7 130.25 -115.5 130.65 -116.3 131.45 -116.65 L133.2 -117.0 135.0 -116.65 136.2 -115.5 M119.75 -106.0 L118.0 -106.0 118.0 -116.85 120.9 -116.85 122.75 -109.7 122.8 -109.7 124.7 -116.85 127.55 -116.85 127.55 -106.0 125.8 -106.0 125.8 -114.55 125.75 -114.55 123.55 -106.0 122.0 -106.0 119.8 -114.55 119.75 -114.55 119.75 -106.0" fill="#ffffff" fill-rule="evenodd" stroke="none"/>
  </g>
  <defs>
    <linearGradient gradientTransform="matrix(0.0, -0.0158, 0.0159, 0.0, -1.45, -111.0)" gradientUnits="userSpaceOnUse" id="gradient0" spreadMethod="pad" x1="-819.2" x2="819.2">
      <stop offset="0.0" stop-color="#336699"/>
      <stop offset="1.0" stop-color="#6096ca"/>
    </linearGradient>
    <linearGradient gradientTransform="matrix(0.0, -0.0158, 0.0159, 0.0, -14.45, -111.0)" gradientUnits="userSpaceOnUse" id="gradient1" spreadMethod="pad" x1="-819.2" x2="819.2">
      <stop offset="0.0" stop-color="#336699"/>
      <stop offset="1.0" stop-color="#6096ca"/>
    </linearGradient>
    <linearGradient gradientTransform="matrix(0.0, -0.0158, 0.0159, 0.0, 60.55, -111.0)" gradientUnits="userSpaceOnUse" id="gradient2" spreadMethod="pad" x1="-819.2" x2="819.2">
      <stop offset="0.0" stop-color="#336699"/>
      <stop offset="1.0" stop-color="#6096ca"/>
    </linearGradient>
    <linearGradient gradientTransform="matrix(0.0, -0.0158, 0.0159, 0.0, 135.55, -111.0)" gradientUnits="userSpaceOnUse" id="gradient3" spreadMethod="pad" x1="-819.2" x2="819.2">
      <stop offset="0.0" stop-color="#336699"/>
      <stop offset="1.0" stop-color="#6096ca"/>
    </linearGradient>
  </defs>
</svg>
