<?xml version="1.0" encoding="UTF-8" standalone="no"?>
<svg xmlns:xlink="http://www.w3.org/1999/xlink" height="22.2px" width="258.4px" xmlns="http://www.w3.org/2000/svg">
  <g transform="matrix(1.0, 0.0, 0.0, 1.0, -12.6, 9.1)">
    <path d="M39.1 5.55 L39.1 1.4 35.6 2.35 Q34.25 2.8 33.6 3.3 32.9 3.8 32.65 4.35 L32.45 5.5 Q32.45 6.55 33.1 7.1 33.75 7.65 34.75 7.65 L36.95 7.1 Q38.1 6.55 39.1 5.55 M132.95 11.95 Q135.3 11.95 136.4 11.35 137.5 10.75 137.5 9.75 137.5 9.2 137.15 8.75 136.75 8.25 135.75 7.95 L132.85 7.65 130.55 8.0 Q129.75 8.3 129.4 8.8 129.05 9.25 129.05 9.85 129.05 10.8 130.0 11.35 130.95 11.95 132.95 11.95 M271.0 6.4 L271.0 8.6 268.9 8.6 268.9 6.4 271.0 6.4 M247.9 -1.8 Q247.0 -3.2 245.05 -3.25 243.1 -3.2 242.15 -1.8 241.25 -0.4 241.25 2.2 241.25 4.85 242.15 6.25 243.1 7.65 245.05 7.65 247.0 7.65 247.9 6.25 248.8 4.85 248.8 2.2 248.8 -0.4 247.9 -1.8 M259.2 -1.65 L259.15 -1.65 256.3 8.6 254.8 8.6 251.2 -4.15 252.7 -4.15 255.5 6.1 255.55 6.1 258.5 -4.15 259.95 -4.15 262.75 6.1 262.8 6.1 265.7 -4.15 267.2 -4.15 263.5 8.6 262.05 8.6 259.2 -1.65 M268.9 -9.1 L271.0 -9.1 270.6 3.15 269.35 3.15 268.9 -9.1 M240.25 -1.05 Q240.75 -2.55 241.9 -3.45 243.05 -4.4 245.05 -4.4 247.0 -4.4 248.15 -3.45 249.3 -2.55 249.8 -1.05 250.3 0.45 250.3 2.2 250.3 3.95 249.8 5.45 249.3 6.95 248.15 7.9 247.0 8.8 245.05 8.85 243.05 8.8 241.9 7.9 240.75 6.95 240.25 5.45 239.75 3.95 239.8 2.2 239.75 0.45 240.25 -1.05 M227.4 -4.15 L228.9 -4.15 228.9 -2.15 230.2 -3.35 Q230.85 -3.85 231.6 -4.15 L233.25 -4.4 Q235.25 -4.4 236.15 -3.3 237.05 -2.2 237.05 -0.1 L237.05 8.6 235.55 8.6 235.55 0.05 Q235.6 -1.55 235.0 -2.4 234.4 -3.25 232.95 -3.25 L231.55 -2.95 230.3 -2.1 228.9 -0.8 228.9 8.6 227.4 8.6 227.4 -4.15 M208.95 -0.95 Q208.95 -2.1 209.5 -2.9 210.05 -3.65 210.95 -4.05 L213.0 -4.4 Q214.6 -4.4 215.65 -3.8 216.7 -3.2 217.4 -2.1 L216.25 -1.3 214.85 -2.7 212.95 -3.25 Q211.85 -3.25 211.15 -2.7 210.45 -2.15 210.4 -1.0 210.4 -0.25 210.95 0.2 211.5 0.65 212.35 0.9 L214.15 1.45 Q215.1 1.7 215.95 2.1 216.85 2.5 217.35 3.25 217.9 4.0 217.9 5.25 217.9 6.4 217.3 7.2 L215.65 8.4 213.5 8.85 Q212.0 8.85 210.75 8.25 209.5 7.6 208.55 6.25 L209.65 5.5 Q210.55 6.75 211.45 7.25 L213.6 7.65 Q214.85 7.65 215.65 6.95 216.4 6.3 216.45 5.25 216.45 4.3 215.9 3.8 215.35 3.3 214.5 3.0 L212.7 2.45 210.9 1.85 209.5 0.85 Q208.95 0.2 208.95 -0.95 M199.1 -1.7 L198.45 -0.3 198.2 1.1 205.6 1.1 Q205.4 -0.9 204.5 -2.05 203.6 -3.2 201.95 -3.25 200.95 -3.25 200.25 -2.8 199.55 -2.4 199.1 -1.7 M199.2 -3.55 Q200.35 -4.4 202.0 -4.4 203.7 -4.4 204.85 -3.55 206.0 -2.7 206.55 -1.2 207.1 0.25 207.1 2.25 L198.2 2.25 Q198.2 3.75 198.65 4.95 199.05 6.15 199.95 6.9 200.85 7.65 202.3 7.65 L203.7 7.45 204.85 6.65 206.05 5.1 207.25 5.7 205.85 7.55 204.25 8.55 202.2 8.85 Q199.65 8.85 198.2 7.2 196.75 5.6 196.75 2.2 196.75 0.2 197.4 -1.25 198.0 -2.75 199.2 -3.55 M189.7 -4.15 L191.2 -4.15 191.2 -1.75 191.25 -1.75 Q191.75 -2.95 192.7 -3.65 193.7 -4.4 194.9 -4.4 L195.6 -4.4 195.6 -3.0 194.9 -3.0 Q194.1 -2.95 193.25 -2.4 192.4 -1.8 191.8 -0.85 191.2 0.15 191.2 1.4 L191.2 8.6 189.7 8.6 189.7 -4.15 M181.8 -3.25 Q179.85 -3.2 178.9 -1.8 178.0 -0.4 178.0 2.2 178.0 4.85 178.9 6.25 179.85 7.65 181.8 7.65 183.75 7.65 184.65 6.25 185.55 4.85 185.55 2.2 185.55 -0.4 184.65 -1.8 183.75 -3.2 181.8 -3.25 M177.0 -1.05 Q177.5 -2.55 178.65 -3.45 179.8 -4.4 181.8 -4.4 183.75 -4.4 184.9 -3.45 186.05 -2.55 186.55 -1.05 187.05 0.45 187.05 2.2 187.05 3.95 186.55 5.45 186.05 6.95 184.9 7.9 183.75 8.8 181.8 8.85 179.8 8.8 178.65 7.9 177.5 6.95 177.0 5.45 176.5 3.95 176.55 2.2 176.5 0.45 177.0 -1.05 M171.9 -2.45 Q171.15 -3.2 169.9 -3.25 168.05 -3.25 166.95 -2.0 165.9 -0.7 165.85 2.2 165.85 3.85 166.35 5.1 166.8 6.3 167.7 7.0 168.6 7.65 169.9 7.65 171.2 7.65 172.1 6.95 L173.7 5.0 174.9 5.6 173.65 7.25 172.0 8.4 169.9 8.85 Q168.1 8.85 166.85 8.0 165.65 7.15 165.0 5.65 164.4 4.15 164.4 2.2 164.4 0.0 165.1 -1.45 165.75 -2.9 167.0 -3.65 168.25 -4.4 169.9 -4.4 171.7 -4.4 172.85 -3.45 174.0 -2.55 174.55 -0.95 L173.2 -0.6 171.9 -2.45 M155.95 -2.7 Q155.25 -2.15 155.2 -1.0 155.2 -0.25 155.75 0.2 156.3 0.65 157.15 0.9 L158.95 1.45 Q159.9 1.7 160.75 2.1 161.65 2.5 162.15 3.25 162.7 4.0 162.7 5.25 162.7 6.4 162.1 7.2 L160.45 8.4 158.3 8.85 Q156.8 8.85 155.55 8.25 154.3 7.6 153.35 6.25 L154.45 5.5 Q155.35 6.75 156.25 7.25 L158.4 7.65 Q159.65 7.65 160.45 6.95 161.2 6.3 161.25 5.25 161.25 4.3 160.7 3.8 L159.3 3.0 157.5 2.45 155.7 1.85 Q154.85 1.5 154.3 0.85 153.75 0.2 153.75 -0.95 153.75 -2.1 154.3 -2.9 154.85 -3.65 155.75 -4.05 L157.8 -4.4 Q159.4 -4.4 160.45 -3.8 161.5 -3.2 162.2 -2.1 L161.05 -1.3 159.65 -2.7 Q158.85 -3.2 157.75 -3.25 156.65 -3.25 155.95 -2.7 M142.75 -2.15 L144.05 -3.35 145.45 -4.15 147.1 -4.4 Q149.1 -4.4 150.0 -3.3 150.9 -2.2 150.9 -0.1 L150.9 8.6 149.4 8.6 149.4 0.05 Q149.45 -1.55 148.85 -2.4 148.25 -3.25 146.8 -3.25 L145.4 -2.95 144.15 -2.1 142.75 -0.8 142.75 8.6 141.25 8.6 141.25 -9.1 142.75 -9.1 142.75 -2.15 M135.4 -2.45 Q134.55 -3.25 133.0 -3.25 131.45 -3.2 130.55 -2.35 129.7 -1.45 129.7 0.05 129.7 1.15 130.15 1.85 130.6 2.55 131.35 2.9 L133.0 3.25 Q134.55 3.25 135.4 2.45 136.3 1.7 136.3 0.05 136.3 -1.65 135.4 -2.45 M134.9 -4.15 L136.25 -3.55 Q136.8 -4.1 137.45 -4.35 L138.9 -4.65 138.9 -3.3 137.85 -3.25 136.85 -2.75 137.55 -1.6 137.8 -0.05 Q137.75 1.5 137.1 2.5 136.45 3.5 135.3 3.95 L132.85 4.4 131.75 4.3 130.8 4.0 129.9 4.55 Q129.6 4.9 129.6 5.25 L129.85 5.85 131.0 6.2 133.55 6.35 Q136.4 6.35 137.7 7.2 139.0 8.05 138.95 9.65 139.0 10.6 138.45 11.4 137.9 12.15 136.6 12.65 L133.15 13.1 129.75 12.65 Q128.55 12.25 128.05 11.55 127.55 10.9 127.6 10.1 127.55 9.25 128.05 8.6 128.5 7.9 129.8 7.4 L129.8 7.35 Q129.1 7.2 128.6 6.85 128.15 6.5 128.15 5.7 128.15 5.15 128.4 4.7 128.7 4.25 129.15 3.95 129.55 3.65 130.05 3.5 129.15 2.9 128.7 2.05 128.2 1.2 128.2 0.2 128.25 -1.95 129.55 -3.15 130.9 -4.4 133.25 -4.4 L134.9 -4.15 M123.8 -4.15 L125.25 -4.15 125.25 8.6 123.8 8.6 123.8 -4.15 M125.25 -6.95 L123.8 -6.95 123.8 -9.1 125.25 -9.1 125.25 -6.95 M113.2 -2.1 L111.8 -0.8 111.8 8.6 110.3 8.6 110.3 -9.1 111.8 -9.1 111.8 -2.15 113.1 -3.35 Q113.75 -3.85 114.5 -4.15 L116.15 -4.4 Q118.15 -4.4 119.05 -3.3 119.95 -2.2 119.95 -0.1 L119.95 8.6 118.45 8.6 118.45 0.05 Q118.5 -1.55 117.9 -2.4 117.3 -3.25 115.85 -3.25 L114.45 -2.95 Q113.85 -2.65 113.2 -2.1 M91.65 -2.15 L92.95 -3.35 Q93.6 -3.85 94.35 -4.15 L96.0 -4.4 Q98.0 -4.4 98.9 -3.3 99.8 -2.2 99.8 -0.1 L99.8 8.6 98.3 8.6 98.3 0.05 Q98.35 -1.55 97.75 -2.4 97.15 -3.25 95.7 -3.25 L94.3 -2.95 93.05 -2.1 91.65 -0.8 91.65 8.6 90.15 8.6 90.15 -9.1 91.65 -9.1 91.65 -2.15 M83.6 -8.35 L85.1 -8.35 85.1 -4.15 87.85 -4.15 87.85 -3.0 85.1 -3.0 85.1 6.35 Q85.1 7.0 85.4 7.35 L86.35 7.65 87.15 7.6 87.85 7.4 87.85 8.6 87.15 8.75 86.35 8.85 Q84.85 8.85 84.2 8.3 83.6 7.75 83.6 6.6 L83.6 -3.0 81.7 -3.0 81.7 -4.15 83.6 -4.15 83.6 -8.35 M78.15 -4.15 L79.6 -4.15 79.6 8.6 78.15 8.6 78.15 -4.15 M68.05 -1.65 L68.0 -1.65 65.15 8.6 63.65 8.6 60.05 -4.15 61.55 -4.15 64.35 6.1 64.4 6.1 67.35 -4.15 68.8 -4.15 71.6 6.1 71.65 6.1 74.55 -4.15 76.05 -4.15 72.35 8.6 70.9 8.6 68.05 -1.65 M78.15 -6.95 L78.15 -9.1 79.6 -9.1 79.6 -6.95 78.15 -6.95 M51.5 -4.15 L53.05 -4.15 48.3 9.5 47.35 11.55 46.1 12.75 44.2 13.1 43.4 13.1 42.85 12.95 42.85 11.8 43.55 11.85 44.3 11.95 Q45.1 11.95 45.9 11.15 46.65 10.35 47.2 8.4 L42.75 -4.15 44.35 -4.15 47.9 6.25 47.95 6.25 51.5 -4.15 M39.15 -0.65 Q39.2 -1.95 38.5 -2.6 37.85 -3.25 36.25 -3.25 35.1 -3.25 34.15 -2.65 33.25 -2.05 32.55 -0.95 L31.55 -1.5 Q32.4 -3.05 33.55 -3.75 34.75 -4.4 36.3 -4.4 38.45 -4.4 39.5 -3.45 40.55 -2.5 40.55 -0.4 L40.55 6.25 40.6 7.35 40.75 8.6 39.35 8.6 39.15 7.05 37.7 8.05 36.25 8.65 34.5 8.85 Q33.5 8.85 32.7 8.45 31.9 8.05 31.45 7.3 31.0 6.55 31.0 5.5 31.0 4.2 31.5 3.4 32.05 2.55 33.05 2.0 34.1 1.45 35.65 1.05 L39.15 0.2 39.15 -0.65 M27.0 -9.1 L28.45 -9.1 28.45 8.6 27.0 8.6 27.0 -9.1 M12.6 -9.1 L17.95 -9.1 Q20.05 -9.1 21.4 -8.5 22.7 -7.9 23.35 -6.8 23.95 -5.7 23.95 -4.2 23.95 -2.7 23.35 -1.6 22.7 -0.5 21.4 0.15 20.05 0.75 17.95 0.75 L14.2 0.75 14.2 8.6 12.6 8.6 12.6 -9.1 M17.95 -7.8 L14.2 -7.8 14.2 -0.6 17.95 -0.6 Q20.25 -0.6 21.3 -1.5 22.35 -2.4 22.3 -4.2 22.35 -5.95 21.3 -6.85 20.25 -7.8 17.95 -7.8" fill="#003366" fill-rule="evenodd" stroke="none"/>
  </g>
</svg>
