<?xml version="1.0" encoding="UTF-8" standalone="no"?>
<svg xmlns:xlink="http://www.w3.org/1999/xlink" height="75.4px" width="77.75px" xmlns="http://www.w3.org/2000/svg">
  <g transform="matrix(1.0, 0.0, 0.0, 1.0, 38.85, 37.7)">
    <path d="M35.9 -4.55 L0.15 34.7 -35.85 -4.25 -16.35 -4.25 Q-13.7 -25.8 -27.0 -20.8 -32.3 -19.05 -24.95 -24.95 -17.55 -30.55 -9.3 -33.2 16.7 -41.45 17.0 -4.55 L35.9 -4.55 Z" fill="none" stroke="#ffffff" stroke-linecap="round" stroke-linejoin="round" stroke-width="6.0"/>
    <path d="M35.9 -4.55 L0.15 34.7 -35.85 -4.25 -16.35 -4.25 Q-13.7 -25.8 -27.0 -20.8 -32.3 -19.05 -24.95 -24.95 -17.55 -30.55 -9.3 -33.2 16.7 -41.45 17.0 -4.55 L35.9 -4.55" fill="url(#gradient0)" fill-rule="evenodd" stroke="none"/>
    <path d="M28.5 -1.35 L0.05 29.9 -28.65 -1.1 -13.1 -1.1 Q-11.0 -18.3 -21.6 -14.3 -25.85 -12.95 -19.95 -17.6 -14.1 -22.1 -7.5 -24.2 13.2 -30.75 13.45 -1.35 L28.5 -1.35" fill="url(#gradient1)" fill-rule="evenodd" stroke="none"/>
  </g>
  <defs>
    <linearGradient gradientTransform="matrix(0.0, 0.0464, -0.0424, 0.0, 3.95, -11.0)" gradientUnits="userSpaceOnUse" id="gradient0" spreadMethod="pad" x1="-819.2" x2="819.2">
      <stop offset="0.0" stop-color="#015a89"/>
      <stop offset="0.5137254901960784" stop-color="#0799ff"/>
      <stop offset="1.0" stop-color="#3399ff"/>
    </linearGradient>
    <radialGradient cx="0" cy="0" gradientTransform="matrix(0.0813, 0.0, 0.0, 0.0549, -0.2, 28.2)" gradientUnits="userSpaceOnUse" id="gradient1" r="819.2" spreadMethod="pad">
      <stop offset="0.0" stop-color="#ffffff" stop-opacity="0.7529412"/>
      <stop offset="1.0" stop-color="#ffffff" stop-opacity="0.0"/>
    </radialGradient>
  </defs>
</svg>
