<?xml version="1.0" encoding="UTF-8" standalone="no"?>
<svg xmlns:xlink="http://www.w3.org/1999/xlink" height="145.05px" width="293.35px" xmlns="http://www.w3.org/2000/svg">
  <g transform="matrix(1.0, 0.0, 0.0, 1.0, 149.9, 121.2)">
    <path d="M43.2 -42.25 L38.45 -42.25 38.45 -46.9 34.9 -42.25 31.45 -46.9 31.45 -42.25 26.75 -42.25 26.75 -56.05 31.45 -56.05 34.9 -51.35 38.45 -56.05 43.2 -56.05 43.2 -42.25" fill="url(#gradient0)" fill-rule="evenodd" stroke="none"/>
    <path d="M-113.1 -56.05 L-106.75 -56.05 -103.2 -51.35 -99.7 -56.05 -95.0 -56.05 -95.0 -42.25 -99.7 -42.25 -99.7 -46.9 -103.2 -42.25 -106.7 -46.9 -106.7 -42.25 -111.4 -42.25 -111.4 -51.8 -113.1 -51.8 -113.1 -56.05" fill="url(#gradient1)" fill-rule="evenodd" stroke="none"/>
    <path d="M-87.95 -56.05 L-87.95 -42.25 -92.7 -42.25 -92.7 -56.05 -87.95 -56.05" fill="url(#gradient2)" fill-rule="evenodd" stroke="none"/>
    <path d="M-44.95 -46.45 L-35.55 -46.45 -35.55 -42.25 -49.65 -42.25 -49.65 -56.0 -44.95 -56.05 -44.95 -46.45" fill="url(#gradient3)" fill-rule="evenodd" stroke="none"/>
    <path d="M-58.8 -47.2 Q-57.95 -46.45 -56.75 -46.45 L-51.45 -46.45 -51.45 -42.25 -56.75 -42.25 Q-59.95 -42.25 -62.15 -44.25 -64.4 -46.3 -64.4 -49.15 -64.4 -52.0 -62.15 -54.0 -59.9 -56.05 -56.75 -56.05 L-51.45 -56.05 -51.45 -51.8 -56.75 -51.8 Q-57.95 -51.85 -58.8 -51.05 -59.7 -50.25 -59.7 -49.15 -59.7 -48.05 -58.8 -47.2" fill="url(#gradient4)" fill-rule="evenodd" stroke="none"/>
    <path d="M-65.55 -56.05 L-65.55 -42.25 -70.2 -42.25 -70.2 -56.05 -65.55 -56.05" fill="url(#gradient5)" fill-rule="evenodd" stroke="none"/>
    <path d="M-86.05 -56.05 Q-82.75 -56.05 -80.05 -54.85 -77.65 -53.85 -76.8 -52.4 L-76.8 -56.05 -72.1 -56.05 -72.1 -42.25 -76.8 -42.25 Q-76.8 -46.25 -78.7 -48.05 -80.05 -49.25 -81.5 -49.25 L-81.5 -42.25 -86.2 -42.25 -86.2 -56.05 -86.05 -56.05" fill="url(#gradient6)" fill-rule="evenodd" stroke="none"/>
    <path d="M-18.35 -56.05 Q-16.2 -56.05 -14.7 -54.7 -13.2 -53.3 -13.15 -51.35 -13.2 -49.4 -14.7 -48.1 -16.15 -46.7 -18.35 -46.7 L-22.55 -46.7 -22.55 -42.25 -27.25 -42.25 -27.25 -56.0 -18.35 -56.05 M-17.85 -51.35 Q-17.85 -52.3 -18.95 -52.4 L-19.2 -52.4 -22.6 -52.4 -22.6 -50.3 -19.3 -50.3 Q-17.85 -50.3 -17.85 -51.35" fill="url(#gradient7)" fill-rule="evenodd" stroke="none"/>
    <path d="M-11.3 -45.85 Q-10.65 -46.45 -9.65 -46.45 -8.65 -46.45 -8.05 -45.85 -7.3 -45.2 -7.3 -44.35 -7.3 -43.5 -8.05 -42.85 -8.65 -42.25 -9.65 -42.25 -10.65 -42.25 -11.3 -42.85 -12.05 -43.5 -12.0 -44.35 -12.05 -45.2 -11.3 -45.85" fill="url(#gradient8)" fill-rule="evenodd" stroke="none"/>
    <path d="M0.6 -47.2 Q1.45 -46.45 2.65 -46.45 L7.95 -46.45 7.95 -42.25 2.65 -42.25 Q-0.55 -42.25 -2.75 -44.25 -5.0 -46.3 -5.0 -49.15 -5.0 -51.95 -2.75 -54.0 -0.5 -56.05 2.65 -56.05 L7.95 -56.05 7.95 -51.8 2.65 -51.8 Q1.45 -51.85 0.6 -51.05 -0.3 -50.3 -0.25 -49.15 -0.3 -48.0 0.6 -47.2" fill="url(#gradient9)" fill-rule="evenodd" stroke="none"/>
    <path d="M-29.2 -56.05 L-29.2 -42.25 -33.9 -42.25 -33.9 -56.05 -29.2 -56.05" fill="url(#gradient10)" fill-rule="evenodd" stroke="none"/>
    <path d="M11.9 -44.25 Q9.65 -46.3 9.7 -49.15 9.65 -52.0 11.95 -54.0 14.2 -56.05 17.3 -56.05 20.5 -56.05 22.75 -54.0 24.95 -52.0 25.0 -49.15 24.95 -46.3 22.75 -44.25 20.55 -42.25 17.3 -42.25 14.1 -42.25 11.9 -44.25 M17.3 -51.8 Q16.1 -51.85 15.25 -51.05 14.4 -50.3 14.45 -49.15 14.4 -48.0 15.25 -47.2 16.1 -46.45 17.3 -46.45 18.55 -46.45 19.45 -47.2 20.3 -48.0 20.3 -49.15 20.3 -50.2 19.4 -51.05 18.5 -51.85 17.3 -51.8" fill="url(#gradient11)" fill-rule="evenodd" stroke="none"/>
    <path d="M99.95 -10.2 L94.15 -55.2 126.2 -41.4 124.4 3.15 99.95 -10.2" fill="#689fca" fill-rule="evenodd" stroke="none"/>
    <path d="M141.35 -47.15 L136.9 -2.15 124.4 3.15 126.2 -41.4 141.35 -47.15" fill="#28718e" fill-rule="evenodd" stroke="none"/>
    <path d="M126.2 -41.4 L94.15 -55.2 107.95 -61.0 141.35 -47.15 126.2 -41.4" fill="#8ad2ff" fill-rule="evenodd" stroke="none"/>
    <path d="M119.05 -30.2 L118.85 -14.15 104.05 -21.3 102.05 -38.45 119.05 -30.2" fill="#ffffff" fill-rule="evenodd" stroke="none"/>
    <path d="M119.05 -30.2 L118.85 -14.15 104.05 -21.3 102.05 -38.45 119.05 -30.2 Z" fill="none" stroke="#ffffff" stroke-linecap="round" stroke-linejoin="round" stroke-width="5.0"/>
    <path d="M102.25 -36.05 L107.4 -33.95 110.5 -28.25 113.4 -31.6 117.85 -29.45 117.75 -16.45 113.75 -18.1 113.65 -22.65 110.85 -19.45 107.85 -25.1 107.95 -20.65 104.4 -22.2 103.85 -31.35 102.75 -31.8 102.25 -36.05" fill="#ff9900" fill-rule="evenodd" stroke="none"/>
    <path d="M75.45 23.85 L73.45 23.85 73.45 21.85 75.45 21.85 75.45 23.85 M77.45 21.85 L79.45 21.85 79.45 23.85 77.45 23.85 77.45 21.85 M83.45 23.85 L81.45 23.85 81.45 21.85 83.45 21.85 83.45 23.85 M65.45 23.85 L65.45 21.85 67.45 21.85 67.45 23.85 65.45 23.85 M69.45 21.85 L71.45 21.85 71.45 23.85 69.45 23.85 69.45 21.85 M57.45 21.85 L59.45 21.85 59.45 23.85 57.45 23.85 57.45 21.85 M55.45 23.85 L53.45 23.85 53.45 21.85 55.45 21.85 55.45 23.85 M61.45 21.85 L63.45 21.85 63.45 23.85 61.45 23.85 61.45 21.85 M47.45 23.85 L45.45 23.85 45.45 21.85 47.45 21.85 47.45 23.85 M51.45 23.85 L49.45 23.85 49.45 21.85 51.45 21.85 51.45 23.85 M37.45 21.85 L39.45 21.85 39.45 23.85 37.45 23.85 37.45 21.85 M35.45 23.85 L33.45 23.85 33.45 21.85 35.45 21.85 35.45 23.85 M43.45 23.85 L41.45 23.85 41.45 21.85 43.45 21.85 43.45 23.85 M25.45 23.85 L25.45 21.85 27.45 21.85 27.45 23.85 25.45 23.85 M29.45 21.85 L31.45 21.85 31.45 23.85 29.45 23.85 29.45 21.85 M15.45 23.85 L13.45 23.85 13.45 21.85 15.45 21.85 15.45 23.85 M17.45 21.85 L19.45 21.85 19.45 23.85 17.45 23.85 17.45 21.85 M23.45 23.85 L21.45 23.85 21.45 21.85 23.45 21.85 23.45 23.85 M7.45 23.85 L5.45 23.85 5.45 21.85 7.45 21.85 7.45 23.85 M3.45 23.85 L1.45 23.85 1.45 21.85 3.45 21.85 3.45 23.85 M11.45 23.85 L9.45 23.85 9.45 21.85 11.45 21.85 11.45 23.85 M-6.55 21.85 L-4.55 21.85 -4.55 23.85 -6.55 23.85 -6.55 21.85 M-2.55 21.85 L-0.55 21.85 -0.55 23.85 -2.55 23.85 -2.55 21.85 M-16.55 23.85 L-18.55 23.85 -18.55 21.85 -16.55 21.85 -16.55 23.85 M-14.55 21.85 L-12.55 21.85 -12.55 23.85 -14.55 23.85 -14.55 21.85 M-10.55 23.85 L-10.55 21.85 -8.55 21.85 -8.55 23.85 -10.55 23.85 M-26.55 21.85 L-24.55 21.85 -24.55 23.85 -26.55 23.85 -26.55 21.85 M-22.55 21.85 L-20.55 21.85 -20.55 23.85 -22.55 23.85 -22.55 21.85 M-32.55 23.85 L-34.55 23.85 -34.55 21.85 -32.55 21.85 -32.55 23.85 M-36.55 23.85 L-38.55 23.85 -38.55 21.85 -36.55 21.85 -36.55 23.85 M-28.55 23.85 L-30.55 23.85 -30.55 21.85 -28.55 21.85 -28.55 23.85 M-44.55 21.85 L-44.55 23.85 -46.55 23.85 -46.55 21.85 -44.55 21.85 M-42.55 21.85 L-40.55 21.85 -40.55 23.85 -42.55 23.85 -42.55 21.85 M-54.55 21.85 L-52.55 21.85 -52.55 23.85 -54.55 23.85 -54.55 21.85 M-56.55 23.85 L-58.55 23.85 -58.55 21.85 -56.55 21.85 -56.55 23.85 M-50.55 21.85 L-48.55 21.85 -48.55 23.85 -50.55 23.85 -50.55 21.85 M-66.55 21.85 L-64.55 21.85 -64.55 23.85 -66.55 23.85 -66.55 21.85 M-60.55 23.85 L-62.55 23.85 -62.55 21.85 -60.55 21.85 -60.55 23.85 M-74.55 21.85 L-72.55 21.85 -72.55 23.85 -74.55 23.85 -74.55 21.85 M-76.55 23.85 L-78.55 23.85 -78.55 21.85 -76.55 21.85 -76.55 23.85 M-68.55 23.85 L-70.55 23.85 -70.55 21.85 -68.55 21.85 -68.55 23.85 M135.45 23.85 L133.45 23.85 133.45 21.85 135.45 21.85 135.45 23.85 M137.45 23.85 L137.45 21.85 139.45 21.85 139.45 23.85 137.45 23.85 M143.45 21.85 L143.45 23.85 141.45 23.85 141.45 21.85 143.45 21.85 M125.45 21.85 L127.45 21.85 127.45 23.85 125.45 23.85 125.45 21.85 M129.45 21.85 L131.45 21.85 131.45 23.85 129.45 23.85 129.45 21.85 M117.45 23.85 L117.45 21.85 119.45 21.85 119.45 23.85 117.45 23.85 M115.45 23.85 L113.45 23.85 113.45 21.85 115.45 21.85 115.45 23.85 M123.45 21.85 L123.45 23.85 121.45 23.85 121.45 21.85 123.45 21.85 M109.45 21.85 L111.45 21.85 111.45 23.85 109.45 23.85 109.45 21.85 M105.45 21.85 L107.45 21.85 107.45 23.85 105.45 23.85 105.45 21.85 M97.45 21.85 L99.45 21.85 99.45 23.85 97.45 23.85 97.45 21.85 M95.45 23.85 L93.45 23.85 93.45 21.85 95.45 21.85 95.45 23.85 M103.45 23.85 L101.45 23.85 101.45 21.85 103.45 21.85 103.45 23.85 M87.45 23.85 L85.45 23.85 85.45 21.85 87.45 21.85 87.45 23.85 M91.45 23.85 L89.45 23.85 89.45 21.85 91.45 21.85 91.45 23.85 M-86.55 23.85 L-86.55 21.85 -84.55 21.85 -84.55 23.85 -86.55 23.85 M-80.55 23.85 L-82.55 23.85 -82.55 21.85 -80.55 21.85 -80.55 23.85 M-96.55 23.85 L-98.55 23.85 -98.55 21.85 -96.55 21.85 -96.55 23.85 M-94.55 21.85 L-92.55 21.85 -92.55 23.85 -94.55 23.85 -94.55 21.85 M-90.55 23.85 L-90.55 21.85 -88.55 21.85 -88.55 23.85 -90.55 23.85 M-106.55 21.85 L-104.55 21.85 -104.55 23.85 -106.55 23.85 -106.55 21.85 M-100.55 23.85 L-102.55 23.85 -102.55 21.85 -100.55 21.85 -100.55 23.85 M-108.55 21.85 L-108.55 23.85 -110.55 23.85 -110.55 21.85 -108.55 21.85" fill="#c1d1e0" fill-rule="evenodd" stroke="none"/>
    <path d="M-10.1 -10.75 L-8.2 -10.75 -8.2 -2.6 -10.1 -2.6 -10.1 -10.75 M-0.35 -7.95 L-2.25 -7.95 -2.25 -8.3 Q-2.25 -8.8 -2.55 -9.0 L-3.35 -9.25 -4.15 -9.0 -4.45 -8.3 -4.45 -5.05 -4.15 -4.35 Q-3.85 -4.1 -3.35 -4.1 -2.85 -4.1 -2.55 -4.35 -2.25 -4.6 -2.25 -5.05 L-2.25 -5.6 -0.35 -5.6 -0.35 -5.55 Q-0.35 -3.95 -1.15 -3.2 -1.9 -2.45 -3.35 -2.45 -4.8 -2.45 -5.55 -3.2 -6.35 -3.95 -6.35 -5.55 L-6.35 -7.85 Q-6.35 -9.45 -5.55 -10.2 -4.8 -10.9 -3.35 -10.9 -1.95 -10.9 -1.15 -10.2 -0.4 -9.5 -0.35 -7.95 M-15.0 -10.6 L-13.9 -10.9 Q-13.05 -10.9 -12.6 -10.45 -12.15 -9.95 -12.15 -8.8 L-12.15 -2.6 -14.05 -2.6 -14.05 -8.6 Q-14.05 -9.0 -14.2 -9.25 -14.35 -9.5 -14.75 -9.5 L-15.35 -9.25 -15.95 -8.75 -15.95 -2.6 -17.85 -2.6 -17.85 -10.75 -16.0 -10.75 -16.0 -9.85 -15.0 -10.6 M-10.1 -13.9 L-8.2 -13.9 -8.2 -12.2 -10.1 -12.2 -10.1 -13.9 M-8.9 -22.05 L-8.2 -22.6 -8.2 -24.6 -9.3 -24.15 -10.15 -23.5 -10.5 -22.75 -10.25 -22.1 Q-10.0 -21.85 -9.65 -21.85 L-8.9 -22.05 M-21.75 -12.2 L-21.75 -13.9 -19.85 -13.9 -19.85 -12.2 -21.75 -12.2 M-21.75 -2.6 L-21.75 -10.75 -19.85 -10.75 -19.85 -2.6 -21.75 -2.6 M-26.8 -13.45 L-23.95 -13.45 -23.95 -2.6 -25.7 -2.6 -25.7 -11.15 -25.75 -11.15 -27.95 -2.6 -29.5 -2.6 -31.7 -11.15 -31.75 -11.15 -31.75 -2.6 -33.5 -2.6 -33.5 -13.45 -30.6 -13.45 -28.75 -6.3 -28.7 -6.3 -26.8 -13.45 M-28.25 -27.05 L-28.5 -26.2 -28.5 -25.75 -26.3 -25.75 -26.3 -26.2 -26.55 -27.05 Q-26.85 -27.35 -27.4 -27.4 L-28.25 -27.05 M-27.4 -28.9 Q-26.5 -28.9 -25.85 -28.55 L-24.8 -27.6 Q-24.4 -27.0 -24.4 -26.15 L-24.4 -24.25 -28.5 -24.25 -28.5 -23.15 Q-28.5 -22.55 -28.2 -22.25 -27.9 -22.0 -27.4 -22.0 -26.8 -22.0 -26.55 -22.3 -26.3 -22.65 -26.3 -23.15 L-24.4 -23.15 Q-24.45 -21.85 -25.2 -21.15 -25.95 -20.45 -27.4 -20.45 -28.3 -20.45 -29.0 -20.8 L-30.0 -21.8 Q-30.4 -22.45 -30.4 -23.35 L-30.4 -26.0 Q-30.4 -26.9 -30.0 -27.55 L-29.0 -28.55 -27.4 -28.9 M-32.6 -28.6 L-31.45 -28.9 -31.45 -26.85 -31.9 -27.0 -32.45 -27.1 Q-32.9 -27.05 -33.15 -26.8 L-33.35 -26.2 -33.35 -20.6 -35.25 -20.6 -35.25 -28.75 -33.4 -28.75 -33.4 -27.7 -33.35 -27.7 -32.6 -28.6 M-1.8 -28.6 L-0.65 -28.9 -0.65 -26.85 -1.1 -27.0 -1.65 -27.1 -2.35 -26.8 -2.55 -26.2 -2.55 -20.6 -4.45 -20.6 -4.45 -28.75 -2.6 -28.75 -2.6 -27.7 -2.55 -27.7 -1.8 -28.6 M-19.15 -26.25 Q-19.35 -26.85 -19.7 -27.1 -20.0 -27.4 -20.45 -27.4 L-21.0 -27.15 -21.2 -26.65 Q-21.2 -26.25 -20.85 -26.0 L-19.9 -25.5 -18.85 -24.9 -17.9 -24.15 Q-17.55 -23.65 -17.55 -22.95 -17.55 -22.1 -17.9 -21.55 -18.25 -21.0 -18.85 -20.75 L-20.25 -20.45 -21.35 -20.6 -22.35 -21.25 Q-22.85 -21.75 -23.3 -22.8 L-21.6 -23.25 -21.15 -22.35 Q-20.8 -22.0 -20.25 -22.0 -19.8 -22.0 -19.55 -22.2 L-19.35 -22.7 Q-19.35 -23.15 -19.7 -23.45 L-20.65 -23.95 -21.7 -24.5 -22.65 -25.3 Q-23.0 -25.8 -23.0 -26.65 -23.0 -27.4 -22.65 -27.9 L-21.7 -28.65 -20.45 -28.9 Q-19.4 -28.9 -18.65 -28.35 -17.95 -27.8 -17.6 -26.85 L-19.15 -26.25 M-10.25 -26.4 L-12.15 -26.4 Q-12.05 -27.3 -11.6 -27.85 L-10.55 -28.65 -9.1 -28.9 Q-7.6 -28.9 -6.95 -28.2 -6.3 -27.55 -6.3 -26.45 L-6.3 -21.25 -6.3 -20.95 -6.2 -20.6 -8.1 -20.6 -8.15 -20.95 -8.25 -21.4 -9.2 -20.7 -10.5 -20.45 Q-11.35 -20.45 -11.85 -20.95 -12.35 -21.4 -12.35 -22.4 -12.35 -23.35 -11.8 -23.95 L-10.35 -25.05 -8.2 -25.8 -8.2 -26.4 Q-8.2 -26.95 -8.5 -27.15 L-9.2 -27.4 -9.95 -27.1 -10.25 -26.4 M-46.8 -6.15 L-47.65 -5.5 -48.0 -4.75 -47.75 -4.1 -47.15 -3.85 -46.4 -4.05 -45.7 -4.6 -45.7 -6.6 -46.8 -6.15 M-42.75 -10.4 L-42.0 -10.4 -42.0 -12.65 -40.1 -12.65 -40.1 -10.4 -38.9 -10.4 -38.9 -8.85 -40.1 -8.85 -40.1 -4.7 Q-40.1 -4.4 -39.9 -4.25 L-39.25 -4.1 -39.05 -4.1 -38.9 -4.1 -38.9 -2.55 -39.45 -2.45 -39.95 -2.45 Q-40.9 -2.45 -41.45 -2.85 -42.0 -3.2 -42.0 -4.05 L-42.0 -8.85 -42.75 -8.85 -42.75 -10.4 M-44.45 -10.2 Q-43.8 -9.55 -43.8 -8.45 L-43.8 -3.25 -43.8 -2.95 -43.7 -2.6 -45.6 -2.6 -45.65 -2.95 -45.75 -3.4 -46.7 -2.7 -48.0 -2.45 Q-48.85 -2.45 -49.35 -2.95 -49.85 -3.4 -49.85 -4.4 -49.85 -5.35 -49.3 -5.95 -48.75 -6.6 -47.85 -7.05 L-45.7 -7.8 -45.7 -8.4 Q-45.7 -8.95 -46.0 -9.15 L-46.7 -9.4 -47.45 -9.1 -47.75 -8.4 -49.65 -8.4 Q-49.55 -9.3 -49.1 -9.85 -48.7 -10.4 -48.05 -10.65 L-46.6 -10.9 Q-45.1 -10.9 -44.45 -10.2 M-59.1 -9.05 L-59.35 -8.2 -59.35 -7.75 -57.15 -7.75 -57.15 -8.2 -57.4 -9.05 -58.25 -9.4 -59.1 -9.05 M-69.25 -9.35 L-69.7 -9.5 -70.3 -9.35 -70.85 -8.9 -70.85 -4.45 -70.3 -4.0 -69.7 -3.85 Q-69.45 -3.85 -69.25 -4.0 L-68.9 -4.6 -68.8 -5.8 -68.8 -7.55 -68.9 -8.75 -69.25 -9.35 M-61.25 -8.0 Q-61.25 -8.9 -60.85 -9.55 L-59.85 -10.55 -58.25 -10.9 -56.7 -10.55 -55.65 -9.6 Q-55.25 -9.0 -55.25 -8.15 L-55.25 -6.25 -59.35 -6.25 -59.35 -5.15 -59.05 -4.25 -58.25 -4.0 Q-57.65 -4.0 -57.4 -4.3 -57.15 -4.65 -57.15 -5.15 L-55.25 -5.15 Q-55.3 -3.85 -56.05 -3.15 -56.8 -2.45 -58.25 -2.45 -59.15 -2.45 -59.85 -2.8 L-60.85 -3.8 Q-61.25 -4.45 -61.25 -5.35 L-61.25 -8.0 M-71.0 -3.6 L-71.0 -2.6 -72.75 -2.6 -72.75 -13.45 -70.85 -13.45 -70.85 -10.0 -69.75 -10.7 -68.95 -10.9 Q-67.85 -10.9 -67.4 -10.1 -66.9 -9.25 -66.9 -7.65 L-66.9 -5.7 Q-66.9 -4.1 -67.4 -3.3 -67.85 -2.45 -68.95 -2.45 L-69.8 -2.65 -70.5 -3.1 -71.0 -3.6 M-77.6 -6.15 L-78.45 -5.5 -78.8 -4.75 -78.55 -4.1 -77.95 -3.85 Q-77.5 -3.85 -77.2 -4.05 L-76.5 -4.6 -76.5 -6.6 -77.6 -6.15 M-75.25 -10.2 Q-74.6 -9.55 -74.6 -8.45 L-74.6 -3.25 -74.6 -2.95 -74.5 -2.6 -76.4 -2.6 -76.45 -2.95 -76.55 -3.4 -77.5 -2.7 -78.8 -2.45 Q-79.65 -2.45 -80.15 -2.95 -80.65 -3.4 -80.65 -4.4 -80.65 -5.35 -80.1 -5.95 -79.55 -6.6 -78.65 -7.05 L-76.5 -7.8 -76.5 -8.4 Q-76.5 -8.95 -76.8 -9.15 -77.1 -9.4 -77.5 -9.4 L-78.25 -9.1 -78.55 -8.4 -80.45 -8.4 Q-80.35 -9.3 -79.9 -9.85 L-78.85 -10.65 -77.4 -10.9 Q-75.9 -10.9 -75.25 -10.2 M-65.0 -13.45 L-63.1 -13.45 -63.1 -2.6 -65.0 -2.6 -65.0 -13.45 M-70.3 -20.25 L-70.55 -19.95 -70.65 -19.6 -70.2 -19.1 -68.95 -19.0 -67.9 -19.15 Q-67.55 -19.3 -67.5 -19.65 L-67.65 -19.95 -68.2 -20.05 -70.3 -20.25 M-69.4 -27.4 Q-69.95 -27.4 -70.15 -27.0 L-70.4 -25.6 -70.15 -24.45 Q-69.95 -24.1 -69.5 -24.1 L-68.85 -24.2 -68.5 -24.75 -68.4 -25.8 Q-68.4 -27.4 -69.4 -27.4 M-72.2 -25.85 L-71.95 -27.4 -71.05 -28.5 Q-70.45 -28.9 -69.4 -28.9 L-68.25 -28.65 -67.3 -27.95 -66.55 -28.65 -65.65 -28.9 -65.65 -27.25 -65.9 -27.35 -66.2 -27.4 -66.5 -27.3 -66.85 -27.2 -66.7 -26.45 -66.6 -25.75 Q-66.6 -24.2 -67.3 -23.4 -67.95 -22.55 -69.35 -22.55 L-69.75 -22.55 -70.15 -22.65 -70.35 -22.45 -70.45 -22.2 -70.1 -21.85 -69.25 -21.75 -68.1 -21.7 -66.95 -21.5 Q-66.4 -21.3 -66.05 -20.9 -65.75 -20.5 -65.7 -19.75 -65.7 -19.1 -66.15 -18.6 -66.6 -18.15 -67.45 -17.95 L-69.35 -17.7 -71.65 -18.1 Q-72.45 -18.5 -72.45 -19.2 L-72.25 -19.75 -71.85 -20.15 -71.35 -20.5 -71.9 -20.95 -72.1 -21.65 -71.9 -22.2 -71.45 -22.65 -70.95 -23.0 Q-71.65 -23.45 -71.95 -24.15 L-72.2 -25.85 M-75.8 -28.75 L-73.9 -28.75 -73.9 -20.6 -75.8 -20.6 -75.8 -28.75 M-75.8 -31.9 L-73.9 -31.9 -73.9 -30.2 -75.8 -30.2 -75.8 -31.9 M-42.9 -25.85 Q-42.9 -27.45 -42.1 -28.2 -41.35 -28.9 -39.9 -28.9 -38.45 -28.9 -37.7 -28.2 -36.9 -27.45 -36.9 -25.85 L-36.9 -23.55 Q-36.9 -21.95 -37.7 -21.2 -38.45 -20.45 -39.9 -20.45 -41.35 -20.45 -42.1 -21.2 -42.9 -21.95 -42.9 -23.55 L-42.9 -25.85 M-40.7 -27.0 L-41.0 -26.3 -41.0 -23.05 -40.7 -22.35 Q-40.4 -22.1 -39.9 -22.1 L-39.1 -22.35 Q-38.8 -22.6 -38.8 -23.05 L-38.8 -26.3 Q-38.8 -26.8 -39.1 -27.0 L-39.9 -27.25 -40.7 -27.0 M-50.4 -25.85 Q-50.4 -27.45 -49.6 -28.2 -48.85 -28.9 -47.4 -28.9 -46.0 -28.9 -45.2 -28.2 -44.45 -27.5 -44.4 -25.95 L-46.3 -25.95 -46.3 -26.3 Q-46.3 -26.8 -46.6 -27.0 L-47.4 -27.25 -48.2 -27.0 -48.5 -26.3 -48.5 -23.05 -48.2 -22.35 Q-47.9 -22.1 -47.4 -22.1 -46.9 -22.1 -46.6 -22.35 -46.3 -22.6 -46.3 -23.05 L-46.3 -23.6 -44.4 -23.6 -44.4 -23.55 Q-44.4 -21.95 -45.2 -21.2 -45.95 -20.45 -47.4 -20.45 -48.85 -20.45 -49.6 -21.2 -50.4 -21.95 -50.4 -23.55 L-50.4 -25.85 M-56.8 -25.3 Q-57.15 -25.8 -57.15 -26.65 -57.15 -27.4 -56.8 -27.9 L-55.85 -28.65 -54.6 -28.9 Q-53.55 -28.9 -52.8 -28.35 -52.1 -27.8 -51.75 -26.85 L-53.3 -26.25 -53.85 -27.1 -54.6 -27.4 -55.15 -27.15 -55.35 -26.65 Q-55.35 -26.25 -55.0 -26.0 L-54.05 -25.5 -53.0 -24.9 -52.05 -24.15 Q-51.7 -23.65 -51.7 -22.95 -51.7 -22.1 -52.05 -21.55 -52.4 -21.0 -53.0 -20.75 L-54.4 -20.45 -55.5 -20.6 -56.5 -21.25 -57.45 -22.8 -55.75 -23.25 -55.3 -22.35 Q-54.95 -22.0 -54.4 -22.0 L-53.7 -22.2 -53.5 -22.7 Q-53.5 -23.15 -53.85 -23.45 L-54.8 -23.95 -55.85 -24.5 -56.8 -25.3 M-60.45 -28.9 Q-59.6 -28.9 -59.15 -28.45 -58.7 -27.95 -58.7 -26.8 L-58.7 -20.6 -60.6 -20.6 -60.6 -26.6 Q-60.6 -27.0 -60.75 -27.25 L-61.3 -27.5 -61.9 -27.25 -62.5 -26.75 -62.5 -20.6 -64.4 -20.6 -64.4 -31.45 -62.5 -31.45 -62.5 -27.85 -61.55 -28.6 -60.45 -28.9 M-88.3 -10.75 L-86.4 -10.75 -86.4 -2.6 -88.3 -2.6 -88.3 -10.75 M-93.0 -4.05 L-92.3 -4.6 -92.3 -6.6 -93.4 -6.15 -94.25 -5.5 -94.6 -4.75 -94.35 -4.1 Q-94.1 -3.85 -93.75 -3.85 L-93.0 -4.05 M-92.3 -7.8 L-92.3 -8.4 Q-92.3 -8.95 -92.6 -9.15 L-93.3 -9.4 Q-93.75 -9.35 -94.05 -9.1 L-94.35 -8.4 -96.25 -8.4 Q-96.15 -9.3 -95.7 -9.85 L-94.65 -10.65 -93.2 -10.9 Q-91.7 -10.9 -91.05 -10.2 -90.4 -9.55 -90.4 -8.45 L-90.4 -3.25 -90.4 -2.95 -90.3 -2.6 -92.2 -2.6 -92.25 -2.95 -92.35 -3.4 -93.3 -2.7 -94.6 -2.45 Q-95.45 -2.45 -95.95 -2.95 -96.45 -3.4 -96.45 -4.4 -96.45 -5.35 -95.9 -5.95 L-94.45 -7.05 -92.3 -7.8 M-88.3 -13.9 L-86.4 -13.9 -86.4 -12.2 -88.3 -12.2 -88.3 -13.9 M-84.15 -13.45 L-82.25 -13.45 -82.25 -2.6 -84.15 -2.6 -84.15 -13.45 M-107.55 -6.15 L-108.4 -5.5 -108.75 -4.75 -108.5 -4.1 -107.9 -3.85 -107.15 -4.05 -106.45 -4.6 -106.45 -6.6 -107.55 -6.15 M-105.2 -10.2 Q-104.55 -9.55 -104.55 -8.45 L-104.55 -3.25 -104.55 -2.95 -104.45 -2.6 -106.35 -2.6 -106.4 -2.95 -106.5 -3.4 -107.45 -2.7 -108.75 -2.45 Q-109.6 -2.45 -110.1 -2.95 -110.6 -3.4 -110.6 -4.4 -110.6 -5.35 -110.05 -5.95 L-108.6 -7.05 -106.45 -7.8 -106.45 -8.4 Q-106.45 -8.95 -106.75 -9.15 L-107.45 -9.4 -108.2 -9.1 -108.5 -8.4 -110.4 -8.4 Q-110.3 -9.3 -109.85 -9.85 L-108.8 -10.65 -107.35 -10.9 Q-105.85 -10.9 -105.2 -10.2 M-103.4 -10.75 L-101.55 -10.75 -100.3 -5.5 -100.25 -5.5 -99.0 -10.75 -97.1 -10.75 -99.35 -2.6 -101.2 -2.6 -103.4 -10.75 M-110.8 -29.6 L-110.8 -31.45 -103.9 -31.45 -103.9 -29.6 -106.3 -29.6 -106.3 -20.6 -108.4 -20.6 -108.4 -29.6 -110.8 -29.6 M-81.05 -27.25 L-81.65 -26.75 -81.65 -20.6 -83.55 -20.6 -83.55 -31.45 -81.65 -31.45 -81.65 -27.85 -80.7 -28.6 -79.6 -28.9 Q-78.75 -28.9 -78.3 -28.45 -77.85 -27.95 -77.85 -26.8 L-77.85 -20.6 -79.75 -20.6 -79.75 -26.6 Q-79.75 -27.0 -79.9 -27.25 L-80.45 -27.5 -81.05 -27.25 M-93.45 -25.75 L-91.25 -25.75 -91.25 -26.2 Q-91.25 -26.75 -91.5 -27.05 L-92.35 -27.4 -93.2 -27.05 -93.45 -26.2 -93.45 -25.75 M-95.35 -26.0 Q-95.35 -26.9 -94.95 -27.55 L-93.95 -28.55 -92.35 -28.9 -90.8 -28.55 -89.75 -27.6 Q-89.35 -27.0 -89.35 -26.15 L-89.35 -24.25 -93.45 -24.25 -93.45 -23.15 Q-93.45 -22.55 -93.15 -22.25 -92.85 -22.0 -92.35 -22.0 -91.75 -22.0 -91.5 -22.3 -91.25 -22.65 -91.25 -23.15 L-89.35 -23.15 Q-89.4 -21.85 -90.15 -21.15 -90.9 -20.45 -92.35 -20.45 -93.25 -20.45 -93.95 -20.8 L-94.95 -21.8 Q-95.35 -22.45 -95.35 -23.35 L-95.35 -26.0 M-100.8 -27.85 L-99.85 -28.6 -98.75 -28.9 Q-97.9 -28.9 -97.45 -28.45 -97.0 -27.95 -97.0 -26.8 L-97.0 -20.6 -98.9 -20.6 -98.9 -26.6 -99.05 -27.25 -99.6 -27.5 -100.2 -27.25 -100.8 -26.75 -100.8 -20.6 -102.7 -20.6 -102.7 -31.45 -100.8 -31.45 -100.8 -27.85 M49.35 -4.75 L49.35 -2.6 47.2 -2.6 47.2 -4.75 49.35 -4.75 M55.85 -28.75 L57.75 -28.75 55.5 -20.6 53.65 -20.6 51.45 -28.75 53.3 -28.75 54.55 -23.5 54.6 -23.5 55.85 -28.75 M48.25 -28.75 L50.15 -28.75 50.15 -20.6 48.25 -20.6 48.25 -28.75 M43.65 -28.9 Q44.7 -28.9 45.45 -28.35 46.15 -27.8 46.5 -26.85 L44.95 -26.25 44.4 -27.1 43.65 -27.4 43.1 -27.15 42.9 -26.65 Q42.9 -26.25 43.25 -26.0 L44.2 -25.5 45.25 -24.9 46.2 -24.15 Q46.55 -23.65 46.55 -22.95 46.55 -22.1 46.2 -21.55 45.85 -21.0 45.25 -20.75 L43.85 -20.45 42.75 -20.6 Q42.2 -20.75 41.75 -21.25 41.25 -21.75 40.8 -22.8 L42.5 -23.25 Q42.6 -22.65 42.95 -22.35 43.3 -22.0 43.85 -22.0 L44.55 -22.2 44.75 -22.7 44.4 -23.45 43.45 -23.95 42.4 -24.5 41.45 -25.3 Q41.1 -25.8 41.1 -26.65 41.1 -27.4 41.45 -27.9 L42.4 -28.65 43.65 -28.9 M48.25 -31.9 L50.15 -31.9 50.15 -30.2 48.25 -30.2 48.25 -31.9 M74.15 -28.75 L76.05 -28.75 73.85 -20.65 73.2 -18.9 72.2 -18.0 Q71.55 -17.7 70.65 -17.7 L70.35 -17.75 70.05 -17.75 70.05 -19.4 70.3 -19.35 70.6 -19.35 Q71.0 -19.4 71.3 -19.55 L71.8 -20.0 71.95 -20.45 71.85 -21.25 71.6 -22.2 69.7 -28.75 71.65 -28.75 72.9 -23.35 72.95 -23.35 74.15 -28.75 M62.75 -26.2 L62.5 -27.05 61.65 -27.4 60.8 -27.05 60.55 -26.2 60.55 -25.75 62.75 -25.75 62.75 -26.2 M66.55 -31.45 L68.45 -31.45 68.45 -20.6 66.55 -20.6 66.55 -31.45 M63.2 -28.55 L64.25 -27.6 Q64.65 -27.0 64.65 -26.15 L64.65 -24.25 60.55 -24.25 60.55 -23.15 Q60.55 -22.55 60.85 -22.25 L61.65 -22.0 Q62.25 -22.0 62.5 -22.3 L62.75 -23.15 64.65 -23.15 Q64.6 -21.85 63.85 -21.15 63.1 -20.45 61.65 -20.45 60.75 -20.45 60.05 -20.8 59.4 -21.15 59.05 -21.8 58.65 -22.45 58.65 -23.35 L58.65 -26.0 Q58.65 -26.9 59.05 -27.55 59.4 -28.2 60.05 -28.55 L61.65 -28.9 63.2 -28.55 M32.7 -8.3 L32.4 -9.0 31.6 -9.25 30.8 -9.0 Q30.5 -8.8 30.5 -8.3 L30.5 -5.05 Q30.5 -4.6 30.8 -4.35 31.1 -4.1 31.6 -4.1 32.1 -4.1 32.4 -4.35 L32.7 -5.05 32.7 -8.3 M36.25 -10.75 L38.1 -10.75 38.1 -9.85 39.05 -10.6 40.1 -10.9 Q40.65 -10.9 41.0 -10.55 L41.55 -9.7 42.45 -10.55 Q42.95 -10.9 43.55 -10.9 44.4 -10.9 44.85 -10.4 45.25 -9.85 45.25 -8.75 L45.25 -2.6 43.4 -2.6 43.4 -8.8 43.25 -9.35 42.9 -9.5 42.25 -9.25 41.7 -8.75 41.7 -2.6 39.8 -2.6 39.8 -8.8 39.7 -9.35 39.3 -9.5 38.65 -9.25 38.15 -8.75 38.15 -2.6 36.25 -2.6 36.25 -10.75 M28.6 -7.85 Q28.6 -9.45 29.4 -10.2 30.15 -10.9 31.6 -10.9 33.05 -10.9 33.8 -10.2 34.6 -9.45 34.6 -7.85 L34.6 -5.55 Q34.6 -3.95 33.8 -3.2 33.05 -2.45 31.6 -2.45 30.15 -2.45 29.4 -3.2 28.6 -3.95 28.6 -5.55 L28.6 -7.85 M26.3 -10.2 Q27.05 -9.5 27.1 -7.95 L25.2 -7.95 25.2 -8.3 24.9 -9.0 24.1 -9.25 23.3 -9.0 Q23.0 -8.8 23.0 -8.3 L23.0 -5.05 Q23.0 -4.6 23.3 -4.35 23.6 -4.1 24.1 -4.1 L24.9 -4.35 25.2 -5.05 25.2 -5.6 27.1 -5.6 27.1 -5.55 Q27.1 -3.95 26.3 -3.2 25.55 -2.45 24.1 -2.45 22.65 -2.45 21.9 -3.2 21.1 -3.95 21.1 -5.55 L21.1 -7.85 Q21.1 -9.45 21.9 -10.2 22.65 -10.9 24.1 -10.9 25.5 -10.9 26.3 -10.2 M19.35 -2.6 L17.2 -2.6 17.2 -4.75 19.35 -4.75 19.35 -2.6 M12.65 -9.5 L12.05 -9.35 11.5 -8.9 11.5 -4.45 12.05 -4.0 12.65 -3.85 13.1 -4.0 13.45 -4.6 13.55 -5.8 13.55 -7.55 13.45 -8.75 13.1 -9.35 12.65 -9.5 M13.4 -10.9 Q14.5 -10.9 14.95 -10.1 15.45 -9.25 15.45 -7.65 L15.45 -5.7 Q15.45 -4.1 14.95 -3.3 14.5 -2.45 13.4 -2.45 L12.6 -2.65 11.5 -3.35 11.5 0.3 9.6 0.3 9.6 -10.75 11.35 -10.75 11.35 -9.75 11.85 -10.3 12.55 -10.75 13.4 -10.9 M5.7 -10.75 L7.6 -10.75 7.6 -2.6 5.7 -2.6 5.7 -10.75 M5.7 -13.9 L7.6 -13.9 7.6 -12.2 5.7 -12.2 5.7 -13.9 M1.55 -13.45 L3.45 -13.45 3.45 -2.6 1.55 -2.6 1.55 -13.45 M12.05 -26.0 Q12.05 -26.9 12.45 -27.55 12.8 -28.2 13.45 -28.55 L15.05 -28.9 16.6 -28.55 17.65 -27.6 Q18.05 -27.0 18.05 -26.15 L18.05 -24.25 13.95 -24.25 13.95 -23.15 Q13.95 -22.55 14.25 -22.25 L15.05 -22.0 Q15.65 -22.0 15.9 -22.3 L16.15 -23.15 18.05 -23.15 Q18.0 -21.85 17.25 -21.15 16.5 -20.45 15.05 -20.45 14.15 -20.45 13.45 -20.8 12.8 -21.15 12.45 -21.8 12.05 -22.45 12.05 -23.35 L12.05 -26.0 M15.05 -27.4 Q14.5 -27.35 14.2 -27.05 13.95 -26.75 13.95 -26.2 L13.95 -25.75 16.15 -25.75 16.15 -26.2 15.9 -27.05 15.05 -27.4 M2.3 -26.2 L2.3 -25.75 4.5 -25.75 4.5 -26.2 4.25 -27.05 3.4 -27.4 2.55 -27.05 2.3 -26.2 M3.4 -28.9 L4.95 -28.55 6.0 -27.6 Q6.4 -27.0 6.4 -26.15 L6.4 -24.25 2.3 -24.25 2.3 -23.15 Q2.3 -22.55 2.6 -22.25 2.9 -22.0 3.4 -22.0 4.0 -22.0 4.25 -22.3 L4.5 -23.15 6.4 -23.15 Q6.35 -21.85 5.6 -21.15 4.85 -20.45 3.4 -20.45 2.5 -20.45 1.8 -20.8 1.15 -21.15 0.8 -21.8 0.4 -22.45 0.4 -23.35 L0.4 -26.0 Q0.4 -26.9 0.8 -27.55 1.15 -28.2 1.8 -28.55 L3.4 -28.9 M37.65 -28.75 L39.55 -28.75 39.55 -20.6 37.7 -20.6 37.7 -21.55 36.7 -20.75 Q36.2 -20.45 35.6 -20.45 34.75 -20.45 34.3 -20.95 33.85 -21.45 33.85 -22.55 L33.85 -28.75 35.75 -28.75 35.75 -22.75 Q35.75 -22.35 35.9 -22.1 36.05 -21.9 36.45 -21.85 L37.05 -22.1 37.65 -22.6 37.65 -28.75 M28.4 -27.0 Q28.1 -26.8 28.1 -26.3 L28.1 -23.05 Q28.1 -22.6 28.4 -22.35 28.7 -22.1 29.2 -22.1 29.7 -22.1 30.0 -22.35 L30.3 -23.05 30.3 -23.6 32.2 -23.6 32.2 -23.55 Q32.2 -21.95 31.4 -21.2 30.65 -20.45 29.2 -20.45 27.75 -20.45 27.0 -21.2 26.2 -21.95 26.2 -23.55 L26.2 -25.85 Q26.2 -27.45 27.0 -28.2 27.75 -28.9 29.2 -28.9 30.6 -28.9 31.4 -28.2 32.15 -27.5 32.2 -25.95 L30.3 -25.95 30.3 -26.3 30.0 -27.0 29.2 -27.25 28.4 -27.0 M25.25 -28.75 L23.15 -24.8 25.35 -20.6 23.35 -20.6 22.15 -23.25 20.9 -20.6 18.9 -20.6 21.1 -24.8 19.05 -28.75 21.05 -28.75 22.15 -26.45 23.2 -28.75 25.25 -28.75" fill="#1c3664" fill-rule="evenodd" stroke="none"/>
    <path d="M-90.7 -112.45 L-90.7 -111.9 Q-90.7 -110.25 -91.25 -109.3 -91.8 -108.3 -92.75 -107.85 -93.7 -107.4 -94.95 -107.4 -96.2 -107.4 -97.15 -107.85 -98.1 -108.3 -98.65 -109.3 -99.15 -110.25 -99.15 -111.9 L-99.15 -116.7 Q-99.15 -118.35 -98.65 -119.35 -98.1 -120.35 -97.15 -120.75 -96.2 -121.2 -94.95 -121.2 L-92.75 -120.75 Q-91.8 -120.35 -91.25 -119.35 -90.7 -118.35 -90.7 -116.7 L-90.7 -116.65 -93.25 -116.65 -93.25 -117.05 Q-93.3 -118.15 -93.7 -118.55 -94.15 -118.95 -94.95 -118.95 -95.7 -118.95 -96.15 -118.55 -96.6 -118.15 -96.6 -117.05 L-96.6 -111.6 Q-96.6 -110.5 -96.15 -110.1 -95.7 -109.65 -94.95 -109.7 -94.15 -109.65 -93.7 -110.1 -93.3 -110.5 -93.25 -111.6 L-93.25 -112.45 -90.7 -112.45 M-84.1 -118.95 Q-84.85 -118.95 -85.3 -118.55 -85.75 -118.15 -85.75 -117.05 L-85.75 -111.6 Q-85.75 -110.5 -85.3 -110.1 -84.85 -109.65 -84.1 -109.7 -83.3 -109.65 -82.85 -110.1 -82.45 -110.5 -82.4 -111.6 L-82.4 -117.05 Q-82.45 -118.15 -82.85 -118.55 -83.3 -118.95 -84.1 -118.95 M-121.5 -121.0 L-118.95 -121.0 -118.95 -115.65 -115.3 -115.65 -115.3 -121.0 -112.75 -121.0 -112.75 -107.6 -115.3 -107.6 -115.3 -113.4 -118.95 -113.4 -118.95 -107.6 -121.5 -107.6 -121.5 -121.0 M-105.95 -121.2 Q-104.8 -121.2 -103.95 -120.8 L-102.6 -119.65 Q-102.05 -118.9 -101.8 -117.95 L-104.15 -117.3 Q-104.45 -118.2 -104.9 -118.65 -105.35 -119.1 -106.0 -119.1 L-107.05 -118.7 Q-107.4 -118.3 -107.4 -117.6 -107.4 -117.1 -107.0 -116.75 L-105.95 -116.0 -104.55 -115.25 -103.2 -114.3 -102.1 -113.05 Q-101.7 -112.3 -101.7 -111.25 -101.7 -110.1 -102.2 -109.2 -102.7 -108.35 -103.65 -107.9 L-105.95 -107.4 Q-107.55 -107.4 -108.7 -108.3 -109.85 -109.2 -110.35 -111.2 L-107.85 -111.75 Q-107.7 -110.9 -107.35 -110.45 L-106.65 -109.75 Q-106.25 -109.5 -105.85 -109.55 -105.15 -109.55 -104.7 -109.95 -104.3 -110.4 -104.25 -111.15 -104.25 -111.75 -104.7 -112.2 L-105.75 -113.05 -107.1 -113.85 -108.5 -114.7 -109.55 -115.85 Q-109.95 -116.5 -110.0 -117.45 -110.0 -119.2 -108.95 -120.2 -107.95 -121.2 -105.95 -121.2 M-138.05 -121.0 L-135.5 -121.0 -135.5 -107.6 -138.05 -107.6 -138.05 -121.0 M-130.7 -120.75 L-128.5 -121.2 Q-126.5 -121.2 -125.5 -120.05 -124.45 -118.95 -124.35 -116.65 L-126.95 -116.65 Q-126.95 -117.9 -127.35 -118.45 -127.8 -118.95 -128.5 -118.95 -129.25 -118.95 -129.7 -118.55 -130.15 -118.15 -130.15 -117.05 L-130.15 -111.6 Q-130.15 -110.5 -129.7 -110.1 -129.25 -109.65 -128.5 -109.7 -127.75 -109.7 -127.35 -110.2 -126.95 -110.65 -126.95 -111.55 L-126.95 -112.35 -128.7 -112.35 -128.7 -114.5 -124.35 -114.5 -124.35 -107.6 -125.7 -107.6 -126.1 -108.7 -127.2 -107.75 Q-127.75 -107.45 -128.5 -107.4 L-130.7 -107.85 Q-131.65 -108.3 -132.2 -109.3 -132.7 -110.25 -132.7 -111.9 L-132.7 -116.7 Q-132.7 -118.35 -132.2 -119.35 -131.65 -120.35 -130.7 -120.75 M-149.9 -121.0 L-147.35 -121.0 -147.35 -115.65 -143.7 -115.65 -143.7 -121.0 -141.15 -121.0 -141.15 -107.6 -143.7 -107.6 -143.7 -113.4 -147.35 -113.4 -147.35 -107.6 -149.9 -107.6 -149.9 -121.0 M-50.0 -114.3 L-48.9 -113.05 Q-48.5 -112.3 -48.5 -111.25 -48.5 -110.1 -49.0 -109.2 -49.5 -108.35 -50.45 -107.9 L-52.75 -107.4 Q-54.35 -107.4 -55.5 -108.3 -56.65 -109.2 -57.15 -111.2 L-54.65 -111.75 -54.15 -110.45 -53.45 -109.75 Q-53.05 -109.5 -52.65 -109.55 -51.95 -109.55 -51.5 -109.95 -51.1 -110.4 -51.05 -111.15 -51.05 -111.75 -51.5 -112.2 L-52.55 -113.05 -53.9 -113.85 -55.3 -114.7 -56.35 -115.85 Q-56.75 -116.5 -56.8 -117.45 -56.8 -119.2 -55.75 -120.2 -54.75 -121.2 -52.75 -121.2 L-50.75 -120.8 Q-49.9 -120.35 -49.4 -119.65 -48.85 -118.9 -48.6 -117.95 L-50.95 -117.3 Q-51.25 -118.2 -51.7 -118.65 -52.15 -119.1 -52.8 -119.1 L-53.85 -118.7 Q-54.2 -118.3 -54.2 -117.6 -54.2 -117.1 -53.8 -116.75 L-52.75 -116.0 -51.35 -115.25 -50.0 -114.3 M-79.85 -116.7 L-79.85 -111.9 Q-79.85 -110.25 -80.4 -109.3 -80.95 -108.3 -81.9 -107.85 -82.85 -107.4 -84.1 -107.4 L-86.3 -107.85 Q-87.25 -108.3 -87.8 -109.3 -88.3 -110.25 -88.3 -111.9 L-88.3 -116.7 Q-88.3 -118.35 -87.8 -119.35 -87.25 -120.35 -86.3 -120.75 L-84.1 -121.2 -81.9 -120.75 Q-80.95 -120.35 -80.4 -119.35 -79.85 -118.35 -79.85 -116.7 M-73.35 -118.9 L-74.7 -118.9 -74.7 -115.15 -73.35 -115.15 Q-72.5 -115.15 -72.0 -115.6 -71.55 -116.05 -71.55 -117.05 -71.55 -118.0 -72.0 -118.45 -72.5 -118.9 -73.35 -118.9 M-63.85 -118.75 L-63.85 -115.65 -60.45 -115.65 -60.45 -113.4 -63.85 -113.4 -63.85 -109.85 -59.2 -109.85 -59.2 -107.6 -66.4 -107.6 -66.4 -121.0 -59.4 -121.0 -59.4 -118.75 -63.85 -118.75 M-69.0 -117.0 Q-68.95 -115.75 -69.45 -114.85 -69.95 -114.0 -71.0 -113.6 L-68.5 -107.6 -71.25 -107.6 -73.45 -113.05 -74.7 -113.05 -74.7 -107.6 -77.25 -107.6 -77.25 -121.0 -73.55 -121.0 Q-71.25 -121.0 -70.1 -119.95 -69.0 -118.9 -69.0 -117.0" fill="#ffffff" fill-rule="evenodd" stroke="none"/>
  </g>
  <defs>
    <linearGradient gradientTransform="matrix(0.0, 0.0084, -0.0084, 0.0, 34.9, -49.15)" gradientUnits="userSpaceOnUse" id="gradient0" spreadMethod="pad" x1="-819.2" x2="819.2">
      <stop offset="0.0" stop-color="#ff8a00"/>
      <stop offset="1.0" stop-color="#e60012"/>
    </linearGradient>
    <linearGradient gradientTransform="matrix(0.0, 0.0084, -0.0084, 0.0, -104.05, -49.15)" gradientUnits="userSpaceOnUse" id="gradient1" spreadMethod="pad" x1="-819.2" x2="819.2">
      <stop offset="0.0" stop-color="#ff8a00"/>
      <stop offset="1.0" stop-color="#e60012"/>
    </linearGradient>
    <linearGradient gradientTransform="matrix(0.0, 0.0084, -0.0084, 0.0, -90.4, -49.15)" gradientUnits="userSpaceOnUse" id="gradient2" spreadMethod="pad" x1="-819.2" x2="819.2">
      <stop offset="0.0" stop-color="#ff8a00"/>
      <stop offset="1.0" stop-color="#e60012"/>
    </linearGradient>
    <linearGradient gradientTransform="matrix(0.0, 0.0084, -0.0084, 0.0, -42.6, -49.15)" gradientUnits="userSpaceOnUse" id="gradient3" spreadMethod="pad" x1="-819.2" x2="819.2">
      <stop offset="0.0" stop-color="#ff8a00"/>
      <stop offset="1.0" stop-color="#e60012"/>
    </linearGradient>
    <linearGradient gradientTransform="matrix(0.0, 0.0084, -0.0084, 0.0, -57.95, -49.15)" gradientUnits="userSpaceOnUse" id="gradient4" spreadMethod="pad" x1="-819.2" x2="819.2">
      <stop offset="0.0" stop-color="#ff8a00"/>
      <stop offset="1.0" stop-color="#e60012"/>
    </linearGradient>
    <linearGradient gradientTransform="matrix(0.0, 0.0084, -0.0084, 0.0, -67.9, -49.15)" gradientUnits="userSpaceOnUse" id="gradient5" spreadMethod="pad" x1="-819.2" x2="819.2">
      <stop offset="0.0" stop-color="#ff8a00"/>
      <stop offset="1.0" stop-color="#e60012"/>
    </linearGradient>
    <linearGradient gradientTransform="matrix(0.0, 0.0084, -0.0084, 0.0, -79.15, -49.15)" gradientUnits="userSpaceOnUse" id="gradient6" spreadMethod="pad" x1="-819.2" x2="819.2">
      <stop offset="0.0" stop-color="#ff8a00"/>
      <stop offset="1.0" stop-color="#e60012"/>
    </linearGradient>
    <linearGradient gradientTransform="matrix(0.0, 0.0083, -0.0084, 0.0, -20.25, -49.15)" gradientUnits="userSpaceOnUse" id="gradient7" spreadMethod="pad" x1="-819.2" x2="819.2">
      <stop offset="0.0" stop-color="#ff8a00"/>
      <stop offset="1.0" stop-color="#e60012"/>
    </linearGradient>
    <linearGradient gradientTransform="matrix(0.0, 0.0082, -0.0026, 0.0, -10.1, -48.75)" gradientUnits="userSpaceOnUse" id="gradient8" spreadMethod="pad" x1="-819.2" x2="819.2">
      <stop offset="0.0" stop-color="#ff8a00"/>
      <stop offset="1.0" stop-color="#e60012"/>
    </linearGradient>
    <linearGradient gradientTransform="matrix(0.0, 0.0084, -0.0084, 0.0, 1.5, -49.15)" gradientUnits="userSpaceOnUse" id="gradient9" spreadMethod="pad" x1="-819.2" x2="819.2">
      <stop offset="0.0" stop-color="#ff8a00"/>
      <stop offset="1.0" stop-color="#e60012"/>
    </linearGradient>
    <linearGradient gradientTransform="matrix(0.0, 0.0084, -0.0084, 0.0, -31.55, -49.15)" gradientUnits="userSpaceOnUse" id="gradient10" spreadMethod="pad" x1="-819.2" x2="819.2">
      <stop offset="0.0" stop-color="#ff8a00"/>
      <stop offset="1.0" stop-color="#e60012"/>
    </linearGradient>
    <linearGradient gradientTransform="matrix(0.0, 0.0084, -0.0084, 0.0, 17.35, -49.15)" gradientUnits="userSpaceOnUse" id="gradient11" spreadMethod="pad" x1="-819.2" x2="819.2">
      <stop offset="0.0" stop-color="#ff8a00"/>
      <stop offset="1.0" stop-color="#e60012"/>
    </linearGradient>
  </defs>
</svg>
