<?xml version="1.0" encoding="UTF-8" standalone="no"?>
<svg xmlns:xlink="http://www.w3.org/1999/xlink" height="5.0px" width="234.6px" xmlns="http://www.w3.org/2000/svg">
  <g transform="matrix(1.0, 0.0, 0.0, 1.0, 0.0, 0.0)">
    <path d="M233.0 3.9 L232.25 3.9 232.25 3.45 231.85 3.85 231.3 3.95 Q230.8 3.95 230.45 3.55 230.05 3.2 230.05 2.5 230.05 1.75 230.45 1.4 230.8 1.0 231.35 1.0 231.85 1.0 232.2 1.45 L232.2 0.05 233.0 0.05 233.0 3.9 M233.8 3.15 L234.6 3.15 234.6 3.9 233.8 3.9 233.8 3.15 M232.05 1.8 L231.55 1.6 231.05 1.8 230.85 2.45 231.0 3.1 Q231.2 3.4 231.55 3.4 L232.05 3.15 232.25 2.5 232.05 1.8 M229.6 2.7 L227.6 2.7 227.8 3.2 228.25 3.4 228.55 3.3 228.75 3.0 229.55 3.15 229.1 3.75 228.25 3.95 Q227.5 3.95 227.1 3.45 226.85 3.1 226.85 2.5 226.85 1.8 227.2 1.45 227.6 1.0 228.2 1.0 228.85 1.0 229.25 1.45 229.65 1.85 229.6 2.7 M228.25 1.6 Q227.95 1.6 227.8 1.75 227.65 1.95 227.65 2.2 L228.85 2.2 228.65 1.75 228.25 1.6 M226.6 1.1 L225.4 3.9 224.7 3.9 223.55 1.2 223.35 1.8 222.95 1.7 Q222.8 1.7 222.7 1.8 L222.5 2.1 222.45 3.0 222.45 3.9 221.65 3.9 221.65 1.1 222.4 1.1 222.4 1.5 222.75 1.1 223.05 1.0 223.5 1.15 223.5 1.1 224.3 1.1 224.9 2.5 225.05 3.0 225.1 2.75 225.2 2.5 225.75 1.1 226.6 1.1 M221.0 2.7 L219.0 2.7 219.2 3.2 219.65 3.4 219.95 3.3 220.15 3.0 220.95 3.15 220.5 3.75 219.65 3.95 Q218.9 3.95 218.5 3.45 218.25 3.1 218.25 2.5 218.25 1.8 218.6 1.45 219.0 1.0 219.6 1.0 220.25 1.0 220.65 1.45 221.05 1.85 221.0 2.7 M219.2 1.75 L219.05 2.2 220.25 2.2 220.05 1.75 Q219.9 1.6 219.65 1.6 219.35 1.6 219.2 1.75 M216.35 1.0 L217.25 1.2 217.65 1.8 216.9 1.9 216.7 1.65 216.35 1.55 215.95 1.6 215.85 1.8 215.9 1.95 216.65 2.15 Q217.25 2.25 217.5 2.45 L217.75 3.0 217.4 3.65 Q217.05 3.95 216.4 3.95 L215.45 3.7 215.0 3.1 215.75 3.0 215.95 3.35 216.4 3.4 216.85 3.35 216.95 3.15 216.9 2.95 216.65 2.85 215.45 2.5 Q215.1 2.3 215.1 1.9 215.1 1.5 215.4 1.3 215.7 1.0 216.35 1.0 M214.6 2.7 L212.6 2.7 212.8 3.2 Q213.0 3.4 213.25 3.4 L213.55 3.3 213.75 3.0 214.55 3.15 214.1 3.75 213.25 3.95 Q212.5 3.95 212.1 3.45 211.85 3.1 211.85 2.5 211.85 1.8 212.2 1.45 212.6 1.0 213.2 1.0 213.85 1.0 214.25 1.45 214.65 1.85 214.6 2.7 M213.25 1.6 Q212.95 1.6 212.8 1.75 212.65 1.95 212.65 2.2 L213.85 2.2 213.65 1.75 Q213.5 1.6 213.25 1.6 M210.95 1.1 L211.25 1.0 211.75 1.15 211.55 1.8 211.15 1.7 210.9 1.8 210.7 2.1 210.65 3.0 210.65 3.9 209.85 3.9 209.85 1.1 210.6 1.1 210.6 1.5 210.95 1.1 M206.15 1.0 L207.05 1.2 207.45 1.8 206.7 1.9 206.5 1.65 206.15 1.55 205.75 1.6 205.65 1.8 205.7 1.95 206.45 2.15 Q207.05 2.25 207.3 2.45 L207.55 3.0 207.2 3.65 Q206.85 3.95 206.2 3.95 L205.25 3.7 204.8 3.1 205.55 3.0 205.75 3.35 206.2 3.4 206.65 3.35 206.75 3.15 206.7 2.95 206.45 2.85 205.25 2.5 Q204.9 2.3 204.9 1.9 204.9 1.5 205.2 1.3 205.5 1.0 206.15 1.0 M203.95 1.1 L204.5 1.1 204.5 1.65 203.95 1.65 203.95 2.8 204.0 3.2 204.05 3.35 204.2 3.35 204.5 3.3 204.55 3.85 203.95 3.95 203.55 3.9 203.3 3.7 203.2 3.4 203.15 2.85 203.15 1.65 202.8 1.65 202.8 1.1 203.15 1.1 203.15 0.55 203.95 0.15 203.95 1.1 M201.8 1.1 L202.1 1.4 202.25 1.7 202.3 2.25 202.3 3.9 201.5 3.9 201.5 2.4 201.45 1.85 201.3 1.65 201.05 1.6 200.7 1.65 200.45 1.95 200.4 2.5 200.4 3.9 199.6 3.9 199.6 0.05 200.4 0.05 200.4 1.5 Q200.75 1.0 201.3 1.0 L201.8 1.1 M198.8 1.1 L198.8 3.6 198.7 4.35 198.45 4.7 198.05 4.95 197.4 5.0 196.3 4.75 Q196.0 4.55 196.0 4.15 L196.0 4.05 196.9 4.15 197.0 4.4 197.35 4.45 197.8 4.35 198.0 4.15 198.0 3.85 198.0 3.4 Q197.65 3.9 197.1 3.9 196.5 3.9 196.15 3.4 195.85 3.05 195.85 2.5 195.85 1.75 196.25 1.4 196.6 1.0 197.1 1.0 197.65 1.0 198.05 1.5 L198.05 1.1 198.8 1.1 M197.85 1.8 L197.35 1.6 196.85 1.8 196.65 2.45 196.85 3.1 197.3 3.3 197.85 3.1 198.05 2.45 Q198.05 2.05 197.85 1.8 M195.25 0.75 L194.45 0.75 194.45 0.05 195.25 0.05 195.25 0.75 M193.6 1.0 L194.1 1.15 193.9 1.8 193.5 1.7 193.25 1.8 193.05 2.1 193.0 3.0 193.0 3.9 192.2 3.9 192.2 1.1 192.95 1.1 192.95 1.5 193.3 1.1 193.6 1.0 M194.45 1.1 L195.25 1.1 195.25 3.9 194.45 3.9 194.45 1.1 M189.8 0.05 L189.8 3.9 189.0 3.9 189.0 0.05 189.8 0.05 M188.2 0.05 L188.2 3.9 187.4 3.9 187.4 0.05 188.2 0.05 M184.9 0.95 L184.35 2.35 185.45 2.35 184.9 0.95 M182.85 3.9 L184.45 0.05 185.35 0.05 186.95 3.9 186.1 3.9 185.7 3.0 184.1 3.0 183.75 3.9 182.85 3.9 M179.35 2.45 L179.15 3.65 178.45 5.0 177.9 5.0 178.25 4.3 178.4 3.75 178.55 3.1 178.6 2.55 178.45 1.35 177.9 0.0 178.45 0.0 179.1 1.2 179.35 2.45 M180.85 3.9 L180.05 3.9 180.05 3.15 180.85 3.15 180.85 3.9 M176.1 3.05 L176.75 1.1 177.6 1.1 176.35 4.25 176.15 4.65 175.95 4.85 175.65 4.95 175.25 5.0 174.8 4.95 174.75 4.4 175.05 4.45 Q175.35 4.45 175.45 4.25 L175.65 3.9 174.55 1.1 175.4 1.1 176.1 3.05 M173.9 1.35 L174.05 1.65 174.1 2.15 174.1 3.9 173.3 3.9 173.3 2.45 173.25 1.9 173.1 1.65 172.85 1.6 172.45 1.7 172.25 2.0 172.2 2.65 172.2 3.9 171.4 3.9 171.4 1.1 172.15 1.1 172.15 1.5 Q172.55 1.0 173.1 1.0 L173.6 1.1 173.9 1.35 M170.6 2.15 L170.6 2.95 170.65 3.5 170.8 3.9 170.0 3.9 169.95 3.65 169.9 3.55 169.45 3.85 169.0 3.95 168.25 3.7 168.0 3.15 168.1 2.75 168.45 2.4 169.05 2.25 169.8 2.1 169.8 2.0 169.7 1.7 169.3 1.6 169.0 1.65 168.8 1.95 168.1 1.85 168.5 1.25 Q168.8 1.0 169.35 1.0 L170.15 1.15 170.5 1.45 170.6 2.15 M169.8 2.7 L169.8 2.55 169.35 2.7 168.9 2.75 168.75 3.05 168.9 3.35 169.2 3.4 169.6 3.3 169.75 3.05 169.8 2.7 M167.55 2.5 Q167.55 3.2 167.15 3.55 166.8 3.95 166.3 3.95 L165.85 3.85 165.45 3.55 165.45 4.95 164.65 4.95 164.65 1.1 165.4 1.1 165.4 1.5 165.8 1.15 166.35 1.0 Q166.85 1.0 167.2 1.45 167.55 1.8 167.55 2.5 M166.55 1.8 L166.1 1.6 Q165.8 1.6 165.6 1.8 L165.4 2.45 165.6 3.15 166.1 3.4 Q166.4 3.4 166.55 3.2 L166.75 2.5 166.55 1.8 M163.75 1.5 L163.85 2.1 163.85 3.9 163.05 3.9 163.05 2.3 162.95 1.75 162.65 1.6 162.3 1.7 162.1 2.0 162.05 2.55 162.05 3.9 161.25 3.9 161.25 2.35 161.2 1.85 161.1 1.65 160.85 1.6 160.55 1.65 160.35 1.95 160.25 2.55 160.25 3.9 159.5 3.9 159.5 1.1 160.2 1.1 160.2 1.5 Q160.6 1.0 161.15 1.0 L161.6 1.15 161.95 1.5 162.4 1.15 Q162.6 1.0 162.85 1.0 163.2 1.0 163.4 1.15 L163.75 1.5 M158.95 2.5 Q158.95 3.1 158.5 3.5 158.05 3.95 157.4 3.95 L156.65 3.8 156.05 3.3 155.85 2.45 156.05 1.75 Q156.25 1.4 156.6 1.2 L157.4 1.0 Q158.05 1.0 158.5 1.45 158.95 1.85 158.95 2.5 M157.9 1.85 Q157.7 1.6 157.4 1.6 157.1 1.6 156.85 1.85 L156.65 2.5 156.85 3.15 Q157.1 3.35 157.4 3.35 157.7 3.35 157.9 3.15 L158.1 2.5 157.9 1.85 M155.4 1.9 L154.65 2.05 154.45 1.7 154.1 1.6 Q153.8 1.6 153.65 1.8 L153.45 2.45 153.65 3.15 Q153.8 3.35 154.15 3.35 L154.5 3.25 154.7 2.8 155.5 2.9 155.0 3.7 154.1 3.95 Q153.45 3.95 153.05 3.55 152.65 3.2 152.65 2.5 152.65 1.8 153.05 1.45 153.45 1.0 154.1 1.0 154.65 1.0 154.95 1.25 L155.4 1.9 M149.9 1.1 L150.2 1.35 150.35 1.65 150.4 2.15 150.4 3.9 149.6 3.9 149.6 2.45 149.55 1.9 149.4 1.65 149.15 1.6 148.75 1.7 148.55 2.0 148.5 2.65 148.5 3.9 147.7 3.9 147.7 1.1 148.45 1.1 148.45 1.5 Q148.85 1.0 149.4 1.0 L149.9 1.1 M145.5 1.0 Q146.15 1.0 146.6 1.45 147.05 1.85 147.05 2.5 L146.6 3.5 Q146.15 3.95 145.5 3.95 L144.75 3.8 144.15 3.3 143.95 2.45 144.15 1.75 Q144.35 1.4 144.7 1.2 L145.5 1.0 M146.0 1.85 Q145.8 1.6 145.5 1.6 145.2 1.6 144.95 1.85 L144.75 2.5 144.95 3.15 145.5 3.35 Q145.8 3.35 146.0 3.15 L146.2 2.5 146.0 1.85 M142.05 1.8 L141.65 1.7 141.4 1.8 141.2 2.1 141.15 3.0 141.15 3.9 140.35 3.9 140.35 1.1 141.1 1.1 141.1 1.5 141.45 1.1 141.75 1.0 142.25 1.15 142.05 1.8 M143.35 0.75 L142.55 0.75 142.55 0.05 143.35 0.05 143.35 0.75 M143.35 1.1 L143.35 3.9 142.55 3.9 142.55 1.1 143.35 1.1 M139.7 2.5 Q139.7 3.1 139.25 3.5 138.8 3.95 138.15 3.95 L137.4 3.8 136.8 3.3 136.6 2.45 136.8 1.75 Q137.0 1.4 137.35 1.2 L138.15 1.0 Q138.8 1.0 139.25 1.45 139.7 1.85 139.7 2.5 M138.15 1.6 Q137.85 1.6 137.6 1.85 L137.4 2.5 137.6 3.15 Q137.85 3.35 138.15 3.35 L138.65 3.15 138.85 2.5 138.65 1.85 138.15 1.6 M135.5 1.1 L135.8 1.4 135.95 1.7 136.0 2.25 136.0 3.9 135.2 3.9 135.2 2.4 135.15 1.85 135.0 1.65 134.75 1.6 134.4 1.65 134.15 1.95 134.1 2.5 134.1 3.9 133.3 3.9 133.3 0.05 134.1 0.05 134.1 1.5 Q134.45 1.0 135.0 1.0 L135.5 1.1 M132.55 2.7 Q132.4 3.35 131.95 3.65 L130.85 3.95 Q130.0 3.95 129.5 3.4 128.95 2.9 128.95 2.0 128.95 1.05 129.5 0.5 130.0 0.0 130.9 0.0 131.65 0.0 132.1 0.4 L132.55 1.1 131.7 1.3 131.4 0.85 130.85 0.65 Q130.4 0.65 130.1 0.95 129.8 1.25 129.8 1.95 129.8 2.7 130.1 2.95 130.4 3.3 130.85 3.3 L131.45 3.1 131.8 2.45 132.55 2.7 M126.7 2.95 L126.75 3.5 126.9 3.9 126.1 3.9 126.05 3.65 126.0 3.55 125.55 3.85 125.1 3.95 124.35 3.7 124.1 3.15 124.2 2.75 124.55 2.4 125.15 2.25 125.9 2.1 125.9 2.0 125.8 1.7 125.4 1.6 125.1 1.65 124.9 1.95 124.2 1.85 124.6 1.25 Q124.9 1.0 125.45 1.0 L126.25 1.15 Q126.5 1.25 126.6 1.45 L126.7 2.15 126.7 2.95 M124.85 3.05 L125.0 3.35 125.3 3.4 125.7 3.3 125.85 3.05 125.9 2.7 125.9 2.55 125.45 2.7 125.0 2.75 124.85 3.05 M123.15 0.0 L123.7 0.0 Q123.3 0.8 123.2 1.35 123.05 1.9 123.05 2.55 L123.1 3.4 123.35 4.25 123.7 5.0 123.15 5.0 122.5 3.75 122.25 2.5 Q122.25 1.75 122.55 1.1 L123.15 0.0 M120.15 1.25 L120.0 1.85 119.65 2.2 119.2 2.4 118.35 2.45 117.8 2.45 117.8 3.9 117.0 3.9 117.0 0.05 118.3 0.05 119.3 0.1 119.9 0.5 120.15 1.25 M119.15 0.9 L118.8 0.75 118.2 0.7 117.8 0.7 117.8 1.8 118.25 1.8 118.95 1.75 119.2 1.55 119.3 1.25 119.15 0.9 M114.7 2.0 Q114.7 2.9 114.15 3.4 113.6 3.95 112.7 3.95 111.8 3.95 111.25 3.4 110.7 2.9 110.7 2.0 L110.9 1.0 111.25 0.5 Q111.5 0.25 111.8 0.15 L112.7 0.0 Q113.6 0.0 114.15 0.5 114.7 1.05 114.7 2.0 M116.2 0.05 L116.2 3.9 115.35 3.9 115.35 0.05 116.2 0.05 M113.5 0.95 Q113.2 0.65 112.7 0.65 112.2 0.65 111.85 0.95 111.55 1.3 111.55 2.0 111.55 2.65 111.9 2.95 112.2 3.3 112.7 3.3 113.2 3.3 113.5 2.95 L113.8 1.95 113.5 0.95 M110.05 0.05 L110.05 3.9 109.2 3.9 109.2 2.2 107.55 2.2 107.55 3.9 106.75 3.9 106.75 0.05 107.55 0.05 107.55 1.55 109.2 1.55 109.2 0.05 110.05 0.05 M102.9 0.7 L102.9 0.05 106.15 0.05 106.15 0.7 104.95 0.7 104.95 3.9 104.15 3.9 104.15 0.7 102.9 0.7 M99.7 0.8 L97.9 0.8 97.9 0.1 100.6 0.1 100.6 0.65 99.95 1.5 99.4 2.75 99.25 3.9 98.45 3.9 98.8 2.25 99.7 0.8 M96.6 2.0 L96.5 1.05 96.35 0.75 96.05 0.65 95.8 0.75 95.65 1.0 95.55 2.0 95.65 2.9 95.8 3.3 96.05 3.35 96.35 3.25 96.5 2.95 96.6 2.0 M97.4 2.0 Q97.4 3.1 97.0 3.55 96.7 3.95 96.05 3.95 95.45 3.95 95.1 3.5 94.7 3.1 94.7 2.0 94.7 0.9 95.15 0.4 95.45 0.05 96.05 0.05 96.7 0.05 97.0 0.4 97.4 0.9 97.4 2.0 M94.2 2.0 Q94.2 3.1 93.8 3.55 93.5 3.95 92.85 3.95 92.25 3.95 91.9 3.5 91.5 3.1 91.5 2.0 91.5 0.9 91.95 0.4 92.25 0.05 92.85 0.05 93.5 0.05 93.8 0.4 94.2 0.9 94.2 2.0 M93.15 0.75 L92.85 0.65 92.6 0.75 92.45 1.0 92.35 2.0 92.45 2.9 92.6 3.3 92.85 3.35 93.15 3.25 93.3 2.95 93.4 2.0 93.3 1.05 93.15 0.75 M91.0 1.1 L90.9 1.55 90.6 2.1 90.05 2.6 89.6 3.0 89.4 3.2 91.0 3.2 91.0 3.9 88.25 3.9 Q88.3 3.5 88.5 3.15 L89.4 2.2 90.05 1.6 90.25 1.15 90.1 0.8 89.7 0.65 Q89.45 0.65 89.3 0.8 L89.1 1.2 88.3 1.15 Q88.4 0.55 88.75 0.25 L89.7 0.05 90.65 0.3 Q91.0 0.65 91.0 1.1 M86.3 3.0 L85.5 3.75 84.4 4.0 83.35 3.75 Q82.8 3.45 82.55 3.0 82.25 2.5 82.25 2.0 82.25 1.5 82.55 0.95 L83.35 0.25 84.4 0.0 85.5 0.25 Q86.0 0.5 86.3 0.95 L86.55 2.0 86.3 3.0 M85.4 1.5 L84.95 1.6 84.7 1.35 84.45 1.25 Q84.15 1.25 84.0 1.45 83.85 1.6 83.85 2.0 L84.0 2.55 Q84.15 2.75 84.4 2.75 L84.7 2.65 84.95 2.3 85.4 2.45 85.05 2.95 84.45 3.1 83.65 2.8 Q83.35 2.55 83.35 2.0 83.35 1.65 83.5 1.4 L83.9 1.0 84.45 0.9 85.0 1.0 85.4 1.5 M85.25 0.6 Q84.85 0.35 84.4 0.35 L83.55 0.6 82.9 1.2 82.7 2.0 82.9 2.75 83.55 3.4 84.4 3.6 85.25 3.4 85.9 2.75 86.15 2.0 85.9 1.2 85.25 0.6 M79.45 1.45 L79.45 0.05 80.25 0.05 80.25 3.9 79.5 3.9 79.5 3.45 79.1 3.85 78.55 3.95 Q78.05 3.95 77.7 3.55 77.3 3.2 77.3 2.5 77.3 1.75 77.7 1.4 78.05 1.0 78.6 1.0 79.1 1.0 79.45 1.45 M78.8 1.6 L78.3 1.8 78.1 2.45 Q78.1 2.9 78.25 3.1 78.45 3.4 78.8 3.4 L79.3 3.15 79.5 2.5 79.3 1.8 78.8 1.6 M76.5 1.35 L76.65 1.65 76.7 2.15 76.7 3.9 75.9 3.9 75.9 2.45 75.85 1.9 75.7 1.65 75.45 1.6 75.05 1.7 74.85 2.0 74.8 2.65 74.8 3.9 74.0 3.9 74.0 1.1 74.75 1.1 74.75 1.5 Q75.15 1.0 75.7 1.0 L76.2 1.1 76.5 1.35 M73.1 1.45 L73.2 2.15 73.2 2.95 73.25 3.5 73.4 3.9 72.6 3.9 72.55 3.65 72.5 3.55 72.05 3.85 71.6 3.95 70.85 3.7 70.6 3.15 70.7 2.75 71.05 2.4 71.65 2.25 72.4 2.1 72.4 2.0 72.3 1.7 71.9 1.6 71.6 1.65 71.4 1.95 70.7 1.85 71.1 1.25 Q71.4 1.0 71.95 1.0 L72.75 1.15 73.1 1.45 M71.5 2.75 L71.35 3.05 71.5 3.35 71.8 3.4 72.2 3.3 72.35 3.05 72.4 2.7 72.4 2.55 71.95 2.7 71.5 2.75 M68.2 0.05 L68.2 2.2 67.75 2.2 67.75 0.5 67.2 2.2 66.8 2.2 66.25 0.5 66.25 2.2 65.8 2.2 65.8 0.05 66.55 0.05 67.0 1.5 67.45 0.05 68.2 0.05 M64.85 0.4 L64.85 2.2 64.4 2.2 64.4 0.4 63.65 0.4 63.65 0.05 65.5 0.05 65.5 0.4 64.85 0.4 M60.9 1.95 L61.65 2.15 62.5 2.45 62.75 3.0 62.4 3.65 61.4 3.95 60.45 3.7 60.0 3.1 60.75 3.0 60.95 3.35 61.4 3.4 61.85 3.35 61.95 3.15 61.9 2.95 61.65 2.85 60.45 2.5 Q60.1 2.3 60.1 1.9 60.1 1.5 60.4 1.3 60.7 1.0 61.35 1.0 L62.25 1.2 62.65 1.8 61.9 1.9 61.7 1.65 61.35 1.55 60.95 1.6 60.85 1.8 60.9 1.95 M58.5 1.65 L58.15 1.55 57.75 1.6 57.65 1.8 57.7 1.95 58.45 2.15 Q59.05 2.25 59.3 2.45 L59.55 3.0 59.2 3.65 58.2 3.95 57.25 3.7 56.8 3.1 57.55 3.0 57.75 3.35 58.2 3.4 58.65 3.35 58.75 3.15 58.7 2.95 58.45 2.85 57.25 2.5 Q56.9 2.3 56.9 1.9 56.9 1.5 57.2 1.3 57.5 1.0 58.15 1.0 L59.05 1.2 59.45 1.8 58.7 1.9 58.5 1.65 M56.25 0.75 L55.45 0.75 55.45 0.05 56.25 0.05 56.25 0.75 M56.25 3.9 L55.45 3.9 55.45 1.1 56.25 1.1 56.25 3.9 M54.7 0.05 L54.7 3.9 53.9 3.9 53.9 0.9 53.05 3.9 52.3 3.9 51.45 0.9 51.4 3.9 50.65 3.9 50.65 0.05 51.9 0.05 52.65 2.7 53.4 0.05 54.7 0.05 M47.05 1.6 Q46.75 1.6 46.6 1.75 46.45 1.95 46.45 2.2 L47.65 2.2 47.45 1.75 47.05 1.6 M47.0 1.0 Q47.65 1.0 48.05 1.45 48.45 1.85 48.4 2.7 L46.4 2.7 46.6 3.2 47.05 3.4 47.35 3.3 47.55 3.0 48.35 3.15 47.9 3.75 47.05 3.95 Q46.3 3.95 45.9 3.45 45.65 3.1 45.65 2.5 45.65 1.8 46.0 1.45 46.4 1.0 47.0 1.0 M43.7 1.1 L43.7 1.65 43.15 1.65 43.15 2.8 43.2 3.2 43.25 3.35 43.4 3.35 43.7 3.3 43.75 3.85 43.15 3.95 42.75 3.9 42.5 3.7 42.4 3.4 42.35 2.85 42.35 1.65 42.0 1.65 42.0 1.1 42.35 1.1 42.35 0.55 43.15 0.15 43.15 1.1 43.7 1.1 M45.05 0.05 L45.05 3.9 44.25 3.9 44.25 0.05 45.05 0.05 M41.25 1.1 L41.8 1.1 41.8 1.65 41.25 1.65 41.25 2.8 41.3 3.2 41.35 3.35 41.5 3.35 41.8 3.3 41.85 3.85 41.25 3.95 40.85 3.9 40.6 3.7 40.5 3.4 40.45 2.85 40.45 1.65 40.1 1.65 40.1 1.1 40.45 1.1 40.45 0.55 41.25 0.15 41.25 1.1 M39.6 0.75 L38.8 0.75 38.8 0.05 39.6 0.05 39.6 0.75 M39.6 1.1 L39.6 3.9 38.8 3.9 38.8 1.1 39.6 1.1 M38.2 3.9 L35.3 3.9 35.3 0.1 36.1 0.1 36.1 3.25 38.2 3.25 38.2 3.9 M30.7 2.45 Q30.7 2.9 30.85 3.1 31.05 3.4 31.4 3.4 L31.9 3.15 32.1 2.5 31.9 1.8 31.4 1.6 30.9 1.8 30.7 2.45 M32.85 0.05 L32.85 3.9 32.1 3.9 32.1 3.45 31.7 3.85 31.15 3.95 Q30.65 3.95 30.3 3.55 29.9 3.2 29.9 2.5 29.9 1.75 30.3 1.4 30.65 1.0 31.2 1.0 31.7 1.0 32.05 1.45 L32.05 0.05 32.85 0.05 M28.3 1.65 L28.05 1.6 27.65 1.7 27.45 2.0 27.4 2.65 27.4 3.9 26.6 3.9 26.6 1.1 27.35 1.1 27.35 1.5 Q27.75 1.0 28.3 1.0 L28.8 1.1 29.1 1.35 29.25 1.65 29.3 2.15 29.3 3.9 28.5 3.9 28.5 2.45 28.45 1.9 28.3 1.65 M25.8 2.95 L25.85 3.5 26.0 3.9 25.2 3.9 25.15 3.65 25.1 3.55 24.65 3.85 24.2 3.95 23.45 3.7 23.2 3.15 23.3 2.75 23.65 2.4 24.25 2.25 25.0 2.1 25.0 2.0 24.9 1.7 24.5 1.6 24.2 1.65 24.0 1.95 23.3 1.85 23.7 1.25 24.55 1.0 25.35 1.15 25.7 1.45 25.8 2.15 25.8 2.95 M24.1 2.75 L23.95 3.05 24.1 3.35 24.4 3.4 24.8 3.3 24.95 3.05 25.0 2.7 25.0 2.55 24.55 2.7 24.1 2.75 M20.95 2.15 L20.95 3.9 20.15 3.9 20.15 2.45 20.1 1.9 19.95 1.65 19.7 1.6 19.3 1.7 19.1 2.0 19.05 2.65 19.05 3.9 18.25 3.9 18.25 1.1 19.0 1.1 19.0 1.5 Q19.4 1.0 19.95 1.0 L20.45 1.1 20.75 1.35 20.9 1.65 20.95 2.15 M16.2 1.0 Q16.85 1.0 17.25 1.45 17.65 1.85 17.6 2.7 L15.6 2.7 15.8 3.2 16.25 3.4 16.55 3.3 16.75 3.0 17.55 3.15 17.1 3.75 16.25 3.95 Q15.5 3.95 15.1 3.45 14.85 3.1 14.85 2.5 14.85 1.8 15.2 1.45 15.6 1.0 16.2 1.0 M15.8 1.75 L15.65 2.2 16.85 2.2 16.65 1.75 Q16.5 1.6 16.25 1.6 15.95 1.6 15.8 1.75 M14.3 0.05 L14.3 3.9 13.5 3.9 13.5 0.9 12.65 3.9 11.9 3.9 11.05 0.9 11.0 3.9 10.25 3.9 10.25 0.05 11.5 0.05 12.25 2.7 13.0 0.05 14.3 0.05 M5.55 1.5 L5.9 1.1 6.2 1.0 6.7 1.15 6.5 1.8 6.1 1.7 5.85 1.8 5.65 2.1 5.6 3.0 5.6 3.9 4.8 3.9 4.8 1.1 5.55 1.1 5.55 1.5 M7.05 3.15 L7.85 3.15 7.85 3.9 7.05 3.9 7.05 3.15 M4.05 0.05 L4.05 3.9 3.25 3.9 3.25 0.9 2.4 3.9 1.65 3.9 0.8 0.9 0.75 3.9 0.0 3.9 0.0 0.05 1.25 0.05 2.0 2.7 2.75 0.05 4.05 0.05" fill="#000000" fill-rule="evenodd" stroke="none"/>
  </g>
</svg>
