<?xml version="1.0" encoding="UTF-8" standalone="no"?>
<svg xmlns:xlink="http://www.w3.org/1999/xlink" height="80.55px" width="179.3px" xmlns="http://www.w3.org/2000/svg">
  <g transform="matrix(1.0, 0.0, 0.0, 1.0, 9.5, 9.5)">
    <path d="M142.45 4.9 L139.45 28.35 139.45 29.45 Q139.55 31.05 141.2 30.9 L142.2 30.55 143.5 30.0 144.25 30.3 144.6 30.9 Q144.75 32.5 142.1 34.75 139.3 37.25 135.7 37.6 133.35 37.8 131.8 36.55 130.2 35.35 130.05 33.35 L130.0 31.9 133.15 8.55 133.3 6.95 Q133.15 5.6 131.75 5.3 133.3 3.6 135.1 2.5 137.1 1.55 138.75 1.4 140.35 1.25 141.3 1.95 142.25 2.55 142.4 3.9 L142.45 4.9 M154.45 0.0 Q156.05 -0.1 156.95 0.6 157.9 1.15 158.05 2.5 L158.1 3.5 155.15 26.95 155.1 28.05 Q155.2 29.65 156.9 29.55 L157.9 29.2 Q159.0 28.65 159.2 28.6 L159.9 28.9 160.3 29.55 Q160.45 31.15 157.8 33.4 155.0 35.9 151.4 36.2 149.05 36.4 147.5 35.2 145.9 33.95 145.75 31.95 L145.7 30.5 148.85 7.15 148.95 5.6 Q148.8 4.25 147.4 3.9 149.0 2.2 150.8 1.15 152.8 0.15 154.45 0.0 M125.1 19.4 L123.75 28.9 123.6 31.0 Q123.65 31.55 124.15 31.95 L125.4 32.3 126.5 31.95 Q127.35 31.4 127.8 31.35 128.15 31.35 128.45 31.65 L128.8 32.3 Q128.9 33.55 127.25 35.15 123.95 38.6 119.8 38.95 117.9 39.15 116.45 37.9 115.1 36.75 114.9 34.75 L114.9 33.5 111.95 37.4 Q109.8 39.85 107.15 40.1 104.45 40.3 102.55 38.0 101.1 36.2 100.85 33.15 100.6 30.35 101.5 27.35 102.35 24.45 104.2 22.05 105.7 19.85 107.75 18.55 109.75 17.4 111.9 17.2 115.15 16.9 117.55 19.25 L120.35 17.1 Q121.35 16.55 122.5 16.45 L123.85 16.6 Q125.0 17.05 125.1 18.3 L125.1 19.4 M111.75 24.55 Q110.95 25.75 111.05 27.0 111.25 29.1 113.15 28.9 114.4 28.8 115.15 27.4 115.85 25.95 115.75 24.65 115.6 23.05 113.8 23.1 112.55 23.25 111.75 24.55 M85.1 21.65 Q88.05 19.3 90.7 19.05 93.95 18.75 96.05 20.6 98.0 22.6 98.3 25.6 98.65 29.55 96.75 33.55 94.6 37.8 90.8 40.05 87.85 41.75 84.6 42.05 79.8 42.45 77.05 39.65 75.2 37.8 74.95 35.0 L75.0 31.6 77.3 13.65 77.35 12.2 Q77.3 11.4 76.9 11.0 76.65 10.45 75.75 10.3 77.3 8.6 79.3 7.5 81.25 6.4 82.95 6.25 84.3 6.15 85.35 6.75 86.4 7.45 86.5 8.6 L86.4 9.7 85.1 21.65 M86.85 25.25 Q85.5 25.35 84.75 26.9 84.05 28.2 84.15 29.55 84.25 30.35 84.75 30.85 85.4 31.35 86.15 31.3 87.4 31.2 88.3 30.0 89.1 28.65 88.95 27.3 88.8 25.2 86.85 25.25 M67.95 22.3 Q69.5 23.35 69.7 25.25 L69.65 26.9 68.55 34.0 68.45 35.55 Q68.6 37.0 70.25 36.85 L71.25 36.65 72.7 36.2 Q73.0 36.15 73.3 36.5 L73.7 37.1 Q73.85 38.7 71.15 40.75 68.35 43.2 64.75 43.55 62.4 43.75 60.95 42.65 59.45 41.55 59.3 39.55 59.25 38.85 59.35 38.25 L60.05 32.35 60.05 31.1 Q60.0 30.45 59.55 30.15 59.15 29.7 58.45 29.8 56.1 30.0 55.65 33.4 L54.7 40.3 Q54.45 41.95 53.4 43.05 52.5 44.2 51.05 44.35 L48.7 44.55 Q46.45 44.75 45.1 46.15 L47.25 29.85 47.45 27.8 Q47.35 26.55 45.9 26.0 49.8 22.6 53.15 22.35 56.3 22.05 56.8 25.05 60.35 21.7 64.25 21.35 66.5 21.15 67.95 22.3 M41.7 43.45 Q38.55 46.1 35.3 46.35 33.05 46.55 31.5 45.35 29.95 44.2 29.75 42.3 L29.7 40.65 30.9 31.4 31.0 29.55 Q30.9 28.35 29.6 27.75 33.2 24.1 36.8 23.75 38.15 23.65 39.1 24.2 40.1 24.95 40.2 26.3 L40.2 27.3 38.9 36.4 Q38.8 37.25 38.85 38.05 39.0 39.85 40.7 39.7 L41.8 39.35 Q42.75 38.8 43.1 38.8 43.45 38.75 43.7 39.1 L44.1 39.6 Q44.25 41.4 41.7 43.45 M40.25 14.0 Q41.45 14.9 41.6 16.55 41.8 18.5 40.0 20.1 38.1 21.85 35.65 22.05 33.85 22.2 32.65 21.3 31.55 20.4 31.4 18.6 31.25 16.7 32.85 14.95 34.55 13.35 36.9 13.1 38.95 12.95 40.25 14.0 M13.05 22.65 Q13.95 23.3 14.05 24.5 L13.95 25.75 13.7 27.8 Q16.4 25.55 19.1 25.3 22.6 25.0 24.6 27.55 26.1 29.45 26.35 32.25 26.6 35.15 25.9 38.35 25.05 41.5 23.45 44.05 22.35 45.7 20.65 46.75 18.8 47.8 16.9 47.95 L13.85 47.6 Q12.55 47.1 11.15 45.65 L9.95 54.9 Q9.6 57.1 8.65 58.05 7.7 59.15 5.95 59.3 L3.55 59.5 Q2.45 59.6 1.85 60.05 1.15 60.45 0.0 61.55 L4.55 29.5 4.65 27.85 Q4.6 26.8 3.25 26.0 7.1 22.55 10.55 22.25 12.15 22.1 13.05 22.65 M12.35 35.65 Q12.45 36.55 12.95 37.15 13.55 37.65 14.45 37.55 15.55 37.45 16.35 36.2 17.15 34.95 17.0 33.4 16.85 31.5 15.0 31.5 13.9 31.6 13.1 32.85 12.3 34.15 12.35 35.65" fill="#ffea00" fill-rule="evenodd" stroke="none"/>
    <path d="M142.45 4.9 L139.45 28.35 139.45 29.45 Q139.55 31.05 141.2 30.9 L142.2 30.55 143.5 30.0 144.25 30.3 144.6 30.9 Q144.75 32.5 142.1 34.75 139.3 37.25 135.7 37.6 133.35 37.8 131.8 36.55 130.2 35.35 130.05 33.35 L130.0 31.9 133.15 8.55 133.3 6.95 Q133.15 5.6 131.75 5.3 133.3 3.6 135.1 2.5 137.1 1.55 138.75 1.4 140.35 1.25 141.3 1.95 142.25 2.55 142.4 3.9 L142.45 4.9 M154.45 0.0 Q156.05 -0.1 156.95 0.6 157.9 1.15 158.05 2.5 L158.1 3.5 155.15 26.95 155.1 28.05 Q155.2 29.65 156.9 29.55 L157.9 29.2 Q159.0 28.65 159.2 28.6 L159.9 28.9 160.3 29.55 Q160.45 31.15 157.8 33.4 155.0 35.9 151.4 36.2 149.05 36.4 147.5 35.2 145.9 33.95 145.75 31.95 L145.7 30.5 148.85 7.15 148.95 5.6 Q148.8 4.25 147.4 3.9 149.0 2.2 150.8 1.15 152.8 0.15 154.45 0.0 M125.1 19.4 L123.75 28.9 123.6 31.0 Q123.65 31.55 124.15 31.95 L125.4 32.3 126.5 31.95 Q127.35 31.4 127.8 31.35 128.15 31.35 128.45 31.65 L128.8 32.3 Q128.9 33.55 127.25 35.15 123.95 38.6 119.8 38.95 117.9 39.15 116.45 37.9 115.1 36.75 114.9 34.75 L114.9 33.5 111.95 37.4 Q109.8 39.85 107.15 40.1 104.45 40.3 102.55 38.0 101.1 36.2 100.85 33.15 100.6 30.35 101.5 27.35 102.35 24.45 104.2 22.05 105.7 19.85 107.75 18.55 109.75 17.4 111.9 17.2 115.15 16.9 117.55 19.25 L120.35 17.1 Q121.35 16.55 122.5 16.45 L123.85 16.6 Q125.0 17.05 125.1 18.3 L125.1 19.4 M111.75 24.55 Q110.95 25.75 111.05 27.0 111.25 29.1 113.15 28.9 114.4 28.8 115.15 27.4 115.85 25.95 115.75 24.65 115.6 23.05 113.8 23.1 112.55 23.25 111.75 24.55 M85.1 21.65 Q88.05 19.3 90.7 19.05 93.95 18.75 96.05 20.6 98.0 22.6 98.3 25.6 98.65 29.55 96.75 33.55 94.6 37.8 90.8 40.05 87.85 41.75 84.6 42.05 79.8 42.45 77.05 39.65 75.2 37.8 74.95 35.0 L75.0 31.6 77.3 13.65 77.35 12.2 Q77.3 11.4 76.9 11.0 76.65 10.45 75.75 10.3 77.3 8.6 79.3 7.5 81.25 6.4 82.95 6.25 84.3 6.15 85.35 6.75 86.4 7.45 86.5 8.6 L86.4 9.7 85.1 21.65 M86.85 25.25 Q85.5 25.35 84.75 26.9 84.05 28.2 84.15 29.55 84.25 30.35 84.75 30.85 85.4 31.35 86.15 31.3 87.4 31.2 88.3 30.0 89.1 28.65 88.95 27.3 88.8 25.2 86.85 25.25 M67.95 22.3 Q69.5 23.35 69.7 25.25 L69.65 26.9 68.55 34.0 68.45 35.55 Q68.6 37.0 70.25 36.85 L71.25 36.65 72.7 36.2 Q73.0 36.15 73.3 36.5 L73.7 37.1 Q73.85 38.7 71.15 40.75 68.35 43.2 64.75 43.55 62.4 43.75 60.95 42.65 59.45 41.55 59.3 39.55 59.25 38.85 59.35 38.25 L60.05 32.35 60.05 31.1 Q60.0 30.45 59.55 30.15 59.15 29.7 58.45 29.8 56.1 30.0 55.65 33.4 L54.7 40.3 Q54.45 41.95 53.4 43.05 52.5 44.2 51.05 44.35 L48.7 44.55 Q46.45 44.75 45.1 46.15 L47.25 29.85 47.45 27.8 Q47.35 26.55 45.9 26.0 49.8 22.6 53.15 22.35 56.3 22.05 56.8 25.05 60.35 21.7 64.25 21.35 66.5 21.15 67.95 22.3 M41.7 43.45 Q38.55 46.1 35.3 46.35 33.05 46.55 31.5 45.35 29.95 44.2 29.75 42.3 L29.7 40.65 30.9 31.4 31.0 29.55 Q30.9 28.35 29.6 27.75 33.2 24.1 36.8 23.75 38.15 23.65 39.1 24.2 40.1 24.95 40.2 26.3 L40.2 27.3 38.9 36.4 Q38.8 37.25 38.85 38.05 39.0 39.85 40.7 39.7 L41.8 39.35 Q42.75 38.8 43.1 38.8 43.45 38.75 43.7 39.1 L44.1 39.6 Q44.25 41.4 41.7 43.45 M40.25 14.0 Q41.45 14.9 41.6 16.55 41.8 18.5 40.0 20.1 38.1 21.85 35.65 22.05 33.85 22.2 32.65 21.3 31.55 20.4 31.4 18.6 31.25 16.7 32.85 14.95 34.55 13.35 36.9 13.1 38.95 12.95 40.25 14.0 M13.05 22.65 Q13.95 23.3 14.05 24.5 L13.95 25.75 13.7 27.8 Q16.4 25.55 19.1 25.3 22.6 25.0 24.6 27.55 26.1 29.45 26.35 32.25 26.6 35.15 25.9 38.35 25.05 41.5 23.45 44.05 22.35 45.7 20.65 46.75 18.8 47.8 16.9 47.95 L13.85 47.6 Q12.55 47.1 11.15 45.65 L9.95 54.9 Q9.6 57.1 8.65 58.05 7.7 59.15 5.95 59.3 L3.55 59.5 Q2.45 59.6 1.85 60.05 1.15 60.45 0.0 61.55 L4.55 29.5 4.65 27.85 Q4.6 26.8 3.25 26.0 7.1 22.55 10.55 22.25 12.15 22.1 13.05 22.65 M12.35 35.65 Q12.45 36.55 12.95 37.15 13.55 37.65 14.45 37.55 15.55 37.45 16.35 36.2 17.15 34.95 17.0 33.4 16.85 31.5 15.0 31.5 13.9 31.6 13.1 32.85 12.3 34.15 12.35 35.65" fill="none" stroke="#000000" stroke-linecap="round" stroke-linejoin="round" stroke-width="19.0"/>
    <path d="M142.45 4.9 L139.45 28.35 139.45 29.45 Q139.55 31.05 141.2 30.9 L142.2 30.55 143.5 30.0 144.25 30.3 144.6 30.9 Q144.75 32.5 142.1 34.75 139.3 37.25 135.7 37.6 133.35 37.8 131.8 36.55 130.2 35.35 130.05 33.35 L130.0 31.9 133.15 8.55 133.3 6.95 Q133.15 5.6 131.75 5.3 133.3 3.6 135.1 2.5 137.1 1.55 138.75 1.4 140.35 1.25 141.3 1.95 142.25 2.55 142.4 3.9 L142.45 4.9 M154.45 0.0 Q156.05 -0.1 156.95 0.6 157.9 1.15 158.05 2.5 L158.1 3.5 155.15 26.95 155.1 28.05 Q155.2 29.65 156.9 29.55 L157.9 29.2 Q159.0 28.65 159.2 28.6 L159.9 28.9 160.3 29.55 Q160.45 31.15 157.8 33.4 155.0 35.9 151.4 36.2 149.05 36.4 147.5 35.2 145.9 33.95 145.75 31.95 L145.7 30.5 148.85 7.15 148.95 5.6 Q148.8 4.25 147.4 3.9 149.0 2.2 150.8 1.15 152.8 0.15 154.45 0.0 M125.1 19.4 L123.75 28.9 123.6 31.0 Q123.65 31.55 124.15 31.95 L125.4 32.3 126.5 31.95 Q127.35 31.4 127.8 31.35 128.15 31.35 128.45 31.65 L128.8 32.3 Q128.9 33.55 127.25 35.15 123.95 38.6 119.8 38.95 117.9 39.15 116.45 37.9 115.1 36.75 114.9 34.75 L114.9 33.5 111.95 37.4 Q109.8 39.85 107.15 40.1 104.45 40.3 102.55 38.0 101.1 36.2 100.85 33.15 100.6 30.35 101.5 27.35 102.35 24.45 104.2 22.05 105.7 19.85 107.75 18.55 109.75 17.4 111.9 17.2 115.15 16.9 117.55 19.25 L120.35 17.1 Q121.35 16.55 122.5 16.45 L123.85 16.6 Q125.0 17.05 125.1 18.3 L125.1 19.4 M111.75 24.55 Q110.95 25.75 111.05 27.0 111.25 29.1 113.15 28.9 114.4 28.8 115.15 27.4 115.85 25.95 115.75 24.65 115.6 23.05 113.8 23.1 112.55 23.25 111.75 24.55 M85.1 21.65 Q88.05 19.3 90.7 19.05 93.95 18.75 96.05 20.6 98.0 22.6 98.3 25.6 98.65 29.55 96.75 33.55 94.6 37.8 90.8 40.05 87.85 41.75 84.6 42.05 79.8 42.45 77.05 39.65 75.2 37.8 74.95 35.0 L75.0 31.6 77.3 13.65 77.35 12.2 Q77.3 11.4 76.9 11.0 76.65 10.45 75.75 10.3 77.3 8.6 79.3 7.5 81.25 6.4 82.95 6.25 84.3 6.15 85.35 6.75 86.4 7.45 86.5 8.6 L86.4 9.7 85.1 21.65 M84.15 29.55 Q84.25 30.35 84.75 30.85 85.4 31.35 86.15 31.3 87.4 31.2 88.3 30.0 89.1 28.65 88.95 27.3 88.8 25.2 86.85 25.25 85.5 25.35 84.75 26.9 84.05 28.2 84.15 29.55 M67.95 22.3 Q69.5 23.35 69.7 25.25 L69.65 26.9 68.55 34.0 68.45 35.55 Q68.6 37.0 70.25 36.85 L71.25 36.65 72.7 36.2 Q73.0 36.15 73.3 36.5 L73.7 37.1 Q73.85 38.7 71.15 40.75 68.35 43.2 64.75 43.55 62.4 43.75 60.95 42.65 59.45 41.55 59.3 39.55 59.25 38.85 59.35 38.25 L60.05 32.35 60.05 31.1 Q60.0 30.45 59.55 30.15 59.15 29.7 58.45 29.8 56.1 30.0 55.65 33.4 L54.7 40.3 Q54.45 41.95 53.4 43.05 52.5 44.2 51.05 44.35 L48.7 44.55 Q46.45 44.75 45.1 46.15 L47.25 29.85 47.45 27.8 Q47.35 26.55 45.9 26.0 49.8 22.6 53.15 22.35 56.3 22.05 56.8 25.05 60.35 21.7 64.25 21.35 66.5 21.15 67.95 22.3 M41.7 43.45 Q38.55 46.1 35.3 46.35 33.05 46.55 31.5 45.35 29.95 44.2 29.75 42.3 L29.7 40.65 30.9 31.4 31.0 29.55 Q30.9 28.35 29.6 27.75 33.2 24.1 36.8 23.75 38.15 23.65 39.1 24.2 40.1 24.95 40.2 26.3 L40.2 27.3 38.9 36.4 Q38.8 37.25 38.85 38.05 39.0 39.85 40.7 39.7 L41.8 39.35 Q42.75 38.8 43.1 38.8 43.45 38.75 43.7 39.1 L44.1 39.6 Q44.25 41.4 41.7 43.45 M36.9 13.1 Q38.95 12.95 40.25 14.0 41.45 14.9 41.6 16.55 41.8 18.5 40.0 20.1 38.1 21.85 35.65 22.05 33.85 22.2 32.65 21.3 31.55 20.4 31.4 18.6 31.25 16.7 32.85 14.95 34.55 13.35 36.9 13.1 M14.05 24.5 L13.95 25.75 13.7 27.8 Q16.4 25.55 19.1 25.3 22.6 25.0 24.6 27.55 26.1 29.45 26.35 32.25 26.6 35.15 25.9 38.35 25.05 41.5 23.45 44.05 22.35 45.7 20.65 46.75 18.8 47.8 16.9 47.95 L13.85 47.6 Q12.55 47.1 11.15 45.65 L9.95 54.9 Q9.6 57.1 8.65 58.05 7.7 59.15 5.95 59.3 L3.55 59.5 Q2.45 59.6 1.85 60.05 1.15 60.45 0.0 61.55 L4.55 29.5 4.65 27.85 Q4.6 26.8 3.25 26.0 7.1 22.55 10.55 22.25 12.15 22.1 13.05 22.65 13.95 23.3 14.05 24.5 M12.35 35.65 Q12.45 36.55 12.95 37.15 13.55 37.65 14.45 37.55 15.55 37.45 16.35 36.2 17.15 34.95 17.0 33.4 16.85 31.5 15.0 31.5 13.9 31.6 13.1 32.85 12.3 34.15 12.35 35.65" fill="#ffffff" fill-rule="evenodd" stroke="none"/>
    <path d="M142.45 4.9 L139.45 28.35 139.45 29.45 Q139.55 31.05 141.2 30.9 L142.2 30.55 143.5 30.0 144.25 30.3 144.6 30.9 Q144.75 32.5 142.1 34.75 139.3 37.25 135.7 37.6 133.35 37.8 131.8 36.55 130.2 35.35 130.05 33.35 L130.0 31.9 133.15 8.55 133.3 6.95 Q133.15 5.6 131.75 5.3 133.3 3.6 135.1 2.5 137.1 1.55 138.75 1.4 140.35 1.25 141.3 1.95 142.25 2.55 142.4 3.9 L142.45 4.9 M154.45 0.0 Q156.05 -0.1 156.95 0.6 157.9 1.15 158.05 2.5 L158.1 3.5 155.15 26.95 155.1 28.05 Q155.2 29.65 156.9 29.55 L157.9 29.2 Q159.0 28.65 159.2 28.6 L159.9 28.9 160.3 29.55 Q160.45 31.15 157.8 33.4 155.0 35.9 151.4 36.2 149.05 36.4 147.5 35.2 145.9 33.95 145.75 31.95 L145.7 30.5 148.85 7.15 148.95 5.6 Q148.8 4.25 147.4 3.9 149.0 2.2 150.8 1.15 152.8 0.15 154.45 0.0 M125.1 19.4 L123.75 28.9 123.6 31.0 Q123.65 31.55 124.15 31.95 L125.4 32.3 126.5 31.95 Q127.35 31.4 127.8 31.35 128.15 31.35 128.45 31.65 L128.8 32.3 Q128.9 33.55 127.25 35.15 123.95 38.6 119.8 38.95 117.9 39.15 116.45 37.9 115.1 36.75 114.9 34.75 L114.9 33.5 111.95 37.4 Q109.8 39.85 107.15 40.1 104.45 40.3 102.55 38.0 101.1 36.2 100.85 33.15 100.6 30.35 101.5 27.35 102.35 24.45 104.2 22.05 105.7 19.85 107.75 18.55 109.75 17.4 111.9 17.2 115.15 16.9 117.55 19.25 L120.35 17.1 Q121.35 16.55 122.5 16.45 L123.85 16.6 Q125.0 17.05 125.1 18.3 L125.1 19.4 M85.1 21.65 Q88.05 19.3 90.7 19.05 93.95 18.75 96.05 20.6 98.0 22.6 98.3 25.6 98.65 29.55 96.75 33.55 94.6 37.8 90.8 40.05 87.85 41.75 84.6 42.05 79.8 42.45 77.05 39.65 75.2 37.8 74.95 35.0 L75.0 31.6 77.3 13.65 77.35 12.2 Q77.3 11.4 76.9 11.0 76.65 10.45 75.75 10.3 77.3 8.6 79.3 7.5 81.25 6.4 82.95 6.25 84.3 6.15 85.35 6.75 86.4 7.45 86.5 8.6 L86.4 9.7 85.1 21.65 M67.95 22.3 Q69.5 23.35 69.7 25.25 L69.65 26.9 68.55 34.0 68.45 35.55 Q68.6 37.0 70.25 36.85 L71.25 36.65 72.7 36.2 Q73.0 36.15 73.3 36.5 L73.7 37.1 Q73.85 38.7 71.15 40.75 68.35 43.2 64.75 43.55 62.4 43.75 60.95 42.65 59.45 41.55 59.3 39.55 59.25 38.85 59.35 38.25 L60.05 32.35 60.05 31.1 Q60.0 30.45 59.55 30.15 59.15 29.7 58.45 29.8 56.1 30.0 55.65 33.4 L54.7 40.3 Q54.45 41.95 53.4 43.05 52.5 44.2 51.05 44.35 L48.7 44.55 Q46.45 44.75 45.1 46.15 L47.25 29.85 47.45 27.8 Q47.35 26.55 45.9 26.0 49.8 22.6 53.15 22.35 56.3 22.05 56.8 25.05 60.35 21.7 64.25 21.35 66.5 21.15 67.95 22.3 M41.7 43.45 Q38.55 46.1 35.3 46.35 33.05 46.55 31.5 45.35 29.95 44.2 29.75 42.3 L29.7 40.65 30.9 31.4 31.0 29.55 Q30.9 28.35 29.6 27.75 33.2 24.1 36.8 23.75 38.15 23.65 39.1 24.2 40.1 24.95 40.2 26.3 L40.2 27.3 38.9 36.4 Q38.8 37.25 38.85 38.05 39.0 39.85 40.7 39.7 L41.8 39.35 Q42.75 38.8 43.1 38.8 43.45 38.75 43.7 39.1 L44.1 39.6 Q44.25 41.4 41.7 43.45 M36.9 13.1 Q38.95 12.95 40.25 14.0 41.45 14.9 41.6 16.55 41.8 18.5 40.0 20.1 38.1 21.85 35.65 22.05 33.85 22.2 32.65 21.3 31.55 20.4 31.4 18.6 31.25 16.7 32.85 14.95 34.55 13.35 36.9 13.1 M14.05 24.5 L13.95 25.75 13.7 27.8 Q16.4 25.55 19.1 25.3 22.6 25.0 24.6 27.55 26.1 29.45 26.35 32.25 26.6 35.15 25.9 38.35 25.05 41.5 23.45 44.05 22.35 45.7 20.65 46.75 18.8 47.8 16.9 47.95 L13.85 47.6 Q12.55 47.1 11.15 45.65 L9.95 54.9 Q9.6 57.1 8.65 58.05 7.7 59.15 5.95 59.3 L3.55 59.5 Q2.45 59.6 1.85 60.05 1.15 60.45 0.0 61.55 L4.55 29.5 4.65 27.85 Q4.6 26.8 3.25 26.0 7.1 22.55 10.55 22.25 12.15 22.1 13.05 22.65 13.95 23.3 14.05 24.5" fill="none" stroke="#ffffff" stroke-linecap="round" stroke-linejoin="round" stroke-width="15.0"/>
    <path d="M142.45 4.9 L139.45 28.35 139.45 29.45 Q139.55 31.05 141.2 30.9 L142.2 30.55 143.5 30.0 144.25 30.3 144.6 30.9 Q144.75 32.5 142.1 34.75 139.3 37.25 135.7 37.6 133.35 37.8 131.8 36.55 130.2 35.35 130.05 33.35 L130.0 31.9 133.15 8.55 133.3 6.95 Q133.15 5.6 131.75 5.3 133.3 3.6 135.1 2.5 137.1 1.55 138.75 1.4 140.35 1.25 141.3 1.95 142.25 2.55 142.4 3.9 L142.45 4.9 M154.45 0.0 Q156.05 -0.1 156.95 0.6 157.9 1.15 158.05 2.5 L158.1 3.5 155.15 26.95 155.1 28.05 Q155.2 29.65 156.9 29.55 L157.9 29.2 Q159.0 28.65 159.2 28.6 L159.9 28.9 160.3 29.55 Q160.45 31.15 157.8 33.4 155.0 35.9 151.4 36.2 149.05 36.4 147.5 35.2 145.9 33.95 145.75 31.95 L145.7 30.5 148.85 7.15 148.95 5.6 Q148.8 4.25 147.4 3.9 149.0 2.2 150.8 1.15 152.8 0.15 154.45 0.0 M125.1 19.4 L123.75 28.9 123.6 31.0 Q123.65 31.55 124.15 31.95 L125.4 32.3 126.5 31.95 Q127.35 31.4 127.8 31.35 128.15 31.35 128.45 31.65 L128.8 32.3 Q128.9 33.55 127.25 35.15 123.95 38.6 119.8 38.95 117.9 39.15 116.45 37.9 115.1 36.75 114.9 34.75 L114.9 33.5 111.95 37.4 Q109.8 39.85 107.15 40.1 104.45 40.3 102.55 38.0 101.1 36.2 100.85 33.15 100.6 30.35 101.5 27.35 102.35 24.45 104.2 22.05 105.7 19.85 107.75 18.55 109.75 17.4 111.9 17.2 115.15 16.9 117.55 19.25 L120.35 17.1 Q121.35 16.55 122.5 16.45 L123.85 16.6 Q125.0 17.05 125.1 18.3 L125.1 19.4 M111.75 24.55 Q110.95 25.75 111.05 27.0 111.25 29.1 113.15 28.9 114.4 28.8 115.15 27.4 115.85 25.95 115.75 24.65 115.6 23.05 113.8 23.1 112.55 23.25 111.75 24.55 M85.1 21.65 Q88.05 19.3 90.7 19.05 93.95 18.75 96.05 20.6 98.0 22.6 98.3 25.6 98.65 29.55 96.75 33.55 94.6 37.8 90.8 40.05 87.85 41.75 84.6 42.05 79.8 42.45 77.05 39.65 75.2 37.8 74.95 35.0 L75.0 31.6 77.3 13.65 77.35 12.2 Q77.3 11.4 76.9 11.0 76.65 10.45 75.75 10.3 77.3 8.6 79.3 7.5 81.25 6.4 82.95 6.25 84.3 6.15 85.35 6.75 86.4 7.45 86.5 8.6 L86.4 9.7 85.1 21.65 M86.85 25.25 Q85.5 25.35 84.75 26.9 84.05 28.2 84.15 29.55 84.25 30.35 84.75 30.85 85.4 31.35 86.15 31.3 87.4 31.2 88.3 30.0 89.1 28.65 88.95 27.3 88.8 25.2 86.85 25.25 M67.95 22.3 Q69.5 23.35 69.7 25.25 L69.65 26.9 68.55 34.0 68.45 35.55 Q68.6 37.0 70.25 36.85 L71.25 36.65 72.7 36.2 Q73.0 36.15 73.3 36.5 L73.7 37.1 Q73.85 38.7 71.15 40.75 68.35 43.2 64.75 43.55 62.4 43.75 60.95 42.65 59.45 41.55 59.3 39.55 59.25 38.85 59.35 38.25 L60.05 32.35 60.05 31.1 Q60.0 30.45 59.55 30.15 59.15 29.7 58.45 29.8 56.1 30.0 55.65 33.4 L54.7 40.3 Q54.45 41.95 53.4 43.05 52.5 44.2 51.05 44.35 L48.7 44.55 Q46.45 44.75 45.1 46.15 L47.25 29.85 47.45 27.8 Q47.35 26.55 45.9 26.0 49.8 22.6 53.15 22.35 56.3 22.05 56.8 25.05 60.35 21.7 64.25 21.35 66.5 21.15 67.95 22.3 M41.7 43.45 Q38.55 46.1 35.3 46.35 33.05 46.55 31.5 45.35 29.95 44.2 29.75 42.3 L29.7 40.65 30.9 31.4 31.0 29.55 Q30.9 28.35 29.6 27.75 33.2 24.1 36.8 23.75 38.15 23.65 39.1 24.2 40.1 24.95 40.2 26.3 L40.2 27.3 38.9 36.4 Q38.8 37.25 38.85 38.05 39.0 39.85 40.7 39.7 L41.8 39.35 Q42.75 38.8 43.1 38.8 43.45 38.75 43.7 39.1 L44.1 39.6 Q44.25 41.4 41.7 43.45 M40.25 14.0 Q41.45 14.9 41.6 16.55 41.8 18.5 40.0 20.1 38.1 21.85 35.65 22.05 33.85 22.2 32.65 21.3 31.55 20.4 31.4 18.6 31.25 16.7 32.85 14.95 34.55 13.35 36.9 13.1 38.95 12.95 40.25 14.0 M13.05 22.65 Q13.95 23.3 14.05 24.5 L13.95 25.75 13.7 27.8 Q16.4 25.55 19.1 25.3 22.6 25.0 24.6 27.55 26.1 29.45 26.35 32.25 26.6 35.15 25.9 38.35 25.05 41.5 23.45 44.05 22.35 45.7 20.65 46.75 18.8 47.8 16.9 47.95 L13.85 47.6 Q12.55 47.1 11.15 45.65 L9.95 54.9 Q9.6 57.1 8.65 58.05 7.7 59.15 5.95 59.3 L3.55 59.5 Q2.45 59.6 1.85 60.05 1.15 60.45 0.0 61.55 L4.55 29.5 4.65 27.85 Q4.6 26.8 3.25 26.0 7.1 22.55 10.55 22.25 12.15 22.1 13.05 22.65 M12.35 35.65 Q12.45 36.55 12.95 37.15 13.55 37.65 14.45 37.55 15.55 37.45 16.35 36.2 17.15 34.95 17.0 33.4 16.85 31.5 15.0 31.5 13.9 31.6 13.1 32.85 12.3 34.15 12.35 35.65" fill="#ffea00" fill-rule="evenodd" stroke="none"/>
    <path d="M142.45 4.9 L139.45 28.35 139.45 29.45 Q139.55 31.05 141.2 30.9 L142.2 30.55 143.5 30.0 144.25 30.3 144.6 30.9 Q144.75 32.5 142.1 34.75 139.3 37.25 135.7 37.6 133.35 37.8 131.8 36.55 130.2 35.35 130.05 33.35 L130.0 31.9 133.15 8.55 133.3 6.95 Q133.15 5.6 131.75 5.3 133.3 3.6 135.1 2.5 137.1 1.55 138.75 1.4 140.35 1.25 141.3 1.95 142.25 2.55 142.4 3.9 L142.45 4.9 M154.45 0.0 Q156.05 -0.1 156.95 0.6 157.9 1.15 158.05 2.5 L158.1 3.5 155.15 26.95 155.1 28.05 Q155.2 29.65 156.9 29.55 L157.9 29.2 Q159.0 28.65 159.2 28.6 L159.9 28.9 160.3 29.55 Q160.45 31.15 157.8 33.4 155.0 35.9 151.4 36.2 149.05 36.4 147.5 35.2 145.9 33.95 145.75 31.95 L145.7 30.5 148.85 7.15 148.95 5.6 Q148.8 4.25 147.4 3.9 149.0 2.2 150.8 1.15 152.8 0.15 154.45 0.0 M125.1 19.4 L123.75 28.9 123.6 31.0 Q123.65 31.55 124.15 31.95 L125.4 32.3 126.5 31.95 Q127.35 31.4 127.8 31.35 128.15 31.35 128.45 31.65 L128.8 32.3 Q128.9 33.55 127.25 35.15 123.95 38.6 119.8 38.95 117.9 39.15 116.45 37.9 115.1 36.75 114.9 34.75 L114.9 33.5 111.95 37.4 Q109.8 39.85 107.15 40.1 104.45 40.3 102.55 38.0 101.1 36.2 100.85 33.15 100.6 30.35 101.5 27.35 102.35 24.45 104.2 22.05 105.7 19.85 107.75 18.55 109.75 17.4 111.9 17.2 115.15 16.9 117.55 19.25 L120.35 17.1 Q121.35 16.55 122.5 16.45 L123.85 16.6 Q125.0 17.05 125.1 18.3 L125.1 19.4 M111.75 24.55 Q110.95 25.75 111.05 27.0 111.25 29.1 113.15 28.9 114.4 28.8 115.15 27.4 115.85 25.95 115.75 24.65 115.6 23.05 113.8 23.1 112.55 23.25 111.75 24.55 M85.1 21.65 Q88.05 19.3 90.7 19.05 93.95 18.75 96.05 20.6 98.0 22.6 98.3 25.6 98.65 29.55 96.75 33.55 94.6 37.8 90.8 40.05 87.85 41.75 84.6 42.05 79.8 42.45 77.05 39.65 75.2 37.8 74.95 35.0 L75.0 31.6 77.3 13.65 77.35 12.2 Q77.3 11.4 76.9 11.0 76.65 10.45 75.75 10.3 77.3 8.6 79.3 7.5 81.25 6.4 82.95 6.25 84.3 6.15 85.35 6.75 86.4 7.45 86.5 8.6 L86.4 9.7 85.1 21.65 M86.85 25.25 Q85.5 25.35 84.75 26.9 84.05 28.2 84.15 29.55 84.25 30.35 84.75 30.85 85.4 31.35 86.15 31.3 87.4 31.2 88.3 30.0 89.1 28.65 88.95 27.3 88.8 25.2 86.85 25.25 M67.95 22.3 Q69.5 23.35 69.7 25.25 L69.65 26.9 68.55 34.0 68.45 35.55 Q68.6 37.0 70.25 36.85 L71.25 36.65 72.7 36.2 Q73.0 36.15 73.3 36.5 L73.7 37.1 Q73.85 38.7 71.15 40.75 68.35 43.2 64.75 43.55 62.4 43.75 60.95 42.65 59.45 41.55 59.3 39.55 59.25 38.85 59.35 38.25 L60.05 32.35 60.05 31.1 Q60.0 30.45 59.55 30.15 59.15 29.7 58.45 29.8 56.1 30.0 55.65 33.4 L54.7 40.3 Q54.45 41.95 53.4 43.05 52.5 44.2 51.05 44.35 L48.7 44.55 Q46.45 44.75 45.1 46.15 L47.25 29.85 47.45 27.8 Q47.35 26.55 45.9 26.0 49.8 22.6 53.15 22.35 56.3 22.05 56.8 25.05 60.35 21.7 64.25 21.35 66.5 21.15 67.95 22.3 M41.7 43.45 Q38.55 46.1 35.3 46.35 33.05 46.55 31.5 45.35 29.95 44.2 29.75 42.3 L29.7 40.65 30.9 31.4 31.0 29.55 Q30.9 28.35 29.6 27.75 33.2 24.1 36.8 23.75 38.15 23.65 39.1 24.2 40.1 24.95 40.2 26.3 L40.2 27.3 38.9 36.4 Q38.8 37.25 38.85 38.05 39.0 39.85 40.7 39.7 L41.8 39.35 Q42.75 38.8 43.1 38.8 43.45 38.75 43.7 39.1 L44.1 39.6 Q44.25 41.4 41.7 43.45 M40.25 14.0 Q41.45 14.9 41.6 16.55 41.8 18.5 40.0 20.1 38.1 21.85 35.65 22.05 33.85 22.2 32.65 21.3 31.55 20.4 31.4 18.6 31.25 16.7 32.85 14.95 34.55 13.35 36.9 13.1 38.95 12.95 40.25 14.0 M13.05 22.65 Q13.95 23.3 14.05 24.5 L13.95 25.75 13.7 27.8 Q16.4 25.55 19.1 25.3 22.6 25.0 24.6 27.55 26.1 29.45 26.35 32.25 26.6 35.15 25.9 38.35 25.05 41.5 23.45 44.05 22.35 45.7 20.65 46.75 18.8 47.8 16.9 47.95 L13.85 47.6 Q12.55 47.1 11.15 45.65 L9.95 54.9 Q9.6 57.1 8.65 58.05 7.7 59.15 5.95 59.3 L3.55 59.5 Q2.45 59.6 1.85 60.05 1.15 60.45 0.0 61.55 L4.55 29.5 4.65 27.85 Q4.6 26.8 3.25 26.0 7.1 22.55 10.55 22.25 12.15 22.1 13.05 22.65 M12.35 35.65 Q12.45 36.55 12.95 37.15 13.55 37.65 14.45 37.55 15.55 37.45 16.35 36.2 17.15 34.95 17.0 33.4 16.85 31.5 15.0 31.5 13.9 31.6 13.1 32.85 12.3 34.15 12.35 35.65" fill="none" stroke="#000000" stroke-linecap="round" stroke-linejoin="round" stroke-width="5.0"/>
    <path d="M36.9 13.1 Q38.95 12.95 40.25 14.0 41.45 14.9 41.6 16.55 41.8 18.5 40.0 20.1 38.1 21.85 35.65 22.05 33.85 22.2 32.65 21.3 31.55 20.4 31.4 18.6 31.25 16.7 32.85 14.95 34.55 13.35 36.9 13.1 M13.95 25.75 L13.7 27.8 Q16.4 25.55 19.1 25.3 22.6 25.0 24.6 27.55 26.1 29.45 26.35 32.25 26.6 35.15 25.9 38.35 25.05 41.5 23.45 44.05 22.35 45.7 20.65 46.75 18.8 47.8 16.9 47.95 L13.85 47.6 Q12.55 47.1 11.15 45.65 L9.95 54.9 Q9.6 57.1 8.65 58.05 7.7 59.15 5.95 59.3 L3.55 59.5 Q2.45 59.6 1.85 60.05 1.15 60.45 0.0 61.55 L4.55 29.5 4.65 27.85 Q4.6 26.8 3.25 26.0 7.1 22.55 10.55 22.25 12.15 22.1 13.05 22.65 13.95 23.3 14.05 24.5 L13.95 25.75 M14.45 37.55 Q15.55 37.45 16.35 36.2 17.15 34.95 17.0 33.4 16.85 31.5 15.0 31.5 13.9 31.6 13.1 32.85 12.3 34.15 12.35 35.65 12.45 36.55 12.95 37.15 13.55 37.65 14.45 37.55 M39.1 24.2 Q40.1 24.95 40.2 26.3 L40.2 27.3 38.9 36.4 Q38.8 37.25 38.85 38.05 39.0 39.85 40.7 39.7 L41.8 39.35 Q42.75 38.8 43.1 38.8 43.45 38.75 43.7 39.1 L44.1 39.6 Q44.25 41.4 41.7 43.45 38.55 46.1 35.3 46.35 33.05 46.55 31.5 45.35 29.95 44.2 29.75 42.3 L29.7 40.65 30.9 31.4 31.0 29.55 Q30.9 28.35 29.6 27.75 33.2 24.1 36.8 23.75 38.15 23.65 39.1 24.2 M98.3 25.6 Q98.65 29.55 96.75 33.55 94.6 37.8 90.8 40.05 87.85 41.75 84.6 42.05 79.8 42.45 77.05 39.65 75.2 37.8 74.95 35.0 L75.0 31.6 77.3 13.65 77.35 12.2 Q77.3 11.4 76.9 11.0 76.65 10.45 75.75 10.3 77.3 8.6 79.3 7.5 81.25 6.4 82.95 6.25 84.3 6.15 85.35 6.75 86.4 7.45 86.5 8.6 L86.4 9.7 85.1 21.65 Q88.05 19.3 90.7 19.05 93.95 18.75 96.05 20.6 98.0 22.6 98.3 25.6 M101.5 27.35 Q102.35 24.45 104.2 22.05 105.7 19.85 107.75 18.55 109.75 17.4 111.9 17.2 115.15 16.9 117.55 19.25 L120.35 17.1 Q121.35 16.55 122.5 16.45 L123.85 16.6 Q125.0 17.05 125.1 18.3 L125.1 19.4 123.75 28.9 123.6 31.0 Q123.65 31.55 124.15 31.95 L125.4 32.3 126.5 31.95 Q127.35 31.4 127.8 31.35 128.15 31.35 128.45 31.65 L128.8 32.3 Q128.9 33.55 127.25 35.15 123.95 38.6 119.8 38.95 117.9 39.15 116.45 37.9 115.1 36.75 114.9 34.75 L114.9 33.5 111.95 37.4 Q109.8 39.85 107.15 40.1 104.45 40.3 102.55 38.0 101.1 36.2 100.85 33.15 100.6 30.35 101.5 27.35 M88.95 27.3 Q88.8 25.2 86.85 25.25 85.5 25.35 84.75 26.9 84.05 28.2 84.15 29.55 84.25 30.35 84.75 30.85 85.4 31.35 86.15 31.3 87.4 31.2 88.3 30.0 89.1 28.65 88.95 27.3 M111.75 24.55 Q110.95 25.75 111.05 27.0 111.25 29.1 113.15 28.9 114.4 28.8 115.15 27.4 115.85 25.95 115.75 24.65 115.6 23.05 113.8 23.1 112.55 23.25 111.75 24.55 M64.25 21.35 Q66.5 21.15 67.95 22.3 69.5 23.35 69.7 25.25 L69.65 26.9 68.55 34.0 68.45 35.55 Q68.6 37.0 70.25 36.85 L71.25 36.65 72.7 36.2 Q73.0 36.15 73.3 36.5 L73.7 37.1 Q73.85 38.7 71.15 40.75 68.35 43.2 64.75 43.55 62.4 43.75 60.95 42.65 59.45 41.55 59.3 39.55 59.25 38.85 59.35 38.25 L60.05 32.35 60.05 31.1 Q60.0 30.45 59.55 30.15 59.15 29.7 58.45 29.8 56.1 30.0 55.65 33.4 L54.7 40.3 Q54.45 41.95 53.4 43.05 52.5 44.2 51.05 44.35 L48.7 44.55 Q46.45 44.75 45.1 46.15 L47.25 29.85 47.45 27.8 Q47.35 26.55 45.9 26.0 49.8 22.6 53.15 22.35 56.3 22.05 56.8 25.05 60.35 21.7 64.25 21.35 M154.45 0.0 Q156.05 -0.1 156.95 0.6 157.9 1.15 158.05 2.5 L158.1 3.5 155.15 26.95 155.1 28.05 Q155.2 29.65 156.9 29.55 L157.9 29.2 Q159.0 28.65 159.2 28.6 L159.9 28.9 160.3 29.55 Q160.45 31.15 157.8 33.4 155.0 35.9 151.4 36.2 149.05 36.4 147.5 35.2 145.9 33.95 145.75 31.95 L145.7 30.5 148.85 7.15 148.95 5.6 Q148.8 4.25 147.4 3.9 149.0 2.2 150.8 1.15 152.8 0.15 154.45 0.0 M131.75 5.3 Q133.3 3.6 135.1 2.5 137.1 1.55 138.75 1.4 140.35 1.25 141.3 1.95 142.25 2.55 142.4 3.9 L142.45 4.9 139.45 28.35 139.45 29.45 Q139.55 31.05 141.2 30.9 L142.2 30.55 143.5 30.0 144.25 30.3 144.6 30.9 Q144.75 32.5 142.1 34.75 139.3 37.25 135.7 37.6 133.35 37.8 131.8 36.55 130.2 35.35 130.05 33.35 L130.0 31.9 133.15 8.55 133.3 6.95 Q133.15 5.6 131.75 5.3" fill="#ffea00" fill-rule="evenodd" stroke="none"/>
  </g>
</svg>
