<?xml version="1.0" encoding="UTF-8" standalone="no"?>
<svg xmlns:xlink="http://www.w3.org/1999/xlink" height="39.0px" width="194.95px" xmlns="http://www.w3.org/2000/svg">
  <g transform="matrix(1.0, 0.0, 0.0, 1.0, 97.5, 19.5)">
    <path d="M97.45 -8.5 L97.45 8.5 Q97.45 19.5 86.45 19.5 L-86.5 19.5 Q-97.5 19.5 -97.5 8.5 L-97.5 -8.5 Q-97.5 -19.5 -86.5 -19.5 L86.45 -19.5 Q97.45 -19.5 97.45 -8.5" fill="#000000" fill-rule="evenodd" stroke="none"/>
    <path d="M86.45 -18.5 Q96.45 -18.5 96.45 -8.5 L96.45 1.0 -96.5 1.0 -96.5 -8.5 Q-96.5 -18.5 -86.5 -18.5 L86.45 -18.5" fill="#ffffff" fill-rule="evenodd" stroke="none"/>
    <path d="M96.45 8.5 Q96.45 18.5 86.45 18.5 L-86.5 18.5 Q-96.5 18.5 -96.5 8.5 L-96.5 1.0 96.45 1.0 96.45 8.5" fill="#ffffff" fill-rule="evenodd" stroke="none"/>
    <path d="M-92.5 1.0 L-92.5 -8.5 Q-92.5 -14.5 -86.5 -14.5 L86.45 -14.5 Q92.45 -14.5 92.45 -8.5 L92.45 1.0 92.45 8.5 Q92.45 14.5 86.45 14.5 L-86.5 14.5 Q-92.5 14.5 -92.5 8.5 L-92.5 1.0 92.45 1.0 -92.5 1.0" fill="url(#gradient0)" fill-rule="evenodd" stroke="none"/>
  </g>
  <defs>
    <linearGradient gradientTransform="matrix(0.0, -0.0128, 0.1129, 0.0, -0.05, 0.5)" gradientUnits="userSpaceOnUse" id="gradient0" spreadMethod="pad" x1="-819.2" x2="819.2">
      <stop offset="0.0" stop-color="#7fd1f0"/>
      <stop offset="1.0" stop-color="#006699"/>
    </linearGradient>
  </defs>
</svg>
