<?xml version="1.0" encoding="UTF-8" standalone="no"?>
<svg xmlns:xlink="http://www.w3.org/1999/xlink" height="255.05px" width="212.25px" xmlns="http://www.w3.org/2000/svg">
  <g transform="matrix(1.0, 0.0, 0.0, 1.0, 0.0, 0.0)">
    <path d="M162.45 45.55 Q161.65 45.5 160.05 46.1 L133.75 48.3 Q114.8 48.85 97.35 46.8 79.95 44.7 63.85 41.75 54.4 40.2 45.6 38.25 36.75 36.3 29.7 32.5 29.3 32.55 29.0 32.9 L24.9 37.8 Q17.6 48.8 11.65 60.15 11.35 61.35 12.25 61.5 L17.7 62.2 40.25 63.05 Q55.3 63.8 70.4 63.1 103.25 60.95 134.3 56.45 L151.9 53.1 Q158.9 51.7 165.05 49.25 163.95 47.05 162.45 45.55 M185.45 94.15 Q187.3 109.55 185.8 126.2 185.5 128.55 185.55 130.95 185.7 131.55 186.4 131.85 L187.65 131.8 190.15 127.75 Q191.95 125.4 195.45 124.05 198.95 122.7 202.6 124.3 205.25 125.7 206.55 129.1 207.8 132.45 206.3 135.95 L204.0 139.1 Q203.8 140.15 204.75 140.6 210.6 143.2 212.25 149.65 212.45 153.4 209.3 154.55 206.25 156.0 202.95 156.55 201.6 157.0 201.65 158.3 201.85 163.5 199.55 166.15 195.65 167.8 192.25 166.65 190.2 167.4 189.7 169.55 188.8 171.3 187.35 172.8 185.9 173.75 184.0 174.2 177.75 174.7 175.2 170.65 174.0 169.7 173.0 170.8 171.25 174.35 169.1 177.5 151.85 198.4 122.2 207.1 121.75 207.3 121.5 207.85 121.55 211.4 123.2 213.6 125.25 214.35 126.25 213.05 136.95 205.7 149.45 201.15 155.2 199.2 162.2 199.75 166.55 201.45 166.75 207.1 164.75 216.2 158.2 220.8 147.1 229.15 134.65 236.15 127.6 240.45 120.1 243.95 117.5 244.55 116.2 242.85 113.85 240.7 112.85 237.15 108.45 224.25 101.0 214.35 98.55 211.5 94.7 212.5 L85.55 213.0 Q84.25 213.45 83.9 214.65 82.05 218.35 79.6 222.2 83.0 225.1 86.95 227.2 94.25 232.3 99.2 239.65 101.4 242.2 102.15 245.9 102.55 249.2 101.15 251.35 98.95 254.65 94.15 255.0 89.4 255.3 85.7 253.25 68.55 243.2 54.35 230.3 52.5 227.35 51.25 224.8 50.9 219.55 53.75 217.6 58.85 214.2 62.15 208.95 62.65 208.1 62.3 207.4 61.15 205.95 59.05 205.45 30.9 196.1 16.55 173.1 11.9 166.3 8.45 158.7 6.7 154.8 5.45 150.8 2.7 140.05 1.25 128.15 L0.0 103.55 Q1.4 77.9 7.55 57.0 L18.1 38.7 Q30.15 22.4 48.2 11.85 60.3 4.5 76.45 1.15 79.55 0.4 83.0 0.15 93.6 -0.45 103.2 1.25 123.15 4.95 137.85 14.0 149.3 21.1 157.4 31.5 162.95 37.45 167.75 44.1 174.95 53.75 178.7 66.6 183.65 78.75 185.45 94.15 M172.85 64.15 Q171.7 59.75 169.3 56.45 168.8 55.8 168.0 55.9 L167.55 56.15 Q157.3 58.75 146.4 60.7 112.05 66.15 74.9 68.95 56.45 69.55 37.85 68.8 28.25 68.15 17.6 68.25 14.9 67.6 11.5 67.5 10.3 67.35 9.75 68.5 6.2 84.25 5.05 102.55 L6.35 127.9 7.25 134.15 Q7.45 135.0 8.25 135.2 L16.7 136.05 Q19.5 136.35 23.05 136.05 23.5 135.8 23.25 135.05 21.4 131.45 20.2 127.25 19.85 125.65 21.1 124.9 24.2 124.35 25.9 126.55 L29.15 133.3 Q30.85 136.3 31.15 140.45 28.25 141.45 25.95 142.55 24.05 144.25 22.4 146.2 20.3 148.2 21.0 151.3 21.4 152.35 22.4 152.4 L23.1 151.75 Q25.1 148.55 27.55 145.85 L30.8 145.55 Q32.4 146.5 32.4 148.85 L30.4 152.05 Q29.05 153.55 28.7 156.15 28.35 158.7 29.75 160.6 L31.7 160.6 Q33.2 160.65 33.8 159.1 34.75 155.35 36.85 152.1 40.15 151.2 41.7 153.4 42.4 155.7 41.1 157.5 40.2 159.15 39.9 161.5 39.6 163.85 40.9 165.45 41.75 166.8 44.2 166.2 L45.3 165.45 Q47.4 162.7 47.65 158.0 L47.1 152.5 Q49.15 149.8 52.55 150.85 53.7 152.6 55.35 154.15 57.0 155.75 59.75 155.7 63.55 154.95 64.0 151.05 64.05 149.15 63.55 147.45 63.4 143.9 60.65 142.85 L55.15 143.1 Q52.7 143.6 51.15 144.9 48.15 145.95 46.05 143.65 43.8 134.85 42.1 124.9 41.8 123.65 42.55 122.9 45.0 121.3 47.75 122.65 49.45 124.25 48.9 127.1 49.85 132.9 51.25 137.6 51.75 138.65 52.8 138.45 59.3 136.75 65.05 138.95 68.05 140.85 69.75 143.55 L78.75 143.3 Q79.55 143.0 79.25 142.4 74.55 138.95 70.95 134.25 60.95 122.5 61.95 101.3 61.95 99.55 62.85 99.05 64.6 99.25 66.0 100.1 67.15 100.35 67.35 101.45 67.15 115.7 71.65 125.35 77.9 138.2 92.25 141.95 109.45 140.2 124.65 137.2 131.95 137.1 134.95 132.5 138.9 125.75 140.05 115.4 139.65 114.0 139.9 112.25 140.15 110.55 141.2 109.85 144.75 109.55 146.0 112.2 L146.15 112.9 Q145.45 123.35 142.25 131.35 141.55 132.8 142.2 133.2 153.9 130.85 164.85 127.45 173.45 125.7 180.3 122.55 181.85 110.6 180.8 99.2 179.25 84.95 175.6 72.55 174.0 68.5 172.85 64.15 M178.95 130.2 L177.6 130.45 Q130.05 145.5 71.85 149.65 70.95 149.8 70.8 150.65 70.15 158.15 64.3 160.45 L59.75 161.45 58.85 161.7 Q58.25 161.9 58.9 162.1 L66.15 162.65 118.5 160.9 168.75 156.85 Q171.65 156.75 173.7 155.75 176.45 148.2 178.15 139.75 179.25 136.15 179.6 131.75 179.95 130.75 178.95 130.2 M192.65 136.05 Q192.3 137.9 190.8 138.55 187.7 138.15 185.95 136.7 185.1 137.3 185.1 137.9 182.85 151.6 177.65 162.75 180.0 164.25 179.15 167.05 179.05 168.2 180.55 169.05 181.05 169.6 181.7 169.4 184.9 167.7 184.55 162.7 L183.45 158.2 Q183.0 156.45 184.25 155.65 186.9 154.9 188.85 156.0 192.05 158.45 193.9 161.95 194.45 162.4 195.05 161.8 196.5 158.6 195.0 155.15 192.35 154.05 190.4 152.05 189.05 150.75 190.1 148.65 L194.0 148.45 Q197.5 150.05 200.65 152.25 203.6 152.1 205.45 150.9 207.15 150.0 207.0 148.7 205.65 146.3 203.1 144.7 200.55 143.15 197.05 144.0 195.95 144.1 194.85 143.55 193.55 142.85 192.65 141.65 191.6 139.75 193.05 138.8 198.75 137.75 201.2 132.75 202.45 129.65 199.85 128.0 L198.35 128.25 198.0 128.3 Q193.85 130.65 192.65 136.05 M169.75 162.8 L132.95 165.6 93.05 168.1 Q72.6 169.15 51.85 167.8 49.2 170.75 44.45 172.2 40.5 172.8 38.0 171.0 35.45 169.15 34.2 166.4 33.85 165.75 33.1 165.9 L27.05 166.05 Q24.1 165.15 22.85 163.05 L17.1 162.8 Q16.3 163.15 16.65 163.8 19.25 168.2 21.95 172.2 L67.75 173.7 94.1 173.3 105.85 172.75 167.95 167.0 Q169.5 165.7 170.1 163.9 170.4 163.05 169.75 162.8 M163.95 173.45 L160.2 173.25 104.95 178.45 Q87.55 179.05 69.6 179.15 L30.1 178.3 26.65 178.6 Q27.85 180.85 29.45 181.9 39.75 182.75 48.2 184.8 88.1 189.6 132.8 188.85 L151.2 187.6 Q158.55 181.2 164.1 174.7 164.7 173.65 163.95 173.45 M157.4 38.75 Q155.1 35.65 152.5 33.0 148.0 27.15 142.45 22.4 141.55 20.95 139.7 21.05 135.45 22.45 131.8 20.75 L120.45 21.1 Q101.75 22.05 82.05 22.05 62.3 22.05 45.4 19.3 44.75 19.4 44.1 19.85 L35.1 27.45 Q34.7 28.35 35.75 28.7 39.8 30.45 44.4 31.7 58.35 35.25 73.9 37.4 92.5 41.4 114.75 42.3 137.0 43.2 156.85 39.75 157.7 39.35 157.4 38.75 M128.5 13.8 Q122.05 10.35 114.05 8.0 100.7 3.7 84.0 4.55 67.1 6.25 55.55 13.3 55.0 13.85 55.6 14.2 L60.05 14.9 Q78.0 16.7 98.55 15.9 L127.85 14.65 Q128.8 14.45 128.5 13.8 M92.9 70.55 Q98.15 70.1 99.8 73.5 100.6 78.35 98.95 81.85 97.3 85.35 94.6 87.45 91.35 88.1 88.45 86.95 87.35 84.85 86.65 82.5 L86.7 79.05 Q87.3 75.85 88.65 73.35 89.25 72.5 90.0 71.95 L92.9 70.55 M114.35 69.75 Q119.45 69.0 121.3 72.85 122.25 74.05 122.4 75.35 L122.4 80.3 Q121.25 84.45 118.4 86.95 117.05 88.05 115.35 88.55 110.3 89.05 108.85 85.3 107.9 75.5 112.95 70.4 113.6 69.85 114.35 69.75 M9.1 141.1 L8.55 141.7 Q9.9 149.8 12.9 156.15 L16.8 156.8 16.8 156.0 Q14.05 153.4 14.0 149.1 14.0 144.8 16.7 142.6 17.0 141.75 16.0 141.45 L9.1 141.1 M38.4 189.8 Q44.6 194.45 51.85 197.85 60.15 200.9 67.65 204.5 70.2 205.55 69.2 208.4 L65.65 213.3 Q62.15 217.95 57.85 221.45 56.95 222.3 57.1 223.65 L58.7 227.4 Q71.6 240.6 88.95 249.3 90.65 250.15 92.85 250.05 95.8 249.85 96.35 247.2 96.5 245.1 95.5 243.5 89.25 231.8 76.5 226.6 74.4 225.65 73.1 223.95 72.45 223.3 72.65 222.55 76.85 215.95 80.3 208.7 80.95 207.6 82.4 207.55 L96.3 207.15 Q99.85 207.35 102.6 208.6 103.8 209.1 104.75 210.3 112.7 220.65 117.6 234.0 118.3 236.25 119.65 237.95 122.0 237.25 123.8 236.05 141.1 227.65 155.15 215.85 159.7 212.25 160.95 205.75 161.0 204.35 159.75 204.1 156.4 204.2 153.6 204.9 136.6 210.9 123.7 221.3 L121.5 221.4 Q119.8 220.9 119.4 219.25 117.25 213.2 114.5 207.2 113.75 205.15 115.15 203.85 128.75 200.9 139.0 195.2 139.4 194.5 138.4 194.3 117.8 194.95 97.2 193.7 66.75 192.95 39.3 188.8 38.0 188.3 37.8 189.15 L38.4 189.8" fill="#221f14" fill-rule="evenodd" stroke="none"/>
    <path d="M9.1 141.1 L16.0 141.45 Q17.0 141.75 16.7 142.6 14.0 144.8 14.0 149.1 14.05 153.4 16.8 156.0 L16.8 156.8 12.9 156.15 Q9.9 149.8 8.55 141.7 L9.1 141.1" fill="#ffffff" fill-rule="evenodd" stroke="none"/>
  </g>
</svg>
