<?xml version="1.0" encoding="UTF-8" standalone="no"?>
<svg xmlns:xlink="http://www.w3.org/1999/xlink" height="184.55px" width="168.15px" xmlns="http://www.w3.org/2000/svg">
  <g transform="matrix(1.0, 0.0, 0.0, 1.0, 0.05, 0.0)">
    <path d="M17.85 177.5 Q16.25 176.45 15.05 174.2 L18.5 173.9 58.0 174.75 Q75.95 174.65 93.35 174.05 L148.6 168.85 152.35 169.05 Q153.1 169.25 152.5 170.3 146.95 176.8 139.6 183.2 L121.2 184.45 Q76.5 185.2 36.6 180.4 28.15 178.35 17.85 177.5 M22.6 162.0 Q23.85 164.75 26.4 166.6 28.9 168.4 32.85 167.8 37.6 166.35 40.25 163.4 61.0 164.75 81.45 163.7 L121.35 161.2 158.15 158.4 Q158.8 158.65 158.5 159.5 157.9 161.3 156.35 162.6 L94.25 168.35 82.5 168.9 56.15 169.3 10.35 167.8 Q7.65 163.8 5.05 159.4 4.7 158.75 5.5 158.4 L11.25 158.65 Q12.5 160.75 15.45 161.65 L21.5 161.5 Q22.25 161.35 22.6 162.0 M102.45 3.6 Q110.45 5.95 116.9 9.4 117.2 10.05 116.25 10.25 L86.95 11.5 Q66.4 12.3 48.45 10.5 L44.0 9.8 Q43.4 9.45 43.95 8.9 55.5 1.85 72.4 0.15 89.1 -0.7 102.45 3.6 M128.1 16.65 Q129.95 16.55 130.85 18.0 136.4 22.75 140.9 28.6 143.5 31.25 145.8 34.35 146.1 34.95 145.25 35.35 125.4 38.8 103.15 37.9 80.9 37.0 62.3 33.0 46.75 30.85 32.8 27.3 28.2 26.05 24.15 24.3 23.1 23.95 23.5 23.05 L32.5 15.45 Q33.15 15.0 33.8 14.9 50.7 17.65 70.45 17.65 90.15 17.65 108.85 16.7 L120.2 16.35 Q123.85 18.05 128.1 16.65 M148.45 41.7 Q150.05 41.1 150.85 41.15 152.35 42.65 153.45 44.85 147.3 47.3 140.3 48.7 L122.7 52.05 Q91.65 56.55 58.8 58.7 43.7 59.4 28.65 58.65 L6.1 57.8 0.65 57.1 Q-0.25 56.95 0.05 55.75 6.0 44.4 13.3 33.4 L17.4 28.5 Q17.7 28.15 18.1 28.1 25.15 31.9 34.0 33.85 L52.25 37.35 Q68.35 40.3 85.75 42.4 103.2 44.45 122.15 43.9 L148.45 41.7 M168.0 127.35 Q167.65 131.75 166.55 135.35 164.85 143.8 162.1 151.35 160.05 152.35 157.15 152.45 L106.9 156.5 54.55 158.25 47.3 157.7 Q46.65 157.5 47.25 157.3 L48.15 157.05 52.7 156.05 Q58.55 153.75 59.2 146.25 59.35 145.4 60.25 145.25 118.45 141.1 166.0 126.05 166.8 125.75 167.35 125.8 168.35 126.35 168.0 127.35" fill="#ffffff" fill-rule="evenodd" stroke="none"/>
  </g>
</svg>
