<?xml version="1.0" encoding="UTF-8" standalone="no"?>
<svg xmlns:xlink="http://www.w3.org/1999/xlink" height="194.15px" width="201.95px" xmlns="http://www.w3.org/2000/svg">
  <g transform="matrix(1.0, 0.0, 0.0, 1.0, 0.0, 0.0)">
    <path d="M192.95 72.4 L193.3 72.35 194.8 72.1 Q197.4 73.75 196.15 76.85 193.7 81.85 188.0 82.9 186.55 83.85 187.6 85.75 188.5 86.95 189.8 87.65 L192.0 88.1 Q195.5 87.25 198.05 88.8 200.6 90.4 201.95 92.8 202.1 94.1 200.4 95.0 198.55 96.2 195.6 96.35 192.45 94.15 188.95 92.55 L185.05 92.75 Q184.0 94.85 185.35 96.15 187.3 98.15 189.95 99.25 191.45 102.7 190.0 105.9 189.4 106.5 188.85 106.05 187.0 102.55 183.8 100.1 181.85 99.0 179.2 99.75 177.95 100.55 178.4 102.3 L179.5 106.8 Q179.85 111.8 176.65 113.5 176.0 113.7 175.5 113.15 174.0 112.3 174.1 111.15 174.95 108.35 172.6 106.85 177.8 95.7 180.05 82.0 180.05 81.4 180.9 80.8 182.65 82.25 185.75 82.65 187.25 82.0 187.6 80.15 188.8 74.75 192.95 72.4 M170.55 16.65 Q174.2 29.05 175.75 43.3 176.8 54.7 175.25 66.65 168.4 69.8 159.8 71.55 148.85 74.95 137.15 77.3 136.5 76.9 137.2 75.45 140.4 67.45 141.1 57.0 L140.95 56.3 Q139.7 53.65 136.15 53.95 135.1 54.65 134.85 56.35 134.6 58.1 135.0 59.5 133.85 69.85 129.9 76.6 126.9 81.2 119.6 81.3 104.4 84.3 87.2 86.05 72.85 82.3 66.6 69.45 62.1 59.8 62.3 45.55 62.1 44.45 60.95 44.2 59.55 43.35 57.8 43.15 56.9 43.65 56.9 45.4 55.9 66.6 65.9 78.35 69.5 83.05 74.2 86.5 74.5 87.1 73.7 87.4 L64.7 87.65 Q63.0 84.95 60.0 83.05 54.25 80.85 47.75 82.55 46.7 82.75 46.2 81.7 44.8 77.0 43.85 71.2 44.4 68.35 42.7 66.75 39.95 65.4 37.5 67.0 36.75 67.75 37.05 69.0 38.75 78.95 41.0 87.75 43.1 90.05 46.1 89.0 47.65 87.7 50.1 87.2 L55.6 86.95 Q58.35 88.0 58.5 91.55 59.0 93.25 58.95 95.15 58.5 99.05 54.7 99.8 51.95 99.85 50.3 98.25 48.65 96.7 47.5 94.95 44.1 93.9 42.05 96.6 L42.6 102.1 Q42.35 106.8 40.25 109.55 L39.15 110.3 Q36.7 110.9 35.85 109.55 34.55 107.95 34.85 105.6 35.15 103.25 36.05 101.6 37.35 99.8 36.65 97.5 35.1 95.3 31.8 96.2 29.7 99.45 28.75 103.2 28.15 104.75 26.65 104.7 L24.7 104.7 Q23.3 102.8 23.65 100.25 24.0 97.65 25.35 96.15 L27.35 92.95 Q27.35 90.6 25.75 89.65 L22.5 89.95 Q20.05 92.65 18.05 95.85 L17.35 96.5 Q16.35 96.45 15.95 95.4 15.25 92.3 17.35 90.3 19.0 88.35 20.9 86.65 23.2 85.55 26.1 84.55 25.8 80.4 24.1 77.4 L20.85 70.65 Q19.15 68.45 16.05 69.0 14.8 69.75 15.15 71.35 16.35 75.55 18.2 79.15 18.45 79.9 18.0 80.15 14.45 80.45 11.65 80.15 L3.2 79.3 Q2.4 79.1 2.2 78.25 L1.3 72.0 0.0 46.65 Q1.15 28.35 4.7 12.6 5.25 11.45 6.45 11.6 L12.55 12.35 Q23.2 12.25 32.8 12.9 51.4 13.65 69.85 13.05 107.0 10.25 141.35 4.8 152.25 2.85 162.5 0.25 L162.95 0.0 Q163.75 -0.1 164.25 0.55 166.65 3.85 167.8 8.25 168.95 12.6 170.55 16.65 M109.3 13.85 Q108.55 13.95 107.9 14.5 102.85 19.6 103.8 29.4 105.25 33.15 110.3 32.65 112.0 32.15 113.35 31.05 116.2 28.55 117.35 24.4 L117.35 19.45 Q117.2 18.15 116.25 16.95 114.4 13.1 109.3 13.85 M87.85 14.65 L84.95 16.05 Q84.2 16.6 83.6 17.45 82.25 19.95 81.65 23.15 L81.6 26.6 Q82.3 28.95 83.4 31.05 86.3 32.2 89.55 31.55 92.25 29.45 93.9 25.95 95.55 22.45 94.75 17.6 93.1 14.2 87.85 14.65 M33.35 133.9 L32.75 133.25 Q32.95 132.4 34.25 132.9 61.7 137.05 92.15 137.8 112.75 139.05 133.35 138.4 134.35 138.6 133.95 139.3 123.7 145.0 110.1 147.95 108.7 149.25 109.45 151.3 112.2 157.3 114.35 163.35 114.75 165.0 116.45 165.5 L118.65 165.4 Q131.55 155.0 148.55 149.0 L154.7 148.2 Q155.95 148.45 155.9 149.85 154.65 156.35 150.1 159.95 136.05 171.75 118.75 180.15 116.95 181.35 114.6 182.05 113.25 180.35 112.55 178.1 107.65 164.75 99.7 154.4 98.75 153.2 97.55 152.7 94.8 151.45 91.25 151.25 L77.35 151.65 Q75.9 151.7 75.25 152.8 71.8 160.05 67.6 166.65 67.4 167.4 68.05 168.05 69.35 169.75 71.45 170.7 84.2 175.9 90.45 187.6 91.45 189.2 91.3 191.3 90.75 193.95 87.8 194.15 85.6 194.25 83.9 193.4 66.55 184.7 53.65 171.5 L52.05 167.75 Q51.9 166.4 52.8 165.55 57.1 162.05 60.6 157.4 L64.15 152.5 Q65.15 149.65 62.6 148.6 55.1 145.0 46.8 141.95 39.55 138.55 33.35 133.9" fill="#66ffff" fill-rule="evenodd" stroke="none"/>
  </g>
</svg>
