<?xml version="1.0" encoding="UTF-8" standalone="no"?>
<svg xmlns:xlink="http://www.w3.org/1999/xlink" height="37.4px" width="80.3px" xmlns="http://www.w3.org/2000/svg">
  <g transform="matrix(1.0, 0.0, 0.0, 1.0, 0.3, 0.5)">
    <path d="M38.7 -0.35 L39.2 0.3 41.6 3.3 41.65 3.3 41.65 0.3 Q41.7 -0.55 42.35 -0.5 43.1 -0.55 43.15 0.3 L43.15 5.25 Q43.1 6.0 42.35 6.05 L41.9 5.85 41.4 5.25 38.95 2.2 38.95 5.25 Q38.9 6.0 38.2 6.05 37.5 6.0 37.45 5.25 L37.45 0.3 Q37.5 -0.55 38.2 -0.5 L38.7 -0.35 M62.45 7.9 Q62.8 7.2 63.45 7.55 64.05 7.8 63.75 8.55 L62.45 11.4 Q62.15 11.95 62.4 12.4 62.55 12.9 63.05 13.15 L64.1 13.2 64.85 12.5 66.15 9.65 Q66.55 8.95 67.15 9.25 67.75 9.55 67.5 10.3 L66.15 13.15 Q65.6 14.25 64.6 14.6 L62.5 14.4 Q61.35 13.85 61.0 12.9 60.6 11.95 61.1 10.8 L62.45 7.9 M77.95 30.3 Q78.75 30.5 79.3 31.2 80.4 32.6 79.75 33.2 L78.8 33.15 78.55 32.65 78.2 32.05 Q77.8 31.55 77.4 31.85 77.2 32.0 77.3 32.35 L77.7 33.4 77.95 34.6 Q77.95 35.2 77.3 35.8 76.4 36.5 75.55 36.3 74.75 36.1 74.1 35.3 73.6 34.75 73.4 34.05 73.1 33.35 73.5 32.95 L74.05 32.75 74.55 32.95 74.8 33.55 75.25 34.4 Q75.8 35.0 76.2 34.6 76.45 34.4 76.35 34.05 L76.0 33.05 Q75.7 32.45 75.7 31.9 75.65 31.3 76.3 30.75 77.1 30.1 77.95 30.3 M12.25 9.6 Q12.6 8.4 13.9 7.8 L16.4 7.65 Q17.5 8.1 18.2 9.5 18.8 10.9 18.45 12.05 18.05 13.25 16.75 13.85 L14.3 14.0 Q13.1 13.55 12.45 12.15 11.8 10.75 12.25 9.6 M13.9 11.5 Q14.2 12.2 14.8 12.55 L16.15 12.65 Q16.9 12.2 17.0 11.55 17.1 10.8 16.75 10.15 16.45 9.45 15.85 9.1 L14.5 9.05 Q13.75 9.4 13.65 10.1 13.55 10.8 13.9 11.5 M3.4 30.9 L3.8 31.6 3.8 32.3 Q4.3 31.9 4.85 31.9 5.4 31.9 5.9 32.3 6.45 32.75 6.55 33.55 6.65 34.3 5.95 35.25 L4.75 36.65 4.3 36.9 3.75 36.75 -0.05 33.55 -0.3 33.0 -0.15 32.55 0.95 31.2 Q1.5 30.55 2.15 30.5 2.8 30.4 3.4 30.9 M4.3 33.35 Q4.0 33.45 3.8 33.7 L3.25 34.4 4.25 35.2 4.8 34.5 5.1 33.95 4.9 33.45 4.3 33.35 M2.65 32.2 L1.75 32.3 1.35 32.8 2.25 33.55 2.65 33.05 Q3.05 32.6 2.65 32.2" fill="#000000" fill-rule="evenodd" stroke="none"/>
  </g>
</svg>
