<?xml version="1.0" encoding="UTF-8" standalone="no"?>
<svg xmlns:xlink="http://www.w3.org/1999/xlink" height="157.0px" width="256.0px" xmlns="http://www.w3.org/2000/svg">
  <g transform="matrix(1.0, 0.0, 0.0, 1.0, 128.5, 78.9)">
    <path d="M-128.5 -72.9 L-128.5 72.1 Q-128.5 74.6 -126.75 76.35 -125.0 78.1 -122.5 78.1 L121.5 78.1 Q124.0 78.1 125.75 76.35 127.5 74.6 127.5 72.1 L127.5 -72.9 Q127.5 -75.4 125.75 -77.15 124.0 -78.9 121.5 -78.9 L-122.5 -78.9 Q-125.0 -78.9 -126.75 -77.15 -128.5 -75.4 -128.5 -72.9" fill="#ff0000" fill-rule="evenodd" stroke="none">
      <animate attributeName="fill" dur="2s" repeatCount="indefinite" values="#ff0000;#ff0001"/>
      <animate attributeName="fill-opacity" dur="2s" repeatCount="indefinite" values="1.0;1.0"/>
      <animate attributeName="d" dur="2s" repeatCount="indefinite" values="M-128.5 -72.9 L-128.5 72.1 Q-128.5 74.6 -126.75 76.35 -125.0 78.1 -122.5 78.1 L121.5 78.1 Q124.0 78.1 125.75 76.35 127.5 74.6 127.5 72.1 L127.5 -72.9 Q127.5 -75.4 125.75 -77.15 124.0 -78.9 121.5 -78.9 L-122.5 -78.9 Q-125.0 -78.9 -126.75 -77.15 -128.5 -75.4 -128.5 -72.9;M-6.9 -4.0 L-6.9 3.25 Q-6.85 3.35 -6.8 3.45 -6.7 3.5 -6.6 3.55 L5.6 3.55 Q5.75 3.5 5.85 3.45 5.9 3.35 5.9 3.25 L5.9 -4.0 Q5.85 -4.1 5.85 -4.2 5.7 -4.25 5.6 -4.3 L-6.6 -4.3 Q-6.7 -4.25 -6.8 -4.2 -6.85 -4.1 -6.9 -4.0"/>
    </path>
    <path d="M-128.5 -72.9 Q-128.5 -75.4 -126.75 -77.15 -125.0 -78.9 -122.5 -78.9 L121.5 -78.9 Q124.0 -78.9 125.75 -77.15 127.5 -75.4 127.5 -72.9 L127.5 72.1 Q127.5 74.6 125.75 76.35 124.0 78.1 121.5 78.1 L-122.5 78.1 Q-125.0 78.1 -126.75 76.35 -128.5 74.6 -128.5 72.1 L-128.5 -72.9" fill="none" stroke="#000000" stroke-linecap="round" stroke-linejoin="round" stroke-opacity="0.0" stroke-width="1.0">
      <animate attributeName="stroke" dur="2s" repeatCount="indefinite" values="#000000;#000001"/>
      <animate attributeName="stroke-width" dur="2s" repeatCount="indefinite" values="0.0;0.0"/>
      <animate attributeName="fill-opacity" dur="2s" repeatCount="indefinite" values="0.0;0.0"/>
      <animate attributeName="d" dur="2s" repeatCount="indefinite" values="M-128.5 -72.9 Q-128.5 -75.4 -126.75 -77.15 -125.0 -78.9 -122.5 -78.9 L121.5 -78.9 Q124.0 -78.9 125.75 -77.15 127.5 -75.4 127.5 -72.9 L127.5 72.1 Q127.5 74.6 125.75 76.35 124.0 78.1 121.5 78.1 L-122.5 78.1 Q-125.0 78.1 -126.75 76.35 -128.5 74.6 -128.5 72.1 L-128.5 -72.9;M-6.9 -4.0 Q-6.85 -4.1 -6.8 -4.2 -6.7 -4.25 -6.6 -4.3 L5.6 -4.3 Q5.7 -4.25 5.85 -4.2 5.85 -4.1 5.9 -4.0 L5.9 3.25 Q5.9 3.35 5.85 3.45 5.75 3.5 5.6 3.55 L-6.6 3.55 Q-6.7 3.5 -6.8 3.45 -6.85 3.35 -6.9 3.25 L-6.9 -4.0"/>
    </path>
  </g>
</svg>
